<svg xmlns="http://www.w3.org/2000/svg" viewBox="0 0 366.974 516.501">
<g transform="translate(-328.041258,612.839204) scale(0.100000,-0.100000)" fill="#000000" stroke="none">
<path d="M3832 5619 c-87 -10 -144 -39 -175 -89 -22 -35 -22 -35 -21 -1270 1
-1388 -5 -1283 79 -1494 25 -64 61 -176 81 -249 19 -73 45 -152 58 -177 175
-341 168 -332 428 -571 148 -135 192 -160 333 -189 55 -11 155 -39 223 -60
225 -74 382 -75 599 -6 59 19 163 48 230 64 156 38 199 60 299 152 45 41 107
97 139 124 31 27 78 81 102 120 25 39 72 107 104 151 32 44 70 107 84 140 15
33 53 116 86 185 113 240 114 258 114 1785 0 1422 7 1319 -89 1369 -78 40
-253 29 -356 -22 -97 -48 -94 -31 -94 -556 -1 -675 103 -607 -930 -604 -771 3
-771 3 -815 28 -87 49 -85 37 -91 580 -5 473 -5 475 -28 512 -50 80 -149 101
-360 77z m2105 -1776 c115 -62 126 -105 121 -469 -9 -594 -165 -1048 -407
-1181 -36 -20 -102 -62 -146 -94 -180 -129 -507 -147 -666 -36 -26 18 -89 61
-140 96 -207 141 -266 222 -384 523 -86 220 -93 269 -97 688 -3 425 11 463
187 490 140 21 1488 6 1532 -17z"/>
</g>
</svg>
