<svg xmlns="http://www.w3.org/2000/svg" viewBox="0 0 1100.622 2146.267">
<g transform="translate(-590.857434,2190.273723) scale(0.100000,-0.100000)" fill="#000000" stroke="none">
<path d="M11170 19824 c-232 -23 -384 -58 -617 -145 -76 -28 -196 -64 -268
-80 -657 -147 -617 -134 -796 -268 -64 -49 -153 -100 -279 -163 -207 -102
-277 -148 -365 -238 -36 -37 -98 -84 -154 -117 -118 -70 -160 -108 -228 -205
-61 -87 -97 -121 -188 -179 -83 -52 -128 -104 -189 -218 -49 -90 -87 -133
-199 -224 -58 -47 -89 -99 -133 -224 -51 -144 -111 -256 -176 -332 -150 -174
-170 -220 -234 -546 -57 -291 -91 -413 -164 -596 -191 -475 -190 -1202 0
-1484 89 -132 118 -215 170 -488 52 -266 83 -336 221 -492 81 -91 118 -155
190 -330 30 -74 42 -89 150 -195 101 -99 123 -127 159 -200 58 -116 112 -196
215 -320 107 -128 169 -219 225 -330 64 -128 92 -163 196 -245 67 -54 114
-102 163 -168 74 -99 117 -143 198 -201 78 -56 143 -133 197 -233 26 -50 76
-130 112 -178 131 -178 118 -256 -73 -423 -40 -36 -106 -109 -148 -167 -49
-67 -102 -126 -153 -168 -104 -88 -126 -112 -202 -225 -42 -61 -86 -112 -120
-139 -115 -90 -171 -147 -217 -221 -70 -115 -99 -148 -177 -206 -100 -74 -127
-109 -194 -248 -53 -109 -68 -132 -136 -198 -95 -93 -137 -155 -198 -292 -76
-170 -112 -225 -218 -328 -124 -122 -140 -156 -192 -404 -48 -232 -79 -310
-165 -419 -99 -125 -151 -247 -189 -444 -27 -135 -27 -1084 -1 -1293 44 -350
86 -496 189 -648 90 -134 124 -228 188 -529 37 -172 64 -228 138 -291 115 -97
147 -135 181 -218 65 -156 99 -209 225 -347 66 -73 181 -200 253 -283 134
-152 182 -198 353 -339 52 -43 124 -106 160 -138 105 -97 177 -146 307 -208
107 -51 133 -69 219 -150 122 -115 159 -132 429 -204 241 -65 288 -83 415
-160 263 -161 620 -218 1360 -218 774 0 1140 56 1383 211 123 79 202 111 402
161 273 69 309 85 425 196 76 73 140 115 270 178 131 63 221 125 315 218 45
44 139 123 210 177 110 83 143 115 210 202 50 64 120 138 185 195 127 110 152
145 265 365 87 170 88 171 187 262 124 115 147 160 188 354 29 142 69 268 99
314 9 14 43 63 76 110 81 116 120 204 144 330 89 472 109 1464 36 1865 -45
249 -67 308 -155 420 -114 147 -133 186 -181 379 -66 266 -89 312 -232 464
-107 113 -130 152 -208 342 -32 80 -41 92 -150 200 -102 100 -123 126 -162
205 -61 122 -92 162 -188 242 -62 51 -99 93 -152 172 -48 72 -104 138 -179
210 -61 58 -140 144 -176 191 -36 47 -168 195 -292 329 -375 406 -368 364
-142 831 32 65 82 117 159 167 78 50 139 107 186 178 69 103 98 133 172 184
100 69 136 114 201 243 45 93 70 128 133 193 105 109 126 138 216 300 117 211
139 242 245 342 101 97 99 93 203 313 29 60 54 93 127 165 139 136 155 172
219 474 50 236 83 323 179 464 146 217 166 320 167 842 0 504 -29 677 -165
990 -95 218 -136 339 -170 506 -60 296 -95 376 -227 525 -110 124 -123 144
-166 271 -57 162 -86 203 -200 287 -56 41 -83 73 -138 164 -69 112 -89 135
-196 214 -58 42 -111 92 -141 131 -87 114 -149 172 -244 228 -63 36 -128 87
-198 154 -84 79 -121 107 -180 134 -215 98 -305 147 -410 222 -143 102 -209
133 -347 165 -59 14 -189 45 -288 69 -99 24 -205 49 -235 55 -30 7 -128 39
-217 71 -317 115 -403 129 -783 134 -151 1 -295 1 -320 -1z m556 -1694 c280
-14 386 -41 517 -132 211 -146 277 -179 456 -224 154 -40 209 -72 297 -171 41
-47 93 -100 117 -117 23 -18 76 -58 118 -89 51 -38 95 -83 137 -139 33 -46
106 -127 160 -181 106 -104 146 -166 196 -304 34 -96 74 -175 147 -286 165
-253 194 -390 194 -932 0 -539 -24 -635 -228 -898 -38 -50 -79 -121 -120 -213
-78 -172 -111 -224 -221 -348 -98 -109 -134 -162 -195 -284 -51 -101 -91 -146
-193 -218 -87 -62 -104 -81 -177 -205 -62 -107 -85 -127 -236 -201 -96 -47
-138 -76 -210 -140 -49 -44 -115 -93 -145 -108 -297 -149 -1445 -156 -1799
-11 -84 35 -98 44 -217 146 -65 56 -120 91 -204 132 -139 68 -187 111 -248
221 -59 106 -94 147 -191 222 -91 70 -120 109 -191 250 -71 142 -126 223 -224
330 -90 97 -125 155 -179 295 -42 109 -75 166 -162 281 -137 178 -180 348
-179 704 1 489 27 617 174 835 64 95 112 193 145 295 84 261 97 285 216 390
95 84 109 99 169 190 63 95 84 115 205 195 90 58 118 83 155 135 103 145 135
166 336 224 232 66 310 104 461 225 151 120 506 162 1119 131z m209 -8593
c118 -22 199 -55 302 -125 143 -96 228 -135 443 -204 136 -43 186 -72 249
-141 97 -107 158 -165 202 -192 74 -47 138 -116 196 -209 76 -123 92 -142 168
-206 87 -74 123 -128 201 -305 82 -190 112 -242 187 -335 79 -96 121 -167 146
-244 182 -549 114 -1411 -142 -1799 -33 -51 -92 -150 -130 -222 -96 -180 -177
-295 -278 -395 -476 -471 -474 -470 -710 -543 -141 -44 -180 -66 -288 -157
-214 -182 -543 -232 -1326 -202 -493 19 -609 51 -826 227 -89 73 -158 108
-279 145 -127 38 -181 71 -282 176 -51 53 -135 128 -186 166 -51 39 -118 99
-150 135 -31 36 -99 111 -149 166 -120 129 -156 185 -205 315 -51 137 -77 189
-148 287 -163 227 -206 410 -217 925 -11 524 34 739 188 907 100 110 126 150
170 271 86 232 141 328 229 402 63 53 122 132 190 254 58 105 93 142 213 224
49 33 95 75 125 114 125 164 146 178 377 248 209 64 295 103 402 181 194 141
303 160 888 154 260 -3 382 -8 440 -18z"/>
</g>
</svg>
