<svg xmlns="http://www.w3.org/2000/svg" viewBox="0 0 220.000000 38.983923">
<g transform="translate(-0.000000,38.942232) scale(0.100000,-0.100000)" fill="#000000" stroke="none">
<path d="M95 357 c-28 -19 -60 -37 -73 -41 -21 -7 -22 -13 -22 -96 l0 -89 38
-10 c52 -15 79 -36 102 -82 24 -45 54 -51 98 -19 17 13 55 23 107 30 223 27
1119 40 1428 20 148 -10 198 -23 210 -55 4 -8 18 -15 35 -15 22 0 32 7 45 35
17 36 50 58 105 70 l32 7 0 109 c0 96 -2 110 -17 115 -10 3 -43 17 -74 30
l-55 23 -320 -10 c-311 -11 -1354 -6 -1514 7 -74 6 -76 5 -125 -29z"/>
</g>
</svg>
