<svg xmlns="http://www.w3.org/2000/svg" viewBox="0 0 352.000000 62.832293">
<g transform="translate(-0.000000,62.555009) scale(0.100000,-0.100000)" fill="#000000" stroke="none">
<path d="M234 616 c-23 -7 -71 -34 -106 -60 -36 -25 -80 -49 -97 -52 -31 -6
-31 -6 -31 -154 0 -147 0 -147 41 -154 85 -14 172 -83 200 -160 13 -36 13 -36
71 -36 44 0 60 4 65 15 23 61 244 82 1083 106 631 18 1494 -1 1616 -36 36 -10
62 -26 83 -50 39 -45 105 -51 121 -11 25 68 108 129 193 141 47 7 47 7 47 190
0 182 0 182 -35 188 -19 3 -70 22 -114 41 -96 44 -60 43 -661 22 -683 -25
-2072 -14 -2380 18 -34 4 -71 1 -96 -8z"/>
</g>
</svg>
