<svg xmlns="http://www.w3.org/2000/svg" viewBox="0 0 629.855059 705.724786">
<g transform="translate(-14.317738,720.000000) scale(0.100000,-0.100000)" fill="#000000" stroke="none">
<path d="M2400 7163 c0 -21 -7 -75 -16 -120 -16 -78 -16 -86 4 -195 12 -62 24
-133 27 -158 11 -83 46 -254 65 -320 10 -36 26 -103 34 -149 45 -240 14 -276
-254 -301 -225 -21 -462 -51 -640 -82 -345 -59 -551 -80 -760 -76 -163 3 -200
-14 -200 -91 0 -35 30 -63 103 -95 31 -14 86 -44 120 -66 173 -109 561 -102
872 15 111 41 206 63 365 85 85 11 180 27 210 35 181 49 220 -2 220 -286 0
-227 -16 -277 -105 -322 -54 -27 -238 -50 -807 -102 -254 -23 -284 -46 -193
-153 100 -116 207 -128 560 -64 422 77 427 78 470 61 77 -29 79 -36 76 -314
-4 -401 4 -392 -356 -430 -669 -72 -785 -68 -908 30 -105 85 -179 113 -246 95
-91 -24 -100 -72 -55 -298 42 -214 43 -280 5 -482 -38 -206 -40 -208 -189
-367 -148 -159 -152 -164 -152 -233 0 -72 24 -111 132 -217 123 -120 133 -122
266 -59 53 25 133 57 177 71 44 14 94 34 110 45 75 52 148 81 257 101 62 11
178 41 258 65 157 47 191 55 325 79 188 33 258 -50 178 -210 -30 -60 -87 -223
-122 -347 -11 -41 -38 -98 -69 -145 -37 -57 -58 -104 -77 -172 -29 -105 -41
-132 -90 -200 -19 -26 -48 -77 -64 -114 -17 -37 -50 -88 -74 -114 -24 -27 -69
-86 -100 -133 -78 -118 -349 -391 -472 -475 -38 -27 -92 -67 -120 -90 -27 -24
-72 -54 -100 -68 -27 -14 -83 -51 -124 -82 -41 -31 -92 -65 -114 -76 -21 -11
-67 -40 -101 -63 -67 -46 -104 -62 -225 -97 -62 -17 -84 -30 -130 -74 -32 -30
-90 -70 -138 -94 -91 -45 -102 -56 -80 -78 31 -32 98 -28 183 10 63 28 101 38
184 46 169 18 254 43 392 115 67 35 159 74 203 86 85 24 126 42 202 90 26 17
83 44 128 60 55 21 99 47 139 81 33 28 82 62 110 76 28 14 75 46 104 72 30 25
89 75 132 111 82 68 246 250 315 350 22 31 57 76 77 98 42 46 58 76 89 156 11
31 37 77 57 104 54 68 66 89 96 168 15 39 41 93 58 120 49 77 66 122 81 219
23 141 51 184 111 169 43 -10 173 -179 241 -313 18 -36 50 -82 70 -101 20 -19
50 -59 67 -89 17 -30 53 -77 80 -104 27 -28 63 -71 81 -96 17 -25 53 -71 80
-101 28 -30 65 -79 84 -108 19 -28 53 -74 77 -101 25 -28 69 -83 99 -124 30
-40 66 -82 79 -93 13 -10 45 -46 70 -79 26 -33 63 -76 83 -95 21 -19 54 -57
75 -85 91 -121 626 -642 698 -679 80 -41 455 -61 952 -50 212 4 450 8 530 9
160 1 222 18 255 68 49 75 -172 204 -449 262 -51 11 -111 34 -170 65 -50 26
-143 64 -208 84 -90 28 -130 46 -177 82 -40 30 -96 58 -168 84 -59 22 -119 48
-135 60 -72 53 -102 69 -189 99 -59 21 -120 51 -162 81 -38 27 -102 61 -143
76 -52 19 -91 42 -136 81 -35 30 -89 68 -120 84 -32 16 -80 49 -107 73 -27 24
-78 61 -113 81 -35 20 -83 56 -108 80 -25 23 -67 59 -95 80 -27 20 -84 71
-125 111 -571 566 -619 616 -787 825 -39 50 -83 99 -96 109 -112 88 -81 278
53 325 209 74 1602 138 1782 82 131 -40 157 -100 109 -246 -17 -51 -45 -149
-62 -219 -37 -150 -54 -188 -111 -237 -117 -101 -216 -105 -501 -19 -90 28
-146 30 -186 9 -75 -38 -40 -121 125 -290 69 -72 147 -159 174 -195 27 -36 65
-80 85 -99 20 -18 52 -59 72 -89 156 -244 290 -286 443 -138 36 34 84 77 107
95 27 20 56 58 82 107 23 42 56 95 75 117 44 56 58 85 91 192 15 50 43 124 62
165 53 114 82 205 93 296 13 106 30 151 78 216 22 29 52 76 68 103 16 28 57
77 91 109 114 108 133 190 60 260 -70 67 -167 138 -249 182 -43 23 -92 54
-109 68 -132 112 -402 122 -672 25 -190 -68 -270 -80 -667 -99 -337 -16 -561
-37 -776 -72 -257 -41 -321 8 -284 219 6 37 16 108 20 157 17 178 59 216 265
240 72 9 186 22 255 30 348 41 446 47 735 45 353 -3 365 1 365 98 0 29 -8 44
-47 82 -139 135 -120 184 187 488 63 62 136 130 163 150 124 97 109 231 -34
319 -33 20 -81 54 -106 75 -54 47 -95 69 -188 99 -38 13 -101 39 -140 59 -101
52 -194 51 -350 -1 -119 -41 -203 -60 -332 -78 -46 -6 -192 -38 -325 -70 -296
-73 -336 -74 -382 -9 -25 36 -24 438 2 489 37 74 117 88 627 110 132 5 344 17
470 26 416 27 556 33 856 34 329 0 365 5 441 63 61 47 68 81 32 148 -50 90
-118 152 -204 184 -41 15 -102 42 -135 60 -157 86 -332 88 -648 7 -143 -37
-246 -57 -375 -72 -164 -19 -370 -58 -431 -82 -120 -45 -498 -105 -561 -88
-103 28 -112 150 -22 289 68 104 89 234 49 309 -69 129 -257 311 -389 378 -92
46 -114 68 -124 121 -6 33 -6 33 -130 33 -124 0 -124 0 -124 -37z m1700 -2198
c88 -46 78 -217 -22 -379 -17 -28 -44 -87 -60 -131 -43 -119 -58 -131 -208
-160 -47 -10 -137 -30 -200 -46 -150 -37 -413 -89 -451 -89 -47 0 -96 26 -113
59 -20 37 -7 528 15 591 30 88 55 97 343 126 444 44 650 53 696 29z m-1658
-1165 c78 -22 92 -75 58 -209 -10 -42 -26 -123 -35 -179 -28 -191 -71 -235
-238 -248 -78 -6 -449 -76 -575 -109 -74 -19 -202 -20 -245 -1 -78 33 -89 92
-38 203 23 47 36 94 43 153 28 241 54 292 150 304 23 2 86 9 138 15 132 14
387 48 495 65 110 17 198 19 247 6z"/>
</g>
</svg>
