<svg xmlns="http://www.w3.org/2000/svg" viewBox="0 0 395.627808 440.822458">
<g transform="translate(-7.175480,450.000000) scale(0.100000,-0.100000)" fill="#000000" stroke="none">
<path d="M1493 4425 c-11 -67 -10 -90 13 -227 14 -84 33 -182 44 -218 36 -127
41 -211 15 -240 -21 -23 -73 -33 -279 -55 -87 -9 -211 -25 -275 -36 -202 -36
-232 -39 -401 -46 -91 -3 -173 -10 -183 -15 -13 -7 -17 -18 -15 -41 2 -26 10
-35 43 -51 22 -10 66 -34 97 -52 72 -44 165 -57 297 -44 113 12 119 13 256 56
61 19 169 43 240 55 216 35 199 34 224 3 21 -27 22 -36 19 -177 -4 -211 18
-198 -424 -238 -137 -12 -259 -26 -271 -30 -34 -12 -28 -41 16 -87 72 -74 114
-75 436 -17 160 29 203 31 231 11 18 -13 19 -26 17 -191 -3 -204 -10 -228 -71
-244 -48 -12 -321 -39 -482 -47 -146 -7 -180 2 -260 65 -63 50 -124 59 -163
24 -22 -21 -21 -74 8 -230 l19 -101 -22 -122 c-13 -68 -29 -134 -37 -149 -8
-14 -50 -63 -94 -109 -44 -45 -83 -92 -86 -103 -14 -43 5 -83 74 -156 59 -63
74 -73 102 -73 19 0 48 9 64 20 17 11 58 29 93 40 35 11 91 35 125 54 40 23
91 40 146 50 47 9 126 29 175 45 50 16 128 34 173 41 73 12 84 12 107 -4 32
-20 35 -69 7 -124 -10 -20 -35 -88 -54 -150 -20 -62 -52 -138 -71 -170 -19
-31 -39 -81 -46 -110 -7 -28 -23 -67 -36 -85 -13 -17 -35 -55 -49 -84 -13 -29
-39 -69 -58 -90 -18 -21 -45 -58 -61 -83 -59 -94 -308 -319 -442 -400 -23 -14
-59 -38 -80 -53 -109 -79 -180 -116 -261 -137 -24 -6 -62 -28 -86 -49 -25 -20
-70 -48 -101 -60 -60 -25 -67 -34 -37 -51 31 -16 91 -12 126 10 19 11 65 24
107 30 119 15 166 28 241 69 40 22 99 47 132 56 33 9 85 31 115 50 30 18 72
38 92 44 21 7 57 28 80 48 23 19 62 46 87 59 125 67 384 352 437 481 12 29 33
66 47 82 14 17 33 52 43 78 9 26 32 73 50 103 22 37 37 78 44 124 14 89 24
106 60 106 25 0 36 -11 85 -82 31 -45 65 -98 75 -117 10 -20 28 -45 40 -56 12
-11 29 -33 36 -48 8 -15 36 -52 62 -82 52 -59 110 -134 157 -200 17 -23 46
-60 65 -83 19 -22 80 -93 135 -158 128 -150 481 -506 523 -528 56 -29 258 -39
661 -32 334 6 378 8 405 24 46 27 45 56 -1 86 -55 36 -169 82 -238 96 -33 6
-84 25 -114 42 -30 17 -89 40 -131 53 -45 13 -94 35 -116 53 -22 17 -68 40
-103 51 -35 12 -80 33 -99 47 -19 15 -68 40 -110 55 -41 15 -84 37 -96 48 -12
12 -51 32 -87 47 -35 14 -80 41 -99 59 -19 18 -51 41 -70 50 -19 9 -48 29 -65
44 -16 15 -48 38 -70 50 -22 13 -61 42 -87 65 -95 82 -485 474 -553 555 -38
46 -89 106 -112 133 -35 39 -43 56 -43 88 0 88 38 115 189 136 164 22 619 46
807 42 154 -3 185 -6 219 -23 63 -31 70 -58 40 -148 -13 -41 -31 -105 -39
-141 -21 -89 -39 -121 -88 -156 -60 -44 -92 -46 -216 -15 -139 35 -157 38
-186 31 -61 -15 -34 -80 82 -202 111 -117 172 -189 204 -239 14 -22 46 -59 71
-82 39 -36 53 -43 87 -43 48 0 91 20 112 52 9 13 32 35 53 48 20 14 47 46 61
73 14 26 40 67 58 91 18 24 39 66 45 92 7 27 27 83 46 124 35 77 49 130 60
212 3 25 17 61 30 80 13 18 37 56 54 84 16 29 44 62 62 75 42 29 73 98 60 133
-6 13 -19 29 -29 35 -11 6 -39 27 -63 47 -24 20 -60 44 -79 53 -19 8 -55 30
-79 48 -61 46 -108 56 -231 50 -83 -4 -123 -11 -190 -35 -115 -41 -170 -49
-410 -62 -224 -12 -344 -23 -490 -45 -99 -15 -155 -10 -172 17 -4 7 -8 36 -8
63 0 53 24 218 35 247 12 31 53 48 142 58 48 5 144 17 213 26 78 11 216 18
368 19 172 2 247 7 257 15 29 24 18 66 -30 113 -60 60 -59 81 10 163 42 50
167 175 235 235 32 28 40 42 40 70 0 46 -31 94 -77 118 -21 10 -47 29 -58 41
-21 23 -86 60 -106 60 -6 0 -46 16 -89 35 -92 42 -127 43 -223 10 -39 -14
-121 -34 -182 -45 -60 -10 -177 -35 -259 -56 -228 -55 -237 -49 -228 169 6
175 7 176 122 188 47 4 186 13 310 19 124 5 279 14 345 20 66 5 243 12 393 15
224 4 279 8 305 21 80 41 84 66 27 147 -33 46 -50 59 -95 76 -30 11 -78 33
-107 48 -45 24 -67 29 -148 31 -93 4 -136 -3 -280 -43 -30 -9 -122 -25 -205
-36 -82 -10 -198 -33 -256 -49 -105 -30 -274 -60 -336 -60 -81 0 -97 83 -36
182 30 49 38 72 41 122 l4 62 -59 75 c-71 88 -140 148 -206 177 -36 16 -51 30
-62 57 l-15 35 -73 0 -72 0 -12 -75z m1091 -1337 c31 -44 15 -142 -37 -224
-13 -22 -32 -63 -41 -92 -21 -63 -32 -69 -181 -102 -377 -82 -375 -81 -410
-46 -23 24 -24 27 -19 148 11 277 16 291 115 303 134 16 363 33 456 34 95 1
103 -1 117 -21z m-1027 -734 c21 -21 24 -31 18 -57 -4 -18 -17 -83 -30 -146
-31 -151 -37 -158 -176 -176 -57 -8 -167 -28 -244 -45 -176 -38 -237 -39 -270
-5 -31 30 -31 39 -1 106 15 32 29 91 35 144 17 141 8 135 261 167 117 15 220
29 229 31 9 3 47 5 84 6 60 1 71 -2 94 -25z"/>
</g>
</svg>
