<svg xmlns="http://www.w3.org/2000/svg" viewBox="0 0 779.722694 882.977570">
<g transform="translate(-24.000000,900.710390) scale(0.100000,-0.100000)" fill="#000000" stroke="none">
<path d="M3005 8963 c-3 -21 -12 -77 -20 -124 -18 -101 -19 -176 -5 -250 6
-30 26 -144 45 -254 18 -110 52 -276 74 -370 120 -507 106 -528 -374 -575
-303 -29 -424 -46 -755 -100 -367 -61 -538 -79 -800 -86 -291 -6 -330 -19
-330 -105 0 -67 35 -93 318 -239 206 -107 649 -87 1034 45 164 57 240 75 420
100 95 14 220 35 278 46 242 49 288 3 297 -297 15 -477 27 -470 -855 -559
-606 -62 -640 -77 -499 -231 126 -138 250 -145 805 -44 567 102 552 112 547
-360 -5 -478 4 -467 -475 -519 -151 -16 -311 -32 -355 -36 -44 -3 -159 -13
-256 -22 -249 -22 -364 3 -506 112 -272 207 -448 112 -373 -202 80 -335 62
-681 -47 -915 -27 -57 -196 -254 -254 -295 -153 -110 -141 -271 33 -449 160
-164 202 -176 357 -103 47 22 137 59 200 80 62 22 149 61 193 86 109 63 156
79 331 113 84 17 217 50 297 75 567 175 733 124 603 -185 -44 -106 -96 -254
-142 -405 -19 -62 -46 -125 -71 -163 -60 -94 -83 -145 -123 -272 -26 -81 -51
-139 -87 -195 -28 -44 -71 -119 -95 -166 -24 -48 -69 -116 -100 -153 -31 -36
-80 -102 -109 -147 -57 -85 -275 -331 -336 -377 -19 -14 -73 -63 -120 -108
-47 -44 -113 -100 -147 -123 -34 -22 -90 -65 -124 -93 -35 -28 -101 -74 -148
-101 -47 -27 -117 -73 -156 -102 -152 -116 -364 -236 -484 -276 -133 -44 -178
-69 -241 -134 -30 -31 -82 -72 -115 -91 -79 -45 -95 -58 -95 -77 0 -35 88 -37
169 -3 61 26 120 37 290 56 170 19 271 49 437 133 87 44 197 90 264 111 73 22
148 54 205 87 50 29 124 67 166 85 115 49 149 68 209 117 30 25 92 67 137 94
197 116 525 432 699 673 30 41 76 102 103 136 26 33 64 100 84 149 21 48 51
108 69 134 17 25 46 67 63 92 17 25 46 84 65 130 18 46 55 121 82 166 58 97
70 129 96 259 43 208 102 258 202 168 46 -41 190 -246 240 -342 18 -34 55 -88
83 -120 28 -31 70 -88 94 -125 24 -38 72 -99 106 -136 35 -36 78 -88 96 -116
19 -27 60 -79 91 -115 31 -36 84 -103 117 -150 34 -47 84 -112 113 -144 28
-32 70 -84 93 -115 22 -31 68 -85 102 -121 34 -36 84 -94 112 -130 28 -36 61
-74 73 -85 13 -11 56 -60 97 -110 99 -119 662 -686 760 -766 130 -104 143
-108 468 -139 304 -28 1643 -6 1723 30 226 99 7 279 -473 389 -58 13 -132 42
-210 79 -66 33 -177 78 -246 101 -70 23 -152 57 -183 76 -31 19 -81 50 -111
69 -30 19 -99 49 -152 67 -59 21 -131 56 -186 91 -82 52 -152 86 -280 133 -27
9 -82 39 -122 66 -40 27 -104 63 -142 80 -148 67 -170 80 -228 129 -33 28 -97
73 -143 100 -46 27 -116 76 -155 108 -40 32 -101 76 -136 97 -36 21 -94 66
-130 98 -36 33 -84 73 -106 89 -43 31 -625 594 -715 692 -30 33 -91 98 -135
146 -97 104 -241 270 -317 365 -30 39 -65 79 -78 90 -178 158 -113 385 125
438 431 96 1943 152 2162 81 144 -47 182 -148 123 -320 -12 -32 -41 -135 -65
-228 -112 -429 -238 -488 -754 -355 -190 49 -272 32 -279 -58 -5 -72 29 -123
208 -313 91 -96 176 -191 190 -210 13 -19 51 -64 84 -100 34 -36 87 -104 118
-150 192 -285 374 -346 533 -180 22 23 74 70 116 105 77 65 93 86 168 210 23
39 62 99 86 134 32 46 56 100 85 189 22 68 65 180 95 248 59 132 87 224 105
344 6 41 18 100 27 130 21 77 184 319 276 412 153 153 157 256 16 365 -34 27
-82 65 -107 85 -25 20 -85 58 -134 84 -49 26 -112 65 -141 86 -204 154 -475
164 -877 33 -238 -78 -341 -92 -815 -115 -380 -18 -765 -54 -1025 -95 -239
-38 -328 36 -299 253 5 42 16 133 24 202 24 200 75 273 209 299 52 11 431 58
696 86 193 21 669 37 851 29 267 -11 344 78 204 235 -123 137 -118 195 26 368
79 95 281 297 394 395 181 158 175 301 -18 425 -40 26 -106 73 -148 105 -61
47 -102 69 -205 108 -71 26 -169 65 -218 85 -119 50 -220 47 -391 -8 -154 -50
-205 -62 -410 -96 -99 -16 -290 -58 -425 -92 -478 -121 -495 -111 -494 296 0
423 -29 407 831 445 282 12 697 38 833 51 58 5 330 12 605 15 661 6 756 27
800 172 23 75 -111 255 -229 307 -28 12 -112 50 -187 84 -265 118 -417 123
-809 26 -237 -59 -299 -71 -496 -95 -199 -24 -379 -58 -530 -101 -274 -77
-601 -128 -694 -108 -132 28 -154 175 -51 344 95 158 116 303 59 410 -86 160
-302 374 -459 455 -107 55 -152 98 -169 160 -16 61 -306 64 -315 3z m2134
-2772 c92 -66 79 -233 -34 -446 -29 -55 -67 -137 -85 -183 -57 -148 -57 -148
-425 -232 -834 -192 -813 -200 -796 306 17 491 14 487 406 528 606 64 870 72
934 27z m-2094 -1449 c96 -33 113 -97 75 -275 -11 -50 -27 -139 -36 -197 -38
-245 -90 -294 -344 -320 -91 -9 -386 -66 -685 -130 -315 -68 -433 23 -340 261
24 60 41 128 51 198 26 191 34 225 57 271 32 62 86 88 213 101 158 17 570 68
674 84 190 29 265 31 335 7z"/>
</g>
</svg>
