<svg xmlns="http://www.w3.org/2000/svg" viewBox="0 0 466.921134 420.311105">
<g transform="translate(-5.000000,429.901639) scale(0.100000,-0.100000)" fill="#000000" stroke="none">
<path d="M2670 4293 c-60 -22 -67 -81 -16 -142 26 -30 36 -56 46 -108 6 -37
24 -124 40 -193 61 -278 60 -338 -5 -365 -43 -18 -207 -35 -443 -44 -170 -7
-196 -10 -220 -28 -34 -25 -40 -63 -14 -87 11 -9 62 -27 113 -39 82 -18 126
-21 336 -21 219 -1 244 -3 260 -19 15 -14 19 -38 21 -126 5 -137 -9 -175 -65
-190 -44 -12 -292 -31 -408 -31 -93 0 -129 -14 -133 -52 -4 -32 28 -59 104
-88 69 -25 135 -25 286 1 131 22 182 19 198 -11 13 -24 5 -283 -10 -309 -17
-34 -88 -52 -241 -63 -173 -13 -202 -7 -288 67 -59 50 -98 58 -131 25 -24 -24
-24 -31 -4 -101 19 -64 21 -225 5 -339 -8 -54 -19 -86 -40 -115 -15 -22 -36
-56 -46 -75 -10 -19 -37 -56 -60 -81 -87 -93 -82 -158 19 -263 35 -36 71 -66
79 -66 8 0 32 12 53 27 21 14 61 35 87 45 26 10 70 33 96 52 27 18 70 38 96
45 26 7 69 23 96 36 55 28 87 31 114 11 18 -13 18 -19 7 -100 -9 -70 -18 -98
-48 -146 -20 -33 -45 -90 -55 -127 -11 -37 -32 -86 -48 -108 -15 -22 -36 -63
-45 -91 -9 -28 -32 -69 -50 -90 -18 -21 -45 -61 -59 -89 -14 -27 -37 -61 -52
-75 -15 -14 -35 -41 -45 -60 -11 -19 -47 -63 -82 -97 -236 -234 -328 -311
-429 -357 -47 -21 -127 -92 -153 -134 -21 -35 41 -54 92 -28 15 7 71 26 125
41 68 19 121 43 174 76 43 27 83 49 90 49 7 0 30 15 50 34 21 18 61 45 89 59
73 37 313 276 350 350 9 17 29 46 44 64 16 17 38 57 49 89 12 32 35 72 50 90
16 18 38 57 50 88 36 96 90 195 116 212 23 15 27 15 48 1 14 -9 33 -41 46 -76
12 -33 33 -74 47 -90 13 -16 31 -46 40 -68 9 -21 32 -57 50 -80 19 -23 44 -63
55 -89 12 -25 36 -62 54 -82 18 -21 40 -53 50 -72 10 -19 30 -49 45 -67 16
-17 43 -59 60 -92 18 -34 36 -61 41 -61 4 0 22 -24 39 -52 18 -29 49 -72 69
-95 20 -23 59 -74 86 -113 28 -39 62 -87 78 -105 48 -57 76 -60 579 -59 422 1
448 2 480 21 93 54 8 129 -206 182 -61 15 -104 33 -135 55 -26 18 -64 39 -86
46 -22 7 -57 25 -77 41 -21 17 -66 42 -100 58 -35 15 -77 40 -94 54 -17 14
-56 35 -86 47 -30 11 -66 32 -79 46 -13 14 -40 34 -59 44 -19 10 -46 30 -60
45 -14 15 -50 45 -80 66 -142 101 -353 305 -422 408 -9 14 -35 45 -58 71 -102
114 -129 148 -148 185 -11 22 -30 49 -42 60 -51 46 -64 117 -34 181 31 64 81
76 411 95 263 15 447 9 490 -14 44 -24 63 -64 63 -136 0 -49 -6 -72 -35 -128
-20 -37 -44 -76 -54 -87 -32 -32 -96 -31 -196 4 -49 18 -106 33 -125 33 -31 2
-35 -1 -38 -24 -3 -28 23 -66 121 -174 31 -36 57 -69 57 -75 0 -5 15 -27 34
-47 18 -21 47 -60 63 -88 33 -56 61 -75 113 -75 57 0 110 33 186 112 58 59 75
84 88 128 9 30 34 105 55 165 22 61 45 136 51 168 12 59 15 63 135 204 61 70
61 103 3 139 -24 15 -54 37 -68 50 -14 13 -50 32 -80 43 -30 10 -78 34 -106
53 -90 61 -174 61 -314 -2 -61 -27 -110 -41 -175 -50 -88 -11 -337 -51 -444
-70 -85 -16 -128 -13 -151 10 -23 23 -23 11 -6 175 20 187 -9 171 386 205 129
11 284 22 344 24 99 3 111 5 128 26 26 32 23 51 -17 101 -25 32 -35 54 -35 80
0 34 9 45 108 137 59 56 127 116 152 134 82 61 84 140 6 179 -22 12 -54 34
-71 49 -16 16 -52 37 -80 48 -27 11 -76 34 -109 51 -81 43 -164 44 -245 2 -32
-16 -92 -38 -136 -50 -43 -12 -112 -37 -153 -56 -87 -40 -142 -45 -172 -15
-18 18 -19 30 -16 127 3 100 5 108 29 129 19 16 46 24 94 29 37 4 113 21 168
37 55 16 141 34 190 39 134 14 244 38 295 64 25 12 62 28 82 34 21 7 45 22 53
34 31 45 9 124 -43 151 -95 48 -292 47 -389 -3 -21 -10 -56 -28 -79 -40 -22
-12 -79 -29 -125 -37 -46 -9 -103 -27 -126 -40 -53 -31 -84 -30 -114 2 -23 25
-24 30 -24 183 l0 156 39 79 c35 73 37 82 27 117 -6 21 -23 52 -37 68 -36 43
-178 117 -248 130 -62 11 -180 14 -206 4z m885 -1403 c34 -13 58 -69 50 -118
-14 -83 -18 -95 -48 -128 -43 -50 -184 -118 -308 -148 -198 -49 -216 -38 -204
127 10 151 45 214 130 235 34 9 109 19 250 36 63 7 105 6 130 -4z m-870 -694
c44 -19 51 -48 31 -129 -9 -35 -16 -78 -16 -96 0 -48 -27 -97 -63 -114 -50
-24 -286 -79 -308 -72 -32 10 -52 50 -46 92 13 104 39 248 48 264 19 36 68 51
188 59 64 4 120 8 124 9 4 0 23 -5 42 -13z"/>
<path d="M1352 4283 c-42 -8 -54 -43 -56 -166 -1 -109 -2 -116 -31 -156 -17
-23 -43 -67 -60 -96 -51 -91 -101 -158 -260 -345 -102 -120 -331 -349 -398
-399 -57 -42 -116 -120 -117 -154 0 -28 28 -32 68 -10 20 11 54 26 75 33 20 6
60 28 89 47 29 20 81 49 117 66 37 16 81 43 100 59 18 16 45 34 59 39 14 6 44
26 66 45 23 20 62 50 88 67 101 69 146 106 242 197 136 129 143 136 211 219
33 41 79 94 102 120 52 58 66 94 58 147 -5 33 -19 55 -77 115 -40 41 -90 86
-112 101 -23 15 -52 36 -66 47 -28 21 -63 30 -98 24z"/>
<path d="M1248 3169 c-33 -19 -42 -54 -48 -190 -7 -126 -9 -141 -35 -185 -16
-27 -43 -78 -61 -114 -18 -36 -42 -74 -54 -85 -13 -11 -35 -47 -50 -80 -15
-33 -42 -77 -59 -99 -17 -21 -31 -42 -31 -46 0 -4 -25 -36 -56 -71 -230 -263
-235 -268 -310 -343 -39 -39 -102 -98 -139 -131 -36 -33 -76 -69 -88 -81 -31
-28 -135 -114 -178 -146 -20 -15 -44 -43 -53 -62 -9 -19 -21 -38 -26 -41 -6
-3 -10 -13 -10 -22 0 -13 8 -14 51 -9 73 10 136 36 222 92 41 27 87 57 103 67
26 15 67 44 211 150 21 15 52 38 70 50 119 82 153 110 171 141 22 38 64 56 91
39 35 -22 39 -51 35 -247 -7 -379 -18 -486 -64 -605 -12 -30 -30 -95 -40 -146
-10 -50 -32 -125 -49 -167 -65 -165 -66 -394 -2 -453 11 -9 32 -48 46 -86 21
-53 38 -79 77 -114 77 -69 100 -62 156 50 58 117 61 136 72 554 15 619 29 894
51 1005 10 54 19 111 19 125 0 30 -42 122 -89 195 -49 79 -41 112 57 221 84
93 151 174 207 251 28 38 71 89 96 114 42 41 99 131 99 155 0 5 -12 34 -25 64
-29 61 -125 160 -185 191 -22 11 -55 31 -76 45 -39 26 -77 31 -106 14z"/>
</g>
</svg>
