<svg xmlns="http://www.w3.org/2000/svg" viewBox="0 0 744.319381 673.338321">
<g transform="translate(-10.598967,688.415484) scale(0.100000,-0.100000)" fill="#000000" stroke="none">
<path d="M4277 6866 c-102 -37 -113 -117 -31 -222 50 -65 65 -107 94 -274 12
-63 34 -169 50 -235 84 -350 82 -505 -5 -557 -55 -31 -373 -62 -795 -77 -189
-7 -220 -10 -256 -28 -112 -58 -72 -164 75 -197 232 -53 287 -58 642 -54 377
3 364 6 396 -70 20 -48 28 -213 14 -300 -19 -122 -44 -150 -148 -172 -60 -12
-487 -40 -615 -40 -230 0 -281 -107 -97 -201 130 -65 265 -73 474 -28 158 34
306 33 342 -4 28 -28 28 -28 25 -235 -5 -335 -9 -338 -452 -373 -220 -16 -295
3 -412 110 -79 72 -136 88 -198 56 -46 -24 -54 -66 -30 -156 36 -139 42 -243
25 -427 -19 -200 -31 -246 -88 -337 -24 -39 -57 -92 -72 -119 -15 -28 -54 -78
-86 -112 -79 -84 -93 -115 -93 -194 0 -87 21 -124 132 -232 109 -107 125 -110
222 -48 34 23 91 53 127 67 35 14 100 49 143 78 56 38 102 59 160 74 44 12
113 38 153 57 86 41 142 45 177 12 48 -45 13 -270 -60 -383 -47 -73 -65 -114
-97 -225 -16 -56 -41 -111 -73 -160 -27 -41 -60 -110 -75 -152 -20 -56 -41
-93 -77 -134 -27 -31 -64 -87 -83 -124 -19 -37 -57 -94 -84 -125 -28 -32 -64
-81 -80 -109 -55 -94 -476 -502 -636 -616 -55 -39 -140 -91 -190 -115 -103
-50 -225 -173 -225 -226 0 -46 46 -57 123 -29 34 12 127 41 207 64 153 45 203
67 278 121 26 18 83 51 127 73 44 22 100 58 125 80 25 21 77 55 116 75 79 40
235 174 344 296 36 40 92 103 126 140 33 36 79 98 103 136 23 39 57 89 75 112
19 23 48 78 64 122 18 46 52 108 80 144 27 35 63 100 82 148 51 129 139 297
167 319 67 52 123 16 166 -107 17 -48 45 -100 72 -134 24 -31 60 -90 78 -130
19 -41 53 -95 76 -121 23 -26 57 -81 76 -121 19 -41 60 -106 91 -143 30 -38
67 -91 80 -119 14 -28 48 -78 76 -110 28 -33 64 -89 80 -124 16 -34 49 -84 72
-110 24 -25 61 -73 82 -106 20 -33 59 -85 86 -115 26 -30 63 -81 82 -113 19
-31 55 -81 79 -110 24 -28 63 -81 87 -116 88 -131 126 -136 1000 -128 679 6
695 7 750 53 100 84 -63 206 -365 274 -111 25 -137 36 -209 88 -27 20 -85 50
-129 68 -44 17 -109 53 -144 79 -35 26 -104 64 -152 84 -48 21 -113 59 -144
84 -34 27 -86 56 -132 74 -50 18 -96 45 -133 76 -31 26 -87 66 -125 88 -37 22
-75 51 -84 65 -9 14 -49 49 -88 77 -89 64 -200 157 -314 262 -48 45 -103 93
-123 109 -20 15 -56 53 -79 84 -24 31 -66 82 -94 112 -28 30 -73 84 -100 120
-27 36 -63 77 -80 92 -17 14 -44 46 -60 70 -16 23 -56 71 -87 106 -32 35 -69
84 -82 111 -14 26 -46 72 -71 102 -78 91 -95 147 -75 245 30 145 125 176 615
204 846 47 940 22 940 -246 0 -86 -2 -95 -42 -175 -114 -230 -182 -246 -513
-123 -132 49 -196 6 -130 -87 10 -14 41 -59 69 -100 27 -41 70 -91 95 -112 25
-21 64 -69 86 -108 23 -38 61 -92 85 -119 23 -26 58 -76 76 -110 48 -90 74
-105 184 -105 116 0 143 16 286 162 118 120 138 153 168 270 12 45 41 133 66
196 25 64 54 153 66 199 41 165 49 185 92 235 24 26 58 68 77 93 19 25 55 68
81 96 85 92 78 139 -34 219 -30 22 -74 54 -97 72 -23 18 -79 46 -124 63 -44
17 -111 51 -147 76 -142 97 -317 102 -489 15 -123 -62 -160 -72 -420 -106
-121 -15 -412 -63 -591 -96 -217 -40 -290 -8 -275 119 4 31 13 122 20 202 16
164 22 187 65 223 40 33 33 32 421 67 489 45 552 50 688 50 137 0 181 12 201
56 22 49 14 87 -36 153 -56 75 -68 140 -37 189 29 45 320 314 372 344 162 94
173 235 25 318 -32 18 -77 50 -101 70 -23 21 -59 46 -80 55 -20 9 -100 47
-177 84 -140 66 -140 66 -245 66 -105 0 -105 0 -215 -52 -60 -28 -139 -59
-175 -68 -112 -28 -192 -56 -283 -102 -103 -51 -165 -62 -219 -40 -61 26 -70
55 -65 226 5 219 22 237 232 261 55 7 152 28 215 47 156 48 215 60 383 78 204
21 286 40 417 97 63 27 132 57 153 66 97 40 113 149 34 238 -41 47 -74 63
-181 85 -196 40 -367 15 -554 -81 -103 -54 -133 -64 -257 -90 -104 -21 -157
-37 -208 -64 -75 -39 -103 -44 -146 -21 -55 28 -66 70 -69 270 -4 238 7 315
64 430 93 190 42 290 -211 419 -175 89 -406 125 -528 82z m1421 -2250 c55 -28
67 -59 66 -161 -2 -179 -55 -250 -265 -356 -131 -65 -424 -149 -523 -149 -83
0 -123 61 -113 173 37 429 58 448 567 502 147 16 225 13 268 -9z m-1382 -1110
c47 -31 59 -78 39 -158 -9 -38 -23 -114 -31 -170 -16 -118 -42 -170 -99 -203
-47 -27 -392 -115 -452 -115 -111 0 -144 67 -108 222 8 35 19 106 25 158 27
232 65 264 327 280 183 11 266 7 299 -14z"/>
<path d="M2126 6829 c-43 -34 -49 -62 -56 -249 -6 -190 -10 -205 -75 -285 -18
-22 -51 -77 -74 -123 -23 -45 -56 -99 -75 -120 -18 -20 -53 -68 -78 -107 -25
-38 -67 -95 -95 -125 -27 -30 -63 -74 -80 -97 -33 -46 -145 -172 -238 -267
-33 -34 -77 -82 -97 -108 -43 -54 -305 -295 -381 -351 -80 -59 -106 -87 -144
-154 -64 -115 -30 -146 102 -91 33 14 81 33 107 42 26 10 90 46 141 80 51 34
130 77 175 95 51 21 101 50 130 76 26 23 75 56 108 74 34 18 86 54 116 81 30
27 82 65 115 84 33 19 82 55 109 79 27 24 74 60 104 80 30 19 118 98 196 174
77 77 157 152 177 167 20 16 57 56 81 90 24 33 61 77 81 96 20 19 51 55 68 80
17 25 58 73 90 108 93 101 117 182 82 281 -18 51 -202 239 -286 293 -31 20
-60 42 -64 48 -39 63 -184 92 -239 49z"/>
<path d="M1994 5061 c-50 -31 -67 -86 -65 -221 2 -191 -26 -324 -87 -412 -16
-24 -50 -85 -76 -136 -25 -51 -66 -117 -91 -145 -27 -31 -56 -80 -73 -122 -15
-38 -49 -97 -75 -130 -27 -33 -60 -80 -74 -105 -15 -25 -52 -72 -83 -105 -31
-33 -78 -88 -105 -123 -26 -35 -53 -66 -61 -69 -7 -2 -32 -30 -55 -61 -66 -89
-300 -329 -480 -493 -46 -42 -111 -101 -144 -131 -98 -90 -218 -190 -288 -240
-56 -40 -70 -56 -102 -121 -44 -88 -41 -97 29 -97 95 0 220 50 341 135 33 24
88 57 122 74 34 17 89 53 122 81 33 28 87 66 119 85 32 19 81 54 108 79 28 24
78 61 112 81 34 19 82 54 108 76 25 21 72 57 104 79 33 22 73 60 90 84 61 90
131 113 183 60 38 -37 39 -54 33 -420 -8 -540 -28 -716 -105 -931 -21 -59 -50
-167 -65 -240 -15 -77 -42 -174 -65 -231 -53 -133 -68 -195 -81 -337 -19 -201
0 -305 74 -414 25 -36 59 -104 77 -151 45 -118 159 -230 235 -230 46 0 71 31
134 164 95 199 95 200 110 861 10 414 17 635 40 1225 8 212 13 265 40 395 47
224 33 290 -99 490 -90 137 -80 193 59 340 37 39 85 95 108 126 22 31 65 83
94 115 30 33 75 88 100 124 25 36 55 74 67 84 12 11 38 46 57 77 19 32 61 80
93 108 70 60 134 172 134 232 0 109 -164 314 -320 399 -38 21 -92 54 -122 74
-62 42 -125 49 -177 17z"/>
</g>
</svg>
