<svg xmlns="http://www.w3.org/2000/svg" viewBox="0 0 927.784677 842.197011">
<g transform="translate(-15.143484,860.535788) scale(0.100000,-0.100000)" fill="#000000" stroke="none">
<path d="M5368 8586 c-138 -51 -154 -138 -54 -292 64 -99 77 -136 110 -319 14
-72 41 -201 60 -286 127 -558 104 -704 -114 -748 -114 -22 -659 -61 -870 -61
-294 -1 -412 -48 -396 -159 22 -147 581 -240 1156 -191 258 22 312 -26 318
-285 11 -397 -19 -412 -873 -444 -271 -10 -325 -30 -325 -120 0 -162 365 -244
740 -166 324 67 435 31 435 -143 0 -563 -9 -575 -480 -614 -353 -30 -435 -14
-585 116 -209 180 -351 108 -295 -149 50 -226 37 -633 -25 -797 -32 -85 -187
-331 -258 -411 -171 -190 -160 -327 40 -523 130 -128 171 -136 299 -58 30 18
92 49 138 68 45 20 125 63 177 97 72 47 122 70 212 99 64 20 146 50 182 65
190 81 257 45 246 -135 -8 -153 -25 -207 -121 -375 -25 -44 -62 -132 -82 -195
-40 -128 -55 -162 -113 -251 -22 -34 -53 -98 -71 -143 -43 -112 -54 -131 -121
-215 -32 -40 -74 -104 -93 -142 -19 -37 -64 -104 -99 -147 -35 -43 -84 -110
-109 -148 -61 -92 -293 -328 -598 -605 -127 -115 -284 -227 -410 -291 -63 -32
-120 -69 -144 -94 -207 -212 -171 -279 104 -199 336 98 374 112 471 175 52 33
133 80 180 105 47 25 116 70 155 101 38 30 108 75 156 100 163 84 582 502 708
706 25 41 68 104 94 141 26 36 66 109 87 163 22 54 62 128 90 166 60 82 78
116 146 282 158 382 283 434 385 160 12 -32 50 -99 85 -150 34 -51 81 -127
102 -171 22 -43 63 -107 92 -143 29 -36 74 -108 100 -161 27 -53 72 -125 100
-160 29 -35 74 -102 102 -149 28 -47 73 -113 100 -147 27 -34 73 -105 103
-158 30 -53 77 -122 104 -153 26 -31 72 -92 101 -136 29 -43 69 -96 89 -118
20 -22 70 -89 111 -149 254 -370 289 -400 495 -431 187 -28 1691 -13 1804 19
241 66 101 260 -254 354 -242 63 -281 78 -360 130 -42 28 -125 73 -185 99 -60
26 -142 72 -184 102 -41 31 -119 74 -173 97 -56 24 -131 66 -175 99 -44 32
-122 76 -179 101 -59 25 -126 64 -158 90 -31 25 -90 67 -131 95 -41 27 -103
75 -137 107 -35 32 -89 76 -122 98 -32 22 -99 75 -148 118 -50 43 -114 98
-144 123 -181 149 -336 311 -537 558 -34 42 -93 111 -130 152 -38 41 -87 100
-109 130 -22 30 -65 83 -95 116 -30 34 -72 90 -94 125 -21 35 -66 101 -100
146 -145 190 -104 409 87 471 221 73 1372 125 1569 72 223 -60 277 -314 125
-586 -112 -199 -188 -220 -491 -134 -231 66 -294 64 -294 -9 0 -47 99 -200
196 -303 40 -42 101 -118 134 -169 34 -51 80 -113 102 -138 22 -25 56 -73 75
-106 144 -246 322 -238 589 27 152 149 177 189 225 353 18 61 57 175 87 254
29 79 70 205 89 280 40 153 62 204 125 277 242 284 265 325 219 400 -39 63
-279 231 -371 259 -38 12 -137 63 -195 101 -168 112 -358 112 -607 0 -157 -70
-192 -79 -488 -121 -135 -20 -297 -44 -360 -55 -63 -11 -176 -29 -250 -40 -74
-11 -166 -26 -205 -35 -211 -45 -305 22 -284 200 5 39 15 138 23 221 28 293
35 298 496 339 157 14 374 35 483 45 109 11 289 23 400 26 271 8 311 20 337
100 15 44 1 90 -49 167 -72 112 -75 191 -10 270 59 71 354 340 421 384 205
133 229 288 60 394 -37 23 -103 69 -147 102 -44 33 -100 69 -125 80 -25 10
-110 50 -190 87 -250 117 -361 120 -580 16 -52 -25 -138 -57 -190 -71 -179
-50 -285 -88 -385 -138 -265 -132 -365 -61 -348 248 14 254 36 279 273 311 70
9 191 35 275 59 233 67 320 83 595 110 168 17 317 64 586 185 182 82 153 303
-49 378 -250 94 -527 73 -786 -60 -139 -71 -201 -92 -381 -128 -62 -13 -140
-37 -191 -60 -266 -119 -341 12 -299 523 12 149 22 189 78 312 111 244 46 373
-268 529 -209 103 -503 151 -632 102z m1741 -2816 c173 -88 120 -426 -88 -564
-233 -155 -735 -301 -855 -248 -86 39 -100 111 -71 362 40 337 107 390 560
444 268 32 400 34 454 6z m-1735 -1385 c74 -35 95 -119 61 -245 -8 -30 -19
-91 -25 -135 -34 -255 -67 -286 -404 -370 -310 -77 -342 -78 -403 -12 -46 50
-49 96 -19 247 13 69 30 168 36 220 28 224 88 281 312 300 268 23 386 22 442
-5z"/>
<path d="M2680 8542 c-71 -38 -84 -80 -90 -307 -7 -224 -16 -260 -99 -370 -21
-27 -59 -92 -86 -143 -26 -52 -71 -124 -100 -160 -28 -37 -74 -101 -102 -143
-28 -41 -73 -100 -100 -130 -27 -30 -76 -88 -108 -129 -32 -41 -88 -107 -124
-146 -36 -39 -118 -129 -181 -200 -176 -197 -433 -443 -593 -567 -156 -122
-245 -285 -173 -318 51 -24 278 64 438 168 56 37 142 84 192 106 95 41 118 55
203 123 28 23 82 58 120 78 37 20 99 63 137 96 38 33 100 78 137 100 38 22 97
65 131 94 35 29 101 80 148 114 47 33 160 134 251 224 91 90 183 179 205 198
44 40 155 167 271 310 42 52 103 124 136 160 107 118 140 226 102 340 -21 63
-221 276 -335 358 -36 25 -85 62 -110 83 -98 79 -194 101 -270 61z"/>
<path d="M2533 6339 c-91 -26 -123 -109 -123 -315 0 -226 -32 -366 -114 -498
-24 -39 -66 -116 -94 -171 -27 -55 -73 -129 -102 -165 -28 -35 -72 -107 -97
-160 -25 -52 -64 -120 -88 -150 -23 -30 -67 -93 -97 -140 -31 -47 -79 -110
-107 -140 -29 -30 -69 -75 -89 -100 -41 -50 -150 -176 -305 -350 -248 -279
-743 -733 -1037 -952 -78 -58 -148 -187 -124 -226 44 -69 279 -4 473 132 42
29 114 74 161 100 47 26 119 74 160 107 41 33 104 77 140 99 36 21 97 65 135
97 39 33 105 81 149 107 43 27 106 72 140 100 33 29 84 69 113 89 28 21 79 68
112 106 93 105 169 124 228 58 39 -42 43 -79 43 -371 0 -686 -35 -1030 -134
-1309 -25 -70 -60 -196 -77 -280 -20 -96 -53 -212 -90 -314 -134 -373 -137
-725 -7 -924 23 -35 61 -109 85 -163 57 -130 72 -154 144 -220 151 -141 221
-122 323 87 110 228 124 301 136 757 25 894 31 1111 45 1470 26 665 31 731 64
903 54 279 41 342 -128 611 -96 154 -80 251 69 409 42 45 106 119 142 164 36
44 92 112 126 150 34 37 85 101 114 140 138 189 190 254 276 345 170 181 197
282 117 445 -52 107 -217 269 -350 345 -49 28 -110 64 -134 81 -71 49 -136 64
-198 46z"/>
</g>
</svg>
