<svg xmlns="http://www.w3.org/2000/svg" viewBox="0 0 494.567447 439.902521">
<g transform="translate(-12.438825,450.000000) scale(0.100000,-0.100000)" fill="#000000" stroke="none">
<path d="M2886 4432 c-7 -75 1 -109 56 -236 38 -87 56 -200 64 -397 l7 -155
-26 -21 c-23 -18 -47 -21 -199 -28 -95 -5 -248 -9 -339 -9 -175 -1 -199 -7
-199 -48 0 -11 21 -40 48 -64 74 -69 102 -74 411 -74 284 -1 291 -2 309 -51 5
-13 6 -71 3 -130 -7 -109 -21 -147 -59 -168 -19 -10 -367 -41 -461 -41 -72 0
-110 -22 -111 -62 0 -30 39 -55 125 -78 78 -21 90 -22 187 -10 56 6 130 18
163 25 64 15 99 12 127 -13 16 -13 18 -32 14 -171 -2 -86 -7 -164 -11 -174
-13 -31 -39 -37 -212 -49 -155 -11 -173 -10 -226 7 -37 12 -75 33 -105 60 -55
50 -80 59 -116 45 -44 -16 -51 -47 -28 -131 32 -120 33 -146 8 -308 -21 -134
-28 -157 -53 -189 -16 -21 -40 -55 -53 -77 -13 -22 -44 -59 -68 -82 -44 -41
-45 -43 -40 -96 5 -55 22 -84 110 -178 42 -46 108 -39 168 17 14 12 52 35 85
49 33 14 94 44 136 66 53 27 101 43 154 51 73 11 78 11 92 -8 17 -22 10 -70
-16 -124 -10 -19 -24 -60 -31 -90 -7 -30 -29 -84 -51 -120 -21 -36 -43 -88
-49 -117 -6 -29 -22 -67 -36 -85 -13 -18 -36 -58 -51 -88 -14 -30 -39 -70 -55
-88 -15 -18 -39 -54 -52 -80 -14 -27 -32 -55 -42 -63 -9 -8 -33 -38 -52 -68
-19 -29 -66 -83 -105 -120 -39 -36 -107 -101 -151 -144 -87 -85 -185 -156
-282 -205 -60 -30 -129 -99 -136 -136 -6 -37 25 -41 108 -14 44 14 102 31 130
38 28 6 89 34 135 61 46 27 89 49 94 49 6 0 28 15 49 33 22 17 63 46 92 62 29
17 77 49 107 72 57 44 228 223 257 270 10 15 29 39 44 52 14 13 35 49 46 78
11 30 34 71 50 91 16 20 36 57 45 82 8 25 31 68 51 96 37 55 54 101 54 149 0
40 25 75 55 75 30 0 103 -93 144 -182 15 -35 38 -72 51 -83 12 -11 37 -50 55
-86 18 -36 41 -71 50 -79 9 -8 29 -39 45 -69 15 -31 38 -65 50 -76 12 -11 35
-45 50 -75 15 -30 38 -64 49 -74 12 -11 36 -46 53 -79 17 -32 39 -62 49 -67 9
-5 29 -30 44 -56 15 -26 42 -63 60 -83 18 -20 42 -54 53 -76 12 -22 49 -70 84
-107 60 -63 66 -66 121 -73 32 -4 259 -5 505 -2 386 4 453 7 494 22 79 28 79
36 -10 99 -64 45 -92 58 -153 70 -41 9 -104 32 -142 51 -37 19 -90 45 -119 56
-28 11 -66 33 -84 48 -17 16 -54 37 -80 46 -27 10 -71 35 -99 55 -27 20 -71
44 -97 54 -26 9 -64 31 -84 47 -21 16 -57 38 -80 48 -23 11 -50 31 -59 45 -9
14 -33 36 -54 48 -20 12 -57 40 -82 62 -25 23 -83 73 -128 111 -81 68 -190
184 -301 321 -30 37 -71 83 -91 103 -20 20 -45 52 -57 72 -12 19 -31 44 -43
55 -34 31 -89 149 -89 191 0 49 41 110 86 129 83 35 706 78 791 55 66 -18 133
-103 133 -170 0 -47 -58 -188 -87 -211 -29 -23 -97 -26 -203 -9 -36 5 -81 12
-101 16 -25 4 -40 0 -52 -12 -34 -33 -21 -62 64 -143 44 -42 92 -97 106 -122
15 -25 38 -58 53 -75 15 -16 39 -51 54 -77 47 -83 101 -91 185 -28 29 22 57
40 61 40 5 0 38 34 74 76 57 68 67 84 81 147 9 40 29 101 44 137 16 36 36 100
45 142 18 80 34 106 137 223 79 89 75 136 -14 181 -28 15 -67 39 -87 54 -19
15 -58 35 -86 44 -28 9 -66 28 -85 42 -75 55 -145 55 -269 -1 -41 -18 -104
-39 -140 -45 -36 -6 -121 -22 -190 -35 -167 -32 -342 -55 -433 -58 -62 -2 -78
1 -97 18 -26 23 -24 41 14 184 34 128 44 149 78 167 31 16 553 64 703 64 132
0 151 30 91 144 -24 46 -32 71 -28 92 6 34 145 173 234 235 72 49 111 99 106
135 -4 35 -98 112 -186 154 -34 16 -77 40 -95 54 -43 33 -98 46 -187 46 -98
-1 -151 -14 -219 -54 -31 -19 -81 -40 -111 -46 -30 -7 -88 -26 -128 -41 -84
-34 -141 -37 -165 -11 -23 26 -15 206 12 242 41 56 144 87 386 114 82 10 173
28 245 50 63 19 147 41 185 50 58 13 76 22 108 56 28 29 37 48 37 73 0 43 -13
54 -122 106 -116 55 -176 56 -269 7 -35 -18 -94 -40 -130 -49 -37 -9 -99 -32
-138 -51 -134 -64 -272 -70 -302 -14 -20 37 -12 231 12 297 90 246 65 317
-134 386 -34 12 -55 27 -70 51 l-22 34 -121 0 -121 0 -7 -68z m975 -1445 c26
-16 39 -67 29 -112 -11 -48 -90 -167 -121 -181 -122 -57 -194 -85 -246 -94
-34 -6 -78 -17 -97 -25 -54 -23 -93 -19 -112 10 -14 21 -16 48 -12 163 4 159
13 182 81 212 96 42 425 60 478 27z m-891 -707 c24 -24 25 -58 5 -107 -8 -20
-22 -63 -31 -97 -22 -87 -50 -141 -81 -155 -15 -7 -65 -17 -111 -22 -55 -6
-101 -18 -134 -35 -42 -21 -55 -24 -75 -15 -53 24 -54 109 -4 280 41 141 54
154 168 162 188 13 241 11 263 -11z"/>
<path d="M1511 4395 c-33 -38 -37 -62 -21 -130 13 -57 -4 -160 -44 -263 -19
-48 -37 -109 -41 -137 -9 -62 -26 -105 -59 -148 -14 -18 -35 -63 -46 -100 -11
-36 -32 -79 -45 -95 -14 -17 -38 -61 -53 -99 -16 -39 -42 -87 -59 -109 -17
-21 -36 -56 -42 -76 -7 -20 -26 -54 -43 -75 -16 -21 -42 -58 -56 -83 -14 -25
-42 -64 -61 -86 -20 -23 -48 -61 -63 -85 -29 -45 -109 -158 -163 -226 -63 -81
-236 -271 -405 -445 -110 -113 -178 -191 -183 -209 -9 -36 6 -69 33 -69 25 0
129 61 160 95 14 15 37 33 52 41 15 8 50 35 78 59 28 25 54 45 59 45 10 0 88
68 241 209 135 124 215 207 245 253 30 45 56 60 98 56 50 -5 56 -30 68 -280
11 -230 5 -347 -26 -538 -8 -47 -21 -157 -30 -245 -19 -193 -21 -205 -51 -325
-30 -124 -41 -196 -54 -360 -25 -314 -5 -530 54 -579 8 -7 26 -43 41 -79 33
-86 114 -182 154 -182 47 0 135 122 151 210 20 110 26 302 17 561 -4 145 -9
566 -10 934 l-2 670 27 108 28 108 -21 62 c-27 80 -45 114 -85 160 -18 21 -35
49 -38 63 -8 29 16 79 43 94 11 5 29 31 42 56 12 26 35 61 50 79 16 18 37 52
48 77 10 25 35 66 54 91 19 26 41 63 47 84 7 21 29 61 50 88 20 28 45 70 54
94 10 25 29 58 43 75 14 17 34 51 45 76 11 25 36 63 57 85 50 53 101 139 101
170 0 14 -18 60 -39 103 -53 103 -140 182 -247 223 -98 38 -115 37 -153 -6z"/>
</g>
</svg>
