<svg xmlns="http://www.w3.org/2000/svg" viewBox="0 0 789.418570 705.177422">
<g transform="translate(-20.000000,720.460227) scale(0.100000,-0.100000)" fill="#000000" stroke="none">
<path d="M4624 7175 c-3 -14 -7 -74 -8 -133 -1 -107 -1 -107 53 -237 104 -251
122 -343 142 -721 17 -317 13 -322 -248 -329 -87 -3 -273 -8 -413 -13 -140 -4
-302 -8 -360 -8 -207 2 -240 -58 -103 -184 70 -64 115 -86 211 -100 74 -12
531 -18 722 -11 200 8 223 -19 215 -256 -9 -274 -33 -306 -238 -324 -305 -27
-479 -39 -557 -39 -141 0 -210 -33 -210 -100 0 -64 95 -115 280 -150 69 -13
257 2 390 31 194 43 284 33 310 -36 6 -15 7 -116 2 -260 -10 -318 -7 -314
-277 -337 -375 -31 -482 -13 -608 103 -69 62 -100 79 -148 79 -89 0 -125 -68
-95 -179 64 -227 65 -252 26 -507 -35 -232 -42 -260 -75 -305 -13 -19 -46 -68
-72 -109 -26 -41 -75 -102 -109 -135 -82 -81 -97 -112 -92 -191 4 -68 -2 -57
122 -219 102 -134 185 -142 330 -30 45 34 104 68 152 86 43 17 117 52 164 78
110 62 176 86 280 101 165 23 197 -35 118 -214 -17 -39 -41 -113 -54 -165 -18
-74 -35 -111 -77 -177 -43 -65 -59 -103 -77 -175 -19 -75 -33 -107 -77 -170
-29 -43 -62 -102 -74 -131 -23 -59 -47 -95 -100 -154 -21 -23 -51 -70 -69
-105 -17 -34 -56 -92 -86 -127 -30 -36 -63 -81 -74 -101 -16 -31 -240 -254
-480 -477 -82 -76 -271 -205 -365 -248 -83 -38 -117 -66 -164 -137 -64 -96
-44 -149 47 -121 20 6 93 27 162 46 210 59 224 64 311 117 46 28 117 68 157
87 41 20 95 55 122 79 26 23 76 56 111 72 128 58 483 387 585 541 19 29 56 77
82 105 33 36 55 75 75 127 16 45 47 102 77 140 29 38 62 97 80 146 18 46 52
109 76 141 51 67 69 114 79 197 18 144 73 191 147 125 52 -45 143 -179 174
-254 15 -37 49 -93 77 -125 27 -31 66 -93 88 -137 21 -44 57 -102 80 -130 23
-27 56 -79 74 -116 19 -36 56 -92 84 -125 28 -32 65 -88 83 -124 18 -35 54
-90 79 -121 26 -30 59 -79 73 -108 15 -28 49 -76 77 -107 27 -30 69 -85 93
-122 24 -37 65 -91 90 -121 26 -30 59 -76 72 -104 14 -27 45 -70 68 -96 23
-25 64 -73 91 -105 75 -90 92 -95 367 -108 231 -10 863 -5 1189 11 152 7 159
8 225 41 92 47 92 55 -8 135 -111 88 -137 101 -273 129 -94 20 -135 35 -218
80 -56 30 -138 68 -182 85 -47 18 -101 48 -130 72 -46 39 -74 54 -195 105 -25
10 -71 40 -103 66 -36 28 -91 59 -139 78 -44 16 -105 50 -136 74 -32 24 -90
60 -130 81 -40 21 -87 55 -105 75 -18 20 -57 54 -87 75 -30 21 -77 60 -105 85
-27 26 -68 61 -91 76 -116 83 -425 385 -524 514 -32 41 -72 89 -90 105 -17 17
-51 57 -75 90 -23 33 -62 77 -85 99 -23 21 -57 63 -76 92 -19 30 -55 77 -81
106 -68 77 -138 228 -138 298 1 90 56 170 145 209 115 51 1081 122 1240 91
122 -23 230 -155 230 -279 0 -46 -73 -263 -102 -303 -52 -74 -193 -86 -432
-37 -136 28 -175 19 -191 -43 -12 -46 4 -69 135 -203 77 -79 141 -155 164
-194 20 -35 57 -87 81 -114 24 -28 58 -77 75 -108 64 -121 162 -153 258 -85
20 15 71 49 113 77 54 36 95 74 145 136 96 119 109 144 137 260 14 56 44 146
67 199 23 53 52 146 65 206 28 127 43 162 94 220 20 24 48 59 61 78 13 19 50
63 81 97 111 120 102 201 -29 267 -37 19 -88 51 -112 72 -44 36 -99 64 -192
98 -26 10 -75 35 -109 57 -136 88 -251 88 -437 0 -93 -44 -126 -54 -257 -76
-82 -15 -206 -37 -275 -51 -208 -41 -527 -85 -667 -91 -132 -6 -132 -6 -168
30 -42 42 -46 83 -14 173 11 32 28 100 38 150 33 162 76 231 159 254 20 5 154
19 297 30 143 11 305 25 360 30 55 6 200 15 323 20 242 11 274 18 293 68 15
39 4 77 -42 154 -50 82 -59 138 -34 192 25 53 250 271 344 333 89 59 164 137
181 189 18 53 -1 86 -84 146 -39 28 -88 66 -109 84 -21 17 -66 42 -99 55 -33
12 -96 46 -140 75 -101 68 -126 75 -274 81 -193 8 -246 -5 -424 -105 -30 -17
-100 -42 -155 -56 -55 -14 -148 -43 -207 -66 -136 -51 -196 -54 -239 -11 -29
29 -29 29 -29 158 0 152 9 191 57 244 75 83 224 125 580 163 177 19 265 37
418 86 66 21 169 48 228 60 158 32 210 58 259 131 61 91 32 171 -81 221 -36
16 -99 46 -140 66 -119 59 -234 56 -361 -11 -62 -32 -135 -59 -221 -82 -84
-23 -156 -49 -203 -75 -198 -109 -450 -118 -501 -19 -30 57 -17 361 19 459
148 397 112 517 -180 614 -87 29 -148 75 -160 121 -10 40 -400 39 -410 0z
m1536 -2391 c102 -58 92 -186 -28 -364 -63 -93 -62 -93 -267 -184 -115 -51
-146 -61 -234 -76 -36 -6 -107 -25 -158 -42 -92 -30 -95 -31 -129 -14 -60 28
-67 60 -62 286 7 308 33 343 283 385 241 39 535 44 595 9z m-1440 -1122 c69
-34 75 -81 26 -231 -19 -58 -47 -146 -62 -195 -45 -148 -85 -177 -270 -197
-112 -11 -170 -26 -238 -61 -93 -47 -158 -10 -171 96 -9 72 -2 119 47 296 76
276 89 289 338 300 264 12 292 11 330 -8z"/>
<path d="M2452 7069 c-56 -37 -86 -100 -78 -167 25 -224 15 -311 -59 -497 -26
-66 -58 -170 -71 -232 -25 -120 -37 -152 -92 -226 -20 -28 -49 -91 -68 -150
-24 -70 -50 -124 -84 -173 -27 -39 -63 -109 -80 -155 -18 -50 -47 -105 -74
-139 -25 -31 -62 -97 -83 -146 -21 -49 -59 -114 -85 -146 -25 -31 -60 -82 -77
-115 -18 -32 -52 -80 -77 -108 -25 -27 -61 -77 -81 -110 -19 -33 -55 -83 -78
-111 -24 -28 -61 -79 -81 -115 -21 -35 -59 -86 -84 -114 -26 -27 -65 -78 -88
-112 -23 -33 -57 -74 -75 -90 -19 -15 -58 -58 -87 -96 -28 -37 -60 -72 -71
-77 -10 -6 -39 -38 -65 -73 -63 -83 -130 -154 -376 -399 -207 -205 -238 -245
-238 -305 0 -40 26 -73 57 -73 40 0 161 69 233 133 36 32 88 71 115 87 28 16
81 56 118 89 37 34 82 68 100 77 18 10 61 45 97 78 36 34 83 75 105 91 22 16
65 54 97 84 31 31 100 97 153 146 145 136 273 268 314 326 52 76 81 93 148 94
100 0 105 -21 124 -503 13 -326 7 -453 -32 -717 -29 -190 -46 -328 -69 -551
-18 -178 -35 -278 -101 -574 -65 -298 -95 -814 -64 -1092 19 -161 29 -195 88
-280 25 -36 54 -92 66 -123 34 -91 58 -131 117 -197 122 -136 162 -133 272 22
76 108 88 135 106 247 35 222 40 363 28 845 -27 1053 -34 1490 -29 2003 5 572
7 602 59 785 33 120 29 177 -20 300 -23 58 -58 125 -77 150 -120 154 -126 209
-30 300 20 19 48 58 62 85 14 28 49 82 78 120 29 39 69 104 88 145 19 41 55
101 80 133 25 32 55 83 67 113 29 80 48 113 91 166 34 40 56 80 96 178 6 14
31 52 56 85 25 33 58 91 74 129 20 50 44 86 89 132 79 80 164 226 164 280 1
28 -15 71 -57 152 -84 166 -228 299 -391 363 -133 52 -175 57 -220 28z"/>
</g>
</svg>
