<svg xmlns="http://www.w3.org/2000/svg" viewBox="0 0 718.952745 699.452265">
<g transform="translate(-16.922070,699.548102) scale(0.100000,-0.100000)" fill="#000000" stroke="none">
<path d="M4560 6974 c-99 -84 -100 -200 -1 -307 31 -34 74 -90 95 -124 24 -40
59 -79 101 -112 72 -57 105 -110 105 -169 0 -61 -32 -83 -142 -102 -29 -4
-105 -17 -168 -28 -145 -26 -244 -38 -445 -57 -88 -9 -203 -22 -255 -30 -52
-8 -160 -22 -240 -30 -80 -8 -172 -20 -205 -26 -77 -14 -116 -7 -206 36 -130
61 -361 100 -417 71 -78 -41 -90 -81 -57 -201 28 -104 30 -125 45 -515 6 -146
16 -346 21 -445 6 -101 10 -499 10 -910 -2 -752 -3 -789 -51 -1365 -11 -129
-24 -317 -30 -417 -12 -218 -25 -292 -78 -439 -47 -132 -56 -171 -83 -363 -23
-171 -27 -186 -84 -311 -24 -52 -56 -142 -71 -200 -14 -58 -46 -145 -69 -195
-24 -49 -57 -126 -75 -170 -46 -117 -76 -166 -120 -199 -87 -65 -66 -186 32
-186 56 0 311 279 394 432 22 42 57 96 77 120 34 41 97 161 97 183 0 6 23 51
51 100 32 56 72 149 104 245 29 85 70 197 90 248 26 69 41 131 56 230 10 76
40 226 65 336 58 253 70 351 83 676 6 146 16 378 21 515 15 359 12 340 64 443
44 88 47 92 88 102 106 26 120 32 156 72 239 265 305 296 342 158 24 -87 -12
-687 -51 -865 -6 -27 -33 -115 -59 -195 -106 -313 -94 -557 34 -753 114 -174
174 -168 285 29 25 43 51 101 58 128 20 77 27 310 14 509 -6 97 -14 356 -17
575 -7 421 -2 508 38 651 26 97 21 143 -31 241 -56 109 -56 148 3 266 27 53
70 117 106 157 33 38 71 90 85 117 13 26 49 76 78 110 104 119 130 213 84 313
-30 66 -62 91 -196 152 -197 90 -257 45 -281 -214 -15 -160 -39 -254 -94 -354
-24 -45 -56 -119 -71 -164 -16 -50 -44 -107 -74 -150 -26 -37 -62 -104 -79
-148 -18 -44 -50 -102 -72 -130 -21 -27 -61 -83 -87 -124 -26 -41 -68 -94 -93
-119 -174 -169 -171 -167 -191 -130 -20 36 -6 527 40 1415 16 308 47 333 502
403 71 11 179 33 241 50 191 51 497 98 758 115 52 4 136 12 185 20 50 7 131
16 180 20 50 4 145 15 212 26 165 26 375 37 898 49 640 14 735 35 735 158 0
83 -93 175 -215 211 -22 7 -85 35 -140 62 -188 92 -364 88 -637 -15 -54 -20
-143 -43 -199 -52 -56 -9 -140 -29 -187 -45 -144 -49 -176 -33 -193 91 -21
158 -64 218 -236 331 -91 59 -134 74 -306 104 -114 20 -146 30 -183 55 -99 66
-104 67 -144 34z"/>
<path d="M1963 6551 c-74 -35 -83 -74 -54 -236 23 -121 -14 -356 -78 -507 -22
-51 -53 -153 -70 -226 -33 -140 -40 -158 -100 -251 -23 -36 -46 -91 -60 -145
-17 -63 -37 -108 -74 -164 -33 -51 -61 -112 -84 -181 -26 -79 -46 -122 -84
-172 -27 -37 -59 -94 -70 -127 -19 -57 -42 -98 -117 -208 -18 -27 -42 -74 -53
-105 -12 -31 -43 -84 -71 -118 -27 -34 -64 -94 -82 -134 -20 -42 -57 -98 -90
-135 -31 -35 -67 -84 -80 -110 -13 -27 -44 -70 -69 -97 -24 -28 -57 -75 -72
-105 -15 -30 -53 -86 -85 -125 -31 -38 -67 -86 -81 -105 -13 -19 -79 -97 -147
-175 -154 -173 -195 -253 -162 -315 27 -50 67 -37 185 59 301 242 808 736 941
916 20 28 50 65 66 83 15 18 44 64 63 103 57 113 146 144 202 70 60 -80 62
-476 7 -1231 -14 -190 -31 -439 -39 -555 -19 -280 -30 -366 -65 -520 -55 -239
-80 -383 -100 -587 -11 -112 -27 -238 -35 -281 -8 -43 -15 -106 -15 -140 0
-121 79 -397 121 -422 47 -30 119 -170 143 -278 7 -28 7 -28 114 -25 107 3
107 3 114 63 11 88 46 218 79 296 54 127 61 302 79 2129 10 984 13 1090 32
1250 37 317 25 356 -181 584 -121 134 -130 190 -46 297 26 33 62 96 81 140 18
45 48 99 66 122 48 60 62 84 91 162 28 71 36 87 96 170 18 25 47 86 63 133 18
52 50 115 79 156 28 41 59 101 74 146 14 43 42 104 62 136 148 241 158 286 95
416 -42 87 -242 282 -338 329 -82 41 -189 49 -251 20z"/>
<path d="M5664 5781 c-75 -46 -67 -136 20 -230 39 -43 59 -75 75 -123 14 -41
33 -76 53 -94 159 -149 113 -247 -137 -293 -61 -12 -149 -34 -195 -51 -95 -33
-136 -37 -167 -15 -44 31 -33 138 22 210 51 66 65 99 65 153 0 123 -207 325
-332 325 -80 0 -103 -49 -117 -254 -12 -152 -26 -211 -83 -323 -28 -56 -47
-115 -64 -195 -19 -92 -36 -140 -83 -236 -33 -66 -64 -140 -70 -165 -17 -74
-37 -113 -101 -198 -100 -133 -134 -238 -91 -281 42 -42 113 -9 195 92 66 81
172 125 203 85 27 -34 19 -306 -12 -478 -9 -47 -25 -170 -36 -273 -11 -104
-33 -259 -50 -345 -61 -321 -60 -359 16 -587 57 -169 63 -182 114 -228 116
-105 220 -59 241 108 17 134 54 169 190 181 44 4 131 24 210 49 173 55 314 84
465 96 66 5 203 15 305 23 133 11 267 13 475 9 346 -7 389 -1 449 58 38 38 38
40 34 99 -5 76 -34 108 -127 145 -36 15 -95 44 -131 65 -153 90 -327 84 -503
-18 -150 -87 -264 -63 -282 59 -8 57 20 243 43 283 27 47 92 74 207 86 235 26
317 52 363 120 98 145 -104 252 -372 196 -180 -37 -231 -5 -231 144 0 135 34
165 228 199 178 32 283 82 328 154 48 79 4 129 -146 168 -90 24 -118 24 -188
-1 -141 -50 -217 -2 -217 137 0 91 23 156 70 196 58 49 260 113 420 132 188
22 260 70 260 172 0 120 -203 177 -437 124 -171 -39 -190 -31 -223 87 -50 181
-74 216 -207 304 -122 82 -125 83 -198 98 -33 6 -89 20 -124 31 -78 24 -88 24
-127 0z m-350 -941 c79 -45 108 -51 248 -54 192 -4 223 -28 253 -196 37 -212
8 -250 -209 -270 -55 -6 -138 -17 -184 -26 -103 -21 -110 -16 -148 99 -21 64
-37 92 -75 132 -59 63 -79 108 -79 179 0 147 78 201 194 136z m77 -682 c121
-79 145 -88 225 -88 125 0 183 -36 223 -138 52 -131 2 -224 -134 -252 -27 -5
-99 -19 -160 -31 -183 -35 -212 -69 -139 -166 45 -60 86 -77 210 -83 211 -12
248 -67 210 -317 -22 -144 -61 -180 -217 -203 -40 -7 -118 -25 -173 -42 -168
-52 -236 -32 -266 76 -17 63 -39 624 -29 752 4 60 8 152 9 204 1 170 42 319
93 340 39 16 54 11 148 -52z"/>
<path d="M6370 2014 c-111 -46 -75 -164 111 -359 47 -49 124 -131 170 -182
294 -322 339 -357 460 -357 175 -1 259 130 247 387 -7 147 -35 195 -148 257
-47 25 -107 63 -134 83 -64 50 -92 61 -236 92 -66 14 -153 38 -193 51 -72 25
-242 42 -277 28z"/>
<path d="M4773 1965 c-61 -26 -71 -94 -24 -166 34 -51 266 -288 331 -338 25
-19 71 -59 102 -88 91 -86 197 -108 295 -64 119 55 180 268 112 392 -55 100
-243 203 -414 229 -44 6 -114 20 -157 31 -89 22 -199 24 -245 4z"/>
<path d="M4034 1916 c-49 -49 -50 -115 -4 -207 16 -32 55 -159 90 -295 71
-281 81 -310 131 -387 21 -32 45 -82 55 -110 26 -81 58 -138 107 -192 24 -28
56 -70 72 -95 36 -59 70 -95 125 -133 25 -17 73 -55 107 -85 43 -37 93 -67
163 -97 55 -25 114 -54 130 -65 77 -55 126 -66 431 -100 119 -13 235 -33 324
-55 203 -51 324 -48 595 15 69 16 184 36 255 45 168 20 218 35 290 86 205 142
234 301 74 410 -33 22 -74 53 -92 68 -18 15 -63 46 -102 69 -69 40 -113 82
-333 321 -218 235 -291 292 -346 272 -66 -26 -66 -72 1 -495 30 -195 -29 -295
-202 -341 -125 -32 -445 -8 -581 44 -44 17 -111 37 -150 45 -100 21 -160 43
-218 81 -28 18 -73 45 -101 60 -71 40 -177 146 -240 240 -30 44 -67 98 -83
120 -15 22 -36 60 -46 85 -10 25 -43 97 -72 160 -29 63 -67 167 -84 230 -41
153 -122 285 -201 325 -41 22 -57 19 -95 -19z"/>
<path d="M3397 1688 c-24 -19 -44 -73 -57 -162 -15 -102 -30 -143 -79 -214
-22 -32 -51 -87 -65 -122 -15 -35 -44 -92 -66 -126 -83 -127 -109 -300 -66
-449 27 -93 172 -225 248 -225 107 0 282 161 340 312 62 163 42 509 -39 693
-22 50 -53 126 -68 170 -41 115 -96 161 -148 123z"/>
</g>
</svg>
