<svg xmlns="http://www.w3.org/2000/svg" viewBox="0 0 449.741094 437.442594">
<g transform="translate(-10.240631,437.442594) scale(0.100000,-0.100000)" fill="#000000" stroke="none">
<path d="M2857 4369 c-9 -6 -27 -29 -38 -51 -30 -58 -21 -98 36 -159 25 -26
45 -54 45 -60 0 -7 32 -42 70 -79 57 -55 70 -73 70 -98 0 -34 -20 -60 -53 -66
-83 -17 -228 -38 -387 -56 -102 -11 -237 -27 -300 -35 -239 -30 -241 -30 -295
-2 -50 25 -182 57 -235 57 -33 0 -80 -41 -80 -70 0 -12 7 -45 15 -73 23 -79
36 -417 42 -1038 5 -504 3 -579 -16 -815 -12 -142 -25 -330 -31 -416 -8 -139
-14 -171 -45 -265 -21 -62 -44 -163 -55 -237 -13 -90 -27 -144 -46 -183 -15
-31 -39 -97 -54 -147 -47 -153 -123 -316 -164 -349 -26 -21 -36 -37 -36 -56 0
-31 27 -61 55 -61 31 0 220 204 247 268 7 15 26 47 43 72 36 51 155 288 155
308 0 8 20 64 44 126 30 78 49 144 59 218 9 59 28 154 42 212 38 159 43 210
55 586 l11 345 33 65 c30 60 35 65 80 76 42 11 60 25 133 104 71 75 90 91 112
88 52 -6 60 -63 41 -323 -16 -210 -27 -278 -64 -386 -40 -113 -52 -205 -41
-312 6 -65 13 -86 52 -152 75 -125 114 -125 183 0 51 93 60 167 49 370 -14
244 -10 704 6 770 21 87 18 123 -15 185 -17 30 -30 64 -30 75 0 34 46 122 88
167 22 24 47 59 57 78 10 19 35 54 55 78 74 83 88 159 43 221 -24 33 -149 100
-186 101 -69 0 -86 -28 -103 -179 -11 -97 -19 -128 -49 -186 -19 -38 -44 -96
-54 -127 -11 -32 -31 -73 -44 -90 -14 -18 -38 -62 -54 -98 -17 -36 -43 -81
-60 -100 -16 -19 -41 -56 -56 -82 -15 -26 -41 -55 -58 -65 -17 -10 -39 -33
-51 -50 -21 -36 -42 -42 -52 -17 -7 18 8 487 25 789 14 241 24 275 92 305 24
11 102 29 173 40 71 12 170 32 219 45 99 26 249 51 365 60 130 10 361 36 460
51 58 9 236 19 455 25 483 13 565 28 565 101 0 37 -57 99 -112 122 -24 10 -78
34 -122 54 -73 35 -84 37 -167 35 -72 -1 -107 -8 -191 -37 -57 -19 -134 -40
-172 -46 -38 -6 -84 -17 -103 -25 -20 -8 -51 -15 -69 -15 -39 0 -54 24 -54 86
0 54 -23 96 -76 142 -78 66 -134 92 -251 113 -74 13 -115 26 -137 42 -46 35
-50 36 -69 26z"/>
<path d="M1235 4101 c-11 -5 -28 -18 -39 -30 -16 -17 -17 -28 -10 -68 21 -115
0 -293 -45 -382 -11 -21 -29 -81 -41 -131 -13 -61 -30 -109 -51 -141 -17 -27
-39 -75 -49 -109 -10 -33 -32 -81 -49 -107 -17 -26 -40 -75 -50 -110 -10 -34
-33 -80 -50 -102 -18 -22 -39 -62 -48 -88 -8 -26 -29 -65 -45 -85 -16 -21 -41
-66 -57 -100 -15 -35 -36 -69 -45 -77 -10 -8 -33 -44 -51 -80 -18 -36 -45 -77
-60 -91 -15 -14 -36 -43 -47 -65 -11 -22 -32 -52 -46 -68 -14 -15 -37 -47 -51
-71 -36 -62 -101 -145 -198 -254 -81 -92 -111 -149 -97 -185 8 -22 32 -29 57
-15 58 30 363 309 491 448 39 41 88 94 110 117 64 64 101 114 129 169 32 64
48 76 89 72 59 -6 63 -26 63 -333 -1 -180 -8 -368 -23 -565 -31 -412 -38 -478
-72 -620 -16 -68 -34 -170 -40 -225 -6 -55 -17 -150 -25 -211 -19 -144 -19
-166 6 -272 16 -73 27 -97 60 -137 51 -61 67 -92 75 -144 l7 -41 68 0 c38 0
69 2 69 4 0 31 37 184 56 228 21 51 25 81 34 256 5 108 12 544 15 967 5 552
11 805 21 893 21 191 14 213 -115 355 -53 59 -61 73 -61 107 0 30 8 48 31 75
17 19 40 58 50 86 11 28 33 68 50 88 16 21 39 61 49 90 11 28 35 74 54 100 18
27 41 73 50 102 10 30 31 71 48 92 17 20 36 59 44 85 8 26 30 72 48 102 49 80
76 137 76 158 0 10 -8 41 -17 68 -13 37 -35 67 -96 127 -44 43 -96 87 -117 97
-43 22 -126 33 -155 21z"/>
<path d="M3526 3604 c-30 -29 -20 -82 23 -129 22 -24 44 -59 50 -80 5 -20 28
-56 50 -81 79 -85 49 -134 -100 -164 -52 -10 -111 -26 -131 -34 -116 -49 -155
17 -78 130 51 76 52 105 1 172 -21 29 -49 60 -62 71 -64 50 -134 66 -159 36
-7 -9 -19 -72 -26 -141 -11 -106 -18 -135 -48 -197 -19 -40 -37 -94 -41 -122
-4 -27 -26 -93 -50 -145 -25 -52 -49 -113 -54 -135 -6 -22 -33 -71 -61 -109
-49 -67 -77 -135 -66 -162 17 -44 82 -20 131 47 25 35 45 51 74 60 71 21 75
15 68 -119 -3 -64 -11 -142 -17 -172 -6 -30 -17 -113 -25 -185 -8 -72 -23
-178 -35 -235 -30 -156 -27 -220 16 -348 37 -112 51 -135 96 -158 65 -34 113
-6 123 73 11 82 15 92 43 106 15 8 53 17 85 21 31 3 81 15 110 27 144 55 386
82 777 83 254 1 276 4 307 45 18 23 16 76 -4 100 -10 11 -63 43 -117 71 -94
47 -103 50 -177 50 -72 0 -84 -3 -154 -40 -111 -58 -168 -53 -189 17 -9 29 10
167 26 193 17 27 74 46 188 60 98 13 163 37 174 65 3 9 6 32 6 51 0 28 -6 38
-32 54 -43 26 -128 35 -192 21 -78 -17 -125 -17 -143 2 -10 10 -18 39 -21 76
-4 56 -2 62 25 89 22 23 44 32 98 41 148 25 235 74 235 131 0 37 -24 54 -111
75 -60 15 -69 15 -104 1 -101 -43 -155 2 -140 115 11 77 38 102 153 138 53 16
129 33 167 36 86 9 121 26 142 70 19 41 9 74 -31 100 -40 26 -155 31 -248 10
-95 -22 -107 -17 -124 46 -26 101 -55 150 -112 188 -83 56 -112 69 -187 86
-88 19 -110 19 -129 -1z m-225 -570 c32 -28 92 -43 181 -44 111 0 134 -16 149
-105 5 -33 13 -74 16 -92 7 -42 -32 -80 -90 -87 -23 -3 -81 -10 -130 -16 -48
-7 -93 -10 -101 -7 -7 3 -19 27 -26 53 -9 30 -29 66 -54 93 -40 42 -41 46 -41
113 0 61 3 72 24 89 28 23 49 24 72 3z m76 -441 c67 -40 87 -47 148 -53 38 -3
76 -9 83 -13 27 -18 53 -88 50 -135 -4 -64 -34 -83 -169 -106 -141 -24 -163
-46 -112 -107 36 -42 79 -59 153 -59 55 0 65 -3 92 -31 l31 -30 -7 -85 c-11
-128 -31 -157 -118 -170 -24 -3 -85 -18 -136 -32 -85 -24 -96 -25 -120 -11
-48 27 -54 72 -55 409 -1 310 7 399 38 447 9 13 22 23 30 23 9 0 50 -21 92
-47z"/>
<path d="M3956 1244 c-21 -21 -20 -62 2 -99 24 -39 260 -295 345 -375 73 -68
116 -85 181 -70 21 4 49 19 62 31 64 60 73 265 15 333 -9 10 -41 31 -71 47
-30 17 -70 41 -88 54 -18 13 -59 29 -90 35 -31 6 -94 22 -138 35 -96 29 -194
33 -218 9z"/>
<path d="M2970 1222 c-50 -40 -28 -83 116 -224 144 -141 201 -186 244 -193
101 -17 180 63 180 182 0 65 -23 99 -106 155 -60 41 -81 49 -159 62 -49 9
-106 20 -125 26 -56 16 -125 12 -150 -8z"/>
<path d="M2513 1194 c-22 -34 -20 -85 5 -126 11 -18 39 -107 62 -198 25 -100
53 -186 71 -217 16 -29 37 -74 47 -101 43 -113 246 -322 342 -353 19 -6 62
-27 96 -45 61 -34 82 -39 304 -64 52 -6 131 -20 175 -32 66 -17 97 -20 180
-15 55 4 125 13 155 22 30 8 108 22 174 31 136 18 144 20 210 67 65 47 86 81
86 140 0 43 -4 53 -34 80 -50 47 -95 80 -148 110 -26 15 -96 81 -163 154 -197
215 -240 246 -280 206 -14 -13 -16 -27 -11 -62 44 -329 44 -348 15 -385 -31
-39 -95 -68 -164 -74 -69 -5 -257 13 -285 28 -11 6 -61 21 -112 35 -51 13
-120 39 -152 57 -69 39 -168 127 -198 177 -12 20 -34 52 -50 71 -15 19 -28 38
-28 43 0 4 -20 51 -44 105 -25 53 -52 126 -61 162 -17 67 -62 148 -104 188
-32 30 -66 28 -88 -4z"/>
<path d="M2116 1051 c-10 -11 -21 -49 -27 -87 -5 -37 -16 -79 -23 -93 -8 -14
-32 -60 -54 -101 -22 -41 -53 -101 -70 -132 -38 -72 -48 -132 -34 -217 10 -63
14 -69 72 -123 44 -42 68 -58 88 -58 57 0 160 89 206 179 46 88 37 320 -17
453 -18 46 -41 104 -51 131 -24 65 -58 83 -90 48z"/>
</g>
</svg>
