<svg xmlns="http://www.w3.org/2000/svg" viewBox="0 0 721.754336 719.837071">
<g transform="translate(-14.245664,719.837071) scale(0.100000,-0.100000)" fill="#000000" stroke="none">
<path d="M3492 7191 c-45 -12 -82 -48 -82 -81 0 -34 121 -180 257 -308 54 -51
130 -124 168 -162 166 -161 300 -241 407 -243 87 -1 137 45 214 200 95 189
-27 390 -284 468 -42 12 -115 39 -162 58 -129 54 -422 92 -518 68z"/>
<path d="M5400 6553 c-118 -11 -245 -40 -357 -79 -94 -33 -175 -53 -303 -75
-195 -32 -323 -65 -389 -98 -82 -43 -126 -52 -302 -66 -96 -7 -202 -20 -235
-29 -72 -18 -326 -69 -449 -90 -49 -9 -216 -29 -370 -46 -154 -17 -336 -38
-405 -46 -235 -30 -265 -30 -354 5 -91 37 -345 84 -451 84 -186 1 -235 -112
-129 -293 75 -129 84 -218 74 -730 -7 -375 -8 -389 -38 -540 -46 -229 -69
-405 -92 -695 -27 -343 -41 -432 -94 -594 -24 -75 -52 -185 -61 -246 -25 -168
-41 -227 -91 -341 -29 -67 -54 -148 -70 -222 -31 -150 -28 -140 -85 -263 -27
-59 -61 -149 -75 -200 -19 -74 -36 -111 -79 -174 -37 -55 -63 -110 -84 -175
-21 -64 -48 -119 -81 -168 -28 -41 -57 -98 -65 -130 -24 -85 -46 -131 -89
-185 -21 -27 -56 -88 -78 -135 -21 -46 -56 -105 -77 -131 -21 -25 -55 -77 -75
-116 -20 -38 -59 -99 -86 -135 -28 -36 -82 -110 -121 -165 -38 -55 -85 -119
-104 -143 -50 -63 -55 -90 -20 -120 46 -39 90 -27 176 50 138 122 394 379 429
428 19 28 63 85 98 126 34 42 71 93 83 115 11 22 44 69 75 104 30 36 70 91 89
123 19 31 55 80 81 107 45 49 64 83 98 177 10 26 39 77 66 113 35 48 57 93 80
162 17 55 46 117 65 144 50 70 70 114 100 224 16 55 50 148 77 207 38 82 56
140 79 250 23 115 39 163 79 246 50 103 61 146 94 352 47 297 127 431 316 530
105 55 226 152 293 234 69 83 130 96 164 33 15 -28 17 -62 15 -302 -4 -407
-18 -524 -105 -855 -63 -241 -58 -372 21 -508 43 -76 52 -98 82 -200 32 -111
73 -139 156 -107 53 20 102 79 136 163 23 57 23 57 18 472 -9 784 -6 1194 12
1315 20 135 6 211 -47 255 -21 17 -45 64 -45 87 0 29 118 224 165 273 24 25
60 74 81 110 21 36 59 88 84 115 26 28 64 76 84 109 21 32 57 76 81 98 117
107 115 250 -4 326 -31 19 -78 54 -106 77 -99 84 -187 105 -268 66 -58 -28
-78 -70 -88 -181 -4 -54 -18 -114 -37 -165 -16 -44 -37 -114 -47 -155 -29
-127 -45 -167 -86 -218 -21 -27 -57 -88 -78 -136 -23 -49 -59 -106 -84 -133
-24 -27 -61 -74 -81 -106 -20 -33 -57 -84 -81 -115 -25 -32 -62 -80 -82 -107
-69 -92 -208 -215 -242 -215 -66 0 -73 42 -32 202 66 258 88 406 116 798 47
650 102 798 305 824 351 46 390 53 600 105 186 47 296 66 495 86 83 9 233 27
335 41 574 77 1091 113 1645 114 441 1 525 27 525 160 0 91 -136 232 -284 294
-69 29 -315 44 -466 29z"/>
<path d="M4957 5710 c-63 -20 -73 -59 -36 -133 36 -71 58 -96 122 -139 34 -22
82 -60 107 -84 51 -49 284 -160 357 -171 107 -15 282 144 283 257 0 99 -59
149 -212 180 -51 10 -119 28 -151 39 -106 37 -411 70 -470 51z"/>
<path d="M4175 5485 c-85 -46 -107 -91 -150 -312 -43 -219 -52 -245 -106 -319
-24 -33 -56 -91 -71 -129 -16 -41 -46 -91 -72 -121 -25 -28 -60 -77 -80 -110
-19 -32 -59 -86 -88 -119 -30 -33 -69 -81 -86 -107 -18 -26 -53 -64 -78 -84
-25 -21 -58 -56 -74 -78 -15 -23 -56 -69 -89 -102 -67 -68 -71 -79 -40 -118
33 -42 88 -37 143 14 24 22 76 56 115 75 46 23 91 55 129 93 71 73 110 94 164
90 80 -6 83 -18 80 -321 -5 -489 -40 -830 -105 -1047 -49 -162 -47 -302 7
-419 21 -46 47 -116 58 -155 27 -100 59 -150 111 -175 116 -56 173 -4 222 203
48 205 64 217 300 236 83 6 197 17 255 25 284 38 645 54 1340 59 493 4 501 5
540 68 38 63 12 157 -57 203 -98 67 -435 154 -541 140 -82 -11 -244 -46 -331
-72 -187 -56 -246 -8 -237 192 11 231 29 250 271 275 193 20 468 100 504 146
131 167 -163 251 -554 158 -70 -16 -139 -18 -164 -4 -50 26 -66 158 -28 230
32 61 70 77 266 110 283 49 447 103 476 160 84 162 -191 234 -546 144 -163
-41 -228 13 -217 181 8 116 34 141 203 191 269 80 322 94 424 109 168 25 236
71 236 160 0 116 -124 168 -352 146 -135 -13 -206 -31 -308 -81 -100 -48 -134
-57 -268 -69 -117 -11 -176 -25 -312 -71 -182 -63 -577 -111 -629 -77 -66 44
-41 106 95 238 98 94 99 96 99 143 0 66 -18 95 -107 166 -139 112 -285 169
-348 135z m226 -860 c105 -75 195 -90 396 -70 82 8 82 8 116 -26 59 -59 90
-237 54 -306 -30 -57 -76 -73 -306 -103 -181 -24 -240 -106 -148 -207 49 -53
112 -66 253 -51 141 15 173 2 217 -83 52 -99 30 -201 -54 -244 -25 -14 -278
-67 -374 -80 -111 -15 -135 -32 -135 -100 0 -114 57 -140 307 -140 178 0 194
-1 220 -21 67 -49 77 -124 33 -254 -43 -129 -74 -150 -240 -161 -63 -4 -182
-13 -265 -20 -213 -18 -269 0 -297 94 -24 78 -18 1013 7 1162 29 174 27 200
-29 305 -53 102 -57 140 -26 223 49 132 154 163 271 82z"/>
<path d="M6155 2313 c-90 -22 -72 -144 33 -230 33 -26 93 -75 133 -108 41 -32
108 -91 150 -130 42 -38 129 -117 194 -175 64 -58 147 -132 184 -165 69 -64
179 -131 229 -141 33 -7 62 7 137 66 27 22 71 45 97 52 48 12 48 12 48 190 0
178 0 178 -22 178 -44 1 -108 39 -181 108 -83 78 -109 94 -187 112 -83 19
-158 49 -225 90 -75 46 -102 55 -245 80 -63 12 -157 34 -208 50 -93 30 -101
32 -137 23z"/>
<path d="M4434 2089 c-75 -22 -92 -100 -36 -166 18 -21 47 -58 65 -82 18 -25
51 -67 74 -95 23 -28 68 -90 100 -137 65 -97 240 -270 297 -294 87 -36 151
-13 236 86 75 87 90 120 90 197 0 106 -121 270 -238 325 -37 17 -96 50 -131
74 -77 52 -130 69 -264 83 -56 5 -115 12 -132 14 -16 2 -44 0 -61 -5z"/>
<path d="M2178 1855 c-36 -20 -55 -58 -73 -147 -25 -120 -44 -164 -97 -230
-28 -35 -65 -95 -83 -133 -18 -39 -53 -94 -78 -124 -109 -127 -149 -320 -107
-521 36 -179 76 -223 200 -223 118 0 231 78 307 211 14 26 47 81 73 122 61 95
65 109 95 320 32 228 32 257 -16 550 -23 146 -127 228 -221 175z"/>
<path d="M3179 1819 c-19 -19 -21 -30 -16 -83 5 -67 75 -293 115 -371 14 -27
45 -104 69 -170 29 -80 60 -144 92 -191 27 -38 68 -110 90 -158 22 -48 62
-113 89 -144 27 -32 64 -80 81 -108 17 -29 53 -69 79 -90 26 -20 71 -62 100
-91 38 -39 79 -67 140 -96 48 -23 114 -59 148 -79 63 -39 146 -64 307 -93 146
-26 217 -59 252 -117 16 -28 16 -28 696 -28 681 0 681 0 711 30 65 65 197 111
406 140 45 6 101 18 124 26 44 15 203 118 251 163 72 66 86 163 34 238 -103
147 -125 165 -270 218 -27 9 -69 35 -94 57 -25 21 -80 56 -122 77 -42 22 -99
59 -126 84 -28 24 -77 62 -110 83 -65 42 -187 141 -295 241 -50 45 -82 66
-120 77 -120 36 -136 -8 -71 -188 16 -45 40 -115 54 -156 13 -41 41 -112 62
-158 87 -195 50 -277 -155 -343 -157 -49 -720 -46 -955 7 -60 13 -188 37 -284
53 -158 26 -182 33 -260 73 -47 25 -114 55 -149 68 -109 40 -310 239 -374 370
-18 36 -51 96 -75 134 -49 76 -62 106 -93 216 -62 214 -250 390 -331 309z"/>
</g>
</svg>
