<svg xmlns="http://www.w3.org/2000/svg" viewBox="0 0 451.281815 449.844509">
<g transform="translate(-8.718185,449.844509) scale(0.100000,-0.100000)" fill="#000000" stroke="none">
<path d="M2160 4487 c-65 -32 -26 -86 243 -342 118 -111 175 -145 248 -145 35
0 47 6 75 35 18 19 44 59 59 89 22 45 26 63 20 98 -14 87 -81 156 -182 188
-32 10 -86 30 -120 44 -94 39 -293 58 -343 33z"/>
<path d="M3318 4089 c-37 -5 -111 -24 -166 -43 -54 -18 -123 -37 -153 -41
-111 -14 -205 -37 -269 -66 -52 -24 -87 -32 -180 -40 -63 -5 -176 -23 -250
-38 -176 -38 -230 -46 -505 -77 -364 -40 -338 -39 -397 -16 -56 23 -220 52
-288 52 -113 0 -138 -65 -74 -188 48 -92 53 -150 43 -473 -6 -207 -13 -284
-28 -354 -12 -49 -28 -160 -36 -245 -9 -85 -22 -218 -30 -295 -10 -95 -23
-164 -40 -215 -15 -41 -35 -126 -46 -188 -11 -68 -31 -142 -49 -183 -17 -38
-39 -109 -50 -158 -10 -49 -32 -116 -49 -148 -16 -33 -37 -88 -46 -124 -9 -35
-34 -89 -54 -120 -21 -32 -43 -77 -49 -102 -7 -24 -27 -67 -46 -94 -19 -28
-42 -76 -51 -106 -9 -30 -29 -74 -46 -97 -16 -22 -42 -65 -57 -93 -41 -80 -74
-131 -213 -332 -23 -33 -54 -73 -70 -90 -41 -45 -43 -80 -3 -95 41 -16 49 -9
259 200 63 63 115 118 115 122 0 4 23 33 50 64 28 31 50 63 50 69 0 7 17 32
38 56 22 24 51 64 67 89 15 25 42 61 60 80 18 19 38 53 45 75 6 22 27 63 46
91 18 27 43 77 54 110 11 32 34 78 50 100 16 23 39 77 51 120 12 44 35 105 50
137 16 32 38 100 49 152 11 52 33 122 50 155 23 45 38 100 56 203 38 217 79
287 206 354 47 24 96 63 148 115 129 130 143 115 141 -157 -2 -216 -16 -329
-61 -497 -21 -79 -30 -136 -30 -190 0 -69 3 -83 39 -150 21 -40 42 -89 46
-108 14 -66 32 -90 68 -90 43 0 71 21 104 78 l28 47 2 560 c1 308 3 583 5 611
3 45 -1 55 -29 88 -38 42 -41 63 -14 97 10 13 27 42 39 64 11 22 30 49 42 60
12 11 42 49 66 85 61 89 106 148 153 196 70 72 67 148 -11 199 -24 17 -61 44
-81 61 -39 35 -99 50 -137 36 -43 -16 -61 -46 -67 -108 -3 -33 -15 -88 -28
-124 -12 -36 -28 -91 -34 -122 -7 -32 -25 -75 -43 -99 -17 -23 -41 -65 -53
-93 -13 -28 -35 -62 -50 -76 -15 -14 -34 -38 -42 -54 -50 -96 -236 -301 -268
-294 -32 6 -41 33 -26 85 47 171 65 283 81 508 23 334 52 470 111 519 31 27
32 27 209 51 63 8 167 28 230 44 122 31 204 46 310 56 36 3 146 17 245 30 300
41 483 54 866 65 201 5 379 13 396 16 65 13 95 67 70 127 -16 37 -105 114
-167 144 -42 20 -246 27 -352 12z"/>
<path d="M3066 3554 c-9 -8 -16 -19 -16 -23 0 -23 66 -105 113 -140 31 -22 59
-46 62 -52 14 -21 193 -99 228 -99 41 0 109 47 145 100 28 41 25 101 -5 132
-19 19 -154 58 -288 84 -100 19 -219 18 -239 -2z"/>
<path d="M2587 3410 c-43 -37 -50 -56 -78 -204 -16 -82 -30 -128 -46 -150 -12
-17 -37 -60 -54 -96 -16 -36 -42 -77 -56 -92 -15 -15 -36 -43 -47 -62 -36 -57
-107 -143 -203 -244 -51 -53 -93 -104 -93 -112 0 -48 65 -54 110 -10 17 17 47
37 67 45 20 9 60 38 89 65 49 47 67 55 104 50 38 -5 42 -23 41 -191 -2 -295
-25 -524 -66 -669 -34 -114 -32 -175 4 -258 16 -37 35 -88 41 -114 15 -57 50
-95 96 -104 57 -11 81 22 109 148 21 94 45 124 106 132 280 32 516 48 834 55
198 4 389 5 424 3 119 -7 180 30 167 101 -9 49 -39 71 -151 112 -133 48 -209
54 -339 26 -54 -12 -107 -26 -117 -31 -27 -15 -82 -12 -106 5 -30 21 -36 64
-24 160 14 112 15 113 189 135 130 16 277 64 298 95 21 33 15 64 -19 89 -25
19 -42 21 -145 21 -78 -1 -144 -7 -196 -19 l-80 -19 -23 27 c-27 32 -31 92 -8
136 17 33 66 53 175 69 108 17 226 50 263 75 37 25 47 68 22 96 -39 43 -175
51 -323 20 -50 -11 -99 -17 -107 -13 -42 15 -60 126 -30 183 9 17 28 33 47 39
148 47 273 80 323 86 82 10 143 37 150 68 21 83 -20 120 -137 126 -101 4 -186
-12 -263 -50 -45 -23 -87 -34 -170 -44 -60 -8 -144 -26 -185 -40 -71 -25 -298
-65 -367 -65 -38 0 -63 22 -63 57 0 18 21 45 75 98 76 75 85 93 64 137 -22 47
-198 158 -250 158 -10 0 -34 -13 -52 -30z m161 -520 c56 -40 119 -53 220 -44
104 8 115 0 137 -101 15 -66 15 -76 1 -103 -19 -36 -47 -48 -161 -63 -49 -6
-102 -18 -117 -25 -36 -19 -45 -55 -22 -93 26 -45 61 -55 159 -47 55 4 93 2
109 -5 56 -26 76 -141 31 -183 -22 -21 -119 -45 -289 -72 -40 -6 -56 -22 -56
-54 0 -78 37 -96 198 -92 119 2 124 1 147 -23 31 -30 32 -70 4 -153 -16 -47
-28 -66 -49 -77 -33 -17 -350 -42 -393 -31 -15 3 -35 18 -44 33 -16 25 -18 59
-18 363 0 240 4 360 14 423 l14 87 -31 61 c-36 70 -39 101 -16 159 29 73 95
89 162 40z"/>
<path d="M3822 1438 c-14 -14 -16 -62 -3 -87 6 -9 42 -44 82 -77 40 -32 122
-104 184 -159 202 -181 235 -209 283 -237 56 -33 81 -35 109 -8 32 29 86 60
106 60 15 0 17 12 17 109 l0 109 -36 12 c-20 7 -63 36 -95 66 -50 46 -105 74
-144 74 -5 0 -50 20 -100 45 -63 31 -112 48 -165 56 -41 6 -97 20 -123 30 -55
22 -98 24 -115 7z"/>
<path d="M2746 1297 c-32 -23 -25 -72 16 -115 41 -43 158 -200 158 -211 0 -4
38 -42 85 -84 91 -82 121 -93 173 -64 31 17 101 104 108 134 20 79 -51 194
-155 248 -32 17 -70 40 -85 52 -47 38 -264 67 -300 40z"/>
<path d="M1352 1153 c-14 -12 -28 -48 -42 -103 -15 -60 -29 -95 -51 -120 -16
-19 -40 -58 -53 -85 -13 -28 -40 -70 -60 -93 -41 -50 -55 -91 -63 -186 -8 -99
12 -203 48 -238 23 -24 36 -28 81 -28 79 0 150 52 200 145 11 22 31 54 43 70
32 42 42 83 56 216 14 127 1 311 -25 374 -26 61 -92 84 -134 48z"/>
<path d="M1982 1138 c-7 -7 -12 -22 -12 -35 0 -30 57 -207 83 -258 11 -22 30
-70 43 -108 13 -38 38 -89 57 -115 19 -26 42 -67 51 -92 10 -24 33 -61 51 -81
18 -21 39 -48 45 -61 7 -12 46 -56 88 -95 104 -99 255 -175 390 -198 103 -17
141 -32 170 -70 l20 -25 415 0 415 0 52 35 c58 39 95 51 221 70 69 10 103 21
145 47 127 76 170 137 140 196 -8 16 -33 51 -54 79 -32 40 -52 54 -101 72 -34
12 -77 36 -95 52 -19 16 -50 36 -69 44 -20 8 -51 28 -70 44 -18 17 -59 47 -90
68 -31 21 -91 70 -134 109 -102 93 -183 121 -183 63 0 -27 51 -179 96 -285 19
-45 34 -96 34 -113 0 -48 -43 -85 -128 -111 -67 -20 -87 -22 -304 -18 -171 3
-250 9 -298 21 -36 9 -111 23 -166 31 -78 12 -121 25 -185 56 -46 22 -89 40
-96 40 -8 0 -51 36 -97 80 -61 59 -94 101 -122 153 -20 40 -46 84 -57 98 -10
15 -27 57 -38 94 -41 149 -162 268 -217 213z"/>
</g>
</svg>
