<svg xmlns="http://www.w3.org/2000/svg" viewBox="0 0 754.734896 655.412901">
<g transform="translate(-13.265104,672.000000) scale(0.100000,-0.100000)" fill="#000000" stroke="none">
<path d="M2037 6683 c-9 -21 -30 -62 -47 -92 -48 -85 -43 -128 27 -219 46 -61
50 -73 75 -226 31 -201 34 -412 9 -771 -42 -603 -56 -740 -106 -995 -14 -69
-34 -194 -45 -279 -27 -210 -57 -253 -178 -265 -145 -14 -229 -29 -363 -62
-309 -76 -731 -112 -1094 -94 -98 4 -138 -8 -169 -52 -42 -60 21 -181 135
-258 32 -23 87 -65 120 -95 67 -60 131 -89 240 -107 113 -20 374 39 499 111
86 50 105 57 240 86 88 20 129 34 181 65 106 65 201 80 252 40 40 -31 41 -61
7 -146 -16 -41 -39 -128 -50 -192 -12 -66 -45 -188 -75 -279 -96 -283 -93
-287 350 -683 365 -326 378 -349 271 -475 -24 -27 -58 -79 -76 -115 -18 -36
-54 -87 -79 -115 -26 -27 -64 -75 -83 -107 -56 -87 -323 -367 -398 -418 -19
-13 -56 -43 -81 -66 -26 -23 -75 -57 -110 -75 -35 -17 -89 -49 -120 -69 -70
-48 -108 -64 -206 -85 -135 -30 -188 -73 -175 -141 18 -94 178 -106 451 -33
64 17 132 35 152 40 20 5 67 29 104 54 38 24 98 56 135 70 42 16 90 46 131 80
35 30 93 70 129 90 51 28 92 65 190 171 69 75 150 164 182 198 34 36 71 92 92
138 43 90 82 118 139 99 40 -14 143 -117 190 -191 19 -30 55 -77 79 -105 25
-27 62 -77 82 -110 118 -188 271 -273 386 -213 70 36 93 86 98 219 7 173 -21
287 -93 374 -18 23 -50 69 -69 101 -36 59 -207 241 -283 301 -53 42 -86 110
-86 177 1 63 66 242 122 330 45 73 54 99 81 236 15 77 35 136 75 220 63 135
59 124 85 270 14 77 37 154 69 235 58 145 63 167 100 418 31 207 42 240 87
257 40 16 49 13 102 -32 74 -63 334 -159 447 -165 85 -5 100 -2 265 65 46 19
133 40 225 56 83 15 190 40 238 57 73 26 100 30 149 27 105 -8 125 -59 98
-248 -5 -36 -16 -141 -25 -235 -18 -196 -34 -304 -74 -500 -16 -77 -32 -167
-36 -200 -15 -139 -58 -177 -224 -200 -61 -9 -150 -27 -197 -40 -112 -33 -165
-32 -250 4 -205 87 -348 85 -391 -3 -15 -33 -15 -35 30 -132 110 -240 166
-482 197 -854 15 -175 46 -383 80 -535 16 -71 40 -224 55 -338 30 -239 36
-258 105 -367 62 -96 99 -125 155 -124 79 2 122 56 145 185 22 126 76 188 185
218 144 38 687 71 1420 86 336 7 397 14 432 47 49 46 12 147 -92 247 -92 89
-99 145 -31 256 20 33 54 117 76 187 27 83 52 143 75 175 63 87 81 117 105
177 13 34 50 91 83 130 33 39 68 88 78 109 11 20 48 67 83 105 99 105 132 190
100 257 -26 56 -164 172 -253 212 -42 20 -101 54 -131 78 -67 51 -95 66 -185
95 -38 13 -103 36 -143 51 -99 39 -137 38 -243 -12 -89 -40 -89 -40 -296 -55
-115 -8 -247 -21 -294 -29 -247 -43 -281 -3 -244 284 29 216 46 307 85 444 47
165 67 263 79 385 20 197 44 209 476 241 645 49 744 54 1026 52 285 -1 285 -1
403 59 65 33 130 60 147 60 29 0 29 0 29 74 0 69 -2 74 -23 80 -12 3 -60 30
-106 60 -60 39 -106 61 -165 76 -44 12 -115 37 -156 55 -208 90 -511 87 -800
-9 -74 -24 -171 -49 -215 -56 -156 -22 -201 -32 -267 -61 -182 -80 -228 0
-178 311 11 69 33 166 50 215 42 129 66 228 85 346 36 236 48 288 87 389 22
58 53 163 69 234 23 103 37 143 70 199 74 124 65 175 -45 272 -111 98 -163
132 -242 159 -128 43 -194 96 -194 155 0 8 -50 11 -160 11 -159 0 -160 0 -160
-22 0 -13 -9 -57 -20 -98 -31 -117 -27 -151 25 -255 108 -216 119 -788 25
-1205 -43 -189 -80 -463 -80 -592 0 -151 -37 -220 -137 -258 -144 -54 -418
-113 -653 -140 -96 -12 -218 -30 -270 -40 -52 -11 -133 -27 -180 -36 -47 -9
-121 -30 -165 -47 -115 -45 -175 -44 -189 2 -14 48 7 134 47 195 71 108 71
152 1 266 -59 95 -84 122 -164 175 -36 23 -76 54 -90 70 -45 49 -95 68 -172
63 -111 -6 -147 -62 -128 -203 15 -108 7 -333 -14 -372 -45 -88 -113 -119
-416 -189 -348 -80 -418 -49 -371 159 11 51 25 128 31 172 13 99 21 128 76
292 29 87 53 185 69 285 28 168 47 245 93 358 39 99 47 129 75 295 25 146 40
188 107 294 61 98 85 211 60 285 -15 47 -142 173 -225 224 -33 20 -87 58 -119
84 -41 33 -84 56 -137 73 -96 32 -151 71 -175 124 -19 40 -19 40 -100 41 -81
0 -81 0 -97 -37z m1003 -2868 c53 -27 65 -91 34 -176 -8 -24 -22 -91 -30 -149
-18 -131 -34 -187 -91 -320 -25 -58 -52 -139 -60 -180 -31 -164 -48 -220 -98
-330 -29 -63 -60 -146 -69 -185 -53 -222 -191 -285 -341 -156 -34 29 -88 60
-135 80 -66 27 -89 43 -142 99 -111 118 -126 177 -83 317 14 44 37 143 51 220
14 77 42 183 61 235 19 52 52 148 73 213 57 175 68 186 220 207 95 14 267 63
380 109 86 35 181 41 230 16z m3104 -1394 c119 -29 136 -115 101 -517 -23
-268 -40 -377 -75 -489 -11 -33 -36 -125 -56 -205 -53 -216 -77 -242 -239
-255 -111 -9 -459 -52 -650 -80 -88 -13 -194 -26 -235 -30 -41 -4 -106 -14
-143 -22 -81 -18 -125 -12 -166 23 -40 33 -46 74 -61 364 -10 211 -21 353 -50
665 -5 55 -19 127 -31 160 -44 124 -1 181 177 234 246 73 453 112 704 131 74
6 169 15 210 20 41 6 93 12 115 14 64 7 356 -3 399 -13z"/>
</g>
</svg>
