<svg xmlns="http://www.w3.org/2000/svg" viewBox="0 0 471.690666 409.964181">
<g transform="translate(-8.258037,420.000000) scale(0.100000,-0.100000)" fill="#000000" stroke="none">
<path d="M1253 4141 c-18 -33 -33 -71 -33 -84 0 -14 15 -44 34 -66 19 -23 37
-53 40 -68 34 -174 37 -333 13 -668 -19 -259 -32 -378 -53 -480 -8 -38 -23
-128 -34 -200 -23 -159 -32 -170 -137 -179 -37 -4 -126 -20 -198 -36 -226 -50
-317 -60 -568 -61 -189 0 -223 -6 -233 -45 -8 -33 23 -91 69 -127 22 -18 59
-49 83 -70 54 -48 128 -77 199 -77 80 0 219 36 289 74 35 20 89 39 126 46 37
7 91 26 126 45 126 70 216 37 166 -61 -11 -22 -29 -86 -40 -144 -12 -58 -33
-134 -47 -169 -34 -87 -33 -146 3 -199 15 -22 115 -120 222 -217 107 -98 198
-183 202 -189 16 -24 7 -58 -27 -94 -19 -21 -43 -58 -53 -83 -11 -24 -32 -55
-47 -69 -15 -14 -42 -47 -60 -75 -33 -51 -197 -221 -276 -286 -24 -20 -64 -46
-89 -59 -25 -12 -64 -36 -87 -51 -23 -16 -72 -36 -110 -45 -37 -8 -78 -22 -90
-29 -48 -32 -37 -88 21 -104 75 -20 305 28 396 84 31 18 68 37 84 41 16 4 52
26 81 50 29 23 69 51 88 61 50 26 251 247 281 310 45 92 89 92 163 0 76 -94
112 -141 146 -192 48 -71 118 -132 160 -140 20 -4 52 -2 72 5 53 18 69 56 69
165 0 113 -14 161 -64 221 -22 27 -40 53 -40 59 -1 11 -139 156 -182 191 -15
12 -32 40 -39 64 -12 39 -11 49 16 123 15 44 43 104 60 133 22 36 36 77 44
129 8 50 25 99 48 142 23 45 41 98 53 164 10 54 32 129 49 167 22 50 36 109
53 227 22 148 25 160 51 179 l27 20 33 -31 c40 -39 239 -113 304 -113 26 0 72
12 113 29 38 17 111 37 162 46 51 9 130 28 174 42 72 23 85 25 113 13 42 -17
46 -40 32 -173 -7 -62 -17 -155 -22 -207 -6 -52 -21 -147 -34 -210 -13 -63
-26 -136 -30 -163 -10 -73 -36 -96 -120 -107 -38 -5 -105 -19 -148 -31 l-78
-22 -67 26 c-85 34 -155 49 -190 41 -62 -15 -78 -60 -42 -119 54 -87 104 -296
125 -525 9 -96 29 -242 46 -324 17 -81 37 -202 44 -268 13 -106 18 -125 50
-178 20 -33 48 -69 62 -80 59 -46 114 -10 133 88 16 78 42 119 86 138 69 29
412 51 1034 67 123 3 162 12 173 40 9 24 -32 101 -78 143 -56 52 -58 80 -10
172 20 37 42 93 51 125 9 32 31 77 49 101 18 24 42 64 54 90 11 26 35 66 54
89 18 23 45 61 60 85 16 24 35 46 43 49 25 9 64 87 64 127 0 33 -7 45 -52 88
-29 27 -77 61 -106 74 -30 14 -71 38 -91 55 -34 27 -133 68 -244 102 -33 10
-43 8 -95 -17 -51 -25 -76 -30 -227 -42 -93 -7 -186 -18 -205 -23 -69 -21
-110 10 -110 83 1 84 28 263 54 355 34 119 46 173 56 265 10 86 19 103 67 122
48 20 555 57 823 59 l235 2 68 37 c38 20 77 36 88 36 16 0 19 7 18 43 0 40 -2
43 -61 81 -34 22 -82 46 -107 54 -25 7 -64 20 -86 29 -22 8 -58 22 -80 31 -29
11 -78 15 -180 15 -134 0 -145 -1 -250 -36 -60 -20 -145 -41 -188 -46 -43 -6
-100 -20 -127 -32 -63 -27 -101 -23 -119 15 -19 40 0 195 40 325 33 105 42
145 63 290 8 53 27 125 42 161 15 36 35 103 45 150 11 46 30 101 44 122 16 24
25 52 25 77 0 38 -5 45 -74 104 -44 37 -93 69 -118 77 -77 24 -115 48 -128 79
l-12 31 -97 0 -97 0 -18 -81 -18 -81 31 -62 c39 -75 61 -203 61 -361 0 -122
-22 -337 -44 -424 -21 -82 -35 -187 -42 -309 -7 -118 -21 -163 -56 -186 -41
-27 -286 -84 -433 -100 -156 -18 -280 -44 -402 -83 -45 -14 -89 -23 -99 -19
-27 10 -14 94 24 154 18 27 32 61 32 76 0 39 -75 152 -119 178 -20 11 -53 37
-73 56 -31 29 -47 36 -90 40 -43 3 -58 0 -78 -16 -25 -20 -25 -21 -22 -170 4
-181 -2 -198 -80 -236 -62 -29 -270 -78 -344 -80 -71 -2 -87 14 -81 78 9 110
37 245 67 325 16 46 39 136 49 200 10 65 30 146 45 182 28 71 56 172 56 204 0
43 32 140 56 172 34 45 54 106 54 165 0 46 -3 52 -52 100 -29 28 -71 62 -93
76 -22 15 -54 38 -72 53 -17 15 -55 35 -85 44 -55 18 -103 55 -114 87 -4 14
-16 18 -57 18 l-52 0 -32 -59z m636 -1752 c41 -15 48 -45 27 -129 -9 -37 -16
-81 -16 -96 0 -40 -17 -97 -51 -177 -17 -37 -39 -111 -51 -165 -11 -53 -33
-122 -49 -153 -15 -31 -33 -79 -40 -105 -16 -65 -44 -119 -71 -138 -12 -9 -42
-16 -65 -16 -35 0 -50 7 -81 35 -21 19 -61 44 -88 55 -59 26 -87 50 -125 109
-32 50 -36 89 -14 150 8 23 23 88 34 144 10 57 30 130 43 163 14 32 34 92 47
131 25 84 41 98 121 108 54 7 152 35 260 74 64 24 76 25 119 10z m1992 -895
c33 -33 37 -87 23 -277 -15 -208 -17 -222 -55 -357 -15 -58 -35 -130 -43 -161
-24 -85 -31 -89 -218 -110 -90 -10 -228 -28 -308 -39 -80 -11 -182 -26 -226
-32 -92 -12 -129 -7 -144 22 -6 11 -15 104 -21 207 -15 283 -36 482 -56 535
-17 47 -17 48 3 75 12 16 43 36 70 46 95 36 280 77 394 88 63 6 144 14 180 19
36 5 136 8 222 7 146 -2 159 -4 179 -23z"/>
</g>
</svg>
