<svg xmlns="http://www.w3.org/2000/svg" viewBox="0 0 753.930800 655.000000">
<g transform="translate(-16.273810,672.000000) scale(0.100000,-0.100000)" fill="#000000" stroke="none">
<path d="M1915 6498 c10 -324 -4 -413 -99 -639 -20 -47 -45 -128 -55 -180 -24
-117 -31 -134 -80 -211 -22 -33 -55 -104 -72 -157 -36 -109 -53 -145 -101
-216 -19 -28 -44 -85 -57 -125 -34 -112 -41 -127 -87 -190 -50 -69 -66 -97
-89 -168 -9 -30 -40 -83 -68 -120 -28 -36 -64 -98 -80 -137 -31 -73 -52 -108
-99 -163 -15 -18 -44 -65 -64 -105 -19 -40 -55 -92 -79 -117 -23 -25 -57 -74
-75 -108 -17 -35 -48 -82 -69 -105 -21 -23 -60 -76 -86 -117 -26 -41 -69 -100
-95 -130 -25 -30 -71 -89 -102 -130 -30 -41 -68 -86 -83 -100 -15 -14 -60 -67
-99 -119 -39 -52 -79 -105 -89 -117 -50 -64 -18 -144 57 -144 30 0 43 8 83 51
27 28 73 68 103 89 30 21 71 55 90 75 19 20 69 64 112 96 42 32 86 71 98 86
11 16 47 51 80 78 56 48 200 198 376 391 120 133 213 251 254 324 64 115 180
146 222 60 58 -118 42 -877 -32 -1540 -5 -47 -17 -186 -25 -310 -18 -265 -35
-392 -74 -555 -49 -203 -68 -311 -85 -485 -3 -30 -15 -138 -27 -238 -30 -268
1 -446 101 -576 27 -35 63 -94 80 -132 50 -112 92 -144 186 -144 77 0 113 36
144 141 12 41 33 109 46 152 58 188 65 429 78 2508 4 669 7 752 26 918 23 198
19 281 -19 365 -19 41 -154 205 -197 239 -77 60 -82 143 -15 238 23 33 57 95
75 138 18 44 54 106 79 138 27 34 59 92 77 141 18 45 51 108 75 140 51 69 66
97 94 182 11 36 44 98 71 138 33 48 58 101 75 156 15 48 39 102 58 126 17 24
42 57 55 74 55 74 96 169 96 226 1 116 -110 272 -266 376 -76 51 -104 81 -113
124 -7 30 -7 30 -162 30 -155 0 -155 0 -148 -222z"/>
<path d="M6110 6564 c-136 -53 -153 -93 -94 -213 51 -103 52 -109 70 -355 27
-379 -4 -995 -72 -1416 -34 -214 -63 -245 -255 -275 -104 -16 -170 -33 -396
-99 -66 -19 -156 -38 -200 -42 -43 -3 -118 -15 -168 -25 -119 -25 -139 -25
-164 7 -26 33 -28 126 -5 205 38 127 -1 233 -132 360 -174 168 -317 185 -352
43 -6 -21 -10 -136 -10 -255 -1 -313 0 -312 -220 -360 -78 -17 -169 -45 -213
-64 -124 -56 -207 -38 -223 49 -17 91 24 329 98 571 20 66 48 189 61 275 28
174 36 207 93 372 22 64 50 167 61 228 20 114 32 145 92 239 46 73 48 147 7
207 -74 104 -138 177 -193 215 -33 23 -83 63 -110 89 -66 61 -267 160 -326
160 -52 0 -91 -28 -118 -83 -26 -54 -26 -79 0 -153 30 -88 77 -291 91 -396 15
-112 14 -527 -1 -648 -31 -254 -41 -354 -56 -540 -8 -113 -22 -288 -30 -390
-29 -370 -53 -389 -575 -450 -97 -11 -231 -20 -298 -20 -139 0 -171 -10 -198
-62 -37 -71 -14 -164 52 -215 20 -15 66 -52 103 -80 157 -125 349 -119 511 17
145 121 270 99 270 -48 0 -47 -22 -130 -95 -362 -62 -196 -81 -374 -49 -479
14 -47 35 -73 216 -259 110 -114 216 -227 236 -252 20 -25 57 -68 83 -96 87
-94 88 -169 4 -262 -25 -28 -62 -85 -81 -127 -19 -42 -57 -100 -84 -130 -27
-30 -63 -82 -80 -117 -17 -35 -48 -81 -69 -103 -21 -22 -55 -65 -76 -95 -95
-137 -347 -379 -488 -470 -105 -68 -137 -110 -137 -180 0 -59 38 -62 188 -17
138 42 254 114 504 312 100 79 324 303 386 385 30 41 72 94 93 117 21 22 46
58 57 80 58 113 154 117 209 8 8 -16 35 -56 60 -87 24 -32 60 -92 79 -135 20
-43 52 -98 72 -122 21 -25 53 -74 73 -110 62 -115 155 -148 262 -94 47 24 70
90 75 219 8 200 -18 315 -91 402 -21 24 -55 79 -77 121 -37 71 -65 106 -218
280 -118 134 -124 200 -25 329 46 60 50 72 84 236 19 94 44 175 74 248 44 103
62 174 99 385 9 51 34 136 56 190 51 127 64 185 95 428 31 238 40 278 72 316
36 42 83 40 148 -7 118 -85 245 -121 394 -111 102 7 139 17 337 91 184 68 244
74 295 28 40 -36 47 -90 26 -209 -9 -48 -18 -117 -22 -153 -4 -36 -22 -141
-40 -235 -38 -190 -49 -264 -71 -474 -30 -292 -30 -292 -316 -337 -169 -26
-247 -18 -361 39 -114 57 -167 62 -216 21 -63 -53 -61 -119 9 -234 47 -78 56
-104 65 -197 12 -117 33 -253 64 -404 17 -80 35 -185 40 -235 22 -187 50 -483
56 -579 13 -216 36 -308 121 -477 91 -182 159 -177 222 19 38 116 61 156 104
183 93 57 412 88 1003 100 485 9 502 11 540 46 43 39 44 36 -110 258 -66 94
-70 124 -24 204 17 31 41 96 54 146 30 121 31 122 82 188 24 31 59 95 79 142
22 53 53 105 83 139 26 30 60 76 76 103 15 27 52 75 82 106 151 160 109 292
-138 431 -35 19 -90 58 -122 85 -32 28 -80 58 -105 67 -26 10 -85 37 -131 61
-111 57 -155 59 -257 8 -130 -64 -380 -84 -470 -37 -65 33 -73 72 -41 191 26
96 41 202 72 519 40 405 100 575 227 637 71 35 212 45 703 52 419 6 450 9 495
61 76 86 10 225 -134 280 -39 14 -98 41 -131 59 -141 77 -370 85 -528 19 -73
-30 -314 -95 -354 -95 -75 0 -115 31 -128 101 -8 46 37 304 80 454 49 173 63
236 84 398 23 170 36 224 101 417 118 349 99 439 -117 569 -37 23 -89 57 -116
76 -84 60 -256 103 -317 79z m-1857 -2726 c34 -45 33 -112 -1 -214 -43 -123
-69 -235 -92 -399 -16 -107 -33 -178 -75 -300 -30 -90 -63 -210 -74 -275 -48
-270 -143 -392 -259 -332 -118 61 -343 247 -372 307 -37 76 -20 204 60 443 29
87 59 206 74 292 37 205 48 234 117 302 95 93 184 133 409 183 136 31 186 29
213 -7z m2282 -1403 c167 -32 194 -82 175 -326 -12 -170 -32 -283 -66 -380
-35 -99 -60 -213 -79 -353 -29 -210 -57 -239 -255 -270 -114 -18 -261 -44
-468 -83 -188 -35 -289 -31 -333 14 -37 36 -35 25 -64 498 -8 138 -20 309 -27
380 -20 218 -18 266 17 317 58 83 245 144 530 172 88 9 194 22 235 30 101 19
242 19 335 1z"/>
</g>
</svg>
