<svg xmlns="http://www.w3.org/2000/svg" viewBox="0 0 470.903110 409.879645">
<g transform="translate(-10.000000,420.001092) scale(0.100000,-0.100000)" fill="#000000" stroke="none">
<path d="M1198 4065 c5 -171 -9 -276 -48 -365 -17 -38 -38 -102 -47 -142 -16
-72 -44 -141 -62 -152 -5 -4 -22 -43 -37 -89 -15 -45 -39 -100 -54 -122 -16
-22 -38 -71 -50 -108 -12 -37 -33 -81 -46 -97 -14 -16 -37 -57 -51 -92 -14
-34 -36 -76 -50 -93 -15 -16 -38 -57 -53 -90 -15 -33 -38 -73 -52 -90 -14 -16
-37 -54 -52 -83 -15 -29 -33 -55 -40 -58 -8 -3 -28 -31 -45 -63 -17 -32 -38
-65 -48 -72 -9 -8 -32 -39 -52 -69 -38 -60 -91 -129 -176 -230 -112 -132 -135
-165 -135 -190 0 -61 64 -69 106 -14 15 19 39 41 53 48 14 8 48 35 76 60 27
25 88 81 135 123 89 81 310 315 370 392 19 25 46 65 60 90 19 35 34 49 62 58
80 26 89 3 96 -248 4 -194 0 -277 -38 -729 -34 -403 -39 -452 -65 -555 -34
-136 -75 -442 -75 -560 0 -90 27 -190 65 -240 19 -24 45 -68 60 -98 34 -74 90
-102 148 -76 30 14 42 33 61 105 9 32 23 84 32 114 22 75 31 397 38 1310 3
404 10 760 15 790 14 83 13 163 -4 210 -9 25 -47 78 -95 131 -52 58 -80 98
-80 113 0 12 14 42 30 65 17 23 42 66 55 97 14 31 36 69 49 85 13 16 34 54 45
85 12 30 35 72 51 92 16 21 38 62 49 93 10 31 35 80 54 107 19 28 40 73 47
101 7 28 25 65 44 88 43 50 86 135 86 170 0 69 -97 197 -187 249 -18 10 -40
33 -48 51 l-16 33 -92 0 -92 0 3 -135z"/>
<path d="M3810 4098 c-75 -21 -88 -63 -44 -141 22 -40 26 -65 36 -202 20 -283
-20 -879 -67 -991 -19 -45 -49 -62 -134 -74 -40 -5 -127 -26 -194 -45 -67 -20
-149 -38 -182 -41 -33 -4 -86 -13 -118 -20 -41 -11 -63 -12 -77 -4 -29 15 -34
68 -15 138 16 57 16 63 0 113 -31 93 -158 199 -238 199 -57 0 -61 -14 -67
-206 -6 -210 -4 -206 -136 -235 -49 -11 -112 -31 -141 -45 -62 -29 -83 -30
-114 -5 -22 17 -24 26 -21 88 3 91 17 165 52 279 17 53 39 148 49 213 11 64
33 153 50 197 16 44 36 116 44 161 9 45 24 95 34 113 63 109 65 121 31 168
-70 94 -86 112 -113 128 -16 10 -48 34 -70 55 -49 45 -174 109 -213 109 -66 0
-99 -62 -75 -140 48 -158 56 -215 61 -412 3 -143 0 -228 -12 -315 -8 -65 -20
-185 -26 -268 -32 -437 -31 -432 -120 -477 -47 -23 -83 -30 -240 -47 -102 -11
-208 -17 -237 -14 -46 5 -54 3 -77 -20 -30 -30 -35 -89 -11 -124 19 -27 129
-111 162 -124 72 -27 202 -1 248 51 47 53 131 68 159 28 24 -34 20 -62 -28
-222 -54 -177 -69 -270 -54 -340 10 -45 22 -63 125 -168 229 -237 253 -267
253 -315 0 -30 -7 -46 -29 -68 -17 -15 -42 -53 -56 -84 -15 -31 -39 -69 -55
-86 -15 -16 -37 -49 -49 -71 -11 -23 -26 -48 -34 -55 -7 -8 -32 -39 -54 -70
-57 -77 -220 -239 -280 -277 -85 -55 -95 -64 -110 -99 -18 -45 -11 -63 24 -63
48 0 154 38 207 73 28 18 67 44 87 58 136 90 399 355 446 450 19 38 56 63 82
54 11 -3 30 -23 42 -43 13 -20 34 -50 47 -66 13 -17 35 -55 49 -85 13 -31 35
-67 47 -81 13 -14 33 -44 45 -67 12 -23 30 -47 40 -53 25 -13 97 -13 120 0 31
16 46 70 46 160 0 128 -11 173 -51 222 -20 23 -46 63 -60 89 -13 26 -59 88
-103 138 -44 49 -82 103 -85 119 -8 36 5 72 44 121 24 29 34 58 49 137 11 54
33 128 49 164 16 36 35 97 41 135 21 120 33 168 57 227 31 74 40 119 59 277
17 145 34 200 62 202 33 2 45 -2 85 -31 105 -77 250 -80 432 -11 60 22 126 41
147 41 65 0 88 -42 71 -132 -6 -29 -13 -78 -17 -108 -3 -30 -17 -109 -30 -175
-13 -66 -30 -181 -39 -256 -8 -75 -21 -148 -27 -163 -19 -42 -129 -70 -275
-71 -49 0 -72 6 -122 33 -73 37 -99 40 -136 11 -38 -30 -36 -87 5 -144 27 -37
33 -58 45 -156 8 -63 23 -154 34 -204 23 -103 45 -285 60 -495 12 -166 26
-223 80 -331 60 -119 100 -113 140 22 13 43 31 80 47 95 49 45 210 63 637 72
l328 7 19 24 c22 27 26 18 -63 147 -27 38 -48 77 -48 87 0 10 11 37 24 60 13
23 29 68 36 99 7 37 23 73 46 103 20 25 42 65 50 89 8 24 35 67 59 95 25 29
45 57 45 62 0 5 22 33 49 63 58 64 73 112 46 152 -24 37 -73 80 -125 111 -25
15 -61 41 -81 59 -20 17 -54 37 -75 44 -22 7 -62 26 -90 41 -28 16 -58 29 -68
29 -9 0 -47 -14 -83 -32 -61 -29 -73 -31 -175 -32 -109 -1 -110 -1 -135 28
-17 20 -23 36 -18 50 26 90 36 152 50 296 33 350 74 463 175 490 36 10 473 28
612 26 68 -1 79 2 102 23 46 43 26 139 -35 167 -13 7 -60 29 -104 50 -71 34
-90 39 -170 42 -71 3 -104 -1 -155 -18 -214 -69 -256 -78 -290 -60 -46 25 -38
151 24 365 14 50 35 149 45 220 13 88 33 170 62 255 33 96 43 140 43 192 1 82
-13 104 -110 171 -128 88 -212 116 -284 95z m-1152 -1690 c18 -18 14 -107 -7
-163 -20 -52 -45 -171 -57 -265 -3 -30 -22 -97 -40 -148 -18 -51 -41 -134 -49
-184 -24 -134 -69 -208 -128 -208 -34 0 -131 66 -218 149 -55 53 -59 60 -59
101 0 54 22 151 55 242 13 37 31 109 40 160 22 131 38 170 90 213 54 44 93 61
210 90 103 27 146 30 163 13z m1442 -889 c54 -12 88 -41 95 -83 12 -61 -13
-257 -45 -361 -17 -55 -38 -146 -46 -203 -22 -156 -25 -159 -219 -191 -66 -12
-175 -30 -242 -42 -136 -24 -185 -20 -207 14 -9 14 -18 82 -25 197 -7 96 -17
238 -23 315 -6 77 -11 155 -10 173 3 96 91 133 422 175 132 17 242 20 300 6z"/>
</g>
</svg>
