<svg xmlns="http://www.w3.org/2000/svg" viewBox="0 0 826.207831 724.851498">
<g transform="translate(0.875110,724.845837) scale(0.100000,-0.100000)" fill="#000000" stroke="none">
<path d="M6146 7240 c-130 -41 -151 -151 -81 -424 91 -355 110 -622 102 -1451
-7 -766 14 -722 -367 -786 -96 -16 -251 -49 -345 -74 -226 -59 -294 -73 -455
-90 -227 -25 -261 -45 -220 -130 83 -171 417 -255 670 -167 504 174 711 108
645 -206 -17 -83 -26 -194 -60 -717 -35 -552 -39 -559 -302 -585 -54 -6 -129
-14 -168 -20 -102 -13 -190 2 -304 54 -252 114 -360 7 -266 -264 28 -79 100
-381 140 -585 26 -134 50 -346 65 -595 29 -459 66 -693 145 -917 24 -67 49
-158 56 -203 12 -80 12 -80 115 -80 102 0 102 0 109 68 18 204 72 291 208 336
147 49 751 103 1402 125 254 8 279 14 315 74 42 69 24 131 -65 217 -125 121
-114 317 31 535 19 28 54 102 78 163 32 81 62 136 109 200 35 48 81 116 103
152 21 36 69 97 105 137 200 216 162 359 -161 601 -52 40 -123 94 -157 121
-129 103 -288 129 -523 87 -542 -96 -676 -38 -605 260 25 106 84 599 105 873
25 330 75 408 276 430 169 19 490 32 854 35 414 3 430 6 496 72 119 118 52
243 -196 369 -277 140 -469 146 -830 25 -494 -166 -585 -117 -527 280 16 110
20 141 67 510 36 287 36 290 60 570 15 179 27 265 51 360 35 142 35 206 0 286
-83 186 -506 408 -675 354z m767 -4824 c200 -47 227 -152 146 -571 -16 -82
-40 -233 -54 -335 -54 -393 -66 -430 -176 -540 -105 -105 -215 -135 -619 -170
-69 -6 -154 -15 -190 -20 -220 -32 -322 8 -360 141 -17 58 -58 629 -77 1065
-9 204 25 269 165 318 214 75 1000 151 1165 112z"/>
<path d="M3071 7138 c-100 -67 -101 -181 -4 -440 108 -291 110 -722 9 -1503
-33 -250 -53 -446 -70 -687 -21 -296 -40 -322 -288 -402 -251 -80 -456 -116
-664 -116 -252 0 -290 -84 -134 -295 53 -71 62 -77 215 -126 175 -57 193 -56
343 15 302 142 374 129 359 -62 -9 -121 -73 -438 -114 -569 -89 -283 -57 -373
247 -683 471 -481 500 -550 325 -760 -25 -30 -66 -95 -92 -145 -25 -49 -72
-122 -103 -161 -32 -40 -72 -97 -89 -128 -18 -31 -54 -80 -80 -108 -26 -29
-74 -87 -106 -128 -98 -125 -312 -336 -408 -402 -86 -60 -131 -106 -176 -181
-13 -20 -49 -57 -81 -82 -70 -54 -99 -92 -107 -140 -6 -35 -6 -35 110 -35 126
0 118 -4 132 66 11 57 47 80 203 130 118 37 130 44 299 160 196 136 449 368
581 534 42 52 94 115 117 140 22 25 55 71 73 102 118 206 254 125 440 -262
117 -244 261 -373 379 -340 202 57 259 390 106 629 -19 30 -57 100 -83 155
-29 61 -72 129 -107 171 -32 39 -81 99 -108 135 -27 36 -75 93 -106 127 -118
127 -117 207 4 443 66 127 71 143 117 385 13 70 41 160 75 245 68 171 79 211
110 400 14 85 44 215 66 288 54 180 84 311 108 477 27 177 51 257 100 331 31
47 41 74 49 135 7 42 24 114 38 160 52 162 33 260 -74 374 -31 34 -82 91 -113
126 -98 113 -230 163 -303 116 -59 -39 -71 -92 -68 -287 6 -418 -33 -483 -325
-541 -59 -11 -146 -34 -192 -50 -240 -83 -325 38 -242 341 82 296 133 517 156
675 31 211 50 293 106 447 22 62 58 187 80 278 29 121 52 189 85 256 56 114
61 144 36 210 -27 72 -115 196 -170 241 -26 21 -78 67 -117 103 -38 37 -92 79
-120 95 -27 16 -94 58 -149 94 -119 79 -208 95 -275 49z m998 -3065 c54 -41
51 -131 -9 -363 -16 -63 -41 -191 -55 -285 -26 -168 -35 -199 -133 -475 -17
-47 -45 -155 -63 -240 -89 -436 -207 -511 -480 -305 -285 214 -321 315 -220
630 33 103 64 228 86 350 80 440 155 551 418 615 72 18 148 39 167 47 124 52
239 62 289 26z"/>
<path d="M713 6806 c-101 -46 -84 -129 56 -287 47 -53 130 -147 184 -208 535
-602 754 -663 945 -263 68 142 54 211 -79 389 -77 104 -105 124 -257 183 -54
21 -135 56 -178 78 -162 81 -581 149 -671 108z"/>
<path d="M52 4983 c-76 -6 -83 -162 -7 -183 60 -17 116 -67 177 -159 28 -42
72 -103 97 -136 26 -33 68 -91 95 -129 113 -164 292 -344 371 -375 194 -76
370 -13 423 150 101 307 -28 544 -362 669 -56 21 -138 54 -182 74 -176 78
-385 108 -612 89z"/>
<path d="M1688 3442 c-42 -28 -67 -65 -108 -167 -21 -53 -60 -125 -85 -162
-25 -36 -67 -106 -92 -157 -25 -50 -70 -128 -99 -174 -30 -46 -73 -120 -95
-165 -23 -45 -70 -124 -106 -175 -35 -51 -79 -125 -97 -165 -18 -40 -60 -108
-93 -152 -33 -44 -79 -118 -103 -164 -24 -46 -72 -119 -106 -163 -35 -43 -85
-115 -111 -160 -32 -54 -76 -108 -132 -162 -335 -321 -348 -355 -267 -672 43
-168 71 -239 127 -320 15 -22 46 -79 68 -126 134 -281 354 -252 429 57 19 77
53 174 88 253 42 95 65 166 91 282 35 153 56 217 127 377 24 52 49 139 71 240
41 188 48 209 113 338 38 74 59 134 82 230 24 97 48 164 96 265 35 74 88 209
118 300 29 91 84 228 120 305 98 204 133 372 90 433 -19 28 -86 30 -126 4z"/>
</g>
</svg>
