<svg xmlns="http://www.w3.org/2000/svg" viewBox="0 0 660.141321 579.799227">
<g transform="translate(-0.000000,579.799227) scale(0.100000,-0.100000)" fill="#000000" stroke="none">
<path d="M4887 5779 c-42 -22 -76 -82 -77 -134 0 -17 22 -119 49 -227 49 -192
50 -201 67 -464 19 -309 15 -1103 -6 -1159 -29 -76 -83 -103 -265 -130 -60 -9
-164 -30 -230 -47 -249 -63 -319 -77 -434 -87 -167 -14 -197 -32 -168 -103 31
-73 104 -117 251 -150 113 -25 178 -20 305 22 200 66 376 87 447 54 63 -30 79
-104 50 -223 -16 -63 -18 -91 -46 -541 -30 -492 -25 -480 -239 -503 -218 -24
-294 -18 -391 31 -89 44 -150 54 -180 29 -54 -42 -65 -122 -29 -223 21 -60 70
-265 114 -473 24 -111 42 -288 65 -616 21 -302 52 -473 109 -619 17 -42 35
-107 39 -144 7 -67 7 -67 93 -70 86 -3 86 -3 92 71 14 196 71 246 317 281 229
32 686 64 1006 70 195 4 234 23 237 112 1 45 -16 73 -70 114 -70 53 -87 100
-73 198 15 98 38 158 84 221 21 28 51 87 67 132 38 103 43 114 88 169 21 25
55 74 75 110 21 36 66 95 101 131 87 93 118 196 81 267 -20 37 -150 162 -211
202 -27 19 -76 57 -108 86 -101 93 -255 125 -426 89 -108 -23 -351 -45 -396
-36 -103 20 -136 83 -109 209 23 104 72 498 89 702 22 283 51 346 165 368 83
17 452 32 766 32 315 0 343 6 391 79 61 91 6 186 -152 263 -38 19 -95 47 -125
63 -113 60 -361 47 -561 -30 -90 -35 -267 -75 -328 -75 -93 0 -134 70 -112
193 7 40 19 124 26 187 7 63 18 144 24 180 25 154 52 392 66 581 11 144 23
235 42 308 44 178 22 253 -107 353 -122 96 -140 106 -254 137 -127 36 -157 37
-209 10z m688 -3858 c121 -54 133 -122 75 -426 -26 -139 -33 -183 -61 -400
-23 -176 -48 -241 -124 -319 -82 -85 -164 -107 -505 -136 -69 -6 -156 -16
-195 -21 -130 -18 -196 9 -230 93 -17 44 -25 126 -45 463 -6 99 -15 241 -20
315 -24 316 -7 337 310 396 260 47 723 68 795 35z"/>
<path d="M2452 5717 c-77 -44 -78 -158 -2 -350 65 -163 74 -230 66 -530 -7
-262 -15 -350 -60 -712 -14 -110 -33 -294 -41 -410 -24 -319 -27 -332 -97
-375 -117 -72 -513 -157 -678 -146 -137 8 -203 -30 -182 -106 17 -63 118 -185
165 -202 23 -8 69 -24 102 -36 134 -48 118 -50 277 26 230 109 289 100 274
-39 -14 -120 -66 -373 -101 -492 -66 -220 -45 -276 199 -525 304 -311 336
-354 336 -444 0 -71 -9 -93 -65 -156 -26 -29 -61 -85 -79 -124 -18 -39 -54
-96 -80 -126 -26 -30 -61 -80 -79 -110 -17 -30 -52 -77 -77 -105 -25 -27 -59
-68 -75 -90 -59 -82 -251 -267 -334 -323 -62 -41 -92 -69 -118 -109 -19 -30
-57 -70 -84 -90 -47 -34 -89 -94 -89 -128 0 -12 17 -15 99 -15 98 0 98 0 105
38 8 55 37 76 160 117 60 20 127 49 150 66 23 16 72 50 111 76 114 75 393 332
448 413 16 25 53 70 81 100 28 30 62 77 76 103 26 52 71 97 98 97 55 0 190
-174 252 -323 56 -135 189 -272 263 -272 113 0 187 108 187 269 0 122 -9 155
-59 233 -21 33 -57 98 -79 144 -22 47 -61 108 -89 139 -27 30 -63 76 -80 101
-18 25 -54 68 -81 96 -92 94 -95 179 -14 322 57 99 77 151 92 247 18 115 42
206 67 264 49 108 74 197 97 340 13 80 40 195 59 255 43 136 61 216 87 387 20
141 36 198 74 263 13 22 27 56 30 75 4 19 21 74 37 122 51 152 39 218 -62 327
-34 37 -78 85 -99 108 -75 83 -194 118 -237 71 -43 -48 -46 -65 -48 -268 -2
-317 -21 -346 -255 -390 -63 -12 -140 -32 -172 -46 -208 -87 -245 24 -139 418
41 151 70 281 86 394 25 174 49 275 84 357 21 49 56 174 85 308 11 49 31 98
56 140 51 82 52 114 3 199 -53 91 -235 268 -331 322 -41 22 -86 51 -100 63
-64 53 -164 72 -220 42z m822 -2455 c26 -23 17 -130 -23 -282 -16 -63 -37
-167 -46 -230 -22 -152 -30 -184 -83 -320 -27 -71 -56 -171 -74 -260 -50 -246
-130 -368 -226 -345 -86 20 -324 226 -371 320 -30 59 -27 83 34 274 25 80 57
208 70 285 29 165 47 232 82 301 68 134 103 162 250 194 48 11 124 33 169 49
122 46 178 49 218 14z"/>
<path d="M564 5451 c-48 -21 -67 -82 -41 -127 59 -102 575 -627 657 -669 96
-49 220 -14 280 78 126 193 126 239 3 409 -71 96 -89 109 -216 154 -39 15 -99
41 -132 59 -88 49 -142 64 -288 81 -196 22 -240 25 -263 15z"/>
<path d="M0 3920 c0 -59 3 -72 18 -76 74 -22 108 -51 177 -151 39 -56 94 -137
124 -180 30 -43 71 -94 91 -113 20 -19 56 -60 79 -90 76 -96 153 -135 272
-134 133 0 192 56 225 214 28 134 -3 240 -98 331 -83 80 -112 99 -206 134 -48
18 -123 49 -167 68 -113 50 -208 67 -375 67 -140 0 -140 0 -140 -70z"/>
<path d="M1370 2773 c-44 -16 -83 -74 -114 -169 -9 -28 -37 -80 -62 -115 -25
-35 -63 -100 -83 -144 -21 -44 -53 -102 -73 -130 -20 -27 -53 -84 -73 -125
-21 -41 -59 -104 -85 -140 -26 -36 -62 -96 -79 -134 -17 -38 -52 -94 -78 -125
-25 -31 -60 -87 -78 -126 -18 -38 -55 -96 -83 -127 -28 -32 -65 -85 -83 -118
-31 -59 -90 -125 -220 -245 -76 -70 -139 -179 -139 -241 0 -37 36 -204 67
-309 8 -27 32 -77 53 -110 22 -33 53 -89 69 -125 52 -112 100 -150 190 -150
84 0 121 43 151 175 13 59 42 144 72 208 27 60 56 141 64 180 32 162 49 217
96 319 37 80 56 139 74 230 31 156 38 179 85 259 24 40 47 98 59 150 35 143
51 191 100 289 26 52 62 142 79 200 18 58 61 166 97 240 82 172 119 341 82
378 -12 12 -61 15 -88 5z"/>
</g>
</svg>
