<svg xmlns="http://www.w3.org/2000/svg" viewBox="0 0 412.000000 361.905678">
<g transform="translate(-0.000000,361.905678) scale(0.100000,-0.100000)" fill="#000000" stroke="none">
<path d="M3047 3609 c-11 -6 -25 -26 -33 -45 -13 -31 -12 -44 20 -169 30 -114
37 -166 47 -328 13 -220 6 -670 -11 -709 -17 -37 -43 -48 -163 -68 -62 -11
-137 -26 -167 -35 -69 -19 -198 -43 -271 -51 -31 -3 -65 -11 -75 -19 -18 -13
-18 -15 -1 -47 22 -41 60 -65 131 -84 73 -20 131 -17 216 10 96 31 218 51 253
42 48 -12 70 -43 64 -90 -4 -22 -10 -72 -16 -111 -5 -38 -14 -153 -20 -255
-20 -340 -17 -332 -146 -345 -148 -16 -195 -12 -250 19 -28 15 -63 28 -79 28
-55 2 -83 -67 -55 -138 28 -75 90 -375 99 -481 5 -65 14 -181 21 -258 12 -158
27 -239 63 -340 14 -38 26 -85 26 -102 l0 -33 54 0 54 0 10 71 c12 77 28 104
79 125 62 26 368 57 703 69 173 7 190 13 190 71 0 26 -8 39 -39 65 -22 17 -44
44 -50 60 -14 42 11 150 48 202 17 23 40 68 51 100 11 33 33 74 50 93 16 19
38 51 49 72 11 20 33 51 51 67 41 39 70 95 70 137 0 41 -37 88 -117 148 -32
25 -75 59 -95 77 -40 34 -120 63 -177 63 -20 0 -72 -7 -115 -15 -44 -8 -117
-16 -164 -18 -81 -2 -84 -1 -109 27 -28 33 -28 17 6 241 11 77 27 210 35 295
15 168 26 204 67 225 30 16 376 36 580 34 158 -1 189 15 189 96 0 47 -29 75
-134 131 l-89 46 -116 -4 c-95 -4 -128 -9 -181 -31 -78 -31 -206 -60 -237 -52
-53 13 -63 55 -43 179 24 144 51 368 65 524 8 92 21 192 29 222 25 89 6 141
-73 203 -72 56 -92 66 -156 83 -60 16 -113 17 -138 3z m470 -2433 c33 -30 37
-38 36 -82 -1 -27 -10 -96 -21 -154 -11 -58 -26 -150 -32 -205 -16 -148 -33
-195 -84 -248 -50 -52 -77 -62 -221 -77 -55 -6 -141 -15 -191 -21 -159 -18
-172 -3 -190 217 -7 84 -14 230 -16 323 l-3 170 26 26 c45 45 271 81 537 84
l122 1 37 -34z"/>
<path d="M1555 3583 c-28 -7 -52 -30 -59 -56 -7 -29 15 -124 50 -217 28 -74
29 -78 27 -257 -3 -178 -7 -234 -38 -463 -8 -63 -21 -193 -29 -288 -16 -211
-15 -208 -157 -252 -133 -41 -196 -52 -316 -54 -63 0 -106 -5 -114 -13 -22
-22 -12 -62 30 -117 36 -46 52 -58 104 -76 105 -37 114 -36 205 10 171 86 185
73 147 -130 -14 -76 -34 -167 -45 -202 -41 -131 -25 -175 119 -323 126 -129
206 -224 216 -253 12 -39 -4 -91 -41 -131 -18 -21 -41 -56 -50 -77 -9 -22 -31
-56 -50 -76 -18 -20 -41 -52 -50 -70 -33 -63 -240 -290 -289 -315 -45 -24
-195 -180 -195 -203 0 -18 7 -20 60 -20 44 0 60 4 60 14 0 31 40 63 98 80 84
23 222 120 344 240 121 120 174 182 208 245 22 41 29 46 60 46 30 0 39 -7 77
-60 24 -33 59 -91 77 -130 19 -38 55 -94 81 -122 53 -60 86 -68 141 -34 49 30
67 80 62 173 -4 67 -9 84 -35 121 -17 23 -40 65 -52 92 -12 28 -37 66 -55 85
-18 19 -43 49 -54 66 -12 18 -38 48 -57 67 -50 50 -49 98 6 202 29 55 45 102
56 163 8 47 30 122 48 167 19 45 42 130 54 195 11 63 32 153 46 200 14 47 32
130 40 185 14 97 30 159 46 180 4 6 22 54 39 106 41 125 36 146 -63 251 -54
58 -82 79 -115 89 -40 12 -45 11 -65 -10 -20 -20 -22 -34 -27 -170 -8 -197
-21 -216 -160 -241 -36 -6 -86 -20 -112 -30 -60 -25 -80 -25 -104 1 -29 33
-23 113 24 284 22 83 44 177 47 210 10 86 34 192 57 245 11 25 29 85 39 134
11 50 34 114 51 146 l32 57 -34 57 c-56 91 -266 264 -340 278 -14 3 -34 3 -45
1z m486 -1533 c26 -14 25 -52 -5 -170 -13 -52 -29 -133 -36 -180 -6 -47 -27
-124 -45 -173 -19 -48 -41 -123 -50 -168 -26 -141 -72 -219 -128 -219 -48 0
-187 109 -241 190 -23 35 -20 66 14 174 17 51 39 141 49 199 11 58 32 133 47
167 36 81 75 114 153 129 34 7 90 23 124 36 70 27 90 30 118 15z"/>
<path d="M333 3399 c-7 -7 -13 -26 -13 -42 0 -22 21 -52 97 -135 115 -127 188
-201 266 -271 55 -49 60 -51 115 -51 73 0 91 13 137 96 49 87 49 119 1 188
-53 77 -79 101 -128 115 -24 7 -73 29 -109 47 -71 37 -121 48 -264 59 -68 5
-93 4 -102 -6z"/>
<path d="M0 2452 c0 -46 2 -52 21 -52 23 0 84 -57 111 -105 28 -49 110 -159
128 -172 9 -6 29 -30 45 -53 38 -55 94 -83 167 -84 97 -1 138 46 146 169 4 58
1 79 -16 111 -27 53 -110 121 -175 143 -30 11 -69 27 -88 36 -55 29 -127 45
-236 52 l-103 6 0 -51z"/>
<path d="M837 1720 c-14 -11 -35 -46 -47 -78 -12 -31 -33 -72 -46 -90 -14 -18
-35 -54 -46 -80 -11 -26 -30 -60 -43 -77 -12 -16 -35 -55 -50 -85 -15 -30 -42
-75 -59 -100 -18 -25 -40 -64 -50 -87 -11 -23 -28 -50 -38 -60 -11 -10 -34
-45 -50 -78 -17 -33 -46 -77 -64 -97 -18 -20 -42 -55 -53 -76 -11 -22 -52 -68
-92 -103 -49 -44 -80 -82 -101 -123 l-30 -59 27 -114 c17 -68 38 -129 52 -151
14 -20 37 -60 51 -90 32 -69 81 -96 144 -79 34 9 46 31 69 123 10 40 30 96 44
124 14 28 35 92 46 142 10 50 32 119 49 152 16 34 39 105 49 158 12 58 32 119
50 150 16 29 38 90 49 134 11 45 34 108 50 140 16 33 39 91 51 129 13 39 41
107 63 151 39 82 67 196 55 227 -9 23 -49 21 -80 -3z"/>
</g>
</svg>
