<svg xmlns="http://www.w3.org/2000/svg" viewBox="0 0 717.900044 704.000000">
<g transform="translate(-18.099956,704.000000) scale(0.100000,-0.100000)" fill="#000000" stroke="none">
<path d="M4794 6953 c-11 -121 -9 -173 16 -307 70 -387 66 -493 -22 -559 -63
-47 -451 -147 -571 -147 -162 0 -181 25 -172 222 13 278 -24 368 -172 416 -33
11 -91 36 -128 56 -97 51 -181 52 -231 2 -43 -43 -44 -66 -4 -256 29 -134 40
-180 76 -315 37 -134 1 -212 -115 -245 -68 -20 -307 -49 -452 -55 -160 -7
-202 -16 -224 -48 -35 -50 -8 -96 103 -173 166 -116 236 -115 567 6 103 38
180 14 204 -64 6 -17 17 -125 26 -241 19 -258 30 -305 102 -423 94 -155 146
-177 252 -106 74 50 106 62 218 79 102 16 298 56 516 106 87 20 186 34 311 44
192 14 246 27 266 65 19 36 3 67 -63 120 -108 89 -115 113 -68 251 16 47 36
134 44 192 33 237 36 238 687 252 470 10 542 23 598 105 43 64 26 125 -56 202
-68 64 -112 84 -264 119 -215 50 -371 49 -556 -2 -110 -30 -187 -29 -220 5
-41 41 -38 126 8 226 40 86 45 147 15 195 -71 113 -151 172 -292 214 -83 24
-129 63 -139 116 -6 35 -6 35 -129 35 -123 0 -123 0 -131 -87z m-44 -1211 c54
-27 66 -72 52 -191 -7 -53 -12 -143 -12 -201 0 -171 -35 -207 -230 -235 -58
-8 -143 -26 -189 -40 -159 -47 -240 -22 -286 88 -30 71 -43 346 -18 393 44 86
141 130 363 165 69 10 141 23 160 28 58 15 123 12 160 -7z"/>
<path d="M2287 6856 c-93 -34 -109 -78 -111 -300 -2 -171 -2 -171 -38 -256
-21 -51 -45 -133 -58 -200 -27 -142 -42 -188 -91 -271 -22 -36 -53 -108 -69
-161 -22 -70 -43 -113 -80 -164 -28 -39 -59 -96 -71 -134 -28 -85 -43 -113
-95 -182 -23 -32 -57 -96 -74 -141 -19 -52 -48 -104 -75 -138 -25 -29 -58 -79
-75 -111 -18 -32 -57 -89 -89 -126 -31 -37 -68 -85 -81 -107 -13 -22 -44 -62
-70 -90 -25 -27 -63 -78 -83 -113 -20 -34 -59 -89 -85 -121 -27 -32 -63 -83
-80 -112 -17 -30 -53 -79 -80 -109 -26 -30 -63 -77 -82 -105 -34 -51 -168
-197 -435 -474 -158 -164 -190 -213 -183 -283 4 -47 46 -61 96 -32 98 55 182
111 232 154 30 26 82 64 115 85 33 21 85 62 115 90 30 28 83 73 117 99 35 26
67 55 72 65 6 10 34 36 63 58 29 22 114 100 189 174 74 74 154 149 177 168 42
33 93 92 180 211 90 123 129 144 185 100 41 -33 45 -66 46 -465 3 -804 -17
-1148 -94 -1560 -13 -71 -35 -220 -50 -330 -50 -383 -57 -420 -90 -525 -82
-257 -84 -506 -6 -743 22 -67 51 -161 65 -209 21 -68 40 -105 89 -175 132
-184 210 -180 311 17 84 162 92 279 106 1650 18 1662 21 1775 65 1950 63 252
59 326 -23 447 -21 32 -49 78 -62 103 -12 24 -49 72 -82 106 -98 103 -99 169
-3 274 31 34 68 89 88 132 19 40 52 93 74 118 22 25 59 83 83 130 23 47 59
105 80 130 21 25 56 83 80 129 23 47 59 107 80 135 21 28 52 85 70 126 18 41
56 107 84 145 29 39 67 94 85 124 18 29 55 81 83 115 89 106 113 190 84 291
-23 76 -177 240 -270 287 -33 17 -83 47 -110 68 -88 65 -150 81 -219 56z"/>
<path d="M6410 4844 c-63 -13 -178 -33 -254 -44 -173 -25 -224 -37 -405 -94
-92 -29 -187 -52 -260 -62 -207 -27 -303 -44 -451 -79 -152 -35 -320 -63 -555
-90 -77 -9 -199 -30 -272 -46 -275 -60 -522 -94 -903 -124 -267 -21 -654 -75
-714 -100 -63 -27 -96 -86 -76 -135 15 -37 42 -54 132 -86 40 -15 100 -40 133
-57 114 -58 228 -51 453 27 41 14 135 37 210 51 76 13 235 49 355 80 400 101
481 64 518 -239 30 -244 -3 -288 -233 -307 -67 -5 -211 -22 -318 -37 -257 -35
-330 -35 -445 1 -188 58 -348 30 -348 -62 0 -27 116 -238 164 -300 28 -35 45
-105 74 -296 38 -259 53 -338 91 -490 19 -77 43 -203 53 -280 22 -151 35 -201
74 -263 14 -22 39 -68 55 -104 63 -139 147 -151 297 -42 91 67 141 84 249 84
98 0 235 12 501 45 273 33 510 54 696 62 190 7 261 -9 344 -78 142 -119 276
-90 363 79 23 44 58 103 77 132 19 29 42 77 51 109 34 125 47 159 88 226 50
83 57 99 91 230 14 55 50 152 80 215 40 86 58 138 70 209 20 117 31 143 92
223 164 215 140 409 -60 477 -69 24 -107 44 -169 88 -71 51 -321 132 -409 133
-20 0 -88 -13 -150 -29 -63 -16 -143 -35 -178 -41 -35 -6 -130 -34 -210 -61
-233 -79 -382 -104 -441 -74 -43 22 -50 43 -50 147 0 94 0 94 -61 196 -99 164
-76 222 86 222 22 0 78 7 125 15 124 21 331 43 525 54 501 31 668 43 745 53
47 6 261 12 477 14 383 3 394 3 470 27 43 14 99 28 126 31 47 7 47 7 47 92 0
75 -2 84 -18 84 -48 0 -123 33 -169 74 -61 55 -95 72 -180 92 -37 8 -112 29
-167 45 -128 38 -249 39 -416 3z m-729 -1366 c65 -36 94 -108 94 -233 0 -219
-38 -544 -81 -694 -14 -45 -40 -146 -59 -222 -19 -76 -39 -149 -46 -162 -32
-62 -100 -73 -193 -32 -78 34 -192 27 -390 -24 -182 -48 -236 4 -236 226 0
218 16 233 296 293 305 66 314 69 357 110 88 88 9 183 -188 225 -95 20 -151
19 -244 -5 -156 -41 -221 33 -221 249 0 149 49 185 333 241 290 58 507 68 578
28z m-1398 -180 c37 -15 58 -57 73 -153 41 -244 -5 -300 -293 -354 -139 -27
-182 -51 -203 -117 -15 -43 3 -81 49 -108 29 -17 60 -21 200 -26 256 -9 282
-33 298 -274 11 -171 -38 -213 -283 -242 -367 -44 -386 -20 -439 531 -3 33
-10 130 -15 215 -5 85 -16 188 -24 228 -28 147 6 184 210 231 77 18 171 42
209 53 131 39 155 41 218 16z"/>
<path d="M3903 1473 c-37 -21 -151 -161 -177 -219 -64 -137 -80 -167 -119
-210 -24 -27 -63 -76 -87 -109 -132 -180 -453 -489 -622 -598 -93 -60 -117
-91 -121 -155 -2 -37 -2 -37 93 -35 148 2 247 34 353 110 26 19 84 51 129 69
47 20 100 52 124 74 23 21 74 55 112 74 38 19 93 57 123 84 30 27 81 67 114
89 33 23 74 55 90 73 17 17 53 48 80 68 28 20 77 61 110 92 33 31 90 76 127
99 72 46 175 150 184 188 11 43 -6 72 -74 128 -37 30 -83 69 -103 85 -40 34
-197 98 -262 106 -30 4 -51 0 -74 -13z"/>
<path d="M5352 1440 c-103 -24 -102 -127 2 -210 28 -23 67 -65 86 -93 19 -29
55 -74 80 -102 25 -27 61 -72 80 -100 18 -27 56 -75 85 -105 28 -30 63 -74 78
-97 14 -22 48 -63 74 -90 27 -26 64 -70 82 -98 19 -27 55 -72 81 -100 26 -27
67 -80 93 -116 25 -36 78 -92 118 -124 100 -81 146 -130 159 -171 12 -34 12
-34 76 -34 35 0 64 4 64 10 0 34 48 124 94 178 66 75 76 106 76 243 0 116 4
103 -94 281 -63 112 -116 172 -213 238 -43 29 -97 70 -120 91 -23 21 -72 53
-110 72 -37 19 -97 58 -132 86 -50 40 -82 57 -150 77 -47 14 -142 52 -211 84
-111 52 -224 92 -255 89 -5 -1 -25 -5 -43 -9z"/>
<path d="M2654 76 c-56 -56 -48 -76 31 -76 65 0 65 0 65 55 0 55 0 55 -31 55
-22 0 -41 -10 -65 -34z"/>
</g>
</svg>
