<svg xmlns="http://www.w3.org/2000/svg" viewBox="0 0 718.569764 723.637500">
<g transform="translate(0.000000,723.637500) scale(0.100000,-0.100000)" fill="#000000" stroke="none">
<path d="M5005 7221 c-97 -46 -115 -95 -75 -210 43 -122 54 -283 47 -661 -10
-467 4 -445 -337 -509 -650 -122 -752 -107 -735 109 19 243 -33 756 -88 854
-39 70 -272 166 -403 166 -202 0 -275 -146 -153 -306 52 -68 63 -98 88 -244
31 -174 77 -361 107 -433 53 -127 41 -246 -30 -292 -36 -24 -588 -85 -766 -85
-188 0 -250 -22 -250 -88 0 -47 28 -71 146 -127 207 -98 262 -97 731 12 219
50 271 14 318 -224 9 -45 25 -112 36 -150 38 -133 18 -228 -54 -258 -60 -25
-1071 -102 -1462 -111 -259 -6 -294 -12 -325 -51 -45 -58 -15 -104 108 -166
48 -24 119 -60 157 -80 151 -79 480 -70 895 22 286 64 517 91 783 91 188 0
210 -14 272 -165 90 -221 103 -290 69 -356 -31 -61 -134 -83 -524 -114 -113
-9 -243 -23 -290 -31 -148 -25 -264 -13 -480 47 -130 37 -224 25 -264 -33 -37
-52 -9 -129 100 -274 69 -92 81 -123 99 -247 8 -56 26 -140 40 -187 65 -210
76 -250 89 -330 9 -47 22 -155 31 -242 24 -251 47 -361 100 -493 13 -34 34
-101 45 -149 40 -174 138 -296 236 -296 20 0 43 17 93 69 73 76 72 76 226 86
149 10 252 25 417 61 244 53 319 62 678 80 538 26 552 25 635 -79 79 -98 175
-125 280 -78 106 47 133 82 179 231 14 47 46 119 71 160 43 70 52 95 86 224 7
27 36 85 65 129 37 55 63 110 84 176 20 67 45 118 80 169 31 46 58 101 71 145
26 87 50 136 96 199 19 26 49 91 67 145 18 54 58 146 90 206 91 174 84 218
-61 358 -82 80 -94 88 -172 114 -46 15 -111 46 -145 69 -147 101 -384 148
-554 111 -37 -8 -115 -23 -173 -34 -59 -12 -151 -37 -205 -57 -132 -47 -335
-96 -410 -98 -114 -2 -144 36 -144 186 0 60 -7 119 -20 167 -36 136 -18 180
77 188 836 65 1385 76 1935 41 317 -21 474 0 544 73 90 94 -34 242 -257 305
-52 14 -142 41 -202 60 -200 64 -361 66 -657 9 -190 -37 -621 -85 -760 -85
-131 0 -159 86 -94 292 19 62 46 153 60 202 52 186 8 175 734 185 476 6 528 8
558 24 49 27 74 72 69 128 -7 87 -28 108 -261 261 -109 72 -541 60 -711 -19
-178 -82 -243 77 -124 304 35 65 57 124 74 200 14 60 35 146 46 192 68 274
-68 435 -426 506 -133 27 -155 28 -200 6z m-218 -1677 c53 -39 55 -53 43 -281
-20 -381 -36 -409 -240 -424 -58 -5 -152 -13 -210 -19 -411 -41 -410 -41 -423
255 -12 261 -12 266 -4 298 13 47 74 105 127 121 26 8 131 24 231 36 101 11
209 25 239 30 96 15 205 8 237 -16z m688 -1810 c185 -59 222 -199 158 -599
-17 -110 -39 -247 -47 -305 -9 -64 -35 -164 -65 -255 -27 -82 -57 -190 -66
-238 -34 -181 -78 -217 -186 -154 -105 61 -239 52 -585 -42 -124 -34 -187 -2
-198 101 -3 29 -5 130 -3 223 2 192 11 222 77 256 32 17 338 90 525 125 123
24 165 53 165 115 0 47 -34 77 -134 120 -132 56 -152 60 -329 64 -254 5 -278
34 -252 298 14 138 21 161 61 198 65 60 84 64 469 95 110 8 202 18 205 21 10
10 148 -5 205 -23z m-1387 -114 c53 -33 64 -72 73 -282 10 -207 4 -246 -43
-281 -31 -23 -227 -63 -388 -78 -119 -11 -165 -29 -197 -78 -42 -62 -20 -130
52 -162 56 -25 255 -39 368 -27 72 7 138 -2 165 -25 39 -32 45 -66 48 -291 4
-294 -3 -309 -153 -327 -43 -5 -139 -16 -213 -25 -74 -8 -175 -24 -224 -35
-167 -38 -216 3 -237 200 -12 110 -36 245 -74 411 -41 176 -54 261 -70 441
-14 162 -20 193 -65 295 -62 139 86 199 660 268 176 21 258 20 298 -4z"/>
<path d="M1005 6423 c-36 -10 -64 -35 -75 -68 -17 -51 8 -96 113 -206 51 -53
133 -142 182 -198 151 -170 291 -309 352 -347 32 -20 76 -51 98 -69 156 -125
331 -74 422 123 43 92 37 241 -13 348 -32 68 -198 202 -279 225 -147 43 -172
52 -225 85 -81 49 -128 63 -279 79 -75 8 -154 19 -176 25 -42 10 -87 11 -120
3z"/>
<path d="M0 4700 c0 -56 3 -70 15 -70 37 0 96 -43 150 -112 33 -40 156 -170
275 -288 212 -211 241 -235 408 -332 58 -34 134 -38 190 -9 43 22 172 152 194
196 102 202 -136 476 -482 556 -47 11 -128 35 -180 53 -159 56 -270 76 -430
76 -140 0 -140 0 -140 -70z"/>
<path d="M1680 3593 c-32 -12 -64 -51 -102 -128 -22 -44 -54 -99 -70 -122 -16
-24 -47 -82 -69 -129 -22 -48 -59 -117 -83 -153 -24 -36 -57 -97 -72 -135 -15
-38 -49 -96 -76 -129 -26 -33 -63 -92 -82 -131 -18 -39 -54 -96 -80 -126 -26
-30 -62 -88 -82 -129 -19 -41 -56 -99 -82 -129 -26 -30 -63 -79 -82 -108 -21
-31 -68 -78 -117 -116 -284 -220 -301 -250 -244 -440 17 -57 38 -137 47 -178
17 -79 44 -139 93 -212 16 -24 42 -74 57 -112 27 -64 62 -111 190 -254 40 -44
44 -46 105 -49 135 -8 169 40 194 272 21 187 43 298 94 462 21 70 47 178 56
238 23 149 39 210 92 345 32 80 53 154 69 245 30 174 31 179 74 265 45 91 55
119 85 254 13 58 47 159 75 226 93 220 102 249 107 346 5 90 5 91 -22 112 -27
22 -46 25 -75 15z"/>
<path d="M3520 1471 c-90 -28 -132 -80 -156 -191 -17 -84 -32 -115 -69 -150
-15 -14 -46 -49 -68 -79 -148 -199 -607 -600 -812 -710 -100 -53 -135 -96
-135 -163 0 -47 16 -52 116 -38 124 17 191 38 324 102 69 32 160 73 202 89 42
16 99 47 126 69 27 22 92 59 144 83 52 25 113 60 134 80 22 19 70 52 107 72
37 21 91 59 120 85 29 26 79 64 112 85 33 21 83 58 110 83 28 25 86 62 130 82
179 83 251 198 172 273 -171 162 -183 169 -339 207 -123 30 -172 35 -218 21z"/>
<path d="M4998 1420 c-60 -61 -45 -90 140 -271 88 -85 181 -173 207 -195 26
-21 66 -64 88 -94 23 -30 67 -84 99 -120 56 -63 73 -84 203 -242 170 -206 264
-287 479 -410 53 -31 72 -24 153 55 107 103 117 126 117 267 1 115 1 115 -47
226 -54 126 -165 255 -283 330 -32 20 -76 53 -98 72 -38 34 -93 62 -189 97
-27 9 -67 32 -90 51 -66 53 -110 73 -225 103 -59 16 -143 46 -187 69 -180 90
-315 113 -367 62z"/>
<path d="M2187 42 c-27 -30 -21 -42 22 -42 38 0 39 1 32 27 -9 34 -31 40 -54
15z"/>
</g>
</svg>
