<svg xmlns="http://www.w3.org/2000/svg" viewBox="0 0 563.568082 720.000000">
<g transform="translate(-14.331979,720.000000) scale(0.100000,-0.100000)" fill="#000000" stroke="none">
<path d="M3382 7086 c5 -110 7 -117 52 -214 47 -101 47 -101 58 -264 28 -435
-11 -681 -121 -765 -63 -49 -66 -49 -531 -94 -63 -6 -164 -22 -224 -37 -100
-23 -112 -24 -150 -11 -89 31 -101 81 -115 474 -11 319 -22 392 -71 483 -96
179 -152 212 -391 234 -282 26 -361 -61 -238 -263 61 -99 85 -164 103 -279 21
-123 42 -211 81 -330 81 -247 88 -297 52 -351 -28 -42 -71 -58 -162 -59 -38 0
-178 -9 -310 -21 -132 -11 -307 -24 -388 -28 -124 -7 -153 -12 -175 -28 -66
-49 -17 -162 92 -218 109 -55 515 -37 785 35 190 51 265 -12 316 -262 30 -146
33 -267 7 -317 -32 -63 -56 -73 -204 -82 -73 -5 -214 -15 -313 -24 -100 -8
-423 -20 -725 -25 -612 -12 -598 -11 -640 -46 -51 -43 -31 -96 74 -192 53 -49
60 -52 221 -98 167 -48 226 -51 420 -21 88 14 212 31 275 37 156 14 244 26
455 60 402 65 663 83 716 47 88 -59 223 -326 223 -443 1 -109 -37 -133 -232
-144 -178 -11 -250 -19 -567 -66 -287 -43 -329 -42 -440 8 -166 75 -395 86
-459 22 -31 -31 -20 -79 32 -137 105 -115 207 -346 238 -536 8 -51 35 -155 59
-231 57 -177 83 -307 95 -472 13 -165 40 -291 90 -411 21 -51 48 -129 60 -175
39 -147 131 -252 219 -252 45 0 68 14 126 75 58 61 94 75 201 75 103 0 382 28
509 50 331 60 537 80 979 100 251 11 283 5 340 -57 108 -119 122 -131 166
-143 59 -16 100 -3 206 66 107 68 117 85 163 259 6 22 33 76 61 120 32 51 61
114 80 175 22 71 42 113 80 164 36 50 57 93 78 160 21 66 44 114 84 173 34 49
66 112 82 159 18 52 44 101 76 144 37 49 59 91 85 169 21 63 50 127 74 161 55
78 74 143 69 234 -4 91 -17 111 -116 181 -39 28 -90 65 -113 83 -24 18 -66 39
-93 47 -28 7 -76 20 -106 29 -30 8 -90 38 -134 65 -159 101 -426 112 -651 26
-162 -62 -253 -86 -412 -111 -374 -57 -391 -51 -403 144 -5 80 -12 117 -27
147 -44 85 -39 150 16 183 26 16 73 20 368 31 186 7 428 16 538 21 278 13 648
12 985 -1 622 -25 690 -19 768 65 91 99 60 188 -89 254 -36 16 -84 41 -106 55
-123 78 -484 117 -812 87 -56 -5 -180 -14 -275 -20 -258 -17 -464 -45 -562
-77 -153 -50 -210 -5 -208 167 2 165 36 276 125 406 89 129 57 123 754 129
577 5 598 6 647 55 36 36 35 56 -3 113 -66 100 -202 187 -399 254 -92 32 -283
23 -450 -21 -216 -57 -231 -60 -282 -52 -56 8 -98 46 -98 88 0 51 70 266 114
351 53 100 100 287 100 392 1 137 -47 214 -164 268 -97 44 -146 82 -166 127
-18 40 -18 40 -247 40 -230 0 -230 0 -225 -114z m-106 -1592 c70 -33 79 -83
65 -352 -18 -333 -19 -334 -419 -352 -130 -6 -274 -18 -320 -26 -125 -23 -180
3 -201 96 -17 76 -22 469 -6 507 28 65 21 63 485 107 96 9 204 21 240 25 101
13 120 12 156 -5z m755 -1805 c154 -33 190 -170 144 -544 -32 -263 -41 -307
-105 -495 -37 -110 -54 -180 -70 -290 -25 -173 -24 -171 -55 -204 -31 -34 -78
-34 -174 -1 -136 48 -180 45 -501 -32 -156 -38 -259 -22 -294 45 -21 41 -7
423 17 469 32 60 89 85 222 98 121 11 358 56 405 76 120 53 141 161 42 217
-83 46 -313 70 -468 48 -153 -22 -189 57 -166 365 17 223 23 228 287 241 99 5
250 13 335 18 175 9 302 6 381 -11z m-1501 -137 c48 -48 58 -85 70 -252 13
-190 -9 -253 -103 -302 -57 -29 -255 -67 -349 -68 -186 0 -282 -65 -234 -158
32 -62 202 -102 435 -102 228 0 261 -43 261 -348 0 -165 -8 -199 -62 -249 -50
-47 -76 -52 -415 -83 -57 -5 -120 -14 -140 -19 -190 -49 -227 -10 -258 270 -9
82 -33 210 -60 320 -25 101 -52 238 -60 304 -33 255 -47 333 -76 416 -33 98
-35 125 -13 157 37 53 82 64 389 97 238 25 420 47 424 51 2 2 38 4 79 4 73 0
75 -1 112 -38z"/>
<path d="M1918 1437 c-91 -26 -129 -69 -146 -166 -15 -83 -24 -100 -93 -182
-95 -112 -407 -416 -466 -455 -29 -18 -79 -57 -111 -86 -89 -80 -214 -168
-311 -218 -73 -38 -91 -53 -121 -99 -20 -30 -60 -72 -90 -95 -52 -40 -69 -63
-85 -114 -7 -23 -7 -23 92 -20 98 3 98 3 101 32 8 68 20 75 232 125 98 24 153
44 255 95 72 36 155 72 185 82 30 9 88 40 127 69 40 29 105 65 146 80 46 16
95 44 128 71 30 25 83 60 119 79 36 18 96 58 134 90 38 31 91 67 117 81 27 13
75 48 108 78 46 40 80 60 138 81 90 32 128 56 147 94 45 85 20 169 -62 214
-26 14 -79 50 -119 80 -104 80 -302 118 -425 84z"/>
<path d="M3585 1423 c-55 -10 -67 -15 -85 -33 -60 -60 -5 -154 196 -330 117
-103 271 -255 376 -371 273 -303 453 -479 534 -523 68 -37 103 -70 126 -123
19 -43 19 -43 91 -43 72 0 72 0 89 48 10 27 44 80 77 119 81 97 81 97 81 226
0 100 -3 119 -23 158 -72 135 -107 188 -151 229 -27 25 -73 69 -103 98 -30 29
-86 68 -124 88 -38 19 -96 55 -127 79 -39 30 -84 53 -141 71 -54 17 -112 46
-160 79 -91 62 -85 59 -242 95 -94 21 -151 41 -225 78 -95 48 -147 63 -189 55z"/>
</g>
</svg>
