<svg xmlns="http://www.w3.org/2000/svg" viewBox="0 0 442.028509 450.797669">
<g transform="translate(-9.000000,450.797669) scale(0.100000,-0.100000)" fill="#000000" stroke="none">
<path d="M3254 4498 c-22 -10 -44 -47 -44 -72 0 -8 15 -45 33 -82 l32 -69 0
-255 c0 -226 -2 -259 -18 -288 -39 -72 -111 -96 -380 -127 -150 -17 -178 -12
-196 34 -5 14 -12 121 -16 236 -5 189 -8 218 -32 289 -34 105 -58 128 -164
161 -83 25 -89 25 -125 10 -48 -20 -84 -53 -84 -77 0 -10 9 -36 19 -56 11 -21
25 -66 31 -101 6 -35 24 -99 40 -142 30 -81 60 -245 60 -329 0 -63 -19 -86
-83 -99 -82 -16 -262 -31 -372 -31 -111 0 -145 -13 -145 -54 0 -27 8 -35 87
-84 84 -52 165 -55 334 -13 151 38 189 39 225 8 25 -22 28 -32 42 -168 16
-157 12 -186 -30 -213 -37 -24 -533 -66 -818 -69 -122 -2 -150 -5 -174 -20
-18 -12 -26 -25 -24 -40 4 -26 128 -122 178 -138 101 -31 301 -19 526 31 154
34 278 51 403 53 78 2 93 -1 110 -18 24 -24 78 -148 99 -229 28 -108 0 -126
-229 -145 -74 -6 -183 -18 -244 -27 l-110 -17 -83 27 c-90 28 -172 33 -212 13
-32 -16 -38 -58 -12 -95 11 -15 28 -45 39 -67 11 -22 32 -60 46 -85 18 -32 30
-77 42 -158 9 -62 29 -163 45 -225 28 -105 35 -151 60 -390 7 -68 21 -125 44
-185 18 -48 39 -104 46 -125 14 -45 49 -72 82 -62 13 4 39 19 58 34 58 46 76
52 188 61 59 5 170 22 247 39 155 34 524 66 590 51 46 -10 81 -33 131 -87 22
-23 48 -43 58 -43 21 0 108 44 124 63 7 8 20 39 31 68 10 30 30 77 44 106 15
28 34 82 43 119 9 38 33 98 54 134 21 36 43 88 49 115 7 28 29 79 50 115 21
36 44 88 50 115 7 28 30 79 51 115 21 36 46 92 54 125 9 33 25 86 36 118 18
51 19 60 6 90 -27 62 -102 134 -164 157 -31 12 -80 37 -107 56 -36 24 -74 39
-128 50 -71 15 -85 15 -169 -1 -51 -9 -125 -30 -167 -46 -41 -17 -113 -39
-160 -50 -141 -34 -181 -13 -181 96 0 43 -6 68 -20 90 -26 39 -26 87 0 110 18
16 46 20 193 26 95 4 286 13 424 20 225 11 275 10 455 -5 255 -21 318 -13 367
50 35 45 28 76 -33 131 -48 45 -65 53 -177 86 -147 44 -212 47 -387 17 -65
-11 -171 -25 -237 -31 -66 -6 -145 -13 -176 -16 -109 -10 -120 39 -68 304 12
60 49 99 102 108 18 3 171 7 341 9 353 5 346 4 346 85 0 55 -18 84 -68 111
-20 11 -54 35 -75 52 -37 32 -43 33 -139 36 -107 4 -186 -7 -282 -40 -109 -38
-133 4 -77 137 17 39 35 102 41 140 6 39 22 95 36 125 30 63 34 132 11 176
-25 48 -86 113 -131 139 -62 36 -216 56 -262 33z m-78 -1049 c17 -19 19 -36
16 -178 -3 -176 -11 -215 -52 -236 -17 -9 -98 -20 -211 -29 -160 -13 -187 -13
-206 -1 -27 18 -31 41 -36 206 -7 201 -1 208 233 234 79 8 146 18 149 20 2 3
23 5 46 5 30 0 47 -6 61 -21z m411 -1146 c92 -59 104 -147 53 -380 -17 -76
-35 -178 -41 -228 -12 -98 -59 -260 -91 -312 -23 -38 -55 -43 -115 -18 -19 8
-48 15 -63 15 -31 0 -152 -30 -217 -54 -52 -19 -96 -7 -112 32 -6 16 -10 84
-8 164 3 170 4 171 133 199 264 55 277 61 282 122 4 42 -12 56 -103 87 -66 23
-118 27 -190 16 -43 -7 -54 -5 -75 12 -24 20 -25 23 -23 148 2 145 11 168 77
191 45 15 205 30 351 32 94 1 104 -1 142 -26z m-842 -43 c15 -6 32 -24 39 -42
17 -43 29 -248 17 -282 -16 -40 -47 -53 -186 -76 -71 -12 -140 -27 -152 -33
-28 -13 -45 -60 -33 -91 13 -35 65 -48 207 -50 163 -3 158 4 166 -186 5 -115
4 -147 -8 -170 -20 -39 -24 -40 -123 -55 -48 -7 -123 -19 -167 -25 -69 -11
-85 -11 -117 3 -31 13 -39 23 -52 66 -8 28 -20 106 -26 173 -23 268 -55 453
-96 570 -31 89 -4 132 92 143 33 4 131 20 219 35 188 33 186 33 220 20z"/>
<path d="M1373 4301 c-52 -24 -62 -54 -55 -166 5 -99 -23 -241 -68 -339 -17
-38 -37 -92 -45 -122 -15 -58 -27 -85 -61 -129 -12 -16 -29 -52 -38 -78 -21
-61 -41 -100 -60 -116 -8 -7 -27 -44 -41 -82 -15 -39 -37 -82 -50 -97 -12 -15
-35 -51 -49 -81 -15 -29 -38 -63 -50 -75 -12 -11 -39 -47 -60 -78 -21 -32 -42
-58 -47 -58 -4 0 -26 -30 -49 -67 -45 -76 -90 -136 -147 -202 -21 -23 -45 -56
-53 -71 -18 -34 -245 -284 -277 -305 -29 -20 -133 -157 -133 -176 0 -23 21
-39 51 -39 18 0 44 14 74 40 25 22 50 40 55 40 5 0 35 23 66 50 31 28 61 50
65 50 23 0 463 411 499 465 23 35 122 115 141 115 10 0 25 -7 33 -16 14 -13
16 -57 16 -328 0 -345 -11 -530 -40 -681 -23 -122 -36 -219 -50 -390 -6 -80
-21 -168 -36 -225 -15 -52 -33 -117 -40 -143 -32 -115 -27 -375 9 -473 42
-112 89 -200 129 -241 94 -96 125 -68 188 172 l32 120 13 980 c11 848 15 987
29 1035 8 30 16 73 16 95 0 56 -55 189 -92 220 -75 63 -78 166 -8 230 12 11
37 49 55 85 18 36 43 74 55 85 12 11 33 44 46 73 13 30 37 71 54 92 17 21 39
58 50 82 11 25 32 61 48 81 16 19 37 57 47 84 10 26 32 64 49 83 35 38 101
133 129 186 15 28 17 40 8 66 -18 55 -184 215 -253 245 -54 23 -110 25 -155 4z"/>
<path d="M2435 906 c-38 -16 -50 -35 -104 -156 -26 -56 -62 -115 -89 -147
-141 -161 -344 -351 -426 -397 -37 -22 -53 -39 -68 -75 -11 -25 -30 -59 -42
-76 -40 -55 -40 -55 3 -55 37 0 41 2 41 25 0 28 28 50 80 60 65 13 125 37 181
71 31 19 76 41 100 49 24 9 57 29 74 45 16 16 46 36 66 44 20 8 55 31 79 51
24 20 57 43 74 52 29 15 57 37 184 149 26 22 71 54 100 69 57 31 82 65 82 112
0 23 -15 42 -72 93 -62 56 -80 66 -142 82 -84 21 -83 21 -121 4z"/>
<path d="M3307 889 c-66 -26 -40 -92 95 -231 118 -124 176 -190 209 -242 14
-23 34 -48 44 -56 10 -8 29 -33 43 -55 41 -65 144 -174 189 -201 23 -13 54
-40 69 -59 14 -19 33 -35 40 -35 21 0 70 58 100 118 25 50 26 59 21 145 -3 51
-12 109 -18 130 -16 47 -141 193 -173 201 -13 3 -43 22 -66 41 -23 19 -62 44
-86 55 -25 10 -63 35 -85 54 -28 23 -61 39 -107 50 -37 9 -93 33 -125 52 -63
39 -108 49 -150 33z"/>
</g>
</svg>
