<svg xmlns="http://www.w3.org/2000/svg" viewBox="0 0 782.118369 815.624738">
<g transform="translate(-17.938434,815.502315) scale(0.100000,-0.100000)" fill="#000000" stroke="none">
<path d="M4704 8141 c-89 -40 -93 -116 -19 -334 55 -160 70 -297 62 -537 -12
-313 -61 -427 -203 -473 -61 -20 -362 -62 -549 -77 -77 -6 -188 -21 -247 -32
-209 -40 -248 0 -248 262 -1 263 -18 552 -36 605 -20 59 -154 199 -225 235
-61 32 -175 49 -314 49 -148 0 -208 -17 -243 -69 -36 -52 -25 -97 72 -299 92
-192 108 -237 131 -386 9 -55 36 -160 61 -235 53 -156 53 -188 -4 -226 -58
-39 -115 -45 -812 -84 -289 -16 -295 -17 -328 -34 -93 -48 1 -207 150 -252
129 -39 634 -18 875 37 105 24 148 20 191 -16 69 -58 149 -281 182 -510 25
-171 34 -203 77 -265 16 -25 45 -74 64 -109 57 -109 107 -114 205 -20 42 39
71 59 95 63 148 24 514 48 864 57 450 10 479 13 506 40 29 29 23 71 -25 183
-60 139 -59 130 -26 321 33 193 42 223 102 337 95 183 44 171 713 175 854 5
865 6 901 75 36 70 -48 189 -186 266 -36 20 -91 55 -123 78 -62 46 -106 59
-242 69 -170 13 -491 -30 -627 -84 -153 -62 -213 -35 -212 96 0 96 22 163 75
234 25 34 47 80 60 124 11 38 27 95 35 125 9 30 31 80 49 110 62 102 50 167
-51 279 -47 52 -274 175 -370 200 -140 37 -324 48 -380 22z m-174 -1710 c60
-43 65 -109 15 -223 -21 -47 -42 -117 -51 -171 -36 -218 -67 -244 -319 -267
-66 -6 -183 -18 -260 -26 -251 -28 -275 -29 -310 -10 -68 37 -85 113 -85 386
0 281 -18 268 400 300 162 12 333 26 380 30 114 11 199 3 230 -19z"/>
<path d="M6865 5353 c-16 -2 -82 -12 -145 -23 -139 -23 -248 -35 -485 -55
-211 -18 -322 -35 -540 -80 -203 -43 -339 -61 -595 -80 -239 -18 -402 -37
-555 -64 -234 -42 -492 -72 -790 -91 -346 -22 -475 -34 -880 -86 -442 -56
-511 -62 -845 -73 -542 -19 -891 -41 -1225 -77 -282 -30 -346 -34 -437 -32
-107 3 -151 -10 -173 -53 -38 -73 -6 -126 104 -176 42 -19 103 -52 136 -73 36
-24 121 -60 215 -92 197 -67 341 -74 535 -25 61 16 179 37 264 48 173 22 243
37 384 80 149 46 256 66 442 84 156 15 241 28 561 84 102 19 403 57 535 68 87
8 133 -17 209 -113 72 -91 84 -115 100 -204 6 -36 18 -87 26 -114 43 -151 -5
-203 -206 -226 -58 -6 -244 -31 -415 -55 -659 -92 -625 -92 -752 -16 -94 55
-174 75 -308 76 -155 0 -208 -35 -178 -115 13 -36 126 -214 169 -268 34 -43
43 -69 83 -234 11 -48 38 -127 60 -175 53 -118 67 -173 86 -335 11 -90 37
-219 76 -375 33 -131 69 -290 80 -353 20 -120 24 -129 147 -365 66 -127 93
-149 174 -142 60 5 88 24 139 93 52 70 82 83 223 94 61 5 188 21 281 35 360
55 446 65 620 75 99 6 277 17 395 25 118 8 312 17 430 20 255 6 253 6 333 -99
63 -84 106 -109 198 -114 138 -8 194 26 292 177 23 35 55 83 70 106 16 23 41
88 58 144 22 75 42 121 78 174 30 45 60 107 80 167 22 65 46 114 76 154 25 33
54 84 65 115 11 31 27 75 36 98 8 23 38 73 65 110 27 37 62 101 76 140 15 40
51 104 79 143 30 40 66 106 83 151 18 46 55 113 85 155 64 87 80 144 74 252
-5 89 -22 114 -113 165 -38 20 -92 55 -120 77 -54 42 -85 55 -222 91 -48 12
-111 38 -149 61 -206 124 -499 129 -784 14 -133 -54 -196 -70 -395 -96 -90
-12 -191 -32 -231 -46 -169 -58 -213 -19 -219 196 -2 64 -10 143 -20 179 -39
150 -21 194 83 207 98 12 2023 -4 2482 -21 623 -23 921 -24 990 -3 116 36 174
163 121 267 -29 55 -141 155 -214 190 -35 17 -94 53 -131 80 -38 28 -91 57
-120 66 -28 8 -73 21 -101 29 -27 8 -83 26 -122 40 -71 25 -301 36 -428 19z
m-1449 -1540 c48 -26 104 -86 136 -145 31 -58 31 -238 1 -338 -11 -36 -37
-118 -57 -183 -20 -67 -45 -179 -56 -255 -21 -150 -36 -207 -85 -327 -18 -44
-40 -118 -50 -165 -33 -168 -94 -206 -230 -142 -84 40 -116 44 -225 27 -52 -8
-151 -22 -220 -30 -69 -9 -173 -22 -233 -30 -204 -26 -222 -6 -222 240 0 192
8 226 63 287 75 83 165 108 457 128 323 22 390 65 326 206 -47 103 -123 125
-446 128 -314 2 -357 22 -342 154 3 26 10 89 16 141 24 210 80 265 295 286
158 16 337 34 391 39 145 13 441 0 481 -21z m-1701 -143 c72 -35 85 -74 85
-257 0 -178 -13 -216 -94 -270 -84 -57 -260 -92 -463 -93 -227 0 -311 -66
-217 -170 79 -87 185 -118 444 -130 336 -15 343 -21 337 -316 -6 -319 35 -298
-697 -354 -227 -17 -264 9 -290 208 -6 46 -16 95 -21 110 -21 54 -57 232 -69
332 -25 226 -64 410 -116 542 -60 152 -48 263 31 310 40 23 295 63 520 83 99
8 223 19 275 24 131 13 222 7 275 -19z"/>
<path d="M2987 1566 c-61 -22 -97 -73 -97 -139 0 -37 -45 -131 -83 -175 -22
-26 -56 -72 -75 -102 -42 -67 -250 -281 -347 -358 -38 -30 -90 -74 -115 -97
-25 -24 -65 -55 -90 -70 -25 -15 -70 -51 -101 -79 -84 -76 -230 -181 -308
-221 -47 -23 -83 -51 -112 -85 -29 -34 -67 -64 -113 -88 -74 -39 -116 -85
-116 -128 0 -24 0 -24 135 -24 111 0 135 3 135 15 0 64 34 85 241 145 129 37
191 61 246 94 41 24 111 56 157 70 57 18 103 41 148 74 37 27 88 56 115 66 82
29 149 63 184 94 40 33 73 52 150 86 31 13 81 46 111 74 31 27 82 64 115 81
32 17 88 57 123 88 36 31 94 69 130 85 36 16 87 46 115 67 27 21 71 51 97 65
100 58 118 107 68 192 -45 79 -83 110 -213 176 -193 96 -389 133 -500 94z"/>
<path d="M4820 1553 c-56 -21 -65 -84 -26 -170 24 -51 91 -121 313 -328 107
-100 195 -189 281 -283 31 -35 84 -92 117 -127 33 -34 105 -114 160 -176 135
-153 225 -240 316 -305 73 -51 101 -87 111 -139 5 -30 308 -37 308 -7 0 40 31
105 73 155 60 71 67 99 62 248 -5 151 -4 147 -98 291 -77 116 -145 187 -257
270 -36 27 -86 65 -113 86 -27 22 -76 47 -116 60 -42 14 -95 42 -135 72 -45
32 -94 58 -149 75 -45 15 -116 47 -157 70 -88 50 -173 78 -323 104 -82 15
-120 27 -155 50 -86 55 -159 74 -212 54z"/>
</g>
</svg>
