<svg xmlns="http://www.w3.org/2000/svg" viewBox="0 0 706.415769 721.665675">
<g transform="translate(-15.323269,721.665675) scale(0.100000,-0.100000)" fill="#000000" stroke="none">
<path d="M5255 7211 c-117 -29 -140 -101 -75 -241 62 -134 65 -162 64 -550 0
-383 -5 -421 -64 -492 -66 -80 -188 -114 -592 -163 -314 -38 -312 -40 -322
390 -8 340 -15 403 -55 519 -59 170 -73 184 -247 240 -151 49 -192 47 -277
-11 -74 -51 -81 -92 -36 -195 17 -38 41 -117 53 -176 13 -59 42 -159 64 -222
41 -113 92 -396 92 -505 0 -82 -60 -149 -143 -159 -23 -2 -109 -12 -192 -21
-82 -10 -231 -19 -330 -22 -219 -5 -241 -8 -271 -38 -52 -52 -22 -103 108
-182 116 -70 141 -77 272 -70 85 4 149 15 271 47 308 79 381 59 406 -113 64
-447 46 -500 -181 -518 -58 -4 -222 -19 -365 -33 -309 -30 -589 -46 -815 -46
-220 0 -290 -22 -290 -91 0 -37 20 -57 135 -139 170 -121 272 -138 603 -100
169 20 267 37 522 93 137 31 362 57 515 60 164 3 176 -6 246 -184 81 -205 91
-240 87 -296 -9 -107 -49 -123 -389 -153 -129 -11 -289 -29 -355 -40 -168 -28
-205 -26 -331 16 -183 60 -325 56 -370 -12 -28 -44 -17 -72 129 -326 51 -89
56 -105 93 -338 14 -85 43 -224 64 -310 50 -196 67 -298 81 -480 18 -235 38
-339 88 -452 16 -35 41 -101 57 -148 56 -168 124 -184 272 -63 56 46 112 61
268 73 137 10 177 16 450 75 115 25 214 40 305 45 74 5 226 14 338 21 277 17
339 0 442 -122 72 -86 112 -93 221 -38 72 36 102 72 129 156 12 37 44 115 71
173 26 58 62 157 79 220 17 63 43 134 58 158 64 103 82 141 98 207 22 90 35
121 83 195 41 64 55 96 92 218 12 40 44 107 71 150 27 42 58 109 69 147 12 39
32 106 46 150 65 210 65 213 -32 333 -82 102 -97 114 -211 157 -51 21 -114 53
-139 72 -92 70 -286 124 -389 108 -141 -21 -265 -52 -364 -91 -142 -55 -330
-104 -400 -104 -113 0 -152 45 -152 178 0 68 -4 90 -30 144 -35 73 -37 111
-10 155 26 44 58 50 295 57 110 4 270 13 355 22 265 25 849 30 1075 8 333 -32
449 -24 541 39 104 70 108 146 13 237 -162 155 -540 245 -819 195 -170 -30
-266 -43 -402 -55 -73 -6 -180 -18 -238 -26 -290 -39 -304 -20 -256 346 42
320 42 319 777 320 426 0 426 0 460 23 95 64 60 226 -61 287 -14 7 -56 36 -95
65 -97 73 -124 80 -290 80 -146 -1 -274 -22 -401 -65 -168 -58 -212 10 -133
205 23 57 52 158 69 236 16 77 42 167 61 210 74 168 26 324 -142 458 -89 71
-322 126 -424 102z m-186 -1686 c47 -41 55 -99 42 -338 -18 -333 -28 -347
-281 -366 -74 -6 -199 -16 -278 -23 -252 -20 -255 -14 -254 514 0 141 47 164
413 203 81 9 159 20 175 25 64 19 150 12 183 -15z m634 -1818 c64 -26 139
-110 158 -174 26 -90 16 -215 -39 -473 -28 -129 -58 -291 -66 -360 -18 -138
-38 -222 -84 -352 -69 -193 -104 -216 -246 -163 -98 37 -199 25 -389 -46 -121
-45 -198 -35 -232 31 -18 35 -22 410 -5 472 15 54 57 84 137 97 37 7 106 21
153 32 47 12 124 29 171 39 171 36 232 98 184 190 -41 80 -276 140 -457 116
-149 -19 -189 52 -167 294 16 170 17 177 50 215 51 58 99 68 451 95 256 19
310 17 381 -13z m-1278 -120 c47 -47 54 -87 57 -299 4 -252 1 -255 -232 -302
-69 -14 -161 -30 -205 -36 -83 -11 -115 -25 -140 -63 -35 -55 -26 -111 26
-149 37 -28 217 -50 344 -43 117 7 156 -6 190 -65 18 -32 20 -52 20 -262 0
-295 -6 -305 -210 -328 -55 -6 -149 -20 -210 -31 -298 -57 -340 -7 -375 446
-26 330 -71 586 -156 881 -34 117 13 173 163 194 49 7 192 29 318 50 304 50
366 51 410 7z"/>
<path d="M2243 6900 c-100 -24 -136 -79 -132 -207 8 -244 -32 -467 -113 -628
-25 -49 -67 -169 -88 -252 -6 -24 -30 -72 -55 -107 -56 -83 -72 -113 -95 -190
-11 -35 -32 -81 -47 -102 -15 -21 -41 -60 -59 -86 -17 -26 -43 -81 -58 -124
-16 -49 -42 -98 -70 -133 -24 -31 -60 -89 -80 -129 -20 -40 -61 -99 -91 -132
-30 -32 -63 -76 -73 -97 -11 -21 -45 -66 -76 -101 -31 -35 -67 -84 -80 -111
-14 -26 -52 -80 -86 -121 -34 -40 -70 -90 -80 -111 -11 -21 -44 -64 -73 -96
-30 -32 -70 -84 -90 -115 -44 -69 -89 -120 -346 -386 -302 -315 -347 -390
-256 -428 42 -17 69 -8 133 45 26 21 73 53 104 70 32 18 82 54 110 80 29 26
82 68 118 93 36 25 74 56 85 68 11 13 52 48 90 78 39 31 93 79 122 107 28 27
94 91 147 140 157 146 306 297 338 341 32 44 150 146 191 165 37 17 74 4 94
-34 37 -69 15 -1296 -27 -1482 -39 -174 -73 -419 -95 -688 -18 -222 -42 -353
-90 -503 -59 -180 -68 -255 -62 -529 5 -272 13 -315 91 -480 24 -49 51 -111
61 -138 34 -89 154 -197 220 -197 65 0 106 81 172 340 60 238 60 231 73 1800
11 1400 13 1481 54 1650 31 127 32 144 5 223 -42 125 -88 209 -148 272 -113
117 -109 232 10 363 27 30 65 86 84 126 19 39 58 101 87 138 29 37 64 95 78
130 14 34 47 90 74 123 27 33 66 96 86 140 21 44 56 102 79 130 22 27 53 81
68 120 28 76 65 136 108 175 15 14 44 55 65 91 22 36 47 72 56 80 69 56 95
170 54 236 -41 67 -142 182 -191 218 -28 20 -70 53 -92 74 -82 75 -211 114
-304 91z"/>
<path d="M3895 1448 c-53 -29 -85 -75 -156 -230 -61 -133 -84 -172 -134 -227
-33 -36 -71 -82 -84 -101 -73 -104 -483 -482 -605 -555 -80 -49 -103 -77 -131
-163 -9 -29 -35 -73 -56 -98 -53 -62 -51 -74 11 -74 50 0 50 0 50 40 0 52 30
71 150 99 117 27 173 49 288 115 53 30 123 65 154 77 31 12 80 41 109 66 29
24 86 62 128 83 42 21 100 59 129 84 30 26 84 64 120 85 37 22 85 58 107 81
22 23 60 56 85 72 25 17 68 53 97 81 28 27 86 68 129 91 100 53 136 97 142
172 5 56 5 56 -94 150 -55 52 -111 101 -127 110 -76 41 -267 67 -312 42z"/>
<path d="M5280 1408 c-71 -48 -42 -147 79 -269 217 -220 326 -342 401 -449 29
-41 69 -93 90 -115 21 -22 55 -67 76 -100 21 -33 59 -82 84 -110 25 -27 63
-71 84 -97 21 -26 71 -68 111 -93 42 -26 99 -73 130 -108 64 -73 62 -73 147
28 86 101 102 141 106 261 7 183 -26 321 -94 394 -24 26 -65 76 -92 111 -37
50 -61 72 -114 99 -36 19 -90 55 -120 79 -29 24 -89 61 -133 81 -44 21 -104
58 -133 83 -52 46 -85 59 -244 102 -32 9 -88 37 -132 66 -96 65 -185 79 -246
37z"/>
</g>
</svg>
