<svg xmlns="http://www.w3.org/2000/svg" viewBox="0 0 448.843024 451.868504">
<g transform="translate(0.000000,451.925394) scale(0.100000,-0.100000)" fill="#000000" stroke="none">
<path d="M3108 4503 c-45 -28 -52 -61 -26 -118 21 -47 22 -67 26 -298 2 -136
1 -272 -3 -303 -11 -88 -27 -100 -180 -129 -156 -31 -324 -55 -377 -55 -48 0
-94 23 -103 51 -4 11 -5 46 -3 77 5 90 -12 339 -29 430 -9 46 -24 93 -34 106
-24 30 -170 88 -235 94 -58 5 -104 -14 -130 -53 -22 -34 -13 -99 19 -134 38
-40 44 -59 67 -192 12 -68 34 -163 51 -210 50 -147 36 -210 -47 -223 -102 -16
-342 -37 -447 -40 -104 -2 -121 -5 -139 -23 -37 -37 -19 -65 69 -108 110 -54
187 -58 377 -16 229 51 253 43 281 -87 9 -42 23 -99 31 -126 20 -71 18 -111
-8 -141 -21 -23 -33 -27 -123 -35 -273 -25 -644 -51 -807 -56 -198 -6 -228
-13 -228 -59 0 -25 35 -59 73 -71 12 -3 49 -23 81 -43 58 -35 62 -36 178 -40
139 -4 270 10 411 43 145 35 240 46 419 53 132 5 161 3 181 -10 30 -20 107
-203 109 -262 4 -87 -31 -99 -366 -125 -71 -6 -156 -15 -190 -21 -55 -10 -74
-8 -181 17 -162 37 -210 37 -241 1 -13 -16 -24 -34 -24 -42 0 -12 52 -95 107
-170 15 -19 26 -57 33 -105 6 -41 26 -124 45 -185 34 -111 49 -191 60 -320 10
-116 24 -185 61 -291 18 -56 34 -110 34 -121 0 -30 75 -137 105 -151 39 -18
43 -16 95 38 47 49 50 50 107 50 72 0 221 22 333 50 91 22 429 49 621 50 l107
0 31 -32 c17 -17 31 -35 31 -39 0 -16 70 -49 105 -49 21 0 58 11 85 26 49 27
64 50 90 139 7 22 26 61 42 87 17 26 38 79 48 117 10 39 31 89 49 113 17 24
40 71 50 104 10 33 34 83 53 112 20 28 41 73 48 101 6 27 27 72 46 98 19 26
42 73 51 103 8 30 33 87 54 126 28 50 39 83 39 112 0 38 -6 47 -65 104 -47 44
-82 68 -123 83 -31 12 -75 33 -96 48 -41 29 -99 49 -194 67 -50 10 -74 8 -187
-13 -71 -14 -161 -37 -200 -51 -88 -31 -192 -55 -250 -58 -67 -2 -85 19 -85
100 0 36 -7 92 -16 123 -9 32 -14 69 -10 83 7 30 9 31 251 46 375 24 588 29
835 17 318 -14 373 -14 441 1 73 17 101 42 97 90 -2 30 -12 43 -56 79 -33 27
-73 48 -110 58 -31 9 -95 28 -142 43 -72 23 -101 27 -190 26 -60 -1 -152 -11
-215 -23 -122 -24 -481 -62 -505 -53 -34 12 -50 36 -50 74 0 54 76 298 100
323 20 19 35 20 389 25 l369 5 26 24 c30 28 35 83 11 118 -20 29 -141 113
-185 129 -73 27 -325 10 -409 -27 -54 -24 -73 -24 -94 -1 -25 27 -23 118 3
162 38 65 48 95 74 210 31 136 32 171 6 227 -26 58 -123 130 -188 138 -26 4
-63 11 -82 16 -53 13 -102 10 -132 -8z m-107 -1042 c22 -18 23 -24 21 -127 -4
-136 -18 -242 -37 -271 -8 -12 -32 -27 -52 -32 -53 -14 -366 -34 -403 -26 -44
10 -64 53 -56 125 4 31 2 89 -4 129 -9 64 -8 78 7 110 26 53 64 69 199 86 65
8 133 16 149 18 87 11 153 7 176 -12z m415 -1126 c114 -34 145 -128 109 -335
-8 -47 -21 -134 -29 -195 -9 -66 -27 -143 -45 -191 -16 -45 -35 -111 -41 -145
-22 -130 -40 -145 -121 -103 -48 24 -60 26 -124 20 -38 -4 -104 -16 -145 -27
-41 -11 -98 -23 -126 -26 -44 -4 -55 -2 -73 16 -19 19 -21 32 -21 156 0 137 7
172 40 193 16 10 257 67 372 87 41 8 78 37 78 64 0 27 -38 56 -115 87 -61 24
-85 28 -185 30 -112 3 -115 3 -139 30 -23 27 -23 32 -17 134 11 168 24 178
244 197 87 7 168 14 182 16 58 9 109 6 156 -8z m-843 -83 c17 -18 21 -39 27
-147 8 -144 5 -167 -21 -191 -19 -17 -195 -54 -262 -54 -87 0 -141 -51 -117
-111 18 -43 51 -51 214 -54 190 -3 185 1 188 -159 4 -182 3 -194 -16 -215 -10
-11 -36 -22 -60 -25 -22 -3 -86 -10 -141 -16 -55 -7 -125 -18 -155 -27 -101
-26 -132 5 -145 147 -4 41 -18 120 -30 175 -34 143 -53 257 -60 360 -5 64 -14
105 -31 142 -29 62 -21 93 30 117 33 15 198 48 331 65 44 6 94 13 110 15 59 8
117 -1 138 -22z"/>
<path d="M612 4010 c-29 -12 -42 -48 -30 -80 5 -14 33 -50 63 -80 30 -30 104
-110 165 -177 61 -67 123 -131 138 -143 86 -66 150 -108 175 -114 43 -10 99
10 139 51 67 69 84 147 53 250 -13 43 -27 61 -84 111 -57 49 -80 62 -135 76
-36 9 -86 29 -112 45 -52 33 -64 37 -184 51 -47 5 -103 12 -125 15 -22 3 -50
0 -63 -5z"/>
<path d="M0 2947 c0 -43 2 -48 33 -60 18 -8 58 -45 89 -83 92 -111 277 -287
355 -337 110 -71 142 -69 228 14 92 89 104 141 50 234 -47 81 -160 155 -285
186 -45 11 -99 26 -119 34 -67 26 -156 44 -253 51 l-98 7 0 -46z"/>
<path d="M1016 2219 c-14 -17 -26 -36 -26 -43 0 -7 -17 -39 -38 -72 -21 -32
-46 -79 -56 -104 -10 -25 -28 -59 -41 -76 -14 -18 -36 -57 -49 -89 -14 -31
-37 -70 -51 -87 -15 -17 -38 -54 -52 -82 -14 -28 -38 -65 -54 -83 -15 -18 -37
-53 -48 -79 -12 -26 -37 -64 -55 -85 -19 -21 -42 -51 -50 -67 -8 -16 -27 -37
-42 -47 -71 -46 -172 -137 -184 -164 -15 -37 -10 -76 23 -205 16 -60 40 -121
60 -155 19 -31 42 -74 51 -95 9 -21 34 -58 55 -81 21 -23 44 -51 50 -63 27
-50 133 -48 167 3 8 12 19 65 25 116 13 123 25 187 56 284 13 44 33 131 44
193 11 66 32 143 50 185 17 40 39 119 49 175 11 60 30 124 45 153 14 27 35 89
46 137 11 48 41 133 65 190 44 103 69 208 57 240 -16 42 -62 43 -97 1z"/>
<path d="M2202 920 c-61 -14 -86 -50 -107 -152 -6 -34 -69 -107 -216 -256
-146 -146 -271 -248 -368 -296 -59 -30 -91 -68 -91 -107 0 -25 4 -29 28 -29
56 1 163 30 239 65 43 21 105 48 137 61 33 13 69 33 81 44 11 10 50 33 86 49
36 16 71 37 79 46 7 9 44 34 82 56 37 22 68 44 68 49 0 4 24 23 53 40 28 18
66 45 82 61 17 16 58 42 91 58 116 56 157 137 92 182 -18 13 -51 39 -73 59
-31 28 -57 40 -115 53 -105 25 -111 25 -148 17z"/>
<path d="M3125 896 c-11 -8 -18 -26 -18 -45 0 -32 -2 -31 209 -232 66 -64 92
-93 229 -259 119 -145 197 -220 282 -270 45 -28 87 -50 93 -50 16 0 100 80
114 109 7 15 16 57 19 95 6 64 4 75 -29 150 -27 60 -50 95 -92 137 -32 31 -66
61 -78 67 -12 6 -40 27 -63 46 -23 19 -67 44 -99 56 -31 12 -77 37 -100 55
-30 23 -66 39 -114 50 -38 9 -92 27 -120 41 -56 28 -163 64 -194 64 -11 0 -29
-6 -39 -14z"/>
<path d="M1355 28 c-15 -22 -15 -23 16 -26 37 -4 43 0 34 27 -8 27 -30 27 -50
-1z"/>
</g>
</svg>
