<svg xmlns="http://www.w3.org/2000/svg" viewBox="0 0 734.480703 704.762287">
<g transform="translate(-16.244389,718.923365) scale(0.100000,-0.100000)" fill="#000000" stroke="none">
<path d="M4945 7175 c-93 -33 -107 -95 -46 -208 55 -101 63 -158 65 -472 2
-369 -11 -393 -204 -410 -101 -9 -211 -29 -418 -76 -315 -71 -315 -71 -322
256 -6 251 -10 267 -98 352 -83 81 -212 123 -375 123 -148 0 -194 -107 -102
-236 41 -57 49 -82 70 -224 9 -58 23 -132 31 -165 43 -165 -7 -219 -241 -255
-354 -55 -395 -71 -395 -147 0 -110 162 -156 506 -144 164 6 206 -28 223 -180
47 -419 57 -457 155 -557 99 -102 120 -108 224 -63 173 75 649 166 997 191
352 25 402 35 425 90 16 39 1 83 -58 168 -84 124 -90 165 -38 281 19 42 49
128 66 191 63 231 2 211 656 216 340 3 551 8 571 15 100 33 100 158 -1 245
-51 46 -241 162 -306 188 -101 41 -413 30 -507 -17 -146 -75 -223 -47 -223 80
0 96 17 156 66 230 69 105 77 159 34 243 -41 79 -95 118 -351 252 -83 43 -320
63 -404 33z m-60 -1395 c50 -47 54 -95 21 -300 -43 -272 -91 -305 -521 -360
-317 -41 -347 -19 -359 252 -13 306 24 342 394 388 91 11 199 27 240 35 110
20 193 15 225 -15z"/>
<path d="M1074 6430 c-29 -12 -54 -49 -54 -81 0 -38 49 -106 158 -218 54 -55
142 -150 197 -210 144 -160 278 -291 332 -324 26 -16 75 -51 110 -78 108 -82
193 -77 313 18 105 83 125 129 124 273 -1 170 -8 188 -121 298 -107 105 -121
113 -229 142 -44 11 -101 33 -129 47 -135 72 -166 84 -247 94 -46 6 -141 19
-211 30 -137 20 -209 23 -243 9z"/>
<path d="M6865 4866 c-170 -34 -312 -56 -461 -71 -159 -17 -199 -23 -519 -89
-172 -35 -240 -44 -510 -71 -82 -8 -213 -29 -290 -45 -151 -33 -575 -91 -825
-115 -159 -14 -306 -34 -444 -60 -153 -29 -682 -86 -976 -105 -91 -6 -228 -18
-305 -26 -77 -8 -206 -21 -288 -28 -186 -17 -209 -32 -182 -123 25 -84 64
-111 255 -169 158 -48 239 -51 380 -11 52 14 150 35 218 47 68 11 173 36 235
55 187 56 267 75 392 91 66 8 168 26 226 40 131 30 161 30 224 0 112 -52 137
-92 167 -267 37 -223 -3 -295 -177 -314 -33 -3 -116 -15 -185 -25 -501 -77
-634 -78 -825 -3 -155 60 -245 25 -245 -98 0 -55 20 -97 74 -158 55 -61 60
-73 85 -190 11 -48 35 -129 55 -179 44 -114 70 -247 91 -467 21 -223 37 -297
91 -431 24 -60 53 -143 64 -183 58 -207 215 -318 304 -215 109 126 68 112 376
133 80 6 226 24 325 40 382 64 1081 104 1168 67 18 -7 52 -34 74 -60 162 -184
393 -63 489 257 13 44 36 100 50 126 72 124 85 154 105 237 19 83 33 115 102
234 16 27 38 99 56 181 36 161 40 173 86 244 19 31 49 85 65 122 21 46 52 89
99 138 125 129 112 244 -36 314 -37 18 -86 48 -108 65 -58 48 -93 63 -191 86
-82 19 -111 31 -229 93 -135 70 -256 64 -440 -23 -68 -33 -124 -50 -230 -71
-77 -15 -189 -44 -250 -65 -164 -55 -278 -57 -301 -6 -4 10 -8 60 -8 113 -1
128 -32 192 -123 259 -75 55 -90 82 -68 117 24 36 74 53 156 53 98 0 377 26
596 55 544 73 1022 106 1635 112 494 5 529 7 558 24 80 49 75 198 -8 258 -16
11 -78 34 -138 50 -60 16 -129 37 -154 46 -61 23 -199 28 -285 11z m-1308
-1347 c40 -13 87 -65 103 -115 16 -46 8 -227 -13 -329 -9 -38 -21 -115 -27
-170 -56 -478 -151 -735 -271 -735 -12 0 -57 12 -101 27 -80 27 -80 27 -201 9
-67 -10 -153 -29 -191 -42 -176 -61 -229 -11 -230 220 -2 256 66 306 456 336
70 5 143 16 161 24 123 51 91 206 -53 263 -38 15 -79 18 -271 18 -246 0 -245
0 -277 59 -33 63 -14 260 31 328 31 46 64 59 186 74 58 7 138 18 176 24 159
27 448 31 522 9z m-1400 -186 c61 -32 73 -68 73 -218 0 -204 -18 -220 -282
-254 -87 -11 -170 -27 -185 -35 -96 -49 -94 -171 4 -222 34 -17 66 -22 199
-27 286 -11 308 -29 312 -247 6 -248 30 -237 -618 -287 -115 -9 -145 35 -160
230 -13 172 -34 306 -75 487 -74 325 -73 403 7 453 36 23 265 85 432 117 166
32 236 33 293 3z"/>
<path d="M223 4755 c-63 -27 -78 -98 -39 -180 28 -57 492 -534 560 -575 22
-13 62 -44 90 -68 74 -67 125 -86 221 -86 130 1 177 34 254 184 65 126 61 182
-28 345 -37 69 -38 70 -137 121 -54 28 -124 65 -154 82 -37 21 -120 47 -255
81 -110 28 -249 64 -310 81 -122 33 -155 36 -202 15z"/>
<path d="M1783 3548 c-17 -18 -41 -53 -53 -78 -12 -25 -40 -69 -62 -99 -23
-29 -57 -92 -78 -140 -20 -47 -55 -113 -77 -146 -22 -33 -54 -93 -71 -132 -16
-40 -53 -104 -81 -141 -27 -38 -63 -97 -79 -133 -16 -35 -50 -89 -77 -119 -26
-30 -63 -88 -82 -129 -18 -40 -53 -97 -77 -125 -24 -28 -60 -80 -81 -116 -45
-78 -195 -228 -275 -273 -206 -118 -242 -260 -126 -501 24 -50 56 -131 71
-181 33 -108 47 -136 95 -195 21 -25 55 -78 75 -119 32 -61 52 -84 118 -137
116 -94 146 -96 222 -16 89 92 94 111 145 561 12 107 33 185 93 352 19 52 40
131 47 175 22 153 42 229 90 349 27 66 56 158 65 205 35 183 46 224 94 327 27
60 58 149 70 198 29 128 72 248 125 355 49 99 59 168 35 239 -21 60 -79 68
-126 19z"/>
<path d="M3594 1531 c-26 -16 -37 -35 -63 -112 -22 -68 -45 -111 -84 -163 -30
-39 -69 -98 -87 -131 -61 -109 -488 -555 -605 -632 -38 -26 -92 -65 -120 -86
-27 -22 -83 -55 -122 -74 -113 -52 -142 -99 -87 -142 67 -52 201 -33 386 57
68 33 141 65 163 72 64 20 130 56 178 98 24 21 72 49 105 61 37 14 84 43 117
72 30 26 83 65 117 85 34 19 87 58 116 85 30 27 75 64 101 81 25 17 69 53 97
80 28 27 78 68 111 91 207 144 246 183 245 246 -1 91 -69 154 -275 257 -166
83 -228 95 -293 55z"/>
<path d="M5205 1468 c-84 -48 -64 -105 95 -268 57 -58 120 -127 140 -155 21
-27 57 -68 80 -90 23 -22 66 -71 95 -110 28 -38 62 -79 75 -90 12 -11 45 -54
73 -95 28 -41 67 -92 87 -115 21 -22 54 -66 75 -99 56 -87 220 -251 279 -277
81 -35 152 -37 225 -4 117 53 135 98 136 330 0 184 -9 217 -88 302 -24 26 -58
69 -76 95 -18 25 -54 61 -79 79 -26 18 -67 51 -92 72 -25 22 -81 56 -125 77
-44 21 -100 55 -125 77 -53 47 -100 72 -191 102 -36 12 -87 35 -112 51 -83 52
-108 62 -261 96 -166 37 -182 39 -211 22z"/>
</g>
</svg>
