<svg xmlns="http://www.w3.org/2000/svg" viewBox="0 0 880.785429 901.812711">
<g transform="translate(-20.977809,901.812711) scale(0.100000,-0.100000)" fill="#000000" stroke="none">
<path d="M6545 9005 c-117 -41 -137 -144 -61 -312 59 -130 67 -190 73 -528 14
-788 -17 -840 -537 -919 -629 -95 -680 -80 -680 206 -1 266 -28 721 -49 798
-70 270 -115 322 -341 395 -186 60 -282 46 -373 -54 -56 -62 -57 -94 -9 -214
22 -56 49 -148 61 -204 11 -56 41 -162 66 -235 99 -288 152 -673 106 -775 -24
-51 -86 -90 -168 -103 -149 -25 -468 -53 -668 -59 -235 -8 -277 -16 -309 -62
-41 -59 -8 -116 109 -194 201 -132 340 -140 715 -43 421 109 470 78 516 -327
42 -361 13 -430 -193 -455 -441 -56 -1406 -121 -1558 -106 -228 23 -380 -75
-288 -185 243 -289 634 -318 1518 -115 152 35 408 66 605 73 255 9 266 1 375
-267 164 -403 123 -475 -285 -510 -222 -18 -417 -40 -560 -62 -202 -30 -261
-27 -405 20 -254 84 -407 74 -460 -29 -28 -53 -6 -111 133 -348 84 -144 90
-163 132 -413 21 -128 59 -314 84 -413 55 -221 81 -362 96 -525 37 -416 50
-490 121 -663 23 -56 54 -139 69 -185 67 -194 157 -222 318 -101 107 81 128
87 449 119 56 5 225 35 374 65 312 63 430 76 1029 111 187 11 271 -19 407
-147 116 -110 166 -123 271 -74 112 52 148 96 200 245 17 47 51 130 77 185 25
55 67 169 91 254 47 161 58 189 106 259 40 58 61 108 101 238 23 78 51 142 94
215 42 71 74 143 102 229 23 69 57 152 76 185 77 134 105 198 144 331 22 76
49 166 61 198 39 115 22 187 -74 305 -101 126 -125 143 -273 202 -43 17 -118
57 -168 88 -195 126 -376 156 -633 106 -124 -24 -185 -43 -397 -120 -422 -154
-579 -125 -596 108 -5 76 -16 129 -38 194 -72 209 -28 251 273 265 179 8 497
28 788 49 272 19 883 15 1146 -9 414 -37 530 -25 636 68 178 156 28 340 -379
465 -279 86 -445 95 -755 41 -164 -29 -335 -50 -525 -66 -71 -6 -168 -18 -215
-26 -280 -47 -335 14 -291 326 75 531 32 508 976 513 514 2 531 3 565 23 136
80 106 254 -64 366 -50 33 -107 73 -128 89 -141 112 -491 120 -813 18 -240
-76 -294 8 -188 291 31 82 61 187 77 268 17 84 42 170 68 235 97 235 17 460
-218 616 -114 75 -402 124 -509 86z m-224 -2096 c69 -49 85 -200 59 -557 -19
-267 -58 -302 -375 -327 -99 -8 -230 -19 -291 -25 -313 -29 -324 -17 -336 389
-13 443 -10 447 442 496 129 15 264 32 300 40 86 19 161 13 201 -16z m805
-2274 c92 -45 168 -127 193 -209 41 -132 31 -257 -54 -654 -24 -114 -53 -277
-65 -362 -25 -184 -48 -286 -97 -435 -83 -254 -143 -302 -309 -245 -126 44
-271 27 -514 -59 -245 -88 -292 -30 -288 354 4 334 17 365 166 396 31 6 107
22 167 36 61 13 164 35 230 49 192 41 255 87 255 188 0 134 -269 230 -566 202
-192 -18 -239 61 -215 364 26 334 43 345 606 390 313 25 415 22 491 -15z
m-1628 -132 c77 -36 99 -113 108 -378 12 -338 -8 -355 -515 -430 -160 -24
-224 -71 -224 -167 0 -114 121 -158 453 -161 274 -3 287 -22 291 -430 3 -329
-21 -361 -292 -392 -74 -8 -170 -22 -214 -30 -407 -74 -444 -27 -500 635 -29
346 -93 712 -165 945 -62 198 -17 286 160 314 125 20 665 103 720 111 67 10
134 3 178 -17z"/>
<path d="M2800 8621 c-127 -41 -163 -102 -159 -266 8 -298 -34 -523 -145 -776
-30 -70 -69 -176 -86 -235 -35 -119 -54 -161 -110 -244 -50 -74 -64 -104 -102
-207 -18 -49 -54 -121 -84 -165 -65 -95 -78 -120 -121 -228 -18 -47 -62 -128
-97 -180 -35 -52 -80 -125 -100 -162 -20 -36 -64 -99 -97 -140 -34 -40 -81
-102 -104 -138 -23 -36 -65 -91 -93 -122 -27 -31 -71 -92 -97 -136 -26 -43
-69 -105 -97 -138 -28 -32 -75 -95 -104 -139 -29 -44 -79 -109 -110 -145 -32
-36 -74 -92 -95 -124 -63 -100 -312 -375 -544 -601 -180 -175 -274 -326 -237
-381 32 -48 97 -44 174 10 35 25 98 65 140 91 43 25 106 71 140 101 35 31 88
74 119 95 31 21 97 73 146 116 49 43 119 102 156 132 36 30 68 60 71 66 2 7
42 44 88 83 80 67 421 404 598 589 158 166 254 197 307 100 17 -30 18 -79 18
-652 0 -753 -14 -1000 -75 -1320 -34 -183 -69 -448 -90 -685 -29 -330 -48
-440 -120 -678 -106 -353 -110 -851 -10 -1122 200 -541 418 -693 540 -378 33
86 103 357 125 484 21 127 56 2201 55 3314 0 445 7 553 51 748 55 245 1 447
-169 635 -135 148 -138 294 -10 442 59 69 102 135 146 220 16 33 51 87 77 120
26 33 69 104 96 158 27 53 77 134 111 180 33 45 80 123 104 172 24 50 65 120
91 156 51 69 51 69 111 199 22 47 61 110 87 140 27 30 67 84 91 120 23 36 67
98 98 139 115 153 105 229 -56 420 -201 238 -474 383 -628 332z"/>
<path d="M4895 1818 c-64 -18 -134 -96 -179 -203 -80 -188 -153 -317 -223
-395 -37 -42 -84 -96 -103 -120 -47 -61 -260 -274 -400 -401 -205 -185 -224
-201 -321 -265 -130 -87 -164 -130 -176 -232 -8 -69 -4 -70 163 -31 175 40
246 66 362 135 52 31 137 76 189 100 53 25 131 70 173 102 43 31 113 76 156
100 44 23 113 70 154 103 41 33 104 77 140 99 36 21 105 75 155 120 49 44 92
80 96 80 3 0 50 38 104 84 53 47 129 101 167 121 152 80 215 194 164 293 -22
44 -218 226 -267 250 -101 49 -282 80 -354 60z"/>
<path d="M6615 1762 c-118 -72 -74 -174 197 -454 97 -101 187 -196 199 -213
13 -16 51 -62 85 -101 34 -40 76 -94 94 -120 18 -27 65 -87 105 -134 39 -47
94 -119 122 -160 84 -123 253 -303 341 -361 42 -29 109 -83 148 -120 89 -86
93 -86 180 5 208 216 211 622 6 863 -31 38 -75 91 -96 118 -51 65 -67 78 -156
127 -41 23 -102 63 -136 89 -33 26 -101 68 -150 92 -49 25 -123 71 -164 102
-88 67 -123 84 -256 120 -104 28 -152 49 -222 97 -102 70 -229 91 -297 50z"/>
<path d="M3406 38 c-23 -32 -20 -38 19 -38 32 0 35 2 35 30 0 37 -31 42 -54 8z"/>
</g>
</svg>
