<svg xmlns="http://www.w3.org/2000/svg" viewBox="0 0 942.404211 908.314671">
<g transform="translate(-16.561458,923.772550) scale(0.100000,-0.100000)" fill="#000000" stroke="none">
<path d="M7117 9225 c-113 -40 -144 -148 -91 -315 67 -214 90 -529 65 -885
-32 -441 -62 -483 -400 -546 -516 -97 -705 -106 -779 -36 -53 49 -53 50 -58
484 -8 717 -33 801 -276 895 -227 88 -357 86 -467 -8 -77 -67 -75 -137 10
-257 56 -81 63 -102 89 -275 18 -122 68 -333 131 -549 66 -229 54 -380 -34
-433 -38 -23 -93 -34 -247 -49 -63 -6 -171 -18 -240 -26 -69 -9 -215 -19 -325
-23 -219 -8 -244 -15 -288 -74 -85 -114 221 -300 468 -285 100 6 286 43 416
83 281 85 389 23 430 -246 6 -41 22 -126 35 -187 59 -277 9 -350 -252 -372
-60 -5 -251 -23 -424 -40 -377 -36 -597 -50 -990 -61 -268 -7 -305 -10 -410
-35 -167 -39 -195 -32 -310 84 -68 68 -106 96 -181 135 -52 27 -121 67 -155
87 -325 204 -494 96 -384 -246 56 -174 54 -204 -33 -462 -51 -153 -74 -208
-115 -270 -28 -43 -69 -118 -92 -166 -23 -48 -71 -124 -106 -168 -35 -44 -80
-111 -99 -148 -19 -37 -61 -98 -91 -137 -31 -38 -81 -106 -110 -152 -30 -46
-74 -104 -98 -130 -24 -26 -62 -74 -85 -107 -47 -68 -193 -237 -291 -336 -36
-36 -121 -128 -190 -204 -69 -77 -154 -169 -190 -205 -36 -37 -96 -102 -135
-145 -70 -78 -231 -221 -393 -348 -48 -38 -103 -84 -123 -104 -41 -39 -143
-219 -133 -235 26 -42 320 61 474 167 47 33 120 78 162 102 43 24 115 71 160
106 46 34 112 80 148 101 36 22 100 68 144 103 43 35 108 81 145 103 36 22
100 68 142 102 41 35 94 76 118 92 23 16 72 65 108 109 112 135 213 145 274
26 62 -122 65 -745 4 -1128 -13 -86 -33 -240 -45 -343 -22 -197 -32 -240 -119
-488 -51 -147 -66 -216 -115 -547 -52 -350 -12 -571 155 -854 110 -186 177
-241 269 -220 123 28 192 123 215 296 4 28 19 115 35 195 37 188 48 357 60
905 38 1737 44 1928 70 2075 38 220 24 323 -58 430 -148 195 -153 276 -24 427
33 37 83 106 111 153 29 47 74 110 100 140 27 30 70 89 96 130 26 41 74 107
105 145 32 39 76 102 98 141 23 40 67 103 98 140 31 38 77 101 102 139 217
337 283 372 456 240 228 -173 545 -180 1226 -25 257 58 294 64 571 90 434 41
490 9 580 -335 91 -349 49 -395 -395 -435 -240 -22 -413 -42 -546 -65 -125
-22 -177 -19 -285 15 -448 144 -664 55 -475 -195 45 -59 75 -121 131 -270 111
-299 116 -315 154 -620 28 -223 29 -230 90 -510 52 -238 68 -329 95 -535 28
-217 34 -238 108 -390 129 -265 181 -289 327 -150 81 77 110 90 223 101 53 5
144 14 202 20 58 5 209 32 335 59 340 72 374 76 980 110 99 6 192 12 207 15
92 15 185 -25 296 -128 137 -126 201 -144 311 -84 121 65 169 128 206 272 42
161 55 195 106 285 26 47 60 126 74 175 54 182 66 213 125 315 41 71 73 145
100 230 21 69 56 152 76 185 76 124 85 143 125 265 27 84 58 154 94 215 86
141 153 388 142 518 -13 151 -135 284 -341 373 -49 21 -123 60 -165 87 -235
154 -546 167 -896 40 -327 -119 -423 -143 -567 -143 -165 0 -197 34 -209 224
-4 66 -15 148 -23 181 -53 206 -1 248 334 265 113 5 313 20 445 32 306 28
1058 32 1375 8 524 -40 731 -7 786 126 75 180 -166 345 -658 451 -136 30 -352
24 -568 -15 -172 -30 -348 -55 -485 -67 -38 -3 -131 -13 -205 -21 -332 -39
-405 31 -326 316 14 52 35 149 47 215 32 189 66 244 169 276 22 7 269 15 670
23 608 11 636 12 670 31 73 42 98 152 55 236 -33 63 -292 250 -390 282 -150
48 -520 19 -684 -53 -243 -106 -313 51 -166 370 65 140 57 113 105 366 71 373
47 479 -144 630 -97 77 -135 92 -333 133 -174 35 -165 35 -216 16z m-247
-2111 c71 -41 75 -55 73 -255 -5 -521 -53 -603 -373 -629 -63 -6 -160 -15
-215 -20 -372 -37 -429 0 -430 280 -1 85 -5 209 -9 275 -17 260 50 293 739
368 83 10 182 1 215 -19z m768 -2259 c219 -55 273 -242 203 -705 -17 -113 -38
-270 -46 -350 -19 -172 -45 -296 -86 -417 -16 -48 -47 -154 -68 -234 -68 -259
-111 -300 -241 -234 -136 69 -276 61 -539 -29 -140 -49 -250 -27 -290 58 -30
61 -31 497 -2 561 36 78 91 111 236 141 92 19 353 82 435 105 149 42 188 178
72 253 -126 83 -325 122 -488 97 -208 -33 -261 79 -225 480 19 206 54 227 440
260 135 11 284 24 331 29 98 9 192 4 268 -15z m-1606 -152 c95 -38 124 -113
140 -366 14 -234 -2 -286 -103 -338 -57 -29 -268 -77 -393 -89 -160 -16 -225
-51 -247 -133 -40 -150 87 -206 472 -207 241 0 264 -33 274 -396 10 -395 21
-387 -618 -464 -308 -37 -343 -3 -362 345 -10 186 -51 484 -90 655 -58 251
-73 328 -89 450 -9 63 -22 151 -30 195 -39 215 -14 231 489 314 400 67 465 71
557 34z"/>
<path d="M2717 8798 c-97 -26 -116 -79 -115 -323 1 -242 -11 -299 -101 -480
-38 -77 -82 -174 -97 -215 -32 -89 -43 -107 -105 -180 -25 -30 -68 -89 -94
-130 -27 -41 -69 -100 -95 -130 -25 -30 -79 -100 -120 -155 -86 -117 -606
-639 -740 -743 -47 -37 -107 -86 -135 -111 -27 -24 -94 -73 -148 -108 -100
-66 -127 -98 -127 -150 0 -128 186 -115 419 31 47 29 122 72 166 95 44 24 118
71 165 105 47 35 120 83 164 107 43 24 110 71 150 105 39 33 100 80 136 104
36 24 92 69 125 100 33 31 87 77 120 102 57 44 442 434 501 508 15 19 58 67
94 105 37 39 92 109 123 157 30 47 71 103 90 125 19 21 64 76 101 123 37 47
102 115 144 151 227 194 176 371 -188 654 -188 146 -303 187 -433 153z"/>
<path d="M5449 2017 c-125 -47 -174 -109 -225 -284 -31 -108 -53 -149 -117
-226 -29 -34 -82 -100 -119 -147 -129 -166 -447 -472 -628 -605 -90 -66 -191
-140 -224 -165 -89 -66 -201 -235 -175 -266 37 -44 446 82 609 188 47 30 127
74 179 97 52 23 126 65 165 95 39 29 107 72 151 95 44 23 109 66 145 97 36 31
95 75 131 99 37 24 92 66 123 94 31 28 98 82 149 121 50 38 119 92 152 120 33
27 90 66 128 86 113 59 176 141 177 227 1 190 -426 447 -621 374z"/>
<path d="M7143 1965 c-116 -50 -56 -163 259 -490 90 -93 179 -190 198 -215 19
-25 61 -74 94 -110 32 -36 81 -99 109 -140 28 -41 77 -106 109 -143 32 -38 77
-96 99 -129 23 -33 71 -93 108 -132 37 -39 86 -94 109 -122 112 -137 279 -214
385 -178 145 49 182 132 182 404 -1 242 -9 273 -104 393 -31 40 -81 105 -111
146 -38 52 -79 92 -144 141 -50 37 -113 86 -141 109 -27 23 -104 69 -170 102
-66 33 -155 84 -197 114 -57 40 -101 61 -165 80 -49 15 -110 33 -138 42 -27 8
-86 37 -130 64 -121 73 -269 100 -352 64z"/>
</g>
</svg>
