<svg xmlns="http://www.w3.org/2000/svg" viewBox="0 0 458.928663 440.697649">
<g transform="translate(-10.071337,449.793587) scale(0.100000,-0.100000)" fill="#000000" stroke="none">
<path d="M3115 4491 c-87 -21 -100 -54 -55 -135 31 -54 33 -65 40 -197 12
-222 0 -317 -42 -340 -11 -6 -59 -14 -107 -19 -48 -5 -145 -23 -215 -40 -221
-52 -226 -49 -226 160 0 144 -5 164 -62 216 -55 52 -94 67 -194 72 -83 4 -93
3 -113 -17 -29 -29 -26 -66 9 -122 24 -37 35 -73 51 -165 12 -66 21 -132 21
-147 -1 -54 -34 -76 -147 -93 -243 -39 -255 -43 -255 -99 0 -28 6 -37 28 -49
48 -24 135 -37 250 -35 89 1 116 -2 136 -15 31 -19 31 -21 56 -208 10 -82 26
-164 35 -183 21 -44 98 -115 125 -115 12 0 37 8 58 19 92 46 396 104 641 121
190 14 220 19 243 42 26 26 19 55 -33 128 -47 67 -50 108 -15 178 13 26 31 81
41 122 11 46 27 83 41 97 l23 23 340 0 c198 0 350 4 366 10 29 11 49 53 40 87
-3 13 -18 36 -33 53 -41 44 -188 129 -246 142 -80 17 -225 4 -290 -27 -62 -29
-74 -30 -104 -9 -43 30 -24 163 31 222 17 18 22 36 22 76 0 68 -41 122 -122
161 -32 15 -70 36 -86 47 -15 11 -62 26 -105 34 -85 15 -103 15 -147 5z m-55
-881 c24 -24 26 -71 5 -189 -31 -172 -63 -193 -351 -223 -179 -19 -192 -6
-196 182 -4 178 8 189 256 221 83 11 156 21 161 23 6 3 31 5 58 5 34 1 52 -4
67 -19z"/>
<path d="M655 4005 c-14 -13 -25 -31 -25 -39 0 -16 56 -85 123 -153 23 -23 69
-71 102 -108 128 -142 234 -234 321 -281 45 -23 92 -12 154 37 62 49 80 88 80
171 0 97 -12 124 -85 194 -60 58 -108 84 -153 84 -7 0 -48 18 -90 40 -63 33
-93 42 -167 50 -49 6 -114 15 -144 20 -78 14 -89 13 -116 -15z"/>
<path d="M4225 3029 c-49 -10 -151 -25 -225 -33 -74 -8 -187 -26 -250 -40
-146 -32 -216 -42 -364 -56 -65 -6 -160 -20 -210 -31 -91 -20 -390 -61 -541
-74 -44 -4 -143 -17 -220 -30 -162 -27 -460 -60 -690 -75 -88 -6 -167 -13
-176 -16 -9 -2 -67 -8 -128 -13 -127 -9 -147 -19 -136 -69 11 -52 45 -78 141
-107 119 -37 158 -40 235 -20 35 9 107 25 159 35 52 10 142 31 200 48 58 17
158 38 224 47 65 9 130 21 143 26 40 15 86 10 127 -14 61 -34 74 -61 88 -169
18 -143 -2 -171 -128 -187 -38 -5 -141 -19 -229 -31 -199 -27 -293 -24 -385
15 -56 24 -69 26 -101 16 -72 -22 -76 -98 -8 -174 30 -35 42 -60 54 -113 8
-38 24 -93 35 -123 29 -73 46 -164 60 -310 11 -123 17 -145 83 -333 50 -140
89 -188 154 -188 23 0 37 7 50 26 47 69 50 70 173 77 63 4 169 16 235 27 66
11 167 24 225 30 143 14 469 28 508 22 21 -3 47 -20 75 -49 53 -54 110 -67
164 -36 48 27 111 118 134 195 11 37 33 86 49 110 16 24 38 77 49 119 11 43
34 99 51 125 19 32 37 83 50 144 14 62 32 114 54 150 18 30 38 69 45 86 7 17
32 50 56 73 77 73 72 152 -14 192 -25 13 -62 36 -82 51 -23 18 -65 36 -112 48
-42 10 -102 34 -134 52 -50 29 -67 33 -128 33 -59 0 -82 -6 -150 -37 -44 -20
-111 -42 -150 -49 -38 -6 -109 -25 -157 -40 -97 -32 -169 -37 -188 -14 -9 10
-11 31 -6 62 10 77 -15 136 -80 184 -59 43 -58 42 -44 69 14 26 68 39 169 39
85 1 166 9 361 36 250 36 578 57 942 62 344 5 368 7 387 25 15 13 21 31 21 63
0 61 -34 100 -100 114 -28 6 -77 20 -110 31 -71 24 -134 24 -255 -1z m-713
-858 c30 -33 30 -34 25 -130 -5 -106 -40 -371 -62 -468 -19 -82 -71 -190 -101
-210 -22 -14 -28 -14 -83 7 -55 20 -66 21 -133 10 -40 -6 -101 -21 -135 -33
l-62 -22 -28 21 c-34 25 -41 49 -42 141 -2 147 37 185 206 204 54 6 117 13
140 15 114 13 124 118 15 166 -40 18 -66 21 -183 21 -75 -1 -140 2 -146 5 -33
22 -41 91 -22 180 15 74 39 91 145 103 49 6 116 14 149 19 33 4 111 8 173 7
l114 -2 30 -34z m-917 -85 c38 -16 41 -24 49 -135 6 -85 -7 -122 -51 -139 -15
-6 -77 -18 -136 -26 -125 -16 -147 -29 -147 -87 0 -29 6 -43 31 -63 28 -24 38
-26 127 -26 181 0 202 -16 207 -152 5 -144 -1 -148 -230 -168 -71 -6 -144 -13
-161 -16 -23 -4 -38 0 -59 18 -25 22 -28 32 -36 124 -9 104 -21 180 -64 384
-28 135 -25 183 13 206 39 25 316 90 390 93 18 1 48 -5 67 -13z"/>
<path d="M120 2960 c-23 -23 -26 -64 -6 -101 21 -41 326 -347 374 -375 23 -14
42 -29 42 -34 0 -4 21 -18 46 -30 36 -18 57 -21 99 -17 29 3 64 12 77 21 29
19 98 145 98 179 0 14 -16 60 -35 102 -33 72 -37 77 -90 100 -30 14 -72 36
-93 49 -20 14 -75 34 -122 45 -47 11 -134 33 -194 50 -129 36 -168 39 -196 11z"/>
<path d="M1113 2218 c-11 -13 -29 -39 -38 -58 -10 -19 -28 -48 -41 -65 -12
-16 -30 -50 -40 -75 -10 -25 -30 -63 -44 -85 -15 -22 -37 -62 -49 -89 -12 -28
-32 -64 -45 -80 -13 -17 -37 -58 -54 -91 -16 -33 -40 -69 -52 -80 -13 -11 -33
-43 -46 -72 -13 -28 -36 -66 -52 -85 -16 -18 -37 -49 -47 -68 -23 -44 -129
-147 -188 -182 -26 -15 -60 -46 -77 -69 -44 -61 -42 -120 8 -225 22 -43 45
-103 52 -132 7 -30 27 -72 44 -95 18 -23 44 -65 60 -93 29 -54 121 -134 154
-134 11 0 40 22 65 50 50 56 57 81 77 285 12 124 22 165 56 246 13 31 33 109
44 173 11 64 32 141 45 173 27 59 49 138 59 213 4 24 22 79 41 120 19 42 41
107 50 144 19 83 55 179 84 226 23 38 29 117 11 151 -14 26 -52 24 -77 -3z"/>
<path d="M2242 953 c-11 -10 -27 -41 -37 -70 -9 -28 -31 -71 -49 -95 -17 -24
-44 -63 -59 -88 -30 -51 -212 -249 -303 -331 -82 -73 -179 -142 -236 -167 -61
-27 -76 -54 -47 -83 19 -19 29 -21 88 -15 44 4 87 16 128 36 34 17 94 44 133
60 39 16 86 41 103 56 17 14 54 36 81 49 28 12 60 32 71 45 11 12 37 31 58 42
22 11 58 36 80 57 23 21 58 48 77 61 19 13 44 34 55 47 11 13 39 35 61 50 91
61 146 107 155 130 22 58 -35 119 -184 194 -86 43 -142 50 -175 22z"/>
<path d="M3241 911 c-35 -35 -26 -57 67 -156 134 -143 254 -284 300 -352 23
-34 47 -65 52 -68 6 -4 23 -25 37 -48 42 -68 144 -165 190 -183 81 -31 170 -4
202 62 20 40 21 239 2 274 -51 91 -192 224 -277 260 -26 12 -64 36 -85 55 -21
19 -61 41 -89 49 -29 9 -75 29 -102 46 -31 20 -83 38 -137 50 -47 10 -98 21
-113 25 -19 5 -32 1 -47 -14z"/>
</g>
</svg>
