<svg xmlns="http://www.w3.org/2000/svg" viewBox="0 0 897.725049 895.580461">
<g transform="translate(0.000000,904.741027) scale(0.100000,-0.100000)" fill="#000000" stroke="none">
<path d="M6283 9036 c-137 -43 -169 -128 -113 -303 52 -161 75 -606 51 -988
-20 -320 -51 -372 -243 -410 -1023 -202 -1092 -191 -1094 170 -3 504 -41 857
-106 984 -52 102 -334 221 -523 221 -238 0 -316 -176 -172 -390 60 -88 76
-137 112 -335 34 -191 76 -360 122 -488 95 -268 40 -380 -202 -412 -323 -42
-593 -67 -780 -74 -221 -8 -247 -13 -290 -60 -58 -65 -9 -130 160 -211 230
-111 405 -108 897 16 258 65 349 8 398 -251 7 -33 25 -113 42 -178 83 -329 48
-361 -433 -402 -774 -65 -1068 -84 -1459 -94 -329 -8 -361 -15 -396 -82 -35
-69 1 -122 124 -183 40 -20 102 -54 137 -76 167 -102 367 -121 777 -74 130 15
206 29 583 107 316 66 875 101 986 62 107 -38 259 -353 259 -535 -1 -169 -73
-194 -720 -250 -129 -11 -275 -27 -325 -35 -172 -28 -312 -13 -584 61 -204 56
-332 17 -348 -107 -7 -50 31 -128 122 -251 104 -140 118 -178 150 -379 8 -53
31 -150 51 -215 83 -267 112 -404 134 -634 29 -308 61 -475 121 -643 22 -60
51 -155 65 -211 81 -322 257 -448 408 -291 86 88 103 95 286 111 218 19 296
30 535 79 294 60 389 73 635 85 118 6 289 15 380 20 459 25 491 20 615 -105
217 -220 459 -147 565 170 23 68 63 161 92 211 52 91 77 152 104 258 16 63 50
132 113 234 22 35 56 113 76 173 24 70 54 135 85 184 66 100 74 116 119 246
23 65 58 139 84 178 61 91 79 130 120 247 19 55 63 156 98 225 106 211 99 278
-45 427 -102 106 -139 130 -266 178 -50 18 -123 54 -162 80 -286 185 -640 192
-1153 24 -575 -189 -685 -171 -698 110 -4 76 -14 154 -26 200 -59 217 -37 232
383 260 160 11 392 28 516 37 272 22 1111 24 1415 5 490 -32 641 -26 792 30
233 86 110 328 -217 428 -550 167 -620 172 -1095 90 -340 -59 -919 -118 -984
-100 -110 29 -146 128 -102 280 73 255 126 421 147 457 54 94 93 99 974 111
545 7 545 7 589 32 107 61 120 181 31 283 -61 69 -283 213 -360 234 -162 43
-582 15 -782 -54 -243 -83 -314 86 -162 389 67 133 164 506 164 629 0 241
-180 402 -529 473 -194 40 -190 40 -248 22z m-327 -2100 c92 -43 98 -68 84
-343 -25 -476 -53 -526 -307 -544 -65 -4 -188 -15 -273 -24 -491 -50 -503 -42
-516 320 -11 337 -11 355 13 400 55 104 120 129 423 165 102 12 228 28 280 35
158 21 237 19 296 -9z m792 -2246 c316 -52 380 -219 293 -773 -23 -144 -50
-318 -60 -387 -13 -81 -39 -186 -76 -300 -31 -96 -69 -232 -85 -302 -52 -232
-85 -256 -254 -188 -144 58 -322 45 -665 -51 -255 -71 -289 -32 -292 336 -4
395 -34 373 685 520 203 41 256 73 256 155 0 56 -39 96 -135 141 -162 76 -189
81 -415 89 -324 10 -357 45 -332 355 14 174 25 208 82 266 74 74 103 80 540
115 113 9 237 20 275 24 105 11 115 11 183 0z m-1683 -151 c99 -28 122 -88
136 -354 20 -385 1 -401 -536 -461 -191 -21 -265 -68 -265 -168 0 -131 101
-167 470 -170 331 -2 330 0 336 -391 6 -377 -9 -398 -291 -424 -190 -18 -375
-41 -439 -56 -218 -52 -283 18 -316 340 -6 61 -22 160 -36 220 -86 380 -107
503 -129 745 -18 193 -27 239 -62 320 -98 225 -6 276 672 370 310 43 392 48
460 29z"/>
<path d="M1233 8009 c-114 -56 -94 -150 70 -320 56 -58 152 -161 212 -229 164
-185 353 -381 405 -418 338 -247 451 -266 610 -102 279 287 99 741 -345 870
-61 17 -147 51 -193 76 -116 62 -209 90 -342 104 -63 6 -149 18 -190 26 -107
20 -177 18 -227 -7z"/>
<path d="M0 5876 c0 -83 0 -83 32 -90 52 -10 100 -51 186 -154 173 -208 584
-600 718 -685 238 -149 318 -145 488 27 189 192 185 392 -12 578 -113 107
-292 203 -454 243 -57 15 -172 48 -256 75 -232 75 -318 90 -526 90 -176 0
-176 0 -176 -84z"/>
<path d="M2051 4445 c-24 -22 -59 -73 -87 -128 -26 -51 -60 -111 -76 -135 -17
-24 -51 -87 -76 -140 -25 -53 -68 -133 -95 -177 -28 -44 -74 -129 -103 -190
-29 -60 -77 -143 -108 -184 -30 -40 -76 -115 -102 -165 -26 -50 -71 -122 -100
-159 -29 -37 -74 -108 -100 -156 -25 -49 -72 -120 -103 -159 -31 -38 -77 -99
-103 -135 -26 -37 -75 -88 -109 -114 -369 -284 -410 -353 -344 -574 14 -46 39
-138 56 -203 30 -117 59 -189 111 -272 15 -22 51 -90 82 -151 30 -61 74 -132
96 -158 23 -27 66 -79 96 -117 123 -154 300 -155 378 -1 16 32 25 83 51 293
24 194 52 326 104 503 27 89 61 232 75 317 35 203 47 247 112 418 41 109 64
190 94 344 36 178 46 213 95 318 40 86 65 161 94 278 22 89 58 205 81 258 146
342 181 494 135 583 -28 55 -97 58 -154 6z"/>
<path d="M4379 1826 c-90 -32 -146 -106 -176 -235 -10 -41 -31 -96 -48 -122
-117 -186 -646 -714 -860 -859 -27 -18 -86 -59 -130 -90 -44 -32 -111 -76
-150 -98 -127 -73 -192 -184 -139 -236 49 -49 326 15 554 129 69 34 163 77
210 95 47 19 121 59 165 89 44 29 126 76 181 103 56 26 128 69 160 94 33 25
97 68 144 96 47 28 112 74 146 104 33 29 94 75 135 102 41 27 107 76 147 109
40 33 116 81 169 107 169 83 261 195 234 286 -14 48 -195 216 -276 257 -124
64 -377 101 -466 69z"/>
<path d="M6306 1800 c-39 -12 -63 -36 -76 -76 -26 -77 4 -114 339 -428 106
-99 218 -213 250 -253 83 -105 229 -280 287 -343 27 -30 80 -92 117 -137 131
-160 265 -284 405 -371 209 -131 211 -131 333 -15 122 117 143 168 144 342 0
265 -147 505 -429 701 -56 39 -121 86 -146 105 -25 19 -81 49 -125 66 -104 41
-150 64 -205 106 -66 51 -152 88 -281 121 -70 19 -153 49 -209 77 -165 83
-335 127 -404 105z"/>
</g>
</svg>
