<svg xmlns="http://www.w3.org/2000/svg" viewBox="0 0 1043.976043 960.533163">
<g transform="translate(-6.240907,960.000000) scale(0.100000,-0.100000)" fill="#000000" stroke="none">
<path d="M7410 9573 c0 -16 -9 -66 -20 -113 -26 -112 -25 -172 4 -294 48 -199
68 -434 58 -672 -13 -308 -20 -312 -662 -459 -413 -95 -514 -44 -482 243 20
176 9 263 -44 382 -85 190 -476 369 -615 282 -96 -59 -93 -126 26 -602 111
-446 78 -504 -315 -545 -478 -49 -508 -58 -526 -150 -38 -203 265 -299 696
-221 234 43 277 -5 300 -342 15 -223 63 -398 182 -664 70 -157 190 -167 343
-28 132 119 284 165 690 210 105 11 277 34 384 50 107 17 251 34 321 40 278
21 331 128 160 326 -83 97 -86 151 -16 291 40 79 59 143 81 268 44 247 20 238
675 247 670 8 702 16 742 187 59 256 -553 536 -922 421 -262 -81 -331 45 -191
352 126 274 119 322 -66 491 -47 43 -100 81 -140 98 -34 16 -93 43 -130 60
-92 41 -132 74 -155 125 -19 44 -19 44 -198 44 -180 0 -180 0 -180 -27z m-92
-1823 c84 -38 92 -87 66 -375 -34 -376 -62 -401 -576 -520 -388 -89 -467 -51
-468 227 0 70 -7 161 -15 205 -54 284 26 340 610 427 55 9 136 24 180 35 102
25 150 25 203 1z"/>
<path d="M1074 8981 c-101 -62 -88 -167 39 -300 40 -42 92 -103 116 -136 24
-33 71 -87 105 -120 33 -33 129 -134 211 -224 83 -90 168 -177 190 -194 22
-17 70 -59 108 -94 311 -290 710 -237 768 101 35 207 -16 406 -132 513 -154
143 -336 236 -574 293 -88 22 -216 57 -285 79 -287 92 -482 121 -546 82z"/>
<path d="M3333 8441 c-100 -47 -100 -148 2 -281 23 -30 60 -86 82 -125 23 -38
62 -97 88 -130 26 -33 67 -97 93 -143 25 -45 73 -115 107 -155 33 -41 74 -93
90 -117 35 -51 230 -220 283 -247 174 -84 328 56 447 408 69 203 -68 467 -294
570 -36 16 -99 51 -140 77 -163 104 -647 195 -758 143z"/>
<path d="M190 6571 c-102 -33 -141 -63 -123 -94 3 -7 29 -41 58 -77 28 -36 67
-87 85 -115 176 -263 734 -828 893 -904 239 -115 433 -56 539 162 94 194 96
251 10 438 -106 229 -288 361 -583 423 -69 14 -193 50 -275 80 -274 99 -476
129 -604 87z"/>
<path d="M9325 6393 c-95 -9 -219 -38 -374 -85 -241 -73 -250 -75 -436 -103
-196 -29 -278 -45 -425 -86 -158 -43 -326 -75 -520 -99 -394 -48 -486 -62
-727 -110 -317 -62 -345 -67 -533 -80 -280 -20 -782 -71 -1635 -165 -71 -8
-179 -15 -240 -15 -165 0 -254 -30 -280 -95 -35 -81 18 -132 210 -202 253 -93
327 -96 605 -20 91 24 221 54 290 66 69 12 203 42 299 67 447 114 691 129 782
47 84 -76 249 -436 249 -545 0 -153 -53 -185 -380 -233 -91 -13 -255 -40 -365
-60 -354 -64 -490 -59 -675 25 -329 148 -475 -44 -266 -350 61 -89 76 -132
120 -335 14 -66 44 -189 66 -273 50 -190 73 -323 100 -567 29 -253 52 -367 96
-472 20 -49 60 -157 88 -241 29 -84 62 -165 73 -180 77 -104 219 -105 337 -2
94 83 120 92 285 102 79 5 277 26 440 48 1358 181 1372 181 1561 40 244 -181
445 -124 526 150 39 132 54 170 97 240 55 90 71 128 112 270 23 79 54 157 85
216 61 112 71 139 120 331 21 84 57 194 80 245 23 51 60 144 81 207 51 146 65
172 134 251 73 83 171 231 186 280 31 104 -175 281 -401 345 -52 14 -129 45
-170 68 -202 110 -280 131 -490 131 -163 -1 -235 -16 -388 -80 -164 -69 -247
-95 -392 -124 -80 -16 -176 -36 -215 -45 -157 -37 -190 -1 -191 208 -1 149 -1
153 -32 218 -132 280 -99 296 693 354 557 40 742 46 1587 50 837 4 838 4 929
51 95 48 103 80 43 169 -79 116 -120 153 -238 211 -61 30 -142 72 -181 94
-135 76 -444 112 -720 83z m-1110 -1768 c222 -60 234 -262 56 -1010 -22 -93
-49 -240 -61 -325 -47 -362 -75 -396 -305 -364 -151 22 -279 14 -415 -26 -297
-86 -388 -37 -397 214 -8 202 25 310 119 390 74 64 120 76 438 111 206 23 276
69 296 191 24 151 -80 197 -446 198 -269 1 -311 12 -351 86 -38 71 4 333 68
418 50 66 69 71 448 112 105 11 206 22 225 24 72 8 267 -3 325 -19z m-1685
-230 c71 -37 95 -150 71 -350 -22 -190 -76 -235 -301 -250 -298 -20 -403 -95
-311 -222 71 -98 132 -123 323 -134 262 -14 281 -34 286 -299 7 -329 -26 -370
-313 -385 -66 -4 -167 -13 -225 -21 -232 -32 -299 30 -340 307 -11 74 -31 208
-44 299 -94 620 -98 798 -23 878 83 89 776 229 877 177z"/>
<path d="M2615 5917 c-117 -54 -82 -247 80 -438 30 -35 69 -90 87 -122 109
-193 374 -484 493 -542 181 -89 371 22 464 271 103 275 -199 617 -654 738 -71
19 -164 49 -205 67 -88 38 -212 50 -265 26z"/>
<path d="M2342 4599 c-59 -17 -113 -84 -161 -197 -24 -57 -62 -131 -84 -165
-22 -34 -65 -113 -96 -177 -32 -63 -78 -147 -103 -185 -26 -39 -65 -111 -87
-160 -23 -49 -68 -126 -101 -171 -33 -45 -78 -120 -100 -167 -23 -48 -70 -124
-104 -171 -35 -46 -82 -123 -105 -170 -23 -46 -66 -115 -96 -153 -30 -37 -73
-102 -96 -144 -22 -42 -68 -110 -101 -150 -33 -41 -80 -103 -103 -139 -23 -36
-73 -101 -111 -145 -38 -44 -86 -103 -106 -131 -54 -74 -111 -122 -216 -184
-94 -55 -132 -91 -201 -193 -85 -125 -90 -188 -32 -370 22 -67 49 -158 60
-203 27 -106 43 -143 105 -238 29 -45 68 -117 86 -161 75 -177 277 -385 373
-385 90 0 183 78 229 190 138 335 156 394 193 625 40 253 54 301 143 495 16
36 46 137 67 225 36 159 70 261 106 321 33 54 67 158 105 313 29 121 46 172
89 255 55 107 77 169 115 336 14 62 44 141 85 230 39 82 78 185 100 263 20 73
66 197 106 285 145 324 194 592 113 622 -29 11 -28 11 -72 -1z"/>
<path d="M4045 4318 c-16 -12 -45 -59 -67 -106 -21 -46 -62 -118 -90 -160 -29
-42 -73 -125 -99 -184 -26 -59 -69 -144 -97 -190 -28 -46 -65 -119 -83 -163
-17 -44 -60 -123 -94 -175 -35 -52 -85 -140 -113 -195 -27 -55 -71 -127 -97
-160 -26 -33 -69 -105 -97 -160 -28 -55 -76 -134 -107 -175 -31 -41 -77 -110
-101 -153 -48 -85 -188 -249 -266 -312 -63 -51 -209 -180 -251 -224 -94 -94
-88 -271 16 -499 27 -60 66 -164 85 -232 43 -148 60 -186 129 -276 28 -38 72
-107 96 -152 150 -279 396 -296 455 -32 8 36 31 137 51 224 20 88 54 266 76
395 40 238 54 294 128 499 27 74 53 176 76 300 37 199 49 243 113 392 44 103
72 204 96 345 20 112 31 147 95 308 29 71 63 179 77 240 45 197 93 355 143
475 55 132 71 190 71 256 0 112 -74 170 -145 114z"/>
<path d="M5854 1993 c-84 -48 -119 -97 -197 -274 -88 -200 -118 -240 -397
-534 -268 -283 -455 -443 -662 -569 -114 -69 -224 -211 -204 -262 23 -59 465
46 644 153 59 35 132 72 162 83 30 11 75 28 98 36 24 9 78 42 120 74 43 32
118 78 169 104 57 28 122 72 170 114 43 37 96 81 118 97 22 16 81 68 131 115
174 164 260 238 319 275 170 107 201 260 73 359 -42 33 -190 143 -240 179 -86
63 -237 88 -304 50z"/>
<path d="M7664 1892 c-125 -79 -66 -216 217 -507 43 -44 95 -101 116 -127 41
-50 240 -273 337 -379 34 -36 117 -127 186 -204 283 -314 373 -406 451 -460
81 -57 121 -105 144 -172 23 -66 217 -64 234 3 15 60 43 113 97 190 76 107
109 294 75 430 -25 102 -145 327 -213 400 -136 146 -291 277 -394 333 -55 29
-124 72 -154 95 -80 61 -113 80 -227 125 -57 22 -140 61 -185 85 -103 56 -140
69 -270 96 -61 13 -139 38 -193 63 -108 49 -175 58 -221 29z"/>
</g>
</svg>
