<svg xmlns="http://www.w3.org/2000/svg" viewBox="0 0 352.576178 450.000000">
<g transform="translate(-8.479607,450.000000) scale(0.100000,-0.100000)" fill="#000000" stroke="none">
<path d="M2112 4428 c4 -55 14 -91 39 -143 l33 -69 -1 -216 c0 -240 -7 -278
-65 -337 -37 -39 -74 -47 -273 -63 -77 -6 -163 -18 -192 -26 -98 -27 -145 -16
-162 38 -5 18 -13 110 -16 203 -4 94 -11 199 -16 234 -17 112 -88 221 -157
241 -48 14 -212 25 -245 16 -66 -16 -76 -82 -26 -162 39 -60 53 -103 73 -214
9 -48 32 -135 52 -195 41 -128 46 -181 17 -205 -15 -12 -86 -21 -324 -39 -167
-12 -311 -26 -319 -30 -40 -21 -8 -106 52 -137 69 -37 301 -29 482 17 45 11
91 17 107 14 59 -13 94 -84 119 -236 13 -81 3 -145 -26 -170 -23 -19 -453 -46
-819 -52 -170 -3 -318 -9 -328 -12 -26 -11 -40 -41 -28 -62 5 -10 29 -37 53
-60 35 -35 59 -47 128 -67 131 -38 146 -39 295 -17 77 11 172 23 210 26 39 3
122 15 185 25 64 11 178 27 255 35 77 8 151 17 164 20 51 12 86 -12 140 -96
58 -92 86 -174 76 -226 -9 -47 -41 -59 -185 -67 -63 -3 -186 -17 -273 -31
-207 -33 -253 -32 -320 2 -43 22 -69 27 -155 31 -89 4 -105 2 -122 -13 -29
-26 -25 -54 14 -95 57 -58 124 -199 142 -298 9 -48 31 -135 50 -195 32 -103
41 -152 64 -356 7 -65 21 -119 44 -175 19 -45 37 -97 41 -116 17 -82 86 -160
143 -160 14 0 40 17 66 44 49 50 55 52 228 60 64 4 183 17 263 31 184 32 297
43 527 54 210 10 226 7 277 -58 36 -45 77 -71 114 -71 24 0 105 46 145 83 12
11 32 52 43 90 11 39 36 93 54 121 18 28 40 76 49 107 9 31 29 73 46 94 17 21
37 63 46 94 9 31 31 79 50 107 19 28 45 79 59 114 14 35 33 73 44 84 23 26 46
71 55 111 4 17 25 59 46 95 71 120 64 196 -23 255 -29 20 -67 46 -85 59 -18
14 -56 30 -85 36 -29 6 -83 30 -122 53 l-69 42 -131 0 c-127 -1 -133 -2 -240
-42 -60 -22 -132 -43 -160 -47 -27 -4 -94 -14 -148 -23 -73 -12 -104 -13 -122
-5 -28 13 -46 67 -38 116 3 22 -2 46 -16 74 -24 48 -27 90 -7 118 13 17 32 20
213 26 493 16 816 20 1048 10 138 -5 279 -6 315 -2 56 7 69 13 97 44 38 41 45
93 16 118 -10 8 -58 36 -106 62 -79 42 -100 48 -205 62 -121 17 -204 16 -497
-6 -190 -13 -311 -29 -351 -46 -47 -20 -91 -17 -114 6 -16 16 -20 33 -20 90 0
98 16 159 60 232 66 110 34 102 474 108 344 4 385 7 409 23 39 25 35 56 -17
113 -34 38 -65 59 -142 94 -97 44 -101 45 -199 44 -72 -1 -121 -8 -175 -24
-106 -31 -186 -37 -211 -14 -10 9 -19 27 -19 38 0 34 46 170 73 217 32 56 60
167 61 244 1 92 -23 130 -109 174 -45 23 -77 47 -90 68 l-20 32 -144 1 -144 0
5 -72z m-48 -1001 c9 -7 21 -29 25 -49 12 -52 -9 -308 -27 -335 -20 -31 -63
-40 -227 -47 -77 -4 -173 -12 -213 -18 -72 -12 -73 -12 -100 15 -27 27 -27 28
-30 192 -4 220 -19 205 233 229 105 9 199 19 210 20 53 8 113 5 129 -7z m491
-1136 c64 -36 77 -131 51 -352 -18 -142 -28 -190 -70 -305 -14 -39 -30 -114
-37 -165 -6 -52 -18 -104 -25 -116 -17 -27 -58 -30 -109 -9 -72 30 -116 30
-262 -4 -152 -36 -198 -35 -235 2 -18 18 -20 28 -14 81 3 33 6 96 6 139 0 74
2 82 28 108 21 21 42 29 83 34 139 17 258 40 296 56 74 32 84 103 20 134 -51
23 -202 45 -245 35 -72 -17 -109 -11 -132 19 -21 25 -22 36 -18 158 4 149 15
179 70 188 61 10 413 24 488 19 44 -3 87 -12 105 -22z m-982 -61 c36 -28 46
-69 49 -192 l3 -107 -30 -30 c-38 -38 -116 -60 -252 -70 -122 -9 -156 -26
-151 -73 2 -19 13 -38 28 -49 32 -23 130 -39 242 -39 48 0 98 -5 112 -11 41
-19 56 -74 56 -203 0 -108 -1 -116 -25 -145 -34 -39 -62 -47 -235 -67 -80 -9
-161 -18 -181 -21 -28 -4 -42 0 -62 19 -24 21 -28 34 -38 128 -6 58 -26 166
-44 240 -18 74 -36 164 -40 200 -11 116 -27 204 -47 254 -10 28 -17 60 -14 72
9 33 64 53 176 64 132 13 354 41 359 46 12 12 72 1 94 -16z"/>
<path d="M1188 894 c-53 -16 -71 -40 -83 -113 -6 -36 -21 -59 -85 -130 -130
-144 -214 -225 -277 -266 -24 -15 -43 -31 -43 -35 0 -5 -25 -24 -55 -44 -30
-20 -57 -41 -60 -46 -4 -6 -37 -26 -75 -45 -46 -23 -77 -47 -94 -71 -13 -20
-40 -47 -59 -60 -19 -13 -40 -37 -45 -54 l-11 -30 65 0 c55 0 64 3 64 18 0 37
25 53 125 77 55 14 132 41 170 61 39 20 91 43 116 50 25 8 66 29 89 48 24 19
63 40 86 46 24 7 60 27 81 45 21 18 61 44 88 58 28 13 59 35 70 47 11 12 40
33 65 45 25 13 58 37 74 54 17 17 59 42 98 57 79 30 98 52 98 111 0 32 -5 46
-22 58 -13 8 -51 36 -85 61 -47 34 -78 48 -130 59 -83 18 -105 18 -165 -1z"/>
<path d="M2192 874 c-26 -18 -27 -34 -6 -77 16 -31 180 -197 195 -197 5 0 85
-84 180 -187 190 -208 261 -276 330 -316 29 -16 53 -39 63 -62 16 -32 20 -35
61 -35 42 0 46 2 60 37 8 20 33 55 55 79 l40 44 0 83 c0 73 -3 89 -25 121 -14
20 -33 52 -42 71 -20 38 -156 165 -178 165 -7 0 -35 17 -62 37 -26 20 -76 47
-111 60 -34 12 -84 38 -110 56 -34 23 -73 38 -133 51 -46 10 -114 33 -152 52
-74 37 -129 44 -165 18z"/>
</g>
</svg>
