<svg xmlns="http://www.w3.org/2000/svg" viewBox="0 0 489.031172 509.886897">
<g transform="translate(-11.098250,509.886897) scale(0.100000,-0.100000)" fill="#000000" stroke="none">
<path d="M2924 5077 c-25 -22 -29 -32 -27 -70 1 -24 16 -86 34 -138 33 -92 33
-97 34 -269 0 -198 -14 -266 -62 -312 -45 -41 -61 -46 -229 -67 -87 -11 -202
-25 -254 -32 -184 -23 -184 -23 -205 1 -18 20 -21 43 -27 238 -11 305 -9 294
-76 365 -82 85 -114 99 -247 105 -125 5 -177 -9 -196 -52 -14 -30 -1 -72 66
-206 41 -82 56 -133 71 -230 3 -25 19 -81 35 -124 34 -94 36 -117 10 -140 -30
-28 -75 -33 -396 -51 -165 -9 -312 -21 -327 -27 -62 -23 -12 -119 80 -155 80
-31 303 -22 599 24 51 8 79 -4 103 -41 35 -58 71 -175 90 -300 17 -103 24
-125 55 -170 19 -28 35 -56 35 -62 0 -19 40 -54 62 -54 11 0 37 18 58 42 l39
42 118 12 c65 7 259 18 432 24 173 6 322 15 332 21 25 13 24 40 -2 91 -49 96
-51 110 -29 232 23 126 30 146 79 233 22 39 44 66 60 72 15 5 217 12 453 15
479 5 481 6 486 67 3 32 -3 42 -42 82 -25 24 -69 59 -98 76 -29 17 -69 42 -88
54 -32 20 -47 22 -175 21 -151 -1 -270 -19 -345 -53 -54 -25 -78 -26 -108 -5
-41 28 -24 145 31 218 14 18 35 68 46 111 11 43 29 92 41 107 39 53 37 86 -9
150 -37 51 -52 62 -139 103 -108 51 -142 61 -258 70 -76 7 -82 6 -110 -18z
m-81 -1065 c23 -20 22 -83 -2 -130 -10 -20 -26 -75 -35 -121 -25 -133 -41
-144 -256 -161 -74 -6 -163 -15 -197 -21 -132 -20 -146 -1 -151 213 -5 216
-28 199 288 222 135 10 250 19 255 21 20 6 80 -8 98 -23z"/>
<path d="M4220 3334 c-41 -7 -124 -18 -185 -24 -60 -6 -157 -15 -215 -21 -58
-6 -159 -21 -225 -35 -176 -37 -211 -42 -420 -59 -104 -8 -257 -26 -340 -39
-220 -36 -301 -45 -495 -56 -204 -13 -285 -21 -595 -60 -159 -21 -313 -33
-500 -40 -338 -13 -539 -26 -774 -51 -101 -10 -212 -19 -246 -18 -71 2 -102
-11 -111 -46 -11 -43 5 -66 64 -92 32 -13 73 -35 92 -48 19 -13 84 -40 143
-60 122 -40 204 -45 297 -20 30 8 118 24 195 35 77 11 176 31 220 45 121 36
158 43 312 60 78 8 199 26 270 39 70 13 196 32 280 41 125 15 158 15 183 5 39
-16 117 -121 126 -168 3 -20 12 -63 20 -95 19 -75 6 -107 -51 -124 -46 -14
-543 -82 -658 -90 -77 -6 -81 -5 -154 33 -68 34 -84 39 -167 42 -155 7 -170
-21 -83 -152 28 -43 60 -91 69 -105 10 -15 24 -59 33 -99 8 -39 28 -101 44
-137 31 -67 45 -128 56 -230 3 -33 24 -127 45 -210 21 -82 44 -181 50 -220 12
-78 108 -286 145 -311 37 -26 84 -18 121 22 19 19 34 39 34 44 0 18 59 40 107
40 26 0 104 9 173 20 264 41 700 76 987 80 101 1 97 3 157 -75 37 -49 86 -69
150 -61 60 7 90 26 124 79 15 23 39 58 54 77 14 19 36 68 48 109 12 41 37 96
55 122 18 27 37 64 40 81 9 42 32 87 57 115 11 12 31 52 44 89 14 37 40 88 58
113 18 25 39 62 45 82 7 21 29 61 50 90 21 30 46 77 55 105 9 29 26 60 38 70
34 30 58 94 58 154 0 66 -15 92 -71 121 -22 11 -59 35 -83 53 -27 21 -64 37
-99 44 -31 6 -92 29 -134 52 -57 29 -97 42 -150 49 -89 11 -215 -2 -291 -30
-137 -51 -163 -58 -277 -74 -66 -9 -144 -25 -173 -36 -89 -32 -112 -8 -123
134 -5 56 -11 126 -15 156 -6 46 -4 56 11 68 24 17 844 18 1400 2 204 -5 469
-11 590 -12 244 -2 269 3 300 63 29 57 20 96 -36 155 -28 29 -72 63 -97 75
-26 13 -62 35 -79 51 -18 15 -52 33 -75 40 -24 6 -74 22 -113 35 -58 20 -88
24 -180 23 -60 0 -144 -7 -185 -15z m-824 -960 c15 -11 42 -37 58 -58 29 -36
31 -43 30 -119 -1 -64 -8 -104 -34 -181 -17 -55 -40 -150 -50 -210 -10 -61
-32 -147 -48 -191 -17 -44 -36 -106 -42 -137 -17 -88 -58 -108 -135 -66 -43
23 -117 26 -197 9 -24 -5 -74 -12 -113 -16 -38 -4 -99 -11 -134 -16 -110 -17
-132 17 -122 188 5 81 10 107 27 130 38 51 91 72 210 83 281 27 304 34 304 95
0 26 -9 45 -32 70 -42 45 -94 55 -274 55 -200 0 -214 10 -194 144 15 103 38
164 71 189 19 13 54 22 115 29 49 5 123 13 164 17 41 5 141 8 222 8 131 -2
150 -4 174 -23z m-1052 -94 c23 -23 25 -33 28 -144 l3 -118 -42 -38 c-54 -48
-103 -60 -275 -70 -157 -9 -188 -20 -188 -70 0 -21 9 -35 33 -53 61 -45 114
-59 263 -67 145 -8 195 -22 208 -55 10 -28 7 -240 -5 -274 -7 -18 -24 -38 -41
-47 -47 -24 -467 -55 -513 -38 -22 9 -41 50 -50 109 -4 28 -17 91 -30 140 -13
50 -26 122 -30 160 -10 107 -44 262 -71 328 -36 91 -31 172 14 196 26 14 183
39 322 51 69 5 141 12 160 14 19 2 70 3 112 2 68 -1 81 -4 102 -26z"/>
<path d="M1863 979 c-38 -11 -45 -23 -62 -100 -8 -37 -23 -70 -45 -95 -18 -22
-46 -59 -63 -84 -44 -64 -255 -261 -337 -315 -17 -11 -44 -32 -61 -47 -55 -51
-119 -97 -175 -127 -30 -16 -68 -43 -85 -61 -16 -18 -50 -42 -76 -55 -40 -21
-69 -57 -69 -85 0 -6 37 -10 84 -10 81 0 84 1 90 25 8 31 36 45 161 79 55 16
120 41 145 56 25 16 65 34 90 40 25 7 70 29 100 50 30 21 73 43 95 50 22 7 57
25 78 42 20 16 61 40 90 53 28 12 63 35 77 50 14 15 47 38 73 51 26 14 65 40
86 59 21 19 57 43 82 55 24 11 67 35 94 55 28 19 60 42 73 50 39 28 24 92 -35
146 -40 38 -162 97 -235 114 -70 16 -127 18 -175 4z"/>
<path d="M3003 968 c-27 -13 -30 -52 -9 -101 11 -26 149 -167 278 -283 25 -23
70 -72 218 -235 134 -148 210 -223 257 -252 27 -17 46 -39 54 -62 l13 -35 92
0 92 0 6 33 c3 19 23 53 43 77 36 42 38 46 39 124 0 45 -3 94 -7 110 -16 57
-120 196 -178 239 -31 22 -70 53 -86 69 -17 15 -59 39 -93 52 -35 14 -76 36
-92 49 -16 14 -53 33 -82 42 -29 10 -80 32 -114 51 -40 21 -95 40 -163 54 -65
13 -116 30 -140 46 -45 29 -97 38 -128 22z"/>
</g>
</svg>
