<svg xmlns="http://www.w3.org/2000/svg" viewBox="0 0 767.598114 726.663330">
<g transform="translate(-0.000000,738.904825) scale(0.100000,-0.100000)" fill="#000000" stroke="none">
<path d="M5673 7375 c-74 -32 -91 -121 -49 -261 71 -239 72 -845 1 -990 -44
-91 -77 -106 -305 -148 -556 -102 -649 -81 -636 139 9 153 -10 620 -29 714
-31 156 -50 176 -222 240 -163 59 -279 52 -359 -25 -50 -46 -44 -138 11 -184
40 -33 66 -98 76 -192 13 -113 35 -212 96 -423 89 -311 60 -435 -103 -435 -21
0 -113 -9 -204 -20 -91 -12 -244 -23 -340 -27 -187 -6 -228 -15 -255 -56 -36
-55 17 -117 157 -187 141 -69 255 -65 563 21 243 69 305 31 344 -206 11 -66
27 -151 35 -190 37 -169 -10 -232 -184 -246 -52 -4 -160 -15 -240 -23 -370
-38 -800 -66 -1036 -66 -108 0 -157 -5 -215 -20 -133 -35 -164 -27 -246 68
-39 44 -73 70 -135 102 -46 24 -106 58 -134 76 -110 69 -179 90 -250 74 -94
-21 -112 -96 -60 -256 46 -143 47 -189 2 -319 -19 -55 -42 -126 -51 -157 -8
-32 -36 -87 -61 -124 -25 -37 -61 -100 -80 -141 -18 -41 -56 -100 -83 -132
-26 -31 -63 -85 -81 -121 -18 -36 -54 -90 -80 -121 -27 -31 -63 -80 -80 -110
-18 -30 -54 -77 -80 -104 -26 -28 -59 -71 -75 -95 -15 -25 -57 -76 -93 -115
-36 -38 -99 -106 -139 -150 -494 -533 -556 -594 -756 -743 -53 -39 -82 -69
-112 -119 -49 -80 -78 -104 -139 -110 -43 -5 -46 -7 -46 -35 0 -29 0 -29 58
-23 118 14 361 110 455 181 32 24 89 60 125 79 37 19 92 55 122 80 30 26 82
61 115 80 33 19 89 59 125 89 36 31 90 69 120 85 31 16 80 51 111 78 31 26 76
62 102 80 25 17 61 55 81 84 92 137 206 119 236 -36 25 -126 20 -651 -7 -805
-12 -69 -29 -192 -38 -275 -20 -196 -29 -239 -80 -370 -55 -143 -68 -197 -105
-450 -37 -260 -37 -291 0 -443 36 -147 45 -170 117 -292 92 -155 144 -195 222
-171 98 29 144 92 162 217 6 43 19 119 30 167 35 161 38 211 74 1717 11 459
18 603 31 670 37 192 22 277 -70 380 -104 117 -99 204 22 329 18 18 49 63 69
100 21 36 58 89 84 117 26 29 59 74 75 100 15 27 52 78 81 113 30 35 67 89 83
120 15 31 48 79 73 106 24 28 65 82 90 120 179 273 230 300 359 189 133 -114
270 -131 667 -83 92 11 152 23 341 67 307 73 647 98 748 56 77 -32 98 -69 147
-262 73 -293 52 -314 -345 -347 -102 -8 -246 -25 -320 -36 -214 -34 -214 -34
-317 0 -204 68 -360 76 -415 21 -45 -46 -39 -85 27 -167 37 -46 63 -92 81
-143 15 -41 44 -118 65 -171 47 -119 64 -187 79 -309 31 -253 43 -330 85 -515
25 -110 52 -249 60 -310 9 -60 22 -156 30 -213 10 -69 23 -118 40 -150 14 -26
42 -83 64 -128 71 -149 140 -163 235 -49 52 63 76 71 251 85 83 6 201 22 263
36 61 13 164 35 228 49 90 20 199 31 488 51 453 30 434 33 548 -73 133 -124
183 -134 296 -58 80 55 107 98 137 229 21 90 37 131 75 196 30 50 55 110 66
154 27 112 49 169 92 237 45 71 61 108 93 219 13 46 40 103 70 148 27 41 56
100 65 131 39 132 47 153 84 210 61 94 67 109 94 239 45 210 33 266 -78 378
-50 50 -77 67 -154 99 -52 21 -113 53 -135 70 -66 50 -115 71 -219 94 -121 26
-156 26 -287 1 -154 -30 -187 -39 -291 -81 -139 -55 -277 -89 -375 -90 -146
-3 -175 24 -175 164 0 53 -6 101 -16 128 -26 72 -24 162 5 193 35 37 67 43
246 51 88 3 225 13 305 21 235 26 906 30 1209 9 366 -26 489 -11 559 70 67 75
46 148 -65 232 -79 60 -103 70 -283 122 -249 72 -355 76 -620 27 -74 -14 -196
-32 -270 -40 -479 -52 -442 -50 -482 -33 -79 33 -95 107 -54 245 14 44 32 129
41 189 38 237 6 226 665 233 581 6 569 4 598 82 33 86 1 150 -112 228 -39 28
-93 66 -119 85 -69 49 -131 65 -259 65 -160 0 -298 -23 -387 -65 -93 -44 -131
-45 -165 -4 -48 56 -31 172 44 311 49 92 114 413 108 533 -9 176 -152 315
-362 351 -44 8 -97 19 -116 24 -48 13 -89 12 -127 -5z m-164 -1680 c57 -29 61
-64 41 -368 -20 -324 -46 -340 -575 -363 -214 -9 -235 12 -235 236 0 72 -5
161 -11 198 -20 123 21 198 132 240 121 45 591 87 648 57z m622 -1814 c159
-48 193 -185 141 -561 -17 -124 -34 -256 -37 -295 -10 -109 -33 -215 -74 -337
-21 -62 -49 -158 -61 -213 -40 -181 -71 -204 -191 -141 -35 18 -76 36 -91 40
-35 8 -212 -27 -320 -64 -99 -34 -131 -37 -188 -14 -66 27 -70 43 -70 279 0
291 2 295 221 346 74 17 186 43 249 58 163 38 200 65 200 142 0 56 -48 90
-198 139 -131 43 -134 44 -190 31 -219 -49 -248 -18 -245 258 4 298 2 296 398
327 116 9 212 18 215 21 8 9 203 -5 241 -16z m-1291 -123 c77 -40 96 -105 102
-350 3 -141 -4 -163 -71 -202 -46 -27 -208 -66 -340 -81 -151 -17 -210 -64
-197 -154 13 -85 60 -102 312 -110 293 -10 286 -3 295 -299 11 -344 39 -323
-557 -403 -175 -24 -211 16 -225 249 -5 75 -16 198 -25 272 -15 128 -27 193
-87 455 -14 61 -31 154 -37 207 -6 54 -16 112 -21 130 -14 51 -11 131 7 156
28 40 74 54 348 102 321 57 426 63 496 28z"/>
<path d="M2160 7038 c-66 -24 -83 -66 -77 -191 10 -201 -16 -348 -81 -450 -28
-45 -47 -88 -87 -200 -9 -27 -41 -76 -71 -110 -30 -34 -68 -85 -84 -114 -16
-28 -50 -74 -74 -102 -25 -28 -62 -77 -82 -108 -46 -74 -482 -514 -594 -601
-47 -36 -107 -86 -134 -109 -27 -24 -77 -60 -112 -79 -73 -41 -104 -75 -104
-114 0 -108 162 -99 342 19 40 27 105 64 143 84 39 19 92 53 119 75 27 23 87
62 133 88 46 26 110 71 143 100 33 30 75 61 93 70 17 10 59 43 92 74 33 31 76
67 95 80 47 33 267 258 483 495 35 39 78 95 96 125 19 30 54 79 80 109 25 29
63 76 83 105 21 28 68 76 104 106 134 110 148 198 54 335 -32 46 -77 96 -109
119 -29 23 -84 67 -122 98 -105 86 -243 126 -329 96z"/>
<path d="M4370 1621 c-103 -32 -152 -90 -189 -224 -27 -99 -48 -140 -103 -203
-24 -27 -65 -76 -90 -109 -133 -174 -417 -432 -655 -593 -34 -23 -75 -59 -90
-79 -15 -19 -47 -60 -70 -89 -72 -90 -43 -125 63 -81 32 14 117 42 189 63 101
30 144 48 195 83 36 24 112 67 169 93 58 27 126 67 152 89 25 21 75 52 110 67
35 16 89 51 119 79 30 27 82 67 114 87 32 21 82 59 110 85 28 26 74 63 101 81
28 19 71 53 96 77 25 23 81 62 125 86 123 68 175 171 125 252 -25 42 -157 158
-209 184 -85 43 -209 68 -262 52z"/>
<path d="M5693 1571 c-73 -46 -14 -145 229 -391 68 -69 137 -144 153 -165 16
-22 52 -65 80 -95 28 -30 69 -82 89 -115 21 -33 58 -81 82 -107 24 -26 57 -68
74 -95 17 -26 56 -75 88 -108 31 -34 74 -82 95 -108 96 -119 241 -181 323
-139 113 57 129 98 129 317 0 210 -6 229 -99 339 -30 36 -62 78 -70 93 -18 35
-78 93 -131 126 -22 14 -67 48 -99 75 -37 32 -87 62 -136 82 -42 17 -98 49
-125 71 -68 56 -110 76 -215 100 -68 16 -106 31 -157 65 -108 71 -247 95 -310
55z"/>
</g>
</svg>
