<svg xmlns="http://www.w3.org/2000/svg" viewBox="0 0 527.014489 479.990513">
<g transform="translate(0.014489,480.000000) scale(0.100000,-0.100000)" fill="#000000" stroke="none">
<path d="M3700 4774 c0 -14 -5 -45 -11 -70 -9 -35 -8 -57 4 -107 34 -135 45
-415 18 -466 -19 -34 -49 -48 -191 -84 -250 -64 -333 -69 -356 -19 -5 10 -8
71 -9 137 0 109 -2 125 -25 170 -22 42 -37 56 -110 98 -93 54 -144 66 -190 47
-54 -22 -53 -77 5 -303 48 -187 46 -221 -14 -251 -27 -14 -254 -46 -326 -46
-21 0 -44 -9 -61 -23 -23 -20 -26 -28 -20 -59 9 -50 48 -86 103 -94 42 -6 182
-1 300 12 48 5 53 4 69 -21 12 -19 20 -61 27 -148 7 -100 15 -137 42 -207 18
-47 38 -102 44 -122 7 -21 24 -47 38 -58 42 -33 75 -26 136 30 77 71 108 80
357 110 399 49 454 58 467 76 25 34 6 94 -41 132 -14 10 -30 31 -37 45 -10 22
-7 33 21 81 22 39 36 84 47 144 23 135 0 126 341 132 311 6 331 9 358 61 25
50 18 93 -21 125 -19 16 -51 42 -71 58 -70 57 -276 93 -353 62 -55 -21 -104
-21 -124 2 -29 31 -20 84 28 183 25 51 45 106 45 122 0 37 -93 137 -153 162
-104 44 -128 59 -144 86 -17 29 -19 29 -105 29 -88 0 -88 0 -88 -26z m-12
-911 c11 -14 12 -44 7 -138 -9 -168 -16 -190 -72 -225 -50 -32 -93 -46 -251
-81 -85 -18 -108 -20 -140 -11 -50 15 -62 42 -62 142 0 43 -5 101 -12 129 -10
43 -9 53 6 76 28 43 70 61 198 84 68 11 148 28 178 35 69 18 130 13 148 -11z"/>
<path d="M555 4502 c-34 -7 -55 -33 -55 -69 0 -26 9 -42 44 -76 24 -23 52 -56
62 -72 22 -35 153 -175 269 -287 70 -68 91 -82 172 -114 l92 -37 43 17 c65 24
108 64 118 111 14 61 12 158 -5 206 -20 56 -50 87 -145 149 -65 43 -96 55
-196 80 -66 16 -136 36 -156 44 -30 13 -95 28 -208 49 -8 2 -24 1 -35 -1z"/>
<path d="M1641 4211 c-27 -27 -27 -72 0 -97 12 -10 38 -49 59 -85 22 -36 46
-72 55 -79 9 -8 28 -37 42 -64 14 -28 43 -71 64 -95 22 -24 39 -47 39 -51 0
-4 32 -35 71 -69 60 -52 76 -61 109 -61 22 0 51 5 65 12 44 20 135 208 135
278 0 16 -21 60 -50 104 -42 64 -59 81 -98 98 -26 12 -69 36 -97 54 -40 27
-69 36 -150 49 -185 30 -220 30 -244 6z"/>
<path d="M71 3284 c-85 -23 -90 -31 -37 -63 18 -12 46 -40 62 -63 55 -82 109
-144 254 -292 115 -117 158 -154 205 -177 73 -35 125 -37 185 -6 38 19 51 33
83 96 48 96 48 125 -4 227 -36 72 -47 85 -90 108 -26 15 -51 31 -54 37 -12 19
-64 38 -131 49 -38 6 -102 25 -144 41 -81 33 -192 59 -243 58 -18 0 -56 -7
-86 -15z"/>
<path d="M4584 3186 c-34 -8 -104 -28 -156 -44 -52 -17 -135 -36 -184 -42 -49
-6 -127 -22 -174 -35 -122 -33 -174 -42 -370 -65 -96 -11 -236 -33 -310 -49
-94 -20 -201 -34 -355 -46 -121 -9 -267 -23 -325 -30 -144 -20 -471 -54 -495
-53 -70 4 -107 -3 -130 -27 -50 -49 -28 -74 107 -122 115 -41 154 -41 303 -3
64 17 126 30 138 30 12 0 84 15 159 34 143 36 299 59 339 49 39 -9 54 -28 107
-136 96 -193 80 -251 -73 -271 -27 -4 -131 -21 -230 -37 -209 -36 -257 -34
-352 10 -111 53 -183 35 -183 -44 0 -45 19 -89 58 -138 22 -27 33 -56 42 -105
6 -37 27 -126 46 -198 21 -80 40 -188 50 -280 15 -144 27 -192 73 -299 11 -27
26 -70 32 -94 14 -58 48 -91 94 -91 43 0 67 12 118 56 33 30 43 34 95 34 63 0
215 18 477 55 148 21 386 45 449 45 22 0 45 -13 130 -75 56 -41 97 -45 156
-15 49 25 64 48 85 129 9 36 29 83 45 106 16 24 39 78 50 121 12 44 31 95 44
114 25 39 49 107 65 188 6 29 22 75 37 103 14 28 34 81 45 117 13 42 33 80 53
102 46 49 116 153 116 172 0 15 -79 89 -130 120 -14 9 -41 19 -60 23 -19 3
-75 26 -125 50 -147 73 -277 79 -416 20 -124 -52 -354 -109 -382 -94 -30 17
-39 56 -27 116 11 50 10 57 -14 103 -29 56 -34 111 -11 130 46 38 405 62 1040
69 l540 6 48 25 c26 13 47 28 47 33 0 24 -110 132 -160 157 -30 15 -80 41
-110 56 -53 28 -61 29 -205 31 -99 2 -171 -2 -211 -11z m-462 -877 c20 -5 47
-22 58 -37 20 -25 21 -34 15 -127 -4 -55 -24 -176 -45 -270 -21 -93 -44 -212
-50 -264 -17 -145 -41 -172 -132 -151 -68 15 -151 12 -220 -10 -76 -24 -146
-26 -176 -4 -20 14 -22 23 -22 121 0 95 3 111 25 148 32 55 74 74 188 85 51 5
108 12 127 16 97 16 121 141 33 175 -15 5 -87 10 -161 10 -146 -1 -185 10
-196 52 -5 20 13 133 30 190 10 32 51 48 151 58 54 6 132 14 173 18 78 9 140
6 202 -10z m-852 -109 c30 -16 41 -67 34 -150 -4 -41 -10 -85 -15 -97 -12 -33
-55 -50 -149 -56 -162 -11 -204 -45 -144 -116 40 -48 60 -55 168 -61 133 -8
136 -12 136 -166 0 -104 -2 -115 -23 -140 -21 -24 -33 -28 -118 -35 -52 -4
-123 -11 -159 -15 -62 -6 -66 -5 -92 21 -30 29 -32 38 -72 290 -32 203 -43
375 -26 415 15 35 51 50 185 78 216 45 245 48 275 32z"/>
<path d="M1285 2956 c-11 -7 -18 -25 -18 -43 0 -38 47 -140 82 -178 16 -16 37
-46 46 -65 34 -67 190 -237 242 -264 40 -20 95 -21 132 -2 15 8 47 44 70 80
58 88 59 129 5 223 -34 58 -51 76 -123 125 -65 44 -101 61 -154 73 -38 9 -96
27 -128 40 -65 28 -126 32 -154 11z"/>
<path d="M1149 2295 c-23 -12 -69 -95 -69 -123 0 -5 -15 -32 -33 -58 -18 -27
-39 -65 -47 -84 -7 -19 -28 -57 -46 -85 -18 -27 -41 -70 -52 -95 -11 -25 -31
-59 -46 -76 -14 -18 -36 -54 -49 -82 -13 -27 -36 -64 -51 -83 -16 -18 -38 -54
-49 -79 -12 -25 -35 -63 -52 -85 -18 -22 -44 -64 -60 -92 -15 -29 -32 -53 -37
-53 -4 0 -25 -26 -45 -57 -20 -32 -52 -76 -72 -99 -20 -22 -48 -57 -63 -77
-16 -20 -54 -50 -87 -67 -42 -23 -69 -46 -95 -84 -58 -84 -61 -102 -32 -184
13 -39 29 -95 36 -126 6 -31 25 -73 42 -97 17 -24 42 -70 55 -102 32 -79 139
-190 184 -190 41 0 80 31 106 84 68 139 99 242 118 401 3 32 21 88 41 129 20
41 44 116 55 168 12 57 31 116 49 148 16 29 38 93 50 143 11 53 32 114 50 144
16 29 37 86 45 127 9 40 33 112 54 159 21 47 44 107 50 133 6 27 31 92 55 145
50 113 83 238 77 300 -1 16 -50 15 -82 -3z"/>
<path d="M2007 2153 c-8 -16 -18 -39 -22 -53 -4 -14 -22 -45 -40 -70 -17 -25
-38 -61 -45 -80 -22 -55 -139 -282 -155 -299 -7 -9 -24 -39 -37 -67 -13 -28
-37 -67 -53 -85 -15 -19 -41 -61 -56 -94 -16 -33 -44 -79 -61 -102 -18 -23
-45 -61 -59 -86 -14 -24 -77 -90 -140 -146 -73 -65 -118 -113 -125 -134 -17
-46 -1 -131 41 -218 19 -41 35 -81 35 -91 0 -31 40 -125 61 -144 12 -11 34
-44 49 -75 56 -110 145 -152 200 -94 27 28 66 191 104 426 8 52 28 129 45 170
16 41 38 124 49 185 12 65 33 141 52 184 18 41 39 112 47 159 8 47 28 117 44
155 17 39 43 125 60 193 16 67 44 153 61 189 54 115 49 204 -12 204 -22 0 -33
-7 -43 -27z"/>
<path d="M2909 987 c-26 -17 -44 -46 -76 -117 -48 -108 -96 -170 -258 -333
-116 -118 -201 -187 -285 -233 -28 -15 -56 -36 -62 -47 -5 -10 -26 -37 -45
-58 -27 -30 -33 -43 -25 -51 9 -9 24 -8 59 5 27 9 88 26 136 37 92 21 121 33
184 75 20 14 57 31 81 37 24 6 64 26 89 45 24 19 69 46 99 60 30 14 61 34 68
44 7 10 30 32 52 48 21 16 75 63 119 105 44 42 96 85 117 96 49 26 78 65 78
107 0 38 -21 63 -104 123 -116 84 -168 97 -227 57z"/>
<path d="M3817 942 c-23 -25 -21 -78 4 -118 11 -19 24 -34 27 -34 4 0 70 -71
147 -157 381 -426 450 -500 492 -526 30 -19 50 -41 62 -68 16 -38 17 -39 68
-39 51 0 52 1 63 38 7 20 24 53 39 72 42 54 43 57 47 141 4 77 3 81 -40 166
-36 72 -60 104 -134 175 -53 52 -108 96 -135 108 -25 11 -64 36 -86 54 -23 19
-65 42 -93 51 -29 10 -74 31 -100 47 -28 17 -77 35 -125 45 -43 8 -98 26 -123
39 -54 29 -91 30 -113 6z"/>
</g>
</svg>
