<svg xmlns="http://www.w3.org/2000/svg" viewBox="0 0 480.008768 453.757661">
<g transform="translate(0.000000,461.827096) scale(0.100000,-0.100000)" fill="#000000" stroke="none">
<path d="M3524 4595 c-30 -30 -30 -61 5 -215 23 -104 27 -250 12 -422 -15
-160 -44 -195 -181 -218 -272 -47 -378 -52 -410 -20 -11 11 -20 26 -20 33 -8
550 -15 599 -89 636 -72 36 -170 63 -203 56 -117 -26 -149 -86 -83 -159 19
-22 37 -53 39 -70 3 -17 9 -62 15 -101 6 -38 26 -125 46 -193 41 -146 47 -238
16 -266 -11 -10 -37 -20 -58 -22 -247 -28 -320 -34 -393 -34 -95 0 -130 -15
-130 -54 0 -30 31 -57 109 -96 60 -31 68 -32 140 -27 42 4 110 16 151 27 41
12 105 24 141 27 99 8 106 -2 143 -199 27 -148 18 -192 -43 -208 -68 -17 -504
-51 -725 -57 -144 -3 -239 -10 -273 -19 -80 -22 -92 -19 -142 35 -25 27 -66
59 -91 71 -25 12 -70 38 -100 56 -31 19 -76 37 -102 40 -41 6 -49 4 -72 -19
-33 -33 -33 -60 1 -164 l27 -84 -26 -77 c-15 -42 -32 -96 -38 -119 -6 -23 -22
-55 -35 -72 -14 -16 -37 -55 -51 -87 -14 -32 -40 -75 -57 -95 -18 -20 -44 -58
-60 -85 -28 -51 -72 -111 -129 -178 -18 -21 -44 -55 -58 -75 -26 -39 -72 -91
-131 -150 -20 -20 -91 -97 -158 -171 -122 -136 -251 -256 -327 -306 -23 -15
-53 -47 -68 -71 -26 -43 -85 -81 -106 -68 -6 4 -10 -7 -10 -23 l0 -29 48 8
c56 9 246 90 276 117 12 11 37 27 56 37 19 9 60 36 90 59 30 23 75 54 100 68
25 14 54 36 65 48 11 12 38 31 60 43 64 32 170 124 208 180 25 37 89 39 113 3
34 -53 37 -424 5 -591 -6 -27 -15 -99 -21 -159 -7 -68 -20 -133 -36 -175 -14
-36 -32 -86 -39 -111 -17 -55 -55 -312 -55 -371 0 -108 73 -289 148 -371 56
-60 162 -14 177 77 3 22 13 74 21 115 24 122 33 294 44 860 8 392 15 566 27
652 18 132 11 181 -32 224 -41 41 -55 68 -55 107 0 42 22 92 44 100 8 3 32 36
54 74 22 37 50 77 62 88 12 11 30 36 40 55 10 19 30 46 45 60 15 14 38 46 51
72 13 26 39 64 56 84 18 20 42 52 53 70 41 65 105 143 125 149 29 9 60 -3 95
-36 40 -38 89 -57 167 -65 90 -9 290 13 433 48 142 34 393 64 461 53 75 -11
96 -39 130 -178 26 -109 27 -120 13 -145 -23 -42 -59 -53 -227 -68 -86 -8
-196 -21 -244 -30 -84 -15 -89 -15 -150 5 -84 27 -192 45 -226 36 -70 -17 -80
-65 -26 -124 33 -37 49 -73 110 -241 13 -37 30 -123 39 -195 9 -72 29 -191 46
-265 17 -74 39 -196 49 -270 16 -119 23 -144 58 -213 51 -98 58 -107 92 -107
20 0 37 11 61 37 17 21 39 42 47 47 8 5 62 12 121 17 58 4 168 22 243 39 111
25 184 33 377 45 173 11 247 12 267 5 16 -6 54 -36 85 -66 69 -65 94 -68 163
-23 54 36 69 61 90 152 9 36 29 87 45 114 16 26 39 83 50 127 12 43 34 97 50
120 16 23 38 74 50 113 12 39 37 94 55 122 19 28 40 76 47 108 7 31 27 77 44
102 18 25 37 62 43 81 20 66 34 170 28 204 -10 54 -86 131 -153 156 -32 12
-78 36 -103 55 -34 25 -68 38 -132 51 -84 18 -87 18 -192 -4 -58 -13 -127 -32
-153 -43 -131 -56 -305 -78 -334 -42 -8 9 -17 48 -21 87 -4 39 -10 99 -14 132
-6 57 -4 63 17 78 16 11 45 16 89 16 36 1 112 5 170 11 230 22 438 27 685 16
356 -16 392 -15 448 6 26 10 54 28 62 40 54 76 -38 163 -230 216 -163 45 -197
47 -370 18 -82 -14 -202 -31 -265 -37 -63 -5 -138 -13 -167 -16 -46 -6 -54 -4
-77 19 -32 32 -33 61 -7 159 11 40 23 98 27 127 5 41 14 62 34 83 28 28 30 28
159 29 72 1 136 3 141 4 6 1 100 3 210 4 199 1 201 1 225 26 49 48 26 111 -60
171 -136 94 -163 101 -321 84 -69 -8 -114 -18 -147 -35 -59 -30 -88 -31 -112
-5 -25 28 -14 106 25 182 22 43 38 96 55 196 32 179 24 225 -50 291 -61 53
-82 63 -178 82 -118 24 -123 24 -153 -6z m-63 -1046 c20 -20 21 -28 15 -128
-12 -201 -16 -220 -48 -256 -36 -42 -80 -52 -270 -61 -199 -10 -193 -16 -202
218 -5 126 -4 128 21 159 35 41 56 48 203 69 181 26 255 25 281 -1z m397
-1136 c75 -36 91 -138 59 -363 -9 -63 -21 -152 -26 -198 -6 -45 -22 -115 -35
-155 -14 -39 -32 -102 -41 -140 -27 -119 -47 -139 -102 -110 -86 47 -78 46
-156 28 -39 -9 -100 -25 -134 -37 -52 -17 -67 -18 -97 -8 -20 6 -40 20 -46 30
-5 9 -9 76 -9 147 0 153 12 185 76 202 52 14 240 58 280 66 35 7 73 46 73 76
0 32 -35 56 -124 85 -81 27 -88 27 -151 15 -57 -12 -68 -11 -90 3 -35 23 -45
75 -38 194 8 140 17 151 133 163 47 5 123 13 170 18 113 12 213 6 258 -16z
m-821 -69 c33 -21 40 -44 48 -170 8 -129 4 -149 -35 -169 -41 -21 -192 -55
-246 -55 -57 0 -94 -32 -94 -83 0 -65 28 -75 213 -80 163 -5 161 -2 165 -189
4 -152 -2 -177 -45 -197 -14 -6 -102 -23 -196 -37 -191 -28 -209 -26 -231 29
-7 17 -16 84 -20 147 -7 135 -17 201 -55 370 -30 134 -54 277 -54 324 0 41 30
62 110 76 38 7 127 23 198 36 137 25 203 24 242 -2z"/>
<path d="M1343 4395 c-39 -17 -42 -26 -45 -185 l-3 -125 -48 -95 c-26 -52 -47
-103 -47 -112 0 -10 -15 -34 -32 -54 -18 -21 -51 -63 -73 -95 -91 -132 -117
-162 -285 -329 -180 -179 -277 -263 -349 -299 -71 -37 -68 -103 6 -109 46 -3
105 20 182 72 29 20 58 36 65 36 6 0 38 21 71 46 33 25 81 56 106 69 25 13 52
31 60 41 8 10 32 29 55 43 110 71 435 396 493 494 33 56 92 127 162 196 93 91
100 126 43 208 -38 55 -167 166 -219 188 -51 22 -107 26 -142 10z"/>
<path d="M2692 994 c-47 -28 -64 -55 -82 -132 -10 -42 -29 -74 -90 -150 -105
-132 -265 -285 -380 -365 -114 -79 -208 -180 -190 -202 16 -19 22 -19 78 6 25
12 78 30 117 41 38 10 93 34 120 53 28 18 77 45 110 60 33 14 71 37 85 50 14
13 43 31 65 40 22 9 54 30 70 45 17 16 51 44 77 62 72 51 159 118 195 152 18
16 54 41 80 55 53 29 93 81 93 120 0 18 -18 43 -64 87 -53 52 -74 66 -131 83
-86 27 -101 26 -153 -5z"/>
<path d="M3575 993 c-28 -7 -45 -23 -45 -43 0 -22 74 -114 175 -218 106 -108
163 -175 204 -236 34 -53 57 -81 154 -192 31 -36 57 -70 57 -74 0 -15 126 -90
151 -90 33 0 95 44 114 80 18 35 20 219 2 265 -14 36 -91 139 -132 177 -66 62
-161 129 -196 140 -21 6 -58 28 -83 48 -31 26 -65 42 -113 54 -37 10 -89 30
-114 47 -51 32 -131 52 -174 42z"/>
</g>
</svg>
