<svg xmlns="http://www.w3.org/2000/svg" viewBox="0 0 839.486017 768.000000">
<g transform="translate(-2.000000,768.000000) scale(0.100000,-0.100000)" fill="#000000" stroke="none">
<path d="M5910 7561 c-22 -118 -22 -118 0 -202 33 -127 49 -293 49 -499 0
-295 -4 -300 -272 -371 -561 -148 -665 -132 -641 96 31 298 -16 401 -240 523
-215 118 -357 86 -343 -78 7 -73 65 -334 97 -438 30 -95 37 -209 16 -250 -40
-77 -105 -93 -538 -132 -104 -9 -149 -27 -167 -67 -39 -85 32 -190 146 -213
75 -16 328 -7 440 15 156 31 188 -8 203 -252 12 -187 23 -245 64 -341 18 -42
41 -102 51 -132 71 -219 162 -249 314 -106 101 94 206 128 511 160 80 9 240
29 355 45 116 17 253 34 305 40 87 9 97 13 123 41 46 51 25 147 -46 206 -81
68 -85 111 -22 238 35 72 49 115 64 202 10 61 26 126 35 143 31 59 39 60 521
69 416 7 443 9 486 29 69 31 94 73 94 156 0 76 -7 85 -131 179 -160 123 -423
175 -606 123 -109 -32 -155 -29 -195 11 -43 43 -31 120 44 279 100 214 99 232
-26 356 -80 79 -93 88 -185 125 -118 46 -167 79 -190 128 -17 36 -17 36 -155
36 -138 0 -138 0 -161 -119z m-50 -1356 c65 -34 70 -74 40 -392 -19 -208 -76
-247 -490 -339 -289 -64 -330 -37 -341 220 -4 89 -12 180 -18 204 -39 152 77
214 514 277 55 8 120 21 145 29 59 19 114 19 150 1z"/>
<path d="M874 7199 c-101 -29 -95 -157 10 -244 25 -20 59 -60 77 -88 18 -29
62 -83 99 -122 37 -38 103 -108 146 -154 277 -295 432 -403 601 -419 101 -9
241 79 267 169 54 180 12 403 -91 485 -170 136 -278 190 -455 229 -60 14 -161
42 -225 64 -65 21 -143 44 -173 50 -30 5 -86 17 -125 25 -79 18 -87 18 -131 5z"/>
<path d="M2664 6761 c-83 -36 -85 -123 -4 -221 20 -25 53 -74 73 -110 20 -36
55 -87 78 -115 23 -27 56 -79 74 -115 18 -36 53 -88 77 -115 24 -28 59 -71 77
-97 19 -26 60 -68 93 -95 33 -26 77 -62 98 -80 104 -84 217 -45 300 105 137
244 143 335 33 497 -74 109 -81 116 -168 156 -39 17 -90 46 -115 64 -76 55
-104 64 -287 96 -195 35 -297 44 -329 30z"/>
<path d="M153 5260 c-75 -20 -133 -45 -133 -58 0 -4 23 -30 51 -57 28 -28 65
-70 82 -95 142 -207 611 -692 720 -744 219 -103 370 -46 463 177 57 135 55
168 -25 325 -55 110 -67 126 -107 150 -25 15 -72 46 -104 69 -86 61 -106 70
-227 92 -111 21 -166 38 -278 85 -63 26 -291 76 -341 75 -16 0 -61 -9 -101
-19z"/>
<path d="M7415 5110 c-78 -11 -161 -32 -310 -80 -116 -37 -179 -51 -408 -85
-59 -9 -154 -30 -210 -46 -149 -43 -280 -65 -567 -99 -140 -16 -309 -41 -375
-55 -66 -14 -163 -35 -215 -46 -52 -11 -156 -25 -230 -30 -230 -16 -577 -48
-750 -69 -492 -59 -706 -80 -800 -80 -165 0 -240 -34 -240 -107 0 -61 50 -89
320 -180 65 -21 190 -11 320 27 58 17 177 44 265 60 88 16 198 41 245 54 190
54 470 94 544 77 68 -16 87 -40 173 -210 157 -311 138 -398 -98 -436 -52 -8
-217 -35 -367 -60 -368 -61 -424 -59 -589 21 -246 118 -375 -51 -208 -274 57
-76 70 -107 89 -218 9 -49 36 -164 61 -256 52 -197 69 -288 90 -498 22 -209
39 -289 87 -395 23 -49 51 -126 63 -170 31 -107 39 -126 66 -152 74 -68 176
-56 270 32 64 60 81 65 244 75 137 8 376 36 565 65 381 59 822 97 888 77 20
-6 65 -34 99 -62 134 -109 202 -124 312 -69 78 39 102 75 134 195 27 100 31
109 87 195 21 33 45 88 55 126 27 110 55 184 90 243 40 66 67 144 94 269 11
51 40 136 65 189 24 54 54 131 66 172 29 99 49 137 108 201 56 62 147 194 157
227 11 39 -4 61 -98 138 -107 89 -118 95 -220 123 -79 22 -152 54 -217 97 -63
42 -180 67 -320 68 -147 0 -200 -12 -351 -80 -68 -30 -144 -55 -219 -71 -63
-13 -151 -33 -195 -44 -167 -41 -223 3 -195 152 17 86 12 120 -25 193 -54 108
-48 192 16 215 44 15 230 39 404 51 83 5 251 17 375 26 157 11 449 18 970 22
745 7 745 7 812 40 89 43 92 57 32 135 -82 107 -106 128 -192 168 -45 21 -101
51 -125 67 -98 66 -184 82 -410 81 -95 -1 -199 -5 -232 -9z m-850 -1410 c143
-37 163 -77 145 -294 -12 -150 -25 -223 -89 -491 -22 -93 -49 -240 -60 -326
-29 -237 -53 -269 -183 -253 -155 18 -305 11 -396 -19 -139 -46 -257 -33 -291
31 -23 43 -17 302 7 357 58 127 117 157 362 180 243 24 300 57 300 175 0 120
-106 157 -405 143 -194 -9 -266 32 -252 141 38 280 68 317 278 337 63 5 166
16 229 23 172 20 265 19 355 -4z m-1322 -191 c39 -30 50 -86 43 -214 -13 -219
-40 -245 -260 -259 -266 -18 -334 -84 -211 -210 57 -58 92 -68 245 -76 210
-10 220 -22 220 -267 0 -240 -15 -260 -211 -275 -68 -5 -166 -15 -218 -22
-185 -26 -245 23 -271 224 -6 47 -28 193 -50 325 -49 306 -63 559 -33 615 32
59 198 114 451 150 42 6 93 15 112 19 69 17 155 13 183 -10z"/>
<path d="M2090 4739 c-65 -27 -75 -71 -40 -174 26 -75 63 -139 115 -195 23
-25 57 -73 75 -107 62 -118 292 -368 377 -409 146 -72 266 -10 368 190 75 148
-17 346 -225 483 -135 89 -151 97 -284 129 -55 14 -132 39 -171 56 -75 33
-172 46 -215 27z"/>
<path d="M1865 3681 c-58 -27 -81 -56 -120 -156 -19 -49 -54 -119 -79 -155
-24 -36 -57 -98 -73 -136 -16 -38 -48 -97 -71 -131 -23 -34 -58 -96 -77 -138
-19 -41 -54 -101 -79 -133 -24 -31 -60 -91 -79 -132 -19 -41 -55 -101 -81
-133 -26 -32 -63 -90 -81 -130 -18 -40 -57 -101 -85 -136 -28 -35 -64 -90 -80
-121 -16 -32 -52 -84 -80 -115 -27 -32 -62 -78 -76 -103 -15 -25 -57 -81 -95
-126 -37 -45 -87 -106 -111 -136 -33 -41 -63 -65 -123 -96 -88 -47 -140 -99
-198 -196 -53 -90 -55 -116 -12 -244 20 -60 43 -140 52 -178 20 -92 37 -129
88 -201 24 -33 57 -96 74 -140 47 -122 214 -295 285 -295 88 0 164 66 197 169
6 20 33 88 59 151 47 111 80 242 95 375 13 116 37 201 85 305 36 77 57 142 79
245 25 111 41 160 81 240 38 76 57 131 80 232 23 105 41 155 84 240 41 81 59
130 70 195 20 106 32 140 90 259 25 52 58 139 72 194 15 55 55 163 90 240 87
192 146 436 116 482 -14 21 -56 23 -97 4z"/>
<path d="M3236 3468 c-14 -13 -39 -56 -55 -95 -16 -40 -50 -101 -74 -135 -25
-35 -59 -100 -76 -144 -18 -45 -50 -110 -73 -145 -23 -35 -55 -98 -71 -139
-16 -41 -51 -106 -78 -143 -28 -38 -67 -106 -88 -150 -21 -45 -57 -104 -79
-132 -41 -49 -52 -68 -90 -155 -11 -25 -43 -74 -71 -109 -29 -36 -67 -94 -86
-130 -46 -86 -258 -303 -393 -401 -92 -68 -95 -235 -7 -411 20 -38 51 -124 70
-190 40 -138 49 -157 104 -224 23 -28 59 -84 80 -125 76 -145 184 -210 271
-165 54 28 79 74 105 196 14 63 34 153 45 202 11 48 31 161 45 252 24 160 40
218 105 394 17 46 43 157 59 247 22 123 38 183 66 246 56 128 72 179 91 290
17 103 33 156 97 323 20 50 47 144 62 210 32 143 60 231 109 342 64 144 71
239 21 289 -30 30 -57 30 -89 2z"/>
<path d="M4669 1587 c-58 -35 -86 -77 -144 -212 -76 -176 -88 -192 -400 -512
-190 -195 -293 -278 -489 -395 -25 -14 -58 -46 -75 -70 -17 -24 -44 -61 -61
-84 -45 -61 -32 -86 34 -64 17 5 102 25 190 45 169 37 224 58 325 123 35 23
100 53 145 66 62 19 94 36 136 72 30 26 92 64 138 85 53 25 103 58 140 92 31
29 75 66 97 82 22 16 65 54 96 84 104 105 212 196 277 236 141 86 140 212 -2
307 -33 23 -84 61 -113 86 -96 80 -219 106 -294 59z"/>
<path d="M6113 1506 c-24 -21 -28 -32 -28 -78 0 -74 19 -105 165 -261 69 -75
170 -186 225 -248 55 -62 129 -145 165 -184 36 -40 115 -127 175 -195 239
-266 295 -323 358 -365 75 -51 102 -82 119 -136 11 -39 11 -39 98 -39 87 0 87
0 94 41 8 50 28 91 71 144 59 73 64 92 67 231 3 129 3 129 -60 253 -78 152
-97 176 -242 308 -81 74 -137 116 -190 143 -42 21 -96 55 -120 75 -52 43 -87
62 -195 104 -44 17 -105 46 -135 64 -75 45 -100 54 -213 76 -60 12 -126 34
-170 55 -89 44 -143 47 -184 12z"/>
</g>
</svg>
