<svg xmlns="http://www.w3.org/2000/svg" viewBox="0 0 448.792167 440.000000">
<g transform="translate(-11.119733,440.000000) scale(0.100000,-0.100000)" fill="#000000" stroke="none">
<path d="M2995 4327 c-5 -53 -1 -106 14 -197 32 -200 36 -252 17 -288 -22 -42
-48 -54 -212 -96 -170 -44 -234 -47 -270 -11 -23 23 -24 27 -18 122 5 76 3
111 -9 154 -19 63 -36 81 -92 99 -22 7 -59 23 -83 37 -58 33 -126 30 -154 -8
-19 -26 -19 -27 7 -155 14 -71 32 -149 40 -173 30 -91 14 -150 -48 -170 -52
-16 -255 -41 -339 -41 -65 0 -81 -3 -98 -20 -36 -36 -26 -55 68 -120 89 -62
141 -65 277 -16 176 63 198 51 210 -121 12 -195 19 -226 71 -313 61 -103 92
-113 171 -53 24 18 61 30 135 43 57 10 166 32 243 49 82 19 191 36 263 41 181
12 217 47 122 118 -63 47 -68 66 -42 154 12 40 26 104 31 142 11 75 27 100 75
115 17 6 167 15 333 20 316 10 348 15 387 60 59 66 -22 164 -167 203 -108 28
-236 34 -327 13 -171 -38 -206 -30 -204 47 0 24 11 62 22 85 30 58 28 102 -7
149 -44 60 -65 75 -149 103 -68 23 -79 30 -97 63 l-20 38 -72 0 -71 0 -7 -73z
m-10 -747 c10 -11 18 -35 18 -53 0 -88 -15 -263 -24 -279 -14 -27 -37 -35
-135 -52 -49 -9 -112 -22 -141 -30 -58 -16 -88 -12 -120 17 -30 27 -40 64 -48
174 -5 73 -3 98 9 121 23 44 102 78 221 97 55 9 102 18 104 21 2 2 25 4 51 4
34 0 52 -5 65 -20z"/>
<path d="M1407 4279 c-36 -21 -48 -65 -46 -172 2 -89 -1 -110 -24 -167 -14
-36 -33 -103 -42 -150 -10 -53 -29 -107 -50 -145 -18 -33 -38 -79 -44 -102 -6
-22 -29 -67 -50 -100 -22 -32 -44 -76 -50 -99 -6 -22 -28 -65 -49 -95 -22 -30
-45 -72 -52 -94 -7 -22 -29 -62 -50 -90 -21 -27 -47 -68 -58 -90 -11 -22 -32
-51 -47 -65 -15 -14 -33 -37 -41 -52 -8 -15 -33 -50 -57 -77 -23 -27 -52 -64
-64 -83 -81 -121 -115 -168 -123 -173 -6 -3 -27 -32 -49 -63 -21 -31 -115
-136 -208 -232 -93 -96 -175 -189 -182 -207 -18 -43 -11 -77 16 -81 22 -3 97
41 163 96 19 16 58 44 85 62 28 18 70 51 95 73 25 22 71 63 103 91 32 28 101
92 152 141 52 50 109 104 127 121 18 16 51 54 73 82 82 107 87 112 110 112 25
0 54 -23 56 -43 7 -90 6 -427 -1 -667 -9 -288 -18 -379 -54 -575 -9 -44 -27
-168 -41 -275 -17 -137 -33 -218 -52 -270 -24 -68 -27 -89 -27 -215 -1 -146 3
-168 80 -390 13 -39 84 -142 108 -157 21 -14 73 -8 88 10 40 45 77 139 87 222
6 47 15 425 20 840 14 1064 17 1142 46 1272 38 162 35 184 -31 295 -31 52 -66
100 -78 109 -27 17 -46 55 -46 90 0 15 16 41 40 67 21 24 48 64 59 89 10 25
33 61 50 80 17 20 40 57 52 82 11 26 33 62 50 80 16 19 36 51 45 72 9 22 27
54 41 73 14 18 39 61 56 95 16 33 41 77 56 96 15 19 39 55 53 80 14 25 36 54
48 65 41 37 63 93 58 151 -4 48 -10 58 -67 120 -34 38 -83 80 -109 94 -26 15
-65 38 -86 53 -41 29 -105 36 -139 16z"/>
<path d="M4100 3044 c-19 -3 -54 -9 -78 -14 -23 -6 -102 -19 -174 -30 -73 -11
-179 -36 -238 -54 -60 -20 -156 -41 -222 -50 -64 -8 -165 -26 -224 -40 -98
-22 -227 -43 -384 -61 -30 -4 -105 -18 -167 -31 -159 -34 -282 -51 -493 -69
-190 -15 -458 -51 -496 -65 -34 -13 -54 -39 -54 -69 0 -35 13 -46 81 -70 30
-10 74 -28 99 -40 64 -29 134 -27 238 9 48 16 116 34 152 40 36 6 139 29 229
52 171 42 219 45 266 14 38 -25 54 -67 65 -170 15 -144 -3 -172 -115 -182 -27
-3 -134 -14 -236 -26 l-185 -21 -80 21 c-94 26 -154 28 -194 7 -49 -25 -47
-41 19 -145 76 -120 79 -131 105 -306 14 -93 36 -212 50 -264 13 -52 29 -135
36 -185 9 -74 19 -107 57 -183 25 -50 53 -97 60 -104 30 -25 81 -14 145 32
l61 43 161 13 c89 7 235 22 326 33 326 41 493 44 540 9 10 -7 34 -26 55 -42
65 -52 158 -29 197 48 11 22 35 66 54 96 18 30 40 81 48 113 8 33 26 76 41 97
15 21 40 84 56 140 16 57 41 122 55 145 13 24 31 77 39 119 16 84 24 103 66
156 15 19 37 59 50 88 19 46 20 58 10 92 -17 57 -54 95 -105 110 -24 6 -68 28
-98 49 -35 24 -89 46 -156 65 l-101 29 -88 -21 c-48 -11 -104 -24 -123 -28
-19 -3 -79 -21 -132 -39 -53 -19 -131 -39 -173 -46 -66 -11 -80 -11 -103 2
-25 14 -27 20 -29 85 -1 64 -5 76 -42 134 -42 64 -51 103 -28 117 6 4 39 10
72 14 33 4 116 14 185 23 69 8 240 22 380 31 140 8 302 20 360 25 58 6 196 10
307 9 156 0 212 3 250 15 26 9 61 18 76 21 27 5 28 8 25 57 -3 52 -3 52 -42
60 -22 5 -56 23 -77 43 -21 18 -57 39 -81 45 -24 6 -72 20 -108 30 -74 21
-139 29 -190 24z m-551 -867 c13 -6 33 -30 44 -51 20 -38 20 -46 9 -220 -7
-100 -19 -208 -27 -241 -42 -185 -79 -312 -95 -329 -23 -23 -67 -23 -111 -1
-36 19 -117 15 -216 -11 -80 -21 -120 -18 -148 10 -21 22 -24 32 -24 117 0 97
13 140 47 158 9 5 85 24 167 41 166 36 201 50 217 85 9 19 7 29 -6 49 -22 34
-58 51 -145 69 -63 14 -79 14 -119 1 -109 -33 -139 -14 -155 100 -9 65 -9 80
6 110 9 19 27 42 40 51 22 14 218 57 307 68 79 9 186 6 209 -6z m-851 -132
c15 -19 22 -49 27 -111 7 -76 5 -89 -12 -112 -27 -37 -77 -60 -169 -77 -101
-19 -129 -39 -129 -91 0 -53 25 -64 145 -64 107 0 157 -17 177 -60 6 -14 14
-59 18 -101 7 -71 6 -77 -19 -106 -32 -38 -60 -47 -193 -63 -94 -11 -105 -11
-139 6 -68 34 -80 80 -110 435 -22 252 -22 258 3 279 12 9 66 27 119 40 54 12
114 28 133 35 20 8 57 14 83 14 38 1 50 -3 66 -24z"/>
<path d="M2395 878 c-25 -29 -61 -85 -80 -124 -68 -141 -383 -482 -504 -543
-49 -25 -81 -65 -81 -101 0 -27 1 -27 53 -23 86 7 167 31 215 64 25 17 71 42
101 56 31 13 67 35 81 47 14 13 43 33 65 44 22 11 51 31 65 44 14 14 45 39 70
56 25 18 79 62 120 97 41 36 93 78 114 93 62 42 156 137 156 156 0 10 -10 26
-22 36 -13 10 -46 39 -74 63 -33 28 -75 52 -115 66 -96 32 -110 29 -164 -31z"/>
<path d="M3343 903 c-24 -5 -53 -38 -53 -61 0 -8 27 -41 60 -74 33 -32 60 -63
60 -69 0 -5 17 -28 39 -52 21 -23 50 -61 65 -85 15 -24 33 -45 41 -48 7 -3 26
-24 41 -47 15 -23 41 -56 58 -72 17 -17 46 -50 63 -75 74 -102 127 -162 183
-206 32 -25 66 -61 75 -80 14 -30 20 -34 55 -34 36 0 39 3 51 38 6 20 29 56
50 80 35 40 38 48 44 127 l7 84 -43 78 c-64 113 -157 202 -307 291 -30 18 -69
45 -87 61 -19 16 -56 34 -86 41 -30 7 -83 27 -119 45 -103 51 -154 66 -197 58z"/>
<path d="M1675 68 c-24 -14 -44 -39 -45 -55 0 -9 15 -13 45 -13 l45 0 0 40 c0
42 -10 48 -45 28z"/>
</g>
</svg>
