<svg xmlns="http://www.w3.org/2000/svg" viewBox="0 0 479.191535 419.462318">
<g transform="translate(-10.808465,420.000000) scale(0.100000,-0.100000)" fill="#000000" stroke="none">
<path d="M2636 4191 c-3 -5 -8 -39 -12 -77 -6 -68 -5 -70 30 -115 37 -47 37
-47 66 -262 48 -357 64 -632 40 -678 -22 -40 -64 -50 -253 -60 -100 -5 -245
-16 -322 -25 -77 -8 -179 -19 -227 -24 -47 -5 -98 -15 -112 -22 -48 -21 -47
-95 0 -117 15 -7 73 -23 128 -37 137 -34 441 -45 556 -20 142 30 210 15 223
-51 8 -36 -9 -257 -33 -443 -10 -80 -22 -174 -25 -210 -3 -36 -22 -129 -41
-207 -18 -78 -40 -186 -49 -240 -10 -73 -23 -114 -49 -164 -20 -37 -43 -97
-52 -134 -10 -38 -32 -90 -52 -119 -19 -28 -41 -69 -50 -91 -9 -22 -35 -64
-59 -93 -24 -29 -43 -58 -43 -65 0 -19 -254 -327 -270 -327 -5 0 -37 -26 -74
-57 -69 -62 -184 -150 -213 -166 -10 -6 -33 -23 -50 -38 -18 -16 -51 -33 -72
-40 -54 -16 -85 -50 -77 -84 17 -65 129 -56 292 24 56 27 113 53 127 56 14 4
48 26 76 50 28 24 64 46 80 50 15 3 52 26 81 51 28 24 56 44 60 44 14 0 197
188 240 245 21 28 47 58 58 69 12 10 29 41 38 70 9 28 30 68 46 89 17 21 41
66 54 99 13 33 37 82 54 108 20 31 34 71 41 111 6 39 18 72 30 84 18 18 21 19
47 5 27 -16 76 -92 130 -205 16 -33 39 -69 52 -80 12 -11 37 -50 55 -86 18
-36 41 -71 50 -79 9 -7 26 -32 37 -54 11 -23 36 -59 55 -81 19 -22 53 -67 74
-100 75 -115 84 -127 132 -181 26 -30 47 -58 47 -62 0 -5 16 -25 35 -44 20
-20 55 -63 78 -96 133 -191 151 -202 336 -214 146 -9 759 -4 879 8 l72 7 0 38
c0 33 -4 39 -25 44 -14 3 -37 8 -52 11 -16 3 -64 22 -108 41 -44 20 -109 44
-145 53 -37 10 -89 33 -118 53 -29 19 -69 41 -89 47 -21 7 -58 28 -82 46 -24
18 -69 43 -100 54 -31 12 -67 32 -82 46 -14 13 -53 35 -87 48 -35 14 -77 37
-94 51 -17 14 -52 37 -77 50 -25 12 -57 35 -71 50 -13 14 -48 39 -76 56 -28
16 -58 37 -65 46 -8 9 -38 33 -66 55 -99 73 -501 490 -570 591 -24 34 -53 74
-64 89 -34 42 -36 110 -6 214 50 172 58 239 91 738 12 177 17 213 33 235 46
62 166 100 395 126 79 9 202 32 273 50 72 18 157 39 189 45 70 14 106 45 106
90 0 39 -24 86 -51 101 -28 15 -213 59 -247 59 -37 0 -288 -63 -337 -85 -133
-58 -258 -72 -296 -34 -20 20 -21 28 -14 108 4 47 10 185 15 306 5 121 13 234
18 250 5 17 24 57 41 91 38 71 35 84 -29 156 -29 34 -57 53 -92 65 -53 19
-108 64 -108 89 0 11 -25 14 -134 14 -74 0 -137 -4 -140 -9z"/>
<path d="M1384 4031 c-47 -29 -60 -77 -39 -142 19 -57 18 -77 -17 -209 -14
-52 -30 -124 -35 -160 -7 -43 -21 -82 -41 -113 -17 -27 -40 -81 -52 -120 -12
-39 -35 -90 -51 -112 -16 -22 -38 -66 -49 -98 -11 -32 -33 -77 -49 -99 -17
-23 -38 -63 -46 -89 -9 -26 -33 -67 -54 -91 -21 -24 -46 -59 -56 -78 -10 -19
-31 -50 -46 -68 -16 -18 -40 -54 -53 -80 -13 -26 -36 -58 -50 -71 -15 -14 -38
-44 -51 -68 -14 -23 -34 -47 -44 -52 -10 -6 -26 -27 -36 -48 -28 -59 -206
-261 -394 -447 -122 -120 -135 -150 -86 -182 31 -20 56 -12 109 35 23 20 57
47 76 60 89 62 391 333 510 457 193 202 229 225 250 168 6 -14 13 -157 16
-318 7 -329 -6 -509 -50 -682 -14 -55 -30 -142 -36 -194 -6 -52 -15 -133 -21
-180 -5 -47 -16 -112 -24 -145 -41 -173 -53 -335 -31 -428 30 -130 85 -268
121 -308 19 -21 48 -65 64 -98 17 -33 35 -62 40 -65 10 -7 109 92 128 128 6
12 26 64 45 116 l33 95 -1 265 c-1 146 -9 404 -18 573 -9 170 -16 458 -16 640
0 324 1 334 25 422 33 118 45 202 36 252 -8 40 -32 75 -128 183 -24 26 -43 57
-43 69 0 12 16 37 35 57 19 19 41 49 49 68 7 18 27 48 44 67 17 19 41 59 55
89 13 30 34 64 47 75 12 11 35 47 50 80 15 33 39 74 53 91 14 17 36 56 47 87
12 31 37 76 56 99 19 23 41 53 49 67 7 14 25 37 40 51 39 36 55 73 55 124 0
65 -11 85 -95 180 -64 72 -89 92 -157 126 -90 45 -119 49 -164 21z"/>
<path d="M3605 2693 c-52 -13 -58 -28 -95 -231 -20 -106 -27 -128 -56 -165
-19 -23 -41 -63 -49 -88 -9 -26 -25 -55 -37 -65 -11 -11 -37 -41 -58 -69 -20
-27 -75 -89 -122 -136 -83 -83 -110 -131 -92 -160 9 -14 70 -7 115 15 19 9 81
54 139 101 121 97 147 104 202 57 18 -16 44 -36 57 -44 23 -16 77 -62 174
-149 45 -40 89 -68 199 -126 49 -26 94 1 137 82 27 50 26 68 -3 130 -34 74
-110 138 -188 159 -35 10 -88 30 -118 45 -30 16 -72 31 -93 35 -58 11 -87 27
-93 53 -5 18 8 38 66 100 40 43 88 101 106 128 19 28 44 62 56 78 33 41 28 94
-11 127 -17 14 -55 45 -85 70 -66 54 -98 66 -151 53z"/>
<path d="M2022 2572 c-15 -15 -20 -40 -25 -123 -6 -109 -17 -155 -49 -202 -11
-15 -31 -55 -44 -89 -13 -34 -35 -73 -48 -87 -13 -15 -32 -42 -41 -61 -34 -68
-200 -264 -262 -309 -23 -17 -33 -32 -33 -51 0 -56 58 -68 112 -22 18 16 58
43 88 61 30 19 92 68 138 110 118 109 160 141 187 141 18 0 38 -20 85 -82 34
-46 70 -97 80 -115 11 -18 44 -49 75 -69 49 -33 58 -36 80 -26 37 17 85 98 85
144 0 44 -46 142 -81 174 -13 12 -53 36 -88 55 -76 40 -96 66 -88 117 5 27 18
48 50 77 48 43 107 131 107 159 0 27 -38 93 -62 111 -111 78 -164 105 -205
105 -28 0 -49 -6 -61 -18z"/>
</g>
</svg>
