<svg xmlns="http://www.w3.org/2000/svg" viewBox="0 0 730.083396 656.540184">
<g transform="translate(-18.879853,656.540184) scale(0.100000,-0.100000)" fill="#000000" stroke="none">
<path d="M2208 6556 c-97 -26 -108 -52 -112 -254 -4 -189 -22 -270 -95 -413
-27 -52 -57 -122 -66 -155 -23 -77 -44 -118 -95 -179 -23 -27 -58 -81 -77
-119 -19 -37 -54 -89 -77 -115 -24 -25 -59 -71 -79 -101 -20 -30 -103 -124
-186 -209 -83 -85 -151 -157 -151 -160 0 -19 -339 -320 -398 -354 -81 -46
-102 -69 -102 -112 0 -98 145 -100 289 -6 42 28 119 70 171 95 53 24 118 63
145 86 28 23 82 57 122 75 46 21 97 57 141 97 91 84 175 155 242 206 30 22 87
78 125 123 39 46 98 114 133 153 34 39 77 91 95 116 17 25 57 72 88 105 31 33
71 89 89 125 18 36 52 90 75 120 24 30 56 84 73 120 24 50 48 80 103 129 86
77 136 167 125 225 -10 53 -96 176 -162 231 -32 27 -82 70 -110 96 -78 69
-210 102 -306 75z"/>
<path d="M4405 6542 c-80 -37 -87 -132 -15 -197 71 -64 97 -190 180 -845 4
-36 11 -160 15 -276 12 -374 1 -381 -660 -425 -93 -6 -244 -14 -334 -18 -162
-6 -163 -7 -187 -34 -43 -50 -21 -101 71 -162 115 -76 126 -78 605 -79 571 -2
526 36 501 -421 -12 -215 -21 -297 -60 -520 -11 -61 -27 -191 -35 -290 -27
-311 -45 -405 -111 -589 -20 -55 -43 -145 -51 -200 -20 -139 -39 -200 -84
-277 -37 -63 -59 -122 -95 -250 -9 -35 -33 -81 -60 -117 -25 -32 -62 -97 -84
-143 -21 -46 -58 -106 -81 -134 -24 -27 -58 -82 -77 -122 -19 -40 -55 -93 -82
-121 -27 -28 -61 -67 -77 -89 -15 -21 -60 -72 -99 -113 -38 -41 -82 -89 -96
-105 -63 -73 -377 -320 -478 -375 -41 -23 -90 -54 -110 -69 -20 -16 -64 -42
-97 -59 -105 -53 -138 -113 -91 -167 56 -66 145 -52 377 59 96 45 186 88 200
93 14 6 57 36 95 68 39 31 102 73 140 92 39 20 89 53 112 74 23 21 68 52 100
68 68 35 351 310 414 401 13 19 51 64 84 100 43 47 68 85 87 135 16 39 50 101
77 138 29 39 59 96 72 135 28 86 44 118 84 167 52 65 76 122 96 233 21 117 43
165 78 170 79 12 186 -93 229 -225 25 -77 35 -95 87 -165 24 -32 57 -94 74
-139 18 -47 54 -112 82 -151 28 -37 60 -92 71 -121 28 -75 55 -125 93 -171 18
-23 54 -85 79 -139 25 -53 63 -118 85 -145 22 -26 55 -81 74 -122 19 -41 55
-98 79 -127 25 -28 58 -82 73 -120 40 -95 61 -121 162 -193 168 -120 196 -124
848 -116 604 7 658 11 696 54 32 36 37 74 15 125 -26 60 -62 84 -186 117 -88
24 -131 41 -183 76 -37 25 -100 56 -140 71 -76 27 -109 46 -169 100 -21 18
-75 51 -120 74 -46 23 -102 59 -126 81 -24 22 -80 56 -125 77 -45 21 -102 56
-127 78 -25 22 -69 52 -99 68 -30 15 -87 57 -127 93 -40 37 -121 110 -179 162
-166 149 -413 398 -467 472 -27 37 -62 78 -77 90 -16 13 -56 59 -89 103 -32
44 -70 89 -82 100 -12 11 -40 46 -61 77 -21 31 -60 81 -86 111 -62 71 -183
304 -183 351 0 19 14 72 31 118 38 103 63 288 79 583 6 116 17 275 25 355 8
80 19 197 25 260 45 471 54 486 309 501 240 14 490 48 614 84 79 22 309 62
427 74 138 14 189 32 255 93 80 72 95 152 39 198 -14 13 -196 90 -284 122 -94
34 -219 23 -344 -31 -54 -23 -149 -53 -210 -67 -61 -13 -165 -42 -231 -64
-288 -94 -363 -106 -441 -71 -73 33 -73 31 -64 486 8 436 16 496 84 660 41 98
27 183 -41 247 -48 45 -217 145 -274 163 -87 28 -390 32 -444 7z"/>
<path d="M2050 4818 c-88 -32 -97 -106 -29 -220 69 -114 58 -252 -30 -393 -22
-34 -52 -102 -67 -151 -29 -96 -41 -120 -91 -176 -18 -21 -46 -64 -62 -97 -17
-32 -53 -85 -82 -118 -28 -32 -66 -86 -86 -120 -19 -34 -54 -84 -77 -110 -24
-26 -60 -75 -81 -108 -56 -88 -310 -368 -552 -609 -39 -39 -87 -89 -105 -112
-52 -65 -307 -299 -384 -353 -39 -27 -79 -62 -89 -77 -10 -15 -42 -52 -71 -81
-58 -57 -70 -96 -38 -127 38 -39 92 -27 148 33 16 17 63 44 108 62 44 18 115
57 157 87 42 30 110 73 151 95 41 23 95 58 120 80 25 21 72 53 104 69 33 16
82 52 110 78 28 26 76 64 106 84 63 42 202 161 301 258 133 131 214 130 240
-3 21 -110 -1 -814 -30 -966 -6 -29 -26 -104 -45 -167 -33 -110 -47 -172 -81
-376 -9 -52 -32 -135 -52 -185 -56 -139 -64 -179 -70 -337 -6 -166 2 -209 62
-308 19 -31 44 -92 56 -135 24 -90 43 -126 90 -170 33 -31 79 -117 79 -147 0
-16 10 -18 75 -18 75 0 75 0 75 30 0 45 28 119 69 180 90 133 91 147 102 1135
12 1137 19 1315 53 1424 43 138 40 146 -118 446 -9 17 -16 40 -16 51 0 27 100
180 169 257 28 33 62 80 76 106 13 27 44 72 70 102 25 29 61 85 79 124 19 38
57 97 86 130 28 33 65 87 82 119 16 33 52 82 79 111 138 146 93 273 -156 433
-38 24 -90 64 -116 87 -77 72 -235 113 -319 83z"/>
<path d="M5905 4289 c-76 -23 -90 -54 -120 -262 -28 -194 -46 -255 -95 -317
-18 -23 -52 -80 -76 -128 -23 -48 -61 -107 -84 -132 -23 -25 -59 -71 -82 -103
-22 -32 -72 -91 -111 -131 -214 -216 -217 -220 -217 -254 0 -48 30 -72 89 -72
45 0 53 4 110 55 34 30 88 68 120 84 31 16 88 57 125 91 131 119 223 122 332
13 27 -27 77 -68 111 -91 35 -24 73 -56 85 -73 13 -17 55 -51 93 -77 39 -25
94 -67 123 -94 87 -78 220 -102 312 -55 63 32 83 65 88 141 9 143 -58 248
-210 326 -46 24 -102 56 -126 72 -59 41 -136 65 -228 73 -112 9 -129 13 -158
40 -41 38 -36 91 13 146 21 24 59 76 85 114 25 39 69 97 96 130 128 152 144
269 47 351 -177 150 -238 179 -322 153z"/>
<path d="M3555 4082 c-76 -18 -114 -94 -160 -318 -50 -241 -53 -251 -107 -320
-26 -35 -65 -100 -86 -146 -21 -46 -61 -110 -89 -143 -27 -33 -69 -88 -92
-122 -24 -35 -58 -74 -76 -88 -18 -13 -55 -57 -81 -97 -26 -40 -67 -94 -91
-121 -101 -109 -5 -188 108 -89 24 22 72 54 107 71 35 18 97 63 138 101 41 39
80 70 87 70 6 0 55 45 107 100 95 98 97 100 143 100 90 0 153 -49 218 -169 71
-130 164 -222 238 -237 98 -20 195 87 196 217 0 96 -107 257 -201 302 -32 16
-79 38 -104 50 -58 28 -90 76 -90 134 0 54 10 73 69 139 202 225 213 247 153
330 -82 113 -313 254 -387 236z"/>
</g>
</svg>
