<svg xmlns="http://www.w3.org/2000/svg" viewBox="0 0 417.000000 438.867257">
<g transform="translate(0.000000,450.000000) scale(0.100000,-0.100000)" fill="#000000" stroke="none">
<path d="M1598 4473 c-3 -16 -11 -49 -19 -75 -13 -47 -13 -47 38 -150 57 -115
69 -154 78 -248 12 -132 23 -648 15 -686 -5 -22 -21 -50 -38 -65 -31 -28 -17
-26 -382 -49 -219 -14 -399 -30 -442 -41 -45 -11 -62 -39 -54 -84 12 -61 50
-77 236 -99 123 -14 256 -12 545 9 143 11 144 8 133 -300 -8 -240 -18 -323
-58 -487 -16 -65 -36 -170 -45 -235 -11 -78 -27 -145 -50 -203 -19 -48 -42
-118 -51 -156 -18 -74 -31 -104 -68 -159 -13 -19 -29 -57 -36 -85 -7 -27 -25
-67 -42 -87 -16 -21 -41 -59 -54 -85 -13 -26 -38 -63 -56 -83 -17 -20 -45 -58
-62 -85 -87 -137 -372 -421 -500 -498 -16 -9 -57 -38 -90 -63 -34 -26 -77 -54
-96 -64 -19 -10 -53 -30 -75 -45 -22 -15 -64 -35 -92 -44 -29 -10 -74 -35
-100 -57 -26 -21 -53 -39 -60 -39 -6 0 -21 -12 -32 -26 -15 -20 -18 -31 -11
-44 16 -29 45 -33 97 -11 26 11 113 37 193 57 96 24 166 48 207 70 35 19 83
41 109 49 25 7 69 29 97 49 29 19 72 40 95 46 25 6 61 27 85 49 23 21 58 46
77 56 53 27 122 87 258 225 76 77 134 144 149 175 14 28 37 64 51 80 14 17 36
54 49 84 14 30 36 69 50 85 14 17 38 58 53 91 15 33 38 77 52 97 14 20 30 64
37 97 23 116 75 133 128 42 15 -27 42 -72 58 -101 17 -29 49 -76 72 -105 23
-29 50 -70 61 -91 11 -22 29 -48 41 -58 12 -11 35 -43 51 -71 16 -28 41 -62
55 -75 15 -14 36 -42 46 -63 11 -21 35 -55 53 -75 18 -20 41 -53 51 -72 16
-32 37 -58 145 -180 109 -123 228 -264 265 -313 30 -41 117 -112 175 -143 32
-18 65 -19 446 -22 455 -3 638 6 697 34 20 10 37 20 37 24 0 9 -103 107 -125
118 -11 5 -40 13 -65 17 -25 4 -76 24 -115 45 -38 21 -90 41 -115 45 -59 9
-105 29 -141 59 -15 13 -57 34 -91 45 -35 12 -80 35 -102 51 -21 16 -62 37
-90 46 -28 9 -68 30 -89 46 -21 17 -66 41 -100 54 -34 13 -77 37 -97 53 -19
15 -54 38 -77 50 -24 11 -57 34 -75 50 -18 15 -52 38 -76 50 -24 12 -60 37
-80 55 -20 18 -53 43 -72 56 -19 13 -41 32 -48 42 -7 10 -32 31 -55 47 -56 40
-141 123 -262 256 -55 60 -120 130 -145 156 -64 66 -126 141 -152 186 -13 21
-37 60 -55 87 -18 26 -33 61 -33 76 0 15 14 72 30 126 36 116 45 172 65 405 8
97 24 250 35 340 12 90 23 183 26 206 6 50 38 100 79 124 19 11 87 25 185 38
98 12 188 31 245 49 50 17 142 38 205 47 165 24 224 61 224 142 0 43 -19 60
-121 107 -72 33 -93 38 -161 39 -69 0 -87 -4 -148 -32 -38 -18 -119 -43 -181
-56 -67 -14 -131 -34 -156 -49 -74 -44 -140 -28 -152 37 -9 53 12 579 25 612
6 17 28 54 48 84 34 49 37 59 37 123 0 76 8 63 -92 145 -22 17 -71 41 -109 52
-77 24 -92 33 -118 74 l-18 27 -128 0 -128 0 -4 -27z"/>
<path d="M2733 2965 c-28 -19 -40 -60 -52 -167 -6 -49 -19 -104 -30 -126 -11
-21 -31 -77 -44 -125 -15 -54 -35 -100 -55 -125 -17 -21 -40 -64 -52 -94 -11
-30 -30 -64 -41 -74 -12 -11 -34 -44 -49 -74 -15 -30 -40 -66 -55 -80 -15 -14
-44 -50 -65 -80 -21 -30 -48 -64 -60 -75 -37 -33 -110 -150 -110 -177 0 -14 7
-32 16 -39 13 -11 20 -11 39 1 13 8 55 34 94 58 38 23 76 51 84 62 8 11 33 34
58 52 24 17 82 71 130 120 80 81 90 88 125 88 22 -1 49 -6 61 -13 25 -14 189
-166 324 -300 106 -105 180 -146 231 -128 89 31 125 95 112 199 -8 73 -14 84
-88 157 -51 51 -71 64 -121 78 -34 9 -81 30 -106 46 -50 31 -92 46 -159 56
-89 14 -128 54 -114 118 3 16 45 74 95 130 49 56 114 130 143 164 59 68 74
109 56 153 -16 39 -109 114 -168 136 -26 10 -67 31 -91 46 -51 32 -77 35 -108
13z"/>
<path d="M883 2705 c-40 -17 -51 -39 -58 -112 -10 -115 -38 -234 -62 -266 -13
-18 -36 -59 -52 -92 -16 -34 -48 -83 -70 -110 -23 -27 -41 -53 -41 -57 0 -5
-25 -36 -56 -71 -31 -34 -75 -83 -98 -109 -111 -126 -155 -174 -206 -221 -30
-29 -79 -78 -109 -110 -42 -44 -63 -59 -93 -63 -37 -6 -38 -8 -38 -46 l0 -40
68 4 c56 3 77 10 127 40 33 20 78 42 99 50 21 7 57 29 80 49 23 20 50 40 60
46 29 16 115 94 231 211 97 97 105 102 144 102 32 0 47 -6 64 -24 12 -14 45
-51 74 -83 181 -202 218 -232 285 -233 34 0 96 52 114 97 21 49 17 88 -16 153
-41 82 -129 152 -225 180 -119 35 -135 45 -135 82 1 55 20 82 143 209 161 165
177 194 139 251 -19 29 -120 111 -167 135 -35 19 -121 43 -150 42 -11 0 -34
-6 -52 -14z"/>
</g>
</svg>
