<svg xmlns="http://www.w3.org/2000/svg" viewBox="0 0 451.093145 420.000000">
<g transform="translate(-0.275019,420.000000) scale(0.100000,-0.100000)" fill="#000000" stroke="none">
<path d="M2216 4136 c-7 -72 -1 -95 42 -149 36 -44 34 -38 67 -272 14 -99 28
-186 30 -194 9 -24 26 -361 20 -382 -11 -34 -71 -51 -235 -65 -85 -7 -208 -18
-273 -24 -150 -13 -177 -25 -177 -82 0 -38 36 -62 132 -88 125 -34 242 -50
359 -50 196 0 205 -11 189 -238 -12 -181 -17 -223 -36 -310 -8 -35 -23 -145
-34 -245 -11 -107 -30 -221 -45 -277 -15 -52 -37 -143 -50 -202 -13 -59 -38
-135 -56 -170 -18 -35 -40 -94 -50 -132 -10 -38 -31 -88 -48 -111 -16 -23 -38
-61 -47 -86 -9 -24 -32 -63 -51 -86 -18 -23 -42 -63 -53 -89 -12 -26 -37 -66
-56 -88 -158 -184 -259 -294 -285 -313 -17 -12 -37 -30 -45 -41 -7 -11 -36
-34 -64 -52 -27 -18 -50 -36 -50 -41 0 -12 -156 -113 -220 -142 -69 -31 -82
-45 -114 -134 l-26 -73 30 0 c18 0 30 5 30 13 0 32 31 48 155 82 72 20 148 45
170 57 22 12 63 33 90 46 28 14 65 38 83 54 19 16 57 39 85 52 29 13 61 33 72
46 11 12 38 31 60 42 54 28 240 223 290 304 11 18 33 48 48 67 15 20 37 59 47
87 11 29 35 75 54 104 19 28 40 69 45 92 6 23 22 56 36 75 41 57 52 81 74 162
28 102 46 135 77 143 56 14 89 -23 118 -130 8 -32 29 -76 45 -97 17 -21 42
-68 55 -104 13 -37 36 -79 49 -94 14 -14 35 -51 47 -83 11 -31 34 -73 50 -93
16 -20 39 -62 50 -93 12 -30 34 -72 50 -92 16 -21 38 -58 49 -82 10 -25 32
-60 49 -79 16 -19 41 -57 56 -86 14 -29 39 -67 54 -85 15 -18 37 -47 48 -65
27 -44 128 -130 161 -137 174 -36 551 -51 859 -33 232 13 259 20 284 67 15 28
-16 55 -87 76 -32 9 -82 30 -112 45 -30 16 -62 29 -71 29 -33 0 -105 31 -141
60 -21 16 -60 38 -88 49 -27 10 -68 34 -91 53 -22 19 -58 40 -80 47 -22 6 -56
25 -74 42 -19 16 -60 41 -92 55 -32 14 -73 39 -91 55 -19 16 -53 39 -76 50
-43 22 -65 40 -255 208 -107 95 -207 194 -293 293 -231 265 -242 278 -267 322
-13 23 -37 52 -54 65 -31 25 -88 136 -88 172 0 11 9 45 19 77 12 34 24 114 30
202 11 134 47 498 71 699 16 136 39 154 210 165 58 3 148 16 200 27 151 32
289 56 365 64 39 4 85 13 102 20 57 24 90 105 63 155 -6 11 -58 43 -115 71
-102 50 -107 51 -192 52 -82 0 -95 -3 -178 -41 -61 -27 -120 -45 -181 -55 -50
-8 -105 -22 -122 -31 -43 -22 -85 -20 -108 5 -18 20 -19 40 -19 293 0 149 3
283 7 298 5 14 24 48 44 74 81 105 41 196 -120 274 -35 17 -56 35 -66 57 l-15
33 -161 0 -161 0 -7 -64z"/>
<path d="M607 3612 c-10 -10 -17 -34 -17 -52 0 -27 10 -43 53 -85 28 -29 81
-87 117 -130 99 -119 193 -205 288 -262 113 -69 143 -69 221 2 140 126 57 364
-147 424 -39 12 -74 25 -76 30 -15 24 -104 52 -198 62 -56 5 -109 14 -119 20
-31 16 -104 11 -122 -9z"/>
<path d="M3275 2701 c-33 -14 -56 -47 -61 -88 -20 -191 -26 -219 -60 -281 -19
-34 -42 -85 -50 -113 -8 -28 -30 -67 -48 -87 -18 -20 -43 -55 -54 -78 -11 -22
-28 -47 -38 -55 -9 -8 -33 -39 -52 -69 -19 -30 -56 -76 -82 -101 -47 -46 -93
-139 -83 -166 6 -15 49 -18 58 -4 3 5 28 17 56 26 53 18 123 72 213 163 45 46
56 52 93 52 39 0 45 -5 164 -127 67 -71 144 -155 170 -189 51 -64 143 -124
190 -124 37 0 89 37 105 75 21 50 18 161 -6 213 -10 23 -23 42 -28 42 -5 0
-31 22 -58 48 -34 33 -67 54 -104 66 -30 10 -71 31 -91 47 -21 16 -59 33 -90
40 -107 22 -123 54 -61 125 40 46 97 115 198 238 35 44 64 89 65 100 4 69 -16
113 -65 141 -17 10 -50 35 -73 55 -60 52 -150 74 -208 51z"/>
<path d="M1742 2643 c-22 -8 -43 -61 -57 -143 -8 -43 -25 -100 -38 -127 -14
-26 -34 -78 -45 -115 -11 -37 -33 -84 -50 -105 -16 -21 -39 -60 -51 -87 -11
-26 -34 -64 -51 -82 -16 -19 -37 -51 -45 -70 -14 -33 -34 -60 -147 -189 -51
-58 -79 -128 -60 -147 13 -13 66 -4 109 20 42 22 241 206 277 255 22 30 34 37
61 37 30 0 40 -7 77 -56 24 -30 53 -70 65 -87 12 -18 35 -49 50 -70 15 -21 42
-59 60 -84 38 -55 49 -63 86 -63 43 0 67 17 87 63 40 92 34 187 -16 246 -32
38 -169 134 -213 149 -48 17 -71 40 -71 71 0 31 17 58 77 123 24 26 43 52 43
58 0 6 22 35 49 63 88 94 100 143 52 219 -25 39 -43 53 -115 87 -83 39 -106
45 -134 34z"/>
<path d="M70 2617 c-77 -26 -86 -45 -36 -75 19 -11 49 -40 66 -64 30 -42 179
-207 230 -256 88 -84 114 -103 193 -146 101 -54 108 -54 192 0 68 43 82 64 90
136 13 107 2 143 -70 214 -47 46 -77 67 -112 77 -26 8 -79 31 -118 51 -53 27
-94 40 -170 51 -55 8 -116 19 -135 25 -47 14 -55 13 -130 -13z"/>
<path d="M1021 1999 c-11 -12 -27 -41 -35 -65 -8 -24 -26 -59 -40 -77 -14 -18
-35 -55 -47 -83 -12 -27 -31 -62 -44 -79 -12 -16 -36 -57 -53 -90 -16 -33 -40
-69 -52 -80 -12 -11 -31 -38 -42 -60 -11 -22 -37 -58 -57 -81 -20 -22 -48 -63
-64 -90 -28 -51 -71 -110 -130 -179 -18 -22 -43 -53 -54 -70 -12 -16 -54 -55
-94 -85 -160 -122 -178 -156 -140 -272 11 -35 27 -92 36 -127 8 -36 26 -79 39
-95 13 -17 37 -58 54 -91 17 -33 55 -86 85 -117 50 -54 57 -58 99 -58 84 0
110 39 123 190 8 92 19 139 50 211 14 31 34 99 44 153 11 54 35 128 54 169 19
39 40 99 47 132 6 33 27 88 46 122 19 34 41 95 50 135 9 40 31 105 49 143 18
39 49 117 68 175 19 58 47 134 63 170 31 74 44 181 24 205 -18 22 -56 18 -79
-6z"/>
</g>
</svg>
