<svg xmlns="http://www.w3.org/2000/svg" viewBox="0 0 766.313251 670.615915">
<g transform="translate(-17.686749,672.000000) scale(0.100000,-0.100000)" fill="#000000" stroke="none">
<path d="M4206 6631 c-25 -136 -20 -159 52 -250 43 -53 56 -95 73 -226 65
-515 80 -644 89 -786 20 -325 18 -429 -9 -473 -47 -75 -59 -77 -606 -112 -137
-8 -336 -26 -441 -39 -105 -13 -229 -27 -275 -31 -136 -10 -189 -46 -189 -128
0 -71 49 -98 270 -150 218 -52 699 -66 890 -26 226 47 329 13 346 -114 11 -76
-24 -514 -56 -706 -10 -63 -21 -149 -25 -190 -13 -146 -37 -283 -86 -493 -28
-116 -59 -272 -70 -347 -19 -127 -23 -142 -79 -255 -37 -74 -69 -158 -84 -217
-28 -107 -41 -137 -91 -207 -18 -25 -51 -85 -73 -133 -22 -47 -58 -106 -80
-130 -22 -23 -58 -76 -80 -116 -37 -68 -81 -127 -192 -258 -140 -164 -215
-246 -250 -272 -21 -15 -73 -59 -115 -97 -42 -38 -98 -82 -123 -98 -26 -16
-65 -46 -87 -67 -22 -21 -67 -55 -100 -76 -33 -20 -78 -52 -100 -70 -22 -17
-79 -50 -127 -72 -97 -45 -125 -78 -113 -133 22 -100 261 -78 475 45 41 23
110 55 152 70 52 19 95 44 135 77 32 27 99 69 148 93 50 24 99 54 110 66 11
12 54 45 95 72 86 57 350 322 407 408 20 30 59 80 87 110 39 42 58 75 79 134
16 47 47 105 76 145 29 39 60 98 77 145 15 43 44 104 65 137 59 91 69 115 84
201 19 106 40 142 86 146 47 4 78 -22 119 -100 18 -35 51 -89 72 -120 21 -32
48 -83 60 -113 11 -30 43 -80 70 -111 27 -31 69 -95 93 -143 24 -47 62 -108
84 -135 23 -26 55 -74 71 -105 17 -32 53 -82 80 -112 27 -30 63 -80 81 -112
17 -32 53 -84 79 -116 27 -32 63 -83 81 -112 18 -30 53 -76 79 -104 26 -27 65
-77 88 -110 22 -33 54 -73 72 -90 18 -16 52 -61 77 -98 24 -37 62 -88 84 -112
22 -23 61 -71 87 -106 57 -76 107 -113 187 -135 90 -26 1405 -34 1556 -10 55
9 115 16 134 16 35 0 35 0 35 64 0 63 0 63 -57 70 -32 4 -95 22 -140 41 -46
19 -120 50 -165 69 -45 19 -122 45 -171 57 -73 18 -106 32 -168 75 -42 29
-115 68 -161 87 -48 18 -111 53 -144 79 -35 28 -93 60 -142 79 -46 17 -102 47
-125 65 -38 31 -73 50 -222 118 -27 13 -70 40 -94 61 -25 20 -72 50 -104 67
-33 16 -80 49 -106 72 -25 24 -80 65 -121 91 -41 26 -95 66 -120 90 -25 23
-63 54 -85 68 -142 92 -798 772 -933 967 -29 41 -68 94 -86 117 -63 79 -69
182 -20 347 66 217 96 435 130 926 40 584 40 583 58 622 54 113 244 175 696
228 183 22 230 31 500 99 91 23 193 49 227 58 88 21 123 62 123 139 0 64 -26
122 -65 148 -39 26 -335 96 -403 96 -101 1 -350 -66 -667 -178 -273 -96 -425
-30 -374 163 6 22 14 200 19 395 9 421 15 466 92 616 58 116 60 146 11 218
-58 84 -114 131 -198 166 -105 43 -134 64 -157 117 -19 43 -19 43 -232 43
-213 0 -213 0 -230 -89z"/>
<path d="M2250 6469 c-100 -42 -130 -134 -90 -274 24 -82 22 -100 -26 -264
-19 -64 -43 -170 -54 -236 -21 -130 -39 -191 -68 -233 -36 -50 -65 -117 -97
-219 -20 -63 -46 -120 -67 -150 -45 -61 -70 -111 -97 -195 -13 -39 -43 -95
-71 -133 -27 -36 -56 -89 -66 -118 -26 -79 -52 -125 -99 -176 -23 -25 -56 -73
-73 -107 -17 -33 -52 -85 -77 -115 -26 -30 -60 -80 -76 -111 -16 -31 -54 -85
-85 -120 -31 -34 -67 -83 -82 -108 -14 -25 -49 -70 -78 -101 -28 -30 -63 -77
-77 -105 -14 -27 -47 -74 -74 -104 -27 -30 -67 -80 -89 -110 -23 -30 -168
-183 -324 -340 -300 -303 -319 -328 -296 -384 30 -73 111 -67 200 14 24 23 80
67 124 98 245 175 919 792 970 888 12 22 131 123 170 143 16 9 27 9 43 1 40
-22 49 -68 59 -307 25 -581 2 -1006 -70 -1293 -36 -144 -56 -256 -70 -390 -27
-256 -42 -360 -70 -486 -57 -254 -74 -524 -44 -672 16 -80 110 -367 138 -421
9 -17 36 -53 61 -81 24 -27 69 -92 100 -145 31 -52 61 -97 66 -101 13 -7 160
135 190 183 27 44 117 320 130 401 14 92 14 387 0 687 -6 138 -16 340 -21 450
-27 554 -31 742 -28 1230 3 530 3 530 48 685 70 245 63 400 -20 475 -13 11
-49 55 -82 98 -32 42 -63 77 -68 77 -16 0 -50 68 -50 101 0 27 11 46 50 88 27
30 64 82 81 115 18 34 49 81 70 106 21 25 54 79 73 120 19 41 59 106 89 143
30 38 65 95 78 128 13 32 47 91 76 130 30 41 65 105 84 154 21 57 47 102 81
142 27 32 62 81 78 108 16 28 54 78 84 112 65 75 79 113 74 201 -5 97 -32 142
-169 286 -116 121 -126 129 -233 182 -117 58 -179 73 -226 53z"/>
<path d="M5741 4292 c-53 -26 -71 -60 -86 -158 -22 -137 -72 -369 -85 -395 -7
-13 -30 -47 -51 -75 -22 -28 -51 -80 -65 -115 -14 -35 -34 -73 -43 -85 -127
-163 -232 -285 -325 -377 -118 -118 -156 -183 -129 -226 16 -25 90 -25 156 -1
58 22 75 33 279 194 136 108 159 120 205 113 37 -6 230 -146 293 -212 19 -20
60 -54 90 -75 30 -21 75 -59 100 -85 25 -26 76 -63 115 -82 39 -20 88 -48 110
-63 122 -84 222 -47 292 107 75 163 -85 384 -329 454 -56 17 -131 46 -164 65
-34 18 -102 45 -152 58 -176 47 -193 83 -89 195 120 131 175 198 208 252 18
30 50 74 70 99 88 108 75 191 -45 273 -34 22 -82 60 -107 84 -78 72 -173 94
-248 55z"/>
<path d="M3273 4135 c-56 -24 -67 -55 -74 -195 -9 -174 -28 -255 -85 -351 -25
-44 -59 -113 -74 -154 -17 -47 -44 -92 -70 -122 -23 -26 -53 -70 -67 -98 -14
-27 -51 -81 -82 -120 -31 -38 -75 -95 -97 -125 -23 -30 -96 -110 -163 -178
-132 -135 -143 -154 -111 -195 38 -48 103 -38 185 28 22 18 74 51 115 75 78
45 164 116 315 261 185 178 226 182 323 39 16 -25 47 -66 67 -90 20 -24 47
-65 60 -90 43 -85 173 -184 241 -184 71 0 164 137 164 240 0 44 -8 69 -46 141
-59 113 -90 145 -194 196 -126 62 -170 109 -170 178 0 65 20 101 84 153 63 52
159 205 159 255 0 91 -53 154 -222 263 -136 88 -189 103 -258 73z"/>
</g>
</svg>
