<svg xmlns="http://www.w3.org/2000/svg" viewBox="0 0 457.000000 409.904564">
<g transform="translate(-11.000000,409.904564) scale(0.100000,-0.100000)" fill="#000000" stroke="none">
<path d="M1353 4090 c-34 -14 -43 -42 -43 -142 0 -108 -17 -183 -61 -270 -17
-34 -38 -83 -45 -109 -8 -26 -30 -67 -50 -90 -19 -23 -42 -58 -50 -78 -8 -20
-28 -49 -43 -66 -15 -16 -38 -46 -51 -65 -52 -78 -399 -424 -453 -451 -60 -30
-77 -48 -77 -81 0 -60 95 -61 181 -1 28 19 79 47 113 62 33 16 75 39 91 53 17
14 48 34 70 45 41 19 198 149 284 233 25 25 78 83 116 129 39 46 89 105 112
130 24 26 49 64 57 83 9 20 26 49 39 64 14 16 36 52 51 81 14 28 42 64 61 79
42 32 88 104 88 139 0 57 -144 215 -227 250 -39 16 -128 19 -163 5z"/>
<path d="M2760 4093 c-60 -22 -66 -76 -14 -133 43 -47 44 -53 83 -330 21 -148
32 -264 33 -372 l3 -156 -29 -30 c-18 -19 -46 -34 -75 -41 -66 -15 -240 -30
-436 -37 -180 -7 -215 -16 -215 -55 0 -29 42 -66 107 -96 56 -26 58 -26 327
-27 287 -2 310 -5 321 -49 10 -37 -13 -396 -29 -472 -8 -38 -20 -119 -26 -180
-26 -261 -33 -304 -66 -403 -19 -57 -39 -135 -44 -175 -7 -49 -23 -98 -50
-152 -21 -44 -44 -104 -51 -133 -6 -32 -25 -71 -45 -98 -19 -25 -42 -64 -51
-87 -9 -23 -31 -60 -49 -82 -17 -22 -42 -60 -54 -85 -22 -43 -67 -100 -147
-183 -20 -21 -46 -51 -58 -67 -32 -43 -245 -214 -306 -245 -19 -10 -54 -32
-79 -50 -25 -18 -54 -35 -66 -39 -59 -18 -83 -82 -42 -110 39 -28 88 -19 194
32 54 27 115 54 136 61 20 7 57 30 81 52 25 22 61 46 81 54 19 8 50 28 68 44
18 15 51 38 73 49 22 11 90 73 150 136 167 177 192 208 215 261 12 28 32 64
46 82 14 18 37 64 53 102 16 39 40 84 54 101 27 32 57 115 57 157 0 13 7 39
14 58 11 27 21 35 40 35 48 0 125 -91 140 -165 4 -16 22 -50 41 -73 19 -24 44
-69 55 -100 12 -30 35 -73 52 -94 16 -21 39 -62 50 -90 11 -29 32 -68 48 -88
16 -20 40 -63 55 -95 14 -33 37 -71 50 -85 13 -14 33 -47 45 -74 11 -27 36
-66 54 -86 19 -21 39 -55 46 -76 7 -22 19 -47 26 -58 20 -30 153 -115 192
-123 46 -10 767 -10 804 0 39 10 58 34 58 72 0 55 -33 83 -124 106 -45 11 -94
30 -113 45 -19 14 -61 37 -94 49 -33 13 -76 38 -96 55 -20 18 -57 41 -82 52
-25 10 -59 32 -76 48 -16 16 -51 38 -76 48 -25 11 -61 33 -80 50 -19 16 -50
37 -69 47 -19 10 -100 78 -180 151 -199 181 -322 316 -533 584 -54 69 -127
204 -127 235 0 14 8 46 19 72 26 66 39 157 51 368 13 218 46 557 60 606 16 56
50 82 117 86 174 11 304 28 443 58 85 19 196 38 247 44 101 11 135 24 182 72
41 40 41 96 1 116 -121 59 -170 76 -236 80 -63 5 -78 2 -142 -26 -40 -17 -97
-36 -129 -42 -31 -6 -111 -29 -177 -51 -92 -31 -138 -41 -189 -42 -110 -2
-107 -9 -103 302 4 267 9 306 59 437 29 74 2 121 -107 189 -45 28 -94 50 -126
56 -55 10 -214 12 -240 3z"/>
<path d="M1273 3010 c-50 -20 -54 -68 -13 -130 47 -71 42 -167 -15 -250 -13
-19 -34 -65 -45 -103 -12 -37 -34 -82 -49 -100 -16 -17 -36 -48 -46 -67 -9
-19 -31 -50 -48 -67 -17 -18 -42 -52 -56 -77 -31 -53 -106 -155 -158 -215
-103 -121 -515 -539 -568 -576 -62 -44 -165 -156 -165 -179 0 -2 7 -12 16 -20
23 -24 57 -19 85 10 13 15 49 38 79 51 30 14 75 40 100 58 25 18 68 44 95 58
28 14 59 35 70 47 11 12 40 32 65 45 25 13 54 33 65 45 11 13 40 36 64 51 25
16 88 69 142 119 110 102 144 124 170 110 30 -17 39 -68 39 -224 0 -260 -16
-431 -50 -541 -17 -54 -37 -143 -46 -199 -9 -56 -30 -135 -47 -176 -27 -65
-31 -90 -35 -192 -4 -116 -4 -119 26 -170 16 -29 37 -79 46 -110 10 -36 31
-74 55 -102 22 -25 42 -59 46 -76 6 -28 10 -30 51 -30 39 0 44 3 50 28 12 56
17 68 45 107 51 71 56 153 63 872 6 602 7 646 26 705 29 93 26 116 -30 219
-27 51 -50 100 -50 110 0 21 56 105 106 159 17 19 40 51 49 70 10 19 30 49 46
67 15 18 37 52 47 76 11 25 35 62 55 83 19 22 42 55 52 74 9 19 33 51 52 72
27 27 37 47 40 81 5 44 4 48 -48 102 -30 31 -67 64 -84 72 -16 9 -49 33 -72
54 -60 55 -162 82 -220 59z"/>
<path d="M3661 2663 c-17 -17 -32 -45 -35 -64 -33 -225 -34 -231 -63 -273 -17
-22 -45 -69 -63 -103 -18 -35 -37 -63 -41 -63 -5 0 -21 -19 -36 -42 -25 -41
-79 -101 -185 -208 -27 -26 -48 -53 -48 -59 0 -20 39 -51 65 -51 16 0 42 15
68 39 23 21 58 46 77 56 19 10 57 37 83 61 50 44 98 62 137 49 12 -4 47 -29
78 -56 104 -89 167 -140 207 -170 22 -16 53 -39 68 -51 38 -31 154 -33 186 -4
51 46 45 156 -12 220 -18 20 -57 49 -87 65 -30 15 -76 40 -102 55 -35 20 -66
29 -120 33 -124 9 -148 45 -83 124 20 23 41 51 47 62 6 11 31 45 56 76 52 64
72 107 72 154 0 42 -9 53 -94 117 -88 67 -132 76 -175 33z"/>
<path d="M2191 2534 c-35 -29 -49 -71 -81 -234 -16 -81 -27 -113 -49 -141 -16
-19 -45 -66 -65 -105 -42 -79 -95 -153 -147 -204 -19 -19 -49 -55 -66 -80 -17
-25 -43 -56 -57 -69 -31 -29 -34 -66 -7 -81 24 -12 59 -1 86 30 11 12 38 31
60 42 47 24 109 76 206 172 66 65 71 68 106 63 52 -9 83 -35 121 -103 18 -32
55 -80 82 -106 39 -39 55 -48 83 -48 68 0 132 102 108 170 -10 31 -79 128
-102 146 -8 6 -35 18 -61 28 -94 35 -112 96 -50 169 132 158 126 148 123 190
-2 33 -81 105 -161 146 -43 23 -83 41 -88 41 -6 0 -24 -12 -41 -26z"/>
</g>
</svg>
