<svg xmlns="http://www.w3.org/2000/svg" viewBox="0 0 664.669801 702.805675">
<g transform="translate(0.000000,719.963355) scale(0.100000,-0.100000)" fill="#000000" stroke="none">
<path d="M2560 7172 c0 -16 -11 -62 -25 -102 -32 -95 -32 -106 11 -187 167
-320 171 -342 194 -1187 14 -506 3 -531 -244 -547 -66 -4 -182 -12 -256 -18
-74 -6 -216 -15 -315 -21 -426 -26 -589 -48 -629 -85 -52 -48 -25 -160 50
-202 130 -74 709 -101 1094 -50 190 24 251 12 287 -56 14 -27 15 -67 9 -312
-12 -481 -25 -596 -97 -894 -22 -90 -47 -214 -55 -275 -29 -207 -54 -316 -99
-429 -24 -62 -60 -172 -80 -245 -38 -147 -42 -156 -93 -225 -20 -28 -49 -91
-68 -148 -24 -72 -47 -119 -82 -167 -27 -37 -64 -96 -82 -131 -17 -35 -51 -84
-75 -110 -23 -25 -60 -75 -80 -111 -21 -36 -59 -90 -84 -120 -25 -30 -66 -81
-90 -112 -63 -84 -434 -444 -499 -485 -32 -20 -80 -57 -108 -83 -28 -27 -75
-60 -105 -75 -30 -15 -83 -52 -118 -81 -35 -29 -91 -67 -125 -85 -33 -18 -87
-50 -119 -70 -33 -21 -98 -53 -145 -71 -57 -21 -105 -48 -142 -79 -31 -25 -72
-54 -91 -64 -161 -81 -88 -201 80 -130 32 13 141 45 242 70 101 25 212 53 246
61 36 9 94 36 140 65 47 30 112 60 163 76 87 26 106 36 177 89 23 18 79 44
123 59 64 21 94 38 140 79 32 29 86 67 121 85 34 19 85 55 114 81 28 25 74 62
101 80 50 34 207 190 346 344 52 57 88 108 108 152 17 37 51 92 76 123 48 59
74 103 93 161 6 19 36 68 66 108 31 40 71 109 89 152 19 44 52 106 74 139 31
47 46 84 63 158 22 99 62 163 100 163 29 0 79 -41 100 -82 12 -24 43 -74 69
-113 25 -38 57 -92 70 -119 13 -27 47 -75 75 -107 29 -32 69 -91 90 -130 20
-39 59 -95 86 -125 26 -29 57 -71 68 -93 12 -22 45 -68 75 -104 31 -36 72 -93
92 -128 21 -35 54 -81 75 -104 20 -22 54 -69 75 -105 21 -36 59 -87 84 -115
26 -27 61 -70 77 -95 17 -25 50 -63 73 -85 23 -22 61 -65 83 -95 23 -30 68
-85 102 -121 76 -84 173 -200 246 -292 64 -81 202 -191 291 -232 90 -41 223
-47 892 -41 656 5 802 13 888 45 100 38 100 56 0 159 -72 75 -99 89 -232 117
-54 11 -100 30 -160 65 -61 36 -108 55 -174 70 -121 28 -161 44 -221 90 -30
23 -89 53 -149 74 -54 19 -116 48 -137 63 -21 15 -53 38 -69 50 -17 12 -61 32
-98 44 -88 29 -129 50 -180 92 -23 20 -63 43 -89 53 -100 36 -156 65 -201 105
-26 23 -78 57 -117 76 -38 20 -92 56 -120 80 -27 25 -80 60 -117 79 -37 19
-90 54 -118 79 -27 24 -83 67 -124 94 -41 28 -82 61 -92 74 -11 13 -46 44 -79
69 -73 56 -352 334 -495 493 -58 65 -133 145 -167 179 -69 68 -226 263 -250
310 -8 17 -34 58 -58 91 -75 107 -81 155 -36 297 68 213 87 329 116 693 15
184 31 327 70 605 8 58 15 130 15 161 1 172 67 296 178 334 26 8 137 27 247
41 209 26 290 43 441 93 87 29 152 42 369 76 186 29 280 98 280 206 0 71 -23
95 -156 161 -141 70 -191 81 -333 76 -110 -3 -112 -4 -221 -55 -93 -44 -134
-57 -265 -82 -123 -24 -171 -39 -235 -71 -104 -52 -126 -56 -180 -36 -84 33
-88 51 -80 423 12 572 21 640 100 753 57 81 85 155 85 226 0 82 -18 113 -112
191 -98 83 -116 92 -229 127 -105 32 -147 59 -173 113 -21 42 -21 42 -233 43
-213 0 -213 0 -213 -28z"/>
<path d="M4365 4729 c-43 -38 -61 -96 -75 -238 -11 -122 -16 -141 -59 -238
-17 -40 -42 -114 -56 -165 -33 -129 -39 -142 -96 -220 -28 -37 -60 -91 -71
-120 -28 -74 -45 -105 -90 -162 -22 -27 -53 -76 -69 -109 -17 -32 -53 -84 -82
-115 -29 -31 -68 -80 -86 -107 -19 -28 -58 -75 -87 -106 -91 -97 -194 -263
-194 -314 0 -77 59 -92 132 -33 24 19 71 49 105 67 35 17 93 59 130 94 38 34
94 82 125 105 32 23 62 51 68 62 6 11 40 44 75 73 35 29 80 74 100 100 87 114
183 104 333 -33 118 -109 408 -386 487 -467 121 -123 240 -162 340 -111 109
56 135 102 135 241 0 141 -12 170 -120 284 -103 110 -109 115 -231 153 -48 15
-116 45 -151 67 -84 53 -128 69 -239 88 -106 19 -136 32 -173 75 -49 59 -29
156 49 230 20 19 54 60 75 90 21 30 57 73 80 95 23 22 60 66 81 97 22 31 55
69 75 84 80 61 113 169 75 247 -26 53 -133 148 -206 182 -146 69 -183 87 -220
110 -58 36 -114 34 -160 -6z"/>
<path d="M1455 4343 c-96 -25 -126 -70 -135 -202 -13 -187 -55 -358 -105 -427
-20 -27 -55 -90 -80 -140 -24 -49 -63 -115 -88 -145 -24 -30 -63 -84 -86 -121
-24 -38 -59 -83 -80 -100 -20 -18 -58 -61 -84 -94 -25 -34 -59 -72 -74 -85
-16 -13 -44 -44 -63 -69 -60 -78 -207 -231 -315 -330 -57 -52 -124 -121 -150
-153 -52 -65 -80 -82 -148 -92 -47 -7 -47 -7 -47 -73 0 -65 0 -65 84 -59 102
8 136 20 251 86 49 28 94 51 100 51 27 0 120 53 162 93 27 24 70 58 96 74 27
17 81 59 119 94 187 171 291 270 328 317 50 64 89 85 157 85 63 0 89 -15 144
-86 23 -28 59 -67 80 -85 22 -19 52 -53 68 -75 16 -23 73 -88 128 -144 167
-172 279 -194 382 -78 98 112 94 240 -12 404 -30 46 -207 176 -265 195 -26 8
-87 26 -136 41 -136 40 -158 76 -119 190 14 42 42 74 166 199 361 360 369 401
106 600 -126 96 -296 153 -384 129z"/>
</g>
</svg>
