<svg xmlns="http://www.w3.org/2000/svg" viewBox="0 0 828.129736 879.282152">
<g transform="translate(0.000000,899.960275) scale(0.100000,-0.100000)" fill="#000000" stroke="none">
<path d="M3207 8993 c-4 -3 -7 -16 -7 -27 0 -12 -14 -68 -30 -125 -38 -131
-38 -132 66 -345 131 -268 145 -328 164 -701 5 -110 14 -285 20 -390 44 -863
19 -943 -298 -966 -70 -5 -176 -13 -237 -19 -60 -5 -225 -17 -365 -25 -540
-32 -819 -65 -878 -103 -91 -59 -59 -208 59 -267 175 -89 912 -121 1374 -60
343 46 363 18 346 -490 -20 -558 -34 -699 -97 -977 -67 -292 -83 -374 -109
-551 -32 -218 -49 -286 -114 -455 -29 -73 -67 -193 -87 -265 -44 -168 -54
-193 -120 -303 -30 -49 -70 -134 -89 -188 -43 -119 -57 -147 -105 -211 -20
-28 -61 -92 -89 -142 -29 -51 -80 -127 -115 -170 -34 -43 -81 -109 -104 -147
-129 -209 -622 -731 -827 -876 -49 -34 -112 -82 -138 -106 -26 -23 -82 -63
-125 -87 -42 -25 -115 -75 -161 -112 -47 -36 -103 -76 -125 -87 -23 -12 -86
-48 -141 -82 -55 -33 -143 -79 -195 -102 -128 -55 -137 -60 -195 -109 -27 -23
-77 -60 -110 -82 -167 -112 -94 -218 102 -149 77 28 368 104 518 136 115 25
176 49 261 102 70 44 153 82 215 98 56 15 140 58 204 104 28 20 93 53 145 73
105 40 152 67 208 117 20 19 82 62 136 96 55 34 127 85 160 114 34 29 90 74
125 100 35 27 121 107 191 180 282 292 308 322 351 408 23 46 68 121 102 167
33 46 83 130 110 185 27 56 68 126 91 156 57 74 78 111 115 201 17 41 54 111
82 155 27 43 57 104 65 134 8 30 24 86 35 124 45 151 144 177 225 59 78 -115
135 -208 174 -281 24 -46 73 -117 107 -160 35 -42 84 -113 110 -157 25 -44 72
-111 103 -150 31 -38 79 -104 105 -145 26 -41 65 -94 87 -118 21 -23 64 -81
95 -130 30 -48 79 -116 108 -152 29 -36 74 -99 100 -140 26 -41 71 -102 99
-135 29 -33 74 -88 100 -123 26 -34 78 -95 114 -136 75 -82 175 -199 271 -314
35 -42 91 -108 125 -147 34 -38 87 -101 118 -140 113 -142 296 -275 428 -310
232 -63 1954 -43 2132 25 194 73 54 274 -237 340 -76 17 -129 38 -224 87 -93
48 -155 72 -252 98 -143 38 -157 44 -264 114 -41 27 -113 63 -160 80 -108 39
-154 63 -233 119 -35 24 -104 60 -154 79 -107 40 -162 69 -243 126 -34 24
-105 60 -158 81 -68 26 -123 57 -183 102 -48 35 -121 82 -163 105 -43 22 -105
64 -139 93 -33 28 -100 73 -148 100 -47 26 -114 72 -149 101 -34 29 -100 80
-146 113 -46 33 -97 74 -114 92 -16 18 -57 53 -90 78 -77 60 -255 221 -319
292 -28 30 -82 87 -121 126 -38 39 -124 131 -190 204 -66 73 -163 179 -216
234 -123 131 -223 257 -339 431 -130 194 -144 254 -95 416 39 129 83 305 100
403 15 86 20 142 65 626 11 124 34 320 50 435 16 116 34 273 39 350 27 387 84
439 536 500 240 32 319 47 464 92 184 56 286 80 441 103 330 49 434 106 448
249 10 112 -21 147 -210 234 -260 118 -440 122 -678 13 -118 -54 -126 -57
-335 -101 -128 -27 -196 -48 -273 -82 -156 -69 -229 -68 -291 2 -51 59 -54
100 -42 559 18 682 21 701 130 871 91 143 117 237 92 342 -29 119 -211 262
-423 332 -126 42 -181 78 -210 141 -23 49 -23 49 -284 50 -143 0 -264 -3 -267
-7z"/>
<path d="M5473 5919 c-57 -37 -91 -123 -108 -279 -19 -170 -29 -212 -76 -325
-21 -50 -52 -142 -69 -205 -39 -144 -56 -182 -124 -278 -30 -43 -72 -118 -93
-168 -22 -50 -66 -128 -100 -175 -33 -46 -77 -114 -97 -150 -19 -36 -66 -101
-104 -145 -37 -43 -86 -104 -107 -134 -22 -30 -72 -92 -113 -138 -281 -318
-298 -548 -28 -388 50 29 113 66 140 81 26 15 80 57 120 94 39 37 98 88 131
113 33 25 134 119 223 207 292 288 271 294 836 -243 127 -121 263 -252 301
-291 267 -271 580 -174 580 180 0 172 -11 198 -140 336 -126 136 -144 148
-291 199 -65 22 -153 61 -194 85 -114 67 -161 85 -293 111 -273 54 -330 198
-155 389 30 33 75 87 100 120 25 33 56 69 68 80 12 11 60 68 107 127 46 59 93
114 105 122 205 144 119 405 -182 547 -47 22 -133 64 -191 94 -123 64 -187 72
-246 34z"/>
<path d="M1795 5418 c-92 -32 -131 -98 -141 -234 -17 -238 -79 -463 -162 -585
-27 -41 -68 -112 -90 -159 -21 -47 -64 -116 -94 -155 -30 -38 -75 -101 -100
-140 -25 -38 -71 -97 -102 -130 -32 -33 -81 -89 -111 -125 -29 -36 -69 -81
-90 -100 -20 -19 -63 -69 -96 -110 -62 -80 -275 -302 -424 -441 -49 -46 -118
-116 -152 -156 -66 -75 -134 -113 -203 -113 -30 0 -30 0 -30 -70 0 -70 0 -70
93 -70 50 0 116 7 145 14 53 15 75 24 187 83 33 18 105 52 160 78 58 27 122
65 155 93 30 27 84 68 120 92 36 24 90 67 120 95 30 28 84 76 120 105 61 50
247 234 351 348 141 154 266 98 543 -243 279 -342 465 -426 614 -274 243 248
19 656 -433 789 -321 94 -320 204 7 526 412 406 430 483 163 696 -203 162
-415 233 -550 186z"/>
</g>
</svg>
