<svg xmlns="http://www.w3.org/2000/svg" viewBox="0 0 721.691017 672.013251">
<g transform="translate(-0.293483,672.000000) scale(0.100000,-0.100000)" fill="#000000" stroke="none">
<path d="M3560 6713 c0 -5 -5 -47 -11 -95 -13 -105 -3 -149 46 -210 65 -80 75
-115 116 -393 20 -143 45 -305 54 -360 9 -55 21 -181 26 -280 5 -99 12 -210
15 -246 8 -92 -12 -134 -80 -165 -54 -25 -75 -27 -516 -64 -458 -38 -471 -41
-498 -112 -20 -53 6 -105 68 -135 131 -65 465 -124 728 -129 132 -3 190 -8
210 -18 73 -38 99 -112 83 -230 -5 -39 -12 -129 -16 -201 -8 -173 -23 -303
-45 -400 -25 -109 -47 -264 -60 -425 -14 -178 -42 -334 -91 -505 -22 -77 -48
-185 -59 -240 -30 -147 -46 -196 -100 -303 -30 -59 -57 -132 -70 -185 -22 -97
-42 -142 -89 -200 -16 -22 -45 -74 -63 -118 -18 -45 -53 -106 -81 -139 -27
-34 -64 -95 -83 -136 -19 -42 -56 -102 -83 -133 -26 -31 -62 -77 -79 -102 -17
-25 -48 -61 -69 -79 -21 -18 -55 -56 -77 -84 -79 -104 -323 -341 -410 -397
-22 -14 -66 -50 -96 -78 -30 -28 -75 -63 -100 -78 -25 -14 -65 -40 -90 -58
-25 -18 -92 -56 -150 -83 -123 -60 -128 -65 -174 -208 -44 -133 -44 -124 -1
-124 30 0 35 4 43 32 13 50 44 65 247 119 108 28 218 64 255 83 36 18 108 54
160 81 52 26 114 65 137 86 23 21 79 57 125 80 46 23 103 59 127 81 25 21 76
55 113 75 43 22 80 51 100 77 18 22 64 73 102 112 111 111 190 204 226 264 19
30 53 80 78 110 51 63 78 113 98 182 8 26 39 83 69 127 34 49 66 113 86 170
18 53 48 112 71 143 58 78 74 113 103 234 48 192 102 256 189 220 52 -22 90
-82 120 -194 21 -74 37 -112 66 -150 44 -58 71 -109 90 -167 19 -60 49 -115
88 -163 19 -23 52 -85 72 -137 23 -55 57 -119 84 -152 25 -32 57 -89 71 -127
34 -91 47 -115 91 -167 20 -24 53 -80 73 -124 21 -44 57 -102 80 -129 23 -26
60 -85 83 -130 22 -44 56 -98 75 -119 18 -21 53 -68 77 -105 44 -68 175 -196
231 -225 124 -64 1050 -116 1375 -77 58 6 168 15 245 19 114 6 148 12 182 29
120 62 90 138 -73 187 -49 15 -118 43 -153 62 -35 19 -107 46 -160 60 -111 29
-138 42 -204 94 -26 20 -82 52 -125 69 -82 35 -116 55 -172 105 -20 17 -72 46
-117 64 -45 18 -98 47 -120 65 -58 49 -92 70 -163 99 -36 15 -90 47 -119 71
-29 24 -85 61 -123 82 -39 21 -98 63 -131 94 -34 31 -84 72 -112 92 -27 20
-63 51 -80 68 -16 18 -52 49 -80 70 -73 55 -375 355 -424 422 -23 31 -53 64
-66 72 -13 9 -51 51 -83 93 -33 43 -77 94 -97 113 -20 19 -51 55 -68 80 -17
25 -57 73 -89 107 -31 33 -69 84 -83 113 -14 28 -51 75 -81 103 -116 107 -164
263 -120 380 31 79 41 147 56 352 5 83 15 188 20 235 5 47 26 243 45 435 50
505 54 533 71 573 37 89 80 110 262 123 166 11 313 33 447 64 134 32 300 61
415 75 299 34 358 68 368 210 6 79 -23 108 -193 194 -225 115 -372 119 -595
17 -111 -51 -183 -72 -315 -91 -44 -7 -114 -25 -155 -41 -85 -33 -118 -36
-160 -14 -64 33 -65 39 -65 470 0 443 6 496 61 573 18 26 45 64 60 84 84 118
-1 287 -191 378 -92 44 -143 88 -152 131 -5 29 -5 29 -264 29 -143 0 -259 -3
-259 -7z"/>
<path d="M1004 5800 c-85 -34 -71 -162 25 -241 23 -19 73 -72 111 -119 219
-268 378 -419 537 -509 171 -98 215 -101 319 -23 260 198 151 609 -188 704
-40 11 -113 42 -163 68 -110 59 -136 66 -306 84 -74 8 -154 22 -178 30 -47 17
-123 20 -157 6z"/>
<path d="M5234 4314 c-73 -36 -91 -79 -105 -251 -16 -200 -30 -252 -97 -357
-17 -27 -45 -90 -62 -141 -24 -71 -42 -106 -83 -156 -29 -35 -68 -91 -86 -124
-19 -33 -55 -85 -81 -115 -26 -30 -62 -80 -79 -110 -18 -30 -64 -85 -102 -122
-118 -114 -178 -288 -99 -288 57 0 229 82 291 138 35 32 80 69 99 81 19 13 67
57 105 97 70 74 70 74 125 74 30 -1 65 -6 77 -13 27 -15 270 -270 398 -417
137 -158 174 -192 257 -234 206 -104 347 51 299 329 -17 94 -25 107 -141 214
-92 85 -109 96 -192 127 -53 20 -114 52 -149 78 -48 37 -75 49 -140 62 -206
45 -200 94 37 353 28 31 66 79 84 106 19 28 67 87 106 133 140 160 136 280
-12 377 -33 22 -90 64 -125 93 -95 78 -241 108 -325 66z"/>
<path d="M2794 4225 c-53 -27 -75 -82 -104 -260 -7 -42 -31 -113 -60 -175 -26
-58 -55 -136 -65 -175 -23 -87 -35 -112 -90 -183 -24 -32 -56 -87 -71 -124
-15 -36 -51 -97 -82 -135 -30 -37 -66 -92 -80 -121 -14 -30 -46 -77 -72 -105
-25 -29 -67 -81 -92 -117 -25 -36 -63 -81 -83 -100 -66 -63 -105 -171 -71
-199 24 -20 109 -7 167 26 86 49 370 309 447 410 44 56 90 72 136 46 41 -21
142 -145 208 -250 25 -42 66 -99 90 -127 24 -28 59 -72 76 -98 47 -69 76 -88
133 -88 106 0 164 99 164 280 0 172 -27 214 -225 351 -58 40 -127 81 -155 91
-169 65 -175 141 -25 306 33 35 71 85 86 111 15 25 55 76 90 113 183 190 146
344 -112 472 -130 64 -166 73 -210 51z"/>
<path d="M145 4199 c-66 -21 -137 -58 -142 -75 -2 -6 23 -31 55 -56 33 -25 81
-74 107 -109 65 -86 281 -324 369 -407 141 -133 192 -176 239 -197 28 -14 81
-41 117 -61 90 -50 137 -46 243 20 133 83 157 129 157 304 0 138 -7 153 -123
267 -100 99 -103 101 -192 129 -49 16 -115 43 -145 62 -88 53 -159 75 -315 94
-49 6 -123 20 -164 31 -92 24 -129 23 -206 -2z"/>
<path d="M1659 3215 c-32 -18 -53 -49 -79 -119 -12 -30 -43 -88 -69 -128 -27
-40 -63 -104 -80 -142 -17 -38 -46 -90 -66 -117 -19 -26 -53 -85 -76 -131 -23
-45 -61 -105 -85 -132 -24 -27 -57 -76 -75 -109 -17 -32 -54 -85 -83 -117 -28
-32 -66 -86 -84 -119 -18 -34 -57 -91 -87 -126 -30 -36 -64 -83 -75 -105 -12
-23 -45 -68 -75 -100 -29 -32 -66 -77 -80 -99 -28 -42 -165 -157 -269 -226
-126 -83 -162 -203 -105 -348 10 -26 32 -102 49 -170 26 -106 36 -131 79 -194
28 -39 64 -102 81 -140 17 -37 50 -88 74 -113 23 -25 57 -64 74 -86 56 -74
151 -95 233 -54 70 36 80 64 114 340 15 120 33 182 99 353 14 38 33 110 42
160 20 113 40 175 98 302 25 55 51 124 57 155 20 99 50 184 85 241 43 72 59
117 89 252 18 79 35 125 64 175 26 43 51 107 70 178 32 119 48 163 117 321 94
217 109 369 38 402 -32 14 -43 14 -75 -4z"/>
</g>
</svg>
