<svg xmlns="http://www.w3.org/2000/svg" viewBox="0 0 704.288423 668.725356">
<g transform="translate(0.000000,688.000000) scale(0.100000,-0.100000)" fill="#000000" stroke="none">
<path d="M4802 6789 c5 -88 8 -96 67 -213 62 -121 62 -121 76 -301 13 -172 23
-581 27 -1140 3 -349 7 -342 -249 -414 -334 -92 -598 -107 -777 -43 -133 48
-219 37 -274 -33 -46 -59 -38 -116 34 -240 90 -153 112 -200 124 -260 27 -139
44 -204 72 -277 58 -152 73 -223 108 -518 18 -151 50 -299 82 -380 16 -41 40
-113 53 -161 42 -159 73 -199 155 -199 61 0 102 28 158 107 54 77 81 94 212
129 130 35 227 39 260 9 45 -40 49 -65 43 -305 -3 -124 0 -682 6 -1240 11
-1015 11 -1015 34 -1060 30 -60 67 -72 131 -40 87 41 115 127 141 432 18 202
29 292 55 443 34 198 71 961 69 1420 -1 310 3 351 40 412 48 78 222 114 636
132 127 6 247 16 269 22 115 32 115 139 1 291 -55 73 -56 91 -6 182 21 39 46
95 56 125 9 29 37 78 62 108 25 30 61 82 81 116 62 108 264 322 393 418 92 68
122 147 89 235 -15 38 -182 212 -244 253 -28 19 -74 55 -102 82 -28 26 -84 64
-125 84 -41 21 -93 53 -116 72 -135 109 -340 109 -583 -2 -137 -62 -317 -118
-355 -111 -36 7 -69 38 -85 80 -14 37 -4 930 12 1086 12 126 34 200 78 272 85
137 32 267 -152 373 -72 42 -83 52 -101 96 -21 49 -21 49 -240 49 -220 0 -220
0 -215 -91z m1225 -2119 c71 -43 87 -113 73 -319 -18 -267 -37 -382 -96 -596
-84 -302 -91 -320 -129 -354 -37 -32 -42 -34 -130 -51 -32 -7 -92 -25 -131
-41 -108 -43 -160 -31 -189 44 -27 73 -18 1175 11 1213 39 52 67 65 175 80 57
8 142 21 189 28 129 20 189 19 227 -4z m-1113 -202 c60 -27 58 -8 58 -629 0
-566 0 -567 -22 -607 -26 -46 -56 -65 -130 -82 -30 -7 -91 -26 -135 -42 -134
-50 -206 -28 -236 73 -19 62 -86 557 -99 734 -5 66 -15 159 -21 206 -22 151 4
190 152 233 47 14 132 45 190 69 57 24 111 47 119 50 27 10 98 7 124 -5z"/>
<path d="M3529 6721 c-68 -42 -82 -81 -74 -194 5 -70 3 -103 -8 -137 -24 -73
-43 -145 -82 -310 -29 -123 -45 -172 -80 -236 -27 -50 -56 -124 -75 -195 -17
-63 -42 -132 -56 -154 -14 -22 -41 -64 -59 -94 -19 -30 -44 -87 -56 -128 -15
-49 -40 -99 -75 -151 -33 -47 -64 -106 -80 -154 -15 -46 -43 -102 -69 -137
-51 -69 -67 -99 -96 -178 -23 -61 -44 -96 -92 -152 -16 -19 -47 -73 -69 -119
-21 -47 -55 -103 -74 -125 -20 -22 -56 -81 -79 -131 -23 -50 -61 -112 -84
-138 -23 -26 -57 -80 -75 -120 -33 -71 -143 -248 -236 -378 -26 -36 -62 -93
-80 -128 -19 -35 -54 -81 -79 -104 -67 -59 -81 -84 -81 -151 0 -70 28 -107 82
-107 29 0 46 13 137 107 97 101 285 319 394 457 27 34 70 84 96 111 27 28 59
68 73 90 14 22 51 68 82 103 31 35 67 84 80 110 49 97 190 197 243 173 47 -22
51 -49 52 -432 2 -442 -8 -601 -59 -949 -22 -151 -49 -369 -60 -485 -30 -311
-40 -377 -85 -556 -65 -255 -102 -582 -92 -813 8 -184 25 -251 88 -347 28 -42
59 -101 70 -130 45 -117 146 -209 229 -209 58 0 79 36 154 260 82 245 80 209
96 2075 7 774 14 1211 21 1270 38 293 11 461 -92 571 -117 126 -120 221 -10
348 43 49 79 114 100 176 6 19 36 68 65 108 30 40 69 107 86 150 18 42 53 105
79 139 28 36 61 96 79 145 22 57 48 102 81 142 30 36 62 89 81 135 18 46 49
98 78 132 26 31 62 78 80 106 18 27 55 69 83 93 125 105 119 293 -12 416 -129
121 -249 198 -363 233 -91 28 -123 27 -177 -8z"/>
<path d="M943 6675 c-80 -34 -50 -134 82 -275 39 -41 84 -91 99 -110 110 -137
426 -444 518 -504 118 -77 337 -48 405 53 32 47 64 137 70 197 12 112 -57 284
-132 331 -25 15 -82 52 -128 81 -114 74 -118 76 -247 111 -63 17 -151 44 -196
60 -166 61 -398 88 -471 56z"/>
<path d="M0 4903 c0 -91 0 -91 48 -102 51 -13 127 -84 240 -226 77 -98 377
-391 432 -422 25 -14 68 -43 96 -64 136 -104 222 -93 347 45 84 93 97 123 97
224 0 133 -17 172 -129 285 -104 107 -148 135 -256 161 -38 10 -115 41 -170
71 -55 29 -125 58 -155 64 -88 17 -299 41 -430 48 -120 6 -120 6 -120 -84z"/>
<path d="M1796 3999 c-15 -12 -41 -49 -58 -83 -17 -33 -48 -82 -70 -108 -21
-26 -57 -84 -79 -129 -22 -45 -57 -107 -78 -138 -21 -31 -55 -89 -76 -130 -20
-41 -54 -97 -75 -125 -21 -28 -54 -85 -73 -126 -19 -41 -53 -97 -77 -125 -23
-27 -61 -91 -85 -140 -23 -50 -61 -112 -84 -139 -23 -27 -57 -78 -75 -115 -19
-36 -53 -89 -76 -116 -23 -28 -59 -85 -81 -128 -22 -43 -57 -97 -78 -120 -21
-23 -56 -67 -79 -98 -38 -53 -73 -85 -255 -235 -124 -102 -135 -146 -88 -370
20 -96 42 -169 60 -204 16 -30 44 -84 62 -120 19 -36 45 -90 58 -120 14 -30
43 -74 65 -98 23 -25 64 -76 91 -115 62 -87 98 -110 172 -110 98 0 136 49 153
200 11 97 24 160 84 383 20 74 45 182 56 240 28 144 44 198 92 299 38 81 51
127 92 311 9 41 39 122 66 180 47 101 57 131 94 301 11 49 33 104 61 154 51
89 60 114 74 212 13 87 23 114 66 178 18 28 46 88 63 135 65 184 125 327 159
379 88 133 25 304 -81 220z"/>
</g>
</svg>
