<svg xmlns="http://www.w3.org/2000/svg" viewBox="0 0 460.000000 420.778911">
<g transform="translate(0.000000,430.000000) scale(0.100000,-0.100000)" fill="#000000" stroke="none">
<path d="M3203 4273 c-18 -63 -8 -167 25 -283 42 -145 50 -249 54 -668 l3
-323 -32 -29 c-38 -34 -107 -51 -322 -79 l-154 -21 -80 21 c-90 23 -194 26
-229 8 -49 -26 -50 -53 -3 -109 19 -23 35 -47 35 -52 0 -6 18 -46 40 -88 27
-54 45 -110 60 -181 11 -57 33 -149 49 -204 28 -95 38 -152 61 -345 6 -54 19
-102 34 -131 13 -26 31 -72 40 -103 29 -100 86 -111 152 -30 21 25 54 54 73
64 52 26 172 60 213 60 70 0 66 52 70 -830 5 -853 4 -844 55 -856 48 -12 90
55 118 186 18 84 30 293 45 765 23 737 21 704 44 738 12 16 37 38 56 48 63 33
221 58 393 64 181 6 197 12 197 73 0 29 -8 42 -45 75 -69 62 -73 128 -13 190
17 18 43 59 58 92 15 33 35 67 45 75 10 8 33 38 51 67 35 54 201 223 232 235
9 4 29 7 45 7 26 1 27 3 27 54 0 51 -1 53 -34 65 -20 8 -58 40 -92 79 -32 36
-81 81 -109 98 -27 18 -61 44 -74 59 -13 14 -40 31 -60 37 -20 6 -57 25 -83
41 -31 19 -66 31 -102 35 -47 5 -64 1 -120 -25 -36 -17 -100 -40 -142 -52 -42
-11 -89 -27 -105 -36 -46 -24 -99 -21 -121 5 -16 21 -18 44 -18 240 0 243 17
430 51 571 13 52 24 122 24 156 0 78 -31 124 -102 150 -107 39 -132 53 -148
83 -15 30 -17 31 -85 31 -67 0 -70 -1 -77 -27z m747 -1378 c41 -21 49 -60 39
-206 -6 -95 -15 -147 -38 -219 -17 -52 -37 -140 -46 -195 -9 -58 -23 -110 -34
-125 -22 -31 -222 -119 -271 -120 -44 0 -59 10 -68 43 -4 14 -5 176 -2 359 6
370 8 387 74 428 67 41 290 64 346 35z m-681 -132 c20 -18 21 -25 22 -375 0
-219 -3 -363 -9 -375 -6 -10 -18 -26 -29 -35 -24 -21 -174 -68 -219 -68 -46 0
-93 25 -98 53 -10 49 -26 264 -37 470 -13 262 -16 253 109 281 42 9 102 28
132 41 67 28 101 31 129 8z"/>
<path d="M1213 4185 c-47 -20 -58 -47 -44 -111 13 -58 5 -127 -29 -237 -11
-34 -28 -99 -39 -144 -10 -45 -35 -110 -55 -146 -20 -35 -36 -71 -36 -79 0
-35 -32 -118 -60 -152 -16 -21 -39 -63 -50 -94 -12 -30 -34 -72 -50 -92 -16
-20 -38 -62 -50 -92 -11 -30 -30 -64 -42 -74 -11 -11 -33 -44 -48 -76 -15 -31
-39 -71 -54 -89 -15 -17 -38 -54 -52 -80 -13 -27 -37 -63 -52 -81 -16 -18 -40
-53 -54 -78 -14 -25 -36 -54 -48 -65 -12 -11 -31 -38 -42 -60 -12 -22 -34 -55
-49 -73 -16 -18 -38 -49 -48 -70 -11 -20 -50 -73 -87 -117 -37 -44 -89 -110
-116 -146 -28 -39 -60 -72 -78 -79 -29 -12 -30 -15 -30 -71 0 -41 4 -59 13
-59 7 0 49 24 93 52 81 53 182 150 389 373 61 65 126 135 146 154 20 20 42 47
49 60 19 36 90 111 123 127 25 14 31 14 52 0 l23 -15 -4 -278 c-5 -326 -18
-519 -44 -658 -11 -55 -24 -149 -30 -210 -27 -288 -35 -339 -68 -470 -36 -137
-36 -145 -37 -330 0 -189 0 -190 27 -235 15 -25 41 -74 58 -110 49 -102 124
-170 172 -154 21 6 48 60 48 94 0 11 16 61 35 111 45 113 43 84 50 1164 4 653
8 838 20 910 8 50 14 108 15 129 0 67 -30 143 -81 201 -73 83 -73 133 -4 205
19 19 44 57 55 83 12 26 34 62 50 80 16 18 36 53 46 78 9 24 34 67 54 94 21
28 43 67 49 87 7 20 28 58 48 83 20 26 44 75 54 109 15 47 37 82 94 151 121
145 132 170 105 240 -34 90 -250 254 -335 254 -11 0 -34 -6 -52 -14z"/>
<path d="M2340 4172 c-15 -12 -22 -29 -22 -48 0 -16 1 -60 2 -99 1 -38 -6
-122 -14 -185 -13 -94 -22 -128 -55 -195 -22 -44 -45 -107 -51 -140 -7 -35
-26 -85 -47 -118 -19 -32 -45 -85 -58 -118 -13 -33 -35 -73 -49 -89 -13 -16
-34 -56 -46 -87 -12 -32 -34 -71 -50 -88 -16 -16 -36 -50 -46 -75 -9 -25 -37
-71 -61 -103 -23 -33 -43 -65 -43 -73 0 -8 -18 -34 -40 -58 -22 -24 -47 -61
-56 -82 -9 -21 -31 -56 -50 -76 -18 -20 -40 -52 -50 -70 -9 -18 -32 -50 -50
-70 -18 -20 -43 -56 -55 -80 -12 -24 -32 -55 -46 -69 -14 -15 -39 -47 -56 -72
-18 -24 -65 -82 -105 -128 -76 -88 -94 -130 -73 -175 6 -14 19 -24 32 -24 49
0 516 484 639 664 38 55 78 81 110 71 31 -10 41 -39 46 -138 5 -113 -13 -632
-26 -742 -5 -44 -14 -138 -20 -210 -6 -71 -19 -170 -29 -220 -11 -49 -29 -133
-40 -185 -27 -129 -55 -455 -47 -555 7 -103 31 -191 60 -230 13 -16 33 -50 46
-75 35 -71 57 -90 105 -90 62 0 79 24 110 160 14 63 30 140 35 170 9 54 30
1073 31 1470 0 113 4 250 10 305 15 160 22 329 15 368 -4 21 -24 56 -47 83
-46 53 -79 114 -79 145 0 30 38 103 77 149 18 21 42 59 53 85 11 26 32 62 47
79 14 17 37 56 50 86 14 30 37 70 53 90 16 20 38 61 50 91 12 30 34 74 50 99
16 25 36 65 45 89 9 25 42 72 81 114 110 119 117 131 112 182 -4 35 -15 55
-52 96 -25 28 -46 55 -46 60 0 7 -93 67 -173 111 -44 25 -147 24 -177 0z"/>
</g>
</svg>
