<svg xmlns="http://www.w3.org/2000/svg" viewBox="0 0 920.000000 840.898516">
<g transform="translate(0.000000,860.673648) scale(0.100000,-0.100000)" fill="#000000" stroke="none">
<path d="M6410 8576 c0 -14 -7 -58 -15 -98 -28 -128 -22 -193 34 -379 111
-372 118 -444 141 -1531 11 -473 8 -514 -38 -587 -56 -91 -205 -139 -602 -192
-349 -47 -393 -48 -526 -10 -396 111 -614 23 -476 -193 134 -209 231 -444 277
-672 19 -94 47 -211 61 -260 82 -280 106 -396 134 -655 26 -241 41 -307 98
-439 24 -58 55 -136 68 -173 70 -205 176 -223 326 -55 132 148 517 274 621
204 64 -43 60 39 62 -1276 3 -1952 11 -2066 146 -2062 182 5 262 405 284 1427
3 154 10 388 16 520 10 257 25 699 38 1091 10 317 32 367 193 438 155 68 671
137 888 119 261 -22 333 133 150 322 -108 111 -109 220 -2 352 30 37 76 113
103 168 27 55 69 125 95 155 25 30 75 100 112 155 129 195 449 485 536 485 64
1 66 4 66 111 0 97 -1 99 -23 99 -38 0 -111 54 -199 147 -127 134 -152 158
-225 209 -37 27 -99 75 -138 107 -38 32 -101 73 -140 90 -38 18 -113 54 -165
81 -196 102 -290 103 -515 6 -60 -26 -162 -62 -225 -79 -63 -17 -144 -43 -180
-56 -142 -53 -210 -53 -263 2 -46 49 -50 96 -44 561 7 598 23 760 112 1121 92
370 38 478 -296 595 -90 32 -150 79 -173 136 -20 51 -316 66 -316 16z m1475
-2786 c56 -28 89 -76 99 -144 16 -101 -20 -486 -57 -621 -8 -27 -33 -117 -55
-200 -23 -82 -53 -215 -67 -295 -42 -245 -65 -273 -316 -375 -231 -94 -299
-106 -367 -65 -66 40 -64 23 -57 739 8 750 7 748 94 844 101 112 580 189 726
117z m-1366 -267 c62 -45 60 -23 61 -753 1 -696 1 -702 -44 -770 -67 -101
-400 -200 -542 -161 -100 27 -123 70 -140 261 -37 415 -45 524 -54 734 -6 126
-15 261 -21 300 -25 178 19 236 217 287 145 37 181 48 309 94 111 40 167 42
214 8z"/>
<path d="M2447 8375 c-104 -37 -132 -106 -106 -265 16 -92 -6 -244 -65 -456
-25 -88 -61 -220 -80 -294 -27 -100 -51 -165 -96 -251 -40 -78 -69 -154 -90
-230 -35 -128 -56 -178 -104 -241 -47 -62 -80 -123 -111 -207 -15 -41 -56
-115 -91 -166 -35 -51 -81 -134 -103 -185 -22 -50 -64 -124 -94 -163 -30 -40
-76 -115 -102 -167 -26 -52 -71 -126 -100 -165 -29 -38 -75 -109 -102 -156
-27 -47 -74 -117 -105 -155 -30 -38 -73 -101 -96 -139 -22 -39 -67 -102 -99
-141 -33 -39 -76 -100 -96 -137 -21 -37 -60 -95 -88 -129 -28 -35 -73 -99 -99
-143 -27 -44 -99 -141 -161 -215 -61 -74 -162 -203 -224 -286 -114 -152 -161
-194 -218 -194 -15 0 -17 -14 -17 -120 0 -66 4 -120 9 -120 26 0 99 35 144 67
28 21 86 58 129 83 116 67 391 337 813 800 72 78 160 175 196 214 36 39 84 98
107 132 137 204 315 282 363 157 47 -124 -14 -1455 -86 -1878 -41 -237 -48
-299 -75 -595 -32 -355 -51 -473 -120 -751 -122 -487 -116 -951 17 -1157 20
-31 62 -111 93 -178 122 -258 314 -364 390 -214 11 21 31 81 44 133 14 51 41
134 61 183 85 210 86 225 100 2014 3 491 10 863 17 919 8 71 8 121 -2 205 -18
165 2 842 30 1016 55 334 24 494 -126 663 -145 162 -148 262 -14 414 35 40 82
110 112 168 28 55 73 129 100 165 27 36 65 99 84 140 49 106 61 127 115 201
27 36 71 114 98 172 28 59 70 135 94 170 56 79 71 107 108 215 43 121 151 277
312 451 200 216 113 438 -272 696 -202 135 -284 160 -394 120z"/>
<path d="M4773 8380 c-114 -27 -136 -72 -128 -260 6 -124 3 -173 -19 -343 -43
-320 -50 -346 -132 -502 -36 -69 -61 -133 -79 -205 -41 -164 -62 -220 -119
-318 -30 -50 -73 -137 -96 -194 -23 -57 -65 -137 -93 -177 -27 -41 -68 -113
-89 -160 -55 -122 -75 -159 -124 -221 -24 -30 -63 -98 -88 -150 -24 -52 -70
-131 -103 -176 -32 -44 -77 -116 -101 -160 -23 -43 -67 -108 -97 -143 -30 -35
-70 -95 -90 -132 -19 -37 -56 -94 -81 -126 -25 -32 -79 -110 -121 -173 -42
-63 -94 -135 -116 -160 -21 -25 -62 -83 -89 -130 -28 -47 -77 -118 -109 -158
-33 -41 -77 -99 -98 -130 -21 -32 -63 -84 -93 -117 -93 -103 -225 -271 -249
-316 -73 -141 12 -254 131 -175 54 35 438 403 530 507 40 46 112 125 160 175
138 149 232 253 316 353 128 151 146 175 201 253 99 144 228 156 277 25 39
-103 11 -1329 -39 -1717 -8 -63 -22 -202 -31 -310 -19 -249 -44 -415 -100
-667 -55 -253 -79 -397 -98 -588 -46 -466 -48 -503 -43 -645 9 -253 47 -400
140 -549 30 -47 71 -117 91 -156 121 -226 322 -209 384 32 26 101 93 395 103
453 10 58 41 1615 54 2720 7 597 18 848 45 1080 49 414 30 543 -104 700 -165
193 -163 319 9 544 35 47 85 127 111 178 25 51 73 130 106 176 33 45 73 113
89 150 43 96 67 138 122 214 27 37 69 115 93 174 24 59 69 145 99 193 29 47
69 124 87 171 28 71 45 97 108 165 331 355 341 409 124 672 -62 75 -95 106
-143 133 -34 19 -95 58 -134 86 -137 98 -259 132 -374 104z"/>
</g>
</svg>
