<svg xmlns="http://www.w3.org/2000/svg" viewBox="0 0 439.478866 429.951967">
<g transform="translate(-10.521134,439.951967) scale(0.100000,-0.100000)" fill="#000000" stroke="none">
<path d="M2616 4379 c-36 -28 -34 -59 13 -165 22 -49 45 -118 52 -154 7 -40
13 -226 16 -485 6 -504 19 -458 -138 -491 -57 -11 -162 -34 -234 -49 -178 -39
-356 -42 -458 -6 -79 27 -127 24 -163 -10 -47 -44 -40 -78 39 -192 36 -53 47
-81 61 -153 10 -49 26 -114 37 -144 25 -72 46 -182 59 -316 15 -152 28 -210
61 -274 16 -30 36 -72 43 -92 17 -44 87 -98 127 -98 23 0 36 11 68 54 22 29
50 56 63 59 58 14 372 48 394 43 14 -4 28 -17 33 -29 4 -12 11 -339 15 -727 6
-632 14 -866 32 -953 9 -44 61 -97 94 -97 46 0 66 36 73 132 3 46 17 142 31
213 37 192 45 290 56 720 6 215 14 470 18 569 l8 178 31 28 c21 19 49 31 94
39 108 18 341 32 629 36 151 2 278 4 282 5 20 1 38 36 38 72 0 35 -6 47 -40
78 -68 63 -70 122 -5 197 19 23 43 59 53 80 51 112 306 394 370 407 l32 8 0
68 0 68 -32 7 c-18 4 -51 24 -73 46 -22 21 -58 46 -80 55 -22 9 -57 29 -77 45
-20 16 -61 38 -90 48 -29 10 -75 32 -102 49 -96 61 -260 68 -406 17 -91 -32
-180 -50 -320 -65 -58 -6 -134 -18 -170 -26 -50 -11 -70 -12 -92 -3 -48 20
-51 51 -45 400 l5 317 35 78 c58 131 69 232 32 290 -25 39 -179 115 -263 130
-114 20 -174 18 -206 -7z m1085 -1367 c80 -52 83 -58 76 -174 -4 -71 -15 -136
-36 -208 -16 -58 -35 -136 -42 -175 -12 -76 -37 -127 -96 -193 -43 -48 -52
-50 -273 -72 -63 -6 -146 -18 -184 -27 -79 -17 -110 -9 -126 33 -6 15 -10 169
-10 372 0 371 2 386 50 409 14 6 131 21 260 33 129 12 237 24 239 26 2 2 25 4
51 4 34 0 58 -8 91 -28z m-1025 -116 c18 -14 19 -31 22 -384 3 -349 2 -370
-16 -392 -16 -20 -43 -28 -173 -51 -85 -15 -172 -33 -195 -40 -49 -15 -84 -7
-103 23 -9 14 -17 74 -23 158 -7 113 -34 355 -55 501 -10 73 16 93 189 140
204 55 319 70 354 45z"/>
<path d="M1425 4315 c-23 -22 -25 -31 -25 -122 0 -151 -16 -256 -50 -323 -16
-32 -39 -92 -50 -134 -11 -41 -35 -103 -54 -138 -18 -35 -39 -84 -46 -110 -7
-26 -27 -65 -46 -86 -18 -21 -41 -59 -50 -83 -9 -24 -34 -66 -54 -94 -20 -27
-43 -65 -50 -84 -7 -18 -29 -52 -48 -75 -19 -22 -43 -59 -53 -81 -9 -22 -29
-53 -44 -70 -15 -16 -39 -48 -53 -70 -13 -22 -41 -59 -61 -82 -46 -53 -113
-136 -151 -188 -31 -41 -66 -83 -186 -226 -39 -46 -121 -128 -182 -183 -61
-54 -113 -108 -116 -119 -3 -12 1 -32 10 -44 21 -34 63 -29 120 12 27 19 74
52 104 72 30 20 71 50 91 67 20 17 71 60 114 96 257 217 372 329 431 417 40
61 65 78 93 64 42 -23 45 -50 38 -474 -8 -436 -14 -515 -57 -712 -28 -125 -35
-175 -61 -425 -6 -63 -20 -149 -30 -190 -26 -101 -39 -225 -29 -280 7 -39 33
-112 87 -238 21 -51 95 -141 122 -148 32 -9 49 3 93 67 71 102 70 88 79 924
10 986 14 1122 34 1220 9 44 19 114 22 156 5 75 5 77 -38 155 -23 43 -60 95
-81 115 -50 47 -49 75 2 134 22 25 40 50 40 55 0 5 22 37 48 72 26 35 54 78
61 96 8 18 27 49 44 70 16 20 42 64 57 97 15 33 39 74 54 92 15 17 36 58 47
90 10 32 32 76 48 98 16 22 39 60 51 85 13 25 44 68 69 96 25 28 57 72 70 99
l24 49 -33 61 c-40 73 -56 93 -95 113 -16 8 -46 28 -66 44 -31 25 -182 88
-211 88 -5 0 -20 -11 -33 -25z"/>
</g>
</svg>
