<svg xmlns="http://www.w3.org/2000/svg" viewBox="0 0 736.000000 672.629984">
<g transform="translate(-0.000000,687.968709) scale(0.100000,-0.100000)" fill="#000000" stroke="none">
<path d="M5121 6818 c-26 -125 -25 -181 2 -271 109 -352 131 -594 139 -1517 2
-314 -22 -332 -537 -401 -273 -36 -287 -36 -430 1 -310 80 -475 2 -351 -166
25 -32 54 -84 66 -114 12 -30 41 -91 65 -135 44 -81 75 -182 94 -310 6 -39 33
-149 61 -245 57 -199 73 -283 94 -495 18 -171 34 -241 74 -323 16 -31 41 -94
56 -139 55 -164 150 -179 255 -40 53 70 119 106 281 152 167 47 220 45 256
-10 15 -23 16 -99 15 -892 -2 -790 11 -1606 25 -1676 24 -117 137 -110 199 13
77 153 99 367 126 1270 33 1134 41 1279 68 1323 26 43 71 80 124 102 119 49
561 105 717 89 200 -19 272 120 124 241 -58 47 -77 87 -77 155 0 65 10 88 72
156 29 32 57 77 74 121 18 46 47 92 82 134 31 34 69 88 86 118 34 61 297 329
348 356 17 8 53 20 81 26 50 11 50 11 50 90 0 67 -3 79 -17 79 -35 0 -102 52
-192 150 -52 56 -121 120 -155 142 -34 23 -85 63 -113 89 -34 30 -77 56 -121
73 -38 15 -91 41 -118 58 -121 76 -241 79 -391 10 -51 -24 -135 -55 -185 -68
-51 -14 -128 -38 -170 -54 -152 -59 -219 -33 -232 90 -10 100 3 664 19 844 19
201 18 193 72 416 48 202 49 229 9 308 -45 89 -75 111 -213 156 -104 35 -143
61 -168 113 -20 42 -20 42 -135 43 -115 0 -115 0 -129 -62z m1198 -2186 c66
-34 73 -63 66 -262 -8 -201 -20 -275 -74 -456 -22 -71 -49 -188 -60 -259 -36
-216 -55 -246 -197 -305 -44 -17 -110 -46 -149 -62 -105 -46 -182 -49 -225
-11 -34 30 -34 30 -31 554 3 537 6 590 40 658 50 97 131 128 431 165 61 7 164
-4 199 -22z m-1086 -218 c38 -37 38 -53 35 -634 -4 -651 10 -604 -202 -677
-133 -45 -234 -54 -298 -25 -66 29 -78 58 -89 211 -4 69 -13 171 -18 226 -5
55 -12 165 -16 245 -3 80 -10 213 -17 296 -17 225 -10 235 193 288 74 19 169
48 210 65 98 40 166 41 202 5z"/>
<path d="M1931 6693 c-54 -27 -74 -67 -64 -133 14 -105 7 -239 -20 -335 -13
-49 -46 -171 -71 -270 -37 -140 -57 -196 -90 -255 -52 -92 -61 -115 -82 -210
-19 -88 -33 -117 -85 -186 -38 -49 -58 -91 -93 -187 -10 -26 -36 -70 -58 -98
-22 -28 -53 -81 -70 -117 -49 -111 -58 -128 -100 -178 -22 -27 -57 -85 -77
-129 -21 -44 -57 -102 -80 -129 -23 -26 -57 -78 -75 -115 -19 -36 -53 -89 -76
-116 -22 -28 -60 -81 -82 -120 -23 -38 -62 -93 -87 -121 -26 -28 -61 -78 -79
-112 -19 -35 -50 -82 -71 -106 -21 -24 -54 -73 -74 -108 -19 -35 -53 -84 -74
-108 -70 -81 -168 -203 -241 -302 -78 -105 -112 -136 -154 -145 -28 -5 -28 -5
-28 -104 0 -55 2 -99 4 -99 21 0 83 32 131 67 33 25 78 54 100 65 47 24 199
166 339 317 55 58 163 173 240 256 78 82 171 181 207 220 36 38 82 95 101 125
63 101 187 196 239 185 57 -13 58 -22 53 -446 -6 -565 -22 -815 -69 -1079 -35
-201 -43 -263 -65 -515 -24 -270 -45 -403 -99 -616 -51 -199 -64 -328 -59
-570 5 -218 12 -247 87 -362 22 -34 52 -93 67 -132 35 -89 148 -209 206 -220
76 -14 111 29 139 170 6 32 26 94 45 136 66 151 65 140 74 749 5 305 9 778 9
1050 1 272 6 524 11 560 7 43 6 90 -1 140 -17 123 5 735 31 880 41 221 8 356
-120 496 -105 114 -106 202 -4 310 36 38 69 87 94 139 20 44 58 104 83 134 26
30 56 79 67 109 29 77 48 111 91 163 22 25 57 86 78 137 22 50 55 111 74 134
44 54 68 104 95 193 23 75 96 179 222 317 103 112 128 210 81 313 -28 62 -164
200 -242 245 -37 22 -81 51 -97 65 -75 63 -205 85 -281 48z"/>
<path d="M3774 6692 c-59 -28 -68 -57 -59 -189 5 -83 2 -147 -15 -276 -34
-275 -37 -285 -106 -407 -32 -56 -49 -103 -68 -185 -29 -131 -38 -155 -76
-212 -40 -59 -58 -94 -95 -188 -17 -44 -52 -108 -77 -142 -25 -35 -58 -95 -73
-135 -16 -42 -51 -103 -81 -144 -30 -39 -68 -104 -84 -144 -17 -40 -51 -98
-76 -129 -25 -31 -62 -87 -80 -125 -19 -39 -55 -91 -79 -117 -24 -25 -59 -78
-79 -116 -19 -38 -55 -94 -81 -124 -25 -30 -61 -81 -80 -114 -18 -33 -56 -86
-84 -118 -29 -33 -65 -86 -82 -119 -17 -33 -47 -78 -68 -101 -21 -23 -56 -69
-79 -103 -22 -34 -69 -92 -104 -131 -165 -182 -207 -247 -208 -318 0 -93 62
-112 145 -44 124 103 542 526 622 631 24 31 55 66 68 76 13 11 45 46 71 78 26
33 66 79 90 104 23 25 62 77 87 116 57 89 87 114 141 114 51 0 81 -20 95 -63
30 -92 3 -1217 -34 -1407 -3 -14 -12 -110 -20 -215 -22 -264 -37 -359 -90
-580 -39 -161 -54 -264 -80 -544 -45 -473 -26 -675 77 -832 23 -35 62 -102 88
-148 50 -92 86 -121 150 -121 89 0 137 58 165 199 9 47 29 139 45 204 41 165
35 -24 70 2272 9 537 14 693 30 839 41 366 27 482 -66 587 -59 65 -124 185
-124 229 0 37 68 163 123 228 27 31 68 98 92 147 23 50 61 112 84 140 22 27
53 81 68 120 16 38 50 99 77 135 30 38 67 107 92 167 23 56 58 124 78 151 19
27 50 87 67 133 26 70 41 93 88 139 31 30 72 75 91 100 18 25 50 63 71 85 86
92 82 189 -15 296 -22 25 -59 68 -82 95 -23 27 -65 62 -95 78 -30 16 -78 46
-107 68 -101 75 -241 100 -328 60z"/>
</g>
</svg>
