<svg xmlns="http://www.w3.org/2000/svg" viewBox="0 0 735.418603 674.952821">
<g transform="translate(-18.235943,688.000000) scale(0.100000,-0.100000)" fill="#000000" stroke="none">
<path d="M5314 6823 c-15 -118 -10 -185 18 -238 76 -143 78 -150 94 -287 18
-158 37 -1378 23 -1454 -25 -135 -76 -157 -519 -220 -218 -31 -295 -29 -450
11 -189 50 -301 35 -344 -46 -27 -49 -6 -111 79 -239 84 -127 83 -126 105
-242 11 -56 44 -174 74 -262 54 -159 68 -229 96 -471 15 -132 45 -278 76 -368
14 -39 40 -132 59 -205 49 -191 86 -236 193 -234 55 0 85 21 127 87 46 70 71
89 152 109 37 10 98 31 135 47 106 47 167 37 206 -34 16 -30 17 -107 23 -1027
4 -547 10 -1011 13 -1030 4 -19 10 -130 15 -245 9 -233 18 -265 81 -319 55
-46 113 -29 150 44 31 60 38 112 60 415 11 154 24 316 30 360 21 178 59 955
84 1707 6 197 48 246 226 268 47 6 102 15 123 21 90 24 213 40 378 49 215 12
246 16 295 44 53 29 58 74 15 131 -148 194 -149 199 -76 356 31 69 77 148 101
178 25 30 63 89 85 132 23 43 58 93 78 112 20 18 58 59 83 90 26 32 71 76 100
99 90 69 217 200 229 235 22 69 -23 168 -111 241 -33 28 -72 65 -86 82 -14 16
-57 49 -94 71 -38 22 -94 62 -125 90 -36 31 -108 75 -203 121 -147 73 -147 73
-242 73 -92 0 -98 -1 -195 -47 -55 -26 -145 -58 -200 -71 -65 -16 -121 -37
-160 -61 -93 -56 -163 -48 -192 21 -32 77 -22 1069 12 1233 9 41 30 99 47 129
63 113 68 126 68 169 0 114 -120 240 -274 288 -68 20 -146 86 -146 122 0 22
-3 22 -154 22 -155 0 -155 0 -162 -57z m1213 -2193 c77 -47 82 -110 39 -521
-26 -244 -45 -339 -99 -499 -14 -41 -33 -102 -42 -134 -20 -74 -63 -120 -126
-135 -44 -11 -104 -39 -188 -86 -83 -47 -171 -28 -200 43 -18 42 -10 1131 8
1187 28 85 104 124 287 149 156 22 282 20 321 -4z m-1112 -223 c29 -29 34 -41
40 -107 11 -128 0 -1050 -14 -1092 -16 -51 -61 -93 -113 -106 -258 -67 -260
-67 -307 -54 -67 21 -82 53 -92 195 -9 133 -16 196 -54 452 -22 152 -34 256
-51 450 -10 114 40 161 204 191 67 12 119 29 180 60 113 56 160 58 207 11z"/>
<path d="M4035 6705 c-87 -31 -108 -85 -84 -207 15 -72 -6 -203 -61 -383 -21
-71 -49 -174 -60 -228 -16 -71 -37 -127 -76 -203 -30 -58 -54 -112 -54 -119 0
-43 -54 -179 -89 -223 -48 -60 -74 -110 -94 -182 -9 -30 -31 -77 -49 -104 -18
-27 -45 -67 -60 -89 -15 -22 -37 -70 -49 -106 -24 -72 -37 -95 -85 -156 -18
-22 -50 -78 -71 -125 -22 -47 -59 -107 -82 -134 -23 -27 -59 -85 -80 -130 -21
-45 -57 -103 -81 -131 -24 -27 -59 -84 -77 -125 -19 -41 -52 -95 -73 -120 -21
-25 -56 -82 -78 -125 -22 -44 -63 -107 -92 -140 -28 -33 -66 -87 -85 -120 -18
-33 -54 -84 -79 -113 -25 -29 -60 -80 -77 -113 -18 -33 -53 -78 -78 -101 -25
-22 -51 -49 -58 -61 -44 -79 37 -162 120 -122 66 31 398 375 635 658 24 29 65
75 92 102 26 28 61 70 78 93 75 106 208 232 246 232 70 0 79 -27 72 -230 -27
-784 -32 -863 -81 -1205 -33 -235 -57 -460 -70 -660 -10 -143 -48 -376 -89
-544 -49 -197 -70 -402 -63 -606 6 -186 17 -231 81 -328 25 -37 52 -91 62
-120 48 -147 150 -257 238 -257 61 0 94 40 117 140 11 46 36 120 55 163 64
141 62 113 74 1442 13 1616 16 1748 35 1885 41 301 18 437 -96 559 -114 123
-116 215 -5 336 28 31 55 76 71 117 15 37 39 84 55 105 64 83 87 121 114 185
15 37 51 98 80 136 29 37 62 95 74 128 12 32 36 81 54 108 18 27 45 67 60 89
15 22 39 74 53 116 14 42 41 96 60 121 20 25 56 77 82 115 26 39 70 95 99 125
69 74 87 110 87 185 0 116 -90 239 -248 343 -38 25 -89 61 -113 79 -75 57
-177 76 -257 48z"/>
<path d="M1833 6650 c-51 -31 -63 -65 -73 -223 -13 -185 -30 -263 -96 -428
-30 -76 -54 -141 -54 -147 0 -40 -47 -149 -89 -206 -28 -37 -55 -84 -62 -104
-20 -62 -56 -128 -97 -175 -22 -25 -56 -76 -77 -113 -21 -38 -60 -93 -86 -123
-26 -29 -62 -80 -79 -112 -17 -33 -55 -85 -84 -117 -29 -31 -66 -77 -83 -102
-17 -25 -64 -79 -105 -120 -87 -87 -153 -219 -126 -247 25 -25 218 57 290 123
31 29 79 64 107 78 27 14 76 50 108 79 32 30 83 70 113 89 60 39 369 338 415
403 16 22 55 68 87 101 31 34 68 86 81 115 14 30 48 83 76 118 29 35 65 90 81
122 17 32 49 80 72 106 24 27 60 71 80 99 21 29 53 63 72 77 37 29 158 180
177 220 30 65 -27 162 -171 293 -77 70 -117 99 -165 118 -35 14 -93 41 -130
61 -77 41 -133 46 -182 15z"/>
<path d="M1834 4819 c-81 -23 -102 -102 -60 -223 31 -91 31 -87 5 -245 -26
-163 -42 -211 -98 -297 -29 -43 -58 -106 -75 -160 -29 -90 -45 -121 -99 -184
-17 -19 -44 -66 -62 -105 -18 -38 -53 -95 -77 -125 -25 -31 -62 -88 -82 -127
-19 -40 -61 -100 -92 -135 -31 -34 -64 -79 -74 -99 -10 -19 -46 -65 -79 -102
-33 -37 -70 -86 -82 -108 -11 -23 -40 -63 -63 -88 -24 -25 -61 -74 -84 -109
-76 -116 -394 -471 -559 -625 -54 -50 -79 -102 -68 -137 24 -77 112 -66 233
29 28 23 84 62 124 88 40 26 105 74 143 108 39 33 86 71 105 84 19 14 60 48
90 76 30 28 83 70 117 93 33 23 69 52 80 65 10 12 51 49 91 80 39 32 72 62 72
66 0 38 202 201 249 201 68 -1 69 -9 61 -405 -8 -334 -9 -358 -39 -515 -17
-91 -43 -262 -57 -380 -27 -230 -52 -357 -83 -418 -89 -176 -90 -349 -1 -527
30 -61 57 -135 70 -189 31 -136 65 -176 150 -176 81 0 135 49 170 157 13 37
38 98 56 134 75 152 84 254 84 1054 1 705 12 1060 39 1242 31 207 15 279 -85
385 -77 81 -75 119 8 216 15 18 42 61 59 95 17 34 50 85 74 112 23 28 61 82
85 120 23 39 62 91 85 116 24 26 60 77 79 115 20 38 58 97 85 130 55 70 111
202 118 280 7 75 -42 190 -105 244 -26 22 -71 60 -100 85 -66 57 -94 68 -229
94 -119 23 -133 24 -179 10z"/>
</g>
</svg>
