<svg xmlns="http://www.w3.org/2000/svg" viewBox="0 0 459.588368 421.863603">
<g transform="translate(-11.230187,430.000000) scale(0.100000,-0.100000)" fill="#000000" stroke="none">
<path d="M3316 4230 c-6 -73 0 -97 44 -167 31 -48 39 -147 46 -608 6 -368 5
-425 -9 -457 -27 -63 -45 -69 -324 -109 l-142 -20 -98 21 c-148 32 -155 32
-198 18 -84 -28 -77 -89 30 -236 13 -19 27 -55 30 -80 3 -26 25 -108 50 -182
24 -74 46 -166 50 -205 12 -129 34 -249 60 -330 14 -44 33 -111 41 -149 17
-74 44 -111 88 -122 46 -11 75 4 107 56 25 41 38 52 72 61 23 6 67 22 98 35
68 29 90 30 120 5 l24 -19 7 -639 c4 -351 11 -708 16 -794 7 -137 11 -160 30
-187 39 -54 85 -54 116 -2 18 32 22 63 51 410 22 274 33 462 45 780 15 433 16
443 34 478 11 22 27 34 54 41 93 26 275 53 400 61 75 4 149 13 164 20 38 18
45 46 19 79 -58 71 -82 107 -88 129 -7 28 52 159 95 212 16 20 41 58 55 85 28
54 120 154 230 249 74 65 85 89 68 146 -13 45 -113 146 -198 200 -32 20 -64
44 -72 53 -7 10 -61 40 -119 68 -96 47 -109 51 -157 46 -29 -3 -79 -19 -112
-35 -32 -17 -77 -33 -99 -37 -21 -3 -71 -23 -111 -42 -63 -32 -76 -35 -98 -25
-14 7 -30 23 -35 38 -12 32 -13 495 0 664 8 114 12 130 44 193 52 99 50 131
-15 201 -28 31 -55 56 -60 56 -4 0 -34 9 -65 21 -42 16 -61 30 -76 55 l-20 34
-93 0 -92 0 -7 -70z m757 -1331 c52 -23 56 -71 31 -319 -8 -85 -19 -173 -24
-195 -14 -63 -80 -258 -92 -272 -6 -7 -33 -20 -61 -28 -28 -8 -69 -27 -92 -42
-47 -31 -96 -35 -125 -8 -19 18 -20 28 -19 379 0 396 3 418 55 448 58 34 280
59 327 37z m-687 -144 l25 -25 -3 -364 c-3 -353 -4 -365 -24 -393 -12 -15 -36
-31 -55 -36 -19 -4 -57 -15 -85 -23 -68 -19 -107 -18 -134 4 -20 16 -24 32
-31 123 -4 57 -16 167 -28 244 -41 282 -45 342 -27 371 20 29 42 39 134 58 37
8 87 26 112 40 57 32 84 33 116 1z"/>
<path d="M2515 4191 c-11 -5 -29 -18 -39 -30 -17 -19 -18 -27 -9 -79 12 -62
-1 -154 -32 -242 -9 -25 -24 -84 -35 -131 -10 -48 -34 -118 -53 -155 -19 -38
-40 -92 -46 -121 -8 -30 -29 -73 -51 -103 -22 -29 -42 -66 -46 -84 -8 -39 -38
-99 -58 -115 -8 -7 -27 -44 -41 -82 -15 -39 -38 -83 -51 -99 -14 -15 -35 -53
-49 -83 -13 -30 -37 -70 -54 -89 -16 -19 -40 -58 -54 -88 -13 -30 -34 -64 -47
-75 -12 -11 -35 -47 -50 -80 -15 -33 -35 -66 -44 -74 -10 -8 -30 -40 -46 -71
-16 -31 -45 -76 -65 -100 -20 -24 -45 -60 -55 -80 -10 -20 -26 -42 -35 -50 -9
-7 -28 -34 -42 -59 -14 -25 -46 -65 -69 -87 -25 -24 -44 -51 -44 -63 0 -26 34
-61 59 -61 28 0 153 113 262 238 52 58 132 149 180 202 47 52 92 105 100 117
36 53 130 143 149 143 11 0 26 -10 34 -22 13 -20 13 -55 5 -238 -14 -332 -27
-503 -48 -645 -11 -71 -25 -191 -31 -265 -18 -213 -39 -367 -65 -470 -31 -122
-45 -239 -45 -365 1 -124 11 -173 54 -244 19 -31 40 -73 46 -95 18 -56 98
-136 137 -136 39 0 61 26 78 92 7 29 26 82 41 118 l28 65 7 480 c4 264 7 680
8 925 0 349 4 479 18 601 16 150 16 159 -2 224 -13 51 -29 80 -61 116 -70 79
-71 130 -6 204 21 24 44 62 52 84 7 23 28 58 46 80 18 21 41 58 50 82 9 24 34
67 54 94 21 28 43 66 49 86 7 20 27 58 46 85 19 27 47 79 60 115 14 37 35 75
46 85 11 10 29 34 41 53 12 20 41 57 64 82 73 80 72 157 -4 243 -47 53 -174
146 -226 165 -32 13 -82 13 -111 2z"/>
<path d="M1134 4147 c-26 -22 -28 -31 -35 -134 -7 -113 -27 -200 -59 -263 -10
-20 -26 -65 -35 -101 -9 -35 -31 -86 -50 -114 -19 -27 -43 -72 -55 -99 -11
-27 -34 -64 -50 -83 -17 -19 -41 -55 -54 -81 -13 -26 -36 -58 -51 -72 -15 -14
-36 -43 -47 -65 -22 -42 -65 -95 -159 -199 -59 -64 -99 -131 -99 -166 0 -20
24 -28 35 -11 3 5 31 19 63 31 31 12 73 36 92 55 19 18 50 40 67 49 18 9 55
37 83 61 28 25 54 45 59 45 11 0 231 220 304 304 31 37 57 73 57 80 0 8 17 36
39 63 21 27 47 65 56 84 19 36 60 88 141 178 94 105 124 145 124 164 0 66
-131 194 -263 256 -100 47 -125 50 -163 18z"/>
<path d="M1128 3004 c-37 -20 -45 -57 -25 -115 21 -57 21 -100 3 -206 -16 -86
-21 -100 -62 -160 -13 -20 -31 -61 -40 -90 -9 -29 -32 -74 -51 -100 -20 -26
-43 -63 -52 -83 -9 -20 -30 -54 -47 -75 -17 -22 -42 -60 -54 -85 -12 -25 -40
-64 -61 -87 -22 -24 -39 -47 -39 -53 0 -5 -22 -35 -50 -65 -27 -30 -50 -60
-50 -65 0 -5 -15 -26 -32 -46 -18 -21 -49 -61 -68 -90 -41 -62 -229 -272 -310
-348 -67 -61 -84 -89 -76 -121 12 -49 66 -40 151 24 27 21 64 47 80 57 17 10
50 36 75 59 25 22 66 55 90 72 96 70 167 131 249 213 132 132 185 164 208 128
4 -7 6 -105 5 -218 -3 -162 -8 -233 -27 -340 -13 -74 -29 -180 -35 -235 -17
-156 -29 -212 -62 -294 -25 -61 -31 -91 -32 -156 -1 -73 2 -85 32 -138 18 -32
42 -93 52 -135 27 -107 67 -135 140 -97 29 15 60 60 60 87 0 8 16 47 36 88 48
101 54 178 54 755 1 417 5 543 26 716 11 98 -1 145 -52 193 -53 51 -55 75 -13
124 17 20 38 51 46 69 7 19 34 59 58 89 25 30 45 59 45 64 0 5 18 30 40 55 23
26 51 68 64 93 13 26 33 55 44 66 27 24 82 156 82 196 0 56 -38 127 -89 165
-25 19 -57 44 -71 55 -14 11 -59 26 -105 35 -97 18 -103 18 -137 -1z"/>
</g>
</svg>
