<svg xmlns="http://www.w3.org/2000/svg" viewBox="0 0 440.100248 417.984512">
<g transform="translate(0.099808,430.000000) scale(0.100000,-0.100000)" fill="#000000" stroke="none">
<path d="M3003 4234 c4 -50 12 -77 36 -116 17 -27 36 -69 42 -91 6 -24 14
-243 18 -512 9 -512 9 -512 -46 -533 -52 -20 -167 -51 -252 -66 -128 -24 -245
-21 -337 9 -78 26 -109 25 -151 -2 -54 -35 -47 -89 30 -218 34 -57 49 -95 58
-148 6 -40 27 -114 45 -165 25 -69 39 -134 54 -247 23 -184 24 -187 60 -295
16 -47 34 -104 40 -126 16 -64 44 -94 89 -94 39 0 68 23 106 83 23 35 38 44
132 67 96 25 138 25 162 1 17 -17 18 -55 23 -814 4 -723 6 -798 22 -821 36
-56 122 -15 145 70 6 21 18 116 26 209 9 94 23 204 31 245 20 105 34 366 42
775 8 383 8 387 70 414 43 20 186 39 352 46 164 8 214 19 225 54 9 29 -9 80
-50 137 -40 56 -42 72 -16 106 11 14 29 49 40 78 11 29 33 69 49 89 15 20 40
57 55 83 15 26 34 51 42 55 8 5 26 24 40 43 13 18 55 60 92 92 126 108 123
105 123 153 0 40 -6 51 -64 115 -35 39 -84 84 -108 99 -25 16 -48 35 -51 44
-3 8 -32 27 -64 42 -32 15 -69 38 -83 51 -75 70 -224 72 -360 4 -88 -44 -216
-81 -243 -71 -47 18 -49 40 -39 434 l8 367 37 72 c23 44 37 87 37 109 0 54
-45 107 -127 150 -26 13 -48 34 -58 55 l-16 34 -136 0 -136 0 6 -66z m766
-1314 c10 -5 26 -27 34 -49 14 -34 15 -59 7 -178 -13 -175 -22 -223 -75 -408
-27 -94 -50 -154 -61 -162 -10 -7 -37 -18 -59 -23 -22 -5 -60 -17 -85 -26 -76
-27 -103 -28 -125 -4 -19 21 -20 37 -20 401 0 455 -16 413 161 439 140 21 199
24 223 10z m-679 -140 c19 -19 20 -33 20 -377 0 -334 -1 -360 -19 -389 -14
-24 -31 -34 -67 -43 -27 -7 -73 -21 -103 -32 -59 -22 -99 -19 -125 10 -16 18
-61 321 -86 579 -11 110 -10 125 4 148 10 14 23 27 29 28 65 19 159 52 201 72
64 30 119 31 146 4z"/>
<path d="M2203 4201 c-39 -24 -47 -49 -44 -128 1 -36 -4 -81 -13 -107 -9 -25
-27 -96 -41 -157 -15 -67 -37 -132 -54 -163 -16 -28 -37 -82 -47 -120 -10 -39
-32 -89 -52 -119 -19 -28 -43 -77 -53 -110 -10 -32 -29 -74 -44 -92 -14 -19
-38 -66 -54 -104 -16 -39 -40 -84 -54 -100 -14 -17 -35 -56 -47 -87 -11 -31
-36 -75 -56 -97 -19 -23 -40 -58 -46 -79 -6 -21 -26 -55 -43 -76 -18 -20 -42
-59 -53 -85 -12 -26 -36 -65 -54 -87 -18 -21 -40 -55 -47 -77 -8 -21 -52 -94
-98 -162 -46 -68 -93 -141 -103 -162 -11 -21 -33 -48 -50 -60 -29 -22 -50 -64
-50 -100 0 -24 34 -59 57 -59 9 0 48 33 86 72 71 77 292 333 340 396 16 20 41
51 56 67 16 17 36 45 45 62 36 71 108 133 155 133 41 0 43 -26 38 -369 -4
-288 -8 -345 -30 -487 -15 -88 -33 -234 -42 -325 -18 -194 -19 -200 -55 -349
-39 -161 -53 -282 -53 -445 -1 -155 10 -207 53 -271 16 -22 40 -66 53 -96 17
-37 38 -64 68 -86 74 -55 106 -41 138 61 11 34 32 96 46 137 l27 75 8 950 c6
622 13 981 20 1040 21 157 2 249 -65 325 -24 27 -46 58 -50 70 -12 37 4 87 42
132 20 24 49 71 64 106 16 34 41 79 57 100 16 20 37 57 46 81 10 25 30 61 46
81 16 20 37 59 48 88 11 28 32 66 48 84 15 18 38 58 51 88 14 30 40 71 58 92
19 20 41 50 49 67 9 16 30 39 47 52 58 41 74 120 40 195 -23 50 -146 154 -226
190 -77 36 -122 40 -162 15z"/>
<path d="M572 4165 c-49 -36 -2 -100 281 -387 159 -160 199 -187 278 -188 103
0 151 35 180 132 20 65 20 69 4 125 -27 93 -40 110 -133 170 -64 41 -112 64
-182 84 -52 15 -124 37 -160 49 -90 30 -237 38 -268 15z"/>
<path d="M2 3063 c3 -54 4 -57 34 -65 22 -6 52 -32 100 -89 97 -115 282 -297
324 -319 19 -10 43 -27 54 -39 25 -27 80 -44 120 -37 32 6 122 88 145 133 14
28 14 106 0 157 -20 71 -165 196 -226 196 -10 0 -58 20 -108 44 -85 43 -98 46
-234 61 -79 8 -159 15 -178 15 l-34 0 3 -57z"/>
<path d="M1123 2505 c-11 -8 -28 -32 -36 -54 -9 -22 -29 -54 -45 -73 -16 -18
-38 -54 -49 -79 -11 -25 -37 -69 -56 -98 -20 -28 -39 -61 -43 -73 -3 -12 -26
-50 -50 -85 -24 -35 -44 -70 -44 -78 0 -7 -17 -35 -39 -62 -21 -27 -48 -71
-60 -97 -11 -27 -35 -64 -52 -84 -17 -19 -38 -51 -46 -71 -8 -19 -30 -53 -48
-76 -18 -22 -43 -60 -55 -85 -36 -71 -114 -161 -204 -235 -110 -90 -116 -98
-116 -156 0 -94 29 -209 70 -279 21 -36 44 -82 51 -104 8 -21 35 -64 61 -95
26 -31 58 -69 72 -86 21 -26 31 -30 75 -30 69 0 80 14 96 122 7 49 29 150 49
224 19 74 40 163 46 199 6 36 27 100 46 142 19 42 43 118 54 169 11 51 34 119
51 152 16 32 39 99 49 149 12 53 32 112 51 144 19 34 34 78 40 119 5 41 18 80
34 103 14 21 45 91 70 156 24 65 58 141 75 171 38 66 41 126 8 149 -27 20 -29
20 -55 1z"/>
</g>
</svg>
