<svg xmlns="http://www.w3.org/2000/svg" viewBox="0 0 703.049076 687.836320">
<g transform="translate(-16.950924,703.706232) scale(0.100000,-0.100000)" fill="#000000" stroke="none">
<path d="M4215 7026 c-87 -38 -89 -107 -9 -282 102 -221 107 -272 108 -1077 1
-638 1 -638 -35 -672 -30 -27 -50 -35 -110 -45 -41 -7 -175 -34 -297 -61 -494
-108 -651 -114 -892 -38 -130 42 -207 32 -269 -34 -54 -59 -33 -146 68 -279
56 -75 87 -148 106 -253 9 -49 31 -140 50 -200 62 -199 80 -298 110 -590 21
-207 37 -276 89 -380 24 -49 58 -120 75 -157 32 -67 71 -107 138 -142 70 -35
118 -14 177 79 39 61 91 90 176 99 30 4 102 13 160 21 347 47 366 48 411 20
47 -29 46 -13 53 -985 13 -1695 22 -1806 157 -1875 96 -50 152 17 164 195 7
105 24 213 60 395 49 238 69 529 85 1215 25 1039 24 1020 47 1071 34 76 79 98
248 123 210 31 897 62 1179 53 238 -8 276 8 276 116 0 60 -9 78 -75 147 -100
104 -97 175 11 300 25 30 61 86 79 125 17 38 54 97 82 130 27 33 63 80 78 105
38 61 309 344 365 381 24 16 61 32 82 35 38 7 38 7 38 119 0 113 0 113 -37
120 -52 9 -101 40 -141 86 -23 26 -63 53 -120 80 -48 23 -102 55 -120 70 -41
36 -88 60 -174 88 -37 12 -84 35 -106 51 -165 119 -412 133 -688 40 -149 -51
-273 -75 -534 -105 -74 -8 -183 -24 -241 -36 -133 -26 -168 -17 -200 56 -20
45 -21 63 -18 473 2 579 6 617 64 741 111 239 112 436 2 507 -78 51 -236 133
-273 143 -135 35 -347 50 -399 27z m1682 -2193 c152 -74 176 -147 138 -406
-16 -105 -24 -139 -69 -292 -15 -49 -36 -141 -47 -204 -24 -132 -39 -167 -120
-271 -87 -113 -100 -118 -347 -141 -114 -10 -257 -28 -317 -40 -189 -36 -239
-37 -273 -2 -47 47 -49 81 -43 670 6 527 7 542 27 570 43 59 63 64 506 103
125 12 269 27 320 35 110 16 155 11 225 -22z m-1638 -188 c60 -31 61 -39 61
-646 0 -607 0 -603 -62 -635 -25 -13 -251 -56 -411 -79 -26 -3 -73 -15 -104
-26 -117 -40 -196 -16 -221 68 -6 21 -16 110 -22 198 -18 266 -59 666 -76 738
-43 178 -1 219 306 302 289 78 479 107 529 80z"/>
<path d="M2325 6933 c-72 -17 -88 -66 -91 -288 -3 -249 -18 -334 -83 -473 -28
-59 -59 -146 -70 -193 -23 -100 -32 -121 -82 -209 -21 -36 -52 -109 -69 -162
-17 -53 -44 -114 -60 -135 -64 -84 -87 -121 -114 -186 -16 -37 -49 -94 -74
-125 -24 -31 -59 -89 -77 -127 -18 -39 -53 -95 -79 -125 -25 -30 -62 -87 -82
-127 -20 -40 -58 -97 -85 -128 -27 -31 -59 -75 -70 -98 -12 -23 -45 -66 -74
-97 -28 -30 -67 -77 -85 -105 -18 -27 -50 -68 -70 -90 -21 -22 -57 -67 -79
-99 -23 -33 -70 -94 -106 -135 -35 -42 -84 -99 -107 -128 -147 -179 -304 -340
-541 -555 -62 -56 -75 -111 -34 -152 49 -48 122 -29 236 63 36 29 101 74 145
101 45 26 92 60 106 75 14 15 59 53 100 85 41 32 93 77 115 100 22 23 66 60
97 81 32 22 70 55 85 74 15 19 54 54 86 77 32 23 74 61 92 84 19 23 57 58 84
78 56 42 202 209 231 266 41 81 116 113 157 68 49 -54 48 -47 46 -488 -3 -785
-21 -1070 -88 -1364 -45 -197 -60 -297 -85 -549 -27 -278 -36 -337 -70 -475
-62 -248 -62 -439 1 -571 17 -36 46 -110 64 -163 52 -154 180 -318 250 -318
72 0 185 167 220 325 22 98 34 492 35 1190 1 319 5 859 10 1200 9 657 8 645
67 964 33 182 29 213 -57 373 -48 90 -74 126 -116 162 -87 76 -87 125 2 233
31 37 67 89 79 114 13 25 45 70 71 100 25 30 60 83 76 119 17 36 54 97 84 136
30 39 68 104 84 144 17 41 52 102 80 137 27 35 56 84 64 108 9 25 23 65 32 90
9 25 35 73 58 108 24 34 60 95 81 136 22 41 70 107 110 151 143 156 163 225
100 346 -56 107 -80 134 -166 184 -36 22 -72 46 -79 55 -42 51 -299 150 -355
138z"/>
</g>
</svg>
