<svg xmlns="http://www.w3.org/2000/svg" viewBox="0 0 754.890806 676.916859">
<g transform="translate(-19.000000,690.180895) scale(0.100000,-0.100000)" fill="#000000" stroke="none">
<path d="M4259 6877 c-69 -46 -71 -104 -7 -184 48 -60 58 -86 74 -196 8 -56
35 -174 59 -262 64 -232 81 -392 105 -1020 14 -375 13 -443 -8 -485 -24 -50
-83 -76 -185 -85 -129 -10 -399 -52 -547 -84 -74 -16 -200 -35 -280 -41 -168
-14 -222 -32 -239 -81 -17 -50 6 -92 70 -122 286 -134 351 -141 574 -62 68 24
168 53 222 65 54 11 127 30 162 40 151 47 221 11 221 -115 0 -69 -16 -108 -73
-178 -25 -30 -54 -81 -66 -114 -12 -32 -28 -77 -37 -101 -9 -23 -34 -65 -56
-93 -39 -50 -68 -107 -102 -200 -9 -26 -37 -73 -63 -105 -25 -33 -60 -91 -78
-129 -18 -39 -54 -95 -80 -125 -25 -30 -62 -84 -80 -120 -18 -36 -53 -88 -78
-115 -24 -28 -63 -81 -86 -119 -41 -68 -122 -164 -231 -274 -30 -30 -65 -69
-77 -86 -77 -106 -441 -468 -549 -547 -98 -70 -172 -194 -145 -238 21 -34 300
72 414 156 34 25 83 56 110 69 26 14 75 48 110 77 34 29 84 66 112 82 27 15
79 56 115 89 36 34 79 73 95 87 75 66 348 359 376 404 17 28 51 71 74 96 24
26 54 68 68 95 14 27 46 76 72 109 26 33 67 101 90 152 57 121 100 137 149 54
41 -71 9 -601 -59 -976 -38 -209 -64 -398 -80 -580 -17 -188 -35 -304 -65
-416 -68 -256 -65 -232 -65 -434 0 -190 0 -190 51 -285 28 -52 61 -124 73
-160 50 -154 203 -232 313 -160 191 126 188 108 188 1378 0 891 14 2020 26
2099 13 84 48 81 146 -14 83 -81 104 -113 145 -222 13 -36 45 -94 69 -129 25
-34 56 -93 69 -131 29 -85 37 -102 90 -173 24 -32 51 -79 61 -105 35 -98 53
-133 101 -195 26 -34 60 -94 76 -133 16 -43 47 -93 78 -129 28 -33 66 -92 86
-131 19 -39 57 -97 84 -129 28 -33 61 -81 75 -108 14 -27 48 -76 77 -108 29
-32 72 -82 96 -110 36 -42 65 -62 150 -103 106 -52 106 -52 311 -52 142 0 240
5 320 17 283 42 432 59 588 66 215 11 296 46 264 116 -24 53 -269 173 -439
215 -89 22 -144 46 -189 84 -39 32 -84 55 -167 83 -40 14 -97 44 -137 74 -40
30 -97 60 -138 74 -86 30 -106 40 -158 82 -22 18 -82 54 -132 79 -53 27 -104
61 -120 80 -15 18 -53 51 -85 73 -93 65 -317 286 -402 397 -29 39 -72 88 -95
110 -23 22 -56 60 -73 85 -17 25 -56 72 -87 105 -31 33 -71 83 -90 110 -18 28
-52 73 -75 100 -23 28 -56 75 -75 105 -18 30 -54 79 -80 110 -26 30 -61 75
-77 100 -17 25 -52 69 -78 97 -94 105 -173 280 -155 343 25 86 84 112 315 135
88 9 237 25 330 35 333 38 414 42 557 28 209 -20 350 3 427 68 101 85 27 224
-156 294 -60 23 -417 80 -499 80 -161 0 -552 -85 -644 -140 -164 -98 -288 -72
-292 61 -1 47 18 340 27 399 3 19 9 125 15 235 15 300 34 404 100 570 40 100
49 190 26 267 -18 63 -169 239 -247 288 -22 14 -74 49 -117 77 -177 121 -377
168 -463 110z"/>
<path d="M1802 6596 c-91 -50 -82 -157 32 -384 56 -112 65 -150 110 -462 53
-375 68 -523 77 -800 5 -140 12 -276 15 -301 16 -128 -50 -172 -356 -243 -304
-70 -372 -80 -954 -131 -225 -20 -263 -43 -221 -135 57 -127 150 -145 681
-136 192 3 395 9 451 12 103 6 103 6 133 -24 23 -24 30 -39 30 -71 0 -63 -72
-255 -125 -331 -31 -44 -56 -98 -75 -159 -19 -62 -45 -116 -77 -165 -27 -39
-62 -108 -77 -151 -18 -53 -46 -104 -81 -150 -30 -39 -67 -101 -84 -137 -16
-36 -51 -90 -78 -119 -26 -30 -63 -85 -82 -122 -19 -37 -53 -89 -76 -115 -23
-26 -63 -78 -90 -117 -26 -38 -62 -82 -80 -97 -18 -15 -49 -51 -68 -80 -19
-29 -54 -71 -77 -93 -23 -22 -60 -66 -82 -98 -21 -32 -127 -145 -234 -252
-197 -196 -224 -232 -224 -298 0 -73 40 -74 198 -6 74 31 139 67 172 94 30 25
81 59 113 76 33 17 77 49 99 71 22 22 63 56 92 77 100 70 369 326 415 395 8
11 44 53 81 91 37 39 77 89 89 112 11 23 41 65 66 93 25 28 66 90 90 138 25
48 63 112 84 142 22 30 52 85 66 122 35 90 93 137 152 126 52 -9 67 -139 39
-334 -8 -54 -20 -189 -26 -299 -13 -244 -32 -388 -66 -520 -130 -501 -147
-948 -43 -1120 148 -246 180 -279 273 -279 60 -1 95 18 132 71 19 29 114 291
129 358 4 17 7 518 7 1114 0 1147 -1 1128 43 1145 57 21 130 -17 200 -104 53
-67 213 -210 264 -236 71 -38 138 -10 203 84 17 26 46 68 64 94 60 88 54 155
-23 260 -87 119 -108 135 -212 169 -52 17 -124 48 -160 70 -69 42 -107 55
-205 70 -147 24 -158 49 -151 324 9 306 6 301 200 368 72 25 164 56 205 71 41
14 101 32 132 41 76 20 122 66 144 140 32 113 -5 162 -172 229 -158 64 -186
66 -269 27 -118 -55 -184 -37 -201 54 -12 68 63 639 131 989 63 324 52 381
-101 529 -58 55 -122 111 -143 123 -22 12 -66 44 -99 71 -101 85 -336 155
-400 119z"/>
</g>
</svg>
