<svg xmlns="http://www.w3.org/2000/svg" viewBox="0 0 472.845301 422.814733">
<g transform="translate(-11.154699,430.973074) scale(0.100000,-0.100000)" fill="#000000" stroke="none">
<path d="M2646 4287 c-34 -34 -33 -45 9 -101 30 -38 38 -61 50 -134 8 -48 25
-123 39 -168 13 -44 29 -120 35 -170 13 -102 31 -474 31 -642 0 -106 -2 -114
-24 -137 -15 -15 -40 -25 -67 -29 -24 -2 -87 -10 -139 -16 -52 -6 -147 -22
-210 -35 -63 -13 -149 -26 -190 -30 -123 -10 -139 -14 -156 -41 -20 -30 -7
-69 28 -84 13 -5 55 -23 95 -39 97 -42 157 -41 293 3 208 68 300 85 336 61 24
-16 26 -21 22 -76 -3 -48 -10 -66 -38 -100 -19 -24 -44 -71 -57 -106 -13 -36
-36 -81 -52 -101 -17 -20 -39 -62 -51 -94 -11 -31 -34 -73 -51 -94 -16 -21
-39 -58 -50 -83 -11 -25 -33 -59 -48 -76 -16 -16 -38 -49 -50 -72 -12 -23 -34
-57 -50 -75 -16 -18 -38 -48 -49 -67 -21 -35 -72 -95 -152 -181 -25 -27 -70
-76 -100 -111 -82 -92 -228 -235 -288 -283 -56 -43 -109 -123 -99 -150 5 -13
12 -12 54 4 26 10 69 26 95 35 44 15 121 61 213 126 22 16 65 45 95 65 64 43
92 68 247 224 63 63 126 133 140 155 14 22 32 44 39 48 8 4 31 38 53 76 22 37
47 73 55 80 8 6 26 41 41 76 41 95 88 98 105 7 13 -71 -19 -435 -54 -627 -14
-71 -30 -184 -36 -250 -16 -172 -37 -300 -62 -375 -16 -49 -22 -99 -25 -200
l-5 -135 31 -58 c17 -32 41 -83 52 -113 17 -45 30 -61 67 -85 58 -36 89 -37
138 0 106 77 102 35 110 1081 8 1134 8 1103 17 1118 15 23 36 12 92 -45 38
-40 62 -76 77 -116 12 -32 34 -77 51 -99 16 -22 38 -66 48 -97 11 -31 33 -73
50 -94 17 -20 39 -62 49 -93 11 -30 34 -73 53 -94 19 -22 39 -58 46 -81 7 -22
27 -57 45 -77 19 -20 45 -60 60 -89 14 -29 39 -67 54 -85 16 -18 41 -54 56
-81 15 -26 30 -47 34 -47 4 0 25 -22 45 -50 28 -37 55 -59 108 -85 69 -35 73
-36 192 -36 75 0 178 8 267 21 80 12 206 25 280 29 145 8 200 25 200 61 0 10
-11 27 -25 38 -36 29 -202 99 -263 113 -29 6 -75 26 -103 46 -28 19 -76 43
-106 54 -30 10 -72 32 -93 49 -21 17 -64 39 -94 50 -31 10 -73 32 -93 49 -21
17 -56 38 -78 47 -22 9 -61 35 -87 58 -26 22 -73 64 -104 91 -64 55 -170 164
-193 198 -8 12 -37 47 -64 77 -27 30 -62 69 -77 85 -30 33 -91 114 -160 210
-92 129 -116 160 -152 200 -21 23 -53 76 -73 117 -35 73 -36 77 -22 111 18 43
68 63 177 72 41 3 158 15 260 26 143 16 218 19 330 15 136 -6 148 -5 200 16
112 47 106 122 -16 194 -30 18 -78 29 -192 46 -137 20 -159 21 -242 9 -176
-25 -269 -48 -319 -80 -60 -39 -129 -43 -162 -10 -19 19 -21 29 -15 88 3 36
10 138 16 226 21 313 29 373 61 456 59 153 54 190 -39 295 -108 121 -249 202
-367 211 -69 5 -75 4 -99 -20z"/>
<path d="M1140 4130 c-13 -3 -33 -21 -44 -39 -18 -32 -18 -35 -2 -90 10 -31
30 -78 45 -106 39 -70 48 -102 70 -260 39 -276 63 -551 64 -752 1 -38 -24 -69
-70 -88 -85 -36 -354 -85 -573 -105 -278 -25 -310 -30 -324 -53 -17 -27 20
-88 69 -112 36 -18 64 -20 280 -23 132 -2 276 1 319 6 98 11 123 6 143 -25 16
-23 15 -30 -11 -111 -16 -48 -41 -105 -57 -126 -16 -22 -38 -69 -50 -105 -12
-36 -33 -80 -46 -97 -13 -18 -34 -59 -48 -93 -13 -34 -38 -79 -54 -100 -17
-22 -38 -57 -47 -78 -9 -21 -32 -55 -51 -77 -19 -21 -41 -53 -49 -72 -8 -18
-27 -48 -42 -66 -16 -18 -39 -49 -52 -68 -13 -19 -42 -56 -64 -82 -90 -103
-132 -152 -147 -174 -18 -28 -101 -114 -197 -206 -97 -92 -121 -176 -48 -165
49 8 158 57 194 88 18 16 49 37 70 48 20 10 46 29 57 41 11 12 40 36 65 53 59
40 130 105 209 192 35 38 83 91 107 117 24 26 44 52 44 57 0 5 19 31 41 57 23
27 50 68 60 91 10 24 30 59 44 76 13 18 35 58 49 89 27 60 56 88 93 88 17 0
24 -7 29 -27 3 -16 8 -34 10 -42 2 -7 -2 -79 -10 -160 -8 -80 -20 -207 -26
-281 -7 -90 -22 -180 -44 -270 -41 -163 -61 -339 -53 -475 7 -117 12 -135 74
-229 59 -92 88 -116 136 -116 59 0 87 35 130 165 l37 110 0 690 c0 385 4 696
9 704 12 19 66 16 97 -4 13 -8 35 -33 49 -54 29 -43 148 -143 183 -153 40 -11
67 7 121 83 69 99 69 124 -2 215 -49 64 -58 71 -119 91 -37 11 -82 31 -99 44
-18 13 -69 31 -112 40 -44 10 -87 25 -96 34 -14 14 -16 39 -13 173 2 107 7
163 16 177 13 20 120 61 277 109 96 29 97 30 121 83 22 49 18 91 -11 117 -26
23 -166 76 -202 76 -16 0 -47 -9 -69 -20 -76 -39 -110 -19 -110 64 0 68 24
261 56 443 53 306 53 306 43 358 -8 42 -19 60 -72 113 -34 35 -75 70 -90 78
-16 8 -46 31 -67 50 -35 32 -63 44 -190 83 -14 4 -36 5 -50 1z"/>
</g>
</svg>
