<svg xmlns="http://www.w3.org/2000/svg" viewBox="0 0 961.120862 840.501040">
<g transform="translate(-18.775969,839.880261) scale(0.100000,-0.100000)" fill="#000000" stroke="none">
<path d="M6200 8373 c1 -118 35 -222 109 -330 53 -78 75 -144 107 -316 13 -76
40 -209 59 -295 80 -368 94 -535 102 -1204 6 -535 5 -546 -57 -608 -70 -70
-342 -169 -618 -225 -225 -46 -553 -130 -601 -154 -135 -69 -119 -191 31 -240
189 -61 310 -79 388 -58 159 43 368 112 432 142 232 111 301 -73 134 -361 -28
-49 -55 -116 -71 -174 -40 -145 -52 -174 -116 -270 -33 -50 -76 -133 -99 -192
-24 -62 -63 -137 -98 -189 -33 -48 -76 -127 -96 -176 -23 -54 -61 -122 -97
-169 -33 -43 -81 -122 -106 -174 -25 -52 -72 -131 -105 -174 -32 -43 -77 -113
-98 -155 -21 -42 -59 -100 -85 -130 -26 -30 -65 -82 -88 -115 -23 -34 -66 -88
-97 -121 -31 -33 -76 -87 -100 -120 -24 -33 -77 -94 -116 -136 -98 -101 -109
-158 -41 -199 59 -36 115 -23 222 52 39 27 109 75 157 106 194 127 637 548
750 712 29 41 74 102 101 134 27 33 71 105 97 160 28 58 71 127 100 161 28 33
72 98 98 144 57 101 90 124 131 93 56 -41 57 -50 32 -517 -12 -212 -14 -229
-60 -540 -46 -307 -68 -489 -91 -740 -34 -384 -50 -475 -158 -860 -22 -79 -26
-115 -30 -296 -6 -315 13 -387 153 -579 83 -113 129 -191 139 -232 12 -51 179
-42 194 11 7 21 35 87 63 147 68 146 107 244 125 318 36 150 70 1330 79 2771
2 446 5 469 51 525 67 79 133 21 213 -185 17 -44 51 -114 76 -155 24 -41 57
-106 71 -145 39 -101 60 -142 116 -217 27 -37 72 -118 99 -180 27 -62 72 -145
99 -185 28 -39 74 -123 103 -185 85 -179 226 -354 324 -402 125 -62 277 -68
667 -26 99 10 295 28 434 40 140 11 304 29 365 40 62 10 134 21 160 25 48 6
48 6 45 78 -3 71 -3 71 -73 83 -42 7 -146 42 -259 89 -104 42 -234 92 -290
112 -116 40 -163 63 -228 109 -59 42 -103 64 -205 104 -57 22 -107 51 -161 93
-43 34 -109 81 -148 105 -39 23 -98 66 -130 95 -33 29 -93 80 -134 114 -98 79
-428 409 -594 593 -72 80 -189 206 -261 281 -327 340 -309 306 -312 609 -7
675 7 686 887 720 146 5 322 10 391 10 197 0 271 35 299 140 28 106 -15 182
-152 265 -51 31 -118 72 -148 91 -176 111 -538 99 -784 -25 -215 -109 -388
-111 -432 -6 -18 44 -18 100 0 250 8 66 22 199 31 295 28 315 85 789 126 1045
48 292 16 399 -170 577 -81 79 -116 104 -185 137 -109 52 -162 99 -180 160
-13 46 -13 46 -250 49 -236 2 -236 2 -236 -25z"/>
<path d="M3903 8001 c-89 -56 -86 -155 7 -282 63 -83 73 -114 100 -285 12 -77
35 -212 51 -300 48 -265 52 -341 43 -729 -4 -192 -9 -420 -9 -505 -1 -256 -21
-276 -367 -384 -97 -30 -234 -67 -305 -81 -220 -45 -289 -121 -194 -216 62
-62 320 -86 484 -46 268 66 347 -45 222 -313 -78 -166 -92 -206 -130 -368 -34
-140 -46 -171 -129 -330 -21 -41 -58 -136 -81 -212 -32 -105 -55 -160 -98
-231 -37 -62 -68 -132 -92 -206 -25 -77 -52 -136 -86 -188 -63 -97 -91 -153
-118 -240 -26 -81 -41 -111 -91 -185 -20 -30 -62 -104 -93 -165 -31 -60 -89
-153 -128 -205 -39 -52 -89 -129 -110 -170 -22 -41 -63 -107 -91 -147 -106
-148 -54 -290 80 -219 84 45 499 509 617 691 29 44 77 110 108 148 30 37 77
109 103 160 26 50 73 130 105 177 32 47 74 126 94 176 51 130 88 173 187 225
51 26 57 25 75 -18 24 -54 24 -348 0 -495 -17 -110 -38 -346 -57 -653 -17
-264 -46 -488 -89 -677 -180 -791 -164 -1203 57 -1455 162 -184 379 -3 421
352 6 50 15 376 21 725 13 814 28 1519 39 1880 4 157 8 319 8 360 -1 213 158
183 348 -66 229 -301 550 -42 409 330 -40 104 -265 243 -514 319 -235 72 -242
89 -222 497 33 653 53 694 368 741 279 42 464 150 464 273 0 116 -238 186
-448 132 -242 -62 -339 27 -307 284 8 63 21 214 30 335 28 386 38 455 95 657
76 265 76 360 4 481 -82 136 -119 181 -193 227 -39 25 -106 71 -149 103 -131
98 -359 149 -439 98z"/>
<path d="M2304 7955 c-63 -32 -74 -72 -74 -261 0 -398 -48 -716 -130 -861 -44
-77 -67 -140 -106 -287 -26 -97 -49 -158 -93 -240 -33 -61 -73 -158 -91 -216
-36 -117 -57 -163 -106 -232 -42 -59 -76 -128 -99 -198 -25 -77 -49 -123 -112
-213 -30 -42 -72 -121 -94 -175 -24 -58 -62 -127 -95 -171 -30 -41 -74 -116
-98 -165 -24 -50 -69 -122 -100 -159 -30 -38 -73 -105 -95 -150 -21 -45 -64
-114 -95 -154 -31 -39 -78 -110 -105 -157 -27 -46 -79 -126 -116 -178 -37 -51
-80 -118 -95 -149 -16 -30 -54 -87 -85 -125 -32 -38 -76 -96 -98 -129 -23 -33
-68 -96 -100 -140 -145 -195 -170 -315 -64 -315 91 0 434 322 692 650 32 41
86 107 119 145 34 39 88 104 120 145 33 41 81 98 107 125 27 28 77 86 111 131
35 45 82 105 106 134 23 29 60 83 82 121 104 176 275 235 327 112 21 -51 13
-514 -16 -873 -11 -140 -25 -345 -31 -455 -6 -110 -20 -285 -30 -390 -11 -104
-26 -284 -35 -400 -24 -322 -53 -517 -121 -820 -39 -178 -67 -393 -90 -700
-30 -401 -5 -586 102 -752 59 -92 162 -310 181 -385 17 -68 17 -68 160 -68
143 0 143 0 143 44 0 64 24 178 64 307 19 63 42 143 50 179 26 115 66 748 66
1052 0 73 5 169 12 215 10 67 9 103 -3 200 -30 234 -10 2413 24 2626 52 325
31 416 -133 576 -126 122 -170 226 -137 316 39 105 140 311 182 370 26 36 69
116 96 178 27 61 74 148 104 192 33 47 72 123 96 185 23 59 66 142 99 192 32
49 66 110 76 136 39 108 71 169 133 253 189 253 204 383 70 583 -146 218 -537
422 -675 351z"/>
</g>
</svg>
