<svg xmlns="http://www.w3.org/2000/svg" viewBox="0 0 468.613167 430.887354">
<g transform="translate(-11.134893,440.000000) scale(0.100000,-0.100000)" fill="#000000" stroke="none">
<path d="M2945 4358 c4 -24 13 -54 20 -68 23 -46 104 -294 115 -350 19 -99 29
-321 31 -663 2 -323 1 -340 -18 -365 -25 -34 -154 -84 -273 -107 -47 -8 -121
-24 -165 -35 -44 -11 -102 -25 -130 -30 -80 -18 -132 -85 -92 -119 20 -16 165
-51 215 -51 41 0 165 31 261 65 55 19 95 19 111 0 23 -27 -24 -192 -77 -267
-14 -21 -34 -68 -44 -104 -10 -36 -30 -82 -45 -101 -14 -19 -36 -61 -49 -94
-13 -33 -37 -76 -53 -97 -16 -20 -38 -57 -49 -82 -11 -25 -35 -63 -52 -84 -17
-22 -41 -60 -52 -85 -11 -25 -29 -55 -40 -67 -11 -11 -34 -44 -52 -72 -32 -51
-204 -257 -252 -301 -31 -29 -32 -46 -1 -66 30 -20 90 -7 133 29 15 13 49 36
74 52 124 79 379 333 440 440 13 21 33 53 45 69 12 17 32 56 44 88 25 66 43
87 74 87 53 0 60 -45 47 -278 -18 -310 -31 -429 -67 -607 -18 -93 -38 -224
-44 -290 -5 -66 -17 -145 -25 -175 -9 -30 -18 -95 -22 -145 -5 -81 -2 -101 27
-205 33 -117 52 -150 102 -176 96 -50 191 49 208 215 5 42 11 315 15 606 11
929 15 1068 26 1082 17 20 36 16 56 -12 10 -14 35 -48 57 -76 21 -27 47 -73
58 -102 11 -28 32 -69 49 -89 16 -20 38 -60 49 -88 11 -28 34 -68 50 -88 16
-21 38 -63 49 -95 11 -32 34 -76 51 -97 17 -21 37 -58 45 -81 21 -58 35 -72
108 -105 72 -33 131 -34 374 -9 78 9 202 20 275 24 133 9 238 34 245 58 6 18
-274 138 -368 157 -15 3 -50 22 -78 41 -28 20 -78 44 -111 54 -32 10 -78 34
-102 52 -24 19 -60 43 -82 54 -21 11 -45 29 -53 41 -8 12 -31 33 -51 47 -78
53 -533 523 -587 606 l-34 54 5 141 c3 78 7 155 10 173 6 41 48 92 91 110 34
14 330 32 525 33 88 0 99 2 126 25 74 62 47 133 -77 209 l-85 51 -120 -1
c-131 -1 -177 -12 -251 -61 -45 -30 -129 -42 -163 -24 -27 14 -37 65 -24 117
6 21 16 156 22 299 13 292 28 410 66 520 31 89 28 104 -29 189 -53 79 -110
130 -189 170 -51 25 -65 37 -73 64 l-9 32 -109 0 -109 0 7 -42z"/>
<path d="M1831 4181 c-31 -31 -28 -82 8 -123 44 -51 49 -65 78 -234 27 -156
28 -166 26 -511 -1 -230 -6 -359 -13 -373 -6 -11 -23 -26 -39 -35 -48 -24
-202 -73 -271 -85 -83 -14 -118 -28 -131 -51 -12 -23 2 -54 34 -70 39 -21 183
-29 235 -13 92 27 152 8 152 -50 0 -34 -37 -144 -64 -191 -13 -22 -33 -76 -45
-120 -12 -44 -35 -103 -51 -131 -16 -28 -37 -80 -46 -115 -9 -35 -31 -86 -50
-114 -18 -27 -42 -75 -52 -106 -10 -30 -32 -73 -50 -95 -17 -21 -38 -59 -47
-83 -8 -24 -31 -64 -50 -87 -20 -24 -42 -58 -49 -76 -8 -18 -29 -51 -46 -73
-18 -22 -39 -53 -47 -70 -15 -29 -125 -170 -205 -264 -58 -67 -46 -111 31
-111 24 0 49 17 119 79 109 98 310 322 341 380 7 12 28 40 47 61 19 20 41 54
50 75 8 20 30 59 49 86 18 27 41 73 49 102 12 40 30 67 82 120 47 49 69 65 75
56 10 -16 2 -193 -16 -374 -8 -77 -22 -228 -30 -337 -16 -209 -20 -235 -59
-398 -31 -131 -50 -319 -43 -422 6 -88 35 -159 95 -228 44 -52 78 -54 126 -5
80 80 86 120 86 615 0 217 5 519 11 670 6 151 10 321 10 377 0 107 9 131 47
119 20 -7 112 -94 152 -146 21 -26 35 -33 72 -37 42 -5 50 -2 77 24 57 57 65
164 18 234 -23 33 -159 112 -227 131 -124 35 -128 45 -120 308 7 227 14 254
72 290 18 10 57 22 87 25 95 10 140 24 195 61 60 39 82 74 66 104 -18 33 -82
43 -227 35 -127 -7 -132 -6 -153 15 -20 20 -22 29 -16 94 3 39 10 152 16 251
12 214 22 277 55 375 14 41 25 96 25 124 0 44 -7 62 -51 129 -43 67 -58 82
-107 106 -31 15 -80 42 -107 60 -68 43 -144 52 -174 22z"/>
<path d="M972 4175 c-22 -16 -23 -20 -17 -118 7 -100 6 -105 -34 -230 -24 -78
-50 -140 -66 -159 -14 -17 -35 -49 -47 -72 -11 -22 -39 -62 -62 -88 -22 -25
-63 -74 -91 -107 -85 -105 -167 -193 -252 -275 -51 -49 -86 -91 -93 -112 -13
-39 -8 -64 13 -64 25 0 181 72 217 100 19 15 58 39 87 54 28 14 58 34 65 44 7
11 31 31 53 46 68 46 245 215 358 341 60 66 149 159 198 207 96 94 114 124
104 176 -8 41 -116 152 -178 184 -23 11 -60 34 -81 51 -48 38 -136 49 -174 22z"/>
<path d="M1059 3225 c-35 -19 -48 -55 -58 -154 -7 -63 -16 -98 -41 -144 -18
-34 -43 -93 -56 -132 -13 -38 -36 -81 -50 -96 -14 -14 -36 -53 -49 -85 -13
-33 -38 -76 -55 -96 -17 -21 -37 -53 -45 -72 -8 -20 -29 -52 -47 -72 -17 -20
-43 -53 -57 -74 -83 -124 -339 -409 -460 -512 -25 -21 -32 -34 -29 -55 3 -24
8 -28 40 -31 31 -3 44 3 80 36 24 21 61 48 82 61 49 28 110 80 236 199 105 98
131 110 166 71 17 -19 19 -41 22 -203 3 -186 -4 -321 -33 -581 -13 -118 -25
-174 -55 -265 -95 -281 -96 -515 -2 -653 19 -29 39 -65 44 -82 26 -81 63 -106
121 -81 51 21 67 47 103 173 34 115 35 125 44 368 5 138 9 385 9 550 1 182 7
383 17 512 21 269 18 288 -52 364 -44 48 -54 65 -54 94 0 45 32 110 66 131 13
9 36 37 50 61 15 24 35 49 45 57 11 7 36 36 57 64 20 28 59 82 86 119 28 37
87 105 133 151 95 93 108 117 93 170 -13 52 -140 165 -220 198 -68 27 -94 29
-131 9z"/>
</g>
</svg>
