<svg xmlns="http://www.w3.org/2000/svg" viewBox="0 0 747.768123 689.799128">
<g transform="translate(-18.000000,704.000000) scale(0.100000,-0.100000)" fill="#000000" stroke="none">
<path d="M4710 7003 c0 -21 14 -76 31 -123 226 -631 226 -633 238 -1555 7
-575 5 -617 -30 -667 -47 -65 -257 -139 -534 -188 -66 -12 -158 -32 -205 -45
-47 -13 -114 -29 -149 -35 -133 -23 -205 -96 -175 -175 15 -38 243 -105 356
-105 57 0 298 61 397 100 112 44 201 29 201 -33 -1 -98 -62 -284 -125 -382
-25 -38 -55 -101 -66 -140 -34 -118 -49 -152 -83 -197 -40 -52 -68 -106 -90
-175 -10 -29 -40 -83 -68 -120 -27 -37 -67 -104 -88 -148 -21 -44 -58 -102
-81 -130 -23 -27 -57 -83 -76 -124 -19 -41 -51 -95 -72 -120 -22 -25 -56 -75
-77 -111 -21 -36 -59 -87 -84 -115 -26 -27 -94 -106 -151 -175 -58 -69 -126
-146 -152 -171 -123 -121 26 -191 180 -85 26 18 86 59 133 90 47 32 108 80
135 106 28 27 68 60 90 75 55 37 249 228 298 295 22 30 67 83 99 118 32 35 70
85 83 113 14 28 45 78 69 113 24 35 56 96 71 137 30 79 79 139 113 139 82 0
103 -86 84 -349 -7 -86 -17 -241 -22 -344 -16 -289 -38 -474 -81 -687 -44
-217 -64 -345 -74 -465 -11 -138 -26 -237 -51 -342 -51 -215 -45 -341 30 -593
41 -138 65 -177 131 -215 108 -64 191 -36 274 94 82 127 87 187 96 1086 3 352
11 827 18 1055 6 228 11 489 9 580 -3 151 -1 168 17 198 27 42 53 41 88 -4 15
-20 47 -60 71 -88 68 -82 100 -135 123 -203 11 -35 40 -89 64 -121 48 -65 66
-98 95 -174 11 -29 38 -75 61 -103 40 -48 89 -137 89 -162 0 -24 42 -107 73
-146 17 -23 55 -86 82 -141 50 -101 50 -101 159 -156 108 -55 108 -55 245 -52
118 2 466 32 557 47 17 3 116 10 220 15 192 9 227 15 324 52 63 24 85 41 75
57 -18 30 -456 221 -505 221 -33 0 -142 47 -185 79 -64 48 -96 64 -170 86 -77
22 -131 50 -176 90 -20 18 -65 47 -100 66 -35 19 -82 52 -105 75 -23 22 -68
61 -100 86 -72 56 -354 335 -569 563 -88 94 -190 199 -226 235 -66 64 -126
146 -167 225 -19 38 -20 53 -15 265 6 270 14 311 79 380 80 85 148 95 724 108
378 9 400 13 442 92 54 102 11 180 -155 284 -134 84 -157 90 -332 90 -204 0
-233 -8 -449 -123 -80 -42 -178 -45 -225 -5 -41 35 -47 76 -28 208 9 61 19
167 22 236 31 736 41 831 116 1047 45 129 40 165 -41 288 -83 126 -176 212
-295 271 -100 50 -119 68 -136 125 -12 39 -12 39 -181 39 -168 0 -168 0 -168
-37z"/>
<path d="M2963 6706 c-72 -33 -85 -129 -27 -202 88 -111 82 -92 136 -429 42
-260 42 -260 42 -585 -1 -780 -1 -781 -82 -837 -46 -30 -327 -119 -457 -144
-180 -34 -235 -85 -175 -162 46 -58 298 -90 411 -51 142 48 239 10 239 -92 0
-59 -50 -209 -100 -299 -24 -44 -49 -111 -65 -175 -17 -68 -46 -143 -81 -212
-29 -59 -66 -151 -81 -204 -20 -73 -39 -115 -79 -175 -29 -45 -64 -113 -78
-157 -26 -77 -37 -97 -100 -184 -19 -26 -46 -78 -60 -115 -14 -38 -46 -92 -72
-123 -25 -30 -63 -89 -84 -130 -21 -42 -54 -95 -74 -118 -19 -24 -58 -80 -85
-125 -28 -45 -78 -116 -113 -158 -173 -208 -254 -314 -263 -346 -16 -57 82
-98 161 -68 54 20 394 354 515 505 42 52 86 104 98 114 12 11 38 47 58 80 20
34 59 86 85 116 27 30 64 87 83 126 18 40 53 100 77 135 40 59 52 85 95 209
10 30 32 60 66 90 28 25 70 64 93 88 48 46 59 50 68 26 14 -35 5 -360 -14
-526 -10 -95 -28 -294 -40 -443 -33 -446 -40 -495 -104 -768 -47 -198 -69
-387 -70 -587 -1 -202 12 -254 94 -379 106 -161 160 -180 257 -89 135 128 136
139 139 1013 2 391 5 755 9 810 11 187 28 770 26 872 -3 98 -2 103 23 128 33
33 50 29 141 -40 48 -36 85 -73 113 -117 147 -226 409 -78 348 195 -27 121
-46 144 -161 203 -55 27 -120 62 -145 76 -25 15 -77 36 -116 47 -79 23 -127
52 -158 94 -22 30 -23 73 -11 562 6 254 56 311 304 340 133 15 164 26 249 84
184 125 142 225 -99 238 -61 4 -115 1 -145 -6 -67 -17 -186 -15 -222 3 -41 21
-65 76 -59 134 3 26 13 157 21 292 33 528 39 566 106 778 55 171 43 235 -77
412 -57 84 -59 86 -158 135 -55 28 -115 60 -132 73 -89 64 -211 94 -270 68z"/>
<path d="M1627 6700 c-103 -19 -124 -63 -97 -203 27 -136 -71 -506 -169 -637
-26 -36 -63 -92 -81 -125 -18 -33 -56 -85 -85 -115 -29 -30 -69 -81 -90 -113
-20 -31 -50 -67 -65 -80 -15 -12 -45 -47 -66 -77 -48 -69 -175 -204 -321 -338
-114 -106 -148 -154 -160 -226 -7 -44 26 -65 74 -49 114 41 256 109 298 144
28 23 78 55 113 70 36 16 88 52 120 82 31 30 80 69 107 87 106 72 468 421 635
614 47 54 153 167 237 250 185 186 207 233 151 333 -35 63 -202 215 -278 253
-36 18 -84 48 -107 67 -69 55 -141 76 -216 63z"/>
<path d="M1699 5158 c-59 -34 -79 -81 -94 -226 -16 -144 -25 -174 -88 -292
-25 -47 -57 -123 -72 -170 -16 -47 -42 -104 -59 -128 -74 -103 -84 -120 -105
-177 -12 -33 -46 -91 -76 -130 -29 -38 -65 -96 -80 -128 -15 -31 -52 -84 -81
-117 -30 -34 -63 -78 -73 -98 -11 -21 -41 -62 -67 -91 -26 -29 -73 -86 -103
-126 -95 -124 -245 -297 -321 -370 -40 -38 -95 -92 -121 -120 -60 -63 -53 -56
-121 -118 -47 -43 -58 -59 -58 -84 0 -86 95 -86 188 0 26 24 81 63 122 87 41
24 95 62 120 85 25 23 74 63 110 90 36 27 119 102 186 167 149 144 193 159
248 85 44 -60 42 -700 -4 -1042 -11 -77 -24 -191 -30 -254 -14 -149 -33 -243
-66 -333 -65 -179 -76 -215 -100 -355 -59 -344 -28 -595 94 -746 17 -21 39
-59 48 -85 51 -141 73 -165 148 -165 57 0 115 31 148 79 30 42 100 274 125
409 12 71 36 631 35 830 -4 639 8 1102 34 1365 28 291 8 393 -94 480 -123 103
-118 210 17 354 37 39 81 91 98 116 17 25 48 61 68 80 21 19 53 60 73 90 19
30 54 75 77 100 22 25 64 79 92 120 28 41 109 134 179 205 161 163 164 167
164 234 0 73 -29 131 -88 175 -26 19 -67 55 -92 81 -48 49 -104 82 -207 121
-78 29 -127 30 -174 2z"/>
</g>
</svg>
