<svg xmlns="http://www.w3.org/2000/svg" viewBox="0 0 463.741926 430.964784">
<g transform="translate(-13.258074,430.964784) scale(0.100000,-0.100000)" fill="#000000" stroke="none">
<path d="M3019 4291 c-38 -30 -31 -79 20 -152 34 -48 45 -75 52 -123 9 -65 46
-287 60 -371 5 -27 12 -213 15 -412 l7 -362 -35 -35 c-23 -23 -48 -37 -74 -41
-21 -3 -102 -26 -179 -51 -98 -31 -176 -48 -259 -58 -77 -9 -123 -19 -133 -29
-36 -36 28 -127 101 -146 105 -26 203 -9 346 58 75 36 99 38 131 13 34 -28 29
-71 -14 -134 -20 -29 -45 -84 -56 -121 -10 -38 -32 -87 -49 -110 -16 -23 -39
-74 -51 -113 -11 -39 -31 -79 -42 -90 -12 -10 -35 -48 -52 -84 -16 -36 -39
-78 -52 -95 -12 -16 -36 -57 -53 -90 -16 -33 -40 -69 -52 -80 -12 -11 -33 -44
-46 -73 -23 -52 -40 -74 -176 -229 -73 -84 -121 -169 -116 -205 5 -37 41 -34
94 6 26 20 53 36 60 36 8 0 39 23 69 50 30 28 59 50 64 50 15 0 141 117 229
213 52 55 128 165 161 231 17 33 46 75 64 95 19 20 46 55 61 78 27 45 50 49
62 10 7 -23 -7 -198 -37 -434 -11 -89 -26 -246 -34 -350 -16 -201 -30 -286
-71 -453 -19 -78 -27 -143 -31 -251 -8 -199 0 -251 42 -298 37 -41 55 -79 55
-117 0 -23 2 -24 73 -24 l74 0 30 83 c17 45 36 107 42 137 19 102 46 792 55
1393 3 225 7 271 20 292 35 53 77 26 112 -70 14 -39 37 -85 50 -102 14 -18 31
-52 40 -75 8 -23 30 -62 49 -86 19 -25 44 -70 55 -101 12 -31 35 -73 51 -94
17 -21 39 -63 50 -95 14 -39 38 -77 78 -122 l59 -65 119 -4 c65 -1 210 3 323
9 113 7 240 14 282 15 88 2 108 13 108 59 0 64 -45 95 -177 122 -55 11 -93 26
-129 50 -28 19 -80 44 -117 55 -36 11 -79 30 -94 43 -15 13 -56 38 -91 55 -35
17 -65 38 -68 45 -3 8 -30 30 -59 50 -79 52 -594 574 -632 640 -17 30 -17 392
0 426 8 16 27 29 52 36 53 16 386 45 502 44 143 0 233 40 233 105 0 28 -10 41
-65 88 -55 47 -75 58 -134 71 -93 21 -179 20 -302 -4 -85 -16 -109 -25 -147
-55 -56 -43 -103 -47 -127 -11 -14 22 -15 46 -5 223 16 290 27 398 49 493 30
125 53 309 46 358 -5 35 -19 57 -63 105 -31 34 -77 76 -102 92 -25 17 -59 41
-76 53 -33 25 -127 51 -185 52 -22 0 -46 -8 -60 -19z"/>
<path d="M943 4265 c-21 -15 -23 -24 -23 -118 -1 -135 -26 -251 -67 -303 -16
-22 -39 -60 -51 -86 -11 -25 -32 -54 -47 -64 -14 -9 -33 -30 -41 -45 -8 -16
-35 -51 -59 -79 -25 -28 -45 -55 -45 -60 0 -13 -167 -181 -202 -204 -45 -29
-80 -136 -45 -136 35 0 139 45 174 75 22 18 54 39 71 47 41 17 131 90 254 206
54 50 102 92 107 92 6 0 23 19 40 43 16 23 89 103 162 177 140 142 163 179
148 234 -13 45 -94 121 -189 178 -95 56 -151 69 -187 43z"/>
<path d="M1908 4105 c-15 -9 -30 -26 -34 -40 -6 -23 21 -104 67 -205 43 -92
51 -167 56 -530 5 -368 -1 -446 -38 -486 -21 -22 -33 -26 -196 -64 -97 -23
-199 -66 -221 -93 -23 -28 -11 -61 28 -74 45 -15 162 -16 250 -2 60 10 72 10
95 -5 30 -20 34 -66 10 -123 -8 -20 -22 -65 -30 -101 -9 -36 -29 -90 -46 -119
-17 -30 -40 -88 -50 -128 -10 -41 -30 -91 -43 -112 -14 -21 -37 -71 -50 -110
-14 -40 -38 -89 -54 -110 -16 -21 -38 -62 -47 -91 -9 -30 -30 -69 -46 -87 -16
-18 -39 -55 -50 -81 -12 -27 -35 -64 -50 -82 -16 -18 -38 -52 -50 -75 -12 -23
-36 -60 -54 -82 -17 -22 -44 -60 -60 -85 -15 -25 -46 -66 -69 -91 -66 -74
-105 -126 -115 -151 -11 -30 3 -68 26 -69 36 -3 49 3 84 38 20 19 53 45 72 56
38 24 257 257 296 316 13 20 38 52 56 71 18 19 41 51 50 70 10 19 32 53 49 75
18 22 43 66 55 97 12 31 34 71 47 90 14 18 33 61 44 96 27 87 37 104 63 100
49 -7 55 -73 36 -380 -6 -94 -19 -225 -29 -292 -11 -66 -26 -164 -34 -216 -8
-52 -22 -165 -31 -250 -9 -85 -25 -197 -35 -249 -26 -125 -26 -139 16 -260 44
-129 48 -137 84 -156 75 -39 126 -7 160 100 53 169 50 125 56 895 3 454 9 737
15 758 22 67 77 64 114 -7 13 -25 43 -68 68 -96 38 -42 49 -49 82 -49 30 0 44
7 70 35 43 47 69 118 61 163 -5 28 -22 49 -79 97 -81 68 -97 77 -180 90 -71
12 -102 31 -116 70 -6 18 -11 127 -11 256 -1 247 3 266 58 279 72 16 131 34
177 53 28 11 69 26 93 31 78 20 105 74 59 118 -46 43 -165 56 -247 27 -55 -19
-95 -19 -114 1 -34 34 -14 372 34 574 53 221 57 351 15 417 -22 32 -167 140
-221 163 -65 28 -114 33 -146 15z"/>
<path d="M1044 3542 c-35 -24 -44 -57 -44 -167 -1 -132 -12 -187 -49 -240 -15
-22 -37 -64 -48 -93 -11 -29 -36 -74 -56 -100 -20 -26 -52 -67 -71 -92 -20
-25 -54 -69 -77 -99 -37 -48 -296 -310 -363 -368 -30 -26 -33 -45 -10 -67 27
-27 76 -20 127 19 26 20 77 49 113 66 37 16 82 43 101 59 18 17 50 39 71 49
20 11 73 54 117 96 44 42 92 83 106 90 14 8 34 26 43 40 9 14 54 64 99 110 45
46 114 120 152 163 39 44 84 89 100 102 38 29 105 119 105 141 0 24 -81 131
-116 153 -16 11 -43 33 -60 50 -19 19 -64 43 -117 64 -92 34 -105 36 -123 24z"/>
<path d="M1068 2656 c-24 -18 -47 -76 -63 -160 -17 -87 -26 -111 -59 -155 -14
-19 -32 -55 -41 -81 -9 -26 -31 -66 -51 -88 -19 -22 -41 -57 -50 -77 -19 -47
-145 -208 -249 -320 -22 -24 -80 -89 -130 -145 -49 -56 -104 -110 -121 -121
-18 -11 -48 -39 -67 -63 -20 -24 -50 -49 -66 -56 -38 -15 -50 -48 -25 -67 23
-17 52 -8 85 27 15 16 44 33 65 39 46 13 104 46 104 60 0 6 21 22 48 37 26 15
63 43 83 61 52 49 160 113 190 113 50 0 52 -10 46 -277 -4 -210 -8 -258 -24
-313 -11 -36 -26 -106 -32 -155 -20 -146 -30 -186 -62 -254 -40 -83 -51 -153
-47 -276 3 -94 5 -105 33 -144 17 -24 44 -66 60 -95 70 -122 89 -146 116 -146
22 0 32 13 81 112 31 62 61 132 67 155 7 26 15 251 21 595 5 304 15 598 21
653 14 125 5 157 -62 231 -62 69 -67 111 -17 152 17 15 41 38 52 51 12 13 41
44 66 70 25 26 74 83 110 126 36 44 109 122 163 174 87 84 97 97 97 129 0 30
-8 44 -49 83 -28 27 -69 58 -93 70 -24 12 -57 32 -74 45 -35 27 -98 32 -126
10z"/>
</g>
</svg>
