<svg xmlns="http://www.w3.org/2000/svg" viewBox="0 0 741.047835 689.752828">
<g transform="translate(-22.234702,689.752828) scale(0.100000,-0.100000)" fill="#000000" stroke="none">
<path d="M4864 6890 c-89 -36 -92 -146 -7 -261 76 -104 85 -132 113 -369 7
-52 25 -165 41 -251 45 -241 51 -337 56 -881 6 -648 22 -605 -238 -672 -74
-19 -179 -51 -234 -71 -129 -47 -186 -60 -380 -85 -232 -30 -256 -43 -234
-123 33 -120 141 -177 337 -177 111 0 174 17 331 87 150 67 219 78 263 44 57
-45 49 -120 -23 -217 -34 -46 -56 -90 -70 -138 -36 -126 -50 -160 -99 -236
-28 -43 -58 -107 -71 -150 -27 -93 -45 -129 -103 -205 -25 -33 -46 -64 -46
-68 0 -21 -72 -162 -101 -198 -17 -22 -49 -76 -70 -119 -22 -44 -59 -102 -84
-130 -24 -27 -60 -83 -79 -124 -18 -41 -52 -94 -73 -118 -22 -23 -65 -77 -95
-118 -30 -41 -68 -86 -83 -100 -85 -77 -215 -278 -215 -333 0 -68 60 -76 141
-18 30 21 80 51 112 66 32 15 86 53 120 84 34 31 87 74 117 95 30 21 67 54 83
72 15 18 55 53 90 77 35 25 76 65 92 89 15 23 56 72 90 108 34 36 79 91 99
123 20 32 55 82 78 110 22 29 56 86 75 127 23 51 53 94 97 140 34 36 73 84 86
107 58 105 105 57 96 -97 -20 -342 -27 -428 -45 -545 -28 -182 -48 -366 -66
-605 -24 -322 -28 -354 -95 -645 -61 -262 -70 -336 -70 -555 0 -253 18 -338
85 -400 39 -36 66 -95 72 -156 6 -54 6 -54 128 -54 122 0 122 0 129 37 3 21
22 77 41 125 20 49 43 118 51 155 28 129 67 991 84 1873 6 294 12 598 13 676
4 170 17 207 81 212 51 4 93 -40 125 -134 29 -83 56 -138 88 -181 13 -17 39
-68 58 -113 19 -45 47 -98 62 -117 59 -75 74 -101 105 -181 17 -47 53 -113 79
-148 26 -36 55 -86 65 -112 35 -98 53 -129 118 -209 82 -101 104 -119 167
-132 89 -19 507 -8 904 24 99 8 208 15 243 15 104 0 148 40 131 118 -16 78
-89 122 -271 163 -142 32 -144 33 -235 95 -41 28 -95 53 -151 70 -103 31 -133
46 -188 90 -22 19 -71 48 -109 65 -37 17 -91 52 -119 78 -28 26 -80 68 -116
93 -36 25 -76 58 -90 73 -14 15 -53 49 -87 76 -57 46 -146 138 -532 549 -80
85 -174 183 -209 217 -98 97 -96 88 -93 443 3 332 4 339 62 382 34 26 533 77
805 84 230 5 304 22 366 84 68 68 51 134 -58 221 -101 83 -134 98 -261 125
-144 31 -221 29 -434 -15 -159 -32 -184 -41 -247 -95 -98 -81 -195 -66 -217
33 -7 31 16 455 41 766 10 128 24 231 44 315 46 201 80 421 80 525 0 104 -18
144 -111 245 -77 83 -119 117 -294 233 -78 52 -281 92 -341 67z"/>
<path d="M1533 6835 c-57 -24 -67 -52 -59 -168 12 -183 -33 -406 -100 -500
-24 -34 -60 -95 -80 -135 -20 -40 -57 -91 -81 -115 -24 -23 -58 -64 -75 -92
-17 -27 -53 -72 -79 -100 -26 -27 -63 -75 -82 -105 -31 -48 -99 -118 -337
-350 -61 -60 -89 -125 -69 -162 25 -47 199 4 286 83 23 21 74 54 114 74 40 20
95 58 123 84 28 26 78 67 111 91 33 23 103 85 155 136 52 51 124 115 160 141
36 27 79 70 96 96 40 61 319 358 428 457 72 64 93 147 57 225 -27 61 -187 201
-305 269 -149 85 -200 99 -263 71z"/>
<path d="M3095 6580 c-49 -10 -76 -30 -90 -64 -18 -42 -17 -46 71 -266 115
-291 130 -429 120 -1116 -9 -648 17 -598 -351 -680 -145 -32 -243 -65 -312
-107 -90 -53 -103 -126 -29 -161 50 -24 262 -30 387 -12 205 29 252 -20 189
-199 -17 -49 -38 -121 -46 -159 -16 -76 -40 -136 -82 -205 -36 -58 -56 -115
-77 -211 -11 -54 -30 -100 -65 -160 -28 -47 -65 -129 -82 -184 -23 -71 -45
-116 -80 -163 -26 -36 -56 -90 -68 -121 -38 -104 -44 -116 -92 -179 -27 -35
-64 -97 -83 -139 -19 -41 -52 -95 -73 -120 -22 -24 -56 -76 -77 -114 -20 -39
-58 -97 -85 -129 -27 -32 -67 -90 -90 -127 -23 -38 -66 -94 -94 -124 -75 -78
-203 -255 -211 -291 -12 -55 44 -107 101 -93 13 3 45 27 70 52 25 26 74 64
109 87 84 53 398 387 491 521 26 38 69 92 95 120 26 28 61 78 78 111 16 34 48
82 71 108 47 54 60 78 94 169 14 36 38 85 54 109 42 61 66 111 97 206 26 79
60 131 85 131 21 0 59 -48 71 -91 33 -114 -15 -794 -81 -1154 -31 -170 -53
-328 -70 -515 -15 -159 -48 -388 -71 -492 -27 -124 -25 -226 7 -313 14 -38 39
-111 55 -161 33 -106 57 -139 113 -165 115 -52 189 -9 236 135 16 50 41 125
55 166 36 103 44 270 44 950 0 300 0 559 0 575 1 463 18 973 34 1002 50 93
122 69 196 -65 19 -34 65 -91 102 -127 63 -61 70 -65 114 -65 84 0 154 66 196
186 42 118 18 179 -107 280 -150 119 -154 121 -339 155 -48 9 -67 19 -96 48
-58 58 -62 84 -62 471 0 441 -13 410 187 460 62 16 137 40 169 53 31 14 95 38
144 52 142 44 192 118 128 193 -62 73 -248 95 -405 47 -207 -64 -228 -8 -190
510 14 177 30 279 70 430 67 253 85 506 42 601 -72 159 -425 373 -567 344z"/>
<path d="M1648 5643 c-44 -46 -50 -76 -52 -278 -3 -219 -10 -252 -80 -358 -25
-37 -52 -91 -62 -120 -26 -80 -51 -124 -109 -193 -30 -35 -61 -77 -70 -95 -9
-17 -43 -60 -75 -94 -32 -34 -70 -81 -84 -104 -15 -23 -45 -59 -66 -80 -22
-21 -59 -63 -83 -93 -23 -30 -95 -104 -159 -164 -64 -60 -127 -122 -139 -137
-12 -15 -47 -47 -78 -69 -68 -51 -80 -65 -81 -99 0 -48 31 -74 88 -73 51 0 62
6 171 81 34 23 97 56 142 74 49 21 102 52 137 82 31 27 78 59 104 73 46 24
123 87 277 230 42 39 91 79 109 88 17 9 56 46 86 84 30 37 95 108 146 157 51
50 116 119 145 155 29 36 114 127 189 203 179 179 226 240 226 291 0 34 -93
169 -148 214 -25 20 -71 60 -103 89 -68 61 -69 62 -210 119 -134 53 -183 57
-221 17z"/>
<path d="M1726 4255 c-54 -29 -95 -122 -121 -277 -18 -101 -43 -164 -97 -245
-20 -28 -48 -84 -63 -123 -16 -42 -48 -97 -77 -133 -28 -34 -65 -93 -84 -132
-19 -38 -56 -96 -84 -129 -28 -32 -58 -73 -67 -90 -9 -17 -46 -62 -82 -101
-37 -38 -86 -96 -109 -127 -23 -32 -50 -62 -60 -67 -10 -6 -46 -45 -79 -88
-34 -43 -87 -103 -118 -133 -31 -30 -72 -76 -90 -101 -19 -25 -65 -67 -103
-94 -40 -29 -84 -71 -106 -102 -26 -36 -53 -61 -86 -78 -78 -39 -99 -82 -55
-111 33 -22 80 -6 127 44 27 29 54 43 114 62 66 21 89 34 141 82 33 31 90 71
124 89 35 17 90 57 124 89 76 73 206 151 262 158 95 11 103 -27 95 -483 -4
-228 -16 -338 -51 -475 -16 -64 -37 -170 -46 -235 -32 -244 -45 -295 -101
-406 -43 -86 -61 -158 -75 -302 -18 -191 5 -296 89 -409 22 -29 52 -78 67
-108 15 -30 53 -94 84 -142 55 -86 57 -87 97 -87 42 -1 42 -1 127 171 139 279
134 234 141 1143 6 668 8 717 33 1030 23 300 17 331 -88 440 -65 68 -79 97
-79 161 0 43 3 47 131 176 72 73 155 162 184 198 29 36 64 76 79 89 14 14 55
63 91 111 37 48 119 134 189 197 118 107 156 156 156 202 0 64 -99 167 -232
243 -40 22 -93 55 -118 71 -54 38 -137 48 -184 22z"/>
</g>
</svg>
