<svg xmlns="http://www.w3.org/2000/svg" viewBox="0 0 770.744577 672.000000">
<g transform="translate(-13.171713,672.000000) scale(0.100000,-0.100000)" fill="#000000" stroke="none">
<path d="M4964 6653 c9 -100 22 -135 71 -201 56 -74 71 -115 96 -264 10 -64
37 -195 59 -291 52 -233 60 -331 69 -862 9 -475 7 -496 -36 -538 -63 -60 -309
-147 -524 -186 -63 -11 -144 -29 -180 -40 -35 -11 -106 -29 -157 -41 -145 -32
-202 -69 -202 -131 0 -64 28 -82 195 -124 145 -37 186 -36 322 8 62 20 119 37
126 37 7 0 51 18 98 41 93 45 134 51 172 26 63 -41 41 -168 -60 -336 -14 -24
-36 -86 -49 -139 -24 -93 -40 -127 -109 -224 -18 -26 -45 -84 -60 -128 -17
-50 -42 -100 -69 -134 -23 -30 -51 -74 -61 -98 -51 -121 -64 -147 -92 -178
-48 -57 -71 -93 -93 -151 -12 -30 -45 -85 -75 -124 -29 -38 -67 -99 -84 -133
-16 -35 -48 -83 -69 -106 -22 -23 -55 -67 -74 -97 -19 -30 -58 -78 -86 -107
-28 -29 -67 -77 -87 -106 -20 -30 -55 -69 -80 -88 -74 -56 -92 -106 -55 -146
44 -47 115 -40 188 18 28 21 82 60 122 85 40 26 112 81 159 122 203 177 283
250 306 284 14 19 48 57 77 85 28 27 67 73 86 103 19 30 52 73 73 96 21 23 56
80 78 127 21 47 56 104 76 127 21 22 58 80 84 128 44 85 47 88 81 88 52 0 72
-44 67 -150 -13 -274 -31 -480 -52 -615 -51 -326 -72 -499 -95 -785 -15 -184
-44 -343 -89 -487 -52 -166 -65 -270 -58 -439 9 -182 26 -237 118 -359 72 -96
119 -177 119 -205 0 -12 15 -15 80 -15 73 0 80 2 80 20 0 11 19 61 41 112 73
164 108 264 118 334 22 154 52 1426 50 2114 -1 391 3 437 41 478 56 59 115 4
169 -158 12 -36 32 -83 46 -105 35 -57 71 -132 91 -188 10 -27 43 -84 75 -128
34 -48 67 -107 79 -145 12 -35 37 -86 56 -112 65 -90 81 -117 107 -187 38 -98
182 -282 248 -315 109 -56 217 -60 574 -21 99 11 252 25 340 31 88 6 203 17
255 25 52 8 113 16 135 17 40 3 40 3 43 70 3 68 3 68 -30 68 -51 0 -118 22
-310 99 -97 39 -183 71 -190 71 -25 1 -103 41 -153 80 -29 23 -92 55 -144 74
-63 24 -109 48 -140 75 -25 23 -76 59 -113 81 -37 22 -93 64 -125 93 -32 29
-78 68 -103 87 -124 96 -858 869 -902 952 -28 50 -28 50 -28 272 0 510 8 516
816 535 376 9 397 12 434 73 49 80 18 186 -67 233 -26 15 -80 49 -119 75 -99
68 -159 83 -319 82 -164 -2 -257 -23 -353 -81 -101 -61 -228 -85 -296 -57 -57
24 -72 82 -53 198 9 51 18 131 22 178 10 152 102 905 127 1047 12 69 -6 172
-42 243 -36 70 -177 193 -273 239 -91 43 -121 73 -134 134 -5 27 -5 27 -196
27 -190 0 -190 0 -183 -67z"/>
<path d="M3130 6413 c-82 -30 -87 -138 -10 -226 55 -62 67 -95 90 -254 11 -76
32 -201 47 -278 29 -156 34 -324 22 -820 -6 -280 -9 -295 -77 -340 -51 -33
-332 -123 -459 -146 -167 -30 -216 -63 -197 -132 24 -83 222 -123 409 -81 151
33 202 27 230 -26 28 -54 19 -108 -35 -219 -54 -109 -86 -201 -119 -345 -15
-65 -35 -114 -70 -176 -36 -61 -59 -119 -81 -200 -23 -85 -43 -133 -75 -184
-46 -71 -63 -111 -90 -208 -9 -31 -28 -74 -42 -95 -15 -21 -39 -56 -53 -78
-15 -22 -41 -82 -58 -133 -17 -51 -47 -115 -66 -142 -20 -27 -56 -91 -82 -142
-25 -51 -70 -123 -99 -159 -29 -36 -67 -94 -85 -129 -17 -35 -53 -91 -80 -125
-47 -63 -66 -116 -54 -151 18 -50 60 -67 106 -43 28 15 211 199 279 280 136
161 191 232 234 298 25 40 63 91 84 114 21 23 57 79 80 125 23 45 61 110 85
142 25 33 54 90 66 127 13 38 31 83 42 101 25 42 166 148 179 135 18 -18 12
-329 -9 -493 -11 -85 -26 -243 -32 -350 -19 -312 -45 -530 -84 -690 -102 -418
-124 -838 -52 -997 64 -139 165 -234 235 -218 94 21 189 185 205 356 3 35 11
375 16 754 6 380 15 843 22 1030 6 187 11 410 10 495 -1 169 7 207 45 216 39
10 178 -102 245 -198 114 -162 303 -125 337 65 28 157 -29 295 -139 337 -19 7
-75 34 -125 61 -49 26 -119 55 -155 65 -171 46 -204 84 -196 224 3 52 11 190
16 305 19 388 51 435 315 469 233 30 428 187 336 270 -59 53 -235 81 -333 52
-212 -61 -292 10 -263 234 8 58 19 186 25 285 15 242 33 361 74 496 47 159 61
254 43 307 -27 79 -127 223 -175 251 -49 30 -110 71 -171 118 -63 47 -252 88
-311 66z"/>
<path d="M1813 6345 c-36 -36 -36 -36 -30 -138 8 -155 -26 -548 -55 -637 -6
-19 -31 -72 -55 -116 -27 -50 -53 -120 -68 -180 -36 -141 -44 -163 -82 -222
-40 -63 -56 -103 -78 -191 -19 -73 -46 -132 -82 -175 -26 -31 -73 -118 -73
-135 0 -30 -47 -128 -83 -173 -22 -29 -61 -97 -84 -152 -24 -55 -61 -123 -82
-150 -22 -28 -56 -86 -76 -128 -20 -42 -57 -100 -82 -130 -25 -29 -60 -84 -78
-123 -18 -38 -51 -92 -74 -120 -23 -27 -62 -87 -88 -132 -25 -45 -64 -104 -86
-130 -21 -26 -54 -77 -72 -113 -18 -36 -54 -89 -80 -119 -25 -29 -60 -74 -77
-100 -18 -25 -54 -75 -80 -110 -60 -78 -120 -195 -116 -224 5 -32 50 -44 98
-27 73 27 360 314 540 541 127 159 249 306 275 329 15 14 43 48 63 75 20 28
58 74 85 104 26 30 60 77 74 105 68 137 213 204 264 124 25 -39 22 -343 -6
-653 -8 -93 -21 -278 -30 -410 -8 -132 -21 -310 -29 -395 -8 -85 -20 -225 -26
-310 -11 -157 -39 -366 -64 -475 -66 -292 -81 -403 -106 -770 -17 -240 5 -392
71 -497 64 -101 158 -298 165 -345 6 -43 6 -43 120 -43 63 0 114 1 114 3 2 64
28 191 59 289 56 176 75 366 87 848 3 129 9 265 14 301 7 46 6 89 -3 145 -10
62 -11 290 -7 1044 6 953 6 967 29 1105 37 220 11 318 -112 427 -115 102 -144
201 -88 302 15 28 38 78 51 111 13 33 45 90 71 126 27 36 62 102 79 147 17 45
53 111 80 147 31 42 60 99 81 156 20 57 50 115 80 155 28 38 57 93 70 132 29
90 40 110 94 173 67 78 135 219 135 278 0 129 -117 279 -309 395 -184 112
-272 127 -338 61z"/>
</g>
</svg>
