<svg xmlns="http://www.w3.org/2000/svg" viewBox="0 0 768.000279 692.967582">
<g transform="translate(0.000279,692.967582) scale(0.100000,-0.100000)" fill="#000000" stroke="none">
<path d="M4685 6897 c-65 -65 -57 -145 24 -239 60 -70 65 -86 91 -260 11 -75
29 -178 41 -230 71 -317 97 -574 108 -1062 9 -406 4 -454 -56 -508 -56 -51
-221 -76 -578 -87 -278 -9 -319 -22 -319 -107 0 -48 25 -69 140 -115 207 -85
307 -109 449 -109 135 0 185 -32 185 -120 0 -38 -7 -56 -32 -90 -18 -24 -43
-56 -55 -73 -12 -16 -32 -68 -44 -114 -17 -65 -35 -102 -76 -161 -38 -55 -62
-104 -84 -172 -21 -66 -43 -113 -73 -153 -24 -32 -52 -77 -61 -100 -53 -124
-67 -151 -104 -195 -22 -26 -58 -86 -79 -134 -22 -47 -61 -112 -86 -143 -26
-31 -59 -85 -75 -120 -16 -35 -47 -83 -69 -107 -22 -23 -56 -70 -75 -103 -20
-33 -64 -94 -99 -136 -35 -42 -83 -104 -108 -139 -25 -35 -125 -144 -222 -243
-98 -99 -178 -188 -178 -197 0 -91 102 -100 210 -18 30 22 88 61 129 85 42 25
106 73 142 106 37 34 131 121 208 192 78 72 179 175 225 230 46 55 94 109 106
120 12 11 39 45 60 75 21 30 55 71 75 90 20 19 52 64 70 100 18 36 53 91 78
122 24 31 62 92 85 135 24 46 62 98 92 128 29 28 65 76 81 107 80 158 161 43
115 -164 -8 -35 -17 -117 -21 -183 -4 -66 -15 -181 -26 -255 -40 -269 -58
-418 -69 -565 -24 -327 -42 -449 -86 -588 -57 -182 -106 -524 -106 -737 -1
-191 39 -327 124 -425 58 -68 85 -122 94 -189 7 -46 7 -46 140 -46 122 0 134
2 134 18 0 48 34 141 69 187 107 142 104 82 94 1755 -8 1324 -8 1371 22 1434
51 107 118 66 161 -98 16 -58 42 -122 74 -176 26 -47 56 -114 65 -150 23 -90
37 -121 83 -182 43 -57 61 -97 88 -197 11 -39 37 -93 71 -143 33 -50 62 -111
78 -160 28 -90 40 -114 95 -199 21 -33 51 -96 65 -140 15 -44 43 -103 63 -132
19 -29 52 -77 73 -109 74 -109 112 -123 398 -143 182 -13 225 -13 395 1 105 9
281 17 391 18 243 3 285 19 285 107 0 48 -202 175 -367 232 -31 10 -76 38
-109 67 -31 27 -86 66 -122 86 -36 19 -90 57 -120 84 -30 27 -80 62 -113 80
-32 17 -82 52 -111 79 -29 26 -73 60 -98 76 -69 42 -496 480 -571 585 -18 25
-53 68 -78 96 -26 28 -62 79 -80 115 -19 35 -54 86 -78 113 -23 26 -57 75 -74
107 -18 33 -53 83 -79 113 -26 29 -65 87 -88 128 -22 41 -57 94 -78 119 -20
24 -51 76 -69 114 -17 39 -49 90 -70 115 -51 60 -68 103 -60 151 18 105 92
135 431 174 72 9 180 29 240 46 228 63 332 89 426 105 138 23 207 80 208 172
0 92 -41 126 -232 193 -189 65 -246 67 -386 10 -54 -21 -131 -46 -172 -56 -41
-10 -125 -39 -186 -66 -265 -117 -359 -77 -334 141 6 47 17 150 26 230 8 80
30 264 49 410 18 146 43 337 53 425 16 130 27 178 56 254 93 240 -8 402 -399
640 -27 17 -75 35 -105 41 -30 6 -87 22 -127 35 -100 35 -137 33 -178 -8z"/>
<path d="M2415 6699 c-85 -20 -106 -78 -61 -167 54 -108 175 -432 190 -508 42
-226 111 -1364 90 -1484 -18 -99 -81 -168 -172 -189 -77 -17 -308 -32 -613
-40 -245 -5 -289 -9 -311 -23 -60 -40 -45 -81 60 -158 146 -108 199 -120 587
-125 143 -2 270 -4 283 -5 43 0 82 -52 82 -107 0 -51 -12 -76 -73 -156 -27
-35 -40 -68 -57 -139 -33 -147 -49 -188 -101 -269 -28 -42 -62 -112 -78 -155
-33 -95 -42 -111 -92 -177 -22 -30 -50 -85 -64 -128 -24 -70 -46 -111 -109
-197 -14 -18 -37 -64 -51 -103 -17 -44 -48 -95 -82 -137 -30 -37 -66 -88 -79
-113 -13 -26 -48 -75 -78 -110 -31 -35 -69 -89 -86 -121 -19 -35 -63 -89 -110
-134 -179 -173 -212 -369 -44 -263 27 18 72 40 101 50 71 24 87 34 147 88 29
26 75 63 102 81 97 66 398 389 440 471 14 29 50 87 78 129 28 41 62 103 75
136 30 83 66 116 117 112 76 -6 87 -73 60 -362 -8 -83 -20 -207 -26 -276 -6
-69 -21 -174 -34 -235 -13 -60 -37 -175 -54 -255 -34 -160 -71 -475 -79 -672
-11 -273 56 -475 216 -651 54 -60 121 -72 198 -38 65 30 83 64 191 366 30 84
28 -3 24 1369 -4 966 -3 989 16 1015 45 60 133 50 180 -21 36 -56 220 -246
255 -264 40 -21 118 -28 159 -15 48 16 67 40 129 160 83 161 75 205 -60 344
-88 91 -114 106 -240 142 -51 14 -127 43 -170 64 -42 21 -100 46 -129 56 -125
40 -145 85 -136 313 11 299 41 340 265 361 218 21 305 51 419 144 110 90 108
131 -15 219 -99 71 -172 97 -292 105 -91 6 -91 6 -158 -31 -88 -48 -130 -47
-160 4 -51 89 -11 678 71 1023 109 463 108 608 -6 717 -160 153 -217 196 -307
230 -48 18 -116 51 -151 73 -94 60 -169 76 -257 56z"/>
<path d="M715 5928 c-33 -18 -45 -40 -45 -81 0 -38 8 -48 138 -182 505 -521
528 -542 639 -566 100 -23 237 43 282 135 34 67 43 243 16 312 -36 95 -151
201 -253 235 -37 12 -99 39 -138 60 -94 51 -159 67 -354 84 -195 17 -258 18
-285 3z"/>
<path d="M85 4354 c-87 -9 -85 -8 -85 -78 0 -61 1 -64 27 -71 52 -13 91 -45
134 -113 24 -37 59 -87 79 -112 20 -25 54 -72 75 -104 35 -56 155 -195 251
-292 69 -69 152 -79 240 -29 45 26 129 122 150 171 53 125 5 344 -88 400 -102
61 -236 136 -268 150 -104 47 -392 91 -515 78z"/>
<path d="M1353 3300 c-40 -24 -55 -46 -92 -144 -17 -43 -48 -106 -70 -140 -23
-34 -56 -102 -75 -150 -19 -48 -53 -116 -75 -150 -23 -34 -56 -102 -75 -150
-19 -48 -53 -112 -76 -142 -23 -31 -53 -81 -66 -112 -54 -123 -66 -146 -103
-191 -22 -25 -51 -71 -66 -101 -37 -74 -172 -211 -259 -263 -159 -94 -210
-239 -141 -396 19 -43 44 -119 56 -168 26 -112 38 -140 87 -205 22 -29 58 -89
81 -133 82 -160 210 -272 301 -263 121 12 154 75 180 346 22 225 40 337 76
472 50 181 64 252 79 388 14 133 55 311 95 412 24 60 44 146 64 273 9 52 32
140 52 194 82 222 106 297 135 423 18 81 28 143 24 161 -13 57 -74 75 -132 39z"/>
</g>
</svg>
