<svg xmlns="http://www.w3.org/2000/svg" viewBox="0 0 958.500000 865.928192">
<g transform="translate(-0.000000,865.928192) scale(0.100000,-0.100000)" fill="#000000" stroke="none">
<path d="M5883 8640 c-99 -60 -98 -184 2 -316 74 -96 80 -115 115 -330 17
-103 42 -236 55 -297 83 -366 123 -785 132 -1377 10 -648 27 -629 -632 -675
-115 -8 -259 -15 -318 -15 -184 0 -275 -68 -223 -168 46 -88 391 -210 658
-232 210 -17 247 -30 274 -95 28 -67 14 -123 -50 -207 -45 -59 -79 -127 -96
-193 -19 -72 -53 -145 -98 -212 -51 -76 -74 -123 -102 -208 -29 -89 -58 -147
-114 -227 -24 -34 -61 -103 -81 -152 -38 -93 -49 -111 -126 -217 -26 -35 -61
-98 -79 -140 -17 -41 -58 -111 -91 -155 -34 -43 -78 -113 -99 -156 -22 -42
-61 -102 -88 -135 -27 -32 -74 -97 -104 -143 -30 -47 -74 -107 -98 -135 -24
-27 -80 -99 -125 -160 -88 -119 -290 -342 -422 -468 -89 -86 -104 -116 -79
-165 37 -72 109 -61 265 42 53 35 122 78 155 97 32 19 91 63 130 99 39 36 96
86 126 110 85 69 328 307 394 385 33 38 91 106 131 150 39 44 90 105 112 135
22 30 65 82 95 116 30 33 74 96 98 140 24 43 67 110 96 149 28 38 73 108 98
154 28 50 75 114 116 157 38 40 81 93 96 116 105 170 182 88 150 -161 -9 -64
-20 -186 -26 -271 -6 -85 -28 -281 -50 -435 -22 -154 -49 -379 -60 -500 -11
-121 -25 -272 -31 -335 -17 -185 -36 -293 -89 -490 -179 -671 -170 -1173 26
-1423 69 -88 111 -172 120 -243 6 -54 6 -54 175 -54 169 0 169 0 169 28 0 65
32 149 95 245 101 154 122 318 111 847 -15 689 -8 3012 8 3066 51 167 154 134
216 -68 18 -57 58 -152 90 -213 32 -60 70 -150 85 -200 31 -102 54 -151 100
-215 45 -63 69 -113 101 -211 29 -92 62 -163 104 -224 40 -58 74 -130 100
-210 27 -83 46 -123 111 -230 27 -44 62 -117 78 -162 41 -110 61 -150 144
-271 132 -193 164 -205 602 -233 181 -11 215 -10 553 17 101 8 268 14 370 14
261 0 327 25 327 124 0 76 -169 194 -401 282 -96 36 -132 57 -199 114 -33 28
-89 68 -124 87 -36 20 -103 68 -150 106 -47 38 -116 87 -153 109 -36 22 -92
62 -123 89 -31 27 -89 72 -129 98 -113 76 -618 592 -717 731 -18 25 -56 73
-86 107 -30 34 -79 104 -110 155 -30 51 -77 119 -104 151 -26 31 -69 94 -96
138 -26 44 -71 108 -100 143 -29 35 -75 103 -103 150 -27 48 -70 113 -94 144
-24 31 -60 91 -81 132 -21 41 -59 107 -86 145 -171 248 -91 346 331 404 273
38 331 50 548 110 117 33 270 69 340 82 243 42 322 101 322 242 0 103 -69 156
-304 233 -219 72 -294 73 -466 7 -58 -23 -152 -53 -210 -68 -58 -15 -145 -46
-195 -67 -315 -139 -455 -114 -455 79 0 135 36 466 129 1193 51 392 56 418
110 573 95 272 -32 463 -510 763 -29 19 -87 41 -142 55 -51 12 -120 33 -155
46 -77 28 -146 30 -189 3z"/>
<path d="M3012 8367 c-97 -31 -114 -99 -56 -230 71 -161 174 -425 198 -508 57
-199 116 -867 136 -1551 20 -665 38 -652 -971 -692 -278 -11 -340 -16 -367
-30 -96 -50 -51 -134 135 -253 117 -76 225 -91 668 -99 171 -3 324 -9 342 -15
105 -33 113 -154 22 -291 -66 -97 -69 -105 -109 -263 -33 -130 -65 -206 -128
-304 -23 -35 -55 -100 -72 -145 -46 -123 -57 -145 -115 -231 -32 -46 -71 -125
-95 -187 -27 -70 -58 -130 -92 -175 -47 -63 -75 -115 -125 -233 -11 -25 -47
-79 -80 -120 -33 -41 -78 -107 -101 -145 -22 -39 -67 -103 -100 -142 -34 -40
-80 -104 -103 -144 -25 -44 -77 -107 -133 -163 -154 -154 -228 -346 -134 -346
11 0 55 15 97 33 42 19 107 47 146 62 38 16 92 48 120 72 27 24 84 69 125 100
98 75 314 281 364 347 21 28 68 83 105 121 36 39 81 99 100 135 19 36 60 103
92 150 31 47 78 128 103 179 66 130 109 162 181 135 46 -18 69 -136 55 -284
-6 -58 -19 -209 -30 -337 -23 -274 -38 -377 -90 -613 -123 -558 -166 -1078
-110 -1343 48 -228 231 -511 345 -533 162 -30 223 28 331 316 89 238 87 219
84 790 -8 1367 -1 2283 16 2322 46 102 158 85 256 -38 316 -396 499 -427 654
-111 97 198 88 251 -73 418 -117 120 -152 142 -298 184 -49 15 -126 42 -170
62 -44 20 -122 53 -174 74 -205 84 -223 126 -202 469 17 305 56 353 313 385
329 42 430 80 571 215 81 79 81 120 4 195 -170 165 -433 226 -613 143 -207
-96 -250 -17 -225 408 26 435 51 632 121 924 151 638 139 715 -158 975 -115
100 -114 100 -266 167 -60 26 -139 65 -175 87 -111 66 -229 87 -319 58z"/>
<path d="M933 7419 c-72 -21 -107 -117 -65 -181 45 -68 685 -717 777 -788 186
-143 460 -74 532 133 28 80 26 305 -3 367 -54 114 -180 228 -306 275 -40 15
-125 51 -188 81 -131 61 -200 79 -361 94 -63 6 -155 15 -206 20 -107 12 -137
11 -180 -1z"/>
<path d="M105 5435 c-55 -7 -101 -14 -102 -14 -2 -1 -3 -35 -3 -76 0 -74 0
-74 38 -84 53 -15 105 -62 164 -150 28 -42 72 -103 97 -136 25 -32 75 -101
111 -152 86 -122 293 -348 350 -381 194 -115 455 99 455 373 0 221 -47 298
-255 415 -188 107 -237 128 -361 159 -241 61 -319 68 -494 46z"/>
<path d="M1704 4121 c-51 -23 -74 -55 -129 -182 -24 -55 -65 -134 -90 -176
-25 -41 -64 -118 -86 -172 -22 -53 -65 -137 -95 -187 -30 -49 -74 -138 -97
-196 -24 -58 -65 -136 -92 -174 -26 -38 -76 -127 -110 -199 -34 -71 -77 -148
-95 -170 -17 -22 -57 -83 -88 -135 -66 -113 -200 -249 -328 -334 -177 -118
-251 -287 -194 -441 33 -88 86 -248 114 -346 19 -61 41 -109 79 -165 30 -43
69 -108 87 -144 100 -200 269 -360 379 -360 155 0 210 99 241 432 29 310 45
397 138 763 27 106 46 210 56 310 18 169 44 286 110 493 26 79 58 203 71 275
40 206 51 248 122 436 191 514 194 757 7 672z"/>
</g>
</svg>
