<svg xmlns="http://www.w3.org/2000/svg" viewBox="0 0 482.068107 420.000000">
<g transform="translate(-7.932236,420.000000) scale(0.100000,-0.100000)" fill="#000000" stroke="none">
<path d="M3103 4144 c4 -43 15 -70 45 -115 29 -43 43 -77 52 -126 6 -38 25
-129 41 -203 37 -169 48 -320 49 -621 0 -220 -1 -238 -20 -261 -35 -45 -148
-83 -459 -155 -166 -38 -204 -55 -214 -94 -10 -38 29 -63 135 -87 l97 -22 77
25 c42 14 82 25 89 25 7 0 40 14 74 32 51 26 66 30 89 22 25 -9 27 -13 27 -70
0 -51 -5 -69 -33 -114 -18 -29 -40 -84 -49 -122 -10 -46 -26 -83 -50 -113 -19
-25 -43 -70 -53 -101 -11 -30 -33 -72 -49 -93 -16 -20 -38 -60 -49 -89 -11
-28 -32 -66 -47 -84 -15 -18 -40 -59 -56 -92 -16 -33 -40 -72 -54 -86 -13 -14
-32 -45 -43 -70 -11 -25 -27 -52 -37 -60 -10 -8 -29 -33 -43 -55 -30 -48 -98
-128 -169 -200 -57 -58 -63 -73 -35 -98 27 -24 76 -21 109 7 15 13 54 40 85
60 31 19 60 41 63 46 4 6 30 29 58 52 99 77 241 221 275 279 12 19 31 44 43
55 12 10 32 43 45 72 13 29 38 70 56 92 18 21 39 55 47 77 17 49 29 63 53 63
13 0 24 -13 35 -37 13 -32 14 -49 4 -113 -6 -41 -11 -107 -11 -145 0 -39 -11
-138 -24 -220 -26 -161 -39 -268 -57 -465 -12 -143 -28 -229 -60 -315 -17 -47
-23 -90 -27 -199 -5 -166 2 -196 68 -286 26 -36 56 -82 66 -103 17 -36 20 -38
62 -35 l43 3 35 85 c74 176 72 164 83 455 6 149 13 511 16 805 6 568 7 580 54
580 28 0 49 -30 76 -110 14 -40 32 -81 40 -90 8 -9 26 -45 39 -79 14 -34 38
-79 55 -99 16 -21 38 -61 49 -90 11 -28 35 -73 55 -99 19 -26 40 -65 47 -86
13 -40 107 -171 139 -193 11 -8 47 -21 81 -30 57 -14 76 -14 278 5 119 12 267
26 327 31 178 17 175 16 175 60 0 38 -1 39 -49 49 -27 6 -84 24 -127 42 -44
17 -109 42 -145 54 -36 13 -86 38 -111 57 -25 19 -67 40 -92 47 -26 6 -63 26
-84 44 -20 18 -57 46 -82 61 -65 42 -128 97 -248 216 -139 139 -434 456 -449
483 -16 28 -17 316 -2 372 26 94 78 113 354 125 110 5 242 11 292 12 81 3 95
6 115 26 17 17 23 34 23 68 0 52 -15 68 -124 137 -80 50 -157 64 -276 49 -66
-9 -100 -19 -149 -47 -44 -24 -81 -37 -123 -41 -54 -6 -63 -4 -83 16 -19 19
-22 29 -16 74 3 28 10 97 16 154 6 57 24 215 41 350 44 355 44 362 25 419 -21
64 -94 137 -184 183 -54 28 -69 41 -77 68 l-9 32 -119 0 -120 0 6 -56z"/>
<path d="M1931 3997 c-6 -8 -13 -27 -17 -43 -5 -29 -3 -33 61 -121 9 -12 23
-67 31 -125 7 -56 20 -137 28 -178 16 -84 21 -206 18 -482 l-2 -188 -27 -30
c-32 -36 -189 -92 -308 -112 -95 -15 -125 -31 -125 -67 0 -49 31 -66 129 -70
47 -2 117 3 155 10 59 11 72 11 95 -2 42 -24 40 -71 -9 -174 -22 -47 -48 -121
-56 -163 -10 -46 -30 -103 -51 -141 -20 -35 -44 -95 -53 -133 -10 -37 -32 -89
-49 -115 -17 -26 -40 -76 -51 -112 -11 -37 -34 -84 -50 -106 -17 -22 -38 -64
-47 -95 -9 -30 -28 -73 -43 -95 -15 -22 -40 -65 -55 -95 -15 -30 -42 -73 -60
-95 -18 -22 -41 -58 -53 -80 -11 -22 -34 -57 -51 -79 -47 -59 -40 -126 14
-126 31 0 249 232 324 344 8 11 33 46 56 76 23 30 52 75 64 99 13 24 36 61 51
83 16 22 36 63 46 91 12 39 31 66 76 110 33 31 63 55 67 52 11 -6 3 -184 -14
-330 -8 -66 -17 -172 -20 -235 -9 -178 -24 -296 -50 -405 -37 -154 -44 -200
-53 -330 -10 -132 -1 -269 18 -305 28 -53 81 -117 105 -128 62 -28 142 56 164
173 8 43 34 1120 36 1473 0 98 3 125 15 132 8 5 18 10 22 10 14 0 130 -108
148 -138 34 -56 111 -79 158 -46 34 23 52 67 52 126 0 102 -30 157 -99 179
-20 7 -52 22 -71 35 -19 12 -67 32 -106 43 -41 12 -80 31 -92 44 l-23 24 14
220 c15 246 23 274 87 305 19 9 71 22 114 28 116 15 232 89 224 142 -7 53
-109 72 -280 53 -64 -7 -68 -6 -94 20 -25 25 -26 31 -20 83 3 32 13 140 21
242 8 102 22 212 31 245 9 33 23 82 30 110 25 89 19 132 -29 205 -23 35 -57
74 -75 85 -18 11 -54 37 -79 57 -49 39 -110 58 -187 58 -24 0 -49 -6 -55 -13z"/>
<path d="M1129 3969 c-17 -17 -20 -30 -17 -77 5 -69 -8 -284 -23 -367 -6 -33
-24 -83 -40 -111 -16 -28 -37 -85 -47 -125 -11 -41 -35 -105 -55 -144 -20 -38
-44 -95 -52 -126 -8 -31 -28 -72 -44 -93 -16 -20 -39 -64 -50 -97 -11 -33 -33
-77 -50 -97 -16 -21 -38 -61 -49 -90 -11 -28 -35 -73 -54 -99 -19 -26 -42 -67
-52 -90 -10 -23 -30 -52 -43 -65 -14 -13 -36 -47 -49 -77 -13 -29 -37 -69 -54
-87 -16 -19 -40 -54 -51 -77 -12 -23 -33 -55 -46 -71 -13 -16 -33 -47 -45 -70
-12 -22 -36 -59 -54 -81 -66 -79 -132 -172 -157 -222 -29 -57 -23 -73 28 -73
26 0 51 21 171 142 77 79 159 168 182 198 52 68 114 144 155 189 81 90 151
179 162 206 32 74 139 124 164 77 13 -24 13 -150 0 -317 -5 -71 -16 -224 -24
-340 -36 -518 -48 -633 -90 -815 -26 -117 -40 -233 -51 -421 -8 -156 6 -249
47 -314 38 -60 83 -150 98 -197 l13 -38 69 0 c69 0 69 0 69 28 0 26 9 63 49
208 34 125 43 365 42 1189 -1 640 1 787 14 869 27 179 18 225 -59 300 -28 28
-60 70 -70 93 l-19 43 37 82 c21 46 53 106 72 133 18 28 40 70 49 94 8 24 30
64 49 90 18 25 41 69 50 98 10 28 30 68 46 88 16 20 38 65 50 99 11 35 32 74
46 87 32 29 94 150 94 181 -1 30 -34 103 -67 146 -25 33 -121 100 -202 141
-53 28 -114 28 -142 0z"/>
</g>
</svg>
