<svg xmlns="http://www.w3.org/2000/svg" viewBox="0 0 479.926539 433.067762">
<g transform="translate(0.000000,432.987817) scale(0.100000,-0.100000)" fill="#000000" stroke="none">
<path d="M2921 4304 c-32 -41 -27 -87 13 -131 45 -51 52 -68 60 -138 4 -33 20
-125 36 -205 43 -216 50 -288 60 -594 9 -311 6 -336 -47 -372 -37 -25 -196
-44 -366 -44 -118 0 -171 -14 -182 -50 -11 -36 18 -65 97 -94 117 -44 168 -56
258 -63 92 -6 126 -20 136 -57 6 -27 -14 -72 -45 -100 -12 -11 -31 -51 -42
-90 -12 -39 -35 -88 -51 -109 -17 -21 -39 -66 -49 -101 -11 -35 -33 -81 -49
-101 -17 -21 -38 -60 -48 -87 -9 -27 -33 -69 -52 -92 -20 -24 -42 -62 -50 -85
-7 -23 -28 -59 -47 -80 -18 -22 -40 -56 -48 -75 -8 -19 -28 -50 -43 -68 -16
-18 -41 -54 -56 -79 -14 -25 -36 -55 -47 -65 -12 -10 -38 -44 -59 -74 -21 -30
-90 -108 -154 -172 -64 -65 -116 -126 -116 -136 0 -47 58 -56 111 -17 19 13
61 40 94 61 60 36 104 74 245 210 108 104 320 349 320 370 0 7 16 33 35 58 19
25 45 67 59 93 13 26 38 62 56 78 18 17 43 51 56 78 52 101 108 23 74 -103 -5
-19 -14 -89 -19 -155 -6 -66 -17 -163 -25 -215 -9 -52 -23 -178 -31 -280 -18
-212 -24 -253 -58 -370 -27 -94 -42 -182 -56 -340 -15 -164 7 -281 66 -352 37
-45 58 -84 68 -131 l6 -28 82 3 81 3 8 44 c4 26 20 61 39 83 17 21 36 53 42
71 9 24 12 279 12 967 0 879 1 938 18 963 37 57 74 27 101 -83 9 -35 29 -85
45 -110 16 -25 34 -67 40 -95 7 -27 28 -71 46 -97 19 -26 41 -73 50 -105 9
-32 32 -81 52 -110 19 -28 42 -78 52 -110 10 -33 34 -82 53 -110 19 -28 40
-71 46 -95 7 -23 20 -55 29 -69 10 -14 33 -50 52 -79 22 -33 46 -57 67 -66 53
-22 311 -37 439 -24 61 5 170 10 242 10 120 0 135 2 153 20 25 25 26 62 3 82
-28 23 -164 94 -208 108 -22 7 -56 27 -75 45 -19 18 -51 41 -70 50 -19 10 -52
33 -72 51 -20 18 -54 42 -75 53 -21 10 -47 29 -58 41 -11 12 -42 37 -70 55
-52 33 -332 318 -364 371 -10 16 -28 38 -41 49 -12 11 -39 50 -60 86 -22 36
-46 72 -55 79 -9 8 -25 31 -36 52 -11 22 -35 56 -53 76 -18 20 -43 56 -54 78
-12 23 -33 55 -47 72 -14 17 -32 47 -41 68 -9 21 -31 58 -50 82 -48 64 -46
120 6 147 37 19 96 32 210 45 52 6 158 28 235 50 77 21 163 41 190 45 105 14
154 60 141 130 -9 46 -28 59 -141 99 -119 43 -156 44 -235 11 -33 -14 -83 -30
-112 -36 -29 -7 -80 -24 -113 -40 -123 -57 -194 -59 -215 -4 -10 26 -7 57 35
395 14 107 32 255 40 328 11 92 23 152 40 192 41 97 31 146 -50 244 -51 63
-216 172 -274 181 -24 4 -59 14 -77 21 -52 22 -90 18 -113 -12z"/>
<path d="M1470 4170 c-25 -25 -25 -43 0 -89 33 -61 107 -255 119 -312 17 -82
40 -394 51 -678 15 -376 18 -371 -305 -390 -105 -6 -231 -11 -281 -11 -77 0
-94 -3 -108 -19 -24 -26 -11 -47 58 -95 89 -61 117 -67 346 -73 113 -3 213 -9
222 -14 40 -21 31 -83 -23 -150 -11 -14 -31 -67 -44 -119 -15 -57 -35 -108
-53 -134 -16 -23 -39 -68 -51 -101 -12 -33 -35 -79 -52 -102 -16 -24 -39 -68
-49 -99 -11 -31 -33 -71 -49 -89 -16 -18 -36 -55 -45 -82 -9 -27 -34 -71 -57
-98 -22 -27 -48 -63 -56 -80 -8 -16 -28 -43 -43 -60 -14 -16 -39 -51 -53 -77
-15 -25 -45 -60 -66 -78 -22 -17 -54 -55 -71 -85 -50 -87 -26 -133 42 -82 18
14 51 30 72 37 22 7 58 29 80 50 23 20 57 47 76 61 61 42 246 242 273 294 8
17 31 54 50 82 19 29 38 65 42 81 13 62 81 96 105 53 24 -45 -6 -419 -49 -607
-16 -71 -34 -163 -40 -204 -50 -376 -38 -504 64 -649 62 -88 91 -106 148 -90
46 13 63 34 98 125 63 163 59 105 56 872 -2 487 0 710 8 725 7 15 21 23 47 25
30 3 39 -2 59 -29 13 -17 57 -64 96 -104 82 -82 126 -100 181 -71 40 21 102
139 102 196 0 38 -6 48 -66 110 -59 62 -72 70 -132 86 -37 9 -86 27 -109 39
-23 13 -65 31 -92 40 -82 27 -91 46 -90 189 0 197 18 221 169 236 132 14 186
32 253 85 77 61 76 83 -8 141 -68 48 -120 66 -198 68 -44 1 -61 -4 -96 -28
-48 -34 -66 -30 -90 20 -27 54 18 586 54 643 3 6 16 73 29 150 34 202 26 232
-98 342 -60 52 -93 73 -142 89 -35 12 -66 26 -70 31 -3 5 -23 18 -44 29 -54
27 -143 27 -170 0z"/>
<path d="M453 3710 c-22 -9 -43 -39 -43 -60 0 -22 395 -421 440 -445 54 -28
95 -29 155 -1 46 21 59 33 75 68 27 60 27 171 0 215 -32 53 -95 110 -136 123
-22 7 -70 27 -109 46 -59 28 -88 35 -185 44 -63 6 -128 12 -145 15 -16 2 -40
0 -52 -5z"/>
<path d="M57 2722 l-57 -3 0 -43 c0 -39 3 -43 37 -59 27 -12 52 -37 83 -84 93
-137 111 -160 188 -243 l80 -85 50 0 c47 0 55 4 98 45 73 71 88 126 63 239
-14 64 -36 85 -161 149 -78 40 -124 56 -188 68 -111 19 -124 20 -193 16z"/>
<path d="M837 2060 c-14 -11 -33 -42 -42 -69 -8 -26 -29 -70 -46 -96 -17 -26
-39 -72 -50 -101 -11 -29 -32 -70 -46 -91 -14 -21 -38 -68 -53 -105 -15 -37
-38 -80 -52 -96 -13 -16 -32 -51 -42 -78 -10 -27 -35 -71 -55 -99 -21 -27 -43
-62 -51 -78 -16 -32 -122 -133 -171 -162 -45 -27 -92 -104 -92 -153 0 -20 10
-56 21 -79 12 -22 28 -73 37 -111 9 -39 27 -86 40 -104 13 -18 40 -63 60 -100
20 -37 61 -90 90 -117 45 -43 60 -51 92 -51 83 0 109 45 123 212 13 154 24
221 56 329 13 47 31 137 39 200 8 63 26 152 40 199 15 47 39 141 54 210 15 69
44 169 64 222 37 97 77 249 77 291 0 48 -48 62 -93 27z"/>
</g>
</svg>
