<svg xmlns="http://www.w3.org/2000/svg" viewBox="0 0 717.905032 690.940126">
<g transform="translate(-16.929694,704.000000) scale(0.100000,-0.100000)" fill="#000000" stroke="none">
<path d="M2615 7028 c-2 -7 -20 -61 -40 -120 -35 -106 -36 -109 -29 -220 7
-139 -15 -253 -76 -391 -25 -56 -52 -143 -70 -224 -29 -131 -44 -172 -100
-259 -16 -26 -43 -90 -59 -143 -21 -67 -43 -113 -71 -151 -49 -65 -71 -107
-94 -178 -10 -29 -37 -78 -61 -110 -23 -31 -58 -88 -78 -127 -19 -38 -53 -90
-75 -115 -251 -285 -316 -427 -208 -454 35 -9 63 5 156 73 78 58 126 101 434
386 203 187 233 203 352 183 114 -19 485 3 774 46 129 19 309 40 400 46 486
32 610 43 871 75 156 20 356 38 444 41 255 8 350 35 402 113 59 87 -16 228
-146 277 -25 9 -75 32 -111 50 -166 85 -499 86 -767 3 -99 -30 -218 -55 -394
-83 -53 -9 -134 -30 -180 -47 -46 -17 -113 -42 -148 -55 -35 -14 -126 -35
-203 -49 -76 -13 -192 -40 -258 -60 -173 -52 -381 -95 -456 -95 -81 0 -124 33
-124 95 0 47 12 68 77 137 51 55 79 104 117 211 10 26 37 73 60 105 23 31 59
89 79 127 23 43 60 93 96 128 196 189 95 489 -216 643 -93 45 -125 75 -138
127 -7 26 -9 27 -81 27 -51 0 -76 -4 -79 -12z"/>
<path d="M5163 5009 c-139 -53 -170 -127 -104 -250 52 -100 61 -156 61 -409 0
-324 -1 -326 -239 -385 -76 -19 -163 -44 -193 -56 -76 -30 -210 -38 -254 -14
-50 27 -60 68 -34 142 69 191 73 207 74 303 2 145 -53 219 -260 354 -166 108
-279 122 -356 46 -52 -53 -34 -193 44 -323 58 -97 69 -135 80 -292 22 -306 -9
-351 -274 -406 -79 -17 -161 -34 -183 -39 -46 -10 -100 -3 -131 17 -49 32 -54
98 -20 301 27 166 0 261 -90 319 -27 17 -80 52 -119 77 -147 95 -338 104 -404
20 -37 -47 -27 -145 21 -210 99 -131 162 -390 127 -519 -28 -99 -82 -124 -322
-151 -292 -32 -368 28 -296 232 53 151 -11 333 -141 399 -25 13 -73 44 -107
69 -102 77 -240 105 -378 76 -160 -33 -161 -148 -3 -341 83 -101 128 -227 128
-359 0 -146 -57 -177 -382 -204 -205 -18 -249 -32 -267 -89 -24 -72 9 -104
139 -137 47 -11 137 -42 200 -67 108 -44 122 -46 236 -52 180 -9 191 -23 205
-259 11 -190 16 -239 36 -363 39 -238 -7 -277 -347 -298 -102 -7 -228 -16
-280 -21 -195 -20 -623 -41 -855 -43 -249 -3 -273 -7 -295 -47 -26 -49 -5
-104 63 -167 69 -64 82 -69 422 -168 83 -24 161 -19 283 19 61 19 159 42 219
51 59 9 115 18 123 20 23 7 540 92 665 109 61 9 196 23 300 31 105 8 233 22
285 30 191 30 638 84 750 90 63 3 205 13 315 20 110 8 263 17 340 20 77 3 291
12 475 20 351 15 1956 5 2270 -14 233 -15 546 -13 585 3 62 26 88 100 65 185
-9 35 -33 65 -110 145 -99 102 -99 102 -258 174 -88 39 -188 78 -223 87 -135
31 -516 14 -754 -35 -275 -57 -544 -95 -606 -87 -104 14 -125 97 -56 228 48
90 88 223 107 349 56 381 101 417 510 407 145 -3 285 -2 316 3 139 23 207 135
152 248 -68 141 -235 235 -493 278 -55 9 -112 23 -127 30 -82 42 -77 190 14
368 56 110 30 213 -83 327 -110 110 -148 134 -296 183 -152 51 -193 55 -270
25z m-208 -1509 c69 -33 85 -93 50 -190 -15 -43 -37 -233 -50 -435 -19 -295
-75 -379 -275 -415 -36 -6 -107 -21 -158 -33 -200 -46 -283 13 -248 176 14 67
24 203 45 612 14 264 33 286 246 296 282 12 345 11 390 -11z m-1026 -95 c59
-50 60 -60 49 -582 -8 -411 -10 -415 -161 -447 -270 -56 -387 -66 -435 -36
-70 43 -74 84 -61 662 8 350 11 356 204 378 55 6 136 19 180 29 121 28 187 27
224 -4z m-1041 -161 c67 -43 69 -56 82 -528 12 -416 14 -398 -62 -437 -56 -28
-399 -59 -446 -40 -51 21 -65 60 -73 210 -12 220 -38 451 -59 523 -50 169 -5
225 208 253 59 8 136 21 172 29 72 17 143 12 178 -10z"/>
<path d="M5354 1544 c-31 -30 -27 -59 12 -114 14 -19 46 -66 71 -105 25 -38
67 -93 93 -121 26 -28 60 -74 74 -102 14 -27 48 -78 76 -111 28 -33 66 -87 85
-119 19 -32 54 -81 78 -108 24 -27 61 -76 81 -109 21 -33 62 -85 90 -115 29
-30 74 -83 99 -117 139 -184 384 -145 442 72 46 166 26 356 -48 467 -75 113
-258 283 -357 330 -47 22 -105 55 -130 73 -65 46 -79 53 -185 80 -53 14 -126
40 -163 59 -135 67 -274 85 -318 40z"/>
<path d="M3938 1464 c-64 -34 -66 -100 -5 -176 24 -29 57 -73 74 -98 17 -25
51 -68 75 -95 24 -28 65 -79 90 -115 107 -152 297 -291 398 -292 237 -1 373
389 197 565 -51 50 -183 135 -248 159 -51 19 -417 68 -501 68 -29 -1 -65 -7
-80 -16z"/>
<path d="M1545 1380 c-38 -15 -63 -55 -89 -143 -23 -75 -35 -97 -80 -146 -29
-32 -70 -86 -91 -122 -20 -35 -63 -91 -94 -125 -52 -55 -85 -107 -169 -264
-71 -134 31 -393 174 -440 124 -41 309 59 404 218 22 37 60 92 85 122 95 116
129 368 85 640 -35 218 -113 307 -225 260z"/>
<path d="M2581 1343 c-106 -52 -89 -176 48 -341 31 -37 69 -87 85 -111 46 -71
221 -239 274 -263 121 -56 298 -9 349 92 31 62 49 208 34 281 -15 73 -43 116
-120 185 -81 71 -118 87 -256 113 -60 12 -148 30 -195 41 -104 24 -174 25
-219 3z"/>
</g>
</svg>
