<svg xmlns="http://www.w3.org/2000/svg" viewBox="0 0 448.885027 431.984536">
<g transform="translate(-10.114973,439.984536) scale(0.100000,-0.100000)" fill="#000000" stroke="none">
<path d="M1612 4327 c-17 -54 -23 -93 -22 -157 2 -99 -11 -162 -46 -231 -13
-27 -33 -89 -43 -138 -11 -55 -30 -109 -51 -145 -18 -32 -40 -83 -50 -115 -9
-31 -33 -78 -53 -104 -20 -26 -41 -65 -47 -85 -5 -20 -22 -55 -37 -77 -16 -22
-41 -63 -58 -92 -16 -28 -64 -94 -106 -145 -42 -52 -81 -104 -88 -115 -14 -28
-14 -66 1 -81 35 -35 74 -8 323 218 88 80 168 152 178 159 14 12 62 15 215 17
152 1 236 8 367 28 94 14 251 30 350 35 215 13 255 16 451 42 82 11 217 23
300 28 102 5 159 13 179 23 70 37 85 88 45 154 -17 27 -44 46 -119 82 l-96 46
-155 1 c-145 0 -162 -2 -265 -32 -60 -17 -156 -39 -213 -47 -61 -10 -132 -28
-174 -46 -39 -17 -109 -37 -157 -46 -47 -9 -131 -29 -187 -44 -185 -53 -296
-70 -339 -54 -48 19 -34 92 29 152 20 19 41 53 51 82 9 28 31 72 49 98 18 26
41 63 51 82 10 19 37 56 60 81 60 65 77 131 54 213 -16 59 -109 152 -186 187
-49 22 -67 36 -80 64 -16 33 -20 35 -62 35 l-46 0 -23 -73z"/>
<path d="M3248 3140 c-46 -14 -94 -48 -107 -77 -11 -24 -9 -33 20 -87 33 -61
33 -62 37 -227 5 -213 -1 -231 -85 -254 -32 -8 -89 -25 -128 -36 -127 -38
-183 -45 -213 -28 -23 13 -27 21 -26 54 1 22 14 74 29 115 21 58 26 87 23 132
-5 74 -36 113 -151 192 -77 53 -93 60 -146 64 -54 4 -62 2 -87 -23 -24 -24
-26 -32 -21 -76 6 -46 19 -80 70 -174 17 -33 22 -61 25 -161 6 -178 -8 -197
-169 -230 -46 -10 -111 -18 -144 -18 -56 -1 -60 1 -74 28 -12 26 -12 43 3 135
24 158 14 190 -84 251 -96 60 -125 71 -196 72 -55 1 -68 -3 -90 -23 -37 -34
-30 -101 16 -159 41 -51 60 -117 67 -231 5 -84 5 -86 -23 -118 -27 -30 -36
-33 -144 -47 -63 -9 -133 -13 -154 -11 -75 10 -95 62 -62 161 22 64 20 82 -13
153 -25 52 -37 66 -78 88 -26 14 -68 40 -91 58 -41 30 -48 32 -130 32 -145 0
-184 -32 -146 -118 11 -23 40 -68 66 -100 37 -46 50 -74 62 -127 21 -92 20
-132 -4 -163 -27 -34 -62 -44 -209 -57 -141 -13 -168 -21 -180 -52 -18 -48 12
-78 93 -92 22 -4 73 -21 115 -38 60 -25 93 -32 155 -33 117 -3 115 1 137 -255
20 -235 19 -258 -13 -285 -18 -16 -45 -25 -80 -29 -185 -19 -509 -38 -727 -43
-229 -5 -256 -8 -272 -24 -27 -27 -23 -53 12 -94 40 -45 66 -59 198 -101 123
-39 175 -42 257 -14 32 12 100 27 149 35 50 7 183 29 296 49 113 19 267 39
342 45 74 6 209 22 299 35 258 38 469 55 978 77 246 11 1247 7 1695 -7 184 -6
191 -5 218 16 23 18 27 29 27 72 0 48 -3 53 -65 117 -56 58 -80 74 -182 122
l-118 54 -180 -2 c-158 -1 -198 -5 -328 -32 -82 -17 -198 -36 -258 -43 -104
-11 -110 -11 -128 7 -33 35 -33 58 -2 118 35 67 54 132 76 256 19 117 43 171
86 202 33 23 39 24 239 24 231 1 254 6 284 70 24 49 7 95 -55 156 -53 52 -142
88 -271 110 -89 15 -102 30 -95 111 3 41 16 86 36 127 34 72 33 91 -5 157 -41
72 -124 133 -232 171 -102 35 -103 36 -144 23z m-129 -964 c24 -22 26 -53 7
-116 -7 -25 -17 -92 -20 -150 -11 -165 -24 -257 -41 -290 -29 -56 -114 -88
-283 -107 -91 -11 -132 25 -114 100 6 23 16 132 22 242 18 331 17 326 127 336
37 4 116 6 174 5 90 -1 110 -4 128 -20z m-669 -36 c37 -20 42 -68 37 -336 -6
-286 -9 -296 -74 -313 -21 -6 -69 -16 -108 -22 -176 -28 -199 -25 -222 28 -13
31 -14 75 -8 297 l8 260 28 28 c21 22 37 28 71 29 24 0 79 9 123 18 98 22 121
24 145 11z m-650 -110 c11 -6 25 -20 32 -33 16 -28 39 -514 26 -539 -5 -10
-22 -25 -38 -33 -37 -19 -265 -38 -291 -24 -24 12 -39 69 -39 147 0 95 -18
250 -36 314 -31 105 -6 132 143 155 54 8 99 16 102 19 8 8 82 4 101 -6z"/>
<path d="M3353 980 c-44 -18 -33 -47 62 -170 19 -25 48 -64 63 -88 15 -24 42
-62 60 -85 18 -23 40 -55 50 -71 9 -16 33 -48 53 -71 20 -24 46 -60 59 -81 13
-22 44 -62 69 -90 25 -28 59 -65 74 -82 56 -63 154 -67 213 -8 23 23 35 48 44
91 16 77 9 199 -15 249 -26 55 -180 205 -235 229 -25 11 -66 35 -91 52 -26 18
-78 40 -115 49 -38 10 -82 26 -99 36 -27 16 -140 51 -161 49 -5 0 -19 -4 -31
-9z"/>
<path d="M2460 917 c-36 -18 -40 -71 -7 -106 13 -14 34 -42 47 -61 13 -19 40
-54 59 -76 20 -23 49 -60 65 -84 16 -23 65 -69 108 -101 66 -49 87 -59 119
-59 70 0 122 39 158 120 47 103 16 208 -79 272 -92 63 -102 66 -266 88 -187
24 -172 23 -204 7z"/>
<path d="M942 847 c-12 -13 -22 -27 -22 -33 0 -34 -27 -91 -61 -130 -21 -25
-47 -60 -56 -77 -9 -18 -37 -55 -62 -83 -25 -28 -63 -86 -85 -128 -35 -68 -38
-82 -33 -127 12 -97 91 -189 164 -189 68 0 170 68 214 144 16 28 43 67 60 87
24 29 33 53 44 125 19 113 19 160 0 267 -18 105 -31 134 -66 153 -40 20 -72
17 -97 -9z"/>
<path d="M1595 825 c-59 -58 -17 -141 174 -345 59 -63 84 -83 124 -96 48 -16
54 -16 104 1 29 10 61 27 72 39 39 43 54 175 27 239 -7 18 -36 54 -65 79 -45
41 -62 49 -129 63 -42 9 -106 22 -142 30 -96 22 -136 20 -165 -10z"/>
</g>
</svg>
