<svg xmlns="http://www.w3.org/2000/svg" viewBox="0 0 698.352800 661.584897">
<g transform="translate(-21.842492,676.804142) scale(0.100000,-0.100000)" fill="#000000" stroke="none">
<path d="M4055 6751 c-72 -44 -102 -101 -91 -179 24 -177 12 -275 -54 -422
-21 -47 -52 -141 -69 -209 -24 -93 -45 -149 -85 -225 -30 -55 -62 -130 -72
-166 -21 -81 -43 -126 -94 -193 -22 -28 -52 -85 -67 -126 -16 -44 -48 -102
-79 -143 -28 -37 -61 -95 -73 -128 -12 -32 -42 -85 -67 -117 -25 -32 -75 -103
-111 -157 -36 -54 -82 -117 -102 -140 -92 -102 -96 -165 -13 -197 41 -16 80 0
139 53 30 27 79 65 109 84 29 19 75 56 101 83 27 26 71 65 98 87 28 21 79 68
115 105 105 107 93 104 395 105 264 0 379 9 588 44 116 19 325 40 593 60 77 5
252 25 390 44 137 19 305 39 374 45 294 25 390 115 290 272 -43 67 -73 87
-215 147 -219 93 -279 95 -565 19 -52 -14 -142 -32 -200 -41 -216 -34 -278
-49 -400 -96 -145 -56 -166 -62 -321 -89 -63 -11 -181 -43 -262 -71 -159 -54
-223 -62 -250 -32 -34 38 -26 72 32 135 26 30 56 76 66 103 21 56 46 95 86
139 27 30 59 94 94 188 9 26 34 69 55 96 21 27 55 82 76 122 22 44 62 101 100
141 75 80 100 145 91 238 -9 102 -38 150 -157 258 -107 97 -107 97 -238 140
-147 47 -165 49 -207 23z"/>
<path d="M2094 6671 c-65 -28 -74 -58 -72 -239 2 -167 2 -167 -50 -288 -29
-67 -52 -127 -52 -133 0 -22 -49 -106 -90 -156 -23 -27 -53 -72 -67 -99 -14
-28 -49 -75 -77 -105 -29 -31 -73 -83 -98 -116 -25 -33 -60 -73 -78 -90 -18
-16 -46 -48 -62 -70 -47 -66 -317 -332 -396 -392 -40 -30 -85 -74 -99 -96 -15
-23 -39 -62 -55 -86 -58 -92 -28 -120 75 -69 40 20 102 45 139 57 40 13 107
49 163 87 52 35 123 78 157 95 35 18 85 51 111 75 27 24 74 58 104 75 31 18
77 51 104 75 27 23 75 61 109 84 33 22 67 52 76 65 8 13 51 51 94 84 76 59
306 295 365 376 45 61 220 244 264 276 69 51 93 161 53 236 -29 55 -215 220
-280 249 -31 14 -86 44 -121 67 -68 44 -164 61 -217 38z"/>
<path d="M1833 4950 c-77 -24 -99 -96 -68 -217 19 -74 19 -204 -1 -317 -18
-104 -27 -130 -84 -223 -22 -37 -55 -112 -71 -166 -25 -79 -41 -110 -81 -160
-28 -34 -67 -98 -88 -142 -20 -44 -56 -102 -79 -130 -23 -27 -58 -81 -78 -119
-19 -38 -59 -95 -87 -125 -29 -31 -66 -78 -84 -106 -17 -27 -49 -68 -72 -90
-23 -22 -54 -63 -70 -91 -16 -28 -39 -59 -51 -70 -12 -10 -52 -59 -89 -109
-68 -92 -376 -410 -463 -479 -29 -23 -59 -59 -77 -94 -16 -32 -38 -70 -49 -87
-48 -70 -15 -91 66 -42 32 20 78 41 103 47 54 14 96 38 159 89 25 21 72 53
105 71 32 18 84 54 115 79 31 26 83 67 116 91 33 24 89 71 125 105 255 235
332 269 374 163 14 -34 16 -83 11 -371 -6 -347 -9 -379 -55 -569 -16 -64 -38
-181 -50 -260 -38 -254 -60 -349 -101 -446 -53 -126 -70 -205 -71 -336 -1
-135 9 -176 71 -286 27 -47 61 -122 75 -167 70 -213 225 -306 321 -192 49 59
124 229 137 309 8 54 11 326 9 955 -3 952 5 1200 41 1362 31 142 3 256 -91
368 -56 68 -55 95 9 175 28 34 50 66 50 69 0 4 27 39 60 77 33 38 78 101 100
139 21 39 59 95 85 125 25 30 57 78 70 106 14 29 49 81 79 115 29 35 67 92 84
125 17 34 53 89 81 124 57 71 110 190 118 264 10 95 -58 223 -145 272 -26 15
-81 49 -122 75 -120 77 -257 113 -337 89z"/>
<path d="M5829 4707 c-81 -54 -89 -153 -24 -297 83 -183 38 -441 -91 -521 -34
-20 -199 -56 -306 -66 -111 -10 -149 76 -93 212 53 127 5 219 -175 341 -109
73 -140 87 -211 92 -192 13 -265 -70 -188 -214 37 -69 64 -192 74 -337 11
-163 -13 -209 -121 -228 -32 -6 -104 -19 -159 -30 -130 -25 -139 -24 -177 10
-33 29 -33 29 -36 138 -4 148 -1 142 -109 237 -106 94 -128 104 -281 132 -164
29 -242 -3 -242 -101 0 -54 10 -76 61 -131 49 -55 63 -84 88 -181 44 -173 15
-222 -148 -244 -194 -26 -255 23 -226 179 17 87 12 118 -28 196 -111 210 -591
339 -605 162 -5 -53 50 -162 128 -258 68 -83 85 -135 78 -241 -8 -131 -50
-157 -260 -163 -246 -6 -297 -16 -332 -66 -47 -66 -8 -106 169 -169 137 -50
144 -51 285 -58 232 -10 235 -15 285 -407 38 -303 2 -394 -160 -394 -33 0
-112 -7 -175 -15 -63 -8 -207 -18 -320 -21 -229 -6 -258 -12 -295 -56 -44 -52
-13 -113 74 -144 25 -9 93 -38 151 -65 127 -59 194 -73 320 -67 98 5 102 7
366 102 94 33 116 37 298 51 203 15 325 34 576 86 107 22 191 33 320 39 96 5
285 16 420 24 572 36 701 38 1257 26 296 -6 628 -15 738 -21 502 -25 445 -54
445 228 0 250 0 250 -72 257 -39 3 -114 18 -167 31 -52 14 -118 25 -146 25
-77 0 -389 -29 -485 -44 -337 -56 -408 -9 -311 203 29 63 42 110 51 176 28
222 61 319 130 377 63 54 87 58 406 58 259 0 293 2 329 19 114 51 145 186 64
269 -96 98 -241 158 -418 171 -192 14 -220 44 -180 193 40 153 24 274 -49 359
-43 50 -55 56 -241 118 -176 58 -229 64 -282 28z m-128 -1184 c71 -42 73 -106
10 -366 -27 -111 -59 -251 -71 -312 -49 -246 -65 -261 -293 -286 -190 -20
-231 3 -231 129 -1 129 55 676 72 723 27 70 104 104 269 118 154 14 212 13
244 -6z m-963 -77 c53 -28 57 -48 55 -300 -4 -505 -21 -614 -101 -655 -159
-81 -337 -75 -380 13 -24 48 -30 732 -8 790 24 63 72 102 143 116 32 7 87 20
123 30 80 23 133 24 168 6z m-886 -174 c54 -32 73 -111 98 -417 6 -77 18 -179
27 -228 31 -180 -7 -223 -224 -251 -217 -28 -236 -2 -248 339 -3 99 -12 221
-20 270 -9 57 -11 103 -6 127 30 132 256 229 373 160z"/>
<path d="M5845 1776 c-78 -34 -71 -113 18 -214 24 -27 54 -75 67 -108 12 -32
43 -86 68 -118 24 -32 62 -98 84 -145 21 -47 57 -107 79 -133 22 -26 57 -85
78 -132 22 -46 60 -109 84 -140 25 -30 63 -93 85 -138 117 -251 407 -287 472
-59 31 107 21 332 -20 448 -38 109 -207 320 -320 400 -36 26 -84 63 -107 84
-23 21 -81 58 -130 82 -48 25 -97 55 -108 67 -35 39 -100 70 -200 95 -112 29
-110 29 -150 11z"/>
<path d="M4610 1740 c-75 -18 -86 -64 -34 -141 20 -30 52 -85 70 -124 18 -38
55 -99 84 -134 28 -35 60 -81 71 -104 12 -22 53 -74 91 -116 39 -42 86 -93
106 -113 145 -157 382 -22 382 216 0 131 -151 330 -290 382 -25 9 -97 40 -160
70 -142 66 -234 84 -320 64z"/>
<path d="M2950 1571 c-17 -16 -35 -51 -44 -82 -8 -30 -22 -79 -30 -110 -11
-38 -33 -77 -67 -120 -28 -35 -69 -99 -90 -142 -22 -43 -59 -106 -83 -142 -57
-82 -69 -138 -64 -290 4 -136 13 -160 93 -258 70 -87 140 -109 221 -71 78 37
254 258 288 362 54 163 57 599 5 752 -39 117 -160 170 -229 101z"/>
<path d="M3701 1589 c-51 -10 -91 -43 -91 -74 0 -29 126 -292 158 -330 14 -16
42 -67 63 -111 40 -87 150 -224 200 -250 68 -35 165 -4 215 67 131 190 46 467
-178 580 -32 16 -82 44 -111 63 -83 53 -172 72 -256 55z"/>
</g>
</svg>
