<svg xmlns="http://www.w3.org/2000/svg" viewBox="0 0 437.658771 413.780406">
<g transform="translate(-12.341229,422.923226) scale(0.100000,-0.100000)" fill="#000000" stroke="none">
<path d="M2522 4214 c-12 -8 -29 -29 -38 -45 -13 -26 -13 -38 -3 -85 15 -67 2
-154 -37 -238 -14 -31 -34 -92 -45 -136 -10 -44 -33 -104 -50 -135 -17 -30
-39 -81 -48 -113 -10 -32 -34 -81 -54 -110 -19 -29 -41 -69 -47 -89 -7 -21
-25 -55 -41 -75 -16 -21 -39 -59 -50 -85 -11 -26 -40 -73 -63 -103 -24 -30
-48 -64 -53 -75 -6 -11 -34 -49 -62 -84 -57 -71 -62 -93 -26 -117 34 -22 69
-12 127 39 26 23 80 69 119 102 40 33 91 79 113 101 76 77 72 76 298 79 148 1
238 8 333 23 72 12 201 26 287 32 86 6 219 19 295 30 76 10 187 24 248 30 215
22 273 84 177 189 -26 28 -63 52 -122 77 -119 52 -173 54 -330 16 -69 -17
-168 -38 -220 -46 -53 -8 -136 -31 -186 -50 -49 -19 -131 -42 -182 -51 -51 -9
-138 -32 -194 -52 -82 -29 -104 -33 -124 -24 -34 15 -32 55 5 89 17 15 39 49
51 76 11 27 33 64 49 82 16 18 39 58 50 90 12 31 35 73 50 93 16 20 36 54 45
76 9 22 34 58 56 80 21 22 44 53 49 68 14 36 14 107 1 144 -17 45 -147 161
-194 174 -23 5 -58 17 -79 25 -48 18 -77 18 -105 -2z"/>
<path d="M1298 4165 c-36 -20 -41 -41 -33 -138 5 -62 3 -92 -8 -122 -55 -148
-80 -202 -105 -234 -15 -20 -39 -54 -52 -76 -13 -22 -43 -62 -68 -90 -24 -27
-65 -75 -90 -105 -45 -52 -223 -231 -313 -316 -56 -51 -101 -114 -97 -133 5
-25 38 -25 70 -1 16 12 53 30 81 39 29 10 88 41 131 70 43 28 84 51 90 51 7 0
35 19 63 43 28 23 63 50 79 59 48 30 140 105 277 230 29 26 84 84 122 129 39
45 114 126 168 180 88 90 97 102 97 136 -1 21 -6 48 -13 60 -20 36 -142 141
-188 163 -24 11 -62 32 -84 45 -45 28 -87 31 -127 10z"/>
<path d="M1132 3090 c-36 -15 -47 -52 -34 -111 27 -116 9 -264 -43 -349 -18
-30 -40 -81 -50 -112 -9 -31 -30 -74 -47 -95 -16 -21 -43 -65 -59 -98 -16 -32
-40 -71 -53 -85 -13 -14 -36 -49 -50 -78 -15 -29 -33 -55 -41 -58 -8 -3 -25
-22 -37 -42 -13 -21 -37 -53 -55 -73 -18 -19 -47 -56 -65 -82 -18 -25 -52 -71
-76 -102 -53 -69 -286 -305 -300 -305 -6 0 -23 -21 -38 -47 -15 -27 -36 -58
-47 -70 -21 -23 -17 -53 7 -53 8 0 28 11 44 25 16 13 54 33 84 45 30 11 63 29
73 41 10 11 41 33 69 50 53 31 144 102 288 225 96 81 122 97 147 89 36 -11 40
-45 35 -272 -4 -193 -8 -234 -34 -353 -16 -74 -38 -191 -49 -260 -12 -77 -29
-146 -45 -180 -36 -77 -49 -151 -44 -245 4 -71 8 -88 40 -140 20 -33 41 -78
47 -100 16 -61 64 -129 104 -148 45 -22 50 -22 84 7 48 40 95 146 104 234 4
42 8 356 9 697 1 341 5 643 10 670 22 120 22 133 6 187 -10 29 -33 71 -52 93
-38 44 -42 66 -18 86 9 7 33 38 54 69 21 30 48 64 60 75 12 11 31 38 42 60 12
22 34 55 51 74 16 19 36 50 43 68 8 18 30 50 48 71 18 20 44 57 56 82 13 25
37 62 55 83 19 22 43 68 55 108 22 67 22 71 6 114 -23 60 -50 92 -99 117 -23
11 -55 31 -72 43 -60 45 -160 66 -213 45z"/>
<path d="M3654 2950 c-58 -23 -70 -102 -28 -190 39 -83 39 -175 -1 -255 -36
-71 -63 -87 -180 -108 -93 -16 -111 -13 -132 19 -16 25 -12 57 18 130 11 28
10 37 -14 85 -23 46 -39 61 -109 107 -78 49 -87 52 -146 52 -120 0 -148 -40
-97 -138 27 -53 45 -146 45 -239 0 -49 -4 -67 -20 -83 -21 -21 -25 -22 -136
-39 -39 -6 -77 -13 -86 -16 -8 -3 -26 4 -41 15 -25 20 -27 27 -27 100 l0 78
-62 54 c-80 70 -87 73 -183 88 -92 14 -128 5 -146 -34 -16 -34 -4 -70 37 -116
58 -64 84 -199 45 -234 -21 -19 -132 -38 -171 -29 -55 13 -72 57 -51 133 12
43 -9 101 -53 144 -103 103 -316 152 -348 81 -9 -21 -6 -34 21 -87 18 -35 46
-76 61 -93 38 -39 50 -74 50 -140 0 -42 -5 -60 -24 -82 -24 -27 -26 -28 -172
-35 -82 -3 -150 -7 -151 -7 -16 -7 -33 -39 -33 -61 0 -34 5 -37 125 -79 71
-25 105 -31 170 -31 128 0 145 -21 169 -207 29 -218 19 -274 -52 -292 -20 -6
-50 -10 -67 -9 -16 0 -91 -4 -165 -10 -74 -6 -163 -10 -198 -10 -71 1 -110
-15 -118 -49 -8 -29 15 -56 59 -74 18 -6 67 -27 110 -46 69 -31 89 -35 160
-35 72 0 96 5 191 42 95 36 126 43 230 51 145 11 161 13 346 49 80 16 199 31
265 34 66 3 242 13 391 21 220 12 350 13 690 5 231 -5 476 -13 547 -16 l127
-7 0 156 0 157 -32 0 c-18 0 -70 9 -115 21 -83 21 -83 21 -250 3 -93 -10 -208
-18 -258 -19 -87 0 -90 1 -104 27 -15 25 -14 31 12 83 17 36 35 99 47 171 24
139 46 187 100 214 35 18 59 20 236 20 l196 0 34 34 c28 28 34 42 34 76 0 35
-6 48 -33 74 -65 60 -131 88 -236 98 -145 13 -157 28 -125 151 17 67 13 110
-17 169 -25 49 -45 61 -169 103 -108 36 -130 40 -166 25z m-74 -760 c28 -28
26 -67 -14 -233 -19 -78 -41 -176 -50 -217 -25 -112 -34 -120 -152 -137 -54
-7 -109 -11 -122 -8 -39 10 -53 61 -42 152 5 43 14 139 20 213 6 74 16 149 21
167 18 58 80 79 247 82 60 1 75 -2 92 -19z m-597 -52 c20 -23 22 -150 8 -392
-11 -167 -18 -183 -107 -208 -68 -19 -137 -22 -164 -8 -30 16 -37 70 -40 296
-1 178 1 217 14 243 21 39 49 57 106 66 24 4 60 13 80 21 43 16 79 10 103 -18z
m-566 -100 c28 -31 31 -42 48 -218 30 -295 30 -272 2 -298 -19 -18 -44 -26
-114 -34 -49 -6 -97 -9 -106 -5 -40 15 -50 53 -60 230 -15 257 -15 252 12 281
59 63 178 87 218 44z"/>
<path d="M3643 1105 c-36 -25 -31 -74 12 -115 19 -18 42 -54 52 -79 9 -25 28
-59 41 -76 14 -16 36 -54 49 -84 14 -30 36 -69 50 -85 15 -17 37 -56 50 -86
14 -30 38 -70 55 -89 16 -18 39 -55 50 -80 24 -57 41 -76 97 -113 53 -33 88
-35 140 -9 55 29 66 63 66 206 0 104 -3 126 -23 165 -33 66 -107 165 -155 205
-23 19 -64 53 -92 76 -27 23 -69 50 -94 61 -24 10 -59 32 -77 48 -32 27 -95
52 -167 65 -21 4 -40 0 -54 -10z"/>
<path d="M2848 1073 c-24 -26 -23 -34 12 -78 17 -21 39 -58 50 -83 11 -24 33
-59 49 -78 16 -18 37 -49 46 -68 9 -19 32 -48 50 -65 19 -17 42 -42 50 -55 22
-33 74 -56 125 -56 36 0 48 6 75 35 43 45 69 114 61 159 -7 36 -59 119 -104
168 -14 15 -58 41 -98 58 -41 17 -90 40 -110 52 -26 15 -59 23 -113 26 -66 4
-78 2 -93 -15z"/>
<path d="M1836 978 c-8 -13 -20 -43 -26 -68 -6 -25 -13 -52 -16 -62 -3 -9 -19
-34 -35 -55 -17 -21 -47 -67 -65 -103 -19 -36 -45 -79 -58 -97 -28 -38 -41
-143 -28 -215 9 -48 69 -140 102 -158 29 -15 72 -12 103 9 66 43 157 166 178
241 17 60 18 380 1 437 -24 81 -121 125 -156 71z"/>
<path d="M2288 989 c-42 -16 -43 -40 -3 -114 19 -37 35 -72 35 -79 0 -7 14
-30 30 -51 17 -21 39 -58 50 -82 28 -64 105 -150 141 -158 78 -17 149 68 149
179 -1 104 -51 185 -149 237 -31 16 -70 39 -88 50 -37 24 -126 33 -165 18z"/>
</g>
</svg>
