<svg xmlns="http://www.w3.org/2000/svg" viewBox="0 0 733.913542 651.180774">
<g transform="translate(-18.086458,660.462646) scale(0.100000,-0.100000)" fill="#000000" stroke="none">
<path d="M4045 6591 c-99 -46 -133 -117 -109 -224 22 -93 13 -174 -32 -302
-19 -55 -46 -147 -60 -205 -30 -127 -38 -149 -81 -221 -18 -31 -51 -112 -73
-180 -30 -92 -52 -142 -88 -194 -27 -38 -63 -108 -81 -155 -19 -51 -50 -108
-78 -143 -26 -33 -58 -91 -74 -134 -15 -42 -48 -100 -72 -132 -24 -31 -60 -81
-79 -111 -20 -30 -68 -95 -107 -145 -131 -164 -145 -207 -76 -239 63 -30 98
-18 201 69 34 30 72 59 84 65 12 6 96 81 188 167 207 192 244 216 327 208 232
-22 448 -13 740 30 218 32 312 42 505 55 163 11 403 37 590 65 52 8 167 21
255 29 203 20 257 35 312 91 50 49 57 99 24 170 -36 77 -94 113 -341 208 -90
34 -263 30 -400 -9 -106 -31 -185 -47 -407 -84 -93 -15 -152 -32 -250 -71 -83
-34 -165 -59 -233 -71 -179 -33 -312 -69 -390 -106 -206 -96 -314 28 -150 173
12 11 39 54 60 95 21 41 61 103 88 138 28 35 58 84 68 110 35 95 56 137 93
186 21 28 53 76 70 107 17 31 57 83 89 115 64 66 82 109 82 196 0 109 -19 145
-136 260 -122 120 -118 117 -254 162 -145 47 -158 49 -205 27z"/>
<path d="M2140 6503 c-68 -36 -74 -61 -75 -298 -1 -233 -7 -266 -71 -407 -19
-43 -51 -139 -69 -213 -30 -116 -41 -145 -85 -211 -34 -53 -59 -108 -80 -175
-18 -59 -44 -116 -65 -146 -48 -66 -81 -130 -95 -183 -15 -57 -44 -114 -86
-169 -18 -23 -48 -79 -66 -123 -19 -45 -51 -101 -76 -130 -24 -28 -63 -91 -87
-139 -24 -47 -62 -108 -85 -134 -22 -26 -56 -77 -74 -114 -19 -36 -52 -87 -75
-112 -22 -26 -59 -80 -82 -120 -23 -41 -62 -96 -86 -123 -24 -27 -61 -79 -83
-115 -21 -36 -55 -82 -75 -101 -20 -19 -54 -60 -75 -90 -21 -30 -50 -66 -65
-80 -15 -14 -58 -66 -95 -116 -38 -50 -83 -102 -100 -114 -18 -12 -56 -55 -86
-94 -30 -39 -70 -90 -89 -114 -41 -51 -45 -89 -12 -120 40 -38 79 -29 146 33
33 30 82 65 109 79 27 14 73 47 103 74 30 27 77 64 105 83 60 40 396 354 437
407 15 21 58 66 95 102 74 72 135 148 199 249 69 107 110 131 161 96 48 -35
52 -80 48 -605 -4 -552 -18 -718 -83 -970 -53 -202 -62 -252 -79 -400 -22
-202 -47 -327 -95 -474 -38 -116 -53 -266 -54 -516 0 -274 7 -316 70 -421 25
-41 56 -108 70 -150 33 -99 71 -158 135 -208 96 -76 111 -71 220 80 139 194
138 190 151 1069 17 1215 26 1529 49 1735 11 105 25 269 29 365 5 97 18 224
30 285 29 153 42 321 31 388 -12 73 -29 104 -102 185 -66 73 -88 113 -88 164
0 43 47 141 95 198 50 60 78 105 100 164 10 26 38 74 63 105 50 64 63 88 101
180 15 36 50 95 77 131 31 41 58 91 72 134 28 84 45 117 92 181 21 27 52 78
69 112 17 34 56 88 87 120 82 83 99 126 99 243 0 82 -4 102 -26 150 -38 78
-194 236 -279 282 -36 19 -89 49 -117 68 -66 41 -132 50 -183 23z"/>
<path d="M5822 4550 c-82 -37 -97 -110 -56 -266 76 -285 22 -537 -121 -572
-337 -82 -401 -57 -360 140 31 150 6 245 -81 296 -25 15 -76 49 -112 77 -85
62 -147 84 -240 85 -178 0 -227 -94 -134 -261 56 -102 74 -177 76 -320 2 -171
-13 -187 -200 -215 -269 -41 -303 -25 -290 143 8 103 -4 136 -70 189 -26 21
-66 55 -88 75 -59 52 -87 64 -216 89 -164 33 -226 15 -251 -71 -16 -53 -1
-100 58 -180 64 -87 95 -161 101 -241 8 -113 -24 -142 -177 -159 -226 -24
-280 22 -236 206 16 67 9 119 -26 187 -56 109 -292 222 -466 223 -114 0 -148
-22 -140 -90 5 -40 109 -224 164 -289 45 -53 63 -105 63 -181 0 -134 -38 -161
-250 -175 -211 -15 -277 -35 -301 -92 -23 -57 16 -89 188 -154 101 -39 133
-46 224 -53 188 -13 205 -37 270 -376 53 -281 47 -363 -33 -410 -41 -24 -234
-43 -503 -50 -255 -7 -278 -10 -315 -42 -68 -57 -28 -129 93 -169 29 -9 93
-36 142 -59 189 -90 360 -88 600 6 151 59 191 68 355 79 162 12 382 46 541 85
144 35 424 57 1119 90 435 21 1404 2 1946 -37 161 -12 161 -12 261 15 55 15
114 27 131 27 32 0 32 0 32 79 0 79 0 79 -36 86 -29 5 -64 33 -168 134 -153
149 -163 153 -384 197 -142 28 -142 28 -337 10 -107 -9 -232 -24 -278 -32
-126 -22 -271 -29 -305 -15 -67 28 -74 108 -19 227 40 86 70 206 88 354 28
235 60 251 490 249 349 -3 402 9 443 96 38 80 11 156 -74 208 -19 11 -60 41
-90 65 -76 62 -119 79 -272 108 -216 42 -216 41 -178 254 21 119 -4 205 -83
281 -53 52 -82 67 -249 123 -153 51 -184 54 -246 26z m-146 -1196 c68 -32 83
-122 40 -232 -32 -80 -69 -249 -96 -432 -38 -259 -59 -276 -360 -297 -144 -10
-181 41 -161 226 6 58 16 214 22 346 13 306 19 329 99 370 67 35 394 48 456
19z m-943 -94 c51 -40 59 -123 38 -390 -7 -80 -14 -197 -16 -260 -7 -162 -19
-214 -60 -255 -73 -72 -256 -108 -348 -67 -84 37 -81 24 -80 448 2 400 2 403
55 450 77 71 352 120 411 74z m-899 -149 c13 -12 29 -41 35 -64 15 -57 61
-408 61 -467 0 -26 7 -85 16 -131 27 -144 -5 -189 -174 -235 -192 -53 -251
-15 -273 174 -22 202 -41 333 -61 423 -35 162 -15 199 155 284 109 55 193 61
241 16z"/>
<path d="M5800 1602 c-57 -58 -43 -129 45 -222 37 -40 59 -75 79 -128 17 -43
49 -99 77 -134 27 -34 63 -96 81 -139 18 -44 52 -102 76 -131 24 -29 61 -90
83 -136 21 -46 59 -109 83 -140 25 -31 58 -86 74 -122 67 -148 210 -218 327
-161 130 64 160 134 153 360 -4 157 -19 211 -81 293 -14 18 -37 57 -51 86 -31
61 -155 195 -230 249 -28 20 -77 58 -108 85 -31 26 -87 62 -124 78 -37 17 -93
50 -125 75 -70 51 -203 106 -276 113 -48 4 -55 2 -83 -26z"/>
<path d="M4535 1565 c-46 -45 -25 -118 58 -194 15 -13 39 -56 53 -95 17 -44
43 -88 69 -116 23 -25 59 -71 79 -103 43 -68 197 -227 242 -250 147 -76 268 4
303 200 27 148 -95 353 -255 427 -32 16 -104 50 -159 76 -164 79 -342 104
-390 55z"/>
<path d="M2934 1455 c-26 -17 -37 -45 -64 -154 -16 -67 -30 -97 -69 -150 -27
-36 -63 -100 -80 -142 -18 -42 -52 -102 -76 -133 -73 -94 -88 -147 -89 -311
-1 -154 8 -195 54 -268 64 -101 182 -137 266 -81 104 69 152 133 265 354 69
135 80 551 18 716 -50 134 -159 216 -225 169z"/>
<path d="M3613 1418 c-56 -27 -51 -78 16 -167 22 -29 50 -82 61 -117 12 -36
37 -86 56 -112 19 -26 52 -83 73 -127 82 -171 160 -245 257 -245 69 0 106 28
148 110 72 144 70 203 -13 368 -55 109 -84 141 -155 173 -27 12 -77 41 -112
64 -87 60 -260 87 -331 53z"/>
</g>
</svg>
