<svg xmlns="http://www.w3.org/2000/svg" viewBox="0 0 459.000000 407.555120">
<g transform="translate(-11.000000,412.815412) scale(0.100000,-0.100000)" fill="#000000" stroke="none">
<path d="M2513 4110 c-18 -10 -40 -31 -49 -45 -15 -23 -15 -33 -5 -82 15 -63
8 -124 -20 -196 -11 -28 -29 -89 -40 -136 -11 -47 -31 -102 -44 -122 -13 -20
-35 -73 -48 -118 -14 -44 -39 -98 -55 -119 -16 -20 -39 -64 -51 -97 -12 -33
-33 -71 -47 -86 -13 -14 -35 -54 -49 -89 -14 -35 -35 -75 -48 -89 -13 -15 -35
-44 -49 -66 -14 -22 -51 -71 -82 -110 -73 -91 -73 -135 -1 -135 38 0 123 63
268 198 55 52 111 101 124 110 21 13 60 16 232 17 155 1 239 7 341 23 74 12
203 26 285 32 83 6 215 19 295 30 80 11 192 24 250 30 114 12 163 30 194 72
17 24 18 32 8 66 -17 57 -49 83 -153 126 -130 53 -182 56 -334 18 -66 -17
-142 -34 -170 -37 -98 -12 -158 -27 -226 -56 -38 -16 -125 -41 -195 -54 -70
-14 -158 -39 -195 -55 -37 -17 -77 -30 -88 -30 -23 0 -61 33 -61 53 0 14 25
52 52 79 9 9 29 40 43 67 14 28 39 66 55 85 17 19 39 60 50 92 11 32 29 67 39
79 11 11 33 44 51 74 17 30 42 63 56 73 35 28 54 71 54 123 0 67 -19 102 -96
176 -61 58 -79 69 -152 92 -99 32 -98 32 -139 7z"/>
<path d="M1354 4073 c-12 -2 -30 -13 -40 -25 -16 -17 -19 -39 -21 -152 -1
-145 -12 -204 -47 -274 -13 -26 -31 -81 -40 -122 -11 -46 -32 -100 -56 -140
-21 -36 -45 -90 -54 -120 -8 -31 -29 -73 -45 -95 -17 -22 -40 -68 -51 -102
-12 -34 -34 -78 -49 -97 -15 -19 -36 -56 -46 -83 -10 -26 -31 -63 -47 -81 -16
-19 -42 -61 -59 -95 -16 -34 -40 -73 -53 -87 -13 -14 -32 -41 -41 -60 -10 -19
-31 -50 -46 -68 -16 -18 -38 -52 -50 -75 -12 -23 -36 -58 -53 -77 -18 -19 -45
-57 -60 -83 -15 -27 -34 -51 -42 -54 -7 -3 -24 -21 -36 -41 -22 -36 -66 -90
-167 -202 -104 -116 -141 -165 -141 -185 0 -53 61 -61 106 -14 16 17 45 39 64
49 19 10 44 28 55 40 11 12 45 39 75 60 56 38 359 335 415 406 17 22 43 60 58
86 45 77 98 76 116 -3 4 -19 7 -171 5 -339 -2 -339 -14 -459 -63 -642 -16 -62
-35 -162 -41 -221 -6 -60 -22 -152 -36 -205 -43 -162 -44 -169 -54 -292 -7
-80 -6 -153 0 -218 9 -83 15 -105 44 -152 19 -30 39 -73 45 -96 15 -56 48
-103 98 -138 42 -29 43 -29 63 -11 39 36 113 147 127 194 12 36 17 158 23 591
10 628 18 892 31 1005 5 44 13 148 19 230 5 83 17 188 25 235 8 47 15 121 15
165 0 88 -9 109 -73 179 -20 22 -39 54 -43 72 -7 39 20 105 64 155 17 20 40
57 51 83 12 26 34 64 51 85 17 21 40 61 51 90 11 29 33 69 49 90 16 20 38 62
49 94 11 32 36 80 54 105 19 26 42 63 52 82 9 19 34 53 55 75 58 62 74 132 48
216 -15 52 -136 173 -220 221 -69 39 -99 48 -134 41z"/>
<path d="M3644 2850 c-54 -22 -66 -78 -38 -184 9 -33 17 -99 18 -146 1 -69 -3
-93 -21 -130 -27 -53 -48 -68 -117 -81 -173 -33 -193 -24 -181 80 14 133 2
176 -63 211 -20 11 -58 35 -84 54 -54 39 -130 54 -184 36 -65 -22 -70 -69 -19
-173 29 -60 36 -87 41 -163 10 -132 5 -137 -157 -163 -135 -22 -149 -13 -149
101 l0 74 -64 57 c-72 64 -82 68 -183 87 -83 15 -123 5 -142 -36 -15 -34 -5
-70 35 -124 45 -63 66 -120 62 -170 -5 -64 -31 -79 -140 -82 -74 -2 -90 1
-108 17 -19 18 -21 26 -15 70 22 150 5 182 -125 248 -112 56 -201 72 -245 43
-14 -9 -25 -26 -25 -37 0 -19 79 -157 122 -211 29 -37 37 -128 14 -162 -17
-27 -22 -28 -185 -45 -59 -6 -115 -18 -128 -26 -27 -18 -30 -56 -5 -77 35 -31
157 -70 239 -77 123 -11 129 -19 169 -218 37 -188 31 -261 -25 -281 -31 -12
-275 -32 -389 -32 -92 0 -130 -13 -138 -47 -8 -31 17 -59 65 -74 20 -6 71 -27
115 -46 76 -34 81 -35 180 -31 87 4 114 10 195 41 80 32 113 39 219 48 119 9
287 37 362 59 40 12 197 24 585 45 215 11 357 12 690 5 231 -5 486 -15 567
-20 125 -10 154 -9 199 4 29 9 65 16 81 16 27 0 28 2 28 49 0 44 -3 49 -25 55
-15 4 -58 40 -97 81 -39 41 -86 81 -104 90 -19 9 -80 25 -136 36 -97 19 -108
19 -242 4 -78 -8 -172 -19 -211 -25 -102 -14 -123 -12 -145 10 -27 27 -25 70
4 128 22 43 45 140 61 251 3 24 12 55 20 70 26 50 52 56 277 57 185 1 210 3
240 21 41 24 62 64 53 103 -5 22 -26 45 -78 84 -92 68 -100 72 -177 86 -104
18 -139 30 -149 48 -5 10 -4 46 4 92 28 157 -13 214 -198 276 -107 36 -119 38
-153 24z m-73 -769 c23 -28 24 -76 4 -125 -20 -47 -50 -179 -65 -286 -13 -90
-30 -134 -58 -148 -9 -5 -58 -15 -107 -21 -141 -19 -173 5 -160 119 3 30 10
135 15 232 5 98 14 186 20 197 6 11 20 26 33 33 29 15 133 27 226 24 63 -1 76
-5 92 -25z m-592 -66 c13 -26 13 -61 -1 -268 -13 -208 -17 -242 -35 -265 -53
-71 -248 -85 -269 -19 -10 33 -6 485 5 506 24 44 137 81 236 78 45 -2 51 -5
64 -32z m-605 -55 c14 -5 30 -18 35 -29 12 -22 46 -265 57 -401 6 -81 5 -86
-17 -107 -25 -22 -126 -53 -174 -53 -63 0 -78 29 -95 181 -6 53 -15 121 -21
150 -22 118 -22 153 -3 176 22 25 149 93 175 93 10 0 29 -4 43 -10z"/>
<path d="M3625 1006 c-14 -10 -20 -26 -20 -54 0 -34 8 -48 48 -91 26 -27 47
-57 47 -66 0 -22 35 -88 56 -106 9 -8 30 -43 46 -79 16 -36 40 -76 53 -90 13
-14 33 -47 45 -75 12 -27 30 -59 40 -70 11 -11 36 -52 57 -90 32 -58 47 -75
88 -97 28 -15 60 -28 71 -28 37 0 118 61 131 100 14 42 17 202 4 248 -32 112
-243 338 -364 392 -24 11 -60 33 -81 49 -37 30 -142 71 -181 71 -12 0 -30 -6
-40 -14z"/>
<path d="M2843 990 c-43 -17 -36 -83 13 -114 12 -9 30 -37 40 -63 9 -26 30
-61 45 -78 15 -16 36 -45 47 -63 27 -46 141 -162 170 -173 32 -12 89 -11 113
2 30 16 69 106 69 160 0 62 -40 138 -102 194 -28 25 -55 45 -62 45 -6 0 -42
16 -81 36 -38 19 -101 42 -138 49 -77 17 -84 17 -114 5z"/>
<path d="M1826 905 c-8 -9 -20 -43 -27 -77 -8 -41 -23 -75 -46 -105 -18 -24
-43 -68 -54 -97 -10 -29 -29 -62 -41 -72 -42 -38 -58 -92 -58 -202 0 -114 11
-151 57 -195 59 -55 105 -53 179 9 38 30 60 63 130 194 23 43 37 169 32 286
-4 92 -10 121 -31 167 -43 95 -100 132 -141 92z"/>
<path d="M2252 884 c-30 -21 -28 -48 7 -92 17 -20 39 -62 51 -94 11 -31 28
-62 37 -70 9 -7 27 -38 40 -68 31 -68 76 -126 115 -146 36 -19 88 -12 111 14
30 33 57 106 56 157 0 66 -59 181 -107 210 -18 11 -56 35 -83 53 -72 47 -185
66 -227 36z"/>
</g>
</svg>
