<svg xmlns="http://www.w3.org/2000/svg" viewBox="0 0 743.763592 597.703097">
<g transform="translate(-0.000000,611.835984) scale(0.100000,-0.100000)" fill="#000000" stroke="none">
<path d="M3770 6113 c-89 -34 -104 -74 -105 -278 -1 -194 -9 -231 -71 -356
-24 -49 -54 -132 -69 -190 -32 -131 -39 -147 -97 -242 -26 -43 -54 -102 -64
-130 -23 -70 -40 -104 -78 -152 -36 -45 -52 -71 -95 -165 -17 -36 -49 -87 -72
-115 -22 -27 -56 -79 -74 -115 -19 -36 -57 -90 -85 -120 -28 -30 -65 -78 -81
-106 -16 -28 -59 -78 -94 -111 -57 -53 -65 -65 -65 -96 0 -97 133 -107 216
-16 10 11 50 39 89 62 38 22 99 69 136 103 36 34 79 69 95 77 16 8 59 47 95
85 85 91 119 100 305 83 70 -7 155 -10 188 -6 34 3 153 10 266 15 257 13 344
23 545 60 281 52 403 65 855 90 360 20 431 32 502 83 53 39 75 135 44 195 -26
50 -202 160 -282 176 -247 50 -568 22 -854 -74 -100 -34 -192 -57 -295 -74
-108 -18 -189 -39 -291 -74 -234 -83 -508 -127 -547 -88 -45 45 1 155 113 272
41 42 72 89 100 146 22 46 56 103 75 126 20 22 53 76 74 119 25 51 59 99 95
135 154 154 158 364 9 485 -26 21 -65 54 -87 74 -57 50 -87 64 -220 99 -114
30 -147 34 -176 23z"/>
<path d="M923 5459 c-40 -12 -63 -43 -63 -89 0 -32 10 -45 112 -142 136 -129
111 -105 266 -264 70 -71 149 -145 175 -163 27 -18 75 -57 108 -87 120 -107
270 -137 413 -84 116 44 146 92 154 247 7 152 -3 180 -104 280 -104 103 -111
107 -219 136 -50 13 -126 42 -171 65 -107 54 -166 69 -309 82 -66 5 -154 14
-195 20 -90 11 -125 11 -167 -1z"/>
<path d="M5627 4179 c-131 -31 -155 -90 -86 -215 88 -161 76 -421 -23 -482
-73 -44 -248 -95 -333 -96 -134 -2 -161 30 -120 138 32 85 31 110 -4 171 -53
90 -126 146 -335 254 -86 44 -208 29 -250 -31 -28 -40 -11 -177 38 -317 26
-71 36 -157 26 -213 -20 -103 -74 -139 -244 -163 -174 -24 -221 -21 -258 16
-31 30 -31 30 -24 115 8 113 -3 135 -106 215 -111 86 -177 111 -304 117 -204
9 -263 -60 -160 -186 75 -92 89 -126 94 -222 3 -77 2 -88 -20 -119 -64 -94
-276 -122 -338 -44 -18 23 -20 38 -18 132 3 165 -37 228 -199 310 -259 129
-463 135 -463 13 0 -50 65 -167 136 -242 77 -82 87 -102 87 -170 0 -113 -39
-145 -195 -160 -153 -16 -409 -59 -445 -76 -57 -28 -67 -101 -21 -151 58 -62
321 -100 468 -68 180 40 273 -1 298 -131 31 -162 62 -412 62 -505 0 -44 -35
-99 -75 -119 -34 -16 -447 -38 -745 -39 -199 -1 -242 -12 -248 -63 -6 -53 40
-89 248 -195 157 -80 438 -71 840 27 187 46 190 46 410 65 230 20 369 39 548
76 97 20 216 35 347 44 110 8 234 20 275 26 181 25 1317 38 1860 19 140 -4
389 -20 553 -36 343 -31 348 -31 467 49 91 60 91 72 -3 189 -74 93 -74 93
-229 171 -193 97 -236 107 -468 107 -292 0 -568 -34 -688 -84 -226 -95 -289
72 -147 391 20 46 49 133 64 195 40 163 65 201 149 229 41 14 354 6 526 -12
131 -15 203 -6 288 33 109 50 153 118 114 174 -19 26 -207 161 -250 179 -56
24 -250 64 -357 75 -175 18 -194 37 -164 162 22 87 24 172 7 214 -16 38 -163
171 -212 192 -83 35 -299 59 -373 41z m-193 -1122 c62 -41 72 -101 37 -240
-11 -45 -27 -136 -35 -202 -30 -235 -63 -321 -142 -373 -101 -68 -358 -92
-411 -39 -36 35 -44 138 -19 246 20 86 56 359 56 422 0 84 40 157 100 181 70
28 373 32 414 5z m-966 -65 c56 -25 67 -64 54 -174 -6 -51 -16 -199 -22 -328
-19 -406 -11 -393 -275 -405 -240 -10 -234 -22 -232 423 3 455 2 454 237 491
132 20 184 19 238 -7z m-891 -145 c60 -32 65 -53 81 -369 23 -450 13 -470
-244 -484 -179 -10 -200 14 -215 235 -6 75 -15 199 -21 277 -17 216 -7 264 65
318 60 45 265 59 334 23z"/>
<path d="M38 4053 c-38 -4 -38 -4 -38 -58 0 -52 2 -55 33 -69 46 -20 89 -55
132 -106 83 -102 403 -414 465 -454 36 -24 88 -62 115 -86 141 -122 359 -117
469 12 71 82 94 242 49 338 -38 82 -158 193 -244 225 -41 15 -107 45 -147 67
-85 46 -182 72 -347 94 -66 8 -147 22 -180 30 -56 13 -215 16 -307 7z"/>
<path d="M1638 2968 c-10 -7 -42 -48 -70 -90 -114 -168 -183 -265 -218 -308
-21 -25 -49 -64 -64 -88 -14 -23 -49 -67 -76 -97 -27 -30 -61 -73 -75 -96 -15
-22 -50 -66 -79 -98 -29 -31 -71 -84 -93 -117 -23 -32 -53 -70 -68 -84 -15
-14 -50 -54 -78 -90 -28 -36 -80 -96 -117 -135 -36 -38 -75 -82 -85 -96 -11
-14 -47 -46 -80 -71 -33 -26 -76 -63 -95 -83 -20 -22 -69 -53 -116 -75 -180
-84 -206 -246 -79 -500 23 -47 50 -110 60 -140 25 -77 42 -110 79 -148 17 -18
60 -72 96 -119 116 -154 211 -207 284 -159 64 41 146 287 196 586 24 146 40
200 87 293 18 37 49 127 69 199 28 108 44 146 83 208 45 70 81 152 81 185 0
35 36 114 81 179 33 47 58 97 74 152 16 50 41 103 66 138 22 31 66 114 98 185
32 70 69 143 84 162 94 124 95 307 1 317 -16 2 -37 -3 -46 -10z"/>
<path d="M5633 1445 c-93 -40 -75 -163 42 -275 20 -19 56 -73 80 -120 24 -47
64 -112 90 -145 26 -33 62 -91 80 -130 17 -38 53 -95 79 -125 26 -30 63 -84
81 -120 32 -62 64 -103 195 -251 112 -126 237 -137 334 -29 112 124 126 351
31 496 -18 28 -47 79 -65 113 -37 75 -176 219 -265 276 -33 21 -80 55 -105 76
-25 21 -81 53 -125 72 -44 18 -115 57 -159 85 -119 79 -225 107 -293 77z"/>
<path d="M4378 1420 c-121 -22 -120 -118 4 -269 24 -29 61 -79 83 -110 108
-155 315 -365 376 -381 86 -23 184 7 227 70 51 76 69 237 34 312 -28 61 -165
201 -219 226 -265 119 -424 167 -505 152z"/>
<path d="M2634 1272 c-28 -22 -48 -64 -64 -132 -20 -83 -35 -113 -88 -174 -27
-31 -64 -84 -82 -118 -18 -35 -47 -81 -65 -103 -90 -112 -125 -339 -72 -467
33 -78 148 -142 246 -136 134 7 230 93 338 302 58 112 66 516 13 697 -33 116
-157 188 -226 131z"/>
<path d="M3375 1265 c-87 -45 -64 -149 72 -322 36 -45 55 -82 84 -158 35 -93
204 -245 273 -245 43 0 111 36 145 77 81 99 66 365 -26 447 -173 154 -445 253
-548 201z"/>
</g>
</svg>
