<svg xmlns="http://www.w3.org/2000/svg" viewBox="0 0 466.000000 373.118919">
<g transform="translate(0.000000,381.961026) scale(0.100000,-0.100000)" fill="#000000" stroke="none">
<path d="M2316 3789 c-24 -28 -26 -37 -25 -128 1 -122 -6 -161 -43 -234 -16
-32 -37 -92 -48 -134 -10 -42 -34 -101 -53 -132 -19 -31 -40 -74 -47 -96 -7
-22 -25 -57 -42 -78 -16 -20 -41 -63 -54 -94 -14 -32 -39 -72 -55 -90 -16 -19
-40 -55 -53 -81 -13 -26 -36 -58 -50 -71 -15 -14 -37 -43 -51 -66 -13 -23 -40
-54 -59 -68 -44 -34 -54 -62 -30 -88 27 -30 77 -25 121 14 21 18 60 46 86 61
27 15 51 34 53 41 3 7 24 25 47 40 23 15 61 48 83 74 l42 46 83 -1 c165 -1
523 18 608 32 248 43 343 55 526 64 348 19 407 32 435 99 22 54 6 86 -71 137
-88 58 -114 64 -269 65 -160 0 -245 -13 -369 -55 -55 -19 -135 -40 -178 -46
-87 -13 -142 -27 -222 -59 -78 -31 -284 -65 -311 -51 -38 20 -17 77 59 165 29
32 61 79 71 103 11 24 33 61 50 81 16 21 38 58 49 82 10 24 36 60 56 79 42 40
75 107 75 153 -1 43 -33 111 -66 139 -15 13 -44 37 -64 55 -25 22 -60 38 -113
52 -109 30 -139 28 -171 -10z"/>
<path d="M565 3409 c-53 -32 -46 -58 31 -132 37 -34 115 -109 174 -167 144
-142 201 -189 260 -211 95 -36 217 -13 252 46 21 37 33 129 24 180 -14 70
-144 184 -212 185 -11 0 -43 12 -70 26 -100 52 -108 54 -379 79 -39 4 -67 1
-80 -6z"/>
<path d="M3496 2605 c-21 -7 -43 -18 -49 -24 -18 -18 -11 -65 17 -108 26 -39
28 -50 30 -147 1 -97 -1 -106 -23 -130 -14 -15 -55 -35 -100 -50 -105 -34
-144 -40 -185 -26 -40 13 -46 36 -21 80 23 40 18 83 -14 126 -39 54 -53 65
-155 118 -79 41 -95 46 -130 40 -75 -12 -90 -42 -71 -135 8 -35 21 -84 29
-108 30 -83 14 -175 -34 -201 -18 -10 -190 -40 -227 -40 -8 0 -25 11 -38 24
-22 22 -24 30 -18 88 l6 64 -69 54 c-49 39 -83 57 -124 67 -73 17 -135 16
-170 -2 -43 -22 -40 -58 10 -119 22 -27 43 -60 46 -75 3 -14 7 -35 9 -47 3
-11 0 -36 -6 -56 -14 -51 -78 -82 -156 -76 -73 6 -86 23 -77 99 11 101 -20
151 -126 204 -125 63 -223 81 -268 49 -12 -8 -22 -24 -22 -35 0 -32 46 -114
95 -169 40 -46 45 -56 45 -100 0 -74 -15 -84 -146 -99 -140 -16 -253 -37 -270
-52 -8 -6 -14 -27 -14 -45 0 -46 29 -63 144 -82 79 -14 105 -14 153 -4 109 22
162 12 186 -35 13 -25 36 -161 52 -314 7 -66 -7 -103 -44 -118 -31 -12 -168
-21 -419 -26 -124 -2 -188 -7 -197 -15 -22 -18 -18 -47 8 -65 69 -49 163 -97
208 -105 116 -22 271 -8 479 45 52 13 154 29 225 35 157 13 251 25 370 51 201
42 672 63 1260 55 295 -4 497 -11 585 -20 216 -24 245 -22 318 21 34 20 62 40
62 45 0 5 -23 37 -50 72 -45 57 -61 69 -154 115 -130 64 -187 72 -404 61 -171
-10 -242 -21 -314 -51 -60 -25 -93 -24 -119 2 -31 31 -23 130 19 224 17 39 38
102 48 140 39 159 44 161 329 144 l211 -12 62 28 c109 49 110 83 6 161 -86 64
-146 85 -309 105 -115 14 -123 21 -107 97 23 110 18 134 -36 187 -72 68 -84
75 -174 90 -101 18 -122 18 -172 0z m-108 -690 c43 -13 51 -54 31 -163 -10
-53 -24 -132 -30 -176 -26 -167 -80 -211 -271 -218 -88 -4 -105 43 -74 197 8
39 20 121 26 184 6 63 15 122 21 132 16 31 50 42 149 49 97 7 108 6 148 -5z
m-616 -35 c57 -16 61 -32 49 -176 -6 -69 -11 -164 -11 -212 0 -103 -13 -158
-42 -173 -11 -6 -66 -13 -122 -16 -91 -4 -105 -2 -126 15 l-24 20 0 223 c0
296 -4 289 164 317 30 5 60 10 65 11 6 0 27 -4 47 -9z m-521 -109 c21 -17 23
-30 36 -215 18 -277 8 -299 -142 -311 -72 -6 -83 -5 -107 14 -31 25 -32 29
-49 278 -11 158 -11 173 5 198 25 38 71 54 157 55 60 0 82 -4 100 -19z"/>
<path d="M18 2533 c-13 -3 -18 -15 -18 -39 0 -28 5 -36 25 -44 14 -5 96 -82
182 -171 87 -88 169 -167 183 -174 14 -7 48 -31 74 -54 111 -91 267 -69 321
45 22 46 23 139 2 179 -23 46 -108 120 -153 135 -21 7 -66 27 -99 45 -39 20
-88 36 -140 44 -44 6 -114 18 -155 26 -71 14 -184 18 -222 8z"/>
<path d="M1018 1853 c-9 -10 -27 -36 -42 -58 -24 -37 -61 -89 -155 -222 -19
-26 -52 -67 -73 -90 -21 -24 -38 -46 -38 -51 0 -4 -15 -23 -33 -42 -19 -19
-47 -53 -63 -76 -66 -92 -244 -289 -293 -325 -21 -16 -41 -35 -44 -43 -3 -8
-35 -28 -71 -45 -80 -38 -98 -67 -98 -157 0 -51 7 -77 36 -137 19 -41 44 -98
55 -127 20 -52 52 -95 152 -201 43 -46 62 -59 85 -59 41 0 50 9 82 76 30 61
60 174 87 328 9 49 27 110 40 136 13 26 36 89 50 141 14 52 34 105 44 119 31
43 50 86 61 136 6 27 27 72 46 101 20 28 42 73 50 99 8 26 27 68 43 93 17 25
42 73 56 106 15 33 42 85 61 115 42 68 54 138 30 175 -19 29 -47 32 -68 8z"/>
<path d="M3502 894 c-14 -9 -22 -26 -22 -43 0 -28 44 -105 74 -130 10 -8 30
-40 46 -71 16 -32 40 -71 55 -88 14 -17 35 -51 46 -77 11 -26 36 -63 54 -83
18 -21 42 -55 53 -77 28 -54 139 -183 173 -201 47 -24 94 -18 134 18 56 48 75
95 75 180 0 58 -5 83 -22 115 -13 23 -36 65 -52 94 -48 89 -204 222 -319 273
-31 14 -71 36 -89 49 -72 53 -163 71 -206 41z"/>
<path d="M2698 878 c-8 -7 -18 -20 -21 -29 -7 -21 23 -87 60 -130 16 -19 43
-54 60 -79 17 -25 71 -87 120 -138 l88 -92 57 0 c95 0 138 55 138 175 -1 58
-9 74 -72 144 -35 39 -64 59 -120 82 -179 76 -273 96 -310 67z"/>
<path d="M1649 800 c-18 -10 -32 -42 -49 -108 -6 -24 -26 -60 -44 -80 -18 -20
-44 -57 -56 -82 -13 -24 -35 -60 -51 -80 -37 -46 -53 -115 -47 -200 6 -82 23
-112 80 -141 51 -26 98 -27 156 -4 34 14 52 32 90 89 64 97 72 123 79 256 6
122 -7 241 -33 295 -24 51 -86 78 -125 55z"/>
<path d="M2092 784 c-37 -26 -26 -68 45 -168 20 -27 48 -77 63 -110 35 -79
126 -166 173 -166 42 0 92 32 113 71 19 38 16 176 -6 222 -15 31 -149 121
-222 149 -59 22 -136 23 -166 2z"/>
</g>
</svg>
