<svg xmlns="http://www.w3.org/2000/svg" viewBox="0 0 607.880797 709.581955">
<g transform="translate(0.000000,724.747107) scale(0.100000,-0.100000)" fill="#000000" stroke="none">
<path d="M2705 7241 c-154 -38 -185 -142 -99 -335 70 -158 75 -182 81 -401 6
-239 -5 -362 -46 -510 -18 -60 -36 -141 -41 -180 -16 -113 -30 -153 -65 -184
-38 -33 -49 -34 -440 -51 -281 -12 -360 -17 -540 -35 -77 -8 -185 -17 -240
-20 -156 -10 -205 -40 -205 -123 0 -77 40 -104 225 -151 256 -64 270 -65 655
-66 323 0 357 -2 382 -18 52 -36 71 -123 48 -222 -5 -22 -17 -92 -26 -155 -11
-78 -27 -144 -51 -205 -20 -49 -49 -130 -65 -180 -73 -222 -71 -221 -408 -245
-156 -10 -252 -23 -610 -79 -580 -91 -727 -93 -883 -15 -72 37 -119 39 -256
14 -121 -23 -121 -23 -121 -155 0 -133 0 -133 35 -139 79 -15 102 -53 135
-230 12 -59 37 -165 56 -234 74 -273 93 -534 102 -1482 8 -787 2 -727 93 -843
24 -30 56 -75 71 -100 32 -55 75 -79 140 -79 94 1 137 47 164 173 34 157 -19
1592 -93 2553 -16 201 77 250 557 291 203 17 459 48 580 70 74 13 187 31 250
39 63 9 147 23 185 31 39 8 171 20 295 25 124 5 259 14 300 20 270 35 336 -25
300 -271 -9 -66 -22 -104 -63 -183 -29 -56 -60 -122 -71 -149 -10 -26 -42 -80
-71 -120 -29 -39 -66 -99 -83 -132 -53 -105 -87 -124 -262 -150 -63 -9 -134
-21 -158 -26 -117 -25 -343 -51 -572 -64 -306 -18 -350 -25 -385 -66 -28 -34
-30 -47 -14 -83 38 -83 405 -125 785 -90 134 12 207 -40 242 -173 57 -207 15
-279 -180 -310 -51 -8 -187 -32 -303 -53 -308 -57 -334 -61 -516 -69 -132 -6
-174 -12 -205 -27 -86 -42 -63 -111 64 -194 152 -100 270 -105 583 -27 108 27
239 53 312 61 246 27 281 -5 271 -238 -10 -223 11 -904 30 -963 37 -117 161
-139 259 -45 91 87 144 398 151 883 6 453 -38 425 711 459 127 6 300 9 385 8
155 -3 155 -3 231 33 143 68 154 119 52 233 -90 99 -105 110 -215 153 -115 46
-236 50 -402 14 -54 -11 -169 -28 -255 -36 -86 -9 -195 -25 -243 -36 -171 -41
-217 8 -205 221 9 165 44 215 170 240 34 7 99 21 144 31 46 10 136 23 200 29
151 14 264 36 328 65 117 51 165 169 95 229 -72 60 -263 84 -385 48 -99 -29
-258 -56 -288 -48 -64 16 -35 123 56 206 64 59 115 112 240 246 131 141 166
248 113 351 -33 66 -33 97 0 128 33 31 37 31 349 45 143 6 323 16 400 21 363
23 554 2 617 -68 31 -34 119 -234 135 -307 40 -179 3 -1691 -51 -2076 -8 -58
-22 -184 -31 -280 -20 -230 -29 -258 -109 -352 -92 -106 -145 -128 -269 -108
-114 18 -285 66 -372 105 -147 64 -245 46 -245 -47 0 -39 5 -47 84 -124 46
-45 94 -100 106 -123 11 -24 45 -69 75 -101 30 -32 63 -77 75 -100 12 -23 46
-68 76 -101 30 -32 68 -82 85 -109 36 -58 166 -181 218 -206 74 -36 200 -28
298 18 68 32 233 220 281 321 21 45 62 113 90 150 37 48 58 88 73 140 11 39
38 124 59 187 37 113 60 227 79 405 6 50 15 369 21 710 20 1192 25 1270 82
1395 16 36 46 114 65 174 40 125 74 170 136 181 38 7 38 7 35 158 -3 150 -3
150 -51 162 -38 10 -63 26 -110 72 -34 33 -93 81 -132 106 -38 26 -88 59 -110
75 -22 16 -78 43 -125 61 -46 18 -106 45 -131 61 -129 79 -217 80 -424 2 -127
-47 -207 -61 -482 -82 -298 -23 -409 -36 -773 -90 -253 -37 -392 -51 -615 -65
-55 -4 -147 -15 -204 -26 -169 -32 -208 -4 -199 140 4 66 11 89 53 171 65 130
82 183 105 335 48 310 73 334 380 355 239 16 413 38 555 70 151 33 330 65 465
81 268 32 434 165 360 287 -21 34 -36 42 -225 125 -182 80 -346 76 -544 -13
-141 -64 -576 -136 -668 -111 -90 24 -103 89 -49 229 19 48 39 121 46 162 16
102 35 161 85 255 24 44 51 107 60 140 24 84 40 112 101 176 62 66 74 105 49
167 -21 51 -130 149 -213 191 -32 16 -75 43 -97 61 -64 52 -105 68 -263 105
-155 36 -167 38 -217 26z"/>
<path d="M1804 3691 c-95 -59 -88 -147 23 -276 33 -39 72 -92 88 -118 29 -51
182 -192 224 -209 33 -12 40 -9 135 74 119 105 131 125 131 217 0 159 -110
260 -330 303 -160 30 -234 33 -271 9z"/>
</g>
</svg>
