<svg xmlns="http://www.w3.org/2000/svg" viewBox="0 0 760.000000 886.743205">
<g transform="translate(0.000000,905.449005) scale(0.100000,-0.100000)" fill="#000000" stroke="none">
<path d="M3348 9041 c-154 -61 -189 -188 -104 -381 102 -231 116 -306 116
-631 0 -233 -13 -352 -60 -539 -21 -85 -45 -199 -54 -254 -33 -197 -93 -246
-302 -246 -32 0 -131 -4 -219 -10 -88 -5 -253 -14 -366 -20 -113 -6 -282 -17
-375 -26 -93 -8 -228 -19 -301 -24 -220 -15 -288 -50 -288 -148 0 -91 49 -133
212 -180 328 -96 610 -121 1153 -102 198 7 281 -46 280 -179 -1 -97 -78 -488
-115 -581 -20 -52 -58 -157 -84 -232 -86 -247 -92 -252 -414 -279 -273 -23
-343 -32 -1102 -143 -511 -75 -639 -74 -839 9 -120 50 -153 52 -332 24 -154
-24 -154 -24 -154 -196 0 -171 0 -173 22 -173 94 0 146 -73 183 -255 14 -71
46 -204 70 -295 105 -391 135 -856 139 -2175 1 -600 1 -591 69 -692 185 -268
182 -265 259 -282 184 -42 272 104 273 454 1 447 -86 2371 -126 2806 -38 403
12 438 736 509 423 41 587 61 780 95 490 85 566 95 790 105 121 5 297 17 390
26 185 18 249 12 311 -25 105 -64 102 -312 -5 -526 -28 -55 -69 -140 -91 -189
-22 -50 -67 -126 -98 -170 -32 -45 -75 -112 -96 -151 -47 -88 -86 -128 -146
-154 -49 -21 -474 -94 -615 -106 -44 -3 -123 -13 -175 -20 -52 -8 -171 -19
-265 -25 -424 -28 -456 -33 -506 -83 -58 -57 -24 -141 69 -171 201 -65 558
-93 766 -60 279 45 394 -35 434 -302 31 -202 -29 -253 -358 -309 -113 -19
-288 -50 -390 -69 -231 -43 -408 -66 -513 -66 -298 -2 -390 -83 -248 -221 177
-173 355 -193 784 -89 463 112 650 114 712 9 19 -33 20 -58 26 -654 8 -836 24
-905 200 -905 235 0 334 327 346 1140 7 481 17 510 199 559 95 25 844 64 1154
59 342 -5 524 113 421 273 -160 249 -431 339 -812 269 -90 -16 -249 -39 -354
-51 -104 -11 -230 -29 -280 -40 -198 -44 -264 22 -252 255 9 184 48 264 147
299 82 29 382 86 535 102 323 34 447 82 505 196 95 185 -180 302 -517 220
-272 -66 -355 -63 -361 13 -6 77 21 121 162 261 383 380 438 478 376 665 -52
154 -10 206 177 216 48 2 232 11 408 20 176 8 398 19 494 24 361 17 551 -13
626 -102 39 -46 131 -242 158 -336 54 -191 16 -2110 -53 -2627 -11 -83 -29
-242 -40 -355 -31 -308 -46 -348 -169 -472 -152 -152 -307 -144 -811 41 -257
94 -350 -45 -155 -234 45 -44 102 -109 126 -145 23 -36 66 -92 94 -125 29 -33
73 -92 98 -131 25 -39 65 -93 88 -120 24 -27 77 -93 117 -146 209 -279 402
-345 645 -221 88 44 269 251 337 385 29 57 74 132 101 168 68 94 89 141 158
359 123 389 136 509 151 1446 26 1607 22 1555 144 1880 21 55 50 132 64 170
33 90 90 151 150 161 42 7 42 7 42 200 0 181 -1 194 -18 194 -50 0 -116 35
-184 99 -40 37 -118 98 -173 136 -55 37 -118 81 -141 96 -22 15 -78 43 -125
62 -46 19 -131 58 -189 86 -182 89 -264 90 -507 7 -211 -71 -282 -84 -648
-111 -312 -23 -485 -43 -825 -92 -481 -69 -500 -71 -735 -88 -121 -9 -278 -25
-349 -37 -322 -51 -389 60 -233 388 78 166 100 235 127 414 58 371 105 417
442 440 332 22 517 47 830 111 109 22 291 53 405 70 232 33 272 43 362 88 206
104 236 267 66 353 -347 177 -566 195 -865 68 -161 -68 -189 -74 -726 -145
-190 -26 -248 87 -164 314 16 45 41 136 54 204 27 134 46 189 99 287 20 36 51
111 71 167 45 132 52 145 125 227 139 157 77 305 -189 453 -36 20 -99 60 -141
89 -167 113 -502 191 -621 145z"/>
<path d="M2268 4619 c-124 -65 -118 -194 16 -351 34 -40 84 -105 110 -145 102
-155 283 -286 347 -253 45 24 220 194 242 234 77 146 -21 357 -207 445 -137
65 -440 107 -508 70z"/>
</g>
</svg>
