<svg xmlns="http://www.w3.org/2000/svg" viewBox="0 0 380.000000 443.107294">
<g transform="translate(0.000000,452.534714) scale(0.100000,-0.100000)" fill="#000000" stroke="none">
<path d="M1670 4519 c-82 -34 -91 -96 -32 -223 l37 -81 3 -171 c3 -164 2 -177
-27 -296 -17 -68 -31 -133 -31 -144 0 -35 -21 -84 -40 -94 -9 -5 -118 -14
-241 -20 -189 -9 -398 -25 -572 -44 -48 -5 -77 -31 -77 -66 0 -44 29 -68 110
-90 170 -46 396 -66 554 -50 125 14 174 -19 163 -108 -20 -157 -37 -234 -65
-299 -18 -39 -37 -93 -42 -121 -19 -85 -34 -92 -215 -108 -86 -8 -240 -27
-343 -44 -255 -41 -458 -62 -512 -55 -24 4 -66 18 -92 31 -53 27 -90 29 -183
12 l-65 -13 0 -80 0 -81 35 -13 c44 -15 51 -30 71 -133 8 -46 24 -112 34 -148
46 -156 60 -358 64 -910 l2 -457 28 -44 c86 -139 105 -159 153 -159 68 0 98
34 114 128 15 89 -20 1064 -51 1441 -16 195 -15 208 23 246 41 41 76 48 352
75 116 11 257 29 315 39 58 11 134 23 169 26 35 4 78 12 95 17 17 5 110 13
206 18 96 5 207 12 245 16 66 6 73 5 100 -19 29 -24 30 -29 29 -105 -1 -75 -4
-87 -54 -188 -29 -60 -67 -129 -85 -154 -18 -25 -42 -64 -54 -87 -26 -53 -38
-59 -147 -77 -49 -8 -141 -23 -204 -34 -63 -11 -187 -23 -275 -27 -173 -7
-219 -16 -236 -46 -13 -24 -3 -56 20 -68 46 -25 219 -42 388 -39 l172 3 26
-26 c14 -14 32 -50 40 -80 29 -109 14 -160 -53 -179 -101 -27 -460 -83 -576
-89 -117 -6 -130 -9 -147 -29 -25 -32 -9 -63 50 -101 113 -73 162 -76 371 -26
80 19 186 38 235 41 141 9 129 42 136 -378 7 -426 10 -438 103 -438 96 0 148
131 166 423 6 88 10 204 9 257 -1 108 7 132 51 155 39 20 222 35 505 40 223 5
231 6 283 31 88 43 88 76 3 157 -87 83 -189 117 -296 98 -33 -6 -116 -18 -185
-26 -69 -9 -158 -23 -198 -31 -66 -15 -75 -14 -97 0 -32 21 -39 51 -33 141 5
82 24 120 66 136 36 14 204 44 320 58 111 14 163 33 197 73 56 67 20 119 -96
138 -63 11 -79 10 -154 -9 -111 -29 -180 -37 -189 -22 -20 32 9 76 126 195
120 120 168 190 168 244 0 12 -9 41 -20 63 -25 47 -19 73 18 87 33 13 610 37
709 30 105 -8 128 -25 177 -133 l41 -90 3 -318 c3 -314 -18 -872 -37 -975 -5
-26 -15 -108 -21 -182 -7 -74 -18 -149 -25 -167 -7 -17 -35 -54 -62 -82 -48
-49 -51 -51 -104 -51 -66 0 -202 33 -273 66 -66 31 -141 33 -156 4 -17 -31 -1
-68 47 -107 24 -20 51 -49 59 -65 8 -15 35 -50 59 -78 25 -28 45 -55 45 -61 0
-5 17 -28 38 -52 22 -23 51 -60 65 -82 41 -61 130 -132 174 -139 22 -4 63 0
98 9 54 14 67 23 128 88 40 42 80 97 96 132 16 33 37 68 48 78 24 21 41 59 83
190 55 169 59 220 69 767 13 655 17 729 42 799 11 31 31 86 43 122 33 93 43
109 82 125 l34 14 0 89 c0 88 0 89 -27 96 -15 3 -51 29 -80 56 -28 27 -56 49
-61 49 -6 0 -29 15 -51 34 -23 19 -67 44 -99 56 -31 12 -80 35 -108 51 -64 36
-138 39 -216 8 -95 -38 -150 -49 -338 -64 -102 -9 -293 -31 -425 -50 -132 -19
-308 -39 -391 -45 -83 -6 -166 -15 -185 -20 -85 -25 -119 -3 -119 77 0 36 8
66 28 104 44 82 61 135 76 240 23 163 45 187 187 200 272 25 322 32 419 54 58
13 159 31 225 40 181 25 275 75 275 148 0 42 -14 55 -115 102 -71 34 -91 38
-176 43 -87 4 -101 2 -160 -23 -35 -15 -83 -33 -106 -40 -49 -16 -260 -45
-326 -45 -76 0 -97 51 -57 139 11 23 25 73 30 110 6 39 24 93 44 132 18 36 41
90 49 120 11 38 28 66 57 94 33 33 40 46 40 79 0 34 -6 45 -47 83 -27 25 -61
51 -78 60 -16 9 -51 31 -76 49 -71 52 -265 96 -319 73z"/>
<path d="M1109 2291 c-16 -16 -29 -37 -29 -46 0 -24 35 -87 64 -114 15 -14 37
-43 50 -65 23 -39 138 -146 157 -146 16 0 123 102 142 134 21 38 22 64 1 116
-19 48 -89 106 -143 119 -163 38 -205 39 -242 2z"/>
</g>
</svg>
