<svg xmlns="http://www.w3.org/2000/svg" viewBox="0 0 439.000000 422.862628">
<g transform="translate(-11.000000,422.862628) scale(0.100000,-0.100000)" fill="#000000" stroke="none">
<path d="M2790 4194 c-48 -43 -48 -56 -9 -159 22 -57 24 -72 23 -290 -2 -223
-13 -338 -45 -460 -16 -57 -67 -101 -131 -114 -137 -25 -376 -52 -467 -52
-115 1 -146 -8 -163 -43 -20 -44 8 -70 119 -108 98 -33 98 -33 307 -35 163 -1
212 -5 223 -15 27 -28 27 -82 -1 -164 -18 -50 -32 -122 -40 -206 -21 -200 -25
-203 -301 -233 -77 -9 -194 -18 -260 -21 -108 -6 -126 -4 -180 16 -97 35 -119
36 -144 5 -23 -30 -28 -94 -11 -139 5 -14 24 -92 42 -174 31 -146 32 -149 32
-427 0 -264 -2 -288 -28 -430 -78 -419 -86 -674 -23 -778 28 -47 83 -87 119
-87 34 0 92 49 121 104 l22 41 3 795 c1 437 5 810 8 828 7 44 31 57 159 82 61
12 133 28 160 36 28 8 142 22 255 30 113 8 240 21 283 29 89 16 112 11 150
-34 41 -49 42 -77 7 -202 -35 -125 -46 -151 -102 -226 -45 -61 -58 -66 -183
-67 l-90 -1 -3 28 c-2 17 7 45 22 72 36 60 35 115 -1 155 -41 45 -178 127
-234 140 -42 10 -53 10 -74 -4 -16 -11 -25 -26 -25 -43 0 -32 83 -208 115
-243 32 -35 70 -129 58 -141 -5 -5 -47 -14 -93 -20 -132 -16 -186 -50 -160
-99 19 -35 52 -44 197 -49 135 -6 144 -7 167 -31 24 -26 66 -136 66 -176 0
-65 -37 -83 -266 -129 -98 -20 -187 -38 -196 -41 -46 -14 -63 -68 -30 -96 27
-24 118 -41 181 -35 31 4 97 13 147 20 102 15 135 9 153 -29 7 -17 11 -113 11
-292 0 -407 15 -482 92 -482 62 0 112 50 131 131 11 45 55 457 63 579 4 63 10
125 15 137 17 45 51 52 351 68 242 13 287 18 308 34 30 22 38 72 16 105 -19
29 -88 62 -173 82 -73 17 -100 14 -298 -29 -116 -25 -156 -22 -170 11 -4 9
-11 51 -16 92 -5 41 -12 91 -15 112 -8 49 1 52 181 78 217 32 321 69 347 125
29 65 -71 112 -212 99 -58 -5 -84 -3 -95 6 -28 23 -17 63 35 128 51 64 100
150 100 177 0 9 -9 34 -20 56 -23 43 -19 73 9 89 10 5 113 10 230 11 l211 2
46 -29 c62 -38 78 -62 115 -169 l31 -90 -11 -291 c-13 -347 -26 -550 -51 -781
-18 -167 -19 -174 -56 -235 -71 -117 -91 -128 -211 -109 -102 16 -166 38 -208
71 -39 31 -82 39 -103 18 -24 -24 -13 -60 33 -109 25 -26 45 -54 45 -62 0 -8
18 -34 40 -59 21 -25 48 -70 60 -100 11 -30 32 -70 46 -89 14 -18 36 -56 49
-84 12 -27 36 -63 53 -79 18 -16 36 -44 43 -63 l11 -33 83 0 83 0 12 35 c8 25
24 43 54 60 52 30 138 121 165 172 10 21 30 49 44 61 34 32 40 49 88 237 48
191 55 275 67 897 l9 408 36 72 c20 40 45 95 56 121 17 39 28 51 61 65 l40 17
0 71 0 71 -38 6 c-26 5 -50 19 -77 47 -24 24 -61 48 -95 61 -30 11 -67 32 -81
45 -23 22 -184 88 -261 107 -19 5 -52 -1 -100 -18 -57 -20 -112 -29 -248 -41
-175 -14 -249 -24 -478 -64 -74 -12 -154 -20 -200 -18 -71 3 -77 5 -91 30 -15
26 -14 29 17 73 26 38 37 68 52 151 13 72 32 133 63 201 52 114 76 133 167
133 92 0 218 19 365 55 77 18 181 39 230 45 111 15 146 31 185 83 40 55 38 77
-11 122 -65 59 -121 79 -214 79 -71 0 -89 -4 -160 -36 -48 -22 -116 -43 -170
-52 -49 -9 -123 -27 -163 -41 -88 -30 -123 -31 -145 -7 -23 25 -22 35 12 133
16 46 36 126 45 177 9 51 27 115 41 142 13 26 33 79 44 117 10 38 29 89 41
113 37 72 15 127 -73 185 -29 19 -61 41 -72 49 -22 17 -161 57 -216 64 -32 3
-43 -2 -79 -34z"/>
<path d="M1306 4190 c-55 -17 -66 -36 -66 -117 0 -47 -10 -112 -26 -175 -27
-108 -43 -146 -69 -168 -9 -8 -28 -37 -42 -64 -14 -28 -39 -67 -55 -86 -16
-19 -44 -56 -61 -82 -82 -122 -344 -398 -492 -521 -38 -31 -87 -71 -108 -88
-46 -38 -52 -85 -13 -95 34 -8 128 21 152 47 10 12 46 35 79 51 33 17 75 44
93 59 18 16 54 40 80 53 27 14 67 41 91 60 24 20 47 36 52 36 6 0 31 19 57 43
26 23 63 54 82 68 73 54 357 344 493 503 23 27 60 68 83 90 50 50 64 75 64
117 0 27 -13 45 -80 111 -44 43 -84 78 -89 78 -5 0 -28 16 -51 35 -58 49 -113
63 -174 45z"/>
<path d="M1421 3171 c-20 -20 -25 -39 -36 -141 -4 -33 -18 -75 -35 -105 -16
-27 -37 -73 -48 -102 -11 -29 -34 -70 -51 -92 -17 -22 -38 -55 -46 -75 -9 -20
-31 -53 -49 -74 -18 -20 -43 -56 -55 -79 -12 -23 -36 -59 -54 -79 -17 -20 -41
-52 -52 -69 -110 -177 -417 -501 -650 -686 -66 -53 -126 -103 -134 -113 -8
-10 -34 -31 -58 -47 -34 -24 -43 -36 -43 -59 0 -56 70 -67 124 -20 18 17 68
46 109 64 41 19 96 51 122 70 25 20 51 36 57 36 9 0 137 90 205 145 17 14 52
37 78 51 25 15 57 43 71 64 42 63 110 80 140 35 23 -35 15 -241 -27 -705 -5
-63 -25 -178 -44 -255 -18 -77 -41 -199 -50 -271 -14 -118 -14 -144 -1 -257 8
-71 22 -139 32 -158 38 -76 105 -170 127 -178 26 -10 80 9 113 40 22 20 67
163 78 244 3 22 10 252 16 510 5 259 12 571 15 695 3 124 9 245 15 270 22 105
6 209 -36 237 -33 21 -57 68 -48 96 3 12 27 45 53 73 69 77 115 134 143 179
14 22 37 51 52 64 14 14 38 44 51 68 14 23 34 47 45 53 11 6 29 29 41 51 11
23 40 65 63 93 52 65 106 157 106 182 -1 35 -79 144 -130 180 -28 20 -50 40
-50 45 0 16 -59 39 -100 39 -26 0 -47 -7 -59 -19z"/>
</g>
</svg>
