<svg xmlns="http://www.w3.org/2000/svg" viewBox="0 0 861.570013 887.554206">
<g transform="translate(-18.429987,903.840322) scale(0.100000,-0.100000)" fill="#000000" stroke="none">
<path d="M4995 9026 c-174 -55 -203 -158 -95 -346 101 -176 134 -642 80 -1117
-37 -318 -72 -361 -320 -399 -58 -8 -197 -33 -310 -55 -380 -72 -557 -99 -726
-109 -268 -17 -324 -37 -324 -111 0 -83 250 -246 406 -264 99 -11 593 68 789
127 296 89 364 -68 224 -519 -79 -255 -98 -342 -124 -551 -35 -281 -121 -332
-660 -392 -99 -11 -214 -24 -255 -30 -175 -23 -263 -9 -407 64 -374 187 -596
115 -502 -166 21 -66 34 -132 45 -237 8 -80 24 -204 35 -276 28 -185 27 -178
44 -415 52 -749 42 -1075 -60 -1945 -51 -443 -68 -893 -40 -1080 65 -434 379
-592 541 -273 66 131 63 -15 54 2573 -5 1377 -8 1316 56 1380 39 39 99 55 207
55 40 0 99 4 131 10 105 17 166 -9 221 -92 132 -203 156 -249 196 -372 34
-106 49 -138 90 -189 27 -34 61 -84 77 -110 99 -176 146 -217 252 -225 101 -7
140 42 186 236 57 234 8 384 -175 536 -186 156 -202 230 -63 301 44 22 450 88
667 109 94 9 217 23 275 32 118 16 176 11 223 -20 114 -75 110 -351 -8 -518
-24 -35 -72 -108 -106 -163 -33 -55 -87 -131 -118 -170 -32 -38 -83 -104 -114
-146 -125 -170 -271 -239 -533 -254 -65 -4 -157 -16 -204 -27 -66 -16 -135
-22 -305 -27 -272 -8 -325 -30 -325 -132 0 -99 221 -178 498 -179 200 -1 260
-53 342 -297 102 -304 -7 -373 -728 -463 -377 -46 -427 -75 -358 -208 94 -182
357 -216 740 -96 316 100 376 30 376 -444 1 -386 27 -1112 44 -1202 57 -311
269 -303 427 16 63 126 95 446 109 1070 5 230 12 430 16 444 3 14 10 42 15 63
39 153 101 166 824 169 620 3 620 3 667 88 40 73 2 206 -75 263 -53 40 -354
185 -420 204 -145 41 -479 20 -626 -39 -166 -66 -226 -37 -266 132 -10 41 -29
106 -42 144 -59 177 -17 223 267 286 52 11 172 40 265 65 94 24 213 49 265 55
225 26 307 86 280 205 -37 163 -256 233 -552 175 -180 -35 -205 -20 -164 98
32 89 52 109 300 305 34 26 116 102 183 169 144 142 154 160 135 269 -36 208
-8 232 295 250 487 29 704 -79 771 -386 44 -203 6 -3180 -43 -3369 -67 -255
-148 -301 -537 -301 -317 0 -323 -1 -356 -69 -24 -48 -7 -77 120 -207 128
-132 175 -194 228 -299 18 -36 56 -96 85 -135 28 -38 68 -99 88 -135 146 -266
401 -263 630 8 123 145 135 164 182 282 25 63 63 142 85 175 90 132 94 146
154 540 25 160 52 333 61 385 18 108 27 356 50 1475 23 1109 30 1182 139 1390
29 55 65 132 81 170 65 164 134 245 210 245 12 0 15 15 15 84 0 83 0 83 -45
101 -28 10 -77 46 -128 94 -171 161 -306 253 -443 305 -39 15 -101 47 -137 71
-246 165 -517 178 -931 46 -204 -66 -271 -75 -841 -121 -66 -5 -179 -14 -252
-20 -163 -13 -435 -53 -547 -80 -322 -78 -378 104 -181 586 58 141 82 224 115
404 56 298 140 349 630 384 375 27 617 36 1010 36 388 0 422 3 480 43 146 99
79 292 -140 402 -275 138 -513 165 -835 92 -88 -20 -234 -45 -325 -56 -91 -12
-229 -31 -307 -43 -267 -41 -331 61 -206 327 35 74 58 142 73 210 29 142 44
183 102 277 201 332 175 489 -105 629 -56 28 -122 66 -147 84 -97 70 -153 90
-361 129 -149 28 -223 31 -284 12z"/>
<path d="M1122 8170 c-114 -27 -120 -136 -16 -265 31 -38 78 -101 104 -140 26
-38 62 -83 80 -100 18 -16 66 -70 107 -119 40 -49 111 -121 156 -161 45 -40
96 -87 112 -105 32 -34 161 -103 262 -140 286 -104 569 254 418 529 -34 62
-219 227 -308 274 -32 17 -147 51 -307 91 -140 35 -311 80 -380 99 -148 42
-184 48 -228 37z"/>
<path d="M273 5929 c-176 -51 -83 -272 221 -523 55 -46 119 -103 141 -126 22
-23 76 -64 120 -91 44 -27 108 -71 142 -98 262 -207 633 -86 660 216 11 120
-28 191 -177 327 -135 123 -170 136 -569 206 -129 23 -277 55 -329 71 -96 30
-152 34 -209 18z"/>
<path d="M1874 4139 c-33 -12 -62 -56 -84 -128 -19 -65 -36 -95 -123 -216 -26
-36 -56 -98 -76 -155 -18 -52 -61 -153 -96 -225 -35 -71 -80 -177 -100 -235
-20 -58 -62 -149 -92 -203 -31 -54 -75 -150 -99 -214 -28 -75 -64 -147 -104
-208 -33 -51 -76 -130 -94 -176 -42 -108 -48 -118 -116 -214 -31 -44 -72 -106
-90 -137 -19 -32 -72 -101 -119 -155 -206 -238 -228 -326 -139 -553 25 -63 58
-150 73 -194 15 -43 54 -118 87 -168 32 -49 78 -129 103 -178 66 -132 133
-194 215 -200 116 -9 154 36 210 245 111 418 131 516 170 835 20 167 44 273
140 624 16 60 43 195 59 301 24 151 41 227 85 361 64 197 83 269 130 497 52
244 70 310 118 422 74 175 44 312 -58 274z"/>
</g>
</svg>
