<svg xmlns="http://www.w3.org/2000/svg" viewBox="0 0 430.927770 443.834936">
<g transform="translate(-9.072230,451.856636) scale(0.100000,-0.100000)" fill="#000000" stroke="none">
<path d="M2480 4509 c-39 -16 -70 -50 -70 -79 0 -14 15 -49 34 -79 45 -69 56
-137 56 -335 0 -180 -16 -341 -36 -373 -22 -34 -64 -51 -166 -68 -51 -8 -151
-26 -223 -40 -71 -14 -184 -28 -250 -31 -165 -8 -206 -23 -189 -69 8 -19 131
-102 174 -117 44 -15 145 -5 320 33 203 44 223 46 249 20 12 -12 21 -34 21
-50 0 -47 -27 -170 -54 -248 -22 -65 -34 -128 -51 -265 -12 -93 -57 -120 -250
-152 -262 -42 -340 -42 -405 4 -25 17 -99 43 -156 55 -42 8 -101 -17 -115 -48
-9 -20 -7 -34 10 -72 14 -31 25 -87 32 -163 6 -64 13 -120 15 -124 12 -19 34
-387 34 -573 0 -159 -6 -261 -25 -420 -52 -444 -56 -736 -11 -824 25 -47 72
-97 106 -111 25 -10 34 -9 61 6 51 30 87 83 99 144 7 37 8 339 4 945 -7 926
-6 963 34 983 27 15 220 24 242 12 11 -6 27 -25 36 -43 9 -18 31 -54 49 -82
18 -27 39 -74 45 -103 8 -32 26 -70 46 -95 18 -23 43 -61 55 -85 24 -48 61
-72 113 -72 49 0 71 28 91 117 28 127 -2 198 -126 289 -57 42 -67 82 -26 109
40 26 456 90 570 88 71 -2 94 -47 82 -159 -5 -47 -14 -74 -38 -109 -18 -26
-48 -71 -67 -101 -129 -197 -188 -245 -334 -270 -45 -7 -101 -18 -125 -24 -23
-6 -98 -9 -165 -8 -103 3 -126 0 -149 -15 -36 -23 -37 -70 -3 -92 29 -19 178
-45 259 -45 51 0 62 -4 86 -27 15 -16 40 -63 55 -106 25 -70 27 -83 17 -117
-22 -75 -79 -95 -383 -131 -183 -21 -205 -29 -195 -72 9 -32 68 -89 109 -103
64 -24 206 -9 300 30 21 9 53 16 72 16 89 0 96 -20 101 -283 12 -611 20 -664
98 -683 24 -6 34 0 72 40 92 95 102 147 115 574 11 377 15 385 195 387 50 1
190 2 313 3 l223 2 26 26 c21 21 24 32 19 62 -9 57 -33 80 -151 140 l-110 57
-127 -1 c-118 -1 -132 -3 -179 -28 -28 -14 -58 -26 -68 -26 -35 0 -60 29 -67
78 -3 26 -15 68 -26 94 -23 53 -20 70 14 92 32 21 281 84 398 101 80 12 98 18
118 40 27 32 28 51 3 91 -38 62 -142 87 -251 59 -97 -25 -130 -29 -130 -16 0
28 53 112 86 138 64 49 127 104 197 170 66 62 69 67 63 102 -21 129 -22 120
16 135 57 24 268 25 348 1 87 -25 143 -80 159 -154 14 -65 15 -1000 1 -1413
-10 -305 -13 -324 -65 -392 -38 -50 -74 -58 -239 -54 -208 5 -223 -17 -100
-139 41 -42 89 -101 105 -132 17 -31 45 -77 62 -102 18 -26 40 -61 49 -78 19
-35 85 -70 131 -71 82 0 208 118 259 243 16 39 39 85 52 102 30 40 41 78 61
215 9 63 23 151 31 195 19 104 23 184 35 765 5 267 14 519 19 560 7 51 21 98
44 145 19 39 46 95 59 126 21 47 31 59 61 70 34 12 36 16 36 55 0 35 -4 44
-21 49 -12 4 -47 30 -79 59 -102 91 -140 117 -200 141 -32 13 -74 34 -92 48
-45 33 -90 47 -180 54 -89 7 -165 -6 -288 -47 -71 -24 -118 -31 -290 -45 -253
-20 -451 -44 -510 -61 -99 -30 -150 -11 -150 57 0 58 27 164 60 240 18 40 40
118 51 175 10 57 26 115 35 129 9 13 39 36 67 50 47 22 75 26 276 40 124 8
321 15 438 15 171 0 220 3 243 15 104 54 40 169 -130 235 -113 44 -203 50
-337 21 -54 -12 -152 -28 -218 -37 -210 -28 -219 -28 -234 -10 -24 28 -16 98
17 157 17 30 33 74 37 99 10 70 25 111 61 163 91 132 69 242 -58 297 -29 12
-71 36 -94 52 -29 21 -67 34 -138 48 -108 22 -148 24 -186 9z"/>
<path d="M523 4079 c-25 -25 -15 -77 21 -116 18 -21 45 -56 58 -78 14 -22 75
-90 135 -152 108 -112 157 -144 258 -174 39 -12 120 27 164 77 28 32 31 41 31
105 0 48 -5 79 -16 97 -26 42 -152 141 -193 151 -20 4 -108 28 -196 51 -179
48 -244 58 -262 39z"/>
<path d="M107 2952 c-21 -23 -21 -52 -3 -95 14 -34 212 -226 270 -261 19 -12
52 -35 76 -53 69 -53 187 -67 245 -29 67 44 103 147 76 214 -13 31 -127 137
-163 151 -13 5 -93 21 -178 36 -85 14 -170 33 -188 41 -49 20 -115 18 -135 -4z"/>
<path d="M918 2073 c-9 -10 -19 -34 -23 -53 -10 -45 -28 -80 -54 -104 -11 -10
-30 -48 -42 -85 -12 -36 -36 -95 -54 -131 -18 -36 -38 -83 -45 -105 -7 -22
-28 -68 -47 -103 -19 -34 -43 -87 -53 -116 -10 -29 -32 -73 -49 -96 -17 -23
-40 -67 -51 -98 -12 -30 -32 -69 -46 -85 -14 -16 -34 -47 -45 -68 -10 -21 -44
-66 -73 -99 -94 -105 -114 -170 -76 -244 11 -22 29 -67 40 -102 12 -35 32 -78
46 -96 13 -18 37 -60 53 -94 31 -65 65 -99 111 -109 37 -8 64 7 78 42 29 76
84 300 97 393 8 58 19 137 24 175 6 39 24 115 41 170 17 55 38 147 46 205 8
58 30 152 48 210 19 58 46 159 60 225 31 146 38 170 64 221 31 61 37 109 18
139 -19 29 -47 32 -68 8z"/>
</g>
</svg>
