<svg xmlns="http://www.w3.org/2000/svg" viewBox="0 0 427.888801 419.105076">
<g transform="translate(-9.000000,419.000000) scale(0.100000,-0.100000)" fill="#000000" stroke="none">
<path d="M2610 4138 c-28 -29 -53 -63 -56 -75 -4 -13 4 -43 19 -75 52 -108 68
-504 23 -573 -10 -15 -32 -33 -49 -40 -83 -34 -397 -83 -580 -90 -154 -6 -172
-29 -91 -115 32 -34 60 -54 88 -61 55 -15 216 -5 336 22 223 50 250 36 220
-120 -5 -28 -17 -113 -25 -188 -17 -147 -29 -186 -66 -220 -48 -44 -151 -70
-371 -94 -141 -15 -204 -7 -269 37 -28 18 -68 38 -89 44 -69 19 -150 -12 -150
-57 0 -8 9 -32 20 -54 27 -52 47 -277 60 -664 9 -293 8 -327 -30 -865 -22
-311 -23 -361 -6 -449 10 -56 25 -97 43 -123 83 -120 168 -117 230 10 l28 57
-2 525 c-2 289 -5 688 -8 888 -4 242 -2 376 5 403 15 53 46 72 103 64 26 -4
69 -2 101 6 53 11 59 11 76 -7 22 -22 130 -232 130 -251 0 -56 118 -183 170
-183 42 0 87 25 104 58 19 37 30 114 22 157 -9 44 -106 160 -157 186 -46 23
-64 51 -50 78 13 24 52 38 126 45 33 4 107 15 165 26 230 41 268 45 312 29 50
-17 78 -52 85 -106 14 -107 -236 -479 -352 -523 -14 -5 -129 -15 -253 -21
-125 -6 -239 -16 -255 -21 -16 -6 -30 -21 -34 -36 -11 -45 28 -66 153 -85 60
-10 124 -17 142 -17 91 0 131 -54 140 -190 4 -71 3 -78 -22 -107 -33 -39 -62
-46 -306 -69 -102 -9 -195 -21 -207 -25 -63 -23 6 -134 97 -159 50 -14 138 -8
215 13 28 8 72 20 98 28 42 12 52 11 75 -2 15 -8 32 -25 38 -37 7 -14 14 -135
18 -316 9 -377 27 -467 95 -496 42 -17 71 3 107 72 75 146 68 103 71 428 4
303 10 362 43 380 10 6 156 12 342 16 341 6 370 10 376 53 10 70 -34 120 -162
182 -97 48 -102 49 -190 49 -52 0 -115 -7 -146 -15 -135 -38 -174 -31 -183 34
-3 24 -18 57 -36 80 -36 45 -42 95 -12 110 10 6 65 17 122 26 57 9 142 27 189
40 47 13 108 27 135 30 75 11 111 29 119 59 10 41 -18 82 -76 112 -70 36 -141
35 -230 0 -71 -29 -121 -31 -126 -5 -4 21 100 141 152 175 55 37 175 152 193
187 13 25 12 34 -2 78 -19 57 -14 94 16 109 24 14 178 14 234 0 53 -12 128
-90 147 -151 15 -49 14 -794 -1 -1375 l-8 -311 -27 -46 c-14 -26 -43 -59 -63
-74 -37 -28 -37 -28 -176 -25 -153 3 -187 -6 -187 -52 0 -28 19 -46 85 -79 50
-25 360 -320 384 -365 7 -13 21 -22 36 -22 18 0 26 8 35 35 7 20 31 51 60 75
31 26 53 54 60 78 7 20 29 66 50 102 31 52 44 90 64 190 47 237 56 326 56 571
1 362 18 957 29 1024 6 33 27 92 47 130 20 39 45 93 55 120 10 28 30 63 44 79
30 35 32 52 6 65 -10 6 -33 33 -50 60 -28 44 -78 81 -109 81 -6 0 -28 15 -51
34 -22 19 -72 46 -111 61 -38 15 -73 31 -76 37 -16 25 -101 51 -169 52 -60 0
-82 -5 -151 -37 -84 -38 -112 -43 -394 -67 -69 -6 -168 -20 -220 -31 -187 -41
-202 -42 -243 -26 -44 19 -47 41 -18 108 11 24 28 98 39 164 25 147 75 266
124 291 34 18 365 33 736 34 212 0 228 4 276 60 14 18 26 39 26 48 0 21 -105
118 -155 141 -69 33 -183 45 -314 31 -141 -14 -320 -47 -366 -66 -47 -19 -98
-18 -126 5 l-23 19 17 87 c11 62 27 106 53 149 45 76 84 178 84 220 0 21 -8
40 -22 53 -47 42 -193 111 -271 128 -62 13 -87 24 -117 51 -20 19 -43 34 -49
34 -6 0 -34 -24 -61 -52z"/>
<path d="M1282 4083 c-48 -23 -56 -45 -49 -137 4 -45 2 -99 -3 -121 -6 -22
-19 -85 -29 -141 -10 -55 -32 -132 -49 -170 -17 -38 -39 -101 -51 -140 -11
-39 -34 -91 -51 -115 -16 -24 -39 -74 -50 -110 -11 -36 -33 -84 -48 -105 -16
-22 -39 -69 -51 -105 -12 -36 -39 -89 -61 -118 -22 -29 -40 -59 -40 -66 0 -7
-16 -32 -36 -56 -20 -24 -48 -68 -64 -98 -15 -31 -38 -65 -50 -76 -12 -11 -35
-45 -50 -76 -16 -30 -36 -61 -45 -69 -9 -8 -28 -37 -42 -64 -34 -69 -119 -182
-218 -291 -123 -136 -205 -245 -205 -272 0 -16 8 -27 26 -33 37 -15 41 -14 87
29 23 21 53 44 67 51 77 40 457 420 540 540 36 51 122 130 142 130 37 0 40
-31 35 -364 -4 -319 -15 -452 -62 -761 -8 -55 -20 -145 -25 -200 -15 -135 -27
-204 -56 -304 -42 -147 -50 -421 -14 -516 6 -16 24 -57 41 -89 16 -33 29 -64
29 -70 0 -6 20 -36 45 -65 24 -30 45 -64 47 -75 2 -17 11 -22 50 -24 l47 -3 6
38 c4 21 19 63 35 93 59 117 61 148 70 1140 8 880 9 907 30 988 14 52 20 101
17 130 -6 69 -49 161 -95 207 -78 77 -80 150 -8 235 24 28 48 68 55 90 6 21
27 60 47 85 19 25 44 70 55 100 11 29 33 70 49 90 16 20 39 62 50 93 12 30 34
72 51 93 16 21 38 63 49 94 11 31 33 72 50 91 16 19 38 51 49 72 11 20 33 50
50 66 37 35 55 86 47 130 -8 39 -99 141 -170 188 -120 81 -175 95 -244 61z"/>
</g>
</svg>
