<svg xmlns="http://www.w3.org/2000/svg" viewBox="0 0 702.219400 676.764823">
<g transform="translate(-17.780600,676.871364) scale(0.100000,-0.100000)" fill="#000000" stroke="none">
<path d="M4521 6753 c-125 -62 -142 -124 -78 -278 84 -199 54 -1031 -44 -1255
-39 -89 -103 -133 -216 -150 -435 -66 -567 -80 -742 -80 -69 0 -142 -5 -162
-10 -83 -23 -111 -108 -52 -160 27 -24 213 -94 304 -114 77 -17 371 -26 489
-16 144 13 189 4 224 -43 32 -43 29 -142 -6 -228 -35 -87 -56 -191 -69 -346
-24 -299 -47 -318 -430 -362 -534 -62 -629 -62 -783 -6 -109 39 -134 42 -175
20 -60 -31 -79 -148 -42 -258 32 -93 100 -445 111 -572 28 -337 10 -759 -46
-1085 -57 -333 -62 -366 -84 -577 -45 -454 -4 -651 159 -755 117 -74 264 30
299 212 10 52 20 956 23 2137 2 564 -15 524 234 573 83 17 182 37 220 45 39 8
111 24 160 34 50 11 164 25 255 31 232 15 454 38 541 55 121 23 182 -2 233
-94 37 -68 36 -120 -3 -261 -66 -233 -88 -283 -178 -401 -55 -72 -93 -88 -230
-100 -223 -18 -249 11 -164 176 84 163 15 269 -269 414 -232 119 -330 44 -222
-170 26 -52 55 -115 65 -141 10 -25 40 -74 67 -107 48 -60 90 -151 90 -196 0
-33 -24 -44 -122 -55 -200 -24 -278 -62 -278 -135 0 -80 83 -108 325 -110 250
-1 271 -14 332 -202 75 -233 32 -262 -542 -364 -180 -32 -238 -64 -238 -130 0
-101 200 -146 438 -99 184 36 284 38 321 7 52 -44 54 -67 54 -523 1 -552 11
-662 66 -717 54 -55 151 -44 216 24 58 61 84 161 113 434 8 77 21 203 30 280
9 77 22 236 29 352 19 334 -39 307 752 347 206 11 279 18 302 30 112 58 92
185 -40 252 -138 70 -309 92 -458 59 -216 -48 -357 -75 -386 -75 -73 0 -114
72 -114 203 0 35 -7 86 -15 113 -37 121 7 155 230 179 317 34 531 99 586 176
88 124 -86 215 -356 186 -169 -19 -184 74 -40 243 63 73 135 208 135 251 0 16
-12 57 -26 91 -31 74 -25 112 22 140 53 31 670 32 736 1 107 -49 162 -122 218
-287 50 -149 54 -200 41 -457 -6 -118 -15 -320 -21 -449 -16 -389 -63 -984
-91 -1160 -10 -63 -101 -251 -147 -304 -47 -53 -127 -66 -272 -42 -159 26
-246 55 -311 103 -77 58 -126 67 -163 30 -43 -43 -34 -79 40 -158 23 -26 56
-74 73 -107 17 -34 51 -84 76 -112 50 -57 65 -82 90 -159 9 -29 41 -88 69
-130 29 -42 61 -98 72 -125 10 -27 45 -77 76 -112 63 -70 79 -95 88 -139 6
-30 6 -30 148 -33 138 -2 142 -2 142 18 0 45 39 98 99 134 73 45 208 186 256
267 20 34 56 86 82 118 61 74 61 74 137 388 78 319 77 303 96 1228 17 833 19
853 96 985 18 30 45 88 60 128 33 89 67 127 128 144 46 12 46 12 46 130 0 118
0 118 -27 118 -47 1 -114 38 -178 99 -45 43 -78 64 -132 85 -40 15 -102 49
-138 76 -46 34 -97 59 -168 84 -56 19 -133 47 -172 60 -92 33 -102 33 -252
-15 -118 -37 -144 -41 -323 -55 -256 -18 -461 -41 -590 -66 -503 -94 -636 -99
-685 -24 -22 34 -14 64 36 142 24 37 43 82 50 115 56 299 54 291 130 445 92
185 89 183 292 195 225 13 345 33 612 103 55 15 181 38 280 52 206 30 231 40
303 119 87 95 81 155 -27 236 -172 128 -372 144 -569 45 -85 -43 -148 -61
-292 -86 -63 -11 -162 -35 -220 -55 -270 -93 -318 -43 -225 229 24 72 49 168
55 212 14 108 44 212 80 284 17 33 44 108 61 167 17 59 45 135 61 168 41 79
41 139 1 203 -41 66 -222 193 -318 223 -38 12 -104 32 -145 45 -88 28 -132 30
-179 7z"/>
<path d="M2065 6696 c-69 -32 -80 -57 -78 -173 2 -94 -2 -123 -38 -267 -49
-198 -52 -204 -106 -274 -25 -31 -60 -87 -80 -124 -19 -37 -57 -93 -84 -124
-27 -31 -60 -77 -74 -103 -54 -109 -520 -620 -690 -759 -38 -31 -103 -88 -145
-127 -41 -38 -96 -84 -122 -102 -117 -80 -113 -184 6 -169 84 10 122 24 183
70 32 24 94 62 138 85 44 22 111 66 149 97 38 30 100 71 139 90 38 20 90 55
116 78 25 23 71 57 101 74 30 17 73 49 95 72 22 23 60 56 85 72 96 66 660 621
736 725 41 56 131 157 226 254 125 127 130 231 15 318 -24 18 -61 52 -81 76
-20 25 -67 65 -104 89 -37 25 -93 64 -124 88 -56 41 -60 42 -145 45 -60 2 -97
-1 -118 -11z"/>
<path d="M2330 5098 c-73 -21 -96 -62 -110 -208 -12 -114 -24 -152 -74 -234
-19 -32 -43 -82 -52 -110 -24 -73 -51 -123 -100 -186 -23 -30 -53 -80 -67
-110 -13 -30 -49 -84 -79 -120 -31 -36 -69 -93 -86 -127 -17 -33 -54 -87 -81
-118 -28 -32 -65 -83 -82 -114 -17 -31 -50 -76 -73 -101 -23 -25 -60 -72 -83
-105 -22 -33 -51 -69 -63 -80 -13 -11 -55 -60 -95 -110 -140 -173 -510 -533
-685 -665 -88 -67 -184 -146 -255 -210 -40 -36 -94 -83 -119 -106 -80 -70 -57
-149 43 -149 42 0 56 6 122 56 45 34 111 71 168 95 51 21 119 58 150 82 31 24
86 59 122 77 36 18 92 56 125 83 32 27 97 74 144 104 47 30 94 65 105 77 11
13 50 41 87 62 47 28 80 57 108 94 89 120 211 131 241 23 13 -50 5 -326 -16
-553 -8 -82 -17 -197 -20 -255 -18 -320 -41 -499 -89 -685 -86 -329 -115 -587
-92 -811 26 -249 34 -273 158 -466 76 -119 127 -144 209 -103 83 42 114 91
159 254 52 185 53 209 80 1781 9 537 13 632 32 750 35 229 19 320 -71 410 -84
84 -82 137 7 233 32 34 68 78 82 97 13 19 44 58 68 85 25 28 65 81 89 119 25
38 66 92 92 120 26 28 62 72 79 97 17 26 53 71 80 100 27 30 62 78 78 108 16
30 48 75 70 100 84 94 174 251 174 303 0 60 -111 221 -195 283 -38 29 -81 65
-95 80 -47 51 -124 73 -190 53z"/>
</g>
</svg>
