<svg xmlns="http://www.w3.org/2000/svg" viewBox="0 0 683.040001 669.602493">
<g transform="translate(-14.751237,669.602493) scale(0.100000,-0.100000)" fill="#000000" stroke="none">
<path d="M4213 6658 c-122 -112 -146 -174 -102 -260 40 -78 49 -120 70 -331
43 -428 16 -607 -101 -664 -111 -55 -759 -153 -1008 -153 -161 0 -178 -75 -45
-202 84 -79 133 -93 308 -85 141 7 316 34 465 73 220 58 276 0 230 -238 -11
-57 -25 -150 -30 -208 -45 -467 -72 -492 -620 -566 -151 -20 -358 -23 -417 -6
-24 7 -73 34 -110 59 -86 59 -122 72 -201 73 -154 1 -193 -65 -129 -216 22
-51 29 -90 42 -245 8 -101 19 -235 24 -297 6 -62 15 -309 21 -550 13 -476 7
-614 -62 -1477 -39 -479 -6 -691 125 -828 109 -113 230 -87 308 65 60 118 63
176 50 953 -22 1282 -20 2053 6 2101 29 54 56 64 170 64 53 0 122 5 154 12 96
20 131 -6 184 -131 14 -35 44 -91 65 -125 21 -33 50 -100 64 -147 50 -163 188
-309 293 -309 76 0 149 65 175 154 17 62 15 204 -4 246 -25 57 -158 197 -228
242 -93 58 -108 87 -74 136 26 37 71 53 178 63 55 6 155 21 221 34 66 14 161
29 210 35 50 6 127 17 172 25 194 34 303 -39 303 -202 0 -58 -30 -131 -134
-333 -41 -78 -231 -323 -300 -387 -114 -105 -114 -104 -611 -126 -330 -14
-351 -19 -376 -80 -36 -87 81 -135 416 -167 203 -20 241 -58 277 -273 21 -128
-22 -227 -115 -261 -23 -9 -145 -27 -272 -41 -412 -44 -440 -48 -467 -62 -89
-44 -3 -195 137 -244 89 -30 296 -10 463 47 127 42 199 26 235 -55 20 -43 22
-71 29 -481 10 -630 37 -768 154 -809 79 -28 112 7 231 239 38 75 44 145 52
620 8 519 8 516 85 551 37 16 80 18 441 20 602 2 660 9 685 83 15 46 -1 98
-49 163 -41 55 -276 180 -381 204 -89 19 -299 5 -402 -27 -168 -54 -230 -35
-258 77 -11 45 -28 79 -58 117 -87 111 -47 187 108 206 129 17 281 46 365 71
50 14 145 37 213 50 139 28 173 42 190 80 74 163 -203 292 -443 206 -167 -60
-225 -63 -225 -12 0 30 151 213 212 257 98 71 260 218 299 273 44 61 50 107
24 181 -23 66 -19 105 14 142 29 33 29 33 188 33 274 -1 387 -73 440 -280 29
-114 17 -2080 -16 -2555 -11 -150 -32 -200 -116 -279 -84 -78 -106 -83 -338
-75 -206 8 -246 -1 -265 -56 -18 -49 11 -89 99 -135 70 -37 289 -209 289 -226
0 -12 207 -220 275 -276 37 -31 68 -66 79 -92 17 -37 22 -41 56 -41 35 0 38 2
49 43 10 32 34 63 100 127 76 75 89 93 110 153 13 37 42 96 64 130 55 84 72
133 107 300 86 417 85 397 100 1482 15 1068 19 1112 118 1305 33 63 67 139 77
169 9 29 37 82 61 117 51 74 53 92 18 125 -14 13 -46 54 -70 91 -54 81 -75 99
-152 127 -32 12 -81 41 -108 63 -48 40 -102 68 -197 103 -26 9 -75 35 -108 57
-154 103 -315 107 -520 12 -106 -49 -192 -68 -359 -79 -334 -21 -553 -50 -752
-101 -109 -27 -193 -31 -243 -10 -64 27 -68 71 -20 204 14 40 35 130 46 200
49 319 134 484 261 511 76 17 421 30 953 37 509 6 515 7 586 71 86 78 73 132
-61 244 -122 102 -200 131 -393 145 -158 12 -616 -52 -815 -113 -138 -43 -232
-17 -232 63 0 114 48 257 139 419 53 92 101 227 101 281 0 72 -38 103 -288
235 -29 15 -87 35 -130 44 -143 31 -178 44 -247 95 -82 60 -75 60 -132 8z"/>
<path d="M2085 6548 c-102 -36 -119 -75 -111 -243 7 -116 5 -143 -14 -221 -12
-49 -32 -146 -45 -216 -15 -80 -37 -159 -60 -215 -20 -48 -53 -135 -72 -193
-20 -58 -42 -123 -49 -146 -8 -22 -36 -74 -62 -116 -34 -53 -56 -104 -72 -164
-17 -66 -35 -105 -76 -164 -32 -47 -62 -106 -74 -147 -34 -107 -40 -121 -88
-181 -24 -31 -60 -89 -79 -129 -19 -40 -54 -94 -77 -120 -24 -26 -62 -84 -84
-128 -22 -44 -62 -105 -88 -135 -26 -30 -59 -82 -74 -115 -15 -33 -49 -85 -75
-115 -27 -30 -60 -82 -75 -115 -15 -34 -47 -86 -72 -115 -24 -30 -59 -77 -78
-105 -18 -27 -56 -75 -84 -105 -29 -30 -69 -77 -91 -105 -22 -27 -71 -84 -110
-126 -155 -168 -245 -303 -225 -339 33 -61 118 -51 185 20 17 17 59 49 95 70
36 21 76 50 90 65 14 15 59 55 100 89 164 134 586 578 669 704 56 83 186 202
223 202 39 0 65 -30 74 -87 21 -142 -12 -972 -50 -1268 -8 -60 -20 -157 -26
-215 -6 -58 -22 -177 -35 -265 -14 -88 -31 -227 -40 -310 -18 -169 -39 -291
-65 -380 -61 -202 -75 -306 -75 -560 0 -251 7 -287 79 -440 24 -49 51 -111 61
-137 9 -25 41 -75 70 -110 58 -70 85 -117 85 -148 0 -18 6 -20 79 -20 78 0 78
0 84 58 4 40 19 82 50 143 48 90 76 206 96 394 6 50 15 694 21 1435 11 1370
14 1476 51 1594 49 160 45 201 -35 385 -39 89 -54 111 -109 165 -57 54 -66 68
-72 110 -15 96 8 168 75 242 42 46 59 76 99 173 15 36 48 93 73 126 28 35 60
95 79 143 17 46 48 104 69 131 44 56 71 106 94 178 10 29 42 86 72 127 34 47
66 106 84 157 31 86 33 89 91 156 20 23 50 69 68 102 17 33 55 85 83 116 63
69 83 131 67 206 -13 59 -152 221 -234 271 -27 16 -73 48 -102 70 -92 70 -204
96 -288 66z"/>
</g>
</svg>
