<svg xmlns="http://www.w3.org/2000/svg" viewBox="0 0 851.012450 836.956057">
<g transform="translate(-19.762512,836.573731) scale(0.100000,-0.100000)" fill="#000000" stroke="none">
<path d="M5264 8318 c-151 -142 -169 -200 -110 -354 62 -163 101 -502 93 -809
-7 -264 -36 -344 -147 -400 -124 -63 -771 -166 -1200 -191 -245 -14 -280 -106
-101 -266 137 -123 450 -127 921 -12 310 76 367 14 312 -343 -17 -109 -42
-282 -56 -385 -51 -391 -111 -436 -693 -518 -408 -58 -563 -45 -723 60 -129
85 -248 107 -352 67 -95 -37 -110 -97 -59 -237 31 -84 46 -167 56 -310 3 -47
10 -128 16 -180 5 -52 14 -151 19 -220 13 -162 41 -1167 35 -1245 -3 -33 -12
-175 -20 -315 -9 -140 -24 -365 -35 -500 -10 -135 -21 -290 -25 -345 -3 -55
-13 -167 -21 -249 -33 -349 0 -651 89 -796 174 -286 431 -218 513 135 23 96
23 293 5 1695 -16 1246 -17 1864 -2 1917 28 101 85 133 237 133 59 0 135 5
169 11 124 21 177 -14 251 -169 25 -53 61 -123 80 -154 20 -32 53 -108 74
-169 174 -500 593 -538 595 -54 0 176 -89 317 -295 460 -121 85 -132 163 -31
215 37 18 74 26 246 49 39 5 133 21 210 34 599 108 725 98 808 -58 70 -132
-36 -410 -285 -748 -276 -377 -317 -399 -773 -417 -132 -6 -271 -14 -310 -20
-38 -5 -110 -9 -158 -9 -140 -1 -217 -44 -217 -122 0 -92 111 -127 587 -188
188 -24 276 -150 277 -396 1 -230 -50 -259 -564 -316 -533 -59 -563 -69 -531
-184 58 -211 344 -264 754 -141 158 47 225 43 282 -18 55 -58 57 -74 66 -555
16 -846 43 -1016 169 -1081 104 -53 149 -21 263 185 107 194 111 234 122 1036
9 590 -51 542 680 546 788 5 834 14 822 170 -10 144 -136 244 -467 370 -124
47 -367 42 -575 -13 -115 -30 -198 -33 -243 -10 -36 19 -43 29 -75 120 -14 36
-44 95 -67 131 -109 167 -56 235 217 275 185 28 224 36 393 81 80 22 193 48
252 59 234 45 302 140 191 270 -112 131 -304 156 -563 75 -308 -97 -244 92
135 400 287 232 343 324 300 485 -46 172 14 226 250 224 233 -2 338 -36 437
-142 146 -159 153 -215 141 -1247 -4 -429 -7 -820 -7 -870 1 -49 -2 -205 -8
-345 -5 -140 -13 -421 -18 -625 -13 -471 -23 -526 -126 -642 -92 -106 -136
-118 -407 -115 -313 3 -367 -12 -367 -107 0 -53 31 -88 129 -145 114 -66 249
-182 471 -405 107 -108 220 -219 251 -247 31 -27 66 -69 78 -92 28 -54 84 -62
101 -14 22 60 38 81 131 173 92 90 101 102 163 230 36 74 81 161 100 193 45
78 69 154 111 361 92 456 92 450 115 1990 18 1142 28 1240 150 1455 27 47 65
126 85 176 20 50 56 126 80 169 54 94 56 120 12 177 -18 24 -48 66 -66 93 -57
85 -92 115 -193 166 -54 27 -129 72 -167 100 -42 31 -111 67 -178 93 -59 24
-142 64 -183 90 -194 121 -392 126 -630 15 -155 -71 -223 -84 -610 -114 -314
-24 -607 -65 -756 -105 -221 -60 -350 -45 -393 45 -16 33 -12 59 37 216 17 52
44 176 61 275 58 346 154 534 294 578 94 29 698 55 1422 61 426 3 442 6 524
87 95 93 79 161 -70 291 -145 127 -236 163 -468 187 -201 20 -690 -42 -1017
-130 -218 -59 -314 -29 -314 97 0 132 46 280 136 438 211 370 206 476 -31 609
-172 98 -236 125 -380 162 -153 39 -194 57 -271 115 -82 60 -93 60 -160 -3z"/>
<path d="M2617 8186 c-135 -49 -153 -87 -149 -321 3 -158 1 -191 -18 -264 -12
-46 -37 -163 -56 -260 -30 -151 -45 -201 -109 -362 -41 -102 -75 -190 -75
-196 0 -36 -67 -198 -114 -276 -36 -60 -68 -130 -91 -204 -34 -103 -50 -136
-133 -268 -18 -27 -49 -101 -71 -163 -29 -84 -53 -131 -92 -185 -29 -40 -76
-115 -104 -168 -28 -52 -74 -124 -103 -159 -28 -35 -73 -104 -99 -154 -26 -50
-72 -120 -100 -156 -29 -36 -72 -101 -95 -145 -24 -44 -68 -111 -99 -150 -31
-38 -72 -101 -92 -140 -39 -78 -183 -280 -279 -393 -35 -41 -91 -107 -125
-148 -35 -42 -97 -112 -139 -157 -80 -87 -230 -281 -257 -334 -69 -132 59
-175 199 -68 43 34 105 76 138 95 32 19 88 62 125 95 36 33 93 83 126 110 171
142 701 702 796 840 164 239 328 316 369 174 13 -45 13 -746 0 -1014 -14 -288
-78 -892 -125 -1189 -14 -88 -37 -256 -50 -375 -30 -254 -41 -315 -94 -527
-116 -457 -122 -876 -17 -1123 98 -229 143 -323 179 -370 84 -107 108 -146
120 -188 11 -43 11 -43 102 -43 91 0 91 0 101 69 8 46 28 104 61 172 68 141
78 177 119 444 15 92 14 71 44 2705 11 959 11 967 61 1168 42 169 38 236 -20
381 -62 154 -77 179 -156 262 -144 151 -144 293 -3 463 52 63 80 111 121 213
14 35 51 99 82 144 32 44 79 129 105 188 26 60 70 142 98 182 29 41 73 124
100 184 26 61 73 146 104 190 31 44 73 123 94 175 21 52 57 121 80 155 24 33
60 86 81 117 56 86 128 187 173 242 122 155 30 380 -227 552 -32 21 -95 65
-140 97 -124 89 -247 118 -346 83z"/>
</g>
</svg>
