<svg xmlns="http://www.w3.org/2000/svg" viewBox="0 0 689.230003 709.866449">
<g transform="translate(-14.769997,722.867238) scale(0.100000,-0.100000)" fill="#000000" stroke="none">
<path d="M3978 7216 c-129 -46 -148 -123 -64 -258 68 -110 77 -158 83 -468 6
-256 -3 -419 -29 -575 -22 -130 -66 -158 -303 -194 -71 -11 -173 -29 -225 -40
-199 -43 -401 -72 -564 -82 -183 -11 -229 -23 -248 -64 -16 -35 8 -65 98 -128
191 -133 240 -136 679 -46 105 21 215 45 245 54 101 29 173 -7 186 -90 8 -57
-26 -234 -77 -394 -42 -131 -73 -276 -84 -396 -20 -214 -85 -249 -585 -312
-80 -10 -197 -18 -260 -18 -115 0 -115 0 -200 47 -144 79 -298 109 -376 72
-70 -33 -81 -89 -39 -192 17 -43 28 -95 35 -179 6 -65 20 -174 30 -243 54
-342 76 -1100 42 -1390 -12 -96 -24 -204 -27 -240 -4 -36 -15 -137 -26 -225
-27 -234 -52 -662 -44 -780 13 -213 46 -307 140 -402 96 -96 168 -94 261 10
97 107 98 116 90 1127 -14 1776 -12 2009 11 2062 28 62 60 78 159 78 42 0 105
5 139 11 96 18 153 -9 190 -88 10 -21 39 -70 65 -109 47 -68 70 -121 85 -194
11 -51 43 -109 88 -160 22 -25 49 -65 60 -90 43 -98 98 -140 181 -140 92 0
113 26 152 186 46 191 5 306 -153 430 -145 114 -162 173 -64 223 66 34 593
112 861 128 118 7 160 -42 160 -186 0 -117 -15 -173 -66 -244 -24 -34 -62 -93
-85 -132 -23 -38 -67 -101 -98 -140 -32 -38 -76 -97 -99 -131 -80 -114 -175
-162 -380 -189 -62 -8 -140 -22 -175 -32 -50 -13 -98 -16 -245 -14 -195 2
-234 -4 -270 -42 -50 -53 -30 -122 44 -153 46 -19 284 -54 371 -54 132 0 158
-22 223 -187 37 -94 42 -115 38 -169 -10 -155 -99 -191 -638 -254 -102 -12
-202 -26 -222 -31 -127 -32 -30 -210 138 -254 101 -26 288 -6 423 45 163 62
265 34 290 -79 5 -25 12 -226 16 -446 12 -828 28 -938 140 -975 56 -18 107 13
177 107 103 138 124 271 138 878 11 462 19 515 87 563 52 37 100 40 584 45
513 6 516 6 553 59 38 53 7 175 -55 220 -94 68 -322 168 -412 180 -145 19
-336 -1 -439 -48 -124 -56 -178 -34 -198 82 -6 32 -25 98 -42 146 -51 145 -32
163 235 228 89 22 194 49 232 60 39 11 113 25 165 31 208 23 274 78 226 192
-50 121 -233 161 -471 104 -140 -34 -151 -23 -97 96 30 64 37 71 188 192 129
103 297 263 312 298 12 26 11 41 -2 97 -41 167 -22 183 237 199 348 23 536
-54 598 -244 30 -90 37 -747 19 -1770 -16 -989 -18 -1007 -100 -1124 -72 -103
-83 -106 -372 -106 -246 0 -246 0 -272 -24 -51 -48 -40 -73 93 -207 96 -96
126 -133 156 -194 20 -41 56 -100 80 -130 23 -30 54 -78 68 -106 54 -107 150
-174 247 -174 70 0 176 55 231 120 24 29 67 79 96 112 40 46 59 80 84 150 18
50 53 120 77 156 64 94 68 108 112 394 22 145 47 299 56 343 15 81 18 180 44
1360 15 697 25 780 109 938 27 51 61 124 75 162 36 94 94 155 149 155 14 0 17
10 17 69 0 69 0 69 -37 82 -20 6 -59 34 -86 61 -28 28 -80 73 -116 101 -36 28
-82 65 -102 83 -20 17 -58 39 -85 49 -92 33 -156 65 -195 96 -148 117 -442
126 -729 22 -137 -49 -309 -72 -783 -103 -161 -11 -450 -50 -517 -70 -111 -34
-184 -31 -224 10 -41 40 -17 231 50 403 75 192 82 215 99 312 43 244 77 293
235 339 85 25 575 55 1020 62 428 6 444 8 490 60 58 66 40 147 -52 229 -67 60
-113 83 -273 135 -160 52 -296 54 -485 7 -58 -15 -195 -38 -305 -52 -110 -14
-218 -30 -240 -35 -177 -42 -237 70 -135 255 28 51 46 101 60 171 29 140 36
160 91 244 104 161 121 252 68 358 -35 70 -55 87 -163 136 -43 20 -100 52
-126 71 -66 49 -98 60 -245 89 -142 29 -221 32 -277 12z"/>
<path d="M873 6535 c-77 -33 -73 -123 10 -213 24 -26 65 -80 91 -120 27 -40
59 -80 72 -89 13 -8 47 -45 76 -82 29 -36 64 -75 78 -85 14 -11 50 -45 80 -75
75 -77 100 -93 217 -140 142 -58 173 -54 294 31 91 64 114 109 114 228 0 125
-14 152 -135 258 -131 115 -136 117 -342 168 -101 25 -253 65 -339 89 -174 50
-171 50 -216 30z"/>
<path d="M215 4745 c-22 -8 -41 -15 -43 -15 -2 0 -9 -15 -17 -33 -14 -35 -7
-95 17 -141 17 -33 166 -186 230 -237 32 -25 72 -62 89 -82 17 -20 61 -55 99
-77 37 -22 92 -60 120 -84 123 -105 330 -117 434 -24 93 81 131 217 87 313
-21 47 -175 197 -233 226 -46 24 -152 48 -368 84 -85 14 -189 37 -230 50 -104
33 -139 37 -185 20z"/>
<path d="M1470 3310 c-10 -10 -26 -45 -35 -77 -23 -82 -39 -117 -78 -160 -41
-46 -57 -77 -87 -168 -13 -38 -46 -117 -75 -175 -29 -58 -62 -136 -75 -175
-25 -78 -47 -124 -96 -205 -18 -30 -43 -86 -55 -125 -27 -87 -42 -116 -91
-181 -21 -28 -56 -95 -77 -148 -21 -53 -57 -120 -79 -149 -22 -28 -57 -81 -77
-115 -20 -35 -64 -94 -97 -130 -163 -180 -190 -271 -124 -420 18 -43 45 -115
61 -161 17 -51 47 -113 79 -160 29 -42 67 -107 85 -146 50 -108 108 -155 191
-155 81 0 96 22 148 215 92 343 101 387 127 620 19 164 40 267 88 425 39 127
59 220 82 383 9 69 35 170 69 277 30 93 73 257 96 365 40 190 57 249 114 380
32 75 34 142 5 179 -25 32 -70 35 -99 6z"/>
</g>
</svg>
