<svg xmlns="http://www.w3.org/2000/svg" viewBox="0 0 779.117657 610.856025">
<g transform="translate(-21.184140,639.649044) scale(0.100000,-0.100000)" fill="#000000" stroke="none">
<path d="M4069 6371 c-35 -20 -57 -47 -119 -151 -18 -30 -46 -71 -61 -91 -16
-21 -49 -77 -73 -127 -26 -52 -72 -121 -111 -168 -37 -43 -82 -107 -100 -143
-18 -36 -61 -102 -95 -146 -34 -44 -79 -116 -100 -160 -23 -49 -63 -108 -102
-153 -36 -40 -83 -107 -106 -150 -22 -42 -66 -111 -97 -152 -31 -40 -74 -110
-96 -155 -24 -48 -66 -111 -104 -154 -35 -40 -82 -107 -104 -150 -22 -42 -63
-106 -92 -142 -28 -35 -71 -103 -95 -151 -26 -53 -68 -115 -107 -157 -34 -38
-82 -107 -106 -153 -24 -46 -67 -114 -96 -153 -29 -38 -71 -106 -94 -151 -24
-46 -70 -112 -106 -153 -39 -43 -82 -105 -106 -154 -23 -45 -63 -109 -89 -142
-27 -33 -71 -102 -98 -153 -28 -50 -75 -120 -106 -154 -31 -35 -78 -106 -106
-158 -28 -52 -70 -120 -95 -150 -24 -30 -65 -93 -90 -141 -26 -47 -73 -117
-106 -153 -34 -39 -78 -105 -103 -154 -24 -48 -68 -119 -98 -157 -30 -39 -73
-105 -97 -147 -23 -43 -72 -112 -108 -155 -40 -47 -81 -109 -103 -158 -21 -44
-63 -111 -93 -150 -31 -38 -75 -104 -97 -145 -22 -42 -68 -107 -102 -145 -37
-43 -75 -102 -99 -151 -22 -47 -64 -113 -100 -155 -155 -185 -118 -403 68
-398 392 10 7259 11 7343 1 282 -36 374 178 181 417 -29 35 -72 103 -96 151
-25 50 -73 122 -111 166 -43 51 -82 111 -109 169 -23 50 -66 119 -94 154 -29
36 -70 99 -92 141 -22 43 -67 109 -100 149 -39 46 -77 107 -105 169 -26 54
-69 125 -99 163 -30 36 -75 103 -101 150 -25 46 -70 113 -99 149 -30 36 -73
108 -98 160 -28 60 -67 122 -106 168 -34 40 -79 108 -100 150 -22 42 -65 111
-96 152 -32 41 -75 112 -96 157 -23 48 -66 113 -105 158 -38 46 -84 115 -110
168 -25 50 -69 123 -98 161 -30 39 -70 103 -90 143 -19 39 -59 99 -88 133 -70
82 -89 112 -122 192 -16 36 -55 99 -87 140 -32 40 -77 108 -99 150 -22 42 -59
100 -83 129 -73 90 -94 122 -126 198 -19 46 -57 105 -97 155 -36 44 -83 114
-104 156 -21 41 -63 107 -93 146 -30 38 -76 112 -101 163 -27 54 -71 122 -106
163 -34 39 -81 110 -105 158 -24 48 -66 116 -94 152 -27 36 -67 101 -90 145
-22 45 -69 115 -105 157 -36 42 -73 95 -83 119 -94 221 -212 299 -344 228z
m155 -955 c67 -39 124 -110 176 -221 28 -60 71 -129 107 -173 33 -40 79 -109
102 -153 24 -44 66 -108 93 -142 28 -34 72 -107 99 -162 30 -64 70 -125 108
-169 33 -39 81 -111 107 -162 26 -51 67 -117 91 -146 24 -29 64 -94 89 -144
28 -57 68 -118 106 -160 40 -45 76 -101 105 -161 24 -51 69 -126 100 -165 30
-40 72 -107 93 -149 21 -41 66 -109 100 -150 39 -45 81 -112 111 -174 26 -55
70 -126 97 -158 27 -32 69 -95 93 -140 24 -45 70 -114 102 -154 32 -39 77
-114 101 -165 27 -58 66 -120 105 -166 34 -40 79 -108 100 -151 22 -42 65
-110 96 -151 31 -41 75 -111 96 -155 21 -44 68 -116 105 -159 40 -49 83 -115
109 -170 24 -50 65 -118 90 -151 25 -32 63 -88 83 -124 20 -36 56 -90 81 -121
104 -126 106 -206 8 -251 -58 -26 -5916 -30 -5967 -4 -103 53 -95 143 25 278
24 26 58 73 75 104 18 31 56 88 85 127 29 39 71 108 94 153 24 45 71 114 107
155 35 40 80 104 101 143 20 38 61 101 91 140 30 38 74 109 98 157 26 51 69
115 108 159 35 39 82 106 104 148 23 42 66 110 97 151 31 41 74 109 96 151 21
43 67 110 103 150 35 39 83 108 107 153 23 45 66 111 94 148 29 36 70 101 91
143 21 43 69 113 106 156 36 44 85 114 109 157 23 42 65 106 93 142 28 36 69
100 90 143 22 42 70 113 107 156 37 44 86 116 110 161 24 44 64 107 91 139 26
33 66 95 89 138 44 84 69 119 136 195 24 27 58 79 77 116 19 38 60 101 91 142
31 41 76 113 101 160 24 47 71 116 104 154 34 37 78 103 99 145 68 135 120
154 235 87z"/>
</g>
</svg>
