<svg xmlns="http://www.w3.org/2000/svg" viewBox="0 0 528.000000 415.871401">
<g transform="translate(0.000000,415.871401) scale(0.100000,-0.100000)" fill="#000000" stroke="none">
<path d="M2556 4145 c-3 -9 -6 -24 -6 -33 0 -45 -25 -95 -73 -149 -29 -32 -61
-81 -71 -108 -20 -52 -69 -126 -106 -160 -12 -11 -35 -45 -50 -75 -15 -30 -53
-86 -84 -123 -33 -40 -64 -92 -77 -128 -15 -41 -41 -81 -81 -125 -32 -35 -72
-92 -89 -127 -17 -34 -48 -80 -69 -102 -40 -42 -54 -67 -93 -155 -13 -30 -46
-80 -74 -110 -28 -30 -64 -82 -81 -115 -16 -34 -51 -84 -76 -111 -25 -28 -61
-86 -81 -129 -22 -48 -54 -99 -84 -130 -27 -29 -64 -81 -81 -116 -18 -35 -50
-83 -72 -107 -22 -24 -55 -78 -74 -120 -22 -46 -56 -98 -89 -133 -29 -32 -67
-86 -83 -121 -17 -35 -52 -89 -79 -120 -26 -31 -59 -85 -73 -119 -16 -42 -44
-83 -81 -124 -31 -33 -71 -89 -89 -125 -18 -35 -53 -89 -77 -119 -24 -30 -58
-84 -74 -120 -17 -38 -51 -88 -83 -121 -30 -31 -68 -85 -86 -121 -18 -35 -50
-87 -71 -115 -21 -27 -48 -75 -60 -105 -41 -100 -94 -149 -164 -149 -25 0 -25
0 -25 -165 0 -165 0 -165 2630 -165 2589 0 2629 0 2640 19 5 11 10 69 10 129
0 110 0 110 -35 116 -48 9 -101 58 -135 126 -16 31 -51 83 -79 116 -31 35 -62
86 -78 127 -16 41 -46 90 -76 125 -27 31 -62 84 -78 118 -15 35 -52 89 -82
122 -39 42 -62 79 -82 132 -19 49 -44 90 -76 126 -27 30 -64 85 -83 123 -20
38 -58 95 -85 126 -28 31 -55 74 -62 94 -21 66 -51 115 -101 168 -27 29 -61
81 -77 116 -16 35 -49 89 -75 120 -26 32 -62 90 -80 130 -20 43 -51 91 -80
119 -31 32 -60 78 -86 134 -22 47 -57 106 -79 130 -21 24 -52 73 -69 108 -17
35 -55 91 -85 125 -38 42 -65 85 -83 132 -17 43 -46 91 -76 125 -27 31 -64 88
-83 126 -19 39 -57 94 -83 122 -31 35 -57 78 -77 127 -19 50 -44 90 -76 124
-25 28 -62 82 -82 120 -19 39 -52 91 -72 115 -20 24 -55 80 -76 123 -22 43
-57 97 -78 120 -47 52 -60 76 -69 130 -8 42 -8 42 -94 45 -71 2 -87 0 -92 -13z
m137 -683 c9 -8 33 -44 53 -79 20 -35 49 -79 65 -97 16 -19 45 -69 65 -112 22
-48 55 -99 84 -130 27 -28 67 -89 90 -135 24 -46 60 -105 81 -130 21 -26 52
-77 69 -114 19 -41 53 -92 88 -130 40 -43 65 -83 85 -132 15 -39 47 -92 73
-124 26 -29 60 -82 77 -117 16 -34 53 -89 82 -121 36 -40 61 -82 80 -131 19
-49 44 -91 76 -126 27 -30 64 -85 83 -123 20 -38 54 -91 77 -117 23 -27 59
-85 80 -130 22 -49 58 -104 89 -139 28 -31 66 -89 85 -128 18 -40 52 -94 74
-121 23 -27 57 -82 76 -122 19 -43 54 -96 83 -126 30 -32 66 -87 91 -138 22
-47 57 -104 76 -128 39 -49 47 -101 20 -139 -18 -26 -87 -47 -121 -39 -13 4
-860 6 -1881 6 -1893 1 -1907 1 -1955 39 -51 42 -16 162 76 259 34 36 66 83
85 126 17 37 51 91 75 119 24 29 58 80 75 115 18 35 57 90 87 123 32 35 68 88
85 126 16 35 49 88 73 116 24 29 58 80 75 115 18 35 57 90 87 123 33 36 68 89
88 132 18 40 52 94 75 121 23 26 55 75 72 108 16 32 54 85 84 118 31 34 68 89
88 132 18 40 52 95 76 122 23 26 56 76 73 110 17 33 56 88 87 122 37 39 64 81
79 120 13 33 46 86 73 119 28 32 64 86 81 119 16 34 52 84 78 111 27 28 65 84
86 125 20 41 56 100 79 130 24 30 54 78 68 105 45 91 96 114 150 67z"/>
</g>
</svg>
