<svg xmlns="http://www.w3.org/2000/svg" viewBox="0 0 329.846455 260.000000">
<g transform="translate(0.000000,260.000000) scale(0.100000,-0.100000)" fill="#000000" stroke="none">
<path d="M1591 2555 c-6 -25 -26 -62 -45 -83 -19 -20 -41 -55 -50 -77 -10 -22
-30 -53 -45 -70 -16 -16 -37 -46 -46 -65 -9 -19 -30 -48 -46 -65 -15 -16 -38
-52 -50 -80 -12 -27 -37 -67 -55 -87 -18 -21 -44 -59 -58 -85 -13 -26 -34 -57
-46 -68 -12 -11 -33 -44 -46 -74 -13 -30 -42 -73 -64 -97 -22 -24 -40 -51 -40
-59 0 -8 -18 -35 -40 -59 -22 -24 -47 -63 -55 -87 -9 -24 -31 -60 -49 -79 -19
-19 -43 -53 -54 -75 -11 -22 -30 -49 -42 -60 -13 -11 -35 -47 -50 -80 -15 -33
-40 -71 -55 -85 -15 -14 -38 -47 -52 -75 -14 -27 -40 -66 -58 -86 -18 -20 -36
-51 -40 -68 -4 -18 -24 -49 -45 -69 -22 -20 -48 -58 -59 -83 -11 -25 -30 -54
-42 -65 -12 -10 -34 -46 -50 -79 -15 -33 -42 -73 -59 -90 -18 -16 -41 -48 -52
-70 -12 -22 -31 -53 -43 -70 -13 -16 -33 -53 -45 -81 -20 -49 -38 -65 -87 -79
-22 -6 -23 -11 -23 -106 l0 -99 1638 0 1639 0 12 23 c7 13 11 48 9 81 -3 57
-4 59 -38 70 -27 9 -41 24 -68 71 -18 33 -44 71 -57 85 -12 14 -32 48 -44 75
-12 28 -35 64 -51 80 -15 17 -35 46 -43 66 -8 20 -31 55 -51 77 -20 21 -43 59
-51 83 -9 24 -31 60 -50 79 -18 19 -41 53 -50 75 -9 22 -29 54 -45 70 -16 17
-39 55 -53 85 -13 30 -37 66 -52 80 -15 14 -36 45 -47 70 -10 24 -34 62 -52
85 -18 22 -38 56 -46 75 -7 19 -30 53 -50 75 -21 22 -48 63 -59 90 -12 28 -33
61 -45 75 -13 14 -35 48 -49 75 -14 28 -35 59 -47 70 -13 11 -38 53 -56 93
-19 40 -40 75 -48 78 -7 3 -26 29 -41 57 -16 29 -44 70 -62 92 -18 21 -39 56
-45 78 -6 21 -28 57 -48 80 -21 23 -49 65 -63 93 -14 27 -33 57 -43 64 -9 8
-25 35 -36 59 -10 24 -34 61 -53 82 -19 21 -37 54 -41 73 -6 36 -6 36 -59 36
l-53 0 -11 -45z m127 -440 c18 -33 42 -69 52 -80 9 -11 24 -37 31 -59 8 -21
30 -56 51 -77 20 -20 46 -59 58 -86 11 -26 32 -59 45 -73 13 -14 33 -47 44
-74 12 -26 35 -61 51 -76 16 -15 43 -57 59 -91 15 -35 38 -73 51 -84 12 -11
31 -39 41 -62 9 -23 34 -59 53 -81 20 -22 43 -59 51 -83 9 -24 31 -60 50 -79
18 -19 41 -53 50 -75 9 -22 29 -53 45 -70 16 -16 39 -55 53 -85 13 -30 37 -66
52 -80 15 -14 37 -47 50 -75 12 -27 34 -64 49 -82 14 -17 35 -51 46 -75 10
-24 35 -58 54 -77 20 -19 43 -56 51 -81 9 -26 26 -57 40 -70 39 -36 50 -75 31
-105 l-16 -25 -1219 3 c-1183 2 -1220 3 -1240 21 -12 11 -21 29 -21 40 1 34
35 99 70 131 18 17 42 53 54 80 13 28 31 56 40 64 10 8 30 40 46 70 15 31 42
69 60 86 17 16 40 50 51 75 11 25 31 56 43 70 13 14 35 48 49 75 14 28 39 63
57 80 17 16 40 50 51 75 11 25 31 56 43 70 13 14 35 48 49 75 14 28 39 63 57
80 17 16 40 49 50 73 11 24 31 57 45 74 14 17 35 49 47 72 11 22 37 59 57 81
21 22 44 56 51 75 8 19 26 50 42 68 15 18 39 54 52 80 13 26 38 60 56 77 17
16 40 49 50 73 11 24 33 59 50 80 16 20 30 41 30 47 0 5 9 25 20 43 17 28 25
33 52 30 28 -3 37 -11 66 -63z"/>
</g>
</svg>
