<svg xmlns="http://www.w3.org/2000/svg" viewBox="0 0 609.199721 465.534520">
<g transform="translate(-14.800279,481.701486) scale(0.100000,-0.100000)" fill="#000000" stroke="none">
<path d="M3185 4810 c-53 -16 -104 -68 -141 -144 -20 -39 -54 -92 -75 -118
-22 -26 -61 -82 -87 -125 -27 -43 -70 -107 -96 -143 -27 -36 -60 -87 -73 -115
-14 -27 -45 -75 -68 -105 -23 -30 -55 -77 -70 -104 -16 -28 -55 -85 -87 -127
-31 -43 -69 -102 -84 -131 -14 -29 -43 -75 -63 -103 -21 -27 -73 -103 -117
-168 -43 -65 -87 -130 -97 -145 -10 -15 -39 -61 -65 -104 -62 -100 -191 -293
-237 -353 -20 -27 -48 -71 -62 -99 -14 -28 -50 -85 -80 -126 -78 -109 -178
-258 -210 -314 -27 -48 -45 -74 -201 -304 -42 -63 -97 -146 -121 -185 -24 -40
-59 -94 -78 -122 -66 -99 -122 -182 -180 -264 -32 -46 -72 -110 -89 -142 -17
-32 -57 -93 -88 -136 -88 -121 -180 -260 -232 -350 -26 -45 -67 -106 -90 -135
-24 -29 -58 -79 -75 -113 -18 -33 -57 -91 -89 -130 -85 -105 -99 -144 -65
-192 40 -57 -167 -54 3015 -49 1603 3 2948 8 2988 11 72 7 72 7 72 75 0 69 0
69 -40 80 -59 16 -109 65 -143 140 -16 36 -44 86 -62 111 -19 26 -51 78 -73
117 -22 38 -63 100 -91 137 -29 37 -67 97 -85 134 -19 36 -48 84 -66 106 -18
22 -54 77 -80 121 -26 45 -69 110 -95 145 -26 35 -61 92 -77 126 -16 35 -49
87 -72 115 -24 29 -62 87 -85 128 -24 41 -60 98 -81 125 -21 28 -52 78 -68
111 -17 34 -53 90 -80 126 -27 35 -68 97 -91 138 -24 41 -60 98 -81 126 -21
27 -51 77 -68 110 -17 32 -56 93 -87 133 -31 41 -70 102 -87 135 -17 34 -52
90 -77 126 -26 36 -60 88 -76 115 -15 28 -54 86 -86 130 -32 45 -67 101 -79
127 -11 25 -41 74 -67 109 -26 35 -67 98 -91 139 -24 41 -61 98 -82 126 -21
27 -52 78 -69 113 -18 34 -59 99 -92 143 -33 45 -70 100 -81 122 -11 23 -44
75 -73 116 -29 41 -65 99 -80 129 -15 30 -49 83 -77 119 -27 35 -64 95 -83
132 -19 37 -52 89 -74 114 -22 25 -59 82 -81 125 -54 104 -101 134 -175 111z
m106 -486 c16 -16 48 -62 70 -104 23 -41 62 -104 89 -140 26 -36 60 -90 75
-120 15 -30 51 -87 80 -126 29 -39 67 -97 83 -130 17 -32 53 -90 82 -129 29
-38 63 -92 77 -119 14 -27 49 -81 78 -120 29 -39 66 -98 83 -131 16 -33 50
-88 75 -122 25 -33 63 -92 84 -130 22 -37 61 -97 87 -133 27 -36 62 -92 78
-125 17 -33 50 -85 74 -115 23 -30 62 -89 85 -130 23 -41 59 -97 79 -125 21
-27 51 -77 68 -111 17 -33 56 -94 87 -135 31 -40 69 -99 85 -129 15 -30 48
-83 74 -117 25 -34 58 -88 75 -120 16 -32 55 -92 86 -132 31 -41 70 -102 87
-135 17 -34 52 -90 77 -126 26 -36 63 -92 81 -125 18 -33 52 -85 75 -115 23
-30 57 -84 75 -120 17 -36 56 -96 85 -135 29 -38 70 -101 92 -140 22 -38 63
-101 91 -138 73 -96 69 -162 -12 -191 -23 -8 -5043 -8 -5085 0 -75 15 -89 67
-36 140 19 27 51 76 71 109 20 33 53 83 74 110 21 28 58 85 84 128 25 43 66
103 91 134 26 31 57 77 70 102 12 25 43 73 67 106 24 33 63 92 85 130 23 39
62 97 88 130 26 33 59 80 73 105 33 57 156 243 219 333 26 38 73 108 103 156
30 48 71 110 91 137 20 27 49 72 64 99 16 28 50 78 77 113 27 34 71 99 99 145
27 45 69 110 92 144 23 34 64 94 90 135 66 99 125 187 193 286 32 46 75 112
96 148 21 37 60 94 87 128 26 33 57 79 69 101 11 22 40 67 64 100 24 33 63 92
85 130 23 39 67 103 98 144 31 41 66 93 77 115 11 23 47 77 78 121 32 44 70
103 86 130 82 145 168 183 245 109z"/>
</g>
</svg>
