<svg xmlns="http://www.w3.org/2000/svg" viewBox="0 0 599.048582 468.158715">
<g transform="translate(-18.667076,475.376833) scale(0.100000,-0.100000)" fill="#000000" stroke="none">
<path d="M3162 4723 c-49 -33 -67 -56 -116 -148 -21 -38 -60 -95 -86 -125 -26
-30 -59 -78 -73 -106 -14 -28 -74 -122 -133 -210 -160 -237 -186 -277 -217
-330 -15 -27 -75 -116 -132 -199 -57 -82 -117 -172 -132 -198 -15 -27 -44 -73
-63 -101 -19 -29 -63 -95 -97 -147 -34 -52 -81 -121 -106 -154 -24 -33 -63
-93 -85 -133 -23 -40 -61 -98 -85 -130 -24 -31 -58 -82 -76 -112 -18 -30 -55
-84 -81 -120 -26 -36 -59 -87 -73 -115 -14 -27 -54 -89 -88 -137 -74 -100
-144 -206 -211 -316 -25 -42 -71 -111 -101 -152 -30 -41 -73 -106 -97 -144
-23 -38 -59 -92 -79 -120 -21 -28 -54 -81 -74 -118 -20 -36 -55 -90 -78 -118
-23 -29 -64 -89 -91 -133 -27 -45 -62 -97 -78 -117 -15 -19 -43 -63 -63 -98
-19 -35 -62 -102 -96 -150 -35 -48 -113 -163 -174 -257 -62 -93 -129 -192
-150 -218 -85 -111 -28 -249 97 -232 28 4 1309 9 2846 11 2622 4 2799 3 2863
-13 75 -19 87 -16 121 30 54 72 19 158 -160 402 -29 39 -66 99 -84 134 -17 35
-54 93 -81 129 -27 35 -59 83 -70 105 -12 23 -47 78 -79 122 -31 44 -72 109
-90 145 -18 36 -52 90 -75 120 -24 30 -64 91 -90 134 -25 44 -59 96 -75 116
-15 19 -47 71 -70 114 -23 44 -61 104 -85 135 -24 31 -62 89 -85 129 -23 41
-62 102 -87 135 -25 34 -58 87 -73 117 -15 30 -49 82 -75 115 -26 33 -63 92
-82 130 -20 39 -55 95 -78 125 -23 30 -57 82 -76 115 -18 33 -56 92 -85 130
-28 39 -66 99 -84 135 -18 36 -51 90 -75 121 -24 30 -60 84 -81 120 -20 35
-58 93 -84 129 -26 36 -62 94 -80 129 -17 35 -53 92 -79 126 -26 33 -65 92
-86 131 -21 38 -59 96 -83 129 -24 33 -56 83 -69 110 -14 28 -52 86 -83 130
-32 44 -68 100 -80 125 -13 25 -46 79 -75 120 -29 41 -64 98 -78 126 -14 28
-49 78 -76 110 -32 37 -61 85 -78 129 -46 121 -110 149 -201 88z m129 -460
c18 -16 47 -59 66 -100 18 -40 55 -100 81 -135 27 -35 68 -97 92 -138 24 -41
60 -97 81 -125 20 -27 51 -78 67 -111 17 -34 53 -91 80 -126 28 -35 65 -91 83
-124 18 -32 56 -93 84 -134 29 -41 64 -97 78 -125 14 -27 51 -84 82 -124 31
-41 70 -102 87 -135 17 -34 52 -90 77 -126 26 -36 63 -92 81 -125 18 -33 52
-85 75 -115 23 -30 58 -87 78 -125 19 -39 54 -95 77 -124 23 -29 64 -91 90
-136 27 -46 66 -107 88 -137 22 -29 52 -78 67 -108 15 -30 51 -86 80 -125 29
-38 70 -101 91 -140 21 -38 58 -97 82 -130 24 -33 57 -85 72 -115 15 -30 49
-82 75 -115 26 -33 62 -89 80 -125 18 -36 56 -96 85 -135 29 -38 63 -92 77
-120 14 -27 49 -81 78 -120 29 -38 65 -96 80 -128 15 -31 51 -84 81 -117 81
-91 89 -170 21 -215 -28 -18 -5012 -24 -5060 -6 -95 36 -85 124 29 266 31 39
77 102 101 140 57 89 154 238 223 340 104 155 275 414 313 471 53 81 157 235
216 319 27 39 58 88 69 110 11 22 50 80 87 129 36 49 73 103 82 120 9 17 37
60 63 96 26 36 64 94 85 130 20 36 62 99 92 140 65 90 187 276 227 345 16 28
54 84 85 125 32 41 70 98 86 125 16 28 45 73 66 100 20 28 58 85 83 127 25 43
67 106 94 140 27 35 61 86 77 113 15 28 45 73 65 100 21 28 59 86 85 129 25
44 68 107 94 140 26 34 66 93 89 131 82 142 163 187 233 128z"/>
</g>
</svg>
