<svg xmlns="http://www.w3.org/2000/svg" viewBox="0 0 380.758379 290.907784">
<g transform="translate(-9.241621,300.922647) scale(0.100000,-0.100000)" fill="#000000" stroke="none">
<path d="M1963 2990 c-18 -11 -43 -41 -57 -67 -13 -27 -38 -66 -56 -88 -29
-37 -90 -127 -134 -199 -11 -17 -53 -82 -95 -144 -42 -62 -89 -134 -106 -160
-79 -126 -140 -219 -156 -237 -10 -11 -33 -46 -51 -77 -18 -31 -64 -102 -103
-158 -38 -57 -79 -117 -89 -134 -11 -17 -53 -82 -95 -144 -42 -63 -98 -149
-126 -192 -62 -96 -105 -162 -145 -220 -17 -25 -45 -68 -63 -97 -32 -52 -162
-248 -237 -358 -22 -33 -69 -105 -105 -160 -35 -55 -79 -120 -97 -145 -18 -24
-45 -66 -60 -93 -15 -26 -40 -64 -57 -83 -45 -51 -50 -82 -17 -110 l26 -23
1683 -1 c925 0 1771 3 1880 6 l197 7 0 41 c0 39 -3 43 -42 61 -35 16 -49 32
-78 86 -51 96 -89 159 -125 204 -18 22 -44 63 -58 91 -14 28 -37 64 -50 80
-13 16 -36 52 -52 79 -15 28 -39 64 -53 80 -14 17 -33 47 -42 67 -9 21 -33 61
-54 90 -59 85 -126 190 -148 233 -12 22 -35 58 -53 80 -18 22 -42 59 -53 81
-12 23 -32 54 -45 70 -13 16 -35 49 -47 74 -13 25 -37 63 -55 85 -18 22 -43
60 -55 85 -12 24 -36 62 -52 85 -42 59 -129 193 -152 236 -12 21 -39 64 -60
96 -58 86 -120 182 -150 233 -15 25 -42 66 -59 92 -18 25 -50 76 -72 113 -22
36 -55 87 -73 113 -17 26 -44 69 -60 95 -15 27 -41 67 -58 90 -17 23 -39 58
-49 77 -40 81 -81 98 -142 60z m71 -269 c14 -6 37 -31 52 -58 14 -26 46 -77
69 -113 23 -36 51 -79 61 -97 21 -36 83 -130 131 -201 18 -26 42 -65 54 -87
12 -22 37 -60 56 -85 19 -25 41 -59 48 -77 7 -17 27 -51 45 -75 27 -39 102
-153 185 -284 17 -26 49 -77 72 -113 23 -36 55 -88 70 -114 15 -27 48 -77 73
-112 25 -35 58 -85 73 -112 50 -85 95 -157 129 -202 18 -24 47 -68 63 -97 31
-56 68 -113 122 -192 18 -26 45 -69 59 -96 15 -28 43 -73 64 -100 21 -28 46
-67 55 -86 10 -19 32 -53 50 -75 18 -22 35 -48 38 -58 8 -22 -6 -52 -29 -61
-21 -8 -3197 -8 -3218 0 -22 9 -30 42 -14 63 7 10 50 74 95 142 46 68 99 147
118 174 20 28 57 84 84 125 26 41 63 98 81 125 19 28 66 100 106 160 73 111
145 217 209 310 19 28 42 64 51 80 9 17 40 62 68 102 28 40 65 93 81 119 94
145 113 174 138 210 16 21 53 77 82 124 30 47 75 114 100 150 26 36 71 103
100 150 30 47 70 108 90 135 48 67 134 199 168 257 15 26 40 54 55 62 33 18
34 18 66 7z"/>
</g>
</svg>
