<svg xmlns="http://www.w3.org/2000/svg" viewBox="0 0 374.387835 293.002543">
<g transform="translate(-11.729263,297.043046) scale(0.100000,-0.100000)" fill="#000000" stroke="none">
<path d="M1973 2950 c-19 -11 -43 -41 -59 -72 -15 -29 -42 -70 -60 -90 -18
-20 -42 -54 -53 -75 -10 -21 -52 -87 -93 -147 -40 -59 -82 -122 -92 -140 -11
-17 -53 -82 -95 -144 -42 -63 -94 -142 -116 -177 -42 -66 -102 -157 -154 -235
-102 -148 -220 -327 -241 -365 -14 -24 -42 -67 -63 -97 -41 -57 -79 -114 -142
-214 -43 -68 -213 -323 -282 -424 -9 -14 -43 -65 -74 -115 -32 -49 -77 -117
-99 -150 -23 -33 -70 -104 -105 -158 -35 -54 -77 -114 -93 -135 -42 -53 -46
-103 -10 -141 19 -21 27 -23 72 -17 28 4 836 6 1796 6 1335 0 1753 -3 1778
-13 31 -11 36 -10 53 12 36 44 26 86 -48 194 -38 54 -84 124 -103 156 -19 33
-48 78 -64 102 -76 115 -115 177 -131 208 -10 19 -34 56 -54 82 -20 26 -49 69
-64 95 -47 82 -94 156 -135 214 -22 30 -49 73 -61 95 -12 22 -36 61 -54 87
-39 56 -80 121 -127 200 -19 32 -47 75 -61 95 -41 59 -134 204 -160 249 -38
64 -101 160 -141 215 -21 28 -38 57 -38 64 0 7 -21 42 -47 79 -27 36 -70 102
-98 147 -27 44 -64 101 -82 127 -17 26 -44 67 -59 92 -14 25 -43 70 -64 100
-20 30 -45 71 -55 90 -10 19 -32 52 -50 72 -17 21 -37 56 -44 77 -21 73 -65
90 -128 51z m89 -287 c9 -10 28 -42 42 -71 15 -29 41 -72 59 -96 18 -24 55
-81 82 -125 28 -45 64 -103 82 -129 17 -26 44 -67 59 -92 14 -25 43 -70 64
-100 20 -30 45 -71 55 -90 10 -19 32 -53 50 -75 18 -22 42 -58 53 -80 21 -42
91 -151 140 -220 16 -23 40 -61 52 -85 12 -25 36 -63 52 -85 25 -35 67 -98
183 -281 17 -26 53 -84 82 -128 28 -45 63 -101 76 -126 14 -25 39 -63 57 -85
18 -22 41 -57 52 -78 19 -38 71 -119 145 -227 21 -30 47 -74 59 -97 11 -23 37
-60 57 -82 42 -46 47 -81 17 -111 -20 -20 -33 -20 -1592 -20 -1244 0 -1578 3
-1598 13 -46 23 -39 63 27 153 32 43 83 117 114 164 30 47 71 110 92 140 20
30 67 100 103 155 37 55 83 124 103 153 42 63 94 141 136 207 17 25 45 67 63
93 17 26 45 67 61 92 16 25 43 65 61 90 17 25 45 68 63 97 18 28 68 105 111
170 43 65 88 132 100 150 12 17 55 82 97 145 118 177 124 186 208 313 44 66
98 146 121 177 22 32 52 78 66 103 44 78 110 109 146 68z"/>
</g>
</svg>
