<svg xmlns="http://www.w3.org/2000/svg" viewBox="0 0 279.452781 219.000000">
<g transform="translate(-9.774307,219.000000) scale(0.100000,-0.100000)" fill="#000000" stroke="none">
<path d="M1459 2167 c-20 -13 -44 -43 -59 -74 -14 -29 -39 -67 -56 -85 -18
-18 -43 -55 -57 -83 -14 -27 -35 -59 -47 -70 -12 -11 -34 -42 -47 -70 -14 -27
-39 -65 -54 -83 -16 -18 -38 -51 -50 -74 -12 -23 -39 -63 -60 -90 -21 -28 -39
-56 -39 -64 0 -7 -20 -38 -45 -68 -24 -30 -51 -70 -58 -89 -8 -18 -28 -49 -44
-68 -17 -19 -42 -56 -56 -84 -13 -27 -35 -59 -47 -70 -12 -11 -35 -45 -50 -75
-15 -30 -38 -64 -50 -75 -12 -11 -34 -42 -47 -70 -14 -27 -39 -65 -54 -83 -16
-18 -38 -51 -50 -74 -12 -23 -39 -63 -60 -90 -21 -28 -39 -56 -39 -63 0 -8
-18 -35 -41 -61 -22 -26 -51 -70 -63 -98 -13 -28 -36 -62 -51 -76 -15 -14 -36
-43 -46 -65 -10 -22 -33 -59 -51 -83 -28 -37 -33 -53 -36 -113 l-4 -69 1397 0
1397 0 -6 48 c-8 54 -73 188 -121 247 -18 22 -42 60 -55 85 -12 25 -36 60 -53
79 -16 19 -36 49 -43 66 -7 18 -29 53 -48 78 -19 26 -46 68 -60 95 -14 27 -36
62 -49 78 -13 16 -33 47 -45 69 -11 22 -34 58 -52 80 -18 22 -40 58 -50 81
-10 23 -31 56 -48 75 -16 19 -40 54 -52 79 -13 25 -34 58 -47 74 -13 16 -35
51 -49 77 -13 27 -37 63 -53 81 -15 18 -42 60 -59 94 -17 33 -38 66 -47 74 -9
8 -28 37 -42 64 -14 28 -38 65 -54 83 -15 18 -36 52 -47 76 -10 23 -33 59 -49
78 -17 18 -44 61 -61 94 -17 33 -44 72 -59 87 -16 14 -35 44 -41 67 -14 44
-53 81 -87 81 -12 0 -37 -10 -56 -23z m128 -266 c18 -35 43 -76 57 -90 13 -14
34 -46 46 -71 13 -25 35 -61 50 -80 15 -19 36 -53 48 -75 11 -22 34 -58 52
-80 18 -22 40 -58 50 -81 10 -23 31 -56 48 -75 16 -19 40 -54 52 -79 13 -25
34 -58 47 -74 13 -16 36 -52 50 -80 14 -28 39 -66 54 -84 16 -18 40 -54 53
-81 14 -26 36 -61 49 -77 13 -16 34 -49 47 -74 13 -25 34 -58 47 -74 13 -16
33 -47 45 -70 11 -22 40 -67 64 -99 24 -33 44 -65 44 -72 0 -7 18 -35 39 -63
22 -27 51 -71 65 -98 15 -27 42 -68 61 -92 38 -47 47 -100 21 -121 -11 -9
-303 -12 -1194 -12 -648 0 -1186 3 -1195 6 -8 4 -18 14 -21 22 -9 21 45 122
100 190 24 29 44 60 44 68 0 8 20 39 45 69 24 30 51 70 59 89 8 19 30 52 49
73 19 22 41 55 50 75 8 19 28 51 44 70 17 19 40 52 51 75 11 22 37 60 57 84
20 24 43 59 51 79 8 20 28 50 43 66 16 17 38 49 50 72 12 23 34 57 50 75 15
18 40 56 54 83 13 28 35 59 47 70 12 11 35 45 50 75 15 30 38 64 50 75 12 11
35 45 50 75 15 30 38 64 50 75 12 11 35 45 50 75 15 30 38 64 50 75 12 11 35
46 51 77 34 67 50 79 104 75 38 -2 41 -4 72 -66z"/>
</g>
</svg>
