<svg xmlns="http://www.w3.org/2000/svg" viewBox="0 0 633.865053 494.042480">
<g transform="translate(-0.000000,512.000000) scale(0.100000,-0.100000)" fill="#000000" stroke="none">
<path d="M3170 5097 c0 -13 -15 -46 -32 -74 -79 -123 -134 -201 -170 -241 -22
-24 -57 -82 -79 -130 -25 -54 -58 -105 -89 -137 -26 -29 -62 -79 -79 -112 -17
-34 -52 -86 -80 -117 -29 -34 -58 -81 -72 -118 -15 -40 -42 -83 -81 -126 -31
-36 -71 -93 -88 -126 -16 -34 -52 -87 -80 -119 -30 -35 -58 -82 -72 -119 -15
-43 -39 -80 -79 -122 -31 -34 -71 -90 -88 -124 -18 -35 -50 -83 -71 -106 -22
-24 -56 -78 -75 -121 -23 -49 -56 -100 -90 -136 -29 -32 -67 -86 -83 -121 -17
-35 -51 -87 -76 -117 -26 -29 -62 -86 -80 -127 -20 -43 -55 -96 -84 -126 -27
-29 -64 -82 -82 -118 -18 -36 -51 -85 -73 -110 -22 -25 -55 -79 -74 -120 -22
-48 -55 -96 -89 -132 -32 -34 -66 -83 -83 -120 -15 -35 -47 -86 -71 -113 -23
-27 -59 -83 -78 -124 -20 -41 -60 -100 -88 -130 -28 -31 -66 -85 -84 -121 -18
-36 -49 -85 -70 -110 -21 -25 -54 -79 -75 -120 -21 -44 -59 -98 -91 -130 -32
-34 -65 -80 -83 -120 -16 -36 -48 -88 -71 -115 -23 -28 -56 -79 -75 -115 -18
-36 -55 -92 -81 -124 -27 -32 -67 -93 -90 -135 -41 -78 -83 -117 -136 -128
-28 -5 -28 -6 -28 -83 0 -77 0 -77 100 -103 99 -27 99 -27 3100 -27 2971 -1
3000 0 3038 19 109 56 126 100 67 182 -19 26 -52 83 -74 126 -21 43 -58 101
-81 128 -23 28 -57 80 -75 116 -18 36 -54 90 -79 119 -26 31 -58 84 -73 123
-20 49 -45 89 -85 132 -36 39 -69 89 -91 137 -19 41 -51 93 -71 115 -19 22
-52 73 -72 114 -20 41 -58 97 -84 125 -49 51 -78 101 -99 165 -6 19 -34 62
-62 95 -28 32 -64 86 -79 120 -15 33 -53 89 -83 123 -38 43 -64 84 -82 132
-18 46 -45 91 -77 127 -28 31 -65 87 -83 123 -19 36 -54 90 -79 119 -26 30
-58 84 -73 123 -19 47 -47 90 -87 134 -33 38 -70 93 -88 132 -16 36 -47 87
-69 113 -21 25 -59 86 -83 135 -27 52 -62 104 -87 128 -27 26 -56 69 -81 124
-21 46 -54 101 -73 122 -19 21 -51 71 -71 111 -20 40 -60 99 -89 130 -37 40
-61 78 -80 128 -18 47 -44 91 -78 128 -27 31 -62 85 -78 119 -16 33 -51 87
-78 118 -31 35 -61 84 -78 127 -18 45 -47 91 -81 130 -29 32 -71 95 -93 140
-22 44 -61 102 -86 129 -45 48 -73 113 -73 170 0 56 -5 59 -96 59 -81 0 -84
-1 -84 -23z m133 -799 c21 -8 37 -30 68 -96 22 -46 58 -105 79 -131 21 -25 53
-77 70 -116 18 -41 51 -91 81 -122 31 -33 64 -83 88 -135 21 -46 57 -106 81
-133 24 -27 55 -77 70 -111 15 -33 53 -89 83 -123 38 -42 65 -85 83 -132 17
-43 46 -91 76 -125 27 -31 64 -87 83 -124 19 -37 56 -93 83 -124 31 -35 59
-82 77 -128 20 -50 44 -89 76 -123 27 -28 65 -85 85 -125 20 -41 58 -100 84
-131 26 -31 57 -85 70 -119 16 -42 42 -82 82 -127 37 -41 72 -93 94 -140 19
-42 50 -93 69 -114 19 -21 53 -75 76 -120 22 -45 63 -105 90 -134 32 -34 59
-77 79 -124 16 -39 49 -95 73 -124 25 -29 59 -81 77 -117 18 -36 55 -91 83
-123 30 -35 62 -87 79 -130 19 -47 45 -89 79 -124 97 -103 112 -228 33 -279
-38 -25 -4752 -24 -4790 1 -32 21 -30 40 12 154 47 125 49 128 99 181 24 25
58 76 76 114 18 37 55 91 82 120 28 29 64 82 83 123 19 40 52 93 74 119 23 25
56 77 75 114 19 38 59 95 89 128 32 34 68 87 84 123 16 36 48 86 71 113 23 26
58 80 77 119 20 39 60 96 89 127 32 33 66 82 83 120 16 36 48 88 71 115 23 28
58 81 78 119 19 38 59 95 88 126 33 34 66 82 84 124 17 37 50 89 72 115 23 25
57 77 75 114 19 37 60 95 90 128 32 35 68 88 85 126 16 35 49 88 73 116 24 29
58 80 75 115 18 35 57 90 87 123 32 35 68 88 85 127 17 36 49 89 73 116 24 28
58 79 75 114 18 35 57 90 87 124 31 33 68 85 82 117 51 114 109 176 176 191
32 7 41 6 89 -12z"/>
</g>
</svg>
