<svg xmlns="http://www.w3.org/2000/svg" viewBox="0 0 342.484995 220.637935">
<g transform="translate(-0.500000,220.652367) scale(0.100000,-0.100000)" fill="#000000" stroke="none">
<path d="M1697 2159 c-27 -30 -74 -85 -103 -124 -30 -38 -81 -104 -113 -145
-33 -41 -71 -91 -85 -111 -13 -19 -43 -58 -65 -85 -23 -27 -57 -68 -77 -91
-41 -50 -135 -170 -214 -274 -30 -39 -73 -93 -95 -119 -22 -26 -67 -83 -100
-125 -33 -43 -76 -97 -96 -119 -20 -23 -50 -61 -68 -86 -53 -76 -165 -216
-232 -294 -20 -22 -49 -61 -66 -86 -17 -25 -41 -54 -53 -65 -12 -11 -28 -32
-36 -47 -8 -15 -33 -50 -57 -77 -103 -121 -120 -145 -139 -194 -11 -32 -33
-64 -56 -84 l-37 -33 1713 0 c941 0 1712 1 1712 3 0 1 -11 36 -24 78 -19 63
-37 92 -103 175 -43 54 -94 119 -111 144 -36 50 -96 129 -187 245 -81 103
-146 189 -195 255 -22 30 -65 87 -95 125 -125 160 -171 220 -195 254 -14 20
-68 91 -120 157 -52 67 -117 151 -145 188 -27 36 -70 93 -95 125 -25 33 -70
92 -100 132 -30 39 -75 94 -98 122 -24 27 -57 71 -73 97 -31 50 -78 92 -118
105 -19 6 -31 -1 -74 -46z m88 -165 c15 -6 76 -82 243 -302 146 -193 178 -235
212 -277 37 -45 92 -117 214 -280 41 -55 102 -134 135 -175 33 -41 85 -109
115 -150 72 -98 133 -178 176 -233 70 -87 186 -241 209 -276 13 -20 38 -52 57
-71 42 -44 58 -84 44 -111 -6 -10 -14 -19 -18 -19 -172 -4 -2853 1 -2864 5
-43 17 -24 76 51 159 28 31 51 60 51 65 0 4 21 33 48 64 76 89 192 233 302
377 30 39 73 93 95 119 139 169 213 262 270 337 43 57 63 82 165 209 202 252
238 298 355 453 84 110 99 121 140 106z"/>
</g>
</svg>
