<svg xmlns="http://www.w3.org/2000/svg" viewBox="0 0 389.734137 304.899079">
<g transform="translate(-10.155179,319.867743) scale(0.100000,-0.100000)" fill="#000000" stroke="none">
<path d="M2033 3188 c-12 -6 -29 -26 -38 -44 -8 -18 -27 -46 -40 -63 -14 -16
-36 -53 -49 -83 -13 -29 -36 -64 -51 -78 -15 -14 -38 -46 -51 -72 -13 -26 -37
-62 -53 -80 -16 -18 -36 -51 -45 -73 -9 -22 -32 -56 -50 -75 -19 -19 -44 -55
-56 -80 -12 -25 -33 -56 -46 -70 -12 -14 -32 -47 -44 -73 -12 -26 -41 -70 -66
-98 -24 -27 -44 -56 -44 -63 0 -8 -16 -34 -36 -57 -20 -24 -46 -66 -59 -94
-12 -27 -37 -63 -55 -80 -18 -16 -42 -52 -54 -80 -13 -27 -31 -56 -40 -64 -10
-8 -30 -40 -46 -70 -15 -31 -40 -67 -55 -81 -15 -14 -40 -50 -55 -81 -16 -30
-36 -61 -45 -69 -9 -8 -30 -40 -46 -72 -16 -32 -41 -69 -56 -81 -14 -12 -36
-45 -49 -74 -12 -28 -36 -66 -52 -85 -16 -18 -40 -55 -52 -81 -13 -27 -33 -55
-46 -64 -13 -8 -35 -40 -50 -71 -15 -32 -40 -72 -55 -90 -16 -18 -36 -49 -44
-70 -9 -20 -33 -55 -54 -77 -21 -22 -43 -55 -49 -73 -6 -18 -27 -52 -45 -75
-19 -23 -44 -60 -55 -82 -11 -22 -32 -51 -47 -65 -15 -14 -39 -50 -52 -80 -14
-30 -40 -71 -58 -91 -18 -20 -36 -47 -40 -59 -10 -31 2 -84 24 -104 17 -15
164 -16 1917 -16 1044 0 1905 0 1911 0 7 0 20 14 29 32 24 46 14 111 -25 156
-17 20 -44 65 -60 99 -16 33 -39 67 -51 73 -12 6 -35 40 -51 75 -16 35 -42 79
-58 97 -16 18 -35 49 -43 68 -9 20 -29 49 -47 65 -17 17 -41 55 -52 85 -11 30
-35 71 -54 90 -18 19 -40 51 -48 71 -8 19 -28 51 -45 71 -17 19 -41 57 -52 84
-12 27 -36 65 -55 84 -19 19 -41 53 -50 75 -9 22 -28 51 -41 65 -13 14 -37 53
-53 85 -16 33 -41 71 -56 85 -15 14 -38 50 -52 80 -13 30 -35 66 -47 80 -13
14 -35 48 -49 75 -14 28 -39 63 -56 79 -17 16 -37 50 -46 76 -9 26 -27 58 -41
71 -14 13 -37 47 -51 74 -14 28 -40 67 -59 87 -18 20 -38 55 -45 78 -7 23 -28
58 -47 78 -18 20 -44 58 -57 83 -13 25 -35 60 -49 76 -14 17 -34 51 -45 76
-11 25 -34 61 -51 79 -18 18 -43 56 -57 83 -14 28 -36 63 -50 78 -13 16 -35
53 -49 83 -14 30 -36 62 -49 70 -13 9 -32 37 -41 62 -26 68 -44 93 -81 108
-38 16 -60 17 -90 2z m99 -495 c23 -22 52 -62 65 -93 14 -30 40 -71 59 -92 18
-21 40 -54 49 -74 8 -20 30 -53 49 -74 18 -21 39 -55 46 -76 7 -22 30 -57 50
-80 21 -23 48 -63 59 -90 12 -27 33 -60 46 -74 13 -14 31 -43 40 -65 9 -22 32
-56 50 -75 19 -19 44 -57 56 -85 12 -27 36 -68 54 -90 17 -22 42 -62 55 -88
12 -26 33 -55 46 -63 13 -9 32 -41 44 -72 12 -32 37 -73 55 -92 19 -19 41 -52
49 -72 9 -21 29 -52 45 -71 16 -18 40 -57 54 -87 13 -30 37 -66 52 -80 15 -14
36 -45 47 -70 11 -25 30 -56 43 -70 14 -14 38 -53 54 -85 16 -33 41 -71 56
-85 15 -14 38 -50 52 -80 13 -30 35 -66 47 -80 13 -14 33 -43 44 -65 11 -22
34 -53 51 -69 34 -32 42 -84 17 -105 -10 -9 -395 -12 -1507 -11 -822 0 -1499
0 -1506 0 -20 0 -43 30 -43 56 0 16 14 40 40 65 22 22 47 54 56 72 9 17 28 45
42 62 14 16 33 50 44 74 10 25 39 66 64 93 24 26 44 54 44 63 0 8 16 32 35 54
19 21 46 63 59 92 13 30 38 68 56 84 18 17 40 48 50 71 10 23 31 56 48 75 16
19 37 52 46 74 9 22 34 58 56 80 21 22 45 56 53 76 8 19 28 51 45 70 16 19 37
52 46 74 9 22 34 58 56 80 21 22 45 56 53 76 8 19 28 51 45 70 16 19 37 52 46
74 9 22 34 58 56 80 21 22 45 56 53 76 8 19 28 51 45 70 16 19 37 52 46 74 9
22 32 56 50 75 19 19 45 58 59 86 14 27 33 56 42 64 9 8 28 37 42 64 14 28 40
67 59 86 18 19 40 53 50 75 22 55 32 65 65 65 19 0 43 -13 71 -37z"/>
</g>
</svg>
