<svg xmlns="http://www.w3.org/2000/svg" viewBox="0 0 623.653840 489.231482">
<g transform="translate(-16.306320,511.707509) scale(0.100000,-0.100000)" fill="#000000" stroke="none">
<path d="M3276 5110 c-40 -13 -64 -37 -96 -100 -15 -30 -46 -77 -68 -104 -23
-27 -51 -76 -63 -108 -14 -39 -42 -81 -81 -124 -33 -36 -73 -94 -89 -128 -16
-34 -50 -85 -74 -113 -24 -28 -60 -85 -79 -127 -21 -46 -55 -97 -84 -128 -27
-29 -63 -81 -80 -114 -17 -34 -50 -84 -73 -110 -23 -27 -58 -83 -77 -124 -21
-48 -53 -95 -88 -131 -29 -32 -68 -86 -85 -123 -17 -36 -48 -85 -69 -109 -20
-23 -56 -78 -78 -122 -23 -44 -64 -104 -93 -134 -29 -31 -63 -81 -79 -117 -16
-34 -49 -88 -74 -119 -26 -31 -60 -85 -76 -121 -17 -38 -51 -88 -83 -122 -31
-32 -70 -89 -91 -131 -20 -41 -52 -91 -71 -112 -19 -21 -51 -71 -71 -111 -20
-40 -61 -99 -91 -131 -30 -33 -67 -87 -83 -125 -17 -36 -51 -90 -76 -121 -26
-31 -59 -83 -74 -117 -15 -33 -53 -87 -83 -121 -34 -36 -69 -87 -87 -127 -16
-37 -50 -91 -74 -119 -24 -29 -58 -81 -76 -117 -18 -36 -58 -92 -89 -126 -37
-40 -64 -81 -80 -122 -13 -33 -45 -87 -72 -118 -26 -31 -64 -88 -84 -125 -20
-37 -58 -92 -85 -122 -27 -30 -63 -85 -80 -123 -17 -37 -48 -86 -69 -109 -104
-113 -116 -223 -33 -296 36 -32 36 -32 133 -25 187 12 5796 7 5864 -5 186 -35
250 168 105 335 -23 28 -57 83 -76 124 -22 48 -55 96 -93 137 -33 35 -65 81
-71 102 -20 61 -47 108 -90 158 -23 26 -56 78 -75 116 -19 37 -58 95 -87 127
-37 41 -60 80 -77 126 -16 46 -38 83 -71 119 -26 29 -64 84 -84 122 -20 39
-58 95 -84 126 -29 33 -59 84 -76 128 -20 50 -44 90 -81 129 -29 31 -69 90
-89 131 -20 41 -53 92 -72 114 -20 22 -52 74 -71 116 -21 46 -54 96 -84 128
-31 32 -65 84 -88 135 -22 46 -58 106 -81 133 -24 28 -55 78 -70 111 -16 34
-54 90 -87 126 -43 47 -64 82 -81 131 -16 44 -40 85 -73 123 -28 31 -65 87
-85 125 -19 38 -56 93 -83 123 -32 35 -57 77 -75 124 -19 49 -44 90 -82 132
-30 34 -67 89 -82 123 -16 34 -48 84 -72 112 -24 27 -60 87 -81 133 -24 52
-57 102 -88 135 -29 30 -64 83 -84 127 -19 41 -54 97 -77 125 -23 27 -55 79
-71 115 -17 37 -51 86 -78 115 -52 53 -68 81 -101 169 -38 101 -131 153 -224
126z m70 -755 c61 -25 137 -112 170 -193 18 -47 48 -96 82 -135 30 -34 72 -96
93 -137 22 -41 59 -98 83 -127 25 -29 54 -79 67 -113 14 -40 41 -82 79 -125
31 -36 73 -97 92 -137 19 -40 52 -93 73 -118 21 -25 53 -78 72 -118 21 -47 53
-95 88 -131 38 -40 64 -79 85 -131 16 -40 50 -96 75 -125 24 -29 59 -82 76
-120 18 -37 54 -90 79 -119 48 -52 78 -103 99 -166 6 -19 36 -64 66 -99 31
-35 68 -91 84 -125 16 -33 50 -86 77 -116 31 -36 59 -82 77 -127 19 -49 46
-92 84 -134 30 -34 68 -90 83 -123 15 -34 46 -83 70 -111 23 -27 58 -84 77
-125 20 -44 55 -97 84 -127 31 -33 64 -84 88 -135 21 -46 54 -102 74 -126 20
-24 50 -69 67 -100 17 -31 53 -83 80 -115 73 -85 76 -148 9 -182 -42 -22
-4765 -23 -4807 -1 -76 39 -67 119 23 206 26 24 58 67 72 95 14 27 42 70 63
95 21 25 54 79 75 120 21 41 63 102 93 135 30 33 66 84 80 113 13 30 45 79 70
110 25 31 62 90 83 131 21 43 60 100 89 130 30 31 64 81 80 116 15 33 46 82
69 109 23 27 59 83 80 125 22 42 62 100 91 130 30 31 64 81 80 116 15 33 47
83 70 110 24 28 58 82 77 122 19 42 56 96 87 130 29 32 67 86 84 119 17 34 50
84 73 110 23 26 58 82 77 123 20 41 60 100 88 130 28 31 66 85 84 121 18 36
51 85 73 110 22 25 55 78 74 118 20 46 54 95 87 130 29 32 68 86 85 120 18 35
53 89 78 120 25 31 58 84 73 118 16 34 54 90 88 128 38 41 67 85 78 117 33 91
76 115 150 84z"/>
</g>
</svg>
