<svg xmlns="http://www.w3.org/2000/svg" viewBox="0 0 660.000000 520.000000">
<g transform="translate(0.000000,520.000000) scale(0.100000,-0.100000)" fill="#000000" stroke="none">
<path d="M3197 5193 c-4 -3 -7 -21 -7 -38 0 -56 -29 -120 -90 -196 -33 -41
-77 -110 -98 -154 -22 -44 -68 -116 -104 -160 -36 -44 -81 -109 -101 -145 -19
-36 -60 -95 -90 -132 -29 -36 -61 -81 -69 -99 -9 -19 -27 -59 -42 -89 -14 -30
-54 -89 -89 -131 -36 -43 -83 -111 -106 -153 -24 -42 -65 -102 -92 -134 -27
-31 -71 -102 -98 -157 -31 -62 -72 -126 -109 -168 -32 -37 -78 -102 -101 -145
-23 -42 -64 -104 -93 -137 -28 -33 -70 -100 -94 -150 -26 -53 -70 -122 -108
-166 -35 -43 -83 -111 -106 -154 -23 -42 -65 -104 -92 -138 -28 -34 -70 -102
-94 -152 -28 -57 -67 -116 -107 -162 -35 -40 -83 -108 -106 -151 -23 -43 -62
-103 -87 -133 -24 -30 -67 -98 -95 -151 -28 -55 -78 -131 -115 -175 -36 -42
-81 -107 -99 -143 -18 -36 -59 -99 -90 -140 -31 -41 -76 -113 -100 -160 -25
-51 -69 -114 -107 -157 -36 -40 -82 -105 -103 -145 -21 -40 -59 -102 -85 -138
-26 -36 -68 -106 -93 -156 -54 -108 -96 -148 -174 -165 -53 -12 -53 -12 -53
-216 0 -203 0 -203 3300 -203 3300 0 3300 0 3300 158 0 158 0 158 -47 171 -59
15 -124 79 -171 168 -18 34 -58 93 -89 130 -30 37 -77 113 -105 167 -27 55
-71 127 -98 160 -27 33 -70 99 -95 146 -25 47 -71 114 -101 150 -32 37 -71 98
-90 140 -48 105 -61 127 -119 195 -28 33 -69 97 -93 142 -23 45 -68 112 -98
150 -32 38 -75 108 -100 160 -26 57 -66 120 -103 164 -33 40 -81 111 -105 159
-25 47 -67 114 -94 147 -27 34 -69 103 -95 155 -29 59 -69 119 -108 163 -41
45 -75 98 -100 153 -22 46 -66 119 -98 163 -33 43 -78 114 -100 156 -23 43
-66 107 -98 143 -36 42 -72 99 -100 160 -25 52 -68 124 -98 160 -29 36 -72
101 -96 145 -23 44 -69 114 -102 155 -33 41 -79 116 -102 165 -25 53 -68 121
-104 165 -34 41 -79 110 -102 153 -22 42 -62 106 -89 141 -26 35 -66 99 -89
143 -22 44 -63 109 -92 144 -58 72 -85 125 -95 187 -7 42 -7 42 -114 42 -58 0
-110 -3 -113 -7z m166 -873 c14 -11 43 -49 63 -83 21 -34 58 -89 83 -121 24
-32 66 -103 92 -156 29 -59 70 -122 104 -161 31 -35 77 -104 102 -154 25 -49
69 -122 99 -160 29 -39 71 -107 93 -151 22 -45 68 -115 106 -160 45 -52 82
-110 110 -169 23 -49 65 -119 94 -155 29 -36 70 -100 92 -142 21 -42 66 -110
100 -150 40 -48 78 -109 110 -176 29 -62 68 -127 98 -161 27 -31 71 -97 99
-147 27 -50 72 -120 101 -155 28 -35 71 -105 95 -155 25 -52 69 -121 106 -165
34 -41 81 -112 105 -159 24 -47 64 -112 90 -145 26 -33 68 -103 95 -155 29
-57 72 -123 109 -165 39 -43 77 -101 102 -153 22 -46 60 -113 84 -149 64 -93
72 -129 42 -191 -27 -56 133 -53 -2442 -52 -2635 0 -2449 -4 -2499 63 -48 65
-9 189 94 302 37 42 79 103 105 155 23 47 67 117 97 155 30 39 74 104 97 146
23 42 69 107 102 145 35 39 80 106 104 154 23 47 67 117 97 155 30 39 74 104
97 146 23 42 69 107 102 145 36 41 80 106 106 159 25 50 67 117 94 151 26 33
71 100 99 148 28 49 75 116 106 150 32 35 74 98 101 152 25 50 69 121 99 157
29 37 69 98 89 135 20 38 68 106 106 152 42 50 87 116 110 164 21 45 63 111
93 148 30 38 71 99 91 136 20 38 67 106 106 152 40 46 88 118 110 164 22 44
57 103 78 131 21 27 63 89 94 137 73 113 126 138 190 88z"/>
</g>
</svg>
