<svg xmlns="http://www.w3.org/2000/svg" viewBox="0 0 545.633519 352.674971">
<g transform="translate(-3.000000,352.674971) scale(0.100000,-0.100000)" fill="#000000" stroke="none">
<path d="M2785 3521 c-11 -5 -36 -27 -55 -48 -54 -61 -152 -181 -209 -253
-127 -163 -230 -297 -279 -363 -30 -40 -74 -96 -99 -125 -25 -29 -64 -77 -87
-107 -22 -29 -64 -82 -93 -117 -126 -152 -146 -178 -204 -258 -34 -47 -76
-101 -95 -120 -18 -19 -55 -65 -81 -102 -64 -89 -168 -219 -224 -282 -25 -28
-65 -78 -89 -111 -24 -33 -65 -85 -90 -115 -26 -30 -62 -77 -80 -105 -18 -27
-48 -66 -67 -86 -19 -20 -58 -68 -86 -107 -48 -65 -76 -99 -202 -252 -25 -30
-67 -84 -93 -119 -26 -35 -69 -91 -97 -123 -27 -33 -68 -86 -90 -118 -23 -32
-61 -80 -87 -107 -25 -27 -57 -68 -71 -90 -14 -22 -47 -65 -74 -96 -35 -39
-59 -81 -81 -141 -26 -68 -42 -93 -77 -124 -25 -22 -45 -42 -45 -46 0 -3 1229
-6 2731 -6 2448 0 2731 2 2725 15 -3 9 -19 59 -36 113 -36 115 -49 137 -160
276 -127 159 -221 283 -320 421 -25 35 -68 92 -97 127 -123 149 -176 217 -215
273 -23 33 -60 82 -82 109 -23 27 -63 82 -91 121 -48 70 -116 157 -229 295
-29 36 -70 90 -92 120 -21 30 -59 80 -84 111 -25 31 -69 89 -98 130 -29 41
-88 119 -132 174 -43 55 -101 129 -127 164 -26 35 -70 91 -97 124 -27 33 -70
90 -95 126 -25 37 -67 94 -93 127 -46 58 -88 111 -205 264 -32 41 -77 98 -102
125 -24 28 -66 84 -93 125 -94 142 -186 208 -253 181z m64 -335 c34 -18 83
-72 186 -205 44 -57 119 -153 167 -215 48 -61 115 -149 148 -196 33 -47 103
-139 155 -205 52 -66 120 -154 152 -195 31 -41 74 -96 96 -122 22 -26 63 -81
91 -122 49 -71 145 -197 299 -393 40 -50 95 -121 122 -157 28 -37 71 -94 97
-129 27 -34 67 -89 89 -122 23 -33 63 -85 88 -115 59 -69 160 -198 229 -293
29 -40 74 -99 101 -132 26 -33 60 -80 76 -105 15 -25 50 -69 77 -99 119 -130
115 -219 -10 -236 -28 -4 -55 -4 -61 -1 -5 3 -976 5 -2158 4 -1181 -1 -2171
-2 -2199 -2 -163 1 -178 104 -36 257 32 35 76 90 96 122 21 32 59 81 85 109
26 28 66 76 89 106 48 63 137 175 220 273 31 38 74 94 96 125 21 31 58 78 81
103 23 25 55 65 70 89 15 24 46 64 70 89 23 25 61 73 85 106 24 33 63 80 85
105 23 25 61 71 84 103 23 31 61 79 85 106 24 27 59 71 77 98 18 26 56 75 84
109 27 33 71 90 97 125 47 63 78 101 203 249 65 77 112 136 236 300 40 52 85
109 100 125 16 17 50 60 76 96 193 265 208 278 272 245z"/>
</g>
</svg>
