<svg xmlns="http://www.w3.org/2000/svg" viewBox="0 0 446.266003 350.139172">
<g transform="translate(-15.733997,350.139172) scale(0.100000,-0.100000)" fill="#000000" stroke="none">
<path d="M2355 3484 c-53 -29 -77 -58 -113 -134 -21 -46 -55 -97 -87 -131 -29
-30 -69 -87 -88 -126 -20 -38 -57 -94 -82 -124 -26 -30 -63 -85 -82 -124 -20
-38 -58 -97 -85 -129 -27 -33 -65 -91 -84 -129 -19 -38 -52 -87 -73 -110 -21
-23 -55 -74 -75 -114 -20 -40 -56 -95 -81 -123 -25 -28 -62 -83 -81 -123 -20
-39 -56 -94 -81 -122 -24 -27 -60 -83 -80 -123 -20 -40 -55 -94 -78 -120 -23
-26 -59 -80 -79 -121 -21 -40 -57 -94 -81 -120 -23 -25 -59 -78 -78 -117 -20
-39 -57 -95 -82 -125 -26 -30 -63 -85 -82 -124 -20 -38 -55 -92 -80 -120 -24
-27 -59 -81 -78 -120 -19 -38 -58 -97 -87 -130 -28 -33 -63 -88 -79 -121 -15
-34 -51 -88 -79 -119 -29 -32 -63 -81 -75 -109 -13 -28 -46 -82 -74 -119 -54
-73 -67 -116 -73 -240 -4 -67 -4 -67 2229 -67 2233 0 2233 0 2233 28 0 107
-96 322 -198 445 -24 29 -61 86 -82 127 -21 41 -57 98 -80 125 -23 28 -57 80
-75 116 -19 37 -56 96 -84 131 -27 36 -66 98 -86 139 -21 40 -57 97 -81 127
-24 29 -59 84 -79 120 -19 37 -54 90 -76 117 -23 28 -58 84 -79 125 -21 41
-57 98 -80 125 -23 28 -59 84 -80 125 -21 41 -57 98 -80 125 -23 28 -59 84
-80 126 -22 42 -57 98 -80 124 -23 26 -58 82 -80 124 -21 42 -59 103 -85 136
-26 33 -62 89 -80 125 -18 36 -52 88 -75 115 -23 28 -59 84 -80 125 -21 42
-58 101 -83 131 -24 30 -61 88 -82 129 -21 41 -61 101 -90 132 -37 39 -61 78
-79 126 -45 116 -127 162 -211 116z m129 -353 c10 -9 36 -52 58 -96 23 -44 60
-102 83 -130 24 -27 58 -81 78 -120 19 -38 56 -97 82 -130 26 -33 62 -89 80
-125 18 -36 54 -92 80 -125 26 -33 63 -91 82 -130 20 -38 56 -94 80 -124 25
-30 60 -85 78 -121 18 -36 51 -88 74 -115 23 -28 61 -88 86 -135 24 -47 63
-107 86 -135 22 -27 55 -77 71 -110 17 -33 54 -92 84 -131 29 -39 65 -95 78
-126 13 -30 47 -83 76 -119 29 -35 68 -95 87 -134 20 -38 55 -95 78 -125 24
-30 57 -83 73 -116 17 -34 54 -90 82 -125 28 -35 67 -97 86 -138 20 -40 55
-94 78 -120 101 -108 110 -213 21 -245 -22 -8 -556 -10 -1892 -6 -1862 5
-1862 5 -1890 26 -15 12 -29 33 -31 47 -5 37 86 209 149 282 29 33 65 87 81
120 16 34 49 84 74 112 24 29 60 83 78 120 19 38 54 91 79 118 24 28 61 82 81
122 19 40 56 95 81 123 25 28 61 82 80 120 19 38 55 92 80 120 25 28 61 82 80
120 19 38 55 92 80 120 25 28 61 82 80 120 19 38 55 92 80 120 25 28 61 81 79
119 19 37 56 92 81 122 26 30 62 84 80 120 19 36 55 90 80 120 26 30 62 84 80
120 19 36 54 89 79 119 24 29 61 83 81 121 19 37 56 92 81 121 25 29 63 87 84
128 21 41 46 82 56 92 43 38 130 43 168 9z"/>
</g>
</svg>
