<svg xmlns="http://www.w3.org/2000/svg" viewBox="0 0 396.417790 308.241293">
<g transform="translate(0.000000,320.000000) scale(0.100000,-0.100000)" fill="#000000" stroke="none">
<path d="M1977 3173 c-6 -27 -48 -90 -124 -184 -20 -26 -43 -64 -50 -85 -8
-21 -29 -55 -47 -74 -19 -19 -45 -57 -59 -85 -14 -27 -35 -59 -47 -70 -12 -11
-33 -45 -47 -75 -13 -30 -38 -68 -55 -85 -17 -16 -37 -45 -45 -63 -7 -18 -29
-50 -48 -71 -19 -21 -42 -58 -50 -81 -8 -24 -35 -65 -60 -91 -25 -27 -45 -55
-45 -64 0 -8 -15 -32 -34 -53 -19 -21 -45 -62 -59 -92 -13 -30 -37 -66 -52
-80 -15 -14 -40 -50 -55 -80 -15 -30 -38 -64 -50 -75 -12 -11 -32 -42 -45 -70
-12 -27 -35 -61 -50 -75 -15 -14 -38 -47 -52 -75 -14 -27 -36 -61 -49 -75 -12
-14 -34 -50 -47 -80 -14 -30 -39 -68 -57 -85 -18 -16 -40 -48 -50 -71 -10 -23
-31 -56 -48 -75 -16 -19 -37 -52 -46 -74 -9 -22 -34 -58 -56 -80 -21 -22 -46
-58 -55 -80 -9 -22 -27 -51 -39 -65 -13 -14 -35 -47 -49 -75 -14 -27 -37 -61
-52 -75 -15 -14 -38 -47 -52 -75 -14 -27 -37 -63 -50 -79 -13 -16 -33 -47 -45
-70 -11 -22 -31 -52 -43 -66 -13 -14 -39 -52 -57 -85 -23 -41 -45 -66 -71 -80
-34 -19 -37 -23 -37 -66 l0 -46 57 -13 c46 -10 442 -13 1945 -12 l1887 0 35
21 c48 30 52 48 18 95 -16 23 -38 61 -49 87 -11 25 -34 61 -50 80 -17 18 -42
57 -56 85 -14 27 -33 57 -43 65 -9 8 -28 39 -41 69 -14 30 -40 71 -58 90 -19
19 -42 53 -51 75 -9 22 -30 55 -46 73 -16 19 -40 57 -52 85 -13 29 -36 63 -51
77 -15 14 -38 50 -52 80 -13 30 -35 66 -47 80 -13 14 -34 45 -46 70 -12 25
-37 61 -56 80 -18 19 -40 55 -49 79 -8 24 -31 61 -50 82 -19 21 -41 55 -50 75
-8 20 -30 53 -49 74 -18 21 -39 55 -46 76 -7 22 -29 57 -50 79 -21 22 -46 58
-55 80 -9 22 -29 57 -46 78 -17 20 -37 54 -45 75 -9 20 -33 55 -54 77 -21 22
-46 60 -56 85 -9 25 -30 59 -45 75 -15 17 -36 50 -47 75 -11 25 -32 56 -47 70
-15 14 -42 57 -60 95 -18 39 -43 79 -55 90 -12 11 -33 41 -46 67 -13 25 -37
61 -54 79 -16 18 -37 54 -45 80 -9 25 -29 59 -46 75 -17 16 -42 52 -56 80 -13
28 -37 64 -53 79 -22 21 -33 45 -41 87 l-12 58 -52 0 c-49 0 -53 -2 -58 -27z
m94 -492 c13 -10 30 -36 38 -57 7 -22 24 -50 37 -64 13 -14 37 -53 53 -85 16
-33 41 -71 56 -85 15 -14 38 -50 52 -80 13 -30 35 -66 47 -80 13 -14 34 -45
46 -70 12 -25 35 -58 51 -75 15 -16 39 -55 52 -85 14 -30 37 -68 51 -83 14
-16 36 -47 47 -70 12 -23 37 -59 55 -79 18 -20 38 -55 45 -78 7 -23 29 -60 49
-83 21 -23 49 -65 63 -93 14 -27 33 -57 43 -65 9 -8 29 -41 44 -74 15 -33 40
-71 55 -85 15 -14 38 -48 51 -77 12 -28 36 -66 51 -85 16 -18 37 -52 47 -75
10 -23 33 -56 52 -74 18 -18 41 -54 49 -79 9 -26 27 -58 41 -71 14 -13 37 -46
51 -74 14 -27 40 -66 58 -86 18 -20 38 -54 45 -75 7 -22 31 -58 53 -81 35 -36
41 -50 45 -95 8 -98 174 -89 -1528 -88 -821 0 -1496 3 -1501 6 -13 8 -11 39 5
76 8 18 20 49 27 68 8 19 28 51 45 70 17 19 42 57 54 83 13 27 34 56 48 65 14
9 36 41 49 71 14 30 38 70 54 89 16 18 39 54 51 78 11 25 31 52 44 61 13 8 35
40 50 71 15 32 40 72 56 90 15 18 38 53 49 76 11 24 34 56 50 70 17 15 39 48
50 73 11 25 33 61 49 80 17 19 37 50 45 71 9 20 33 55 55 77 21 22 45 57 54
79 9 21 29 53 45 72 17 18 38 53 49 76 11 24 34 56 51 73 18 16 41 50 52 75
11 25 31 56 43 70 13 14 35 48 49 75 14 28 39 63 57 80 17 16 40 50 51 74 10
24 32 58 48 77 16 18 38 53 49 76 11 24 34 57 52 73 17 17 42 53 54 80 26 57
86 115 120 115 13 0 34 -8 47 -19z"/>
</g>
</svg>
