<svg xmlns="http://www.w3.org/2000/svg" viewBox="0 0 865.289138 785.271149">
<g transform="translate(-21.352281,801.756116) scale(0.100000,-0.100000)" fill="#000000" stroke="none">
<path d="M3309 8010 c-181 -32 -222 -109 -143 -271 156 -320 193 -429 224
-664 60 -448 67 -1682 10 -1784 -37 -66 -88 -89 -241 -106 -125 -15 -310 -47
-624 -110 -216 -43 -341 -60 -590 -80 -498 -40 -788 -88 -833 -138 -100 -108
-16 -202 250 -279 321 -94 360 -96 643 -34 88 19 228 44 310 56 175 25 296 49
455 90 649 167 656 163 591 -380 -28 -233 -35 -268 -85 -433 -24 -78 -56 -209
-70 -292 -34 -188 -55 -265 -118 -429 -28 -72 -62 -179 -78 -237 -32 -124 -54
-175 -114 -272 -24 -40 -61 -117 -81 -172 -41 -111 -58 -143 -126 -230 -25
-33 -65 -93 -88 -132 -23 -40 -65 -98 -94 -130 -29 -32 -65 -74 -81 -93 -74
-91 -429 -449 -493 -497 -39 -29 -98 -77 -130 -106 -32 -30 -87 -73 -121 -96
-35 -24 -92 -68 -126 -100 -40 -36 -98 -73 -158 -103 -53 -25 -124 -67 -159
-93 -35 -26 -109 -70 -164 -97 -55 -28 -138 -74 -185 -104 -47 -30 -123 -67
-168 -84 -98 -36 -141 -57 -223 -110 -33 -21 -84 -46 -112 -56 -149 -48 -206
-114 -155 -179 66 -84 164 -71 658 89 91 30 197 62 235 72 39 10 120 44 180
75 61 31 158 71 215 89 122 38 162 57 248 117 34 25 99 61 145 82 114 51 137
65 188 107 24 20 89 66 144 102 54 35 126 90 160 121 33 31 94 82 135 113 41
31 134 114 205 184 72 69 144 133 162 140 105 45 210 -21 292 -183 21 -43 67
-117 102 -165 35 -48 86 -126 113 -172 98 -170 338 -376 438 -376 69 0 247
171 302 289 32 70 31 304 -1 374 -91 196 -273 375 -482 475 -63 30 -143 72
-177 93 -35 21 -85 49 -112 63 -140 71 -152 133 -57 277 30 45 67 114 81 153
15 39 59 134 98 211 52 102 79 170 100 250 18 73 49 154 91 240 73 150 87 193
115 365 23 144 43 204 73 225 84 58 218 -52 317 -260 32 -66 80 -148 108 -183
28 -35 68 -100 90 -145 22 -45 65 -116 96 -157 32 -41 80 -118 107 -170 27
-52 73 -124 102 -160 29 -36 72 -104 96 -150 24 -47 68 -117 97 -156 30 -40
77 -113 105 -164 27 -51 75 -124 106 -164 30 -39 75 -110 99 -157 23 -47 66
-115 94 -150 28 -35 72 -98 97 -140 25 -42 71 -106 103 -143 31 -36 80 -103
107 -148 28 -46 75 -112 104 -148 30 -36 72 -96 94 -134 22 -38 62 -93 89
-124 27 -31 75 -96 107 -145 32 -48 103 -139 158 -201 215 -244 250 -260 646
-297 199 -19 1247 -19 1405 -1 63 8 199 15 301 17 422 8 475 147 123 323 -33
17 -125 49 -204 72 -81 23 -166 54 -195 71 -27 17 -79 48 -115 70 -36 21 -101
51 -145 65 -97 32 -133 50 -230 113 -41 27 -113 63 -160 80 -110 40 -136 53
-215 111 -36 27 -112 71 -170 98 -58 28 -130 72 -160 97 -30 25 -104 70 -163
101 -59 30 -133 76 -164 101 -31 26 -93 69 -137 96 -45 27 -108 73 -141 102
-34 29 -92 74 -130 101 -39 26 -99 73 -135 104 -36 31 -94 77 -130 102 -197
138 -701 632 -851 833 -37 49 -79 101 -94 115 -15 14 -60 68 -100 120 -40 52
-87 109 -105 125 -18 17 -57 63 -87 103 -30 40 -80 101 -112 135 -32 34 -80
96 -106 137 -26 41 -71 104 -100 140 -29 36 -70 97 -91 135 -21 39 -62 97 -90
131 -29 33 -77 100 -108 148 -30 47 -74 109 -96 137 -109 138 -96 452 24 573
129 129 564 164 2246 181 603 6 636 13 709 145 80 144 -99 371 -359 455 -30
10 -104 40 -163 67 -239 108 -501 111 -887 11 -196 -51 -290 -70 -472 -93
-206 -27 -288 -44 -577 -126 -373 -105 -480 -74 -467 136 2 47 9 292 15 545
21 903 25 936 157 1134 145 218 70 408 -209 529 -45 19 -117 55 -160 80 -142
81 -486 141 -648 112z"/>
</g>
</svg>
