<svg xmlns="http://www.w3.org/2000/svg" viewBox="0 0 694.687705 627.731666">
<g transform="translate(-16.019699,640.685745) scale(0.100000,-0.100000)" fill="#000000" stroke="none">
<path d="M2591 6396 c-55 -18 -101 -62 -101 -95 0 -14 22 -71 49 -126 127
-256 151 -326 177 -530 38 -302 42 -1343 5 -1417 -24 -49 -67 -68 -178 -79
-99 -10 -230 -33 -538 -94 -167 -33 -261 -45 -520 -65 -71 -6 -193 -19 -270
-29 -77 -11 -165 -22 -195 -26 -92 -10 -107 -15 -134 -42 -19 -19 -26 -36 -26
-64 0 -84 36 -115 176 -153 49 -13 131 -36 183 -51 114 -34 217 -31 381 9 58
14 182 37 276 50 94 13 240 42 325 64 419 106 431 108 482 56 45 -45 45 -64
-9 -468 -8 -61 -31 -161 -53 -230 -21 -66 -49 -182 -61 -256 -21 -129 -34
-171 -113 -390 -19 -52 -40 -122 -47 -155 -13 -64 -40 -122 -89 -195 -17 -25
-45 -87 -62 -138 -24 -72 -43 -108 -85 -160 -29 -37 -66 -89 -81 -117 -44 -82
-428 -500 -518 -565 -27 -19 -76 -60 -110 -91 -33 -31 -80 -69 -105 -84 -25
-15 -67 -49 -95 -76 -32 -30 -79 -61 -130 -85 -44 -20 -105 -56 -136 -80 -31
-24 -90 -59 -132 -78 -41 -19 -103 -53 -138 -77 -34 -23 -104 -57 -155 -75
-51 -18 -121 -53 -156 -76 -35 -24 -92 -52 -126 -63 -134 -40 -163 -126 -59
-170 61 -25 91 -19 442 95 83 27 179 56 215 65 36 8 115 40 175 70 61 30 149
66 196 79 64 19 103 38 153 75 37 28 92 59 123 71 79 29 106 45 158 90 25 22
76 57 113 79 37 22 85 58 107 81 22 23 65 59 95 80 30 21 111 92 179 159 141
138 145 141 199 141 74 0 123 -45 182 -165 21 -44 59 -104 83 -133 24 -29 56
-76 71 -105 48 -91 76 -125 175 -214 147 -131 215 -151 279 -80 178 196 176
191 176 342 1 100 -1 115 -26 165 -77 154 -226 296 -400 380 -332 160 -367
204 -267 325 50 60 54 68 84 156 13 39 35 88 48 108 46 70 74 136 102 241 17
68 44 137 76 196 52 97 70 159 94 327 26 192 69 213 192 94 67 -64 88 -97 124
-192 11 -30 41 -79 66 -108 25 -28 62 -88 83 -132 22 -44 58 -102 81 -130 23
-27 59 -85 80 -128 21 -43 57 -100 80 -125 23 -26 61 -85 84 -132 24 -47 62
-107 86 -135 23 -27 54 -77 69 -110 15 -33 51 -89 79 -123 29 -35 68 -96 86
-136 18 -41 54 -97 79 -125 25 -28 57 -74 71 -100 13 -27 49 -77 80 -112 31
-35 70 -90 87 -122 17 -31 53 -82 80 -113 27 -31 60 -77 73 -104 13 -26 49
-76 80 -111 31 -35 69 -87 84 -115 16 -27 51 -75 78 -105 27 -30 66 -74 86
-99 57 -68 146 -138 199 -156 126 -41 996 -71 1308 -44 80 7 231 15 335 19
197 6 257 20 295 66 46 55 -144 191 -335 240 -134 35 -150 42 -222 92 -37 26
-106 60 -169 83 -63 23 -134 57 -173 84 -37 26 -101 57 -146 72 -82 27 -112
44 -177 99 -20 16 -72 45 -117 63 -50 21 -99 50 -129 78 -28 24 -87 61 -133
83 -46 21 -108 60 -138 85 -30 26 -77 59 -104 73 -28 14 -73 47 -101 73 -28
26 -82 68 -121 92 -38 25 -83 60 -100 78 -16 18 -56 50 -88 71 -126 84 -620
564 -694 674 -23 33 -53 71 -68 85 -15 14 -51 57 -80 95 -29 39 -70 86 -90
105 -20 19 -51 55 -68 80 -17 25 -59 75 -94 112 -34 38 -71 85 -82 107 -11 21
-43 67 -72 102 -28 35 -64 90 -81 123 -16 32 -49 79 -73 105 -23 25 -57 71
-75 101 -18 30 -50 75 -70 100 -70 85 -75 102 -75 240 0 153 23 217 96 268 84
57 118 63 519 92 186 14 854 29 1280 30 205 0 374 5 400 11 119 27 204 154
157 235 -53 95 -197 207 -297 234 -25 6 -90 34 -145 60 -193 94 -386 88 -805
-23 -53 -14 -172 -35 -265 -46 -194 -24 -231 -32 -451 -97 -233 -68 -267 -72
-336 -37 -48 24 -60 54 -54 130 3 37 9 271 15 518 14 662 16 677 105 810 139
206 90 348 -157 452 -44 18 -91 42 -106 52 -88 62 -202 88 -416 96 -97 4 -141
2 -174 -9z"/>
</g>
</svg>
