<svg xmlns="http://www.w3.org/2000/svg" viewBox="0 0 435.444565 392.463024">
<g transform="translate(-9.408158,400.901767) scale(0.100000,-0.100000)" fill="#000000" stroke="none">
<path d="M1633 4000 c-44 -10 -83 -37 -83 -57 0 -8 9 -30 19 -47 40 -65 109
-244 120 -311 20 -122 32 -471 25 -709 -8 -281 -4 -271 -139 -286 -49 -5 -169
-25 -265 -44 -96 -19 -233 -40 -305 -45 -148 -12 -376 -39 -420 -50 -42 -10
-62 -49 -46 -89 15 -35 27 -41 171 -82 123 -35 169 -37 282 -10 46 11 130 26
188 34 58 8 177 33 265 56 88 22 173 39 189 38 18 -2 37 -14 49 -30 20 -26 20
-28 2 -180 -10 -88 -27 -185 -41 -228 -14 -41 -33 -123 -44 -183 -11 -59 -33
-140 -50 -181 -16 -40 -36 -102 -45 -137 -9 -35 -31 -89 -49 -119 -18 -30 -41
-78 -50 -107 -10 -28 -32 -71 -50 -95 -17 -24 -43 -62 -56 -85 -45 -75 -266
-306 -359 -373 -22 -17 -41 -34 -41 -40 0 -5 -19 -20 -43 -34 -23 -14 -56 -39
-72 -57 -17 -17 -54 -42 -83 -55 -30 -13 -70 -36 -90 -52 -20 -15 -55 -36 -77
-46 -22 -10 -61 -31 -86 -47 -25 -16 -71 -38 -102 -48 -31 -11 -70 -30 -87
-43 -17 -12 -56 -32 -87 -43 -31 -11 -62 -30 -70 -42 -14 -20 -13 -24 11 -48
14 -14 37 -25 52 -25 47 0 391 107 494 154 41 19 100 42 130 51 30 9 71 30 92
46 20 17 57 37 81 45 25 8 62 30 83 48 22 17 60 44 86 59 26 15 54 37 62 49 8
11 32 32 54 47 22 14 76 63 121 108 62 64 88 83 109 83 48 0 88 -34 120 -102
16 -35 40 -72 52 -83 12 -11 35 -45 51 -76 28 -57 136 -167 193 -196 41 -21
66 -11 119 52 69 79 77 99 77 186 0 71 -2 80 -38 135 -49 76 -149 163 -232
203 -215 104 -233 125 -164 201 20 22 42 61 50 86 8 26 28 68 44 94 16 26 39
82 50 125 11 43 34 102 50 131 32 57 46 109 60 217 14 114 44 125 123 44 35
-34 58 -69 69 -102 10 -28 32 -68 51 -90 18 -22 39 -55 46 -73 8 -18 27 -49
43 -70 17 -20 41 -59 55 -87 14 -27 39 -65 55 -84 17 -19 39 -54 49 -79 11
-25 33 -61 50 -80 17 -19 39 -54 49 -77 10 -23 31 -57 48 -76 16 -19 42 -59
57 -89 15 -30 43 -73 61 -94 19 -22 34 -45 34 -51 0 -7 21 -37 48 -68 26 -30
59 -75 75 -99 55 -85 96 -144 130 -183 19 -22 41 -53 50 -70 8 -16 55 -71 103
-122 68 -69 99 -94 129 -102 76 -21 549 -34 773 -22 114 6 241 11 282 11 88 0
164 28 158 57 -6 33 -136 110 -223 133 -47 13 -101 36 -131 56 -28 19 -79 44
-113 55 -34 12 -84 36 -110 53 -26 18 -69 38 -94 45 -25 8 -64 29 -86 48 -22
19 -60 41 -84 49 -25 8 -62 30 -84 49 -22 19 -64 45 -94 58 -30 13 -63 34 -74
47 -11 12 -38 31 -60 42 -22 11 -61 40 -87 64 -26 24 -52 44 -58 44 -6 0 -32
20 -58 43 -26 24 -54 48 -64 53 -57 31 -346 308 -411 394 -23 30 -59 76 -82
102 -22 26 -65 77 -95 114 -30 36 -69 80 -86 98 -17 17 -47 56 -67 87 -19 31
-40 60 -46 64 -6 3 -22 28 -36 55 -13 26 -42 69 -65 95 -22 25 -40 50 -40 56
0 5 -16 26 -35 47 -44 49 -55 80 -55 150 0 107 31 163 110 195 61 26 279 39
825 51 505 10 531 12 557 31 37 28 62 76 55 106 -11 40 -113 136 -165 154 -26
9 -76 30 -111 47 -36 16 -89 34 -120 39 -73 12 -223 -5 -334 -36 -49 -14 -154
-35 -234 -46 -91 -13 -193 -35 -273 -60 -140 -42 -152 -44 -198 -28 -35 12
-58 57 -47 91 4 13 11 176 15 363 8 353 14 395 54 450 73 97 74 178 4 241 -12
12 -75 46 -138 77 -108 53 -121 57 -225 67 -60 5 -112 10 -115 9 -3 -1 -20 -4
-37 -9z"/>
</g>
</svg>
