<svg xmlns="http://www.w3.org/2000/svg" viewBox="0 0 764.797273 656.829067">
<g transform="translate(-18.000000,671.829067) scale(0.100000,-0.100000)" fill="#000000" stroke="none">
<path d="M1942 6513 c2 -298 -20 -411 -101 -517 -22 -28 -53 -82 -70 -120 -19
-42 -52 -91 -84 -125 -29 -31 -67 -76 -84 -101 -17 -25 -50 -63 -73 -85 -23
-22 -56 -60 -73 -85 -94 -137 -306 -344 -525 -512 -98 -75 -134 -177 -76 -215
42 -27 236 40 339 117 28 21 87 58 133 83 45 25 108 68 140 95 31 27 85 66
119 86 34 20 82 53 105 73 24 20 73 56 110 80 38 25 77 57 88 73 11 16 44 46
73 66 46 34 121 108 336 329 32 33 76 85 98 115 23 30 93 108 157 173 177 180
180 215 29 368 -76 78 -113 107 -185 145 -89 47 -123 80 -137 132 -7 27 -7 27
-164 30 -156 3 -156 3 -155 -205z"/>
<path d="M3848 6545 c-100 -33 -115 -83 -53 -187 41 -69 129 -299 149 -388 13
-59 23 -134 41 -304 4 -33 7 -329 7 -658 -1 -743 22 -674 -247 -733 -88 -20
-205 -47 -260 -61 -55 -13 -163 -32 -240 -40 -617 -67 -664 -81 -665 -189 0
-73 59 -120 188 -149 40 -9 106 -28 147 -41 95 -32 146 -31 296 4 68 16 172
37 231 45 58 9 137 27 175 42 205 77 266 82 310 25 23 -29 11 -136 -47 -461
-11 -58 -31 -171 -44 -252 -18 -106 -37 -178 -66 -252 -55 -140 -76 -216 -90
-328 -15 -116 -31 -163 -80 -239 -22 -34 -56 -103 -76 -156 -21 -53 -56 -120
-81 -154 -24 -32 -59 -90 -78 -127 -18 -38 -57 -95 -85 -128 -29 -32 -67 -81
-85 -109 -37 -55 -190 -213 -331 -342 -49 -45 -125 -115 -169 -156 -44 -40
-98 -84 -120 -97 -22 -13 -69 -45 -105 -70 -36 -26 -92 -61 -126 -78 -33 -17
-80 -47 -105 -67 -45 -39 -87 -60 -173 -91 -63 -22 -86 -45 -86 -87 0 -114
179 -112 426 4 60 28 156 64 214 81 122 35 127 37 202 93 31 23 86 53 123 66
45 16 86 40 123 73 32 27 81 65 111 84 30 19 79 58 110 86 31 28 77 67 104 85
26 19 65 58 87 87 78 103 158 97 225 -17 20 -34 52 -80 71 -103 19 -22 51 -76
73 -120 21 -45 56 -101 78 -126 22 -25 58 -73 81 -106 118 -176 380 -189 463
-24 46 91 65 207 46 282 -41 167 -73 217 -178 279 -39 22 -84 53 -102 68 -60
51 -94 70 -169 95 -159 52 -221 100 -233 180 -11 69 18 161 60 196 33 27 73
96 90 155 47 161 59 194 95 255 38 63 62 134 94 275 9 38 36 112 61 165 35 76
47 117 60 204 18 126 33 168 69 191 53 35 101 -4 151 -124 14 -35 44 -92 66
-126 21 -34 48 -87 58 -117 25 -74 48 -116 84 -158 16 -19 43 -64 59 -100 16
-36 37 -83 47 -105 10 -22 37 -62 59 -89 23 -27 54 -84 72 -131 19 -50 49
-104 76 -136 25 -30 56 -79 70 -109 39 -85 54 -111 96 -161 21 -26 55 -84 76
-130 22 -46 58 -106 81 -134 23 -27 60 -84 82 -125 21 -41 62 -102 90 -134 27
-32 61 -80 74 -107 14 -26 49 -74 78 -106 30 -32 66 -79 81 -105 15 -26 51
-73 80 -106 29 -32 69 -88 89 -125 46 -82 198 -228 276 -264 73 -35 162 -40
499 -32 294 8 450 20 584 45 46 8 163 26 260 39 191 26 241 42 263 86 33 63 0
125 -83 154 -26 9 -92 39 -147 66 -55 27 -137 58 -183 70 -62 16 -103 35 -163
75 -44 29 -96 58 -117 65 -61 19 -124 55 -177 99 -27 23 -84 60 -126 81 -42
21 -99 57 -125 80 -27 23 -85 59 -129 79 -44 21 -100 55 -125 77 -25 22 -78
57 -118 77 -40 20 -89 52 -110 70 -20 18 -67 56 -103 83 -141 105 -585 519
-656 611 -19 26 -63 78 -98 117 -34 38 -80 97 -102 130 -23 33 -55 74 -73 90
-18 17 -46 50 -63 75 -16 25 -61 77 -99 116 -37 40 -68 76 -68 81 0 6 -27 41
-61 79 -33 37 -76 95 -96 129 -20 33 -53 81 -74 106 -21 26 -55 75 -74 108
-20 34 -61 89 -90 122 -94 105 -121 225 -91 399 40 229 41 229 591 270 143 11
350 29 460 40 310 33 422 39 671 40 389 0 524 43 524 165 0 96 -47 148 -199
222 -51 25 -120 62 -153 84 -92 59 -173 73 -377 66 -187 -6 -254 -20 -422 -87
-67 -26 -159 -52 -259 -71 -106 -21 -195 -46 -283 -80 -164 -63 -221 -78 -334
-86 -152 -10 -179 23 -169 207 4 63 15 306 26 540 21 466 19 448 87 705 85
323 60 415 -131 488 -38 15 -98 44 -135 66 -86 52 -165 70 -331 76 -104 4
-146 2 -182 -10z"/>
<path d="M1777 4948 c-97 -26 -117 -85 -66 -200 30 -68 31 -75 28 -189 -4
-117 -4 -117 -56 -216 -28 -55 -61 -133 -74 -174 -26 -88 -51 -141 -90 -191
-29 -36 -61 -102 -93 -189 -9 -26 -39 -72 -67 -104 -27 -31 -61 -79 -74 -105
-13 -26 -46 -73 -73 -104 -27 -31 -64 -84 -82 -118 -19 -35 -57 -88 -85 -118
-29 -30 -70 -82 -92 -115 -23 -33 -60 -78 -83 -99 -23 -22 -54 -58 -68 -80
-38 -62 -145 -178 -372 -405 -207 -207 -250 -265 -250 -337 0 -48 233 30 337
114 37 30 94 67 127 84 32 16 79 49 105 72 25 24 78 64 117 90 43 28 120 96
192 171 114 118 123 125 160 125 44 0 77 -28 91 -76 8 -28 -3 -736 -14 -824
-2 -25 -9 -106 -15 -180 -14 -169 -31 -246 -86 -387 -138 -351 -132 -800 13
-1001 17 -23 41 -68 53 -99 43 -108 82 -143 160 -143 109 0 149 45 207 236 67
221 64 183 63 1084 -1 827 4 982 37 1215 39 281 31 355 -52 445 -93 101 -94
189 -1 265 24 20 59 64 81 104 21 39 60 97 87 128 27 32 65 88 84 125 18 37
46 82 62 100 45 53 68 90 82 133 20 62 49 115 91 165 32 38 99 156 99 175 0 3
25 42 55 86 108 158 62 269 -178 436 -157 108 -242 132 -360 101z"/>
</g>
</svg>
