<svg xmlns="http://www.w3.org/2000/svg" viewBox="0 0 449.976303 383.514277">
<g transform="translate(-12.023697,389.866004) scale(0.100000,-0.100000)" fill="#000000" stroke="none">
<path d="M2122 3883 c-19 -9 -35 -26 -38 -40 -9 -33 14 -97 54 -156 18 -26 37
-60 43 -74 31 -82 48 -559 32 -927 -9 -216 6 -203 -283 -265 -25 -5 -103 -15
-175 -21 -138 -12 -365 -53 -402 -71 -30 -16 -44 -60 -30 -89 9 -17 41 -33
127 -62 143 -49 215 -52 335 -15 44 14 118 33 163 41 47 9 105 28 132 43 62
35 94 24 110 -36 15 -57 -12 -287 -45 -378 -13 -38 -34 -125 -45 -194 -15 -84
-32 -148 -55 -199 -18 -41 -38 -100 -45 -130 -6 -30 -27 -80 -45 -111 -19 -30
-43 -80 -55 -111 -11 -30 -30 -64 -42 -74 -11 -11 -32 -37 -46 -59 -40 -63
-99 -130 -214 -244 -151 -151 -336 -311 -358 -311 -4 0 -31 -16 -59 -35 -29
-20 -78 -47 -110 -61 -56 -25 -81 -52 -81 -90 0 -52 142 -37 290 30 52 24 120
51 151 60 31 8 75 31 99 50 23 18 61 40 83 47 22 7 54 27 71 44 17 18 51 45
76 62 25 17 75 63 112 102 46 49 74 71 90 71 32 0 109 -80 143 -150 15 -30 37
-65 48 -78 12 -12 33 -44 47 -69 34 -63 147 -143 203 -143 33 0 45 7 89 52 83
86 108 167 70 234 -28 51 -89 139 -103 150 -8 6 -30 17 -49 24 -19 7 -57 30
-85 51 -28 21 -67 40 -90 44 -103 17 -125 34 -125 99 0 24 11 48 37 83 20 26
45 75 55 108 10 33 27 71 37 85 30 42 47 82 65 153 9 38 32 99 51 135 26 51
37 88 46 157 17 145 25 165 59 165 42 0 96 -58 136 -147 19 -41 47 -91 63
-111 16 -20 36 -59 44 -85 9 -26 30 -65 46 -86 16 -20 38 -60 49 -89 11 -28
34 -69 50 -90 17 -21 40 -63 52 -93 12 -30 32 -65 45 -79 14 -14 40 -57 58
-96 19 -38 42 -76 52 -84 9 -7 32 -43 51 -79 19 -36 49 -85 67 -107 17 -23 40
-54 49 -70 19 -31 68 -97 116 -154 16 -19 41 -55 56 -78 47 -75 146 -186 184
-207 35 -19 56 -20 352 -20 300 0 478 11 590 36 56 13 100 53 100 90 0 34 -26
54 -96 75 -28 8 -71 28 -97 44 -25 15 -73 36 -108 46 -34 10 -82 33 -107 52
-24 18 -65 43 -90 53 -25 11 -61 33 -80 50 -19 17 -56 40 -81 51 -25 10 -59
32 -76 48 -16 16 -52 38 -78 50 -26 12 -62 34 -80 49 -18 16 -48 36 -67 46
-35 18 -92 63 -184 145 -28 25 -67 58 -86 72 -51 38 -251 236 -285 283 -16 22
-47 61 -70 86 -22 26 -65 77 -95 114 -30 38 -69 82 -86 99 -37 36 -163 205
-251 336 -20 30 -49 67 -64 83 -33 33 -44 91 -35 175 21 175 64 195 481 217
148 8 293 17 320 20 28 3 152 12 277 20 184 11 236 18 273 34 52 23 70 54 61
105 -11 56 -46 87 -167 149 -87 43 -128 59 -174 63 -93 10 -224 -10 -307 -47
-39 -17 -117 -39 -172 -49 -56 -10 -132 -32 -171 -48 -92 -40 -286 -79 -323
-66 -48 17 -56 52 -44 178 6 61 14 179 17 261 9 232 23 411 36 458 6 23 24 60
40 81 41 57 39 102 -7 157 -44 53 -61 65 -115 84 -23 8 -69 28 -103 45 -98 47
-243 63 -304 33z"/>
<path d="M625 3399 c-28 -17 -35 -29 -35 -65 0 -34 33 -75 204 -259 115 -123
165 -173 225 -222 46 -38 58 -43 102 -43 27 0 62 6 77 14 40 21 89 76 107 120
22 52 22 163 0 209 -23 50 -135 143 -182 152 -21 3 -73 22 -116 42 -59 26
-100 37 -165 43 -48 5 -112 11 -142 15 -35 3 -62 1 -75 -6z"/>
<path d="M143 2375 c-26 -18 -30 -66 -9 -103 7 -13 83 -95 170 -182 222 -224
288 -255 409 -196 73 35 87 61 87 163 0 88 -9 109 -68 149 -21 13 -57 37 -80
53 -24 16 -62 32 -85 36 -23 3 -76 17 -117 31 -41 13 -111 30 -155 39 -44 8
-91 17 -105 20 -15 4 -34 0 -47 -10z"/>
<path d="M1075 1678 c-32 -40 -73 -97 -92 -127 -19 -31 -50 -78 -69 -106 -19
-27 -49 -72 -66 -98 -18 -26 -48 -67 -65 -90 -18 -23 -45 -59 -60 -80 -16 -21
-48 -63 -73 -92 -64 -75 -109 -132 -153 -189 -44 -59 -175 -169 -236 -198 -50
-24 -71 -63 -71 -130 0 -67 27 -162 59 -214 17 -26 38 -72 46 -102 14 -45 28
-66 83 -118 37 -35 75 -67 84 -70 22 -7 91 29 116 61 11 14 25 48 31 74 6 27
24 84 41 126 17 43 37 110 45 149 8 39 32 105 54 146 21 41 43 99 50 128 11
54 30 97 62 142 10 14 27 60 38 102 11 42 34 98 51 124 16 26 37 72 46 103 8
31 33 88 54 126 21 39 45 93 54 121 9 28 31 73 48 100 52 81 48 184 -6 184 -8
0 -39 -32 -71 -72z"/>
</g>
</svg>
