<svg xmlns="http://www.w3.org/2000/svg" viewBox="0 0 479.446988 410.726127">
<g transform="translate(-10.000000,420.000000) scale(0.100000,-0.100000)" fill="#000000" stroke="none">
<path d="M1212 4058 c0 -173 -12 -237 -56 -303 -19 -27 -44 -71 -56 -96 -11
-26 -33 -58 -48 -72 -15 -14 -54 -58 -87 -97 -151 -179 -226 -258 -323 -338
-111 -91 -142 -135 -122 -172 6 -11 17 -20 24 -20 32 0 164 53 196 79 20 16
59 40 88 55 29 15 69 41 90 59 20 18 62 49 92 70 102 68 149 103 182 134 85
79 298 294 298 301 0 5 43 52 95 106 88 90 95 101 95 138 0 34 -7 47 -57 100
-33 34 -82 73 -114 89 -57 28 -99 69 -99 95 0 11 -22 14 -99 14 l-99 0 0 -142z"/>
<path d="M2388 4084 c-51 -22 -55 -44 -19 -107 44 -78 89 -208 107 -311 13
-73 17 -176 18 -509 l1 -419 -27 -23 c-15 -13 -53 -29 -85 -35 -32 -7 -103
-23 -158 -36 -55 -13 -145 -29 -200 -35 -183 -20 -364 -48 -384 -59 -48 -25
-33 -107 24 -134 18 -9 39 -16 47 -16 7 0 52 -11 100 -26 l87 -25 83 20 c46
10 124 26 173 35 50 9 117 27 150 41 78 32 129 33 150 2 14 -21 13 -37 -11
-173 -14 -82 -34 -199 -44 -261 -11 -61 -32 -144 -48 -185 -30 -76 -46 -138
-57 -223 -7 -50 -23 -90 -56 -135 -10 -14 -28 -51 -39 -83 -10 -32 -31 -72
-45 -89 -15 -17 -39 -56 -55 -88 -16 -31 -36 -62 -45 -70 -9 -8 -31 -34 -48
-59 -30 -44 -101 -125 -141 -159 -36 -30 -139 -126 -175 -163 -38 -37 -116
-93 -205 -144 -29 -16 -72 -45 -97 -63 -24 -18 -63 -38 -86 -43 -23 -6 -49
-19 -59 -30 -22 -25 -11 -67 22 -79 41 -16 142 5 235 49 46 22 113 47 149 56
37 9 81 29 101 45 21 16 60 38 88 49 29 11 69 34 89 53 21 18 58 48 83 66 89
65 141 110 162 140 28 40 68 58 96 43 23 -13 78 -90 131 -187 20 -35 47 -76
61 -91 15 -15 35 -43 45 -61 38 -68 162 -104 230 -69 43 22 60 46 78 106 21
71 20 106 -3 173 -26 74 -46 103 -82 119 -17 6 -56 31 -86 55 -31 24 -79 50
-107 58 -143 42 -184 136 -102 233 42 49 53 70 66 129 6 27 29 85 51 129 21
44 44 107 50 140 6 33 24 87 41 120 20 39 35 91 44 149 9 63 19 95 33 110 36
36 62 11 130 -126 33 -68 61 -128 61 -135 0 -6 18 -35 40 -64 22 -29 47 -74
55 -99 8 -25 31 -64 50 -88 18 -24 39 -60 46 -80 6 -20 28 -59 49 -87 20 -27
43 -65 50 -84 8 -19 29 -55 48 -79 19 -25 43 -65 53 -90 11 -25 33 -60 50 -79
16 -19 38 -53 49 -76 11 -23 38 -64 60 -91 22 -26 40 -52 40 -57 0 -5 17 -28
39 -52 21 -23 51 -62 66 -87 15 -25 38 -57 51 -71 14 -14 39 -48 57 -76 44
-71 146 -159 199 -174 58 -16 491 -4 613 16 50 9 137 22 195 30 125 18 159 30
171 63 13 33 -11 69 -59 88 -20 8 -62 27 -93 44 -31 16 -75 32 -98 36 -23 4
-67 22 -99 41 -31 19 -81 46 -111 59 -29 13 -68 37 -87 53 -18 16 -55 39 -81
51 -26 12 -61 34 -78 50 -16 16 -52 38 -80 50 -27 12 -63 34 -80 50 -16 16
-51 38 -76 49 -26 10 -50 24 -54 30 -3 6 -39 35 -78 65 -172 129 -423 380
-527 529 -23 31 -44 57 -49 57 -5 0 -21 19 -36 43 -15 23 -44 58 -64 77 -20
19 -52 57 -71 83 -19 27 -58 81 -87 120 -28 40 -64 92 -79 117 -15 25 -44 64
-65 86 -51 57 -66 128 -49 233 22 138 33 146 221 161 355 29 495 42 509 47 8
3 134 9 280 13 346 10 395 24 395 111 0 54 -36 87 -175 162 l-115 62 -150 -1
c-149 0 -151 -1 -249 -38 -55 -21 -142 -47 -195 -57 -53 -11 -143 -37 -201
-58 -64 -24 -133 -42 -176 -46 -66 -7 -73 -6 -94 15 -22 22 -22 27 -16 159 4
75 11 233 17 351 9 199 13 227 50 378 36 145 39 166 28 200 -18 57 -46 89 -87
102 -20 7 -64 27 -98 46 -95 52 -267 71 -346 38z"/>
<path d="M1090 3083 c-43 -22 -49 -55 -21 -112 37 -71 26 -195 -22 -265 -11
-15 -30 -62 -43 -103 -13 -41 -35 -90 -49 -110 -15 -19 -38 -62 -51 -96 -13
-34 -37 -75 -53 -92 -16 -16 -38 -48 -49 -70 -11 -22 -30 -49 -42 -60 -12 -11
-40 -50 -61 -87 -22 -38 -44 -68 -49 -68 -5 0 -28 -27 -50 -60 -22 -33 -45
-60 -50 -60 -5 0 -23 -21 -41 -47 -42 -60 -77 -99 -235 -258 -92 -92 -138
-146 -153 -180 -11 -26 -21 -49 -21 -51 0 -25 181 44 225 85 17 16 53 40 80
54 28 14 61 37 74 51 14 15 44 37 67 51 23 14 75 61 116 105 80 85 109 98 141
62 37 -40 11 -695 -32 -827 -10 -33 -28 -85 -39 -115 -22 -59 -52 -243 -52
-314 0 -82 30 -198 69 -266 20 -36 43 -78 51 -94 24 -48 62 -70 105 -62 56 11
79 42 116 157 l34 104 6 635 c5 528 9 652 23 735 22 134 15 174 -40 236 -59
66 -59 94 0 157 24 26 53 65 64 87 11 22 30 49 42 60 12 11 34 43 47 70 14 28
40 67 58 88 18 21 38 58 45 82 7 24 28 62 46 84 19 21 43 60 54 86 11 26 31
60 44 76 79 93 44 177 -121 286 -74 49 -93 57 -142 60 -40 3 -66 -1 -91 -14z"/>
</g>
</svg>
