<svg xmlns="http://www.w3.org/2000/svg" viewBox="0 0 898.668275 766.902823">
<g transform="translate(-25.022947,779.902823) scale(0.100000,-0.100000)" fill="#000000" stroke="none">
<path d="M4317 7789 c-180 -42 -194 -188 -39 -416 101 -149 109 -186 153 -748
15 -183 5 -1436 -11 -1513 -7 -30 -25 -71 -43 -94 -52 -68 -81 -78 -467 -164
-58 -13 -235 -37 -395 -54 -666 -68 -865 -129 -865 -265 0 -83 22 -98 276
-184 290 -97 380 -100 652 -19 74 22 210 54 301 72 126 25 188 43 257 75 129
58 189 50 228 -33 52 -110 11 -506 -84 -817 -31 -100 -60 -223 -80 -343 -38
-229 -51 -279 -97 -381 -37 -83 -73 -186 -118 -340 -17 -58 -48 -126 -85 -190
-33 -55 -76 -140 -96 -190 -23 -55 -62 -121 -99 -170 -34 -44 -80 -107 -102
-141 -23 -33 -64 -85 -90 -115 -27 -30 -78 -92 -115 -139 -63 -83 -327 -341
-438 -430 -30 -24 -86 -74 -125 -111 -98 -95 -263 -221 -375 -287 -52 -31
-115 -70 -140 -88 -25 -17 -96 -57 -157 -88 -117 -60 -148 -88 -159 -145 -29
-142 251 -128 588 29 81 38 186 81 232 94 115 33 159 54 241 116 39 28 111 71
161 95 60 28 112 61 151 97 32 30 86 73 120 96 64 44 303 259 303 273 0 5 19
22 42 39 108 79 245 -10 360 -235 28 -55 76 -134 107 -175 31 -41 76 -107 99
-147 84 -144 324 -290 431 -263 144 36 311 266 311 430 0 158 -176 408 -341
484 -41 19 -112 62 -158 95 -84 61 -142 86 -261 110 -186 38 -214 181 -74 377
31 44 59 102 86 177 21 62 61 150 88 197 66 115 83 158 120 297 19 69 56 170
90 243 72 153 84 195 110 385 31 219 70 283 154 255 85 -28 171 -137 244 -305
23 -55 67 -133 96 -173 30 -40 69 -107 86 -150 45 -111 73 -164 120 -225 22
-30 63 -105 90 -166 26 -61 72 -143 100 -181 29 -39 70 -112 93 -162 46 -106
55 -121 116 -202 24 -32 66 -102 92 -155 26 -53 73 -130 104 -171 31 -41 76
-113 100 -160 24 -47 72 -124 108 -171 35 -48 80 -116 100 -150 19 -35 58 -90
87 -123 28 -32 74 -92 102 -135 28 -42 72 -101 98 -131 26 -30 77 -100 112
-155 141 -216 303 -368 428 -401 137 -36 1127 -28 1450 11 69 8 172 20 230 26
360 39 431 247 120 353 -60 21 -136 54 -167 73 -94 57 -133 74 -233 105 -115
36 -136 47 -220 108 -36 26 -110 70 -165 98 -55 28 -133 75 -173 106 -41 31
-113 76 -160 101 -48 25 -117 69 -154 99 -36 29 -99 69 -140 89 -40 19 -113
64 -162 101 -50 37 -120 83 -157 102 -37 19 -91 56 -120 81 -30 25 -85 71
-124 101 -38 31 -99 83 -135 117 -36 34 -85 77 -110 96 -143 109 -535 497
-632 624 -25 33 -71 88 -102 123 -30 34 -74 88 -97 120 -23 31 -72 89 -109
127 -36 39 -77 86 -90 105 -13 19 -51 64 -85 100 -67 71 -201 246 -310 405
-38 56 -91 128 -116 161 -25 32 -65 88 -89 124 -24 36 -67 93 -96 128 -67 82
-84 136 -84 271 0 416 115 488 835 526 165 9 388 22 495 30 270 21 579 42 810
55 355 20 445 29 508 49 156 48 211 159 147 294 -45 95 -72 114 -425 293 -196
99 -551 86 -850 -30 -149 -59 -159 -62 -379 -106 -111 -22 -194 -46 -290 -84
-131 -51 -265 -88 -440 -120 -277 -52 -341 15 -308 321 9 81 19 222 22 313 32
897 60 1123 157 1293 119 208 30 393 -239 497 -59 23 -139 59 -178 80 -151 83
-422 131 -558 99z"/>
<path d="M1265 6792 c-114 -54 -106 -182 20 -303 31 -30 84 -90 117 -134 34
-44 93 -111 132 -150 39 -38 118 -121 176 -184 179 -195 306 -308 419 -375
137 -81 361 18 460 203 161 304 -5 653 -364 762 -55 17 -147 53 -205 79 -131
59 -194 75 -390 96 -256 27 -319 28 -365 6z"/>
<path d="M310 4742 c-65 -32 -78 -108 -34 -202 49 -106 651 -685 777 -747 176
-88 379 -56 487 75 110 134 86 415 -44 513 -28 21 -81 60 -117 88 -93 69 -153
97 -271 125 -57 13 -173 45 -258 69 -85 25 -189 50 -230 57 -41 7 -102 18
-135 26 -81 18 -133 17 -175 -4z"/>
<path d="M2231 3434 c-51 -42 -189 -213 -237 -293 -25 -40 -69 -106 -98 -145
-29 -39 -71 -102 -93 -141 -23 -38 -62 -97 -88 -130 -25 -33 -69 -97 -96 -142
-27 -45 -76 -111 -108 -146 -33 -36 -78 -93 -101 -127 -23 -34 -69 -92 -102
-128 -33 -37 -78 -93 -100 -126 -22 -32 -61 -82 -87 -110 -25 -28 -74 -87
-107 -131 -115 -151 -274 -287 -513 -438 -158 -100 -159 -391 -1 -667 27 -47
64 -130 84 -184 66 -186 264 -396 371 -396 122 0 221 112 275 310 17 61 52
168 79 238 27 70 59 170 71 222 39 169 61 232 125 356 36 71 71 156 84 205 39
149 52 182 107 280 54 95 67 128 120 306 18 61 47 125 84 187 40 67 69 133 98
223 23 71 58 156 78 188 57 94 79 143 128 275 25 68 66 160 91 204 61 107 79
163 73 231 -8 97 -72 134 -137 79z"/>
</g>
</svg>
