<svg xmlns="http://www.w3.org/2000/svg" viewBox="0 0 720.237263 613.518793">
<g transform="translate(-19.245413,623.851741) scale(0.100000,-0.100000)" fill="#000000" stroke="none">
<path d="M3433 6229 c-131 -31 -130 -169 4 -351 55 -75 69 -137 93 -413 26
-288 25 -1330 -1 -1405 -25 -74 -78 -107 -214 -135 -44 -9 -102 -22 -130 -30
-78 -22 -217 -43 -370 -55 -77 -7 -194 -20 -260 -30 -109 -17 -154 -25 -325
-61 -72 -15 -120 -60 -120 -114 0 -71 25 -90 175 -136 50 -15 122 -38 160 -53
122 -45 251 -36 454 30 41 13 134 35 206 48 102 19 149 32 202 60 185 96 229
16 188 -346 -18 -157 -27 -201 -70 -329 -31 -91 -43 -149 -81 -374 -19 -113
-38 -174 -82 -261 -17 -34 -43 -108 -57 -164 -27 -107 -48 -156 -96 -226 -15
-22 -44 -81 -64 -130 -22 -57 -51 -108 -79 -139 -23 -28 -59 -77 -80 -109 -21
-32 -59 -82 -85 -110 -26 -28 -64 -74 -85 -103 -74 -104 -590 -569 -700 -630
-27 -16 -90 -55 -140 -88 -50 -33 -120 -71 -155 -85 -76 -30 -118 -68 -127
-116 -22 -116 202 -104 476 25 69 33 145 64 170 71 103 26 144 44 202 91 33
27 92 61 131 76 48 19 89 45 131 84 34 30 81 69 106 86 25 17 101 85 169 152
116 113 126 121 163 121 59 0 165 -104 215 -210 19 -41 59 -106 87 -145 29
-38 66 -94 82 -123 32 -61 56 -83 173 -158 137 -88 185 -84 292 27 101 105
124 154 124 265 0 90 0 90 -76 205 -92 137 -93 138 -194 184 -44 20 -100 53
-125 74 -62 52 -78 59 -180 81 -138 29 -167 59 -158 165 4 46 12 64 51 114 57
73 69 97 96 191 13 41 40 102 61 135 50 77 63 109 100 247 18 66 48 143 71
186 47 87 74 185 89 324 13 133 25 174 55 194 70 46 193 -71 259 -244 25 -66
41 -93 98 -164 16 -19 42 -73 58 -119 19 -51 48 -106 75 -141 51 -65 66 -94
90 -166 9 -29 41 -85 71 -124 29 -39 63 -96 74 -125 29 -79 48 -112 92 -165
21 -25 56 -84 78 -131 21 -46 58 -106 81 -133 23 -27 57 -81 76 -121 18 -39
56 -100 84 -135 28 -35 64 -89 80 -121 17 -32 54 -85 84 -117 30 -32 63 -76
74 -98 11 -22 42 -64 69 -93 27 -30 69 -85 92 -124 24 -38 85 -118 136 -176
160 -182 127 -174 724 -173 365 1 496 5 610 18 80 9 182 21 226 26 123 13 159
26 209 74 96 91 54 159 -130 214 -39 12 -98 39 -130 60 -68 43 -89 52 -194 82
-82 24 -106 37 -168 90 -23 20 -73 49 -110 64 -38 15 -100 52 -137 82 -38 30
-97 68 -133 84 -35 16 -88 50 -116 76 -29 25 -88 63 -133 84 -44 20 -100 54
-123 75 -23 21 -72 54 -110 74 -70 36 -171 115 -291 227 -36 33 -87 77 -115
98 -86 64 -433 405 -496 488 -34 43 -74 92 -90 109 -15 16 -47 55 -70 87 -23
31 -71 87 -106 124 -34 36 -63 70 -63 76 0 5 -30 41 -67 79 -68 69 -124 140
-220 282 -29 42 -76 107 -105 145 -29 38 -64 87 -77 110 -13 22 -48 69 -77
102 -70 81 -74 94 -74 237 1 340 85 386 770 417 129 6 314 17 410 25 96 8 294
21 440 30 424 25 477 31 540 62 95 48 122 119 79 213 -30 68 -64 97 -173 151
-54 27 -112 59 -128 70 -142 102 -491 99 -728 -6 -95 -41 -130 -51 -292 -80
-91 -17 -163 -38 -250 -73 -191 -77 -453 -127 -520 -99 -77 32 -83 67 -60 372
7 88 21 331 32 540 26 492 32 525 120 664 45 70 48 138 8 198 -52 78 -120 139
-178 157 -30 10 -104 42 -165 72 -151 74 -364 111 -482 83z"/>
<path d="M1003 5436 c-92 -42 -78 -155 31 -253 29 -27 69 -71 89 -99 19 -29
93 -110 162 -180 70 -71 145 -153 167 -181 22 -29 56 -62 75 -74 20 -12 61
-45 92 -72 141 -124 268 -116 399 28 74 80 96 144 96 275 1 140 -18 182 -124
284 -89 85 -125 106 -225 130 -38 10 -104 35 -146 56 -97 49 -163 66 -319 80
-228 21 -263 21 -297 6z"/>
<path d="M215 3779 c-34 -41 -30 -101 12 -163 28 -43 299 -318 454 -462 173
-160 298 -199 434 -136 143 68 169 108 169 267 0 136 -19 177 -105 236 -35 23
-80 56 -98 72 -48 41 -99 62 -209 86 -51 11 -136 34 -190 51 -105 34 -281 70
-378 77 -59 4 -62 3 -89 -28z"/>
<path d="M1781 2752 c-62 -64 -144 -170 -190 -245 -24 -40 -63 -97 -86 -127
-24 -30 -52 -74 -64 -97 -11 -22 -43 -70 -70 -105 -27 -36 -64 -91 -82 -123
-18 -32 -58 -86 -88 -119 -31 -34 -73 -87 -94 -118 -21 -31 -49 -63 -61 -71
-12 -8 -40 -41 -61 -73 -22 -33 -64 -88 -95 -124 -30 -36 -74 -90 -97 -121
-23 -32 -66 -77 -95 -102 -133 -115 -216 -179 -268 -206 -61 -33 -94 -63 -108
-101 -43 -113 -6 -313 86 -468 22 -37 52 -105 67 -151 26 -80 33 -90 116 -176
137 -141 168 -150 280 -76 56 37 81 82 109 191 11 47 41 135 65 195 24 61 56
164 70 230 26 118 37 145 107 276 21 38 45 105 57 161 17 72 34 115 72 179 27
46 59 116 70 154 46 154 61 192 99 250 26 38 53 100 75 170 20 65 53 142 81
187 25 43 61 122 81 175 19 54 48 123 65 153 75 133 78 141 78 207 0 109 -54
143 -119 75z"/>
</g>
</svg>
