<svg xmlns="http://www.w3.org/2000/svg" viewBox="0 0 479.662611 410.000000">
<g transform="translate(-10.077795,420.000000) scale(0.100000,-0.100000)" fill="#000000" stroke="none">
<path d="M1150 4148 c-8 -30 -15 -103 -16 -168 -2 -147 -40 -342 -83 -428 -17
-33 -38 -93 -47 -134 -17 -75 -33 -114 -66 -159 -11 -14 -27 -58 -37 -97 -11
-39 -33 -93 -50 -119 -18 -26 -39 -72 -47 -103 -9 -30 -29 -72 -46 -93 -17
-21 -41 -66 -54 -100 -13 -34 -38 -78 -55 -99 -16 -21 -37 -57 -45 -80 -8 -24
-28 -56 -43 -73 -16 -16 -39 -50 -51 -75 -12 -25 -32 -56 -45 -70 -13 -14 -38
-48 -56 -76 -51 -79 -119 -170 -165 -222 -22 -26 -50 -63 -62 -82 -11 -19 -34
-48 -51 -64 -34 -33 -40 -66 -15 -90 25 -26 50 -19 101 30 26 25 98 90 160
145 141 126 368 373 425 464 17 28 41 48 77 65 89 41 86 51 84 -296 -2 -296
-10 -438 -38 -689 -8 -71 -20 -195 -26 -275 -11 -150 -24 -233 -58 -358 -21
-76 -36 -174 -47 -308 -9 -110 9 -209 48 -271 17 -26 45 -80 63 -119 26 -57
39 -74 68 -87 19 -9 44 -17 55 -17 36 0 69 37 82 92 7 29 24 82 38 118 l24 65
9 925 c6 625 12 961 21 1035 24 208 12 279 -56 354 -56 60 -66 80 -66 135 0
54 26 118 73 179 19 26 38 61 42 79 9 41 31 85 60 120 13 15 33 58 46 95 12
37 35 85 51 107 15 21 36 67 47 102 10 35 32 80 49 101 16 21 35 49 42 63 7
14 31 47 53 73 34 41 41 58 45 103 5 61 -1 74 -82 168 -36 41 -69 67 -112 87
-44 21 -66 38 -80 64 -18 35 -19 35 -84 35 l-65 0 -15 -52z"/>
<path d="M2426 4049 c-54 -47 -45 -115 28 -216 30 -41 42 -110 57 -333 13
-195 6 -760 -10 -803 -25 -65 -62 -77 -306 -102 -82 -9 -203 -29 -270 -45 -66
-15 -155 -31 -198 -35 -61 -5 -84 -12 -105 -30 -24 -20 -25 -25 -14 -49 8 -18
29 -34 60 -47 26 -11 72 -32 102 -47 51 -25 65 -27 175 -27 112 1 126 3 203
34 46 18 122 42 170 52 48 11 97 22 110 25 30 8 60 -19 68 -62 10 -56 -22
-282 -51 -360 -15 -38 -35 -118 -45 -179 -11 -60 -33 -144 -49 -185 -16 -41
-37 -110 -46 -152 -12 -57 -26 -89 -51 -120 -19 -24 -41 -65 -50 -93 -10 -27
-36 -75 -58 -105 -23 -30 -52 -68 -64 -85 -90 -120 -126 -161 -235 -259 -141
-128 -237 -206 -287 -231 -19 -9 -44 -26 -55 -36 -11 -10 -50 -32 -86 -48 -75
-34 -88 -46 -95 -93 -4 -25 -1 -38 11 -48 15 -13 31 -11 124 13 58 15 138 42
176 62 39 19 97 44 130 55 33 11 76 33 95 49 20 16 59 40 88 55 29 14 52 31
52 36 0 5 19 24 43 41 23 16 79 66 124 110 45 43 85 79 90 79 12 0 52 -27 86
-59 16 -14 42 -53 59 -86 17 -33 40 -71 53 -85 13 -14 33 -46 45 -72 14 -30
36 -55 63 -73 23 -15 54 -39 69 -53 19 -17 39 -25 69 -26 39 -1 46 3 96 59 71
78 86 111 77 177 -5 37 -20 70 -55 122 -59 88 -71 99 -137 125 -28 11 -75 37
-103 56 -28 19 -62 35 -75 35 -14 0 -40 6 -59 14 -60 25 -60 89 1 156 23 25
43 62 55 103 10 35 32 83 48 108 16 24 39 82 51 128 12 47 37 115 56 152 30
57 37 86 49 183 7 63 16 119 20 125 8 14 41 14 65 1 29 -16 89 -104 115 -169
12 -33 36 -77 52 -98 17 -21 38 -60 48 -87 9 -26 30 -62 46 -80 15 -18 35 -52
45 -77 9 -24 34 -66 54 -94 20 -27 43 -66 50 -85 7 -19 30 -57 50 -85 20 -27
45 -70 54 -95 10 -25 28 -56 42 -70 13 -14 37 -53 53 -85 15 -33 45 -80 65
-103 20 -24 36 -49 36 -56 0 -7 17 -32 38 -56 20 -24 55 -69 77 -101 93 -132
137 -188 221 -280 41 -46 101 -54 379 -53 309 2 614 25 650 48 31 21 41 58 25
97 -17 39 -40 53 -117 73 -34 8 -86 31 -115 50 -29 19 -69 37 -88 41 -43 9
-86 30 -123 61 -15 13 -49 33 -75 44 -26 12 -58 32 -72 45 -14 13 -52 36 -85
50 -33 15 -73 39 -90 55 -16 16 -47 36 -67 44 -21 9 -60 36 -88 61 -28 25 -54
45 -59 45 -4 0 -34 23 -65 50 -31 28 -61 50 -66 50 -6 0 -33 23 -62 51 -179
172 -296 290 -329 334 -22 28 -62 77 -89 110 -28 33 -65 80 -83 104 -17 25
-52 68 -77 97 -67 78 -104 124 -136 174 -15 25 -43 63 -60 85 -17 22 -39 56
-49 75 -10 19 -33 52 -52 74 l-35 38 4 104 c4 121 16 141 101 168 183 59 406
83 892 94 349 8 362 11 398 85 24 48 11 92 -43 141 -47 42 -67 53 -133 73 -29
8 -74 27 -102 40 -44 23 -58 25 -130 20 -44 -3 -107 -15 -140 -27 -33 -11
-108 -29 -166 -40 -58 -10 -132 -31 -165 -45 -71 -32 -133 -51 -197 -60 -27
-3 -77 -17 -113 -31 -79 -30 -108 -30 -135 -3 -21 21 -21 28 -15 128 4 58 11
232 16 386 5 154 13 305 19 335 6 30 27 86 46 123 50 97 48 109 -32 184 -53
49 -80 67 -123 79 -30 8 -82 27 -115 41 -42 18 -84 27 -141 31 -74 4 -82 2
-108 -19z"/>
</g>
</svg>
