<svg xmlns="http://www.w3.org/2000/svg" viewBox="0 0 766.671418 655.759019">
<g transform="translate(-16.328582,672.000000) scale(0.100000,-0.100000)" fill="#000000" stroke="none">
<path d="M1860 6698 c0 -12 -11 -59 -25 -103 -23 -75 -25 -97 -23 -246 3 -225
-49 -493 -130 -666 -32 -70 -60 -150 -78 -227 -23 -99 -37 -133 -80 -205 -38
-63 -62 -119 -87 -205 -23 -77 -47 -136 -70 -169 -47 -69 -60 -98 -86 -186
-24 -78 -33 -95 -93 -176 -21 -27 -45 -72 -54 -100 -24 -71 -51 -124 -91 -172
-19 -24 -52 -82 -75 -130 -22 -49 -59 -110 -83 -138 -23 -27 -56 -77 -73 -111
-17 -33 -51 -85 -76 -114 -25 -30 -64 -83 -85 -119 -22 -36 -63 -93 -91 -126
-28 -33 -67 -87 -87 -120 -20 -33 -62 -87 -93 -120 -31 -33 -67 -78 -80 -100
-13 -22 -45 -63 -72 -92 -73 -78 -84 -134 -35 -168 42 -29 77 -19 132 38 27
29 77 71 110 92 63 40 104 77 330 303 156 157 294 304 346 372 18 25 56 70 83
100 27 30 65 79 83 108 87 135 249 181 269 76 29 -158 -9 -1028 -71 -1589 -13
-121 -29 -292 -35 -380 -15 -217 -34 -342 -80 -520 -66 -255 -97 -505 -87
-710 7 -146 24 -204 84 -292 26 -38 61 -104 78 -149 42 -104 59 -130 109 -159
123 -71 195 -28 240 145 14 52 38 124 53 160 39 94 41 147 52 1620 11 1333 17
1566 47 1749 31 185 -6 333 -109 436 -136 137 -137 293 -3 472 52 70 76 116
105 203 12 37 43 95 70 133 35 47 59 97 81 163 18 52 48 118 67 147 50 74 68
112 92 194 13 45 39 97 66 135 24 35 58 87 76 117 17 29 53 79 79 110 114 137
117 248 11 366 -20 23 -57 68 -83 102 -41 54 -58 67 -140 106 -101 48 -129 72
-153 130 -15 37 -15 37 -125 37 -107 0 -110 -1 -110 -22z"/>
<path d="M3935 6509 c-134 -39 -141 -196 -15 -364 81 -109 105 -377 104 -1155
-1 -633 -4 -666 -56 -726 -56 -64 -121 -80 -428 -109 -206 -19 -254 -27 -465
-77 -93 -22 -226 -46 -295 -53 -129 -12 -181 -29 -200 -64 -28 -54 3 -108 77
-135 26 -10 96 -40 154 -67 202 -94 388 -91 650 10 57 23 131 46 164 52 33 7
102 22 153 35 52 13 108 24 126 24 72 0 106 -93 87 -239 -6 -47 -13 -115 -17
-151 -9 -108 -23 -169 -69 -305 -26 -77 -53 -181 -65 -255 -23 -148 -30 -173
-81 -307 -21 -56 -50 -152 -64 -214 -31 -135 -41 -158 -93 -227 -22 -29 -50
-79 -62 -110 -39 -102 -59 -141 -93 -179 -19 -21 -59 -76 -89 -123 -30 -47
-67 -96 -83 -110 -15 -14 -49 -57 -76 -96 -28 -40 -77 -93 -110 -119 -33 -26
-70 -60 -82 -77 -12 -16 -46 -48 -77 -71 -30 -22 -89 -73 -130 -112 -101 -94
-216 -182 -293 -225 -35 -19 -81 -48 -102 -65 -22 -16 -84 -52 -139 -80 -104
-52 -132 -78 -145 -136 -10 -46 2 -77 36 -90 55 -21 352 63 498 141 50 26 117
55 150 65 77 22 129 49 185 96 25 21 71 49 102 63 35 16 87 53 134 96 41 38
80 70 85 70 6 0 70 58 144 130 163 159 167 160 282 56 47 -43 71 -76 102 -139
22 -45 59 -104 82 -132 23 -27 56 -79 74 -115 35 -68 60 -96 135 -149 25 -17
62 -45 83 -63 46 -39 133 -51 185 -24 37 19 157 164 183 221 73 159 -88 454
-291 533 -47 19 -108 50 -135 71 -68 52 -101 67 -165 79 -165 31 -195 125 -83
255 52 60 74 104 103 202 11 39 31 88 45 110 53 86 85 164 110 268 18 77 40
137 80 215 60 115 70 156 86 325 5 59 16 123 23 142 49 117 210 -16 293 -242
18 -50 48 -104 77 -141 26 -33 60 -93 77 -138 17 -44 53 -109 83 -149 29 -38
65 -100 80 -137 15 -37 51 -98 80 -136 29 -38 63 -96 75 -129 12 -33 47 -92
78 -132 30 -40 68 -105 84 -143 16 -39 53 -103 83 -142 29 -39 67 -101 84
-139 17 -37 52 -93 77 -124 26 -31 59 -82 75 -112 15 -31 53 -84 84 -119 31
-34 65 -80 76 -102 11 -21 43 -65 71 -97 28 -32 71 -87 94 -123 23 -36 59 -83
80 -105 20 -22 61 -70 90 -106 103 -127 191 -144 679 -136 187 3 427 13 531
22 105 8 242 19 306 24 169 12 219 44 219 138 0 83 -61 142 -170 163 -89 18
-112 28 -196 81 -43 27 -104 57 -134 65 -102 28 -139 45 -197 91 -32 25 -94
62 -138 83 -44 20 -102 56 -129 79 -27 24 -87 60 -132 81 -46 21 -105 56 -131
78 -27 22 -77 54 -112 72 -35 18 -87 53 -115 80 -28 26 -77 64 -109 85 -32 20
-83 59 -113 86 -29 27 -73 61 -96 75 -84 53 -543 497 -616 596 -21 29 -61 78
-89 108 -27 30 -70 84 -95 120 -25 36 -58 76 -73 90 -15 14 -49 57 -76 96 -26
40 -64 85 -82 100 -19 16 -56 61 -82 99 -26 39 -59 84 -75 100 -15 17 -49 64
-75 105 -26 41 -64 95 -85 120 -20 25 -51 72 -70 105 -18 33 -55 86 -81 118
-65 78 -72 109 -61 262 16 209 33 223 349 295 317 71 412 78 1464 109 254 7
268 8 314 32 110 55 147 168 86 260 -51 76 -163 153 -261 179 -25 6 -84 29
-132 51 -149 68 -260 69 -473 3 -60 -19 -177 -48 -260 -64 -153 -29 -230 -52
-300 -88 -59 -30 -165 -60 -273 -78 -53 -9 -133 -30 -177 -48 -101 -39 -192
-43 -225 -10 -35 35 -39 82 -24 287 8 106 19 365 24 577 12 484 22 549 106
706 73 135 64 176 -66 292 -92 82 -129 104 -221 127 -35 9 -102 33 -149 52
-127 53 -270 74 -345 52z"/>
</g>
</svg>
