<svg xmlns="http://www.w3.org/2000/svg" viewBox="0 0 1825.515 1941.948">
<g transform="translate(-388.641098,2069.029637) scale(0.100000,-0.100000)" fill="#000000" stroke="none">
<path d="M20212 18790 c-48 -30 -80 -105 -92 -222 -14 -139 -11 -136 -146
-176 -131 -40 -170 -83 -287 -320 -82 -165 -94 -182 -171 -237 -98 -70 -140
-123 -207 -259 -47 -98 -71 -134 -112 -172 -155 -146 -182 -178 -242 -294 -67
-128 -114 -195 -206 -296 -90 -100 -137 -166 -199 -284 -47 -89 -73 -123 -170
-225 -105 -108 -121 -131 -169 -229 -50 -101 -62 -118 -165 -220 -94 -93 -119
-125 -155 -196 -61 -118 -157 -261 -242 -355 -95 -106 -146 -180 -205 -295
-49 -95 -69 -119 -221 -261 -50 -46 -71 -77 -119 -175 -54 -109 -69 -128 -179
-244 -105 -110 -128 -140 -184 -245 -100 -185 -126 -222 -241 -341 -99 -103
-113 -121 -166 -230 -55 -114 -62 -124 -175 -234 -105 -103 -122 -125 -164
-210 -59 -118 -89 -163 -177 -259 -88 -96 -134 -161 -236 -332 -63 -105 -106
-162 -184 -246 -84 -90 -115 -133 -168 -229 -56 -103 -78 -131 -158 -209 -94
-91 -143 -157 -202 -275 -41 -83 -86 -144 -178 -245 -106 -115 -167 -204 -227
-331 -60 -126 -89 -163 -185 -234 -86 -64 -104 -88 -173 -233 -49 -103 -65
-127 -118 -175 -127 -116 -156 -151 -210 -254 -78 -149 -134 -230 -235 -343
-106 -119 -135 -159 -200 -285 -40 -78 -67 -113 -152 -200 -66 -67 -123 -137
-159 -195 -94 -153 -165 -204 -266 -191 -163 19 -391 220 -557 490 -39 62 -77
108 -130 155 -123 109 -153 144 -204 242 -60 112 -95 152 -196 223 -82 58
-115 100 -184 233 -37 71 -61 97 -205 221 -44 39 -77 80 -118 150 -66 114
-100 158 -208 272 -82 86 -177 209 -275 355 -29 44 -99 127 -155 185 -63 64
-128 145 -168 207 -65 100 -99 139 -224 255 -40 37 -81 91 -120 155 -55 94
-103 148 -224 258 -35 32 -81 92 -127 167 -60 96 -90 133 -168 205 -71 65
-116 118 -176 208 -117 172 -159 226 -279 351 -78 81 -123 139 -165 210 -87
149 -109 177 -200 249 -93 73 -126 113 -187 229 -42 81 -81 124 -206 228 -50
41 -78 77 -128 161 -52 87 -86 128 -174 214 -78 76 -129 137 -179 214 -39 60
-122 164 -183 231 -107 118 -173 203 -284 368 -28 41 -88 111 -133 155 -88 86
-145 161 -203 265 -38 69 -103 138 -178 188 -67 45 -105 94 -154 196 -55 114
-94 161 -181 211 -95 55 -133 98 -172 192 -66 163 -138 233 -287 278 -98 30
-113 45 -159 153 -72 171 -150 228 -199 145 -60 -105 -2 -265 118 -323 64 -31
73 -50 100 -207 33 -185 67 -300 126 -414 11 -22 58 -81 104 -130 96 -103 120
-147 164 -308 57 -207 110 -309 229 -445 74 -85 107 -152 161 -321 54 -172
103 -270 194 -384 97 -121 116 -158 172 -327 61 -183 110 -280 207 -411 99
-133 108 -151 170 -332 59 -173 93 -241 194 -381 93 -129 121 -183 169 -330
49 -148 98 -245 174 -347 95 -125 146 -223 197 -377 60 -181 86 -232 185 -362
92 -121 154 -243 193 -382 40 -141 83 -225 175 -337 99 -122 159 -238 202
-395 42 -154 77 -222 173 -338 104 -125 142 -199 205 -398 52 -163 90 -240
159 -322 115 -136 146 -195 217 -408 55 -167 75 -204 171 -334 101 -134 131
-192 192 -372 64 -185 84 -223 172 -334 85 -107 132 -200 200 -398 65 -188 82
-221 170 -332 83 -104 142 -221 200 -394 56 -165 88 -227 175 -335 92 -113
131 -190 194 -382 61 -187 95 -252 180 -346 104 -113 123 -152 203 -412 54
-174 82 -226 172 -319 101 -103 113 -125 196 -371 81 -240 92 -261 189 -370
90 -102 117 -154 181 -345 63 -189 99 -258 191 -375 52 -65 91 -129 139 -232
171 -358 275 -363 467 -22 37 66 94 155 126 197 77 101 106 160 156 317 91
281 109 319 211 445 80 99 117 178 185 400 67 217 83 251 181 365 105 122 118
151 200 440 54 189 81 243 177 351 108 122 110 125 231 514 36 117 66 171 153
279 91 111 132 197 189 400 46 162 80 235 158 340 107 144 155 243 216 450 36
121 82 217 154 321 112 161 148 237 221 470 34 110 81 202 159 314 92 131 129
207 175 357 74 236 97 285 216 450 86 121 118 189 165 354 50 175 108 294 203
414 88 110 118 167 153 293 70 252 108 343 185 435 131 158 143 182 239 503
44 147 78 212 159 310 94 112 130 185 185 366 76 249 103 304 223 452 60 73
94 147 142 308 80 263 97 301 209 448 79 103 102 152 172 365 68 208 96 267
181 381 83 112 126 202 189 395 64 195 93 254 181 370 95 126 129 205 223 516
26 88 70 162 179 301 63 81 111 192 167 388 53 180 82 239 181 363 98 122 137
202 188 388 67 242 83 274 229 454 106 131 132 198 158 415 25 217 50 278 151
375 109 103 148 177 148 278 0 110 -76 160 -163 107z"/>
</g>
</svg>
