<svg xmlns="http://www.w3.org/2000/svg" viewBox="0 0 1894.641 1510.201">
<g transform="translate(-276.798820,1790.949931) scale(0.100000,-0.100000)" fill="#000000" stroke="none">
<path d="M5460 16440 c-643 -6 -630 -5 -745 -70 -79 -45 -125 -130 -111 -204
4 -16 6 -2620 5 -5785 -1 -3166 -1 -5776 0 -5801 5 -148 122 -260 307 -295 91
-18 14386 -22 14569 -5 219 21 314 63 368 165 28 52 39 1743 12 1808 -30 73
-99 110 -255 139 -49 9 -1561 13 -6280 17 -5908 6 -6218 7 -6280 24 -163 45
-281 131 -319 233 -21 54 -35 9222 -15 9484 17 219 -141 305 -551 298 -66 -1
-383 -5 -705 -8z"/>
</g>
</svg>
