<svg xmlns="http://www.w3.org/2000/svg" viewBox="0 0 1528.965 1528.535">
<g transform="translate(-298.993853,1794.035500) scale(0.100000,-0.100000)" fill="#000000" stroke="none">
<path d="M10235 16450 c-152 -10 -155 -10 -435 -83 -252 -65 -332 -80 -535
-102 -375 -40 -429 -47 -521 -71 -138 -36 -243 -89 -343 -172 -101 -86 -158
-110 -370 -159 -257 -58 -281 -70 -420 -205 -92 -91 -103 -98 -274 -183 -199
-99 -236 -123 -353 -237 -70 -67 -98 -86 -196 -132 -125 -59 -168 -94 -225
-185 -51 -81 -107 -136 -198 -195 -87 -57 -125 -96 -181 -183 -49 -78 -94
-124 -185 -188 -90 -63 -123 -102 -185 -221 -58 -111 -86 -152 -160 -234 -80
-90 -171 -232 -254 -397 -59 -119 -82 -154 -150 -226 -97 -106 -123 -155 -161
-310 -60 -248 -99 -345 -184 -467 -137 -197 -174 -319 -215 -701 -31 -291 -79
-551 -145 -774 -101 -343 -100 -1107 1 -1450 62 -211 121 -526 144 -770 29
-311 89 -522 189 -660 107 -149 146 -240 206 -485 38 -157 70 -221 170 -336
67 -78 101 -130 166 -253 95 -182 143 -256 242 -368 46 -52 93 -120 127 -185
64 -121 99 -162 197 -235 92 -68 124 -102 175 -187 53 -89 106 -142 190 -189
86 -48 128 -92 185 -189 56 -98 93 -130 217 -188 117 -54 148 -78 223 -172 68
-85 94 -103 265 -176 171 -74 220 -105 332 -210 112 -106 176 -137 403 -196
195 -51 262 -81 374 -166 158 -121 306 -165 734 -220 192 -25 418 -74 550
-120 148 -52 408 -111 529 -120 327 -25 872 -20 1024 9 26 5 76 15 112 21 90
17 223 54 318 89 111 41 358 94 612 131 424 62 501 84 632 182 150 114 222
147 428 198 209 52 283 90 415 212 95 88 167 132 292 179 136 51 197 92 256
172 65 90 106 122 212 172 106 49 160 94 217 180 56 83 101 129 183 185 82 56
147 122 203 205 42 62 101 123 187 191 73 58 99 88 164 199 38 64 84 124 126
165 90 88 124 136 191 271 71 143 101 191 208 324 104 132 143 211 191 385 42
154 101 284 175 385 103 139 141 237 169 435 60 412 109 654 160 783 134 339
161 512 161 1037 0 599 -12 686 -140 1065 -83 247 -94 292 -150 643 -69 431
-81 469 -203 644 -94 136 -125 204 -168 375 -45 179 -73 238 -166 352 -107
132 -146 193 -240 375 -85 165 -91 174 -188 271 -78 78 -110 119 -145 184 -55
104 -100 153 -215 239 -71 53 -101 84 -146 150 -74 109 -98 133 -200 202 -91
62 -125 96 -182 181 -56 84 -103 123 -224 184 -102 51 -120 64 -190 141 -92
101 -132 128 -278 189 -150 62 -230 113 -334 210 -137 128 -169 143 -433 205
-192 45 -270 79 -370 167 -141 123 -325 182 -653 208 -279 22 -454 51 -728
120 -339 85 -753 114 -1212 85z m986 -1994 c316 -39 466 -81 709 -198 190 -92
255 -117 398 -153 198 -49 257 -79 396 -199 99 -87 146 -117 278 -180 137 -65
158 -82 252 -200 56 -70 90 -101 145 -136 121 -75 154 -103 195 -165 22 -33
56 -84 75 -114 25 -38 65 -76 128 -123 111 -83 125 -100 198 -252 52 -110 64
-127 156 -220 114 -115 152 -181 193 -331 88 -323 95 -340 196 -475 77 -103
103 -159 135 -285 102 -403 113 -1643 19 -2147 -34 -181 -60 -240 -176 -393
-81 -106 -96 -143 -154 -375 -59 -238 -88 -294 -204 -400 -98 -90 -123 -126
-176 -251 -46 -112 -73 -148 -164 -218 -87 -68 -127 -110 -177 -189 -52 -81
-99 -129 -188 -191 -44 -31 -107 -85 -140 -120 -121 -130 -154 -157 -276 -221
-96 -51 -142 -84 -222 -158 -119 -108 -207 -156 -362 -198 -236 -63 -264 -74
-390 -158 -254 -169 -553 -222 -1313 -233 -858 -12 -1294 53 -1574 233 -118
76 -181 103 -348 149 -174 49 -263 95 -385 200 -88 76 -147 116 -270 181 -112
60 -161 101 -258 217 -27 31 -92 88 -145 126 -114 81 -121 88 -202 209 -35 51
-87 114 -118 140 -152 130 -161 141 -224 272 -70 145 -93 181 -203 312 -107
127 -138 192 -190 402 -48 192 -84 291 -151 410 -185 328 -224 550 -224 1276
0 651 40 947 155 1150 117 207 169 341 225 580 38 162 74 236 172 352 98 116
122 152 196 302 78 158 102 190 201 265 92 70 126 108 180 198 62 103 77 119
201 201 89 59 126 92 165 142 98 128 139 161 305 245 169 85 231 124 330 209
82 70 151 107 265 141 239 71 399 132 554 210 292 146 596 187 1331 180 238
-3 396 -9 481 -19z"/>
</g>
</svg>
