<svg xmlns="http://www.w3.org/2000/svg" viewBox="0 0 439.721579 78.298459">
<g transform="translate(-0.140697,77.714108) scale(0.100000,-0.100000)" fill="#000000" stroke="none">
<path d="M280 764 c-25 -9 -74 -37 -110 -62 -36 -26 -87 -54 -115 -64 -50 -17
-50 -17 -53 -201 -2 -184 -2 -184 56 -196 97 -19 209 -107 252 -198 23 -50
160 -67 187 -25 37 61 280 93 848 112 812 28 999 32 1375 26 927 -14 1145 -35
1221 -117 53 -58 129 -58 158 -1 48 92 186 172 298 172 2 0 2 105 1 232 -3
232 -3 232 -44 239 -22 4 -85 27 -140 50 -118 51 -110 51 -609 31 -1107 -42
-2023 -38 -3165 13 -91 4 -124 2 -160 -11z"/>
</g>
</svg>
