<svg xmlns="http://www.w3.org/2000/svg" viewBox="0 0 984.323602 881.000107">
<g transform="translate(-25.369286,900.000000) scale(0.100000,-0.100000)" fill="#000000" stroke="none">
<path d="M5776 8923 c-17 -201 -10 -237 85 -476 105 -263 125 -374 160 -897
16 -240 -7 -308 -116 -339 -44 -13 -400 -28 -930 -39 -386 -8 -414 -13 -443
-75 -28 -58 65 -175 190 -238 112 -57 181 -63 718 -64 535 -1 518 1 573 -65
36 -42 41 -80 34 -270 -11 -318 -56 -366 -357 -390 -74 -6 -208 -17 -298 -25
-90 -8 -227 -17 -305 -21 -207 -9 -287 -42 -287 -118 0 -178 416 -249 860
-148 256 58 365 15 364 -143 -5 -611 -11 -622 -342 -651 -497 -44 -603 -26
-781 131 -200 175 -358 72 -282 -183 62 -207 64 -302 16 -601 -37 -234 -53
-296 -87 -353 -79 -127 -185 -271 -238 -323 -154 -151 -148 -263 27 -479 152
-189 247 -201 438 -56 48 36 113 73 169 96 50 20 155 70 232 110 407 213 614
146 484 -156 -18 -41 -48 -129 -67 -195 -33 -118 -44 -141 -117 -260 -21 -34
-54 -116 -76 -186 -30 -95 -53 -146 -92 -205 -28 -44 -72 -122 -98 -174 -26
-52 -74 -129 -107 -170 -33 -41 -79 -110 -103 -152 -24 -43 -70 -110 -103
-150 -33 -40 -75 -98 -94 -128 -43 -67 -255 -277 -618 -610 -97 -90 -285 -217
-435 -296 -210 -109 -321 -314 -170 -314 41 0 326 73 450 115 41 14 115 49
165 79 49 29 131 74 180 100 50 25 120 71 158 101 37 30 107 75 155 100 202
105 519 403 740 695 39 52 87 114 106 138 19 23 49 77 66 120 36 87 56 123
116 204 23 31 58 99 78 150 21 51 60 126 87 165 72 108 87 143 115 266 32 150
66 191 140 173 63 -16 181 -166 261 -332 25 -53 70 -126 100 -163 29 -36 76
-109 103 -163 28 -53 75 -129 106 -170 30 -40 73 -107 95 -148 21 -41 65 -108
98 -149 32 -40 79 -111 105 -157 26 -46 71 -114 101 -151 30 -37 71 -99 92
-136 20 -37 61 -96 91 -130 30 -34 80 -100 112 -147 31 -47 80 -112 108 -144
28 -33 71 -94 95 -135 46 -76 223 -291 273 -330 74 -58 245 -71 954 -71 810 0
1078 16 1190 72 99 49 101 77 12 159 -118 108 -167 131 -397 184 -86 20 -136
39 -230 89 -66 34 -165 82 -220 105 -57 23 -131 65 -172 95 -40 30 -116 73
-170 96 -54 23 -136 69 -182 103 -46 33 -132 81 -194 108 -61 27 -136 69 -167
93 -31 24 -96 66 -145 93 -50 27 -119 76 -159 114 -39 36 -93 81 -121 99 -27
19 -75 57 -105 85 -30 28 -86 75 -125 105 -168 129 -515 469 -628 615 -34 44
-89 109 -123 145 -33 36 -75 85 -94 110 -19 25 -64 77 -100 115 -37 39 -85 97
-107 130 -22 33 -68 94 -102 135 -238 290 -219 550 47 644 188 67 1387 138
1544 93 253 -75 319 -424 133 -705 -62 -94 -237 -117 -500 -67 -210 41 -275
23 -275 -74 0 -55 20 -83 168 -235 103 -106 162 -175 196 -231 27 -44 72 -109
101 -145 29 -36 69 -92 90 -125 87 -139 174 -180 285 -133 76 32 284 186 330
244 25 32 65 80 88 108 61 71 77 106 118 257 19 72 57 186 84 253 27 66 63
179 80 250 35 149 53 192 105 261 21 28 61 79 88 115 28 36 71 88 97 116 135
144 121 262 -40 344 -30 15 -86 51 -125 80 -79 59 -128 85 -231 124 -39 14
-104 47 -145 71 -187 112 -312 111 -571 -6 -116 -53 -117 -53 -623 -144 -1036
-185 -1172 -167 -1081 141 14 49 35 132 45 185 62 300 84 314 591 354 107 9
292 25 410 36 118 10 319 23 445 28 362 13 402 52 287 280 -59 117 -66 165
-31 241 29 63 295 320 424 409 187 129 258 239 210 330 -26 51 -239 208 -360
266 -60 28 -145 75 -187 102 -201 132 -530 127 -793 -12 -91 -48 -152 -72
-251 -99 -73 -19 -181 -54 -240 -77 -282 -108 -361 -59 -351 216 13 340 95
385 867 480 151 19 317 55 465 102 61 19 171 48 245 64 281 60 390 145 378
294 -7 83 -39 113 -193 182 -287 127 -368 131 -584 29 -75 -36 -164 -68 -251
-91 -89 -24 -172 -54 -245 -89 -287 -140 -559 -156 -629 -37 -57 98 -41 423
32 637 155 454 112 586 -227 706 -125 44 -191 92 -212 155 -11 33 -11 33 -263
33 -253 0 -253 0 -260 -77z m1908 -2943 c72 -36 90 -66 94 -154 8 -151 -139
-393 -274 -453 -290 -129 -327 -143 -441 -167 -66 -14 -156 -37 -199 -51 -208
-66 -257 -21 -262 239 -8 405 36 498 264 555 242 61 723 79 818 31z m-1791
-1404 c82 -40 94 -118 43 -270 -19 -56 -46 -145 -60 -200 -60 -229 -120 -280
-358 -306 -124 -14 -172 -25 -261 -61 -246 -102 -308 39 -197 452 97 361 119
381 445 398 238 13 341 9 388 -13z"/>
<path d="M3080 8841 c-97 -51 -128 -140 -105 -296 26 -173 3 -325 -83 -545
-24 -63 -55 -160 -69 -215 -49 -207 -56 -227 -105 -308 -67 -110 -91 -159
-117 -241 -27 -84 -49 -128 -108 -217 -24 -36 -64 -114 -88 -171 -24 -59 -71
-146 -107 -199 -35 -52 -78 -130 -96 -174 -19 -48 -57 -112 -93 -160 -33 -44
-80 -114 -104 -155 -24 -41 -71 -106 -103 -145 -33 -38 -79 -101 -102 -140
-23 -38 -66 -99 -95 -135 -29 -36 -77 -103 -107 -150 -30 -47 -75 -107 -100
-135 -24 -27 -64 -77 -88 -110 -24 -33 -71 -89 -104 -125 -34 -36 -79 -87
-101 -115 -21 -27 -73 -86 -115 -131 -41 -45 -122 -135 -180 -200 -57 -65
-220 -235 -361 -376 -301 -301 -336 -359 -263 -439 41 -45 199 19 327 132 38
33 103 83 145 111 43 28 106 77 142 108 36 31 93 76 128 99 35 24 94 71 130
105 37 34 87 77 112 96 127 96 629 591 716 705 146 193 296 155 319 -80 45
-464 32 -1062 -30 -1425 -16 -94 -53 -394 -85 -680 -11 -102 -34 -250 -51
-330 -113 -538 -118 -570 -150 -990 -40 -526 -6 -834 113 -1022 27 -42 71
-127 98 -188 127 -289 292 -394 412 -261 245 272 257 389 213 2061 -21 793
-25 2425 -7 2560 7 52 29 167 48 255 64 287 31 416 -175 701 -71 97 -64 173
23 276 29 35 72 97 96 138 24 41 66 104 92 139 27 35 72 109 100 165 28 55 72
131 99 167 27 36 71 114 99 174 28 60 73 139 101 176 27 37 70 111 95 166 26
54 70 132 99 173 28 41 70 114 93 161 30 62 63 110 119 172 215 236 229 351
76 609 -147 246 -559 486 -703 409z"/>
</g>
</svg>
