<svg xmlns="http://www.w3.org/2000/svg" viewBox="0 0 900.677229 900.984645">
<g transform="translate(-19.322771,900.297251) scale(0.100000,-0.100000)" fill="#000000" stroke="none">
<path d="M4425 8996 c-5 -3 -27 -7 -47 -10 -104 -18 -126 -104 -52 -207 70
-99 510 -526 648 -631 315 -240 438 -221 594 91 120 241 -27 487 -353 592 -53
17 -131 45 -173 63 -157 67 -544 131 -617 102z"/>
<path d="M6750 8189 c-159 -15 -275 -40 -437 -94 -89 -30 -215 -64 -280 -75
-458 -82 -534 -100 -635 -151 -86 -43 -154 -58 -348 -75 -96 -8 -218 -24 -270
-35 -558 -118 -684 -137 -1335 -204 -137 -14 -288 -32 -335 -40 -140 -24 -192
-20 -323 25 -133 46 -437 101 -555 101 -220 -1 -281 -131 -168 -355 105 -210
113 -283 98 -921 -10 -430 -13 -482 -36 -610 -72 -398 -99 -593 -121 -875 -37
-470 -57 -603 -125 -816 -31 -99 -58 -211 -75 -312 -33 -201 -53 -275 -115
-422 -34 -79 -63 -172 -85 -272 -44 -191 -46 -197 -112 -340 -30 -65 -67 -161
-83 -215 -38 -134 -43 -144 -106 -238 -37 -56 -68 -118 -95 -194 -45 -130 -53
-146 -119 -248 -29 -43 -60 -109 -75 -154 -36 -116 -50 -145 -104 -218 -27
-36 -72 -113 -101 -171 -28 -58 -71 -130 -94 -160 -24 -30 -67 -98 -96 -150
-28 -52 -89 -144 -135 -205 -45 -60 -100 -137 -121 -170 -21 -33 -66 -97 -100
-141 -70 -92 -84 -132 -60 -169 35 -53 112 -44 189 20 28 25 81 69 117 99 132
110 405 390 469 481 35 50 81 109 102 132 22 24 68 87 102 140 35 54 83 120
107 148 23 27 68 88 99 135 32 47 85 118 118 158 47 56 70 95 98 166 19 52 62
134 95 182 42 62 72 124 101 204 23 63 61 145 85 182 65 101 78 130 123 283
23 77 65 189 93 249 47 103 68 173 117 396 12 55 41 138 68 195 68 149 88 213
118 394 74 449 160 607 397 732 134 70 191 113 335 252 130 125 163 142 209
112 54 -35 57 -61 55 -410 -3 -483 -20 -632 -118 -1015 -89 -352 -86 -474 20
-687 30 -60 68 -152 85 -206 64 -197 163 -236 287 -112 133 134 135 159 105
1370 -13 526 -7 787 25 981 27 167 15 234 -64 354 -67 102 -21 245 136 422 31
34 84 105 118 158 34 52 86 122 115 155 30 33 69 84 88 114 19 30 65 86 101
126 160 172 153 307 -21 430 -46 33 -105 77 -130 97 -208 173 -399 96 -428
-172 -5 -56 -22 -132 -40 -185 -17 -49 -46 -149 -65 -222 -37 -145 -53 -180
-119 -275 -24 -35 -64 -106 -88 -158 -28 -59 -65 -118 -98 -155 -29 -33 -69
-85 -88 -115 -172 -268 -430 -540 -513 -540 -78 0 -84 49 -33 281 74 343 100
522 124 864 38 531 85 833 147 947 66 122 118 143 458 192 274 40 332 51 575
111 203 50 363 78 580 100 85 9 310 36 500 60 356 46 786 90 970 99 405 22
568 28 980 35 535 10 564 14 633 90 103 114 34 254 -198 409 -151 99 -373 132
-695 101z"/>
<path d="M6190 7122 c-102 -51 -49 -206 111 -322 41 -30 102 -78 136 -107 70
-59 105 -78 283 -154 194 -82 265 -74 400 48 195 177 140 374 -122 432 -56 13
-150 37 -208 53 -223 62 -526 88 -600 50z"/>
<path d="M5222 6850 c-87 -39 -140 -125 -167 -270 -59 -320 -86 -408 -154
-508 -22 -33 -63 -106 -90 -163 -27 -57 -69 -126 -92 -154 -23 -27 -66 -87
-95 -132 -30 -46 -76 -107 -103 -137 -26 -29 -68 -80 -91 -112 -24 -33 -80
-97 -125 -144 -44 -47 -92 -101 -105 -120 -13 -19 -52 -65 -87 -102 -71 -74
-80 -108 -40 -146 43 -40 90 -30 182 39 28 20 83 53 122 73 44 22 104 65 150
107 167 152 280 152 314 1 12 -54 -8 -685 -30 -967 -25 -309 -37 -384 -98
-615 -61 -234 -64 -338 -14 -475 18 -49 53 -148 77 -218 74 -218 120 -272 234
-272 100 0 140 54 194 264 70 266 79 272 404 301 120 11 267 26 327 34 309 41
838 64 1631 70 622 5 638 7 689 107 67 128 -21 226 -282 316 -328 114 -499
115 -876 7 -237 -68 -312 -10 -303 231 10 271 45 312 288 340 413 47 669 138
699 248 47 174 -255 236 -700 142 -200 -42 -275 1 -275 160 0 158 71 215 305
249 472 68 688 168 655 303 -31 122 -321 167 -635 100 -261 -57 -344 -3 -329
212 10 138 56 181 248 235 69 19 152 44 185 56 87 30 238 67 330 80 183 26
259 61 295 136 121 250 -371 348 -790 158 -144 -65 -171 -73 -336 -94 -154
-19 -260 -42 -369 -80 -184 -64 -662 -143 -748 -124 -159 34 -140 140 58 329
158 151 152 235 -27 377 -182 144 -333 200 -426 158z m240 -1038 c15 -9 54
-36 87 -59 99 -68 237 -88 416 -62 161 24 241 -62 262 -278 15 -163 -46 -211
-327 -253 -164 -25 -175 -28 -222 -51 -124 -62 -96 -210 52 -270 26 -10 82
-14 215 -14 234 0 286 -29 314 -181 37 -193 -19 -225 -567 -327 -124 -23 -173
-71 -157 -153 21 -115 146 -160 409 -148 274 12 357 -65 301 -281 -48 -183
-111 -240 -284 -256 -789 -72 -749 -99 -758 531 -6 471 9 895 37 1055 28 157
23 193 -46 336 -60 125 -66 165 -39 256 44 147 197 225 307 155z"/>
<path d="M7703 2883 c-34 -7 -73 -59 -73 -98 0 -77 99 -188 330 -365 25 -19
84 -71 131 -115 47 -44 143 -132 214 -195 71 -63 172 -154 224 -202 226 -206
330 -234 474 -129 64 47 139 81 179 81 17 0 18 14 18 224 0 224 0 224 -37 231
-62 11 -127 51 -206 124 -105 97 -136 115 -272 156 -136 41 -184 61 -263 109
-76 46 -150 69 -317 100 -77 14 -174 37 -215 50 -80 26 -151 37 -187 29z"/>
<path d="M5534 2600 c-113 -45 -92 -124 100 -370 58 -74 137 -180 175 -235
131 -187 342 -364 435 -365 170 -1 358 238 325 412 -24 129 -162 294 -306 367
-43 22 -114 63 -158 91 -134 85 -465 143 -571 100z"/>
<path d="M2731 2313 c-53 -26 -76 -74 -116 -243 -22 -90 -54 -157 -115 -235
-28 -37 -71 -106 -94 -154 -24 -47 -69 -119 -100 -158 -149 -191 -189 -444
-114 -726 64 -240 302 -275 504 -73 177 179 280 393 319 662 52 360 21 723
-73 866 -45 68 -140 96 -211 61z"/>
<path d="M3998 2274 c-77 -42 -37 -262 109 -592 29 -67 68 -162 85 -210 38
-108 59 -150 114 -227 23 -34 68 -112 98 -175 35 -73 78 -143 117 -190 34 -41
79 -101 101 -133 22 -32 60 -77 86 -100 25 -23 84 -78 131 -122 71 -66 110
-92 221 -149 74 -38 169 -87 210 -108 62 -32 109 -46 265 -77 249 -51 325 -84
360 -159 28 -57 1743 -49 1792 8 64 75 217 131 448 165 184 26 227 43 380 150
241 168 262 263 107 471 -74 101 -107 126 -218 170 -95 37 -113 47 -190 105
-28 21 -92 62 -144 89 -51 28 -125 77 -164 109 -39 32 -101 79 -138 104 -69
47 -196 152 -327 271 -157 142 -305 163 -304 44 1 -54 102 -373 155 -487 139
-303 98 -412 -187 -500 -186 -58 -919 -49 -1183 14 -57 14 -185 39 -285 55
-232 39 -283 53 -376 99 -42 21 -116 55 -165 75 -193 80 -409 294 -521 516
-24 47 -65 121 -92 166 -27 45 -59 114 -72 155 -63 211 -115 304 -221 403 -78
72 -137 90 -192 60z"/>
</g>
</svg>
