<svg xmlns="http://www.w3.org/2000/svg" viewBox="0 0 898.388912 873.767379">
<g transform="translate(-22.183095,873.774027) scale(0.100000,-0.100000)" fill="#000000" stroke="none">
<path d="M5697 8708 c-117 -111 -113 -245 11 -387 33 -36 80 -98 105 -137 26
-40 83 -104 133 -149 145 -132 167 -248 56 -304 -48 -24 -456 -94 -712 -121
-107 -11 -269 -30 -360 -41 -91 -11 -277 -33 -415 -49 -137 -16 -273 -33 -302
-36 -63 -8 -120 5 -228 53 -141 62 -401 113 -475 93 -118 -32 -152 -115 -105
-265 36 -118 43 -191 60 -630 8 -220 21 -483 27 -585 15 -226 13 -1942 -3
-2185 -5 -88 -25 -344 -44 -570 -19 -225 -39 -493 -45 -595 -15 -250 -31 -345
-95 -539 -65 -199 -77 -251 -105 -446 -30 -212 -43 -261 -104 -393 -32 -70
-68 -173 -91 -257 -24 -90 -58 -185 -95 -265 -32 -69 -80 -177 -106 -240 -43
-103 -56 -123 -121 -192 -79 -83 -88 -110 -58 -168 26 -51 93 -77 131 -52 108
69 371 368 449 511 25 46 65 109 89 140 60 80 79 114 120 216 20 50 58 128 85
175 57 98 80 153 111 265 12 44 48 145 80 225 76 192 85 223 115 418 14 92 50
278 80 413 82 371 94 503 125 1414 14 409 21 474 60 568 59 142 81 165 184
187 77 17 96 31 258 194 193 194 244 211 300 97 72 -145 -3 -987 -118 -1325
-135 -399 -125 -713 29 -948 142 -215 224 -214 350 2 112 193 130 340 102 820
-33 567 -27 1307 14 1479 43 185 41 217 -25 347 -86 172 -52 313 129 521 32
37 79 103 104 146 25 42 74 112 109 155 207 247 172 421 -114 560 -266 130
-348 69 -382 -283 -16 -166 -46 -274 -111 -400 -31 -60 -73 -157 -94 -215 -23
-64 -59 -138 -93 -190 -30 -47 -77 -134 -103 -194 -34 -76 -72 -139 -122 -205
-40 -53 -90 -123 -109 -156 -42 -70 -73 -101 -183 -184 -88 -68 -87 -67 -109
-46 -35 36 -39 89 -27 405 6 168 15 451 21 630 36 1158 11 1110 631 1205 87
14 231 43 320 65 257 65 608 122 854 140 83 6 222 19 310 30 88 11 212 24 275
30 63 6 178 19 255 30 239 33 353 40 895 50 972 18 1120 46 1120 211 0 109
-112 218 -275 269 -22 6 -92 36 -155 65 -235 109 -430 109 -756 0 -88 -30
-200 -61 -250 -70 -81 -15 -194 -42 -346 -83 -114 -29 -154 10 -182 176 -26
153 -72 217 -241 337 -137 98 -207 124 -432 165 -138 26 -173 38 -259 89 -82
49 -102 51 -147 9z"/>
<path d="M2460 8188 c-75 -38 -93 -76 -86 -178 17 -221 18 -289 6 -393 -16
-142 -37 -227 -93 -363 -25 -60 -61 -174 -80 -254 -46 -186 -57 -215 -116
-313 -30 -51 -65 -130 -91 -207 -29 -89 -57 -151 -97 -213 -38 -61 -69 -128
-99 -215 -32 -94 -57 -146 -98 -206 -31 -45 -77 -130 -104 -191 -26 -60 -76
-149 -109 -197 -33 -49 -75 -123 -92 -165 -18 -45 -57 -112 -92 -158 -33 -44
-80 -118 -104 -166 -24 -47 -71 -118 -104 -158 -34 -41 -79 -103 -101 -140
-21 -36 -62 -93 -90 -126 -28 -33 -67 -89 -87 -125 -20 -36 -59 -94 -88 -130
-28 -36 -78 -101 -110 -145 -32 -44 -115 -145 -184 -224 -187 -213 -234 -292
-216 -364 27 -107 143 -60 395 162 41 37 96 83 121 103 74 59 407 382 544 528
70 74 162 171 204 215 43 44 100 109 127 145 26 36 67 88 89 115 23 28 58 82
79 120 81 147 163 185 242 112 106 -97 106 -708 -1 -1977 -8 -96 -19 -249 -25
-340 -18 -278 -36 -402 -100 -690 -51 -227 -75 -379 -100 -625 -12 -110 -30
-254 -41 -320 -48 -278 14 -572 160 -759 74 -95 115 -177 139 -273 17 -73 17
-73 148 -73 130 0 130 0 143 78 14 83 61 247 109 382 57 156 67 389 83 1890
21 1980 25 2176 49 2345 50 347 24 431 -213 698 -163 185 -171 247 -52 408 23
32 57 93 75 136 31 73 56 117 128 220 16 23 49 88 72 144 24 55 71 143 105
194 40 59 75 127 96 185 18 51 47 116 66 146 18 30 49 79 68 110 19 31 49 97
67 147 17 50 54 127 81 171 165 270 152 243 152 326 0 308 -536 728 -775 608z"/>
<path d="M7088 7224 c-90 -48 -83 -169 18 -285 25 -30 68 -99 94 -154 27 -58
69 -125 99 -160 144 -168 76 -272 -214 -325 -60 -11 -157 -36 -215 -55 -178
-58 -218 -56 -246 12 -29 68 -5 155 75 273 102 151 -9 391 -234 504 -186 95
-254 31 -276 -259 -14 -194 -30 -260 -94 -396 -43 -92 -63 -152 -90 -269 -29
-125 -44 -169 -93 -267 -33 -65 -74 -163 -92 -218 -42 -128 -63 -168 -149
-289 -209 -291 -91 -463 144 -209 99 108 202 146 251 92 26 -29 26 -359 0
-519 -27 -166 -44 -293 -61 -460 -9 -85 -35 -252 -56 -370 -69 -369 -67 -466
15 -720 84 -262 134 -333 252 -358 117 -25 174 38 204 225 21 133 72 172 257
197 66 9 162 32 235 55 233 76 439 113 728 132 91 5 208 14 260 19 52 5 289
10 527 10 525 0 557 5 620 99 71 105 12 214 -155 286 -45 20 -112 53 -149 75
-182 104 -405 97 -614 -22 -240 -136 -371 -67 -355 187 13 229 71 309 242 334
388 58 428 68 481 123 180 191 -65 354 -426 284 -206 -40 -278 0 -289 159 -12
172 40 219 294 270 476 96 565 339 151 415 -50 10 -70 8 -162 -15 -158 -38
-223 -19 -261 80 -34 90 -4 256 59 323 53 57 301 144 477 168 253 34 317 60
361 146 95 187 -170 312 -504 237 -225 -50 -259 -34 -311 150 -56 195 -151
302 -373 419 -98 52 -378 102 -425 76z m-423 -1178 c105 -52 171 -66 311 -66
201 0 257 -46 295 -243 47 -250 1 -310 -259 -337 -59 -6 -145 -20 -192 -31
-159 -37 -179 -28 -220 98 -32 96 -51 130 -110 198 -125 141 -117 354 15 411
46 20 62 17 160 -30z m-3 -787 c12 -6 55 -37 98 -68 106 -79 154 -98 283 -109
159 -15 225 -62 263 -188 56 -186 -14 -260 -302 -319 -272 -56 -322 -103 -235
-222 48 -67 114 -94 253 -104 255 -19 307 -94 263 -381 -17 -111 -40 -166 -87
-201 -54 -40 -74 -47 -203 -72 -68 -13 -154 -33 -192 -45 -248 -75 -336 -21
-358 220 -29 342 -24 1058 11 1265 30 181 114 273 206 224z"/>
<path d="M7960 2503 c-125 -65 -83 -194 140 -429 63 -66 169 -181 235 -254
341 -377 448 -452 607 -422 156 29 232 134 257 356 27 233 -27 354 -202 455
-48 28 -116 70 -150 95 -83 59 -116 72 -287 111 -80 19 -190 48 -245 66 -129
41 -298 51 -355 22z"/>
<path d="M6037 2469 c-128 -21 -165 -121 -87 -235 38 -56 351 -372 420 -424
25 -19 74 -60 109 -92 190 -172 401 -138 505 82 129 274 -85 535 -500 610 -65
12 -157 30 -204 40 -111 23 -184 29 -243 19z"/>
<path d="M5051 2394 c-62 -52 -65 -130 -10 -267 40 -99 79 -234 159 -551 42
-162 53 -192 121 -306 21 -36 50 -96 64 -133 39 -105 70 -159 128 -229 29 -34
79 -99 110 -144 40 -56 80 -98 130 -134 40 -30 99 -77 132 -106 83 -71 128
-98 220 -134 44 -17 114 -51 155 -75 129 -75 167 -85 463 -120 258 -30 342
-45 517 -92 219 -58 375 -52 700 27 85 21 211 45 280 54 208 28 281 45 351 82
269 141 355 364 197 510 -50 47 -214 165 -297 214 -84 50 -191 152 -381 365
-282 315 -378 389 -458 356 -76 -32 -75 -126 4 -621 51 -318 -141 -455 -591
-420 -220 17 -277 26 -389 66 -56 19 -147 46 -203 59 -252 61 -531 245 -658
435 -16 25 -55 81 -86 125 -56 79 -109 176 -124 225 -4 14 -36 86 -71 160 -38
80 -78 188 -100 265 -88 311 -250 485 -363 389z"/>
<path d="M4248 2090 c-34 -26 -54 -78 -73 -188 -20 -117 -36 -161 -90 -247
-24 -39 -69 -122 -99 -185 -31 -63 -76 -151 -101 -195 -159 -288 -71 -645 190
-766 114 -53 280 42 415 237 192 277 155 774 -93 1283 -36 74 -100 100 -149
61z"/>
</g>
</svg>
