<svg xmlns="http://www.w3.org/2000/svg" viewBox="0 0 943.737243 819.158258">
<g transform="translate(-16.904982,840.000000) scale(0.100000,-0.100000)" fill="#000000" stroke="none">
<path d="M2560 8387 c0 -7 -22 -57 -50 -111 -65 -128 -68 -183 -15 -266 78
-123 93 -166 120 -340 49 -318 51 -451 10 -975 -8 -104 -22 -289 -30 -410 -24
-335 -48 -525 -105 -839 -16 -89 -38 -229 -50 -311 -38 -276 -72 -324 -238
-340 -145 -14 -275 -37 -452 -80 -387 -93 -877 -135 -1345 -116 -293 12 -318
-201 -47 -392 42 -30 104 -78 137 -107 221 -191 552 -189 939 5 111 55 152 70
266 95 112 25 155 40 252 89 177 90 291 92 332 7 21 -44 21 -40 -18 -164 -19
-59 -42 -150 -51 -202 -25 -139 -48 -228 -105 -390 -108 -312 -87 -352 425
-810 480 -430 488 -443 351 -625 -29 -38 -68 -98 -86 -132 -17 -34 -57 -92
-89 -129 -31 -37 -83 -104 -116 -150 -121 -166 -379 -437 -500 -524 -33 -24
-81 -63 -108 -86 -26 -23 -91 -66 -144 -94 -54 -29 -116 -65 -138 -80 -68 -47
-136 -76 -230 -100 -200 -51 -271 -123 -212 -214 77 -116 617 -46 861 113 34
23 100 57 147 77 101 44 114 52 204 124 39 31 104 77 145 103 135 83 483 458
566 609 110 202 232 178 405 -79 28 -41 75 -103 104 -137 29 -35 79 -103 111
-152 158 -240 336 -336 484 -262 159 81 169 521 17 720 -20 26 -65 91 -101
145 -63 93 -183 224 -353 383 -143 133 -136 290 24 590 76 141 84 159 100 228
55 238 66 273 122 391 58 123 78 189 101 321 19 107 39 178 91 313 60 156 79
233 119 497 34 226 53 280 109 317 45 30 82 29 111 -2 42 -45 112 -83 269
-144 276 -109 359 -112 579 -25 91 37 166 57 337 91 120 24 262 57 315 74 238
77 327 12 302 -219 -7 -59 -23 -215 -37 -347 -28 -263 -52 -426 -95 -640 -16
-77 -34 -178 -40 -225 -26 -188 -77 -235 -292 -270 -68 -11 -182 -34 -253 -51
-155 -37 -182 -36 -321 19 -360 143 -544 61 -423 -189 117 -242 197 -574 234
-974 29 -315 49 -459 106 -738 21 -110 53 -304 70 -433 34 -268 50 -330 114
-434 157 -254 333 -240 389 33 67 325 179 348 2006 397 421 11 448 14 502 41
97 49 72 174 -61 313 -121 125 -130 179 -55 323 25 48 67 151 94 229 55 161
77 207 132 280 22 29 62 99 90 156 27 57 74 132 102 168 29 36 75 99 103 140
28 41 81 108 118 149 203 224 140 405 -199 577 -61 31 -140 78 -176 104 -85
62 -103 71 -272 131 -261 93 -281 95 -422 33 -103 -45 -174 -61 -316 -69 -164
-9 -418 -34 -465 -45 -128 -30 -230 -3 -267 70 -44 86 7 500 107 870 62 231
72 278 90 424 34 274 67 296 505 331 629 51 960 68 1345 69 390 1 390 1 533
74 79 39 161 75 183 78 57 9 62 164 7 187 -18 8 -75 42 -127 75 -71 47 -117
69 -195 93 -55 17 -148 49 -205 71 -145 55 -212 68 -401 75 -252 9 -346 -6
-655 -101 -65 -20 -191 -48 -280 -62 -110 -18 -188 -37 -249 -60 -142 -55
-217 -42 -252 42 -34 80 3 393 71 610 52 166 92 340 120 524 32 205 46 262
105 425 26 72 58 175 70 230 31 141 47 188 99 288 83 161 66 223 -100 364
-125 106 -158 127 -274 169 -150 55 -211 103 -229 177 -6 27 -6 27 -199 27
-192 0 -192 0 -221 -124 -37 -159 -34 -231 14 -326 145 -288 157 -920 30
-1575 -47 -239 -76 -461 -90 -668 -20 -310 -31 -320 -490 -431 -195 -47 -290
-64 -560 -96 -228 -28 -583 -102 -716 -149 -204 -72 -219 -68 -219 62 0 82 1
87 55 193 102 202 39 367 -210 548 -36 26 -93 69 -128 96 -131 103 -281 95
-339 -19 -21 -42 -22 -49 -16 -289 10 -409 -17 -447 -392 -542 -607 -153 -673
-126 -597 245 11 55 28 145 36 199 9 55 39 167 66 250 63 195 76 246 111 451
23 135 44 212 99 375 52 152 77 243 95 350 34 195 54 258 119 368 181 306 138
468 -179 676 -49 33 -120 83 -158 111 -38 29 -101 65 -140 80 -158 61 -224
107 -251 175 -16 40 -16 40 -121 40 -80 0 -105 -3 -105 -13z m1196 -3608 c99
-25 125 -100 84 -246 -11 -40 -27 -119 -35 -175 -23 -152 -41 -217 -107 -380
-35 -87 -69 -193 -83 -260 -44 -200 -63 -265 -113 -375 -57 -127 -61 -137
-101 -268 -80 -260 -244 -330 -421 -179 -30 26 -102 70 -160 97 -258 124 -357
308 -287 535 15 46 42 165 62 265 20 100 49 218 65 262 15 44 44 125 64 180
19 55 45 133 57 173 43 142 90 179 264 207 131 21 260 56 420 115 172 63 208
70 291 49z m3771 -1739 c292 -20 328 -87 289 -550 -32 -384 -61 -587 -101
-710 -8 -25 -33 -119 -55 -209 -81 -321 -105 -352 -293 -372 -391 -43 -942
-114 -1242 -159 -282 -43 -318 -15 -336 264 -44 707 -79 1105 -109 1216 -58
220 -2 268 445 375 283 69 375 83 650 105 72 6 180 17 240 25 187 25 317 29
512 15z"/>
</g>
</svg>
