<svg xmlns="http://www.w3.org/2000/svg" viewBox="0 0 941.490162 819.041459">
<g transform="translate(-21.434049,840.000000) scale(0.100000,-0.100000)" fill="#000000" stroke="none">
<path d="M2392 8078 c3 -400 -12 -504 -99 -696 -41 -92 -53 -129 -93 -290 -23
-88 -51 -173 -66 -200 -71 -122 -98 -179 -129 -272 -19 -55 -50 -129 -69 -165
-20 -36 -51 -93 -70 -127 -19 -35 -49 -107 -66 -161 -23 -71 -49 -124 -93
-189 -33 -50 -80 -136 -103 -190 -24 -55 -68 -134 -98 -177 -30 -43 -78 -125
-106 -183 -27 -58 -71 -132 -96 -164 -25 -33 -67 -100 -94 -149 -27 -50 -72
-117 -100 -149 -28 -32 -71 -94 -97 -139 -26 -44 -68 -106 -93 -136 -26 -31
-75 -99 -109 -151 -35 -52 -91 -128 -125 -170 -34 -41 -80 -100 -102 -130 -21
-30 -68 -86 -103 -125 -95 -104 -249 -315 -261 -357 -35 -124 99 -159 200 -53
19 20 64 58 100 83 36 25 92 71 125 102 33 31 104 91 158 134 53 43 97 81 97
86 0 5 39 43 88 86 83 74 263 259 478 490 115 126 266 314 315 394 72 119 123
160 201 160 114 0 139 -107 141 -605 2 -347 -24 -759 -93 -1470 -10 -110 -24
-274 -30 -365 -17 -264 -36 -395 -96 -656 -44 -194 -78 -399 -99 -594 -9 -85
-23 -207 -31 -270 -39 -293 3 -548 118 -711 29 -41 78 -121 108 -179 78 -148
151 -197 265 -176 88 17 118 66 185 302 95 334 91 260 110 2599 11 1435 11
1441 37 1690 45 439 33 479 -213 758 -151 171 -159 207 -73 348 29 46 71 126
95 177 24 51 68 128 98 170 29 42 72 121 95 175 22 54 54 119 71 143 16 24 43
63 59 87 16 23 50 93 75 156 25 63 68 149 96 191 29 44 66 120 86 174 43 122
54 143 124 241 68 94 125 205 140 271 32 140 -105 357 -321 510 -94 66 -136
112 -145 159 -6 35 -6 35 -200 35 -194 0 -194 0 -192 -322z"/>
<path d="M7606 8191 c-121 -49 -145 -127 -81 -266 130 -280 127 -1325 -6
-2195 -41 -266 -81 -307 -349 -354 -80 -14 -246 -54 -371 -90 -160 -45 -263
-69 -355 -81 -71 -9 -166 -25 -212 -36 -201 -46 -255 21 -203 251 44 198 8
306 -158 470 -183 180 -352 219 -422 97 -23 -41 -24 -51 -30 -327 -10 -431 -9
-429 -292 -490 -76 -16 -183 -48 -239 -70 -331 -133 -378 80 -169 777 22 74
56 225 76 344 29 171 49 252 100 409 34 107 75 255 89 329 27 132 45 181 121
319 44 80 48 155 13 221 -47 86 -171 232 -237 279 -36 26 -97 75 -136 110 -80
72 -312 196 -388 207 -163 25 -234 -127 -164 -350 123 -391 149 -866 77 -1425
-27 -217 -57 -525 -70 -725 -46 -732 -48 -734 -660 -810 -209 -26 -322 -35
-434 -35 -222 -1 -281 -37 -281 -175 0 -93 27 -130 170 -238 249 -188 465
-195 666 -22 106 91 211 121 285 82 82 -43 83 -145 4 -402 -214 -693 -209
-734 143 -1094 525 -538 556 -599 400 -791 -25 -30 -64 -93 -88 -141 -24 -47
-67 -115 -95 -150 -29 -35 -74 -102 -102 -149 -28 -47 -69 -107 -92 -135 -23
-27 -70 -86 -104 -130 -158 -204 -425 -463 -586 -569 -155 -102 -216 -206
-156 -266 48 -48 305 22 445 122 28 20 88 58 135 86 47 27 121 81 165 119 44
37 114 95 155 128 83 66 308 290 375 375 24 30 71 89 105 130 33 41 79 102
102 135 103 150 166 170 249 78 58 -64 171 -235 207 -314 22 -46 56 -106 77
-134 22 -27 61 -86 88 -130 99 -161 204 -208 328 -145 158 81 157 552 -2 771
-33 46 -79 119 -102 162 -23 44 -69 112 -103 151 -276 324 -278 327 -272 432
3 69 6 76 60 156 73 107 82 131 118 307 36 175 40 187 96 320 52 122 73 202
109 406 14 85 41 193 61 250 99 280 96 267 153 677 48 338 113 410 270 300
247 -174 474 -181 886 -29 358 131 475 81 425 -183 -5 -29 -19 -122 -30 -206
-11 -85 -36 -236 -55 -336 -36 -188 -66 -392 -85 -583 -30 -302 -71 -358 -282
-391 -51 -8 -138 -21 -193 -30 -148 -23 -221 -10 -380 64 -235 110 -386 -12
-274 -221 73 -137 81 -157 94 -233 8 -43 21 -135 30 -204 9 -69 31 -201 50
-295 19 -93 38 -197 44 -230 14 -81 68 -606 86 -841 24 -301 49 -404 147 -597
118 -230 207 -218 292 39 69 209 138 243 591 288 258 26 444 36 710 36 834 3
861 17 650 324 -120 176 -123 190 -66 313 22 49 52 133 66 186 33 128 41 147
112 253 33 49 74 123 92 165 18 43 57 107 88 145 30 38 79 106 109 151 29 45
78 109 108 142 171 186 120 347 -163 515 -45 26 -112 73 -149 102 -37 30 -89
65 -117 78 -360 173 -362 173 -522 105 -226 -96 -552 -102 -623 -12 -40 51
-43 91 -14 199 28 109 57 305 79 549 67 706 152 895 421 934 132 19 461 34
839 37 468 4 495 8 547 93 74 119 -7 250 -209 340 -59 27 -138 63 -174 80
-165 79 -400 81 -619 6 -652 -224 -699 -159 -481 675 31 119 60 265 76 375 32
225 48 292 129 542 134 414 111 576 -95 683 -13 7 -80 50 -149 95 -189 126
-351 165 -474 116z m-2332 -3371 c76 -29 88 -160 31 -325 -43 -122 -76 -269
-109 -480 -25 -163 -43 -231 -114 -435 -22 -63 -49 -167 -61 -230 -64 -340
-135 -460 -274 -460 -94 0 -451 271 -520 395 -46 84 -25 248 74 551 40 125 69
241 94 375 51 275 89 345 238 444 153 102 543 202 641 165z m2878 -1774 c212
-41 244 -91 235 -366 -8 -204 -31 -344 -96 -569 -32 -108 -60 -237 -76 -340
-48 -313 -83 -353 -340 -391 -44 -6 -195 -32 -335 -57 -725 -128 -688 -152
-725 467 -23 384 -44 654 -56 743 -43 299 113 405 696 472 116 14 251 31 300
39 118 19 305 20 397 2z"/>
</g>
</svg>
