<svg xmlns="http://www.w3.org/2000/svg" viewBox="0 0 917.426112 880.877671">
<g transform="translate(-21.012697,899.025933) scale(0.100000,-0.100000)" fill="#000000" stroke="none">
<path d="M6201 8972 c-128 -46 -148 -123 -73 -272 66 -132 74 -191 76 -560 2
-484 -12 -509 -299 -540 -123 -13 -213 -29 -473 -86 -382 -83 -409 -64 -405
286 3 292 -20 376 -134 480 -101 92 -206 128 -393 136 -247 11 -310 -87 -190
-294 38 -67 53 -106 65 -167 8 -44 28 -154 46 -244 52 -277 12 -339 -242 -376
-365 -54 -455 -78 -502 -134 -117 -139 161 -272 505 -242 186 16 281 -8 327
-82 22 -35 27 -64 71 -382 41 -294 52 -330 128 -424 109 -134 194 -157 349
-96 111 44 414 115 678 160 205 35 353 52 707 80 366 29 423 82 302 280 -120
194 -125 235 -56 400 23 55 56 152 73 215 78 285 14 264 828 270 585 4 670 7
701 21 122 56 123 202 2 310 -68 61 -312 205 -391 230 -153 50 -472 36 -632
-27 -199 -77 -278 -32 -266 151 7 107 27 164 86 259 121 191 51 369 -193 491
-50 25 -123 63 -162 85 -139 79 -411 115 -533 72z m-157 -1723 c90 -25 129
-120 108 -258 -6 -42 -19 -123 -28 -181 -41 -273 -124 -335 -528 -396 -511
-76 -555 -48 -559 353 -3 333 40 374 457 428 105 14 245 34 311 44 144 23 188
24 239 10z"/>
<path d="M1353 8029 c-119 -59 -87 -147 145 -394 62 -66 157 -167 210 -224
239 -258 339 -354 437 -422 55 -38 122 -85 149 -104 130 -91 283 -59 428 91
94 98 129 330 74 494 -41 122 -248 293 -411 341 -63 18 -159 57 -225 91 -131
66 -182 81 -365 103 -71 9 -168 22 -214 30 -116 21 -178 19 -228 -6z"/>
<path d="M8675 6093 c-22 -2 -143 -22 -270 -43 -126 -22 -302 -47 -390 -55
-180 -19 -352 -47 -596 -98 -230 -49 -386 -73 -579 -92 -217 -20 -349 -40
-550 -80 -91 -18 -242 -43 -335 -55 -94 -11 -249 -32 -345 -45 -96 -13 -238
-29 -315 -35 -77 -6 -237 -27 -355 -46 -376 -61 -929 -124 -1355 -154 -159
-11 -369 -29 -465 -40 -96 -11 -231 -24 -300 -30 -190 -15 -240 -38 -240 -112
0 -209 438 -354 800 -265 80 19 210 47 290 61 80 14 219 47 310 74 218 65 311
86 519 117 96 14 209 35 250 46 283 80 471 -119 471 -497 0 -151 -77 -218
-275 -239 -33 -4 -127 -18 -210 -31 -592 -93 -777 -94 -998 -8 -270 105 -424
-61 -259 -277 89 -117 101 -141 132 -265 16 -67 48 -172 70 -234 22 -62 51
-168 65 -234 23 -119 30 -166 60 -456 19 -181 43 -278 110 -450 28 -74 60
-164 69 -200 82 -301 287 -413 427 -233 73 94 70 93 464 123 77 5 255 28 395
50 256 40 330 47 730 75 620 43 687 37 798 -71 229 -222 470 -90 613 335 22
63 56 144 78 180 65 110 80 145 111 263 17 62 47 142 66 178 78 147 97 195
139 364 32 132 53 194 81 244 21 37 64 116 96 176 41 80 75 128 122 175 155
159 141 312 -36 402 -32 16 -99 56 -149 89 -88 58 -130 75 -312 125 -31 9 -92
34 -135 57 -223 118 -366 118 -632 0 -92 -41 -149 -58 -285 -86 -93 -19 -226
-53 -295 -76 -201 -67 -334 -66 -372 3 -6 12 -15 74 -18 137 -9 154 -30 199
-145 307 -144 135 -95 223 124 223 97 0 376 26 706 65 904 107 1492 145 2250
145 437 0 441 0 485 23 162 82 105 310 -92 368 -40 11 -125 36 -188 55 -114
34 -221 55 -270 52 -14 -1 -43 -3 -65 -5z m-1742 -1693 c152 -46 188 -211 123
-575 -14 -77 -33 -198 -41 -270 -41 -341 -88 -533 -167 -687 -74 -144 -123
-166 -277 -124 -141 38 -276 28 -491 -35 -217 -64 -286 -10 -297 230 -16 338
72 414 529 456 273 25 336 60 326 179 -14 168 -164 225 -553 211 -217 -8 -240
-1 -279 79 -51 104 -14 360 61 428 88 79 892 161 1066 108z m-1747 -235 c83
-41 98 -79 103 -249 6 -277 -14 -294 -424 -351 -208 -29 -283 -105 -226 -231
38 -84 89 -101 331 -114 341 -17 380 -52 380 -335 0 -239 -41 -272 -365 -295
-82 -6 -205 -18 -272 -26 -261 -30 -312 6 -334 237 -18 191 -60 483 -84 584
-132 566 -120 610 190 696 369 102 607 131 701 84z"/>
<path d="M308 5948 c-92 -25 -124 -126 -74 -233 33 -72 592 -644 701 -718 33
-22 87 -63 120 -90 166 -138 402 -132 509 12 132 180 151 280 86 443 -61 153
-94 192 -215 253 -55 28 -124 65 -154 83 -76 47 -130 67 -314 112 -89 23 -243
63 -342 90 -200 54 -262 64 -317 48z"/>
<path d="M2231 4430 c-16 -17 -47 -58 -67 -93 -21 -34 -59 -93 -84 -132 -26
-38 -70 -118 -97 -177 -28 -58 -65 -127 -83 -153 -18 -26 -57 -98 -86 -161
-30 -63 -83 -157 -119 -209 -36 -53 -78 -124 -94 -158 -15 -34 -58 -102 -96
-152 -37 -49 -84 -124 -105 -165 -21 -41 -62 -107 -92 -145 -30 -39 -74 -104
-98 -145 -56 -97 -220 -258 -352 -347 -260 -173 -294 -317 -150 -629 33 -71
70 -165 83 -209 33 -118 53 -159 120 -254 33 -47 81 -122 107 -166 95 -161
262 -267 350 -221 135 70 181 189 227 592 32 282 45 346 111 526 29 81 61 187
70 235 52 282 67 343 115 466 66 170 74 196 110 379 20 104 41 179 65 233 75
168 92 214 124 339 39 158 85 287 150 426 55 117 69 189 50 259 -24 91 -99
120 -159 61z"/>
<path d="M4503 1916 c-36 -16 -51 -44 -104 -184 -20 -54 -51 -111 -89 -160
-32 -42 -80 -116 -108 -163 -79 -134 -548 -633 -707 -753 -178 -134 -258 -189
-336 -231 -103 -57 -141 -95 -137 -137 11 -107 230 -104 455 6 60 29 164 75
232 101 91 36 145 64 204 108 44 32 118 77 164 99 47 23 111 62 142 88 31 26
97 73 146 105 50 31 117 81 150 109 33 29 89 74 125 101 36 27 92 74 125 105
33 31 88 75 123 99 275 186 334 259 300 375 -48 166 -533 400 -685 332z"/>
<path d="M6494 1806 c-68 -68 -44 -123 139 -313 73 -76 153 -165 179 -198 25
-33 63 -76 83 -95 20 -19 60 -64 88 -100 28 -36 78 -96 112 -135 34 -38 84
-104 113 -145 28 -42 72 -100 98 -130 25 -30 69 -88 97 -130 223 -329 471
-453 674 -334 176 103 194 554 30 755 -29 35 -74 91 -99 125 -26 33 -84 89
-130 124 -46 35 -103 79 -127 98 -25 18 -83 53 -130 77 -47 24 -115 66 -150
94 -71 58 -129 90 -211 116 -30 9 -109 46 -175 80 -132 70 -172 83 -354 120
-170 34 -195 33 -237 -9z"/>
</g>
</svg>
