<svg xmlns="http://www.w3.org/2000/svg" viewBox="0 0 976.920589 1020.489549">
<g transform="translate(-22.876364,1019.833011) scale(0.100000,-0.100000)" fill="#000000" stroke="none">
<path d="M5908 10184 c-130 -40 -144 -143 -58 -404 77 -232 104 -496 81 -780
-41 -484 -102 -523 -937 -600 -120 -11 -269 -30 -329 -41 -261 -49 -283 -11
-296 506 -14 578 -20 606 -172 752 -155 149 -233 175 -517 177 -211 1 -256 -9
-309 -69 -65 -75 -56 -124 80 -406 104 -215 125 -279 164 -499 9 -52 37 -158
62 -234 68 -211 60 -276 -40 -321 -85 -38 -97 -39 -982 -90 -387 -22 -435 -37
-435 -129 0 -102 98 -193 248 -231 182 -47 744 -22 1057 46 157 34 226 17 291
-70 68 -93 150 -352 184 -585 27 -186 47 -251 107 -348 26 -43 63 -102 80
-131 63 -105 132 -111 232 -22 100 89 100 89 436 120 281 25 470 35 895 45
584 14 590 18 474 290 -61 140 -62 169 -25 380 60 338 156 545 284 612 49 26
344 35 1197 37 245 1 471 5 502 11 248 40 215 243 -67 409 -49 29 -116 71
-148 93 -178 121 -729 117 -1073 -7 -220 -80 -316 -21 -284 174 16 101 32 142
90 232 59 91 62 100 101 242 16 59 50 148 75 198 70 141 64 196 -37 332 -36
48 -131 127 -154 127 -4 0 -71 31 -148 70 -156 76 -210 92 -397 115 -149 18
-171 18 -232 -1z m-272 -2140 c92 -46 105 -141 40 -303 -20 -51 -48 -147 -61
-211 -53 -270 -94 -295 -525 -330 -74 -6 -213 -20 -308 -31 -342 -42 -369 -12
-379 418 -9 387 0 399 307 422 251 19 532 42 625 51 134 13 255 6 301 -16z"/>
<path d="M8610 6694 c-19 -3 -123 -18 -230 -34 -209 -31 -297 -41 -570 -65
-247 -22 -373 -40 -630 -90 -356 -70 -464 -85 -785 -110 -277 -21 -444 -40
-700 -80 -488 -75 -644 -93 -1020 -115 -385 -23 -836 -70 -1431 -150 -186 -25
-365 -37 -854 -55 -575 -22 -990 -50 -1425 -96 -104 -12 -287 -24 -405 -28
-239 -7 -274 -16 -312 -75 -49 -79 -4 -155 131 -218 46 -21 107 -54 137 -73
290 -185 618 -240 969 -162 88 20 230 45 315 57 203 26 281 43 485 100 215 61
340 84 590 110 218 22 310 36 545 80 270 50 800 114 858 104 154 -27 275 -191
336 -455 72 -311 57 -326 -370 -379 -132 -17 -347 -46 -479 -65 -687 -98 -668
-98 -855 -7 -330 160 -672 117 -588 -75 22 -50 100 -176 164 -263 81 -113 79
-108 123 -283 21 -83 58 -197 81 -252 79 -185 85 -209 120 -472 13 -97 47
-259 94 -450 41 -164 84 -350 95 -413 27 -149 42 -199 91 -290 22 -41 64 -123
94 -181 110 -213 261 -243 385 -76 69 94 109 113 276 128 123 11 306 35 595
79 274 42 423 58 590 65 80 3 271 15 425 25 365 24 791 34 836 18 48 -16 80
-43 139 -117 91 -115 162 -147 305 -139 136 9 187 44 293 201 116 170 132 200
158 287 38 128 51 162 91 226 67 109 92 159 126 255 21 60 56 129 94 186 35
52 74 128 92 177 37 102 66 160 124 242 24 34 63 106 86 160 22 55 62 126 87
159 42 54 73 113 145 274 13 30 45 84 72 120 152 210 132 426 -51 527 -37 20
-101 60 -142 89 -85 58 -119 74 -240 105 -49 12 -144 51 -225 91 -313 154
-607 159 -980 17 -172 -66 -240 -83 -485 -118 -121 -18 -247 -43 -308 -61
-200 -60 -250 -17 -263 231 -4 81 -17 185 -28 237 -40 175 -21 231 82 252 124
26 2152 16 3057 -14 974 -33 1026 -34 1145 -25 235 18 318 76 332 230 11 117
-107 264 -288 359 -46 25 -124 72 -174 106 -66 45 -111 67 -170 84 -44 12
-134 41 -200 64 -119 41 -386 60 -555 41z m-1926 -1905 c288 -58 354 -326 201
-809 -46 -146 -59 -204 -85 -370 -26 -174 -43 -240 -96 -377 -24 -62 -55 -161
-69 -220 -56 -235 -103 -258 -355 -168 -85 31 -114 30 -333 -5 -178 -29 -482
-64 -559 -64 -149 -2 -186 78 -169 366 20 352 103 414 602 453 411 31 478 60
467 201 -14 170 -126 215 -548 220 -447 6 -470 24 -435 322 23 200 60 289 143
345 65 44 56 42 552 92 254 25 591 32 684 14z m-2049 -204 c99 -50 110 -82
110 -320 0 -356 -108 -426 -700 -454 -239 -11 -309 -47 -290 -148 24 -130 215
-208 545 -223 452 -21 467 -34 457 -392 -9 -369 -31 -386 -532 -422 -121 -9
-276 -21 -344 -27 -262 -22 -322 21 -356 255 -9 55 -24 134 -35 174 -38 137
-59 247 -80 412 -36 283 -80 481 -151 675 -68 187 -34 328 90 377 51 20 375
68 593 87 123 12 268 25 323 30 190 17 301 10 370 -24z"/>
<path d="M3739 1955 c-62 -20 -103 -68 -119 -136 -24 -110 -51 -175 -96 -234
-25 -33 -76 -103 -114 -155 -106 -147 -445 -473 -643 -617 -40 -29 -106 -82
-148 -118 -107 -92 -312 -238 -424 -300 -27 -16 -81 -61 -120 -101 -50 -53
-91 -84 -144 -111 -83 -43 -129 -91 -138 -146 -9 -55 331 -59 341 -4 15 78 51
99 278 162 200 56 221 64 328 126 47 27 123 62 170 77 104 36 135 51 223 113
38 26 101 60 140 75 102 38 143 60 217 115 36 26 108 68 160 92 60 28 121 67
165 104 39 33 102 78 140 100 39 23 108 72 155 110 47 37 123 88 169 112 238
124 371 235 371 309 0 236 -613 523 -911 427z"/>
<path d="M6065 1940 c-215 -48 -54 -321 430 -727 28 -23 111 -108 185 -189 74
-81 173 -189 220 -239 47 -51 137 -150 200 -221 144 -162 256 -269 368 -354
88 -67 128 -113 138 -159 3 -14 7 -32 10 -38 2 -10 50 -13 193 -13 189 0 189
0 196 43 9 51 35 105 85 172 66 89 73 109 78 235 8 211 -8 264 -133 455 -94
143 -136 190 -253 277 -53 39 -122 93 -152 119 -60 50 -94 70 -213 119 -43 18
-106 51 -140 75 -82 55 -110 70 -215 106 -48 17 -132 55 -187 84 -122 65 -190
88 -359 120 -111 21 -148 33 -241 79 -113 56 -158 68 -210 56z"/>
</g>
</svg>
