<svg xmlns="http://www.w3.org/2000/svg" viewBox="0 0 703.348309 900.000000">
<g transform="translate(-18.453278,900.000000) scale(0.100000,-0.100000)" fill="#000000" stroke="none">
<path d="M4230 8902 c0 -131 13 -192 65 -314 63 -147 69 -198 70 -593 0 -703
-24 -732 -661 -795 -177 -17 -352 -40 -423 -56 -184 -39 -246 -23 -296 80 -30
62 -29 49 -46 499 -15 411 -33 507 -120 654 -111 184 -225 234 -539 237 -295
2 -353 -97 -204 -349 68 -115 85 -164 128 -382 19 -98 61 -261 92 -363 127
-414 110 -491 -113 -505 -37 -3 -144 -10 -238 -16 -93 -5 -244 -17 -335 -25
-91 -8 -230 -19 -309 -24 -162 -11 -210 -22 -243 -57 -67 -71 32 -221 178
-269 136 -44 587 -18 887 53 283 66 373 -4 438 -341 72 -365 19 -456 -276
-476 -77 -5 -261 -18 -410 -29 -250 -19 -877 -40 -1365 -46 -305 -3 -379 -50
-291 -186 140 -217 505 -308 951 -237 91 14 197 29 235 33 176 16 357 39 555
70 540 85 859 111 928 76 176 -91 365 -539 276 -657 -51 -69 -42 -67 -424 -99
-169 -15 -293 -30 -683 -85 -193 -28 -269 -26 -354 6 -193 73 -231 84 -337 93
-287 25 -377 -62 -241 -232 128 -162 237 -409 281 -642 14 -77 47 -207 74
-290 71 -221 108 -414 125 -650 10 -127 38 -269 76 -372 17 -48 58 -167 90
-262 119 -353 258 -446 429 -286 100 94 105 96 325 111 267 19 435 39 631 73
343 60 647 90 1165 112 345 15 361 11 487 -130 125 -138 209 -155 357 -70 151
86 192 136 240 294 31 101 48 139 110 240 24 39 62 123 84 188 29 84 58 145
102 212 42 66 73 129 100 207 28 80 55 136 98 199 35 52 74 128 96 186 23 59
64 137 103 195 47 71 76 129 107 217 24 67 66 157 94 203 112 184 122 347 27
442 -123 121 -285 221 -427 261 -53 15 -127 45 -165 66 -208 118 -268 133
-499 126 -183 -6 -232 -16 -449 -96 -170 -64 -203 -71 -494 -116 -391 -59
-421 -46 -441 197 -7 85 -16 129 -37 178 -88 211 -31 250 380 262 160 4 436
14 615 23 384 18 1099 20 1466 4 422 -19 689 -17 757 4 179 55 248 246 121
334 -327 226 -699 288 -1383 229 -96 -8 -242 -20 -325 -26 -242 -18 -455 -48
-551 -76 -192 -58 -273 -22 -295 130 -35 250 106 604 275 691 67 34 251 42
1063 44 450 1 528 14 568 91 90 175 -359 459 -727 460 -120 0 -296 -30 -470
-80 -354 -102 -424 60 -213 495 118 244 162 494 115 647 -29 96 -76 143 -209
213 -118 61 -177 114 -188 165 -5 30 -5 30 -294 30 -289 0 -289 0 -289 -98z
m-140 -2044 c95 -48 104 -103 83 -475 -22 -372 -22 -372 -628 -403 -110 -5
-239 -17 -287 -25 -231 -41 -258 1 -270 413 -13 443 -45 414 512 467 151 14
311 29 355 34 146 15 187 13 235 -11z m956 -2251 c110 -36 159 -98 188 -239
39 -188 -33 -736 -133 -1018 -55 -152 -77 -243 -102 -403 -43 -285 -82 -316
-313 -244 -149 46 -241 39 -596 -48 -265 -64 -407 7 -385 192 3 27 7 122 8
213 4 261 43 316 245 347 589 89 665 115 687 237 28 144 -284 257 -583 211
-227 -35 -283 21 -282 284 1 417 25 449 354 463 111 5 264 13 341 17 218 14
510 7 571 -12z m-1907 -150 c138 -92 165 -544 39 -664 -68 -66 -270 -117 -521
-133 -157 -10 -215 -30 -248 -84 -88 -144 110 -236 521 -240 283 -4 316 -40
330 -366 17 -401 -16 -432 -520 -475 -102 -9 -216 -23 -253 -31 -235 -49 -278
-5 -317 327 -13 113 -39 252 -74 403 -64 274 -70 301 -96 518 -24 197 -40 280
-81 406 -60 190 8 254 297 282 145 13 513 56 649 75 143 20 225 14 274 -18z"/>
<path d="M2417 1800 c-95 -24 -168 -87 -187 -162 -43 -168 -52 -184 -158 -308
-165 -191 -426 -441 -582 -557 -52 -39 -104 -81 -115 -93 -33 -36 -277 -207
-367 -256 -99 -55 -125 -78 -178 -159 -26 -40 -60 -76 -96 -100 -56 -39 -104
-104 -104 -143 0 -21 4 -22 115 -22 115 0 115 0 115 30 0 86 32 106 253 159
184 45 254 70 366 135 42 24 115 58 163 75 107 37 133 50 228 116 42 28 116
68 165 89 50 20 126 63 170 95 44 32 115 77 158 101 43 23 109 69 148 101 38
32 105 79 148 104 42 26 104 69 136 96 64 56 101 77 201 114 114 43 167 96
180 181 16 108 -21 148 -309 336 -85 56 -344 95 -450 68z"/>
<path d="M4465 1771 c-106 -26 -129 -89 -75 -198 39 -77 180 -220 365 -368 87
-69 158 -139 233 -230 36 -44 141 -159 232 -255 91 -96 183 -195 203 -220 75
-89 256 -247 334 -293 103 -60 173 -137 173 -192 0 -12 16 -15 94 -15 94 0 94
0 111 49 17 52 52 106 118 181 84 96 113 290 64 428 -67 190 -297 452 -477
546 -41 21 -104 60 -140 86 -71 53 -114 74 -236 120 -44 17 -123 57 -174 90
-100 64 -124 73 -320 120 -89 21 -159 46 -240 85 -144 69 -197 82 -265 66z"/>
</g>
</svg>
