<svg xmlns="http://www.w3.org/2000/svg" viewBox="0 0 897.033989 880.810455">
<g transform="translate(-22.966011,880.000000) scale(0.100000,-0.100000)" fill="#000000" stroke="none">
<path d="M5990 8664 c-13 -146 -12 -172 25 -369 14 -71 34 -202 45 -290 49
-394 56 -388 -625 -562 -94 -25 -239 -22 -297 4 -81 37 -90 69 -82 271 14 341
-31 438 -242 516 -49 18 -112 45 -139 59 -208 109 -357 12 -310 -203 9 -41 29
-138 46 -215 16 -77 41 -180 56 -230 99 -327 -4 -394 -683 -439 -211 -15 -247
-23 -278 -68 -39 -56 -8 -114 106 -199 186 -139 299 -149 573 -53 366 129 400
106 430 -295 23 -303 37 -380 85 -476 128 -254 205 -303 350 -222 135 75 146
78 341 113 107 18 280 52 384 74 105 23 241 52 304 65 62 13 184 29 270 35
363 24 426 82 261 241 -122 118 -128 143 -75 307 19 59 44 165 55 237 48 299
39 296 886 320 620 18 663 26 724 145 147 288 -516 520 -1095 383 -287 -68
-381 28 -271 277 104 235 -11 408 -348 526 -87 30 -151 82 -162 131 -3 16 -7
34 -10 41 -2 9 -43 12 -157 12 -154 0 -154 0 -167 -136z m-95 -1475 c84 -23
124 -98 111 -207 -4 -31 -11 -138 -15 -237 -12 -282 -37 -310 -306 -354 -71
-12 -170 -33 -220 -46 -221 -61 -339 -6 -373 175 -89 472 -29 545 543 649 183
33 205 35 260 20z"/>
<path d="M2857 8565 c-111 -39 -132 -93 -133 -340 -1 -200 -1 -200 -38 -305
-38 -105 -61 -189 -110 -395 -19 -82 -42 -143 -90 -240 -35 -71 -74 -161 -86
-200 -28 -86 -47 -124 -110 -220 -27 -42 -63 -113 -81 -158 -42 -110 -64 -152
-111 -215 -22 -29 -53 -83 -70 -120 -16 -37 -42 -94 -56 -126 -15 -33 -44 -82
-65 -109 -22 -27 -66 -92 -99 -145 -33 -54 -81 -122 -107 -152 -26 -30 -71
-89 -99 -131 -28 -43 -74 -103 -102 -135 -28 -32 -68 -86 -87 -119 -20 -33
-63 -93 -95 -133 -33 -40 -83 -110 -112 -155 -29 -45 -78 -111 -108 -147 -30
-36 -75 -94 -100 -130 -59 -83 -142 -173 -453 -496 -295 -305 -354 -398 -295
-469 38 -46 238 46 398 184 31 26 92 71 134 100 43 28 106 77 140 109 35 32
84 74 109 93 67 50 254 222 589 542 148 140 170 165 310 343 109 140 163 163
225 101 56 -56 55 -52 51 -843 -5 -935 -16 -1107 -96 -1584 -34 -201 -92 -597
-115 -780 -21 -167 -39 -254 -81 -391 -66 -216 -88 -629 -42 -784 141 -464
155 -501 239 -619 152 -213 266 -201 387 40 95 188 108 368 122 1649 6 523 15
1155 20 1405 5 250 10 584 10 741 0 377 11 501 62 719 58 244 59 354 7 456
-66 129 -158 270 -223 343 -116 129 -115 211 3 346 29 33 73 100 99 149 25 49
69 119 99 155 29 36 75 109 102 163 28 53 73 126 101 163 28 37 69 104 92 149
22 44 67 121 99 170 33 48 76 125 97 170 41 87 242 391 321 486 110 132 139
279 79 400 -41 83 -224 264 -318 315 -41 22 -103 61 -138 88 -98 71 -191 93
-275 62z"/>
<path d="M8170 6083 c-19 -2 -102 -17 -185 -33 -82 -16 -212 -39 -288 -50
-174 -25 -281 -49 -432 -95 -231 -72 -292 -86 -480 -110 -233 -31 -266 -37
-474 -85 -204 -48 -336 -70 -651 -110 -135 -17 -326 -49 -425 -70 -344 -73
-570 -105 -1050 -145 -424 -35 -872 -98 -939 -132 -150 -75 -121 -198 64 -271
42 -17 119 -48 171 -71 165 -70 271 -67 527 18 88 29 207 59 297 75 83 15 278
59 434 98 500 124 606 84 656 -252 54 -355 19 -395 -383 -435 -221 -23 -318
-35 -582 -75 -81 -13 -92 -11 -295 45 -228 64 -405 22 -405 -94 0 -37 60 -153
169 -324 69 -109 99 -228 151 -602 15 -108 45 -260 86 -439 19 -81 46 -223 60
-315 40 -270 162 -543 266 -597 67 -35 166 -10 273 68 117 86 157 98 371 109
102 5 296 22 432 39 408 49 556 63 953 90 246 17 348 -5 489 -105 178 -125
335 -93 430 87 18 35 58 106 90 158 60 99 72 128 114 270 14 47 44 117 67 155
68 116 76 137 119 290 26 95 61 192 101 277 44 95 67 159 85 241 37 174 50
209 107 288 227 318 204 508 -76 624 -59 24 -134 63 -168 86 -219 149 -496
207 -720 150 -68 -17 -169 -40 -224 -52 -55 -11 -178 -47 -273 -80 -483 -163
-601 -143 -608 100 -3 114 2 98 -102 294 -83 155 -50 195 191 227 78 10 192
26 252 34 185 26 295 35 705 61 217 13 503 34 635 46 194 18 331 23 710 26
470 3 470 3 574 34 58 17 129 33 158 36 53 6 53 6 53 108 0 109 -3 115 -53
115 -35 0 -137 53 -192 99 -62 53 -124 84 -195 101 -30 7 -118 31 -195 52
-140 40 -291 55 -395 41z m-1089 -1730 c110 -49 160 -193 139 -400 -5 -54 -17
-176 -25 -272 -21 -245 -36 -330 -116 -641 -106 -412 -131 -439 -336 -371
-124 42 -231 36 -460 -25 -245 -64 -311 -7 -315 273 -4 276 17 298 372 372
286 61 320 69 377 97 287 138 -96 407 -457 320 -208 -50 -292 30 -294 279 -2
214 46 252 409 324 374 74 605 89 706 44z m-1760 -224 c72 -25 100 -67 123
-188 56 -295 -9 -380 -338 -446 -207 -41 -276 -87 -276 -185 0 -95 56 -121
285 -130 296 -13 345 -42 381 -228 59 -302 -9 -381 -365 -423 -415 -49 -475
21 -516 606 -18 246 -45 536 -56 584 -44 205 7 259 316 330 99 23 216 53 260
66 90 27 136 30 186 14z"/>
<path d="M4915 1851 c-83 -20 -198 -163 -294 -362 -27 -57 -64 -123 -83 -146
-18 -22 -66 -83 -106 -135 -224 -284 -570 -625 -778 -766 -130 -88 -174 -144
-174 -221 0 -97 357 -32 553 101 33 22 102 60 155 85 53 24 126 68 162 97 36
30 98 71 138 92 41 22 108 68 150 103 43 35 103 81 134 102 31 21 83 63 115
92 32 29 92 80 133 112 41 32 100 82 130 110 30 28 89 74 130 102 132 90 230
203 230 266 0 142 -430 407 -595 368z"/>
<path d="M6675 1788 c-103 -57 -94 -155 24 -257 31 -27 77 -78 102 -112 24
-34 71 -94 105 -133 33 -39 80 -98 104 -131 24 -33 64 -82 90 -110 25 -27 66
-77 90 -110 25 -33 69 -87 99 -120 30 -33 79 -93 109 -134 31 -41 76 -98 102
-126 26 -28 71 -85 102 -126 54 -72 95 -114 250 -251 54 -48 85 -84 103 -123
33 -67 165 -87 180 -27 12 50 56 126 111 195 89 109 98 138 99 302 0 160 1
156 -92 323 -106 192 -164 258 -313 359 -41 28 -99 72 -129 97 -30 24 -90 64
-134 87 -43 24 -111 67 -151 97 -92 69 -120 83 -246 122 -58 18 -153 57 -212
86 -187 94 -330 127 -393 92z"/>
<path d="M3331 83 c-62 -58 -54 -83 28 -83 71 0 71 0 71 36 0 76 -45 97 -99
47z"/>
</g>
</svg>
