<svg xmlns="http://www.w3.org/2000/svg" viewBox="0 0 957.257435 835.517821">
<g transform="translate(-22.631908,840.000000) scale(0.100000,-0.100000)" fill="#000000" stroke="none">
<path d="M5262 8303 c-23 -182 -17 -212 58 -323 56 -82 67 -119 95 -305 79
-524 125 -1025 125 -1350 0 -268 -53 -303 -495 -325 -272 -13 -637 -44 -855
-71 -91 -11 -226 -26 -301 -33 -219 -22 -316 -109 -242 -216 110 -160 935
-254 1443 -164 378 67 446 -5 410 -434 -5 -65 -14 -182 -20 -262 -5 -80 -21
-214 -35 -298 -14 -84 -34 -233 -45 -330 -25 -217 -36 -279 -106 -580 -30
-130 -66 -307 -80 -392 -30 -188 -42 -226 -110 -357 -29 -56 -62 -135 -74
-175 -58 -202 -72 -238 -120 -312 -28 -43 -75 -126 -104 -184 -30 -59 -77
-136 -106 -172 -29 -36 -69 -96 -91 -135 -57 -104 -164 -242 -329 -425 -47
-52 -103 -116 -125 -142 -21 -26 -68 -71 -104 -100 -36 -29 -99 -84 -141 -122
-41 -37 -106 -90 -145 -116 -38 -26 -92 -67 -120 -92 -73 -65 -323 -232 -411
-275 -110 -54 -150 -110 -124 -173 48 -116 336 -77 612 83 23 14 78 40 121 57
117 46 155 67 229 127 37 30 107 74 156 98 49 24 123 70 163 103 41 32 92 69
114 82 91 55 396 367 505 515 24 33 65 85 91 115 51 60 64 83 114 202 19 44
58 115 87 156 29 42 71 123 94 180 24 57 67 145 98 195 45 75 61 114 85 209
56 218 142 256 237 102 17 -27 56 -90 88 -141 31 -51 77 -132 100 -180 24 -48
69 -119 100 -157 30 -38 78 -113 106 -165 27 -53 70 -120 94 -150 24 -29 67
-92 95 -140 28 -47 75 -114 104 -148 29 -34 74 -98 101 -143 27 -45 71 -109
98 -142 28 -33 73 -94 101 -136 28 -42 78 -109 111 -148 34 -39 82 -100 109
-135 26 -35 75 -99 110 -141 34 -43 88 -113 120 -155 234 -314 290 -356 517
-386 181 -23 1676 -14 1830 12 69 11 141 22 160 23 35 3 35 3 38 74 3 71 3 71
-53 78 -64 7 -171 46 -305 109 -52 25 -142 59 -200 77 -58 17 -134 40 -170 51
-37 12 -103 45 -155 79 -49 32 -130 76 -180 96 -49 21 -133 67 -185 103 -52
35 -136 81 -187 102 -51 21 -129 63 -174 95 -44 31 -116 71 -158 89 -110 46
-148 67 -216 119 -33 25 -91 62 -129 83 -38 21 -101 65 -140 97 -39 33 -111
87 -160 119 -49 33 -110 78 -135 101 -25 23 -75 64 -111 91 -36 27 -97 78
-136 114 -39 36 -95 87 -125 112 -30 25 -149 145 -264 266 -419 440 -543 578
-635 711 -34 48 -79 110 -101 137 -78 100 -91 251 -35 435 60 197 124 603 146
925 6 88 20 284 31 435 11 151 24 327 28 390 22 316 145 383 866 475 273 35
282 37 605 116 342 84 376 93 418 119 114 70 92 271 -38 337 -71 36 -380 106
-475 107 -100 1 -514 -100 -670 -164 -468 -191 -677 -138 -630 158 11 66 18
229 25 507 11 504 25 594 119 759 101 178 1 368 -251 472 -106 44 -160 88
-184 149 -17 45 -17 45 -288 45 -272 0 -272 0 -284 -97z"/>
<path d="M2805 8076 c-108 -51 -148 -163 -109 -310 26 -98 21 -183 -21 -326
-37 -128 -60 -230 -90 -405 -15 -86 -27 -117 -82 -223 -35 -68 -80 -172 -100
-230 -41 -123 -48 -139 -114 -248 -27 -44 -69 -130 -92 -190 -24 -61 -67 -144
-96 -188 -30 -43 -71 -121 -92 -172 -40 -100 -55 -124 -123 -204 -23 -27 -60
-82 -82 -122 -21 -39 -67 -107 -100 -149 -34 -43 -80 -111 -102 -151 -22 -40
-66 -102 -97 -138 -31 -36 -77 -96 -102 -134 -24 -38 -66 -92 -92 -120 -27
-28 -69 -85 -94 -126 -25 -41 -68 -100 -94 -130 -27 -30 -71 -84 -98 -120 -59
-78 -147 -171 -487 -517 -330 -336 -345 -358 -283 -431 48 -58 122 -50 208 23
28 25 91 72 140 105 48 34 118 87 155 118 37 32 101 84 142 117 234 184 821
742 940 892 78 99 212 189 262 175 62 -16 75 -85 89 -502 23 -669 -4 -1094
-96 -1510 -57 -252 -69 -327 -100 -610 -14 -129 -43 -323 -65 -430 -111 -549
-104 -788 32 -1174 72 -205 85 -232 152 -316 29 -36 85 -113 124 -172 80 -120
98 -131 145 -95 285 218 383 604 348 1367 -6 140 -16 363 -21 495 -6 132 -17
384 -25 560 -9 200 -16 608 -17 1090 -3 770 -3 770 50 969 115 430 103 485
-169 790 -119 134 -120 169 -5 318 26 34 58 83 71 108 13 26 49 80 80 121 31
41 78 117 105 169 27 52 74 129 106 170 31 41 72 108 90 148 19 40 62 114 96
165 35 50 73 115 85 142 12 28 32 75 46 105 13 30 46 84 74 120 27 36 73 99
101 141 28 43 74 103 103 135 122 140 134 297 32 447 -198 292 -574 526 -728
453z"/>
<path d="M7265 5384 c-5 -1 -27 -5 -48 -9 -88 -14 -122 -68 -152 -239 -63
-353 -87 -436 -157 -543 -28 -42 -71 -119 -96 -170 -26 -54 -72 -125 -111
-172 -36 -43 -102 -123 -146 -177 -44 -55 -132 -151 -196 -214 -120 -120 -143
-150 -154 -212 -27 -146 171 -118 390 55 389 307 370 303 590 137 61 -46 137
-109 170 -140 33 -31 87 -76 120 -100 33 -24 87 -70 120 -101 52 -50 190 -136
336 -211 121 -62 225 -13 304 144 107 215 -86 493 -405 583 -52 15 -147 51
-210 80 -63 29 -154 65 -201 79 -110 33 -149 66 -149 124 0 46 5 53 163 233
87 100 183 228 272 366 66 103 38 198 -85 291 -41 31 -99 79 -129 106 -71 63
-173 105 -226 90z"/>
<path d="M4095 5166 c-67 -30 -94 -91 -95 -216 -1 -187 -37 -339 -114 -475
-24 -44 -61 -120 -80 -170 -20 -49 -54 -112 -76 -140 -21 -27 -65 -90 -96
-140 -31 -49 -73 -110 -94 -135 -20 -25 -60 -76 -89 -115 -65 -87 -205 -249
-291 -335 -111 -112 -122 -140 -71 -191 49 -48 96 -37 235 55 45 29 115 74
156 99 82 49 188 140 371 313 150 143 213 174 285 142 28 -13 210 -249 264
-342 78 -137 257 -244 339 -202 243 126 176 538 -111 686 -276 143 -314 266
-135 436 118 112 204 263 193 340 -15 109 -57 158 -246 281 -190 125 -259 147
-345 109z"/>
</g>
</svg>
