<svg xmlns="http://www.w3.org/2000/svg" viewBox="0 0 909.532330 821.075471">
<g transform="translate(-26.000000,821.075471) scale(0.100000,-0.100000)" fill="#000000" stroke="none">
<path d="M2769 8197 c-121 -34 -143 -78 -145 -292 -1 -228 -31 -360 -124 -545
-26 -52 -64 -142 -85 -200 -42 -116 -47 -127 -120 -220 -27 -36 -70 -103 -94
-147 -24 -45 -66 -108 -93 -140 -27 -32 -68 -85 -90 -118 -23 -33 -77 -98
-121 -145 -420 -446 -691 -705 -816 -779 -160 -95 -147 -211 23 -211 81 0 130
18 238 86 47 30 131 75 185 101 54 25 141 76 193 113 52 37 127 84 167 104 43
21 109 68 165 118 51 46 156 133 234 195 104 83 164 140 234 224 52 62 124
144 158 183 35 39 85 98 110 131 25 33 77 95 114 138 37 43 82 106 99 140 17
34 57 98 88 142 32 44 75 114 97 155 29 56 63 99 134 170 227 228 209 364 -83
618 -197 172 -323 220 -468 179z"/>
<path d="M5615 8204 c-191 -30 -234 -147 -111 -298 65 -79 96 -192 140 -516 9
-63 27 -198 41 -299 67 -487 66 -838 -2 -929 -80 -106 -368 -152 -1203 -188
-213 -10 -271 -49 -218 -151 84 -165 254 -199 928 -190 611 8 569 70 520 -748
-6 -93 -19 -215 -30 -270 -32 -160 -58 -353 -80 -595 -29 -303 -51 -428 -109
-600 -61 -180 -68 -205 -92 -349 -25 -147 -39 -190 -109 -331 -32 -63 -72
-164 -89 -223 -36 -126 -48 -152 -104 -227 -23 -30 -65 -102 -93 -160 -29 -59
-74 -135 -101 -171 -27 -35 -69 -102 -94 -148 -43 -81 -100 -152 -312 -391
-206 -231 -569 -540 -732 -622 -22 -12 -85 -50 -140 -85 -55 -36 -124 -79
-154 -96 -202 -118 -56 -286 179 -207 32 11 130 55 217 97 87 43 190 92 228
110 39 18 103 59 144 91 40 33 111 80 156 106 46 25 107 65 136 88 30 24 88
63 131 88 104 63 422 373 533 520 27 36 73 91 102 122 37 40 68 88 99 154 25
52 72 135 105 183 34 51 72 123 89 171 38 103 52 130 107 208 63 89 89 151
117 285 27 127 48 174 87 196 86 48 239 -95 305 -284 18 -50 52 -116 93 -175
35 -52 81 -136 102 -188 21 -51 64 -130 96 -175 31 -45 77 -127 101 -182 24
-55 67 -131 95 -170 28 -38 73 -117 100 -175 27 -58 75 -141 107 -185 31 -44
76 -117 98 -161 23 -45 65 -113 94 -150 29 -38 80 -123 113 -189 82 -164 257
-302 432 -341 229 -51 1530 -35 1646 20 135 65 70 255 -105 306 -38 11 -98 29
-135 40 -38 10 -97 37 -133 60 -69 43 -145 81 -251 124 -36 15 -99 54 -140 86
-41 33 -114 81 -164 107 -49 25 -121 71 -160 101 -38 30 -109 74 -156 98 -48
23 -117 66 -154 95 -37 28 -102 72 -144 96 -42 25 -101 68 -131 97 -30 29 -84
77 -120 106 -169 138 -610 572 -695 684 -29 39 -67 85 -85 101 -18 17 -62 68
-98 115 -36 47 -84 105 -107 130 -22 25 -80 97 -128 160 -48 63 -104 136 -125
162 -20 26 -68 109 -106 184 -90 175 -93 204 -43 360 42 128 71 320 87 569 23
363 41 605 55 730 8 72 22 209 30 305 41 452 69 492 369 511 282 18 545 52
746 99 179 42 374 76 535 95 243 27 352 81 406 200 51 111 13 161 -178 242
-304 128 -388 132 -636 32 -56 -22 -166 -56 -246 -75 -81 -19 -213 -57 -296
-84 -348 -113 -457 -129 -544 -80 -90 50 -86 30 -89 468 -4 533 12 676 102
926 85 234 4 365 -321 518 -96 45 -387 80 -508 62z"/>
<path d="M2547 6009 c-88 -46 -93 -118 -19 -268 77 -156 66 -302 -37 -480 -28
-48 -64 -129 -80 -179 -37 -112 -62 -161 -116 -232 -24 -30 -66 -94 -94 -141
-28 -48 -71 -111 -96 -140 -26 -30 -67 -88 -92 -129 -26 -41 -74 -108 -107
-149 -33 -41 -79 -104 -103 -140 -70 -107 -156 -203 -598 -666 -110 -115 -229
-241 -265 -279 -86 -91 -350 -332 -420 -383 -31 -22 -74 -60 -96 -84 -160
-173 -164 -179 -164 -228 0 -75 80 -81 174 -12 37 27 109 66 159 87 51 21 135
67 187 103 52 35 136 88 186 116 50 29 122 77 160 107 38 30 97 70 132 88 35
19 94 61 132 95 37 34 98 81 134 106 77 53 211 167 348 296 145 137 212 163
268 103 48 -51 54 -101 53 -470 -1 -562 -23 -778 -106 -1070 -25 -85 -59 -236
-76 -335 -32 -185 -43 -229 -105 -398 -94 -255 -92 -529 4 -718 23 -45 57
-129 76 -186 37 -116 55 -150 121 -226 49 -56 93 -139 93 -174 0 -22 3 -23 90
-23 88 0 90 0 90 24 0 46 40 152 84 223 128 204 132 254 146 1798 12 1209 14
1249 56 1403 46 168 42 191 -65 410 -50 103 -91 200 -91 215 0 56 70 174 187
313 33 39 81 106 107 148 26 43 69 106 96 139 27 33 70 100 95 147 26 48 71
118 102 156 30 38 74 103 98 144 25 42 70 105 101 140 168 192 117 348 -179
543 -45 30 -107 75 -137 101 -131 113 -328 161 -433 105z"/>
<path d="M7409 5360 c-107 -19 -140 -75 -170 -285 -37 -273 -52 -320 -138
-455 -27 -41 -67 -111 -89 -156 -22 -44 -70 -115 -106 -157 -36 -42 -79 -98
-97 -124 -18 -27 -73 -91 -123 -144 -301 -317 -313 -336 -245 -393 58 -49 123
-34 228 54 25 21 84 61 131 88 47 28 117 78 155 112 161 144 272 147 419 12
33 -32 86 -75 116 -96 30 -22 84 -67 120 -101 36 -34 99 -84 140 -112 42 -28
103 -74 135 -102 190 -163 454 -123 495 75 36 174 -61 336 -265 441 -49 25
-117 63 -150 83 -84 51 -156 76 -260 89 -237 30 -300 95 -215 222 68 101 179
252 238 324 152 187 172 327 60 431 -154 144 -286 211 -379 194z"/>
<path d="M4413 5079 c-81 -40 -115 -115 -168 -370 -63 -304 -66 -310 -145
-419 -26 -36 -70 -110 -98 -165 -27 -55 -71 -127 -96 -160 -26 -33 -68 -89
-93 -125 -26 -36 -81 -101 -122 -145 -41 -44 -98 -117 -127 -161 -29 -45 -66
-97 -82 -115 -111 -128 -31 -212 110 -116 35 24 100 63 145 86 47 25 112 70
150 105 38 34 102 87 144 118 42 31 97 83 123 116 152 193 313 156 456 -103
176 -318 401 -370 512 -119 69 158 -71 413 -281 511 -211 98 -246 214 -110
368 263 297 276 353 116 509 -149 146 -344 230 -434 185z"/>
</g>
</svg>
