<svg xmlns="http://www.w3.org/2000/svg" viewBox="0 0 897.395612 832.773296">
<g transform="translate(-4.297593,840.000000) scale(0.100000,-0.100000)" fill="#000000" stroke="none">
<path d="M4450 8391 c0 -5 -5 -55 -10 -111 -15 -140 -4 -186 66 -286 79 -114
89 -156 159 -649 8 -55 23 -158 34 -230 28 -188 31 -220 41 -430 6 -104 13
-224 16 -266 11 -127 -36 -198 -154 -233 -62 -18 -140 -26 -577 -61 -548 -43
-562 -46 -615 -112 -137 -173 280 -331 930 -353 379 -12 421 -44 407 -303 -31
-539 -36 -588 -77 -797 -34 -173 -54 -317 -75 -543 -22 -228 -55 -410 -114
-612 -27 -93 -56 -208 -66 -255 -34 -172 -58 -248 -121 -383 -36 -77 -77 -185
-94 -248 -33 -120 -52 -164 -113 -253 -22 -33 -56 -96 -75 -140 -40 -93 -49
-108 -115 -195 -26 -35 -69 -105 -94 -155 -25 -50 -71 -122 -102 -161 -31 -38
-73 -92 -93 -120 -20 -27 -53 -66 -73 -85 -21 -19 -72 -78 -115 -130 -135
-163 -358 -380 -495 -480 -33 -24 -91 -72 -130 -105 -90 -79 -279 -202 -416
-270 -162 -82 -219 -161 -219 -306 0 -56 6 -58 58 -25 40 27 83 40 354 112
112 29 205 60 250 84 226 114 319 167 373 211 33 27 104 72 158 101 55 28 127
74 160 101 34 27 94 67 132 89 69 40 213 178 338 323 28 33 75 85 103 116 29
31 74 89 100 130 26 41 72 105 102 144 62 80 78 109 122 223 18 46 53 114 78
150 56 82 92 156 122 246 13 38 47 104 76 148 77 113 90 142 129 290 55 208
95 271 178 285 91 14 162 -70 213 -252 20 -74 44 -121 100 -205 24 -36 66
-117 92 -180 27 -63 75 -155 109 -205 33 -49 77 -130 97 -180 20 -49 64 -129
97 -177 32 -48 76 -126 96 -175 39 -94 66 -141 120 -212 19 -25 53 -86 77
-135 24 -50 72 -127 106 -171 34 -44 80 -116 102 -160 22 -44 64 -109 92 -145
29 -36 73 -96 99 -135 84 -128 249 -273 340 -300 272 -81 1267 -128 1692 -80
77 9 206 20 286 25 351 20 417 190 109 280 -41 12 -114 42 -162 66 -47 24
-141 59 -208 79 -137 40 -181 60 -255 116 -28 21 -100 61 -161 90 -60 28 -141
75 -180 104 -38 30 -117 76 -175 103 -57 27 -135 73 -174 102 -38 29 -115 74
-170 100 -55 26 -131 71 -170 99 -38 29 -105 73 -148 99 -43 26 -109 74 -146
107 -37 33 -106 90 -152 127 -215 172 -459 398 -620 575 -68 75 -156 170 -194
212 -39 42 -89 99 -110 126 -22 28 -67 79 -100 115 -34 36 -84 94 -111 130
-27 36 -74 93 -105 127 -31 34 -75 95 -99 135 -24 40 -71 101 -105 135 -153
153 -198 318 -136 496 27 78 47 218 66 472 9 116 18 219 21 230 2 11 13 110
24 220 11 110 26 263 34 340 8 77 22 230 31 340 37 453 66 491 384 515 175 13
382 44 546 80 200 44 393 78 580 100 297 36 373 78 406 225 26 116 -13 161
-233 271 -286 143 -471 151 -738 29 -136 -62 -198 -81 -359 -110 -79 -14 -190
-41 -247 -61 -121 -40 -157 -39 -209 7 -70 62 -70 63 -67 554 3 585 10 634
110 773 149 206 79 393 -204 540 -129 68 -184 119 -184 173 0 18 -15 19 -325
19 -184 0 -325 -4 -325 -9z"/>
<path d="M1253 7240 c-105 -63 -85 -167 59 -319 51 -53 127 -136 168 -185 174
-205 203 -236 316 -341 168 -157 294 -243 444 -305 97 -40 217 -2 315 101 249
261 99 696 -284 819 -53 18 -150 58 -216 91 -141 69 -191 83 -374 104 -75 8
-170 24 -211 35 -98 26 -175 26 -217 0z"/>
<path d="M6544 5387 c-85 -41 -117 -111 -129 -282 -16 -223 -42 -329 -109
-447 -25 -43 -56 -108 -71 -145 -60 -157 -78 -192 -125 -251 -28 -33 -77 -105
-111 -158 -33 -53 -81 -122 -108 -153 -26 -31 -70 -90 -96 -131 -26 -41 -81
-108 -123 -149 -156 -155 -200 -359 -72 -336 114 21 225 75 309 150 35 31 94
79 132 106 37 27 91 77 121 111 82 96 165 121 254 77 61 -29 353 -333 593
-617 289 -342 612 -295 614 88 1 189 -31 259 -185 399 -113 102 -140 120 -269
171 -42 17 -112 54 -156 83 -56 38 -104 60 -164 77 -251 70 -245 156 36 450
23 25 66 79 96 120 29 41 89 116 132 165 186 211 177 357 -31 497 -42 29 -102
72 -132 97 -122 99 -293 132 -406 78z"/>
<path d="M3492 5274 c-20 -11 -45 -37 -63 -68 -29 -51 -34 -70 -69 -249 -12
-63 -36 -137 -68 -210 -28 -61 -64 -159 -82 -217 -38 -125 -53 -156 -114 -237
-26 -34 -66 -103 -90 -155 -24 -51 -66 -123 -95 -160 -28 -37 -75 -107 -104
-156 -29 -48 -78 -117 -108 -153 -30 -35 -70 -87 -89 -114 -19 -28 -62 -82
-96 -121 -179 -205 -126 -346 90 -240 74 36 315 245 475 412 164 171 186 184
265 155 37 -15 189 -193 258 -304 34 -55 86 -130 117 -167 31 -37 75 -93 99
-124 167 -221 388 -50 370 286 -10 188 -183 371 -491 518 -189 91 -194 184
-20 381 36 41 86 105 110 143 25 38 76 102 114 142 219 232 167 428 -155 586
-141 68 -198 80 -254 52z"/>
<path d="M195 5249 c-164 -52 -188 -90 -108 -167 34 -31 87 -91 119 -132 32
-41 90 -110 128 -153 656 -726 889 -841 1181 -585 91 80 130 366 69 499 -54
117 -220 255 -362 303 -54 19 -141 56 -193 84 -118 63 -198 88 -369 113 -74
11 -171 29 -215 40 -100 24 -173 23 -250 -2z"/>
<path d="M2062 3999 c-25 -16 -45 -47 -82 -125 -28 -57 -73 -138 -101 -181
-28 -43 -65 -110 -83 -149 -19 -39 -58 -109 -88 -155 -30 -46 -76 -124 -102
-174 -25 -49 -70 -120 -100 -157 -30 -37 -75 -102 -100 -145 -26 -43 -72 -108
-102 -143 -31 -36 -74 -98 -97 -139 -22 -41 -63 -102 -91 -135 -28 -34 -80
-104 -116 -157 -148 -219 -307 -380 -523 -529 -161 -110 -199 -232 -137 -436
17 -55 44 -152 61 -218 32 -126 50 -168 109 -256 20 -30 58 -96 84 -146 94
-184 250 -340 351 -351 164 -19 228 72 265 377 26 205 47 298 101 431 23 57
53 151 66 209 58 249 75 304 128 421 37 80 69 172 91 259 26 100 50 164 91
245 65 129 91 202 124 345 17 76 38 133 75 206 34 66 67 151 93 244 23 78 77
228 120 334 108 262 131 352 116 452 -13 87 -80 119 -153 73z"/>
</g>
</svg>
