<svg xmlns="http://www.w3.org/2000/svg" viewBox="0 0 879.978623 834.952755">
<g transform="translate(0.000000,860.000000) scale(0.100000,-0.100000)" fill="#000000" stroke="none">
<path d="M6000 8532 c0 -98 30 -202 93 -324 95 -186 112 -408 119 -1598 3
-652 18 -616 -284 -700 -442 -123 -735 -143 -973 -66 -176 56 -231 56 -317 0
-112 -73 -104 -177 32 -404 87 -145 103 -185 130 -327 12 -59 48 -187 80 -283
66 -197 89 -302 120 -540 40 -321 64 -436 125 -603 19 -54 47 -139 61 -190 48
-172 95 -227 193 -227 80 0 108 20 224 163 87 108 420 199 527 145 95 -48 90
7 90 -943 0 -1192 16 -2215 35 -2282 34 -117 134 -137 228 -45 66 64 95 178
122 482 21 234 40 388 70 567 17 103 29 236 40 438 8 160 20 389 26 510 7 121
15 450 18 730 6 510 6 510 35 568 69 141 214 178 846 212 272 15 312 21 360
61 71 61 60 148 -40 303 -73 114 -77 147 -29 237 17 33 48 101 69 153 23 56
61 122 93 165 30 39 75 105 101 147 80 132 270 336 451 483 133 109 155 142
155 233 -1 98 -128 258 -320 402 -47 36 -108 85 -137 111 -28 26 -89 66 -135
90 -45 23 -113 65 -149 91 -190 139 -422 142 -723 7 -306 -136 -458 -165 -521
-96 -55 59 -55 59 -45 743 11 764 15 802 110 996 99 203 52 336 -164 469 -118
73 -156 113 -156 168 0 22 0 22 -280 22 -280 0 -280 0 -280 -68z m1520 -2692
c92 -47 115 -123 106 -344 -14 -358 -41 -526 -145 -890 -101 -353 -114 -371
-291 -416 -47 -12 -126 -35 -176 -52 -136 -46 -214 -18 -243 87 -19 71 -15
1380 5 1438 34 99 92 127 328 158 88 11 175 24 195 28 71 17 179 13 221 -9z
m-1371 -268 c71 -53 66 6 66 -775 0 -886 34 -787 -310 -896 -225 -71 -310 -48
-350 93 -31 113 -115 813 -142 1188 -12 168 24 214 212 268 44 12 141 49 215
80 178 76 250 86 309 42z"/>
<path d="M4455 8425 c-102 -35 -146 -129 -138 -290 4 -78 0 -106 -26 -205 -17
-63 -52 -200 -77 -305 -39 -159 -56 -212 -110 -325 -34 -74 -76 -182 -92 -240
-36 -131 -50 -164 -100 -237 -53 -79 -76 -125 -117 -239 -19 -54 -54 -128 -79
-164 -54 -82 -88 -147 -121 -237 -14 -37 -53 -109 -86 -159 -33 -50 -80 -138
-105 -195 -25 -58 -68 -135 -99 -175 -29 -39 -77 -118 -105 -174 -28 -57 -74
-132 -101 -168 -27 -35 -72 -110 -99 -166 -27 -55 -69 -126 -95 -156 -25 -30
-70 -103 -99 -161 -29 -58 -121 -208 -204 -333 -83 -125 -170 -258 -192 -296
-22 -38 -69 -97 -105 -131 -90 -88 -115 -162 -81 -243 67 -161 232 -24 764
638 41 50 91 109 111 131 21 22 58 67 82 100 24 33 66 85 93 115 27 30 77 98
111 150 150 231 321 291 365 129 9 -33 11 -187 7 -589 -6 -613 -10 -669 -92
-1205 -13 -88 -38 -295 -55 -460 -35 -350 -48 -439 -95 -635 -160 -678 -170
-1245 -24 -1471 23 -35 68 -119 101 -186 111 -232 285 -320 376 -190 32 46
169 467 181 558 10 72 19 736 41 2829 8 748 12 931 27 1055 44 389 12 573
-128 728 -131 145 -133 248 -8 412 34 44 85 130 114 190 29 61 73 139 99 173
51 69 67 97 120 215 19 43 61 114 91 158 31 43 68 107 82 142 39 95 61 136
114 208 27 36 71 111 98 166 27 56 70 126 95 156 24 30 61 79 82 108 21 30 73
91 116 135 122 127 150 237 98 377 -85 226 -558 524 -735 462z"/>
<path d="M1193 8341 c-101 -46 -74 -164 73 -321 38 -41 96 -106 128 -145 158
-191 523 -549 640 -629 128 -86 351 -85 472 2 193 140 173 576 -32 713 -244
165 -298 192 -469 239 -66 18 -169 50 -230 71 -237 81 -490 111 -582 70z"/>
<path d="M0 6120 c0 -108 0 -110 23 -110 61 0 125 -49 249 -192 473 -543 798
-805 972 -784 126 15 303 200 326 342 29 175 -15 286 -173 441 -138 136 -142
139 -287 182 -58 18 -163 61 -235 97 -84 41 -155 70 -200 79 -122 25 -426 55
-552 55 -123 0 -123 0 -123 -110z"/>
<path d="M2237 4980 c-19 -16 -49 -58 -67 -92 -18 -35 -57 -94 -86 -133 -29
-38 -69 -104 -90 -145 -20 -41 -61 -112 -90 -158 -30 -46 -72 -118 -94 -161
-21 -43 -63 -113 -93 -157 -29 -43 -77 -124 -105 -180 -29 -55 -78 -134 -109
-175 -31 -41 -75 -114 -98 -164 -24 -49 -69 -125 -102 -167 -33 -43 -79 -113
-102 -158 -23 -44 -66 -110 -96 -147 -29 -37 -75 -107 -101 -157 -26 -49 -70
-117 -98 -150 -29 -34 -73 -89 -99 -123 -42 -55 -148 -151 -336 -303 -81 -67
-116 -139 -115 -239 2 -102 64 -378 102 -451 16 -30 49 -93 73 -140 24 -47 59
-117 78 -157 18 -39 58 -102 90 -139 31 -37 81 -101 111 -143 83 -115 187
-158 283 -117 73 31 99 84 121 251 9 66 48 244 86 395 38 151 81 334 95 405
31 149 51 211 110 345 54 122 59 138 95 303 28 131 52 200 133 382 21 47 49
138 67 220 27 121 41 159 100 280 56 113 72 157 85 230 22 124 31 149 81 233
25 40 62 124 83 185 74 213 142 382 181 447 116 193 46 402 -93 280z"/>
</g>
</svg>
