<svg xmlns="http://www.w3.org/2000/svg" viewBox="0 0 878.351969 858.897742">
<g transform="translate(-22.181300,879.788870) scale(0.100000,-0.100000)" fill="#000000" stroke="none">
<path d="M5299 8791 c-124 -41 -141 -134 -58 -321 143 -322 163 -527 157
-1590 -4 -687 6 -656 -212 -695 -50 -9 -190 -38 -311 -65 -635 -141 -827 -152
-1123 -64 -204 60 -323 39 -378 -68 -38 -73 -14 -150 99 -316 82 -120 107
-182 147 -372 12 -57 39 -163 61 -234 56 -186 85 -339 114 -601 43 -389 52
-422 173 -675 139 -290 295 -366 415 -203 89 120 120 135 345 168 518 74 575
75 626 14 43 -50 43 -64 55 -1419 17 -1942 26 -2049 185 -2124 119 -56 197 27
211 224 8 114 30 260 70 470 75 389 94 719 130 2230 16 693 19 706 153 767
145 67 987 129 1637 121 300 -3 310 -2 352 61 49 72 28 162 -59 256 -122 133
-121 226 5 382 30 38 75 109 100 158 25 50 65 115 89 145 25 30 74 96 109 145
175 248 488 525 591 525 39 0 25 287 -14 295 -75 15 -104 31 -177 97 -53 49
-102 82 -161 110 -47 22 -114 62 -150 88 -77 56 -99 68 -203 105 -43 16 -120
53 -170 82 -233 138 -487 150 -834 39 -200 -64 -339 -92 -632 -126 -101 -12
-231 -30 -289 -41 -336 -61 -333 -70 -322 786 9 656 6 630 82 805 132 306 131
526 -5 618 -75 51 -281 160 -332 176 -124 39 -414 68 -476 47z m2074 -2754
c76 -38 137 -90 165 -141 45 -82 12 -411 -68 -686 -22 -74 -53 -201 -69 -282
-34 -174 -63 -242 -149 -349 -112 -142 -135 -151 -435 -179 -228 -21 -335 -36
-517 -71 -162 -31 -233 -4 -264 100 -16 55 -12 1348 5 1412 29 112 93 136 434
164 226 19 548 52 625 65 106 17 192 7 273 -33z m-2045 -244 c70 -52 67 -11
69 -773 2 -449 -1 -696 -8 -717 -30 -94 -72 -113 -354 -158 -127 -20 -278 -50
-336 -66 -258 -71 -304 -20 -329 366 -15 235 -68 768 -85 854 -52 258 -13 300
380 407 381 103 602 132 663 87z"/>
<path d="M2861 8635 c-53 -45 -66 -100 -63 -265 5 -281 -32 -494 -117 -677
-27 -59 -64 -160 -81 -223 -20 -76 -52 -159 -94 -245 -35 -71 -78 -169 -95
-217 -38 -109 -58 -147 -115 -223 -26 -33 -55 -78 -65 -100 -10 -22 -33 -69
-49 -105 -17 -36 -51 -92 -77 -124 -25 -33 -69 -104 -96 -157 -28 -54 -75
-129 -105 -166 -30 -37 -72 -103 -94 -145 -22 -42 -61 -103 -85 -135 -25 -32
-76 -103 -114 -158 -38 -55 -79 -109 -91 -120 -13 -11 -61 -69 -107 -130 -103
-136 -210 -270 -313 -395 -43 -52 -105 -127 -137 -166 -209 -255 -343 -393
-661 -684 -94 -85 -107 -176 -31 -215 62 -32 131 -9 259 86 52 39 133 94 179
123 46 28 118 80 160 116 42 36 105 88 141 117 36 28 83 70 105 93 22 23 67
63 100 88 60 46 164 139 344 307 53 50 115 105 138 123 51 40 181 190 256 297
100 141 179 155 240 42 22 -42 22 -42 21 -582 -2 -987 -21 -1274 -110 -1686
-49 -229 -80 -432 -109 -724 -29 -284 -41 -367 -85 -556 -74 -323 -70 -535 16
-729 19 -43 50 -125 70 -182 57 -165 194 -350 279 -378 112 -37 261 166 310
425 31 158 35 342 45 1895 12 1840 12 1841 86 2245 50 272 -4 460 -193 667
-109 119 -118 181 -38 280 19 24 56 76 82 116 26 41 80 117 119 170 39 54 90
134 112 178 23 45 63 110 89 145 66 88 75 102 116 196 19 45 62 119 95 165 42
57 73 116 101 189 23 58 59 135 81 170 22 35 68 113 102 173 36 62 93 142 131
185 190 208 221 314 138 466 -76 139 -88 149 -375 338 -143 93 -356 141 -415
92z"/>
</g>
</svg>
