<svg xmlns="http://www.w3.org/2000/svg" viewBox="0 0 918.563081 843.135241">
<g transform="translate(-23.156500,860.000000) scale(0.100000,-0.100000)" fill="#000000" stroke="none">
<path d="M6644 8513 c-17 -178 -12 -215 50 -338 66 -130 71 -147 90 -335 30
-287 50 -1674 25 -1789 -35 -163 -96 -189 -619 -267 -307 -45 -377 -44 -600
10 -418 102 -547 -54 -309 -375 68 -92 93 -154 124 -302 14 -71 46 -186 71
-255 69 -196 92 -298 124 -548 34 -265 62 -410 114 -574 19 -63 49 -168 65
-232 83 -325 246 -399 405 -184 61 83 89 101 205 136 40 12 106 35 146 51 128
51 215 36 258 -46 22 -40 22 -42 29 -1135 4 -602 12 -1189 17 -1305 6 -115 16
-309 21 -430 14 -269 24 -311 90 -377 57 -58 99 -64 150 -22 74 62 93 144 120
509 11 154 29 375 40 490 32 349 55 793 101 1985 17 433 36 469 279 505 55 9
144 24 197 36 152 31 286 48 438 54 436 18 496 75 325 305 -71 97 -95 154 -87
213 9 63 117 281 184 372 32 44 77 113 99 153 21 40 73 110 114 155 41 45 93
104 114 130 21 26 75 78 120 115 277 228 314 297 240 449 -32 66 -234 255
-372 348 -53 36 -123 87 -154 113 -38 32 -115 75 -232 130 -247 118 -318 121
-539 23 -62 -27 -164 -63 -227 -79 -65 -17 -156 -50 -209 -76 -138 -67 -202
-59 -244 32 -43 93 -33 1299 13 1522 14 71 34 124 77 208 117 232 26 423 -249
523 -134 49 -192 94 -205 160 -5 29 -5 29 -198 29 -193 0 -193 0 -201 -87z
m1491 -2717 c116 -49 127 -115 86 -526 -46 -460 -74 -595 -198 -950 -25 -69
-85 -123 -168 -150 -38 -12 -116 -47 -173 -76 -143 -75 -222 -70 -279 14 -34
51 -35 93 -26 797 9 750 7 735 104 804 108 78 537 135 654 87z m-1384 -279
c68 -45 68 -42 69 -773 0 -810 -1 -816 -173 -867 -401 -117 -470 -92 -488 181
-10 146 -11 155 -50 437 -15 116 -35 275 -44 355 -8 80 -20 191 -26 246 -25
224 11 270 254 325 90 20 163 44 227 74 114 54 175 59 231 22z"/>
<path d="M5067 8386 c-102 -28 -142 -83 -136 -184 12 -229 -2 -351 -66 -552
-19 -58 -50 -172 -70 -255 -28 -118 -49 -179 -99 -285 -35 -74 -71 -164 -81
-200 -27 -102 -51 -155 -106 -237 -54 -80 -95 -162 -124 -252 -10 -30 -42 -90
-71 -133 -63 -93 -85 -133 -119 -224 -28 -74 -50 -114 -107 -189 -20 -28 -57
-93 -81 -145 -24 -52 -70 -129 -102 -170 -31 -41 -78 -118 -105 -170 -26 -52
-71 -124 -100 -160 -29 -36 -72 -105 -96 -155 -24 -49 -68 -123 -99 -164 -31
-41 -72 -106 -92 -145 -19 -39 -64 -107 -98 -151 -34 -44 -88 -121 -120 -170
-32 -50 -81 -119 -110 -155 -29 -36 -70 -96 -93 -135 -22 -38 -55 -83 -72
-100 -112 -104 -123 -213 -25 -245 77 -25 250 110 504 395 79 88 192 214 251
280 59 66 125 143 147 170 22 28 71 84 109 125 38 41 84 95 101 120 71 102
236 250 280 250 74 0 109 -76 98 -214 -3 -39 -10 -195 -15 -346 -27 -755 -35
-863 -90 -1250 -36 -247 -65 -510 -80 -720 -20 -273 -56 -493 -134 -835 -101
-440 -87 -887 34 -1079 23 -37 64 -119 90 -182 143 -342 379 -401 441 -109 7
33 34 114 60 180 88 221 78 -84 109 3035 9 884 11 978 30 1115 53 393 26 552
-125 725 -125 143 -130 263 -16 394 54 62 79 103 115 186 16 36 55 102 88 148
33 45 78 122 100 170 22 48 68 125 101 171 33 46 80 128 104 183 24 54 71 140
106 191 40 59 76 128 100 192 21 55 55 123 75 151 20 28 62 87 92 130 30 42
82 109 115 147 230 264 165 460 -240 732 -186 125 -269 152 -378 121z"/>
<path d="M2302 8314 c-71 -36 -89 -89 -107 -316 -15 -201 -44 -329 -111 -491
-24 -60 -57 -152 -73 -205 -41 -135 -45 -144 -108 -240 -31 -47 -73 -126 -94
-176 -24 -56 -65 -123 -108 -180 -38 -50 -84 -118 -102 -151 -18 -32 -63 -96
-99 -141 -36 -45 -84 -112 -105 -149 -22 -38 -63 -94 -91 -124 -28 -31 -77
-92 -110 -136 -32 -44 -92 -113 -132 -153 -101 -101 -162 -231 -128 -277 30
-41 223 28 324 117 35 30 98 76 140 101 42 25 108 74 147 108 38 34 94 78 124
97 70 45 287 250 423 399 237 261 269 299 303 365 20 38 63 103 95 146 32 42
80 116 108 164 48 84 264 358 282 358 15 0 192 222 208 260 22 54 12 128 -29
195 -44 74 -256 270 -330 307 -297 145 -351 161 -427 122z"/>
<path d="M2285 6016 c-92 -41 -114 -123 -71 -263 39 -123 39 -137 12 -304 -30
-187 -54 -265 -102 -344 -67 -109 -82 -139 -113 -227 -39 -112 -64 -160 -117
-228 -24 -31 -66 -100 -94 -155 -28 -54 -73 -126 -100 -160 -26 -33 -71 -102
-98 -153 -28 -51 -75 -120 -105 -155 -29 -34 -73 -91 -97 -127 -24 -36 -66
-90 -93 -120 -28 -30 -70 -86 -95 -125 -24 -38 -66 -95 -92 -125 -25 -30 -73
-93 -105 -140 -105 -152 -455 -547 -682 -768 -219 -214 -52 -327 202 -138 39
29 108 77 155 108 47 30 119 84 160 119 41 36 104 87 140 114 36 27 90 72 120
100 30 28 82 71 115 94 33 24 85 67 115 96 30 28 82 73 115 99 33 27 88 82
121 123 128 156 278 234 337 175 46 -47 32 -785 -21 -1091 -23 -134 -56 -352
-72 -485 -41 -326 -53 -388 -111 -545 -105 -284 -104 -433 5 -649 26 -51 59
-142 76 -204 42 -154 65 -197 120 -225 128 -65 242 13 305 207 10 30 38 99 62
153 87 196 90 239 103 1562 10 982 14 1098 46 1289 36 216 8 352 -95 468 -96
108 -99 148 -18 261 24 34 63 96 86 137 24 41 66 104 95 140 29 36 75 101 103
146 27 44 77 114 110 155 33 41 76 103 96 139 19 36 61 98 92 139 183 241 209
476 69 639 -42 50 -204 182 -253 207 -111 56 -357 92 -426 61z"/>
</g>
</svg>
