<svg xmlns="http://www.w3.org/2000/svg" viewBox="0 0 940.962794 846.191587">
<g transform="translate(-25.037206,862.858516) scale(0.100000,-0.100000)" fill="#000000" stroke="none">
<path d="M5365 8615 c-102 -36 -123 -126 -55 -236 63 -100 78 -141 100 -272
11 -67 32 -165 46 -217 61 -222 74 -280 89 -377 32 -215 48 -472 81 -1343 12
-297 -28 -344 -313 -369 -150 -14 -412 -55 -608 -96 -153 -32 -230 -43 -447
-64 -291 -29 -298 -173 -14 -296 261 -112 340 -115 636 -17 245 81 524 147
590 139 157 -19 177 -199 41 -382 -43 -58 -71 -110 -102 -190 -23 -60 -62
-140 -88 -178 -71 -104 -88 -135 -126 -234 -23 -57 -57 -119 -91 -165 -30 -40
-74 -113 -99 -163 -25 -49 -72 -124 -105 -165 -33 -41 -76 -105 -95 -141 -19
-36 -65 -104 -103 -151 -38 -47 -84 -111 -102 -142 -17 -31 -62 -89 -99 -129
-36 -40 -81 -92 -100 -117 -19 -25 -71 -84 -115 -131 -45 -48 -133 -144 -196
-214 -234 -260 -406 -427 -545 -531 -138 -103 -215 -247 -153 -287 46 -30 312
61 438 149 41 30 113 76 160 103 47 27 110 71 140 97 30 26 92 71 137 100 158
103 640 575 743 729 18 28 55 76 82 107 26 31 71 94 99 140 29 46 74 114 102
152 28 38 74 112 102 165 73 139 124 156 179 61 56 -94 15 -713 -88 -1340 -45
-276 -66 -431 -86 -655 -16 -171 -45 -336 -91 -520 -101 -398 -99 -641 5 -844
26 -50 60 -128 77 -173 79 -216 259 -310 406 -213 219 145 229 202 225 1240
-5 1369 22 3028 51 3098 54 127 256 -43 347 -293 13 -35 52 -105 85 -156 39
-58 74 -126 95 -185 23 -62 56 -126 97 -187 35 -51 77 -126 93 -168 43 -107
66 -151 117 -217 25 -32 64 -99 88 -150 24 -51 72 -132 108 -179 35 -48 82
-122 105 -165 22 -43 64 -107 93 -143 29 -36 75 -101 103 -145 27 -44 78 -114
113 -155 35 -41 85 -99 110 -128 38 -45 65 -63 178 -118 208 -103 330 -106
955 -27 207 26 432 48 540 53 247 11 360 51 360 128 0 81 -265 218 -588 303
-64 16 -106 36 -186 88 -63 41 -139 80 -193 99 -82 30 -111 46 -234 130 -26
18 -89 48 -140 68 -101 39 -136 57 -214 115 -27 20 -87 55 -132 79 -46 23
-110 66 -143 95 -32 30 -92 78 -132 108 -96 70 -403 376 -499 497 -42 52 -91
109 -109 125 -18 17 -59 65 -91 107 -33 42 -83 103 -113 135 -29 32 -76 91
-105 131 -29 41 -73 99 -98 130 -25 31 -66 88 -91 127 -25 38 -63 92 -86 119
-22 27 -70 88 -106 136 -36 48 -91 119 -123 158 -142 172 -205 354 -155 444
49 87 90 98 538 148 693 77 675 76 1095 54 408 -22 582 232 281 410 -112 67
-501 146 -715 146 -190 0 -649 -91 -766 -152 -33 -17 -82 -43 -110 -57 -194
-101 -315 0 -295 244 27 316 41 508 51 680 18 335 36 442 112 660 63 184 73
317 28 408 -31 62 -234 283 -298 322 -26 17 -103 67 -171 112 -186 124 -390
179 -507 138z"/>
<path d="M2254 8241 c-112 -68 -106 -173 27 -451 83 -176 89 -197 140 -525 92
-596 148 -1462 101 -1569 -32 -72 -108 -114 -284 -155 -514 -122 -517 -123
-1313 -196 -245 -22 -295 -44 -295 -124 0 -71 64 -146 152 -177 134 -47 736
-63 1131 -28 241 21 293 8 327 -81 27 -72 -49 -300 -155 -463 -24 -37 -59
-114 -79 -169 -40 -118 -54 -146 -108 -226 -42 -62 -58 -96 -103 -215 -16 -43
-52 -106 -86 -152 -32 -44 -79 -119 -103 -167 -25 -49 -72 -122 -105 -163 -34
-41 -77 -106 -97 -144 -20 -37 -64 -102 -98 -145 -34 -42 -82 -105 -106 -141
-24 -36 -71 -94 -105 -130 -34 -36 -81 -91 -104 -123 -24 -32 -71 -88 -105
-125 -34 -37 -81 -93 -105 -126 -24 -32 -144 -159 -268 -282 -235 -234 -262
-272 -263 -349 0 -48 7 -61 42 -74 56 -21 297 78 413 169 33 26 92 65 131 88
39 23 101 68 137 101 36 32 92 77 125 99 109 75 401 357 516 501 30 36 71 82
91 101 21 19 64 75 97 124 32 49 79 113 104 142 24 28 67 95 94 147 27 53 71
129 98 169 28 40 69 111 91 158 55 117 95 154 163 155 93 0 120 -120 84 -375
-9 -63 -23 -223 -31 -355 -24 -383 -41 -505 -105 -770 -167 -689 -164 -1127
11 -1405 140 -223 192 -270 296 -270 120 0 172 64 252 311 27 85 55 172 63
194 10 32 14 329 18 1412 5 1372 5 1372 26 1400 61 82 169 44 293 -104 31 -37
99 -105 151 -151 215 -190 292 -189 433 4 132 181 139 256 39 407 -96 144
-141 179 -287 227 -38 13 -122 49 -185 82 -87 44 -138 64 -210 79 -235 48
-245 68 -232 438 12 351 9 347 263 438 182 66 297 104 397 133 124 36 202 128
202 239 0 109 -51 159 -235 230 -181 70 -204 71 -358 19 -225 -75 -249 6 -172
583 54 403 72 517 117 734 52 248 57 381 19 479 -28 70 -209 255 -328 334 -37
25 -92 65 -122 89 -138 112 -417 193 -497 144z"/>
</g>
</svg>
