<svg xmlns="http://www.w3.org/2000/svg" viewBox="0 0 920.872947 862.827858">
<g transform="translate(-32.127053,862.531004) scale(0.100000,-0.100000)" fill="#000000" stroke="none">
<path d="M6105 8618 c-138 -48 -142 -177 -9 -370 72 -105 76 -121 120 -438 8
-63 31 -198 49 -300 58 -316 79 -684 73 -1325 -4 -543 -5 -544 -285 -610 -59
-14 -187 -52 -284 -85 -202 -68 -259 -82 -471 -110 -308 -40 -342 -61 -306
-182 66 -222 419 -265 807 -96 233 100 322 104 365 14 31 -66 17 -119 -62
-239 -38 -59 -62 -112 -93 -208 -31 -95 -59 -159 -105 -235 -36 -62 -74 -141
-90 -192 -35 -111 -62 -165 -124 -251 -28 -37 -67 -108 -89 -158 -21 -49 -67
-134 -103 -189 -36 -54 -80 -128 -98 -164 -18 -36 -56 -95 -85 -131 -29 -36
-74 -107 -99 -157 -25 -51 -71 -121 -101 -157 -30 -35 -81 -99 -114 -142 -32
-43 -98 -121 -146 -173 -234 -255 -289 -513 -88 -408 186 97 261 142 306 185
29 27 88 76 132 108 201 147 479 432 602 615 31 47 74 107 96 135 21 27 63 97
93 155 47 91 69 121 169 225 123 128 132 133 162 74 22 -42 8 -435 -23 -669
-62 -475 -71 -555 -109 -1015 -21 -253 -45 -404 -109 -683 -79 -342 -89 -433
-83 -732 5 -296 13 -327 106 -451 59 -78 80 -126 96 -221 6 -38 6 -38 155 -38
148 0 148 0 159 50 6 27 27 91 47 142 80 205 98 319 114 748 6 157 15 393 20
525 6 132 15 431 20 665 6 234 14 562 20 730 5 168 10 411 10 540 0 315 18
412 81 434 66 23 129 -30 173 -145 37 -95 79 -179 122 -243 18 -28 50 -89 70
-136 20 -47 62 -121 94 -165 66 -93 76 -110 122 -225 19 -47 59 -122 90 -166
30 -44 69 -116 87 -160 73 -175 192 -333 285 -379 107 -52 538 -51 1216 5 63
5 167 12 230 16 163 9 210 36 210 119 0 118 -89 178 -354 240 -129 30 -176 50
-276 115 -50 33 -111 61 -181 83 -123 40 -153 54 -234 112 -33 23 -101 63
-151 89 -50 26 -118 70 -150 99 -33 29 -93 79 -135 109 -43 31 -80 61 -84 67
-3 6 -59 55 -123 109 -64 55 -200 188 -302 296 -102 108 -302 321 -445 472
-343 362 -310 283 -310 744 0 542 -48 496 575 561 191 20 375 32 520 36 149 3
245 10 284 20 449 111 88 538 -454 537 -229 -1 -511 -69 -622 -152 -121 -90
-218 -90 -264 1 -26 50 -22 208 26 882 22 311 27 345 75 561 87 388 105 653
54 765 -37 78 -190 236 -304 312 -49 33 -103 71 -119 84 -97 81 -363 152 -451
121z"/>
<path d="M1911 8533 c-58 -29 -75 -83 -66 -217 14 -241 -44 -486 -155 -651
-26 -38 -63 -102 -83 -141 -20 -40 -65 -103 -102 -143 -36 -40 -81 -96 -99
-124 -19 -29 -61 -82 -94 -119 -33 -36 -78 -93 -100 -125 -37 -55 -256 -281
-390 -404 -240 -220 -28 -326 244 -123 48 36 118 81 155 100 36 19 97 61 134
92 37 31 98 80 135 107 37 28 132 109 211 182 79 73 173 152 208 177 47 32 78
65 116 121 29 42 117 144 196 227 79 83 164 174 189 203 25 29 75 78 112 110
225 191 125 424 -278 648 -186 103 -253 119 -333 80z"/>
<path d="M3858 8220 c-131 -39 -135 -103 -23 -383 155 -390 176 -591 158
-1502 -13 -690 -8 -680 -338 -744 -369 -73 -565 -167 -565 -271 0 -100 196
-141 499 -105 268 32 339 -30 266 -235 -14 -41 -42 -133 -61 -205 -26 -97 -50
-158 -94 -242 -46 -85 -68 -143 -95 -245 -24 -88 -50 -158 -77 -208 -67 -122
-94 -180 -123 -273 -19 -62 -48 -119 -95 -192 -37 -57 -77 -132 -90 -167 -34
-93 -57 -135 -112 -211 -28 -37 -70 -107 -93 -156 -24 -48 -67 -119 -96 -156
-28 -38 -75 -107 -102 -154 -28 -47 -78 -122 -112 -166 -34 -44 -86 -118 -117
-166 -30 -47 -82 -114 -115 -150 -103 -111 -235 -304 -240 -352 -13 -116 105
-139 207 -41 19 18 76 61 127 96 126 86 503 485 625 661 31 45 81 111 112 147
31 36 69 90 85 121 17 30 62 98 101 150 49 65 81 121 105 184 19 50 62 135 95
189 33 54 67 120 76 145 88 239 140 280 203 158 62 -121 19 -879 -84 -1482
-42 -249 -59 -367 -85 -620 -24 -232 -50 -414 -86 -610 -44 -233 15 -561 131
-736 77 -117 259 -129 329 -22 25 38 127 336 146 429 14 63 27 740 35 1709 10
1337 9 1325 73 1375 62 49 128 19 192 -88 114 -192 238 -284 341 -253 129 39
242 269 198 402 -44 131 -295 310 -489 349 -265 52 -272 68 -276 620 -3 576
-12 555 263 624 77 19 164 46 194 59 30 13 98 38 151 56 218 73 271 191 128
289 -80 54 -310 67 -446 24 -204 -63 -264 -14 -264 216 0 344 37 680 105 962
116 478 111 712 -18 849 -186 197 -517 361 -649 321z"/>
<path d="M2090 7072 c-78 -39 -101 -121 -92 -339 8 -224 -16 -333 -105 -480
-28 -45 -67 -123 -87 -175 -22 -55 -57 -120 -86 -158 -27 -36 -77 -103 -111
-150 -34 -47 -88 -114 -119 -150 -31 -36 -78 -94 -105 -130 -91 -122 -532
-579 -659 -684 -78 -63 -93 -120 -45 -165 50 -46 128 -29 260 56 52 33 142 81
201 107 64 29 131 68 169 99 35 28 97 72 138 99 79 50 188 140 325 269 45 41
106 91 137 111 31 20 76 60 100 89 24 29 118 132 209 230 91 98 224 241 295
319 72 78 159 168 195 200 173 154 222 275 155 385 -68 112 -85 129 -334 331
-108 87 -375 170 -441 136z"/>
<path d="M2165 5316 c-69 -30 -122 -146 -160 -349 -21 -116 -44 -175 -104
-271 -27 -43 -69 -123 -92 -177 -27 -64 -63 -127 -101 -177 -33 -42 -77 -111
-98 -152 -21 -41 -62 -107 -92 -145 -30 -39 -74 -99 -98 -135 -24 -36 -76 -99
-115 -140 -39 -41 -87 -95 -105 -120 -19 -25 -66 -79 -105 -120 -40 -41 -93
-102 -119 -134 -49 -61 -192 -219 -281 -310 -28 -28 -76 -70 -108 -93 -37 -28
-73 -67 -101 -112 -32 -49 -60 -79 -103 -107 -60 -41 -76 -71 -49 -93 23 -19
59 -6 111 39 34 29 68 46 133 66 112 34 144 51 220 118 34 30 94 72 133 92 39
21 108 71 155 114 165 151 339 223 407 170 46 -36 50 -86 44 -504 -6 -404 -12
-461 -58 -651 -31 -127 -60 -291 -79 -440 -15 -127 -45 -235 -92 -340 -150
-334 -156 -684 -15 -893 29 -42 74 -116 99 -165 158 -297 236 -354 307 -224
251 460 236 365 256 1597 13 796 19 1009 36 1215 36 422 30 457 -93 592 -148
163 -149 235 -5 379 122 121 227 232 282 299 27 33 73 85 101 115 29 30 86 97
126 149 43 56 132 148 216 225 243 222 255 276 98 431 -77 77 -294 218 -389
254 -39 15 -125 13 -162 -3z"/>
</g>
</svg>
