<svg xmlns="http://www.w3.org/2000/svg" viewBox="0 0 928.643857 861.744183">
<g transform="translate(-23.999194,880.000000) scale(0.100000,-0.100000)" fill="#000000" stroke="none">
<path d="M5893 8736 c3 -36 23 -111 46 -172 264 -720 276 -799 288 -2015 7
-677 7 -671 -62 -742 -70 -73 -316 -158 -606 -212 -107 -20 -234 -47 -284 -60
-49 -14 -128 -32 -175 -41 -247 -46 -328 -224 -131 -289 286 -93 388 -88 786
42 216 71 293 47 282 -87 -12 -144 -56 -271 -143 -415 -36 -61 -68 -133 -97
-220 -32 -98 -56 -151 -98 -215 -31 -47 -73 -128 -95 -180 -21 -52 -66 -136
-101 -187 -34 -50 -81 -129 -103 -175 -23 -45 -66 -114 -94 -153 -29 -38 -76
-115 -104 -170 -28 -55 -72 -125 -97 -155 -24 -30 -67 -90 -94 -135 -27 -44
-81 -115 -119 -158 -39 -42 -119 -137 -178 -210 -59 -72 -130 -155 -156 -184
-159 -171 28 -248 238 -98 35 25 97 68 139 95 41 28 105 78 142 112 38 33 93
79 123 101 78 56 322 299 385 382 29 39 81 102 116 141 35 40 79 98 98 130 19
33 60 100 92 149 31 50 74 129 94 176 124 293 272 176 244 -193 -4 -62 -13
-214 -19 -338 -11 -217 -39 -563 -61 -740 -5 -47 -32 -197 -59 -335 -53 -272
-72 -398 -95 -635 -8 -87 -29 -214 -47 -290 -88 -369 0 -905 167 -1020 158
-109 286 -63 393 138 81 152 85 211 102 1577 6 484 15 1033 21 1220 6 187 10
421 10 519 -2 333 40 374 196 194 117 -136 128 -151 173 -263 21 -52 64 -131
95 -175 31 -44 74 -122 96 -172 21 -50 61 -122 89 -159 54 -75 90 -142 110
-204 19 -60 57 -133 105 -200 23 -33 63 -103 88 -156 55 -115 87 -146 212
-205 156 -74 268 -75 860 -14 160 16 369 34 465 39 246 14 418 72 394 134 -22
58 -339 204 -614 282 -111 32 -130 41 -228 108 -47 32 -112 63 -183 88 -135
48 -137 49 -224 114 -38 29 -102 71 -140 93 -39 22 -102 69 -140 104 -39 35
-97 85 -130 110 -67 51 -406 385 -590 582 -66 71 -201 213 -301 315 -297 306
-305 325 -299 694 5 346 13 382 95 470 98 107 204 122 1050 146 332 9 367 21
415 133 48 116 -17 218 -215 336 -241 144 -595 150 -840 15 -153 -85 -179 -95
-258 -100 -164 -10 -221 81 -182 288 11 57 32 392 50 789 17 369 46 572 116
792 60 190 52 242 -63 414 -95 141 -212 243 -369 322 -94 47 -141 95 -150 152
-7 40 -7 40 -222 40 -215 0 -215 0 -209 -64z"/>
<path d="M3703 8375 c-104 -45 -98 -148 18 -317 57 -84 65 -114 129 -524 48
-305 53 -411 44 -864 -5 -223 -9 -477 -9 -565 -2 -199 -18 -242 -119 -299 -59
-35 -369 -132 -516 -162 -199 -41 -260 -76 -260 -152 0 -113 285 -180 523
-123 325 78 378 -69 177 -484 -39 -79 -69 -161 -90 -240 -22 -86 -51 -160
-100 -260 -41 -84 -81 -185 -100 -252 -26 -91 -44 -130 -92 -204 -36 -55 -75
-132 -98 -194 -46 -124 -47 -125 -114 -219 -29 -41 -65 -105 -80 -143 -33 -82
-55 -120 -117 -198 -25 -33 -63 -92 -82 -131 -20 -39 -59 -102 -87 -138 -29
-37 -79 -111 -112 -164 -55 -89 -98 -146 -324 -426 -114 -142 -132 -168 -139
-198 -20 -87 103 -138 207 -85 75 38 404 353 561 537 30 36 90 106 132 155 43
50 102 128 133 175 30 47 79 114 109 149 30 35 75 104 100 155 25 50 64 117
86 150 42 62 92 165 123 255 30 85 184 231 245 231 46 0 62 -355 26 -605 -9
-66 -32 -320 -52 -565 -37 -474 -60 -658 -101 -835 -146 -632 -161 -1024 -48
-1250 135 -268 255 -318 396 -167 144 154 151 215 155 1287 2 730 12 1187 39
1965 7 200 15 233 60 251 59 22 178 -61 279 -193 194 -255 459 -148 443 180
-8 165 -65 247 -223 321 -48 23 -110 54 -136 71 -27 16 -95 46 -151 65 -245
86 -244 83 -240 510 6 648 33 701 382 741 197 23 279 57 388 163 162 158 -39
286 -369 235 -328 -50 -374 -3 -342 356 7 74 17 227 23 340 22 413 39 539 104
756 81 272 72 341 -64 544 -76 113 -110 144 -205 189 -44 21 -120 64 -170 95
-138 87 -262 116 -342 81z"/>
<path d="M2017 8366 c-90 -25 -123 -76 -113 -175 24 -243 19 -287 -61 -536
-66 -207 -89 -259 -152 -344 -26 -36 -67 -98 -89 -137 -23 -39 -72 -107 -110
-151 -38 -44 -84 -102 -103 -129 -18 -27 -58 -76 -89 -109 -31 -33 -75 -87
-98 -120 -44 -64 -212 -239 -408 -425 -152 -144 -197 -237 -143 -291 41 -41
283 44 429 151 36 26 105 70 154 96 49 27 116 74 150 105 33 31 88 75 121 98
155 108 593 525 720 686 59 74 165 188 375 400 274 277 280 334 59 552 -126
123 -137 132 -219 173 -36 18 -95 54 -131 81 -107 79 -196 102 -292 75z"/>
<path d="M2145 6456 c-85 -38 -119 -110 -140 -300 -19 -165 -24 -185 -97 -330
-33 -66 -76 -165 -95 -220 -43 -124 -53 -144 -114 -227 -27 -37 -70 -111 -95
-165 -25 -55 -71 -135 -103 -179 -32 -44 -75 -112 -95 -152 -21 -40 -60 -98
-87 -129 -28 -31 -72 -89 -99 -129 -27 -40 -75 -104 -107 -141 -32 -38 -85
-103 -118 -145 -155 -198 -291 -355 -415 -479 -74 -74 -150 -152 -167 -173
-18 -21 -57 -59 -87 -83 -110 -91 -115 -184 -10 -184 53 0 86 15 149 70 26 22
88 65 138 94 51 30 118 77 150 105 32 28 95 79 140 113 45 34 143 121 217 194
203 196 290 218 348 85 40 -90 28 -936 -17 -1241 -11 -74 -27 -205 -36 -290
-28 -277 -44 -351 -111 -532 -128 -346 -176 -777 -112 -1013 41 -152 54 -183
118 -280 32 -49 71 -121 86 -160 72 -186 213 -223 335 -88 110 122 187 495
194 933 3 162 13 373 22 468 14 144 14 187 4 265 -24 186 9 1339 49 1697 30
262 1 380 -124 509 -149 154 -144 267 21 443 38 40 92 105 120 143 28 39 68
86 88 105 21 19 59 67 85 106 27 39 74 100 105 135 30 35 79 98 107 139 57 83
163 203 315 355 152 152 162 297 27 400 -18 14 -72 62 -121 107 -153 142 -364
220 -468 174z"/>
</g>
</svg>
