<svg xmlns="http://www.w3.org/2000/svg" viewBox="0 0 896.614362 863.896556">
<g transform="translate(-21.253132,880.466725) scale(0.100000,-0.100000)" fill="#000000" stroke="none">
<path d="M3270 8780 c0 -11 -19 -68 -42 -127 -43 -108 -43 -108 -44 -288 -2
-208 -20 -311 -80 -453 -58 -141 -74 -188 -104 -321 -37 -161 -50 -197 -109
-301 -27 -47 -65 -131 -85 -187 -42 -122 -51 -140 -120 -241 -29 -43 -68 -118
-86 -166 -18 -48 -57 -120 -87 -164 -30 -42 -72 -111 -94 -152 -22 -42 -109
-162 -195 -269 -203 -254 -244 -340 -190 -400 45 -50 98 -36 244 66 95 66 167
130 503 444 262 245 303 268 448 253 215 -22 587 -1 983 55 323 46 430 58 683
71 315 17 573 41 1000 95 123 16 316 31 570 45 231 12 331 48 392 139 66 99
-13 261 -161 330 -302 141 -318 145 -601 145 -235 1 -307 -10 -572 -83 -79
-22 -229 -54 -335 -71 -123 -21 -227 -44 -288 -66 -52 -18 -147 -51 -210 -73
-68 -23 -184 -52 -285 -71 -93 -17 -237 -51 -320 -75 -312 -92 -542 -131 -618
-106 -120 40 -115 158 13 296 65 69 83 100 130 223 17 45 58 122 90 170 32 48
77 120 100 160 23 41 71 104 106 140 242 251 127 616 -253 803 -110 53 -176
113 -188 170 -9 38 -195 47 -195 9z"/>
<path d="M6527 6279 c-207 -31 -283 -165 -195 -345 61 -125 71 -205 66 -519
-7 -377 -15 -390 -280 -456 -66 -16 -173 -46 -237 -66 -242 -75 -391 -41 -391
88 0 18 23 103 52 188 110 332 61 474 -230 670 -434 292 -664 112 -427 -333
71 -133 84 -192 92 -411 11 -316 -35 -383 -294 -434 -57 -11 -139 -30 -182
-41 -270 -69 -347 17 -291 324 48 262 10 386 -148 479 -31 19 -91 55 -132 80
-179 110 -423 109 -482 -3 -41 -79 -24 -165 57 -285 119 -174 179 -512 115
-640 -49 -98 -101 -121 -340 -150 -393 -48 -489 18 -416 287 61 223 -5 391
-199 508 -38 23 -92 58 -120 78 -226 161 -615 126 -615 -55 0 -65 55 -168 156
-293 186 -231 202 -551 32 -634 -55 -27 -83 -31 -402 -61 -212 -21 -269 -46
-282 -127 -13 -77 35 -118 186 -157 47 -13 136 -43 197 -67 147 -58 218 -74
329 -74 201 0 237 -46 254 -320 14 -209 28 -349 45 -444 49 -261 -19 -355
-270 -376 -109 -10 -661 -50 -950 -70 -259 -18 -656 -30 -760 -24 -382 24
-313 -274 91 -394 54 -17 146 -45 204 -63 153 -49 269 -48 430 5 63 20 180 48
260 61 80 13 264 44 410 69 458 78 648 105 895 126 218 18 448 44 500 56 58
13 662 84 790 93 448 32 735 51 860 56 77 3 291 13 475 23 454 23 2318 21
2755 -3 957 -53 1032 -43 1043 140 12 190 -212 386 -639 558 -197 79 -621 70
-1109 -24 -266 -51 -535 -91 -630 -92 -178 -4 -224 105 -127 299 59 119 80
187 133 454 92 464 108 475 659 475 456 1 484 7 551 121 125 213 -165 469
-610 539 -239 38 -287 145 -180 405 85 206 92 256 44 351 -54 107 -208 262
-311 315 -140 70 -349 125 -432 113z m-370 -1894 c110 -33 137 -102 99 -258
-23 -99 -43 -268 -66 -567 -27 -342 -95 -436 -350 -485 -47 -9 -124 -25 -171
-36 -256 -57 -357 12 -324 220 16 95 29 271 50 671 23 426 36 444 339 460 250
13 368 11 423 -5z m-1277 -117 c102 -52 97 5 87 -878 -4 -373 -16 -391 -282
-435 -49 -9 -144 -25 -210 -37 -184 -32 -253 -13 -304 87 -30 57 -32 156 -19
760 9 416 15 428 270 461 67 8 172 26 233 39 140 30 171 30 225 3z m-1325
-199 c114 -29 135 -84 146 -384 5 -132 13 -342 18 -467 16 -377 3 -390 -407
-419 -285 -20 -314 3 -328 261 -11 205 -53 573 -75 655 -57 217 8 284 321 325
47 6 114 17 150 25 83 17 121 18 175 4z"/>
<path d="M6733 1945 c-37 -19 -57 -61 -47 -99 10 -41 150 -253 214 -326 32
-36 81 -103 109 -148 27 -45 74 -112 104 -149 30 -38 71 -96 91 -129 20 -34
63 -95 97 -135 34 -41 81 -104 105 -141 23 -36 80 -109 126 -161 46 -51 104
-119 131 -150 118 -139 313 -159 442 -45 132 115 161 478 55 693 -68 138 -322
386 -469 458 -47 23 -111 58 -141 78 -90 59 -153 87 -270 119 -61 17 -141 45
-178 64 -141 71 -306 103 -369 71z"/>
<path d="M4941 1833 c-64 -32 -87 -102 -55 -166 24 -47 151 -223 208 -287 26
-30 73 -91 104 -135 152 -218 414 -401 546 -381 279 43 418 470 225 690 -52
58 -258 189 -339 215 -160 51 -628 94 -689 64z"/>
<path d="M1922 1712 c-43 -24 -66 -60 -98 -157 -36 -107 -42 -119 -119 -211
-36 -43 -83 -108 -105 -144 -21 -36 -71 -101 -110 -145 -221 -246 -286 -479
-190 -682 146 -312 492 -265 715 97 15 25 54 81 86 126 143 197 178 568 88
924 -44 171 -156 251 -267 192z"/>
<path d="M3267 1690 c-167 -50 -159 -221 20 -436 36 -44 84 -106 106 -139 204
-302 451 -423 653 -320 226 115 241 498 27 681 -113 96 -169 119 -397 163 -83
17 -180 37 -216 45 -70 17 -148 19 -193 6z"/>
</g>
</svg>
