<svg xmlns="http://www.w3.org/2000/svg" viewBox="0 0 867.798914 826.207487">
<g transform="translate(-32.286098,845.789153) scale(0.100000,-0.100000)" fill="#000000" stroke="none">
<path d="M5066 8437 c-91 -52 -128 -140 -108 -257 27 -160 6 -308 -73 -499
-25 -61 -61 -169 -79 -239 -41 -151 -62 -208 -118 -309 -23 -42 -61 -132 -84
-200 -32 -93 -58 -149 -103 -216 -33 -51 -80 -138 -104 -194 -25 -56 -67 -133
-95 -170 -27 -37 -70 -111 -94 -163 -25 -52 -70 -127 -100 -165 -31 -39 -85
-116 -121 -170 -35 -55 -90 -131 -122 -170 -91 -110 -104 -165 -50 -215 55
-51 125 -36 225 49 30 26 84 67 120 91 36 24 97 73 135 110 39 36 97 88 130
115 33 27 92 81 132 121 125 125 140 130 444 126 289 -4 416 5 769 53 276 38
380 49 665 70 110 8 351 35 535 60 184 25 408 52 498 60 179 16 225 25 292 61
266 140 68 415 -383 530 -107 28 -278 15 -477 -35 -91 -23 -248 -55 -350 -72
-219 -35 -289 -53 -462 -119 -120 -46 -230 -74 -448 -115 -47 -9 -159 -41
-250 -70 -205 -67 -227 -71 -273 -51 -72 29 -72 81 -2 174 25 33 61 95 80 136
20 41 57 104 83 138 65 86 84 120 123 218 18 47 61 126 95 176 35 51 79 124
98 163 20 38 66 103 102 143 149 164 166 379 41 527 -120 143 -241 225 -421
285 -156 52 -194 55 -250 23z"/>
<path d="M2624 8331 c-88 -40 -106 -94 -98 -286 8 -159 -2 -221 -48 -330 -16
-38 -45 -112 -64 -163 -43 -117 -53 -136 -112 -214 -27 -35 -75 -104 -106
-153 -31 -50 -90 -128 -132 -175 -142 -160 -242 -275 -282 -325 -58 -74 -352
-362 -467 -458 -132 -110 -225 -269 -180 -307 35 -29 330 88 494 194 53 35
130 82 171 105 41 23 104 67 140 97 36 30 90 69 120 87 30 17 82 54 115 83 34
28 86 69 116 90 30 21 83 65 119 99 36 34 97 86 136 117 86 68 357 350 454
473 40 50 142 159 227 244 198 196 224 262 156 390 -45 82 -237 253 -348 308
-49 25 -110 59 -134 76 -96 66 -198 84 -277 48z"/>
<path d="M2285 6176 c-91 -41 -110 -110 -76 -273 45 -218 7 -458 -102 -651
-31 -53 -71 -143 -91 -199 -43 -126 -54 -148 -126 -248 -32 -44 -75 -116 -97
-160 -21 -44 -64 -114 -94 -155 -31 -41 -75 -110 -99 -152 -24 -43 -69 -107
-101 -143 -32 -36 -78 -94 -101 -128 -23 -34 -63 -84 -88 -112 -26 -27 -66
-78 -88 -112 -23 -34 -68 -92 -100 -130 -32 -37 -88 -107 -124 -154 -59 -75
-419 -447 -552 -569 -65 -59 -145 -227 -117 -244 32 -20 277 74 361 139 30 23
96 67 145 98 50 30 131 88 180 127 50 40 110 86 135 103 24 17 95 77 156 132
281 254 363 296 424 218 40 -51 43 -89 37 -503 -6 -421 -7 -436 -67 -702 -16
-73 -44 -218 -60 -323 -55 -340 -74 -423 -127 -556 -123 -303 -124 -544 -3
-774 32 -60 75 -157 95 -215 129 -361 337 -393 491 -76 93 191 86 77 95 1546
7 1336 8 1369 51 1584 32 164 4 283 -102 434 -72 103 -72 142 2 239 25 32 59
79 76 105 18 26 57 75 87 110 30 34 69 89 86 121 17 33 63 100 101 151 38 50
85 121 104 157 19 36 63 101 98 145 35 43 84 116 109 162 26 46 69 112 97 147
207 260 183 544 -57 681 -26 15 -91 54 -143 86 -154 95 -325 134 -415 94z"/>
<path d="M7325 5900 c-124 -39 -149 -185 -69 -388 102 -258 48 -549 -121 -648
-49 -28 -302 -84 -382 -84 -124 0 -165 102 -108 270 54 159 3 266 -192 398
-176 118 -192 125 -303 130 -224 10 -300 -71 -230 -244 64 -155 70 -179 90
-341 33 -266 0 -353 -146 -383 -430 -88 -464 -74 -464 184 0 136 -14 162 -138
267 -116 97 -166 122 -296 149 -336 69 -453 -67 -262 -305 97 -120 146 -339
94 -415 -35 -52 -94 -80 -195 -92 -203 -26 -293 35 -276 187 25 224 -22 334
-190 444 -280 182 -614 189 -594 12 7 -63 77 -194 152 -286 82 -100 100 -150
100 -275 0 -187 -53 -227 -315 -236 -308 -11 -379 -27 -413 -97 -34 -68 18
-132 141 -175 31 -11 98 -35 147 -52 81 -29 106 -33 253 -40 259 -13 310 -55
342 -285 91 -644 70 -705 -244 -726 -72 -4 -169 -13 -216 -19 -47 -6 -197 -14
-335 -18 -233 -7 -253 -9 -298 -31 -112 -54 -97 -162 30 -219 26 -11 103 -46
170 -76 279 -126 447 -126 768 -4 186 71 256 87 470 104 253 20 468 52 795
119 93 19 190 30 383 40 142 8 319 19 395 25 756 55 2028 55 2767 -1 401 -30
365 -59 365 293 0 315 0 315 -77 322 -43 4 -135 20 -204 36 -183 43 -469 36
-809 -21 -376 -63 -501 6 -400 219 44 94 57 138 79 273 82 505 103 523 636
526 439 3 475 10 541 107 135 198 -133 436 -525 466 -249 19 -284 62 -230 287
38 158 15 293 -67 400 -74 97 -506 238 -619 203z m-198 -1506 c84 -63 87 -142
14 -439 -29 -115 -68 -286 -87 -380 -66 -320 -91 -345 -375 -375 -266 -29
-303 16 -274 329 74 784 69 760 153 816 102 68 498 102 569 49z m-1199 -101
c76 -56 82 -122 58 -638 -23 -508 -30 -524 -274 -591 -187 -52 -298 -15 -330
111 -19 73 -26 862 -8 918 34 112 90 150 281 194 159 37 230 38 273 6z m-1138
-199 c94 -38 105 -78 145 -524 9 -96 23 -213 31 -260 43 -260 -40 -341 -356
-344 -179 -2 -208 37 -221 304 -5 91 -13 226 -19 300 -24 299 -24 307 -6 354
51 133 285 226 426 170z"/>
<path d="M7340 2223 c-115 -38 -122 -124 -19 -259 30 -38 73 -109 97 -159 24
-49 66 -120 93 -156 26 -36 67 -106 89 -155 23 -49 68 -125 99 -169 32 -44 79
-123 104 -175 25 -52 71 -128 102 -169 31 -41 77 -116 101 -165 170 -343 530
-366 600 -37 78 371 -89 762 -440 1027 -61 46 -131 100 -156 120 -25 20 -81
54 -125 76 -44 22 -113 65 -154 96 -112 83 -318 149 -391 125z"/>
<path d="M5765 2165 c-75 -27 -89 -73 -48 -153 106 -202 156 -288 197 -339 26
-32 66 -88 88 -125 232 -391 537 -477 681 -193 74 148 57 256 -68 435 -94 133
-145 172 -318 244 -49 20 -120 53 -159 72 -132 66 -284 90 -373 59z"/>
<path d="M3722 1984 c-44 -23 -73 -76 -116 -216 -32 -102 -44 -127 -102 -205
-36 -48 -84 -123 -105 -165 -21 -42 -61 -111 -88 -153 -250 -383 15 -990 336
-769 301 207 431 633 358 1179 -35 265 -148 397 -283 329z"/>
<path d="M4619 1981 c-69 -22 -106 -69 -94 -122 10 -46 142 -318 179 -370 18
-25 58 -94 89 -155 159 -309 357 -401 500 -234 166 194 84 568 -154 706 -30
17 -101 58 -159 92 -147 85 -265 112 -361 83z"/>
</g>
</svg>
