<svg xmlns="http://www.w3.org/2000/svg" viewBox="0 0 916.907227 812.860332">
<g transform="translate(-24.000000,825.163333) scale(0.100000,-0.100000)" fill="#000000" stroke="none">
<path d="M5070 8247 c-90 -29 -169 -150 -156 -241 27 -196 20 -262 -49 -476
-24 -74 -56 -186 -70 -248 -20 -84 -41 -141 -84 -225 -32 -62 -75 -164 -96
-227 -43 -131 -72 -192 -127 -270 -21 -30 -58 -104 -83 -163 -25 -61 -69 -143
-100 -187 -31 -44 -75 -124 -100 -180 -24 -55 -59 -120 -77 -143 -19 -23 -63
-85 -98 -137 -35 -52 -93 -133 -130 -180 -145 -185 -167 -241 -115 -290 40
-37 116 -35 177 5 112 74 256 191 418 341 307 285 309 286 512 260 183 -24
457 -7 893 54 201 28 430 51 635 65 129 9 313 30 570 65 118 16 306 39 416 50
350 35 463 102 438 261 -21 131 -154 223 -479 331 -92 30 -311 18 -495 -29
-91 -23 -248 -55 -350 -73 -241 -40 -291 -53 -438 -111 -138 -55 -224 -79
-396 -109 -138 -25 -283 -66 -401 -115 -228 -95 -338 16 -194 194 29 35 74
104 100 152 27 49 73 121 102 161 58 78 80 117 117 213 13 33 53 105 89 160
37 55 80 122 96 150 16 27 57 80 92 118 118 125 145 276 76 418 -38 76 -229
271 -303 309 -132 68 -330 117 -390 97z"/>
<path d="M2690 8129 c-91 -38 -115 -114 -106 -334 10 -239 -10 -354 -94 -555
-26 -63 -63 -173 -80 -245 -38 -150 -59 -203 -123 -300 -29 -46 -60 -114 -87
-195 -29 -90 -55 -145 -90 -197 -63 -93 -73 -112 -114 -228 -21 -58 -55 -126
-87 -173 -29 -42 -76 -126 -104 -187 -29 -60 -79 -144 -110 -185 -32 -41 -73
-106 -90 -145 -18 -38 -62 -110 -99 -159 -37 -50 -83 -120 -102 -156 -19 -36
-61 -99 -94 -140 -33 -40 -78 -105 -100 -144 -22 -39 -60 -96 -85 -126 -25
-30 -74 -98 -108 -150 -35 -52 -86 -120 -114 -150 -27 -30 -74 -89 -105 -130
-30 -41 -68 -86 -83 -100 -15 -14 -60 -68 -100 -120 -40 -52 -96 -117 -125
-145 -101 -97 -250 -304 -250 -347 0 -40 40 -78 82 -78 36 0 53 10 135 76 28
23 78 56 112 74 33 18 86 56 118 85 32 28 92 76 133 105 87 62 223 186 429
391 313 311 330 331 486 546 103 143 148 170 208 123 61 -49 62 -55 61 -710 0
-750 -16 -918 -124 -1345 -27 -107 -55 -249 -65 -325 -33 -270 -48 -358 -87
-510 -114 -439 -146 -825 -94 -1122 18 -99 24 -115 82 -218 24 -41 58 -119 78
-173 45 -129 73 -174 148 -241 128 -116 165 -103 316 111 152 214 157 253 173
1458 19 1428 26 1703 48 1935 33 341 39 416 46 575 4 88 19 220 35 320 75 445
63 546 -86 715 -143 162 -139 264 17 466 34 44 83 123 109 176 26 54 70 128
98 165 54 74 76 115 116 212 14 35 49 96 78 135 50 69 76 120 134 261 15 39
54 108 85 155 31 47 74 117 97 155 22 39 68 101 101 138 144 161 169 326 77
511 -33 64 -236 274 -303 311 -26 15 -90 53 -142 84 -101 59 -188 77 -251 50z"/>
<path d="M7325 5701 c-138 -35 -172 -141 -115 -361 96 -368 32 -639 -164 -699
-379 -116 -484 -61 -430 226 30 163 -16 261 -166 354 -30 18 -81 52 -113 76
-104 76 -236 107 -352 83 -139 -29 -174 -138 -95 -300 74 -149 109 -298 110
-455 0 -118 -54 -194 -152 -214 -413 -85 -468 -65 -468 166 -1 148 -10 167
-141 277 -129 108 -152 121 -292 152 -343 79 -447 -60 -255 -342 176 -257 140
-433 -93 -464 -292 -38 -353 20 -315 296 22 161 -54 269 -258 370 -294 144
-526 140 -526 -10 0 -54 77 -198 193 -359 64 -89 80 -134 79 -227 0 -152 -62
-202 -267 -214 -295 -19 -405 -60 -405 -154 0 -90 268 -210 510 -227 238 -17
248 -33 356 -625 35 -187 3 -314 -89 -359 -56 -27 -263 -47 -627 -61 -289 -11
-329 -18 -372 -60 -69 -69 -27 -146 110 -199 42 -16 120 -50 173 -75 225 -105
459 -110 712 -14 45 17 111 42 146 55 96 36 175 50 380 68 183 16 464 59 617
95 152 36 260 50 499 65 132 8 260 17 285 20 59 7 345 22 766 40 463 20 1665
-5 2184 -45 322 -25 305 -26 430 9 63 18 139 35 168 38 81 9 82 178 1 206 -41
15 -78 45 -199 162 -188 183 -207 193 -478 249 -190 40 -377 33 -802 -28 -408
-60 -495 3 -376 271 43 97 69 197 92 348 58 389 93 413 589 401 485 -12 593
23 603 198 4 85 -17 115 -158 221 -164 124 -211 144 -400 179 -250 47 -260 62
-220 326 27 173 -41 320 -187 405 -114 67 -422 153 -488 136z m-224 -1519 c77
-47 89 -144 38 -296 -41 -122 -73 -266 -109 -493 -53 -328 -72 -351 -317 -388
-274 -40 -349 3 -340 195 3 52 10 196 16 320 28 579 39 622 173 659 138 39
479 41 539 3z m-1203 -106 c77 -40 92 -158 64 -496 -7 -85 -17 -231 -22 -325
-5 -93 -14 -189 -21 -212 -54 -199 -458 -281 -561 -115 -23 37 -23 37 -24 472
-2 497 -1 509 67 577 89 90 396 151 497 99z m-1140 -175 c84 -43 102 -130 179
-899 12 -115 -44 -181 -189 -227 -273 -86 -349 -29 -383 289 -18 172 -49 379
-69 466 -36 152 -9 220 118 297 148 90 264 115 344 74z"/>
<path d="M7278 2015 c-91 -51 -77 -175 32 -299 32 -37 70 -98 99 -160 27 -56
69 -129 94 -162 26 -34 63 -95 82 -135 55 -115 75 -150 122 -211 24 -32 68
-106 97 -165 30 -59 74 -134 100 -167 25 -32 66 -99 91 -147 127 -245 343
-302 511 -134 115 114 134 468 35 659 -131 251 -238 383 -425 526 -50 38 -111
86 -136 106 -25 20 -76 52 -115 70 -38 18 -114 62 -167 97 -166 111 -347 164
-420 122z"/>
<path d="M5725 1975 c-101 -37 -104 -116 -7 -235 24 -30 66 -98 92 -152 26
-53 70 -123 97 -155 27 -32 73 -92 102 -134 209 -307 469 -409 590 -233 175
254 31 615 -299 753 -30 13 -100 45 -156 72 -155 75 -342 112 -419 84z"/>
<path d="M3693 1815 c-39 -17 -68 -61 -89 -135 -39 -138 -50 -166 -97 -232
-27 -39 -72 -119 -99 -177 -27 -57 -74 -138 -103 -178 -224 -307 -112 -854
174 -853 193 1 448 348 503 685 19 117 16 477 -5 579 -44 212 -177 358 -284
311z"/>
<path d="M4555 1776 c-95 -36 -100 -92 -19 -211 19 -28 54 -96 78 -152 24 -56
62 -128 84 -160 21 -32 65 -109 96 -171 182 -355 440 -363 530 -15 51 195 -74
468 -257 560 -40 19 -99 54 -131 76 -105 71 -290 106 -381 73z"/>
</g>
</svg>
