<svg xmlns="http://www.w3.org/2000/svg" viewBox="0 0 928.030770 747.301321">
<g transform="translate(0.000000,764.803612) scale(0.100000,-0.100000)" fill="#000000" stroke="none">
<path d="M4689 7627 c-88 -47 -104 -91 -105 -296 -1 -247 -21 -346 -103 -509
-17 -34 -51 -131 -75 -214 -53 -183 -63 -208 -121 -301 -25 -39 -57 -103 -71
-142 -38 -99 -76 -171 -124 -235 -23 -30 -61 -96 -85 -146 -24 -51 -70 -128
-103 -172 -32 -43 -78 -114 -101 -157 -23 -42 -67 -104 -97 -136 -30 -33 -76
-92 -101 -132 -25 -40 -77 -104 -114 -143 -93 -96 -103 -153 -36 -194 61 -38
114 -24 217 54 30 23 89 63 130 88 42 26 105 73 140 106 36 32 92 78 125 102
33 24 92 76 130 116 99 102 122 108 388 99 396 -14 839 18 1257 89 368 62 473
74 995 106 402 25 464 31 532 46 178 38 271 191 190 312 -42 64 -234 187 -327
210 -278 68 -703 31 -1082 -93 -115 -38 -218 -64 -335 -84 -205 -36 -266 -51
-407 -103 -286 -105 -618 -150 -667 -89 -48 59 -6 161 130 318 57 67 100 129
125 180 21 43 64 114 95 158 32 44 78 118 102 165 26 51 68 110 105 150 225
239 215 449 -33 661 -129 110 -162 127 -334 173 -161 42 -182 44 -240 13z"/>
<path d="M1175 6823 c-69 -18 -106 -86 -81 -148 14 -34 111 -136 246 -261 30
-28 120 -118 200 -199 80 -82 186 -180 235 -218 50 -39 109 -88 133 -109 206
-188 582 -165 670 40 124 289 -45 595 -382 691 -59 17 -155 54 -213 82 -122
59 -214 84 -338 94 -49 4 -142 13 -205 21 -113 14 -226 16 -265 7z"/>
<path d="M7018 5216 c-141 -38 -165 -121 -83 -284 41 -81 57 -163 59 -302 3
-216 -42 -272 -274 -348 -283 -93 -428 -53 -390 108 26 108 25 166 -4 225 -71
143 -397 347 -556 347 -205 0 -237 -114 -129 -452 85 -263 30 -414 -166 -459
-364 -82 -447 -55 -455 154 -6 146 -13 160 -131 255 -136 109 -248 150 -414
153 -226 4 -281 -106 -138 -277 189 -226 87 -487 -192 -490 -156 -2 -187 34
-195 229 -10 238 -86 322 -391 436 -142 53 -181 62 -254 63 -218 1 -228 -163
-25 -390 207 -232 158 -406 -121 -434 -522 -54 -652 -107 -595 -243 41 -99
339 -170 558 -132 376 65 424 0 480 -647 27 -319 59 -307 -887 -338 -332 -10
-373 -16 -405 -57 -43 -55 -15 -93 149 -195 284 -177 584 -185 1206 -33 197
48 251 56 520 80 217 19 400 45 640 90 226 42 236 43 435 55 91 6 248 19 350
30 605 64 2193 56 2980 -16 442 -40 521 -29 653 87 71 62 43 142 -101 292 -46
48 -365 208 -477 239 -216 60 -886 16 -1182 -79 -302 -96 -362 76 -179 517 19
47 51 145 70 218 50 185 72 224 156 268 45 24 374 26 668 5 225 -17 278 -11
389 44 210 104 174 219 -127 406 -71 44 -287 98 -495 124 -217 27 -237 52
-199 254 31 166 7 233 -127 350 -152 132 -432 198 -621 147z m-240 -1395 c87
-44 105 -113 68 -264 -14 -57 -32 -160 -41 -228 -59 -459 -117 -546 -391 -594
-317 -55 -386 16 -331 340 32 188 54 352 62 475 16 221 72 272 316 290 171 12
267 7 317 -19z m-1258 -62 c118 -25 149 -89 131 -266 -15 -152 -41 -557 -41
-644 0 -187 -63 -232 -335 -244 -282 -12 -279 -18 -283 498 -4 600 -4 601 373
656 85 12 98 12 155 0z m-1060 -202 c62 -30 90 -83 96 -180 2 -39 11 -193 20
-340 29 -471 -2 -526 -301 -543 -215 -13 -256 30 -276 291 -5 72 -17 223 -26
337 -20 262 -13 319 50 379 84 81 322 111 437 56z"/>
<path d="M93 5064 c-93 -16 -93 -16 -93 -80 0 -55 3 -64 18 -64 34 0 108 -57
182 -140 183 -201 517 -528 595 -580 44 -30 104 -73 133 -97 417 -339 913 148
564 554 -64 74 -157 143 -219 163 -21 7 -99 41 -174 76 -150 70 -234 94 -443
124 -76 12 -171 28 -210 36 -105 23 -246 26 -353 8z"/>
<path d="M2049 3695 c-23 -12 -82 -91 -292 -385 -137 -193 -195 -270 -247
-331 -31 -36 -72 -88 -90 -115 -18 -27 -61 -80 -95 -119 -34 -38 -87 -106
-119 -150 -32 -44 -82 -105 -110 -135 -29 -30 -82 -91 -118 -135 -36 -44 -80
-93 -98 -110 -17 -16 -54 -58 -81 -91 -27 -34 -81 -88 -121 -120 -40 -32 -99
-82 -130 -111 -32 -30 -96 -72 -146 -97 -218 -109 -251 -306 -102 -606 26 -52
64 -140 85 -195 44 -115 52 -130 115 -205 26 -30 74 -92 108 -136 291 -386
444 -244 592 546 36 191 50 239 106 360 23 52 64 166 89 254 48 168 56 186
116 281 41 65 65 125 100 248 15 54 41 108 81 170 32 49 72 127 88 171 49 128
62 156 114 235 27 42 73 130 102 198 29 67 71 151 93 186 58 92 89 165 97 227
15 130 -52 211 -137 165z"/>
<path d="M7069 1811 c-137 -45 -129 -175 21 -344 37 -42 79 -105 106 -160 26
-51 72 -126 104 -167 31 -41 78 -115 103 -165 25 -49 70 -121 100 -159 30 -37
75 -105 100 -150 44 -80 59 -99 165 -227 94 -112 156 -172 197 -190 326 -142
547 342 323 711 -24 41 -60 104 -78 139 -39 72 -209 247 -300 308 -30 20 -87
60 -125 89 -39 29 -115 74 -169 100 -55 25 -142 73 -194 106 -143 91 -279 133
-353 109z"/>
<path d="M5457 1767 c-125 -40 -116 -165 25 -337 30 -36 77 -98 106 -138 80
-110 304 -362 360 -405 179 -136 383 -65 438 153 65 257 -83 464 -436 609
-272 111 -412 144 -493 118z"/>
<path d="M3325 1596 c-53 -23 -82 -70 -119 -189 -27 -84 -46 -125 -75 -162
-47 -58 -124 -173 -164 -242 -15 -26 -47 -76 -72 -111 -119 -168 -127 -496
-14 -612 259 -266 661 3 724 484 68 519 -70 928 -280 832z"/>
<path d="M4247 1586 c-128 -46 -123 -133 20 -345 47 -68 109 -174 138 -236 96
-200 280 -345 398 -315 165 44 237 233 182 479 -51 223 -527 492 -738 417z"/>
</g>
</svg>
