<svg xmlns="http://www.w3.org/2000/svg" viewBox="0 0 877.378990 847.152003">
<g transform="translate(-23.079370,846.445837) scale(0.100000,-0.100000)" fill="#000000" stroke="none">
<path d="M5687 8456 c-158 -57 -209 -167 -149 -319 105 -261 108 -937 7 -1438
-57 -280 -124 -339 -432 -379 -87 -12 -201 -27 -253 -35 -207 -31 -393 -47
-560 -50 -218 -3 -263 -19 -291 -102 -57 -173 411 -300 992 -270 327 17 387
-59 289 -366 -45 -143 -65 -250 -80 -427 -33 -379 -75 -400 -960 -474 -102 -9
-205 -18 -230 -20 -83 -8 -203 13 -325 55 -263 91 -348 -15 -261 -327 36 -131
96 -416 117 -560 16 -114 24 -920 10 -1075 -14 -150 -42 -349 -81 -564 -169
-945 -132 -1366 130 -1509 160 -87 340 70 370 323 5 42 12 627 15 1301 12
2055 8 1860 36 1909 43 78 129 106 489 161 74 11 166 29 205 40 91 25 233 46
410 60 215 16 545 50 590 60 302 70 419 -103 316 -468 -69 -246 -80 -273 -160
-394 -104 -157 -147 -183 -330 -200 -260 -25 -306 22 -214 217 89 189 46 281
-207 441 -367 233 -563 173 -411 -125 21 -42 53 -111 70 -153 18 -42 58 -113
90 -156 163 -226 150 -297 -60 -327 -218 -32 -309 -82 -309 -168 0 -96 130
-138 430 -141 279 -2 311 -23 384 -254 87 -277 14 -325 -684 -448 -205 -36
-280 -79 -280 -161 0 -125 230 -183 510 -130 333 64 412 56 465 -49 19 -37 20
-66 27 -639 8 -806 21 -868 178 -883 125 -12 214 70 259 240 41 150 112 802
130 1193 10 225 29 277 115 322 66 34 80 36 761 73 392 22 430 27 480 74 202
191 -254 441 -650 357 -609 -130 -611 -129 -635 155 -5 66 -14 135 -20 154
-42 144 12 176 385 225 424 57 636 145 651 272 15 117 -153 189 -408 176 -219
-11 -275 65 -160 218 15 20 56 74 91 120 118 154 149 258 112 364 -39 109 -26
166 46 201 48 23 659 41 778 24 333 -50 461 -340 436 -987 -20 -518 -41 -942
-51 -1054 -5 -57 -14 -181 -20 -274 -9 -156 -33 -394 -61 -605 -24 -181 -148
-409 -252 -466 -118 -64 -487 -2 -665 112 -194 124 -295 10 -148 -166 25 -30
59 -80 76 -112 17 -31 51 -83 76 -115 85 -110 103 -140 140 -234 21 -51 62
-129 91 -172 30 -42 69 -110 87 -150 18 -39 57 -101 87 -135 77 -90 107 -138
114 -183 10 -60 359 -62 370 -1 10 59 49 107 128 161 92 62 244 222 305 321
25 41 70 105 99 141 76 95 94 143 167 442 107 437 113 517 136 1702 18 912 19
928 114 1111 29 55 65 133 81 172 43 109 98 164 180 182 57 11 50 295 -7 304
-66 11 -122 42 -200 113 -54 51 -97 78 -183 118 -62 29 -139 72 -171 96 -69
51 -87 60 -294 135 -211 77 -269 81 -431 31 -168 -53 -181 -55 -464 -77 -315
-24 -538 -51 -750 -90 -566 -102 -727 -108 -782 -24 -27 43 -21 93 23 171 58
102 61 111 93 286 36 191 57 258 140 431 97 205 122 221 374 237 243 15 414
43 677 110 85 22 238 53 340 69 302 48 311 50 359 74 175 89 222 248 105 355
-199 182 -459 210 -749 81 -128 -56 -177 -71 -349 -101 -66 -12 -183 -41 -258
-65 -349 -111 -415 -51 -308 280 27 84 56 198 65 252 26 154 51 243 103 366
27 62 63 163 81 223 18 61 48 146 68 189 82 182 51 262 -158 411 -142 101
-170 116 -269 144 -41 12 -109 33 -150 46 -103 32 -139 36 -183 21z"/>
<path d="M2603 8372 c-102 -41 -124 -86 -121 -254 1 -117 -1 -131 -45 -299
-63 -236 -68 -250 -136 -343 -32 -45 -75 -112 -96 -151 -21 -38 -62 -99 -90
-135 -28 -36 -78 -105 -110 -155 -31 -49 -83 -119 -114 -154 -31 -36 -76 -90
-101 -121 -122 -152 -506 -550 -650 -673 -52 -44 -129 -113 -170 -151 -41 -39
-104 -93 -140 -121 -239 -185 -31 -308 220 -130 36 26 108 68 160 95 52 28
138 83 191 123 53 40 133 92 177 116 44 24 105 65 134 91 29 26 87 68 128 95
41 26 98 69 125 95 28 26 80 70 116 97 138 102 773 723 892 873 104 131 219
263 300 343 115 113 144 203 98 302 -23 49 -223 246 -308 304 -34 22 -92 64
-128 91 -102 77 -233 102 -332 62z"/>
<path d="M2907 6366 c-82 -30 -111 -84 -133 -248 -19 -150 -28 -178 -80 -276
-24 -45 -58 -117 -74 -158 -43 -107 -66 -150 -120 -224 -26 -36 -66 -101 -88
-145 -23 -44 -69 -113 -102 -154 -33 -40 -81 -110 -106 -155 -26 -44 -75 -115
-109 -156 -34 -42 -75 -100 -93 -130 -17 -30 -50 -77 -72 -105 -22 -27 -66
-84 -97 -125 -31 -41 -89 -111 -128 -156 -38 -44 -98 -114 -132 -155 -90 -109
-534 -555 -637 -640 -48 -41 -123 -101 -165 -134 -145 -114 -336 -274 -379
-318 -23 -24 -60 -57 -82 -73 -181 -136 -20 -269 169 -139 86 59 141 88 253
134 42 18 114 59 160 92 46 33 117 78 159 100 42 22 106 64 142 94 37 31 99
76 139 102 40 25 105 72 143 103 39 31 102 77 141 102 40 26 98 77 134 118
128 143 265 151 301 17 15 -56 5 -479 -15 -652 -8 -71 -22 -238 -31 -370 -27
-419 -56 -632 -124 -895 -50 -197 -63 -270 -116 -700 -7 -55 30 -433 50 -510
42 -163 204 -418 291 -460 173 -84 347 186 384 595 10 111 21 558 40 1630 16
883 27 1177 46 1270 45 218 20 380 -73 486 -110 126 -111 203 -4 314 26 28 70
79 96 115 27 36 71 90 97 120 27 30 70 86 96 125 26 38 74 101 107 140 34 38
87 106 119 149 32 43 75 97 96 120 21 23 62 79 90 126 29 47 74 110 100 140
120 140 202 292 202 371 0 74 -101 243 -189 318 -198 166 -220 182 -267 196
-60 18 -89 18 -139 1z"/>
</g>
</svg>
