<svg xmlns="http://www.w3.org/2000/svg" viewBox="0 0 761.545939 581.815464">
<g transform="translate(-19.402821,601.710503) scale(0.100000,-0.100000)" fill="#000000" stroke="none">
<path d="M3972 6007 c-56 -18 -118 -82 -169 -175 -25 -48 -68 -115 -94 -148
-27 -34 -79 -109 -116 -167 -38 -58 -95 -146 -128 -196 -136 -205 -184 -279
-260 -395 -44 -68 -101 -152 -126 -187 -25 -35 -60 -91 -79 -124 -18 -33 -58
-96 -90 -140 -31 -44 -80 -116 -107 -161 -28 -45 -73 -110 -100 -146 -28 -36
-69 -100 -92 -142 -23 -41 -67 -110 -98 -153 -31 -43 -78 -114 -106 -158 -27
-44 -71 -110 -98 -146 -26 -36 -72 -106 -101 -155 -29 -50 -81 -131 -116 -180
-104 -146 -208 -303 -268 -404 -31 -52 -82 -131 -114 -175 -85 -120 -228 -336
-287 -433 -29 -48 -87 -136 -128 -197 -117 -168 -200 -292 -252 -378 -26 -43
-72 -112 -100 -155 -29 -42 -79 -117 -110 -165 -32 -48 -86 -128 -120 -177
-35 -49 -85 -127 -112 -174 -27 -47 -75 -120 -108 -163 -32 -43 -77 -112 -100
-153 -23 -41 -69 -109 -104 -150 -124 -150 -126 -227 -9 -291 56 -31 7172 -24
7463 8 85 9 90 157 6 186 -75 27 -130 83 -185 190 -26 51 -68 124 -94 162 -26
39 -64 99 -84 135 -21 36 -66 103 -100 150 -35 47 -82 121 -106 165 -23 43
-64 109 -91 145 -26 36 -68 101 -94 145 -26 44 -73 116 -104 160 -32 44 -77
116 -100 160 -24 45 -67 114 -98 155 -30 41 -80 118 -110 170 -31 52 -75 120
-99 153 -24 32 -62 93 -85 135 -23 42 -72 120 -110 172 -37 52 -87 129 -110
170 -24 41 -65 105 -91 142 -27 36 -68 103 -93 147 -24 44 -71 116 -104 160
-32 44 -78 115 -102 158 -23 43 -68 114 -99 158 -32 44 -72 107 -90 140 -18
33 -64 104 -102 157 -38 53 -91 138 -119 189 -27 50 -69 117 -93 148 -23 31
-67 97 -96 146 -29 50 -75 121 -102 159 -28 38 -69 103 -91 145 -22 42 -68
114 -102 161 -34 47 -82 119 -105 160 -24 41 -71 116 -105 165 -35 50 -75 115
-90 145 -15 30 -58 98 -95 150 -37 52 -86 129 -110 170 -23 41 -66 107 -95
145 -29 39 -67 98 -84 132 -68 137 -140 182 -239 150z m114 -586 c40 -24 70
-64 128 -170 25 -46 68 -114 95 -150 27 -36 70 -104 96 -151 27 -47 76 -124
110 -171 34 -48 81 -122 105 -165 23 -44 64 -108 90 -144 27 -36 69 -101 95
-145 26 -44 73 -116 105 -161 32 -44 81 -122 109 -173 28 -51 72 -122 99 -159
27 -37 68 -101 92 -142 23 -41 68 -111 100 -155 32 -44 75 -112 96 -150 20
-39 67 -113 104 -165 37 -52 86 -128 109 -168 23 -40 71 -115 106 -167 36 -52
77 -119 91 -147 14 -29 55 -91 89 -138 34 -47 84 -123 110 -170 26 -47 69
-115 96 -151 27 -36 69 -102 93 -147 25 -44 72 -117 105 -162 34 -45 81 -119
107 -166 25 -46 65 -110 88 -142 24 -32 69 -103 101 -157 33 -55 84 -136 116
-180 31 -44 73 -112 94 -151 21 -39 64 -107 96 -150 31 -43 76 -112 100 -154
23 -41 65 -107 94 -145 109 -148 113 -219 14 -271 -33 -17 -6257 -22 -6332 -5
-135 31 -129 78 39 330 60 90 137 209 172 265 35 55 87 132 117 171 29 38 71
99 92 135 22 36 73 115 114 176 41 62 96 145 122 185 26 41 74 112 106 159
109 161 176 262 239 363 35 56 87 133 117 172 29 38 72 101 95 139 23 38 72
114 110 170 37 55 93 139 124 186 31 47 85 128 120 180 111 164 159 237 229
348 38 59 90 136 117 172 26 36 74 106 106 157 61 95 141 216 231 351 29 42
83 124 122 182 38 58 95 142 126 187 32 46 83 124 114 175 31 51 75 117 98
146 23 29 65 92 94 140 29 48 71 112 94 142 23 30 72 105 109 165 117 190 193
236 292 176z"/>
</g>
</svg>
