<svg xmlns="http://www.w3.org/2000/svg" viewBox="0 0 791.979143 618.062821">
<g transform="translate(0.000000,640.000000) scale(0.100000,-0.100000)" fill="#000000" stroke="none">
<path d="M3966 6388 c-3 -7 -7 -24 -10 -38 -8 -38 -170 -284 -259 -394 -26
-31 -67 -99 -91 -149 -27 -56 -67 -119 -103 -162 -33 -38 -79 -104 -103 -145
-23 -41 -66 -105 -95 -141 -30 -36 -72 -103 -93 -150 -24 -52 -64 -114 -104
-163 -36 -43 -83 -110 -104 -149 -22 -39 -63 -100 -93 -136 -29 -37 -73 -107
-97 -156 -27 -58 -66 -117 -107 -165 -36 -41 -82 -106 -103 -145 -21 -38 -62
-101 -92 -140 -30 -38 -76 -113 -102 -165 -29 -57 -72 -122 -107 -162 -33 -37
-78 -102 -102 -146 -23 -43 -64 -105 -90 -138 -27 -32 -70 -100 -95 -150 -27
-53 -74 -123 -111 -165 -35 -41 -84 -112 -109 -159 -25 -47 -65 -109 -90 -139
-24 -29 -64 -94 -90 -145 -28 -56 -70 -119 -110 -164 -35 -40 -83 -108 -105
-150 -22 -42 -65 -111 -96 -152 -31 -41 -74 -109 -96 -151 -21 -42 -65 -108
-99 -145 -33 -38 -80 -108 -105 -156 -25 -48 -68 -116 -96 -150 -28 -35 -71
-102 -96 -150 -25 -50 -72 -118 -108 -158 -35 -38 -82 -107 -105 -153 -24 -45
-69 -117 -101 -159 -32 -43 -74 -108 -93 -145 -20 -37 -63 -102 -96 -142 -33
-41 -76 -106 -96 -144 -49 -94 -94 -141 -159 -168 -55 -23 -55 -23 -55 -115 0
-92 0 -92 32 -99 18 -4 72 -18 120 -31 87 -25 87 -25 3760 -29 2020 -2 3706
-5 3746 -6 87 -1 179 37 231 97 45 51 42 85 -19 178 -28 43 -68 112 -90 155
-21 43 -61 106 -89 141 -27 34 -73 104 -101 154 -28 51 -72 117 -97 147 -24
30 -67 99 -93 154 -32 64 -71 125 -110 170 -35 40 -79 106 -103 155 -23 46
-66 116 -95 155 -29 38 -73 108 -98 155 -24 47 -69 114 -100 149 -33 38 -76
105 -105 164 -27 54 -71 127 -98 161 -27 33 -70 99 -95 145 -26 47 -64 105
-84 129 -65 77 -89 115 -122 193 -20 48 -56 106 -94 154 -35 42 -82 112 -105
155 -22 43 -64 106 -92 141 -29 35 -73 109 -100 164 -31 64 -70 125 -108 169
-34 38 -81 108 -105 156 -25 47 -66 113 -91 146 -26 32 -69 102 -95 154 -30
58 -72 122 -110 164 -42 47 -76 99 -105 160 -23 50 -68 125 -100 166 -31 41
-74 108 -95 150 -21 41 -64 104 -95 140 -38 42 -74 100 -105 165 -26 55 -72
131 -102 168 -30 38 -74 104 -97 147 -22 43 -66 109 -97 146 -32 39 -77 112
-104 169 -28 59 -69 124 -99 160 -29 33 -72 98 -96 145 -25 47 -69 114 -98
150 -80 96 -117 182 -117 273 0 37 0 37 -105 37 -76 0 -107 -4 -109 -12z m154
-1020 c40 -21 51 -35 100 -128 30 -58 75 -130 99 -160 24 -30 61 -92 82 -137
24 -48 66 -113 106 -160 41 -48 81 -109 104 -158 20 -44 62 -114 93 -155 32
-41 77 -113 102 -160 24 -47 69 -114 101 -150 36 -42 72 -99 101 -160 24 -52
68 -125 98 -162 29 -36 75 -105 101 -152 26 -48 69 -112 96 -144 28 -32 70
-100 97 -158 31 -64 71 -128 110 -175 34 -41 80 -110 102 -154 23 -44 65 -111
96 -150 30 -38 74 -110 98 -160 27 -56 66 -117 104 -160 36 -41 77 -103 100
-150 21 -45 63 -114 94 -155 31 -41 75 -113 99 -159 23 -46 68 -113 100 -150
38 -43 76 -101 107 -166 26 -55 70 -128 98 -163 28 -34 69 -97 91 -140 23 -42
68 -111 102 -152 34 -41 73 -100 86 -130 49 -109 57 -123 119 -198 118 -142
128 -290 22 -344 -43 -22 -5868 -29 -5925 -7 -72 27 -79 68 -34 200 38 114 61
157 123 228 29 33 73 98 97 144 24 46 73 117 108 158 36 41 80 106 99 146 19
39 63 110 99 158 35 47 81 117 100 154 20 37 63 98 96 135 34 39 78 105 103
154 24 48 69 118 100 157 30 38 74 104 97 146 22 43 67 107 99 143 33 36 80
106 105 156 26 49 69 118 97 152 27 35 71 100 96 147 26 46 73 113 106 150 32
36 77 104 101 151 24 47 66 114 95 150 28 36 73 102 98 149 26 46 73 113 106
150 32 36 77 104 101 151 23 47 67 117 97 155 30 39 74 105 97 148 24 43 70
109 102 145 33 37 80 107 106 157 25 49 69 119 98 155 29 36 72 100 96 144 24
43 70 108 102 145 34 38 79 108 108 164 98 193 206 262 319 205z"/>
</g>
</svg>
