<svg xmlns="http://www.w3.org/2000/svg" viewBox="0 0 557.318977 437.473358">
<g transform="translate(-19.418832,437.473358) scale(0.100000,-0.100000)" fill="#000000" stroke="none">
<path d="M2925 4341 c-60 -35 -82 -63 -133 -173 -26 -56 -60 -106 -103 -154
-36 -40 -85 -109 -109 -155 -25 -46 -69 -113 -97 -149 -29 -36 -72 -100 -95
-143 -24 -43 -73 -118 -110 -166 -36 -49 -82 -120 -102 -158 -20 -37 -63 -102
-96 -143 -33 -41 -78 -109 -99 -150 -22 -42 -67 -111 -100 -153 -33 -43 -79
-113 -102 -155 -23 -42 -65 -106 -94 -142 -29 -36 -76 -107 -104 -159 -28 -51
-75 -123 -104 -160 -30 -36 -75 -104 -101 -151 -26 -46 -71 -114 -100 -150
-29 -36 -72 -102 -96 -147 -24 -44 -69 -114 -101 -155 -33 -40 -77 -108 -99
-150 -22 -42 -66 -108 -98 -147 -31 -39 -77 -109 -102 -156 -25 -46 -68 -112
-97 -146 -28 -34 -72 -101 -98 -149 -26 -49 -73 -119 -104 -157 -32 -37 -77
-104 -101 -148 -24 -44 -60 -102 -80 -130 -72 -96 -92 -156 -105 -317 -7 -78
-7 -78 2786 -78 2792 0 2792 0 2786 78 -11 137 -97 322 -236 508 -34 45 -82
119 -107 165 -25 46 -74 122 -108 169 -35 47 -80 116 -100 155 -21 38 -64 106
-96 150 -32 44 -77 116 -100 160 -24 44 -69 114 -100 155 -31 41 -76 110 -100
154 -24 43 -68 111 -97 150 -30 39 -72 105 -93 146 -21 41 -69 118 -107 170
-39 52 -87 127 -107 165 -20 39 -63 106 -95 150 -33 43 -77 113 -100 155 -22
41 -67 111 -100 155 -34 44 -80 116 -102 160 -23 44 -66 112 -95 151 -29 39
-74 108 -100 155 -25 46 -71 117 -100 157 -30 40 -77 113 -103 162 -27 49 -75
124 -108 167 -32 43 -77 114 -100 158 -23 44 -67 109 -99 145 -34 39 -72 99
-97 150 -85 182 -166 224 -292 151z m175 -429 c14 -10 48 -61 75 -114 28 -52
74 -124 102 -159 28 -36 74 -106 102 -157 27 -51 72 -123 100 -160 27 -37 72
-107 101 -157 28 -49 72 -116 97 -149 25 -32 70 -103 100 -159 30 -55 75 -128
102 -161 27 -34 70 -99 96 -146 26 -47 71 -117 100 -156 29 -38 77 -115 107
-170 29 -54 76 -129 104 -164 27 -36 71 -104 97 -150 26 -47 72 -117 101 -157
29 -40 72 -107 94 -151 23 -43 69 -116 104 -163 35 -46 82 -120 106 -164 23
-44 67 -113 97 -153 30 -41 72 -108 95 -149 22 -42 68 -112 101 -156 33 -44
78 -115 99 -158 22 -43 59 -102 84 -132 123 -151 145 -260 65 -319 -30 -22
-4616 -30 -4699 -8 -121 33 -82 225 85 420 31 36 77 103 102 149 25 46 72 116
103 155 31 39 76 108 100 153 24 45 69 114 101 153 32 39 75 103 96 143 21 39
66 106 100 150 35 43 81 113 103 155 22 43 67 111 100 152 34 41 79 108 101
150 21 41 66 108 99 148 33 41 78 108 100 150 22 43 67 111 100 152 32 41 78
109 100 150 22 41 67 108 99 148 32 41 77 109 100 153 23 43 70 114 104 157
34 43 80 110 101 150 21 39 65 104 97 144 32 40 77 107 100 150 22 42 67 109
100 150 32 40 80 113 105 161 74 138 183 185 274 119z"/>
</g>
</svg>
