<svg xmlns="http://www.w3.org/2000/svg" viewBox="0 0 677.461179 439.880313">
<g transform="translate(-8.348689,440.062280) scale(0.100000,-0.100000)" fill="#000000" stroke="none">
<path d="M3452 4378 c-18 -13 -59 -55 -90 -95 -130 -163 -201 -251 -268 -332
-39 -47 -102 -129 -142 -181 -68 -91 -187 -245 -354 -457 -42 -54 -108 -134
-145 -179 -93 -111 -196 -240 -272 -343 -35 -47 -87 -113 -115 -147 -28 -34
-79 -99 -114 -145 -34 -46 -81 -107 -105 -135 -119 -143 -371 -460 -440 -553
-34 -47 -81 -107 -104 -135 -23 -28 -81 -100 -128 -161 -47 -60 -135 -171
-195 -245 -60 -74 -142 -178 -182 -230 -39 -52 -95 -122 -123 -155 -28 -33
-79 -98 -112 -145 -34 -47 -71 -94 -83 -105 -11 -10 -44 -51 -73 -90 -28 -38
-76 -99 -106 -135 -30 -36 -67 -94 -83 -130 -16 -36 -41 -90 -54 -120 -14 -30
-46 -77 -71 -105 -46 -50 -46 -50 3357 -53 1872 -1 3405 0 3408 2 7 8 -87 278
-112 322 -13 22 -86 119 -162 215 -76 95 -164 208 -194 251 -117 164 -189 257
-455 593 -38 49 -97 125 -130 170 -156 213 -335 447 -453 594 -70 87 -238 307
-332 437 -84 115 -239 316 -316 408 -27 34 -68 86 -89 116 -22 30 -73 98 -115
151 -41 53 -101 132 -132 175 -32 43 -105 140 -162 214 -58 74 -140 180 -183
235 -42 55 -97 123 -121 150 -25 28 -74 93 -109 147 -125 189 -248 260 -341
196z m126 -412 c37 -19 96 -84 172 -186 35 -47 93 -121 130 -165 72 -87 205
-262 315 -414 72 -101 140 -189 304 -397 142 -179 263 -338 332 -434 55 -78
102 -139 368 -480 140 -178 154 -197 386 -510 44 -59 112 -147 150 -195 169
-212 279 -355 446 -586 31 -42 80 -105 108 -139 104 -125 114 -216 29 -261
-35 -19 -5642 -12 -5678 6 -98 50 -69 163 86 336 32 37 87 104 121 150 35 46
112 145 173 219 60 74 131 162 157 194 27 33 74 92 106 130 32 39 96 121 142
181 47 61 114 148 150 195 36 47 89 114 118 149 29 35 81 100 117 145 36 45
99 122 140 172 107 128 242 299 465 589 46 61 138 175 205 255 66 80 148 181
182 225 34 44 83 105 108 135 26 30 73 91 105 135 32 44 79 105 105 135 26 30
104 130 173 222 165 217 198 239 285 194z"/>
</g>
</svg>
