<svg xmlns="http://www.w3.org/2000/svg" viewBox="0 0 747.754179 583.732264">
<g transform="translate(-23.777359,593.333056) scale(0.100000,-0.100000)" fill="#000000" stroke="none">
<path d="M4016 5928 c-77 -17 -136 -75 -210 -208 -26 -47 -73 -118 -104 -157
-32 -39 -77 -107 -101 -150 -24 -43 -65 -108 -92 -145 -27 -38 -68 -98 -90
-135 -23 -37 -71 -108 -106 -158 -36 -49 -83 -123 -106 -164 -22 -40 -67 -110
-99 -154 -33 -43 -78 -109 -100 -146 -22 -36 -67 -103 -99 -147 -32 -45 -77
-115 -100 -155 -23 -41 -68 -110 -99 -154 -32 -44 -84 -121 -116 -172 -33 -51
-84 -129 -115 -175 -31 -46 -78 -118 -105 -160 -27 -42 -119 -182 -205 -310
-86 -128 -168 -255 -184 -283 -16 -27 -48 -76 -72 -107 -24 -32 -72 -102 -106
-155 -34 -54 -83 -127 -108 -163 -25 -36 -65 -99 -89 -140 -24 -41 -71 -113
-105 -160 -35 -47 -87 -123 -116 -170 -29 -47 -70 -109 -92 -138 -21 -30 -61
-93 -89 -140 -27 -48 -78 -125 -113 -172 -34 -47 -82 -116 -105 -155 -24 -38
-62 -97 -85 -130 -23 -33 -71 -107 -107 -165 -35 -58 -91 -142 -123 -187 -33
-45 -109 -159 -170 -254 -60 -94 -139 -210 -174 -257 -97 -132 -114 -198 -71
-282 41 -80 93 -97 234 -75 140 22 6941 18 7042 -5 139 -30 224 102 154 239
-27 55 -152 246 -214 331 -27 36 -63 94 -81 130 -18 36 -59 101 -91 145 -31
44 -84 125 -117 180 -32 55 -80 129 -107 165 -26 36 -64 97 -85 135 -21 39
-68 113 -105 165 -37 52 -86 129 -110 170 -24 41 -64 104 -90 140 -26 36 -71
106 -99 157 -28 51 -78 129 -112 175 -33 45 -72 104 -85 130 -13 26 -57 96
-97 155 -40 60 -88 135 -106 168 -18 33 -64 103 -101 155 -37 52 -89 133 -114
179 -25 46 -68 114 -95 150 -26 36 -68 100 -91 141 -24 41 -72 116 -108 165
-35 50 -78 117 -94 150 -17 33 -61 103 -98 155 -37 52 -80 118 -95 145 -16 28
-61 97 -100 155 -40 58 -88 137 -109 175 -20 39 -63 106 -95 150 -33 44 -79
113 -102 155 -23 41 -68 111 -99 155 -32 44 -74 112 -95 150 -21 39 -66 108
-100 155 -34 47 -85 128 -115 180 -29 52 -65 111 -81 131 -15 19 -55 81 -88
138 -33 56 -86 134 -116 173 -30 39 -76 113 -100 164 -55 113 -94 140 -179
122z m73 -593 c41 -21 77 -67 123 -159 22 -45 68 -119 103 -166 34 -47 77
-112 95 -145 18 -33 61 -100 95 -150 34 -49 83 -127 108 -172 25 -45 65 -108
89 -140 45 -60 84 -120 133 -208 15 -27 50 -80 76 -116 27 -36 69 -102 93
-147 25 -44 72 -116 104 -160 32 -44 78 -115 102 -158 24 -44 71 -119 105
-169 34 -49 77 -117 95 -150 19 -33 64 -103 101 -155 37 -52 80 -122 97 -155
16 -33 56 -96 88 -140 31 -44 84 -125 117 -180 32 -55 80 -129 107 -165 26
-36 64 -96 85 -135 21 -38 68 -113 105 -165 37 -52 89 -133 115 -180 27 -47
65 -108 86 -135 21 -28 61 -91 90 -140 28 -50 77 -126 108 -170 32 -44 80
-118 106 -165 26 -47 69 -114 95 -150 26 -36 67 -99 90 -141 23 -41 69 -113
102 -160 34 -46 80 -119 104 -162 24 -43 66 -106 94 -139 109 -130 113 -210
16 -282 -43 -32 -6237 -33 -6300 -1 -121 61 -109 152 43 349 43 56 91 121 106
146 44 69 231 356 288 440 28 41 119 179 203 305 84 127 175 264 203 305 216
322 324 486 365 550 25 41 74 114 109 162 73 103 157 230 247 373 36 58 92
142 125 187 33 45 80 114 105 155 42 68 68 107 226 343 34 52 89 135 121 183
32 48 86 128 120 176 34 49 87 131 119 182 31 51 76 119 100 151 24 31 67 94
95 140 29 46 73 112 99 148 26 36 72 106 102 155 30 50 81 127 115 172 34 45
83 119 109 163 96 162 187 220 273 175z"/>
</g>
</svg>
