<svg xmlns="http://www.w3.org/2000/svg" viewBox="0 0 952.458752 820.892450">
<g transform="translate(-25.239322,840.000000) scale(0.100000,-0.100000)" fill="#000000" stroke="none">
<path d="M2430 8158 c0 -371 -28 -515 -125 -657 -30 -44 -73 -118 -94 -164
-25 -52 -62 -107 -99 -148 -32 -35 -79 -91 -104 -124 -25 -33 -63 -76 -83 -95
-21 -19 -58 -62 -82 -95 -126 -171 -327 -378 -528 -543 -235 -194 -264 -229
-265 -314 -1 -122 207 -87 455 77 61 40 133 84 160 98 28 14 73 43 102 64 28
21 87 65 132 98 44 33 111 81 148 107 160 112 292 212 343 261 30 29 77 71
105 93 45 35 179 170 386 389 42 44 95 106 119 139 23 32 104 122 180 200 179
184 206 247 151 354 -35 68 -216 231 -325 292 -109 61 -159 109 -177 169 -12
41 -12 41 -206 41 -193 0 -193 0 -193 -242z"/>
<path d="M4821 8182 c-132 -48 -144 -107 -58 -277 201 -394 221 -538 222
-1600 0 -983 32 -887 -320 -966 -99 -22 -225 -51 -280 -64 -147 -35 -256 -52
-480 -74 -249 -26 -516 -66 -572 -87 -166 -62 -119 -248 76 -303 36 -10 125
-36 196 -57 162 -47 219 -48 406 -6 75 17 205 43 288 56 112 19 182 37 273 72
259 97 358 64 345 -115 -7 -97 -50 -379 -82 -541 -13 -69 -31 -168 -40 -220
-23 -140 -42 -210 -96 -355 -56 -154 -81 -250 -104 -400 -20 -131 -36 -176
-102 -286 -28 -46 -65 -122 -83 -169 -42 -111 -53 -132 -110 -210 -26 -36 -67
-103 -91 -148 -24 -46 -65 -109 -91 -140 -26 -32 -73 -92 -104 -135 -56 -78
-290 -337 -305 -337 -4 0 -59 -48 -122 -107 -63 -60 -157 -147 -208 -194 -96
-87 -281 -220 -412 -296 -71 -41 -137 -83 -231 -148 -27 -19 -78 -44 -114 -57
-83 -29 -132 -73 -132 -117 0 -135 206 -138 501 -8 181 80 189 83 296 112 112
31 151 49 245 115 37 26 103 62 145 79 43 17 101 49 128 71 28 22 93 71 146
110 54 39 124 94 156 123 32 29 86 74 120 99 33 26 83 74 112 106 109 126 205
124 290 -7 21 -33 61 -90 88 -128 28 -37 71 -108 96 -158 26 -49 67 -115 92
-145 26 -30 69 -88 97 -128 291 -417 790 -88 617 406 -52 147 -84 186 -215
265 -34 20 -88 58 -120 83 -71 55 -123 82 -229 119 -287 100 -342 255 -171
480 70 91 78 109 121 254 22 76 59 168 95 240 48 93 68 147 100 272 22 86 56
192 76 235 55 120 72 176 94 306 47 278 158 311 269 81 23 -48 62 -122 87
-164 24 -42 62 -119 83 -172 21 -54 60 -125 88 -164 55 -74 77 -114 116 -210
14 -35 51 -98 81 -142 31 -43 80 -130 109 -192 30 -63 74 -141 99 -174 25 -33
68 -106 96 -161 28 -56 75 -132 104 -170 29 -38 73 -112 99 -164 26 -52 71
-127 101 -166 30 -40 73 -108 97 -153 24 -44 67 -109 96 -144 29 -35 79 -104
110 -153 32 -49 78 -111 103 -139 25 -27 65 -81 90 -120 24 -38 69 -99 100
-135 30 -36 83 -108 117 -160 109 -168 287 -322 410 -355 165 -45 925 -22
1297 40 81 14 233 36 337 49 194 25 233 37 283 84 75 70 24 183 -100 223 -20
6 -89 37 -152 68 -63 32 -160 70 -215 86 -112 31 -151 48 -246 111 -36 24
-105 60 -152 80 -47 19 -110 53 -139 74 -29 22 -72 53 -96 70 -23 17 -73 46
-110 65 -37 18 -108 63 -157 100 -50 37 -121 82 -160 100 -38 18 -110 63 -160
100 -49 37 -125 85 -167 106 -43 22 -106 63 -140 92 -35 29 -90 73 -123 97
-33 24 -87 69 -120 100 -33 31 -89 80 -125 109 -106 86 -507 478 -568 555 -31
39 -80 97 -109 129 -29 32 -79 93 -110 135 -31 42 -77 100 -102 127 -26 28
-67 77 -90 110 -24 33 -70 87 -101 120 -32 33 -83 94 -113 136 -31 42 -75 99
-98 125 -24 27 -67 87 -97 134 -30 47 -77 113 -103 147 -27 34 -67 93 -90 130
-23 37 -68 99 -101 136 -125 146 -158 299 -114 529 46 239 91 264 536 298 307
23 792 67 1000 90 47 5 261 14 475 20 675 16 787 48 787 220 0 134 -61 184
-495 403 -198 99 -575 77 -942 -57 -101 -36 -208 -66 -329 -90 -133 -28 -223
-53 -350 -100 -477 -177 -636 -144 -622 129 3 61 12 265 21 455 37 864 29 787
122 1145 96 373 70 486 -132 575 -38 17 -128 60 -200 96 -190 95 -493 136
-634 86z"/>
<path d="M2250 6187 c-140 -40 -169 -108 -109 -261 64 -166 51 -313 -46 -516
-35 -74 -76 -173 -91 -220 -32 -102 -53 -145 -111 -227 -24 -34 -60 -102 -80
-150 -47 -118 -56 -133 -110 -199 -25 -32 -68 -94 -95 -138 -28 -45 -74 -110
-103 -146 -29 -36 -76 -103 -104 -148 -28 -46 -78 -114 -110 -150 -32 -37 -78
-94 -101 -127 -24 -33 -67 -85 -95 -115 -28 -30 -73 -84 -100 -120 -75 -101
-170 -204 -439 -474 -257 -259 -288 -299 -303 -390 -16 -98 211 -44 397 95 52
38 124 86 160 104 36 19 94 60 129 90 35 31 98 79 140 107 41 29 145 120 231
204 172 168 192 179 258 147 75 -36 77 -49 74 -448 -5 -709 -48 -1104 -146
-1359 -167 -431 -173 -956 -14 -1209 21 -34 63 -112 93 -174 69 -139 98 -165
190 -171 130 -8 194 54 256 250 96 300 98 326 97 1623 0 980 1 1027 48 1370
39 281 28 354 -71 475 -115 140 -114 213 5 343 36 40 83 102 103 138 20 35 63
97 95 137 32 41 78 108 102 150 24 42 70 113 102 158 32 45 70 110 84 145 40
99 68 149 119 214 26 33 69 104 96 158 27 53 69 126 93 161 133 195 67 349
-237 554 -180 120 -289 153 -407 119z"/>
</g>
</svg>
