<svg xmlns="http://www.w3.org/2000/svg" viewBox="0 0 956.439598 819.837011">
<g transform="translate(-22.360169,839.996473) scale(0.100000,-0.100000)" fill="#000000" stroke="none">
<path d="M2307 8287 c-45 -176 -46 -183 -40 -357 8 -251 -68 -620 -173 -846
-25 -53 -59 -152 -78 -227 -43 -167 -62 -217 -119 -311 -45 -73 -75 -148 -116
-291 -11 -39 -45 -111 -76 -163 -32 -53 -71 -135 -89 -190 -39 -116 -53 -144
-121 -242 -28 -42 -68 -117 -88 -167 -40 -99 -49 -117 -118 -213 -26 -36 -59
-94 -74 -130 -34 -83 -58 -122 -112 -186 -23 -28 -63 -88 -89 -135 -25 -46
-65 -106 -89 -134 -23 -27 -75 -99 -115 -160 -40 -60 -92 -132 -115 -160 -24
-27 -71 -93 -105 -145 -35 -52 -86 -120 -114 -150 -29 -30 -72 -84 -96 -120
-24 -36 -64 -90 -90 -120 -149 -174 -23 -305 135 -140 22 23 74 65 115 93 224
152 735 684 1041 1085 80 105 128 144 206 169 145 46 172 -42 154 -502 -6
-137 -13 -351 -16 -475 -6 -228 -44 -759 -70 -983 -21 -171 -42 -389 -60 -612
-21 -255 -38 -362 -90 -576 -158 -639 -160 -1018 -5 -1275 33 -55 78 -142 101
-195 129 -308 348 -302 433 11 14 52 42 136 63 185 50 123 50 131 62 1880 12
1675 21 2053 52 2260 48 311 14 465 -136 625 -165 177 -162 322 15 596 42 63
86 148 110 210 22 57 66 146 98 197 54 84 76 132 126 268 9 25 33 73 53 105
69 113 82 140 121 252 41 115 161 310 302 490 112 142 106 285 -19 432 -25 30
-65 79 -89 110 -54 69 -82 91 -174 137 -132 65 -208 137 -208 196 0 15 -16 17
-137 17 -138 0 -138 0 -166 -113z"/>
<path d="M4951 8139 c-180 -36 -213 -207 -80 -415 92 -142 108 -208 139 -554
39 -445 36 -1620 -4 -1748 -47 -149 -144 -188 -566 -227 -224 -20 -345 -40
-545 -86 -229 -54 -300 -67 -433 -79 -172 -16 -232 -49 -232 -131 0 -55 35
-91 128 -129 42 -18 111 -49 152 -70 230 -114 492 -110 825 15 66 25 164 54
217 65 54 11 145 32 203 46 246 59 274 -28 194 -596 -6 -41 -34 -147 -63 -235
-34 -100 -63 -216 -80 -310 -36 -201 -51 -259 -103 -400 -25 -66 -62 -188 -83
-271 -42 -164 -59 -206 -127 -302 -25 -34 -60 -99 -77 -145 -44 -112 -61 -142
-116 -212 -26 -33 -70 -95 -99 -139 -28 -43 -78 -108 -110 -145 -32 -36 -83
-100 -113 -141 -31 -41 -70 -85 -86 -97 -16 -12 -77 -66 -135 -120 -220 -205
-286 -263 -416 -367 -74 -59 -164 -123 -200 -143 -36 -20 -100 -60 -142 -89
-41 -28 -113 -71 -160 -94 -113 -57 -136 -74 -161 -123 -49 -96 -20 -157 76
-157 113 0 405 88 551 165 55 29 146 69 202 89 125 43 143 52 218 111 33 26
95 65 138 86 44 23 106 65 140 97 34 32 96 83 137 114 41 30 124 104 184 164
60 60 121 117 135 126 92 62 237 -39 345 -241 30 -57 73 -126 95 -155 21 -28
63 -94 93 -146 50 -87 63 -101 154 -172 246 -191 320 -189 485 17 171 213 150
394 -79 673 -47 57 -98 91 -207 138 -49 21 -118 57 -152 81 -87 59 -129 79
-217 101 -204 53 -221 157 -57 366 32 42 53 85 83 173 22 65 64 161 93 213 61
106 81 160 115 300 14 62 46 146 91 240 74 156 88 210 113 415 16 133 27 169
58 203 79 84 247 -79 342 -331 14 -38 40 -90 58 -115 17 -26 46 -68 63 -93 18
-26 49 -86 69 -135 20 -49 63 -125 95 -169 32 -44 79 -124 105 -178 25 -55 68
-129 95 -165 27 -37 73 -116 104 -177 30 -60 76 -138 101 -173 26 -35 71 -112
100 -171 29 -60 74 -135 99 -167 25 -33 65 -100 90 -150 25 -50 73 -127 105
-170 33 -43 77 -108 97 -144 21 -36 70 -105 110 -155 39 -49 86 -115 104 -145
19 -30 64 -91 101 -135 37 -44 86 -109 110 -145 24 -36 69 -92 100 -125 30
-33 76 -87 102 -120 79 -100 148 -132 341 -161 138 -20 730 -14 1052 10 338
26 568 46 610 52 164 25 216 175 101 290 -42 43 -39 42 -245 100 -35 10 -91
35 -123 56 -83 54 -141 81 -238 113 -107 35 -130 46 -211 106 -36 27 -110 70
-165 98 -54 27 -128 72 -163 100 -35 28 -105 71 -155 95 -50 24 -125 69 -166
100 -41 32 -109 75 -150 97 -41 21 -106 66 -144 99 -38 33 -101 81 -140 108
-38 26 -93 68 -120 93 -28 25 -85 70 -126 99 -139 99 -687 629 -785 760 -27
36 -70 88 -96 115 -25 28 -72 85 -103 128 -32 43 -82 106 -113 140 -30 34 -74
89 -96 122 -22 33 -68 89 -102 125 -34 36 -77 88 -95 115 -18 28 -57 79 -86
115 -28 36 -80 108 -114 160 -35 52 -80 115 -100 140 -21 25 -62 86 -93 137
-30 50 -73 113 -95 140 -80 97 -95 172 -74 382 19 185 73 233 332 295 437 105
747 132 1780 156 495 11 535 18 614 96 165 166 33 379 -312 503 -59 21 -146
55 -194 75 -155 65 -303 59 -581 -25 -73 -22 -179 -49 -237 -60 -220 -42 -258
-52 -365 -96 -181 -73 -243 -92 -386 -118 -75 -14 -179 -40 -232 -59 -182 -66
-266 -55 -309 41 -23 52 -23 79 2 458 6 83 14 339 20 570 12 552 28 662 126
859 91 184 79 245 -81 387 -103 92 -144 116 -270 154 -50 15 -133 44 -185 65
-149 59 -311 87 -399 69z"/>
</g>
</svg>
