<svg xmlns="http://www.w3.org/2000/svg" viewBox="0 0 2459.173 2453.856">
<g transform="translate(-39.572444,2333.985786) scale(0.100000,-0.100000)" fill="#000000" stroke="none">
<path d="M12425 20963 c-971 -13 -1516 -78 -1940 -233 -304 -111 -503 -165
-835 -225 -313 -57 -434 -104 -624 -243 -142 -103 -209 -133 -482 -207 -288
-79 -378 -120 -509 -230 -107 -91 -165 -127 -305 -190 -145 -66 -219 -111
-335 -205 -219 -178 -268 -211 -442 -296 -168 -82 -172 -85 -240 -161 -111
-127 -150 -160 -266 -225 -135 -77 -180 -116 -256 -221 -67 -93 -129 -154
-216 -214 -98 -66 -152 -120 -224 -222 -82 -114 -104 -136 -241 -238 -103 -77
-132 -108 -250 -273 -27 -38 -85 -95 -143 -143 -120 -97 -142 -125 -224 -297
-65 -134 -66 -136 -188 -255 -122 -120 -122 -120 -218 -315 -114 -232 -144
-278 -262 -406 -133 -143 -156 -182 -230 -394 -57 -164 -104 -259 -205 -415
-128 -198 -146 -242 -230 -555 -62 -230 -104 -329 -206 -481 -146 -219 -181
-349 -229 -839 -43 -440 -98 -707 -200 -970 -126 -324 -148 -535 -149 -1375
-1 -918 9 -1020 143 -1423 128 -385 160 -540 211 -1037 49 -480 74 -566 238
-826 109 -173 126 -214 207 -504 80 -283 117 -368 245 -560 66 -97 108 -185
191 -392 109 -275 132 -314 263 -445 96 -96 118 -125 150 -193 130 -274 119
-256 254 -398 123 -129 130 -139 210 -291 112 -215 141 -257 251 -361 157
-148 192 -185 296 -309 62 -75 140 -153 210 -211 107 -89 172 -155 287 -295
30 -36 104 -103 168 -152 63 -48 173 -147 245 -221 142 -145 198 -185 448
-318 164 -88 179 -99 302 -225 99 -101 102 -104 255 -178 156 -77 213 -115
372 -254 111 -96 216 -149 456 -228 215 -71 277 -101 403 -195 136 -101 254
-151 501 -213 284 -72 321 -87 523 -202 261 -150 377 -181 875 -234 497 -52
671 -83 1062 -186 407 -108 952 -133 1810 -84 182 11 337 37 593 101 355 89
487 112 955 164 549 61 741 112 934 249 121 86 205 119 474 185 289 72 375
108 532 223 148 109 219 140 505 223 186 53 242 86 360 206 118 120 144 139
305 217 133 65 210 118 362 246 116 99 220 167 368 241 168 84 219 123 305
235 88 115 107 132 228 204 107 63 160 115 213 206 61 108 101 149 218 225
127 83 141 97 224 220 67 101 115 150 216 220 97 69 155 131 211 230 88 151
141 227 245 345 117 133 170 214 282 435 81 159 82 160 199 275 131 129 152
161 204 310 47 137 98 230 194 354 142 184 170 245 232 503 71 297 108 389
224 553 156 219 174 277 290 950 34 194 65 315 155 600 114 358 161 566 200
880 31 252 38 1637 10 2060 -24 363 -82 639 -221 1055 -84 251 -134 467 -189
824 -50 325 -120 517 -253 699 -117 160 -134 202 -197 457 -79 323 -115 409
-230 545 -84 101 -121 164 -190 325 -99 231 -145 307 -259 429 -120 128 -151
173 -213 312 -58 130 -86 170 -205 292 -71 72 -120 134 -178 227 -127 202
-178 258 -783 863 -561 560 -576 574 -705 659 -93 62 -168 122 -255 205 -120
116 -126 120 -269 189 -179 86 -211 107 -339 229 -106 99 -116 106 -432 276
-121 65 -228 132 -313 196 -151 113 -198 137 -350 179 -410 111 -470 135 -628
248 -193 138 -346 193 -723 256 -249 42 -384 81 -757 220 -435 162 -1254 234
-2476 218z m930 -1803 c537 -20 852 -78 1324 -246 226 -81 396 -130 586 -169
383 -80 475 -116 640 -247 119 -94 209 -135 450 -203 279 -80 325 -103 453
-231 124 -125 158 -149 290 -207 141 -62 174 -83 282 -182 110 -100 252 -204
428 -312 139 -85 205 -142 302 -258 78 -93 142 -155 261 -254 52 -43 126 -120
187 -194 67 -84 136 -154 213 -219 170 -143 191 -170 329 -423 99 -181 109
-195 231 -315 101 -100 109 -112 215 -350 42 -95 77 -144 179 -250 127 -132
162 -202 230 -457 64 -241 88 -297 202 -470 161 -247 191 -329 279 -771 76
-388 111 -522 209 -822 112 -341 148 -554 166 -970 20 -460 1 -1225 -37 -1510
-12 -88 -66 -289 -140 -514 -97 -298 -146 -495 -199 -797 -69 -398 -120 -536
-287 -781 -75 -111 -118 -214 -184 -443 -70 -241 -102 -307 -210 -426 -111
-123 -142 -170 -232 -358 -100 -209 -141 -269 -265 -393 -97 -97 -109 -112
-157 -214 -28 -60 -59 -124 -68 -142 -23 -45 -86 -107 -157 -155 -85 -56 -139
-111 -198 -197 -84 -125 -114 -156 -240 -249 -124 -91 -156 -124 -239 -241
-65 -91 -136 -156 -261 -240 -74 -50 -128 -95 -170 -144 -121 -139 -153 -164
-297 -234 -169 -81 -239 -127 -365 -237 -166 -144 -225 -180 -446 -268 -151
-61 -191 -83 -282 -160 -150 -128 -228 -163 -526 -238 -248 -62 -309 -86 -437
-170 -257 -170 -418 -213 -1044 -285 -238 -27 -446 -61 -725 -118 -543 -111
-1374 -101 -2005 24 -276 55 -333 64 -720 110 -529 63 -575 76 -843 237 -161
97 -267 139 -504 199 -312 80 -370 106 -550 250 -120 96 -172 125 -323 179
-156 56 -277 130 -313 191 -29 50 -171 150 -321 226 -228 115 -302 166 -446
309 -87 87 -162 149 -247 208 -134 91 -157 113 -234 227 -75 112 -111 148
-227 227 -110 74 -151 118 -217 230 -56 96 -95 139 -202 219 -110 82 -152 134
-223 278 -112 225 -176 321 -317 479 -94 104 -115 139 -183 296 -66 152 -103
213 -210 344 -116 142 -157 234 -220 491 -60 244 -102 340 -239 550 -131 201
-162 305 -200 680 -47 458 -87 681 -161 897 -108 313 -143 610 -142 1183 1
520 19 681 116 1021 109 382 131 498 176 899 48 442 84 591 173 717 23 34 66
96 95 138 68 97 103 181 153 370 100 372 103 379 220 540 106 146 157 231 255
426 106 213 124 239 239 359 109 113 132 146 215 310 60 117 71 132 175 236
62 62 151 164 198 227 60 80 112 136 169 183 117 95 171 148 241 234 86 107
142 164 222 228 39 30 133 119 210 196 123 124 156 151 270 221 87 53 158 106
215 161 137 131 190 168 344 243 145 71 212 117 316 216 123 118 243 179 486
246 224 61 281 89 465 225 146 109 223 138 539 204 231 49 515 130 703 199
418 155 796 218 1392 234 263 7 946 5 1170 -3z"/>
</g>
</svg>
