<svg xmlns="http://www.w3.org/2000/svg" viewBox="0 0 821.735 3517.998">
<g transform="translate(-1137.141481,3345.175231) scale(0.100000,-0.100000)" fill="#000000" stroke="none">
<path d="M15238 30040 c-194 -9 -281 -18 -498 -56 -269 -46 -353 -79 -565
-221 -150 -101 -206 -129 -375 -188 -207 -72 -257 -106 -346 -233 -70 -100
-119 -147 -230 -222 -113 -77 -167 -133 -226 -235 -30 -51 -79 -107 -179 -205
-165 -161 -173 -175 -254 -459 -73 -255 -101 -321 -195 -465 -169 -258 -204
-432 -203 -1006 0 -540 28 -679 188 -956 100 -171 150 -286 195 -444 101 -353
137 -412 386 -644 34 -31 98 -108 142 -170 93 -129 111 -147 254 -244 75 -52
135 -104 219 -194 163 -173 249 -219 579 -312 147 -41 191 -59 405 -166 380
-190 473 -210 975 -210 272 0 405 11 574 46 197 42 228 55 436 181 104 63 191
97 416 161 300 86 319 97 489 268 115 116 157 151 235 196 106 62 167 121 225
218 65 109 92 137 208 213 150 99 178 140 237 347 18 63 48 153 67 200 32 79
56 118 193 320 141 208 203 560 204 1150 0 762 -47 1008 -254 1315 -100 149
-124 196 -178 356 -78 229 -105 272 -250 399 -53 45 -115 114 -167 185 -70 94
-101 127 -188 194 -58 45 -148 128 -201 185 -119 128 -184 172 -353 235 -165
62 -231 96 -357 181 -341 229 -833 314 -1608 280z"/>
<path d="M14148 21566 c-118 -25 -202 -110 -227 -227 -23 -104 -15 -19419 8
-19478 34 -89 89 -141 178 -167 71 -21 2980 -25 3078 -4 125 26 212 96 240
195 30 100 16 19424 -13 19497 -41 100 -133 166 -262 187 -99 16 -2926 13
-3002 -3z"/>
</g>
</svg>
