<svg xmlns="http://www.w3.org/2000/svg" viewBox="0 0 989.801 988.620">
<g transform="translate(-979.653279,1819.302482) scale(0.100000,-0.100000)" fill="#000000" stroke="none">
<path d="M14435 17234 c-465 -24 -641 -67 -860 -210 -120 -78 -208 -116 -391
-169 -378 -109 -420 -127 -573 -249 -36 -29 -114 -85 -172 -125 -139 -95 -209
-155 -321 -276 -50 -54 -128 -131 -172 -170 -143 -125 -207 -189 -269 -265
-33 -41 -111 -127 -172 -190 -129 -132 -150 -167 -219 -375 -53 -159 -91 -233
-182 -357 -117 -160 -166 -283 -215 -543 -11 -60 -36 -177 -54 -260 -89 -392
-107 -1041 -40 -1415 7 -41 32 -178 54 -305 81 -452 129 -588 271 -775 82
-109 104 -149 150 -275 141 -389 160 -419 387 -606 44 -37 125 -120 181 -186
71 -85 137 -150 229 -224 131 -107 154 -128 307 -287 112 -117 225 -177 467
-246 250 -72 299 -95 475 -222 151 -108 299 -165 504 -193 483 -68 1504 -62
1840 11 217 46 329 94 480 206 147 108 203 132 480 207 273 74 331 108 446
261 66 87 113 131 207 191 117 74 151 107 226 218 86 125 116 156 243 246 125
89 153 124 248 316 44 87 107 196 141 243 149 206 202 318 270 573 38 144 145
456 204 597 82 197 100 279 120 536 35 470 -10 934 -111 1136 -76 151 -111
249 -184 501 -110 388 -123 418 -272 644 -51 78 -122 189 -158 248 -165 268
-201 317 -285 383 -147 116 -184 152 -262 254 -81 106 -119 141 -269 245 -49
34 -141 106 -204 159 -237 199 -354 261 -629 334 -265 71 -399 126 -569 237
-169 111 -241 132 -518 157 -164 15 -684 28 -829 20z"/>
</g>
</svg>
