<svg xmlns="http://www.w3.org/2000/svg" viewBox="0 0 488.474 3428.367">
<g transform="translate(-1424.529360,3282.609444) scale(0.100000,-0.100000)" fill="#000000" stroke="none">
<path d="M16565 29495 c-146 -27 -236 -55 -440 -135 -66 -26 -181 -66 -255
-90 -180 -56 -253 -95 -331 -178 -34 -37 -86 -92 -115 -124 -30 -31 -91 -86
-138 -123 -109 -86 -155 -154 -228 -329 -32 -78 -78 -170 -103 -206 -26 -36
-66 -93 -90 -127 -110 -156 -160 -422 -144 -772 11 -270 43 -371 187 -593 95
-148 130 -215 189 -368 72 -186 108 -230 263 -321 76 -44 156 -117 244 -222
112 -135 309 -202 761 -261 380 -49 564 -41 935 39 321 70 363 90 511 243 42
43 119 107 170 142 135 92 193 155 283 305 42 72 110 170 151 218 176 212 237
445 239 917 2 517 -45 695 -258 990 -388 535 -538 669 -860 770 -192 61 -210
68 -341 131 -132 63 -164 72 -338 94 -139 18 -197 18 -292 0z"/>
<path d="M16585 21634 c-16 -2 -66 -9 -110 -15 -174 -22 -268 -59 -442 -173
-60 -39 -145 -82 -218 -111 -215 -85 -243 -103 -425 -280 -240 -232 -247 -242
-335 -440 -31 -72 -78 -161 -104 -200 -26 -38 -68 -100 -93 -137 -102 -149
-133 -309 -132 -688 0 -354 13 -406 163 -639 96 -148 142 -235 216 -406 91
-210 116 -240 290 -348 107 -66 134 -87 255 -197 250 -231 483 -294 1075 -294
538 1 769 62 984 259 72 66 140 117 221 165 154 91 211 148 304 307 41 71 116
178 166 238 194 234 254 452 254 925 0 576 -49 749 -299 1064 -69 87 -162 211
-205 276 -137 201 -182 234 -545 391 -124 53 -203 96 -292 155 -142 96 -201
120 -321 134 -102 11 -363 20 -407 14z"/>
<path d="M16428 13704 c-249 -25 -355 -63 -525 -188 -56 -41 -161 -110 -235
-152 -396 -226 -433 -267 -636 -694 -33 -69 -87 -162 -121 -207 -159 -215
-199 -388 -188 -798 10 -339 34 -426 167 -610 49 -68 109 -175 186 -331 166
-334 127 -295 639 -642 397 -268 479 -296 930 -309 473 -14 687 43 975 259 70
52 179 121 245 156 197 102 240 144 371 369 26 45 85 126 132 180 230 265 285
456 285 988 0 552 -61 766 -292 1033 -77 89 -132 170 -202 296 -68 122 -116
162 -303 255 -89 43 -192 102 -231 130 -360 265 -619 322 -1197 265z"/>
<path d="M16400 5775 c-326 -33 -501 -97 -678 -249 -159 -137 -188 -157 -305
-224 -195 -110 -214 -132 -308 -354 -72 -169 -131 -281 -209 -398 -150 -223
-180 -340 -180 -694 0 -352 48 -541 180 -711 69 -89 79 -107 154 -274 130
-292 363 -523 686 -682 91 -45 209 -110 262 -146 206 -136 387 -182 713 -183
327 0 430 25 647 156 79 47 249 138 378 202 274 135 330 180 429 348 29 50 87
131 128 180 243 289 306 424 337 727 64 617 -5 1062 -200 1297 -30 36 -76 91
-102 122 -27 32 -75 109 -107 170 -72 136 -137 205 -245 262 -122 63 -200 118
-287 199 -236 223 -693 312 -1293 252z"/>
</g>
</svg>
