<svg xmlns="http://www.w3.org/2000/svg" viewBox="0 0 2460.237 2459.640">
<g transform="translate(1.199778,2323.603174) scale(0.100000,-0.100000)" fill="#000000" stroke="none">
<path d="M11450 20850 c-392 -18 -634 -65 -1036 -200 -273 -91 -437 -132 -729
-180 -577 -95 -641 -115 -864 -265 -187 -125 -269 -160 -542 -234 -291 -78
-373 -115 -557 -253 -120 -91 -175 -120 -337 -183 -159 -61 -192 -83 -334
-218 -123 -118 -123 -118 -320 -215 -246 -120 -262 -131 -396 -267 -101 -103
-119 -117 -220 -168 -148 -75 -182 -103 -283 -237 -69 -91 -104 -127 -172
-177 -135 -99 -197 -160 -287 -280 -88 -118 -117 -145 -246 -233 -87 -59 -136
-114 -216 -238 -60 -91 -87 -119 -195 -191 -103 -70 -146 -123 -197 -244 -64
-150 -82 -179 -191 -295 -144 -152 -157 -173 -327 -521 -28 -59 -62 -102 -156
-201 -140 -147 -171 -198 -240 -400 -59 -173 -107 -269 -218 -438 -117 -178
-133 -215 -207 -482 -88 -318 -113 -382 -220 -540 -143 -212 -179 -343 -235
-855 -56 -502 -95 -698 -185 -930 -151 -391 -195 -913 -160 -1915 17 -491 29
-562 147 -925 107 -329 158 -584 198 -990 47 -477 88 -623 237 -853 93 -144
141 -257 202 -474 99 -349 119 -398 249 -590 86 -127 133 -225 219 -451 73
-195 98 -236 230 -374 122 -127 131 -141 209 -310 60 -128 104 -193 218 -316
102 -111 160 -202 254 -398 73 -151 101 -185 222 -270 94 -66 154 -128 219
-226 52 -80 129 -154 256 -246 68 -49 104 -87 182 -187 104 -134 104 -133 248
-245 104 -80 149 -125 229 -227 80 -103 136 -147 287 -227 183 -96 310 -182
413 -278 110 -103 167 -141 292 -193 142 -59 189 -93 296 -208 105 -113 156
-145 343 -210 242 -86 322 -125 485 -242 156 -111 208 -133 510 -210 276 -71
312 -86 507 -211 228 -147 353 -184 808 -240 497 -60 682 -97 1050 -210 478
-147 814 -176 1777 -151 575 15 716 34 1078 152 317 103 482 137 940 195 553
70 650 98 895 255 173 111 225 132 524 211 271 72 324 95 504 216 195 131 219
143 419 209 207 68 232 83 372 225 116 116 116 116 304 207 225 109 267 136
392 253 119 110 147 130 310 212 155 79 185 103 261 204 84 115 119 148 229
223 118 80 152 115 232 235 69 103 118 151 220 217 92 60 138 106 211 215 70
103 128 160 235 233 103 70 143 117 213 253 51 98 73 127 171 229 129 134 148
163 263 383 109 209 134 246 256 378 112 120 150 182 204 332 48 135 92 210
181 315 122 144 180 273 234 523 53 240 107 372 214 521 155 215 174 271 261
771 66 373 94 488 190 780 191 582 230 911 229 1950 0 1125 -32 1414 -224
1990 -99 299 -128 423 -195 828 -72 435 -96 505 -268 765 -119 181 -148 251
-202 481 -69 297 -104 376 -226 518 -78 90 -120 165 -200 358 -52 126 -115
229 -198 326 -138 160 -187 231 -268 399 -81 165 -81 165 -202 286 -100 100
-130 137 -174 216 -80 144 -112 184 -229 288 -59 53 -145 141 -191 195 -111
134 -170 193 -281 283 -64 51 -124 114 -187 192 -107 134 -126 152 -257 249
-69 52 -116 96 -162 156 -92 117 -145 162 -276 230 -105 55 -124 70 -239 186
-130 132 -146 143 -323 220 -115 51 -197 106 -314 211 -119 107 -232 177 -407
253 -190 82 -208 92 -318 179 -152 120 -247 163 -518 236 -268 72 -351 107
-525 221 -234 152 -338 188 -765 259 -463 77 -580 104 -865 200 -550 187 -682
202 -1785 205 -432 2 -864 -1 -960 -5z m2315 -1920 c44 -10 109 -30 145 -44
36 -13 124 -46 195 -73 176 -67 288 -97 500 -133 487 -83 586 -115 808 -266
134 -92 193 -120 398 -190 205 -70 300 -119 464 -240 157 -115 215 -149 365
-210 155 -63 206 -99 296 -207 97 -117 116 -132 255 -207 143 -78 191 -114
332 -248 61 -59 171 -154 242 -211 164 -131 355 -325 503 -511 63 -80 177
-208 252 -285 104 -107 149 -161 189 -230 78 -133 131 -202 209 -276 111 -105
124 -126 211 -352 38 -98 78 -160 173 -269 143 -163 190 -252 278 -528 67
-208 107 -299 194 -432 29 -46 72 -119 94 -163 67 -135 77 -172 223 -830 54
-243 60 -268 134 -510 164 -539 182 -670 192 -1410 8 -620 -11 -974 -67 -1255
-28 -141 -48 -215 -143 -525 -67 -219 -102 -356 -147 -580 -97 -476 -137 -596
-272 -823 -115 -193 -160 -294 -213 -477 -64 -219 -103 -297 -212 -420 -136
-153 -184 -234 -277 -464 -60 -150 -94 -200 -191 -281 -89 -75 -139 -141 -204
-266 -53 -103 -91 -147 -206 -239 -102 -81 -135 -118 -223 -250 -59 -89 -123
-157 -254 -268 -37 -32 -104 -102 -149 -157 -88 -107 -137 -147 -278 -230 -93
-54 -150 -106 -237 -214 -69 -86 -84 -98 -237 -177 -125 -65 -144 -78 -200
-142 -157 -180 -185 -199 -424 -288 -242 -90 -289 -116 -457 -253 -110 -90
-179 -124 -435 -211 -262 -89 -366 -130 -479 -192 -284 -153 -342 -170 -1007
-288 -415 -74 -494 -80 -590 -44 -105 39 -195 153 -242 305 -22 71 -35 14821
-13 15036 43 426 209 600 505 528z m-2750 -4 c196 -52 329 -197 385 -420 28
-110 33 -15016 6 -15119 -67 -249 -353 -393 -649 -326 -50 11 -198 38 -327 60
-532 90 -602 110 -894 259 -180 91 -246 119 -407 170 -342 110 -449 164 -625
313 -80 68 -154 107 -314 167 -214 79 -297 130 -442 266 -107 101 -188 159
-298 214 -110 56 -176 107 -249 194 -93 111 -142 152 -251 211 -126 68 -161
101 -246 231 -75 114 -116 155 -230 232 -76 51 -131 113 -192 215 -60 101
-115 163 -212 237 -109 83 -148 131 -225 280 -38 71 -99 169 -136 217 -256
329 -269 349 -345 534 -66 158 -98 210 -192 311 -133 143 -171 223 -237 494
-74 305 -104 380 -225 559 -141 209 -182 339 -215 680 -48 495 -79 661 -190
1022 -117 377 -149 1065 -79 1688 16 141 25 182 84 380 85 282 126 494 170
881 54 477 87 593 229 807 123 185 139 227 221 557 73 290 91 328 231 477 92
98 110 126 189 308 106 241 153 323 248 427 109 120 150 175 198 268 86 169
131 225 269 335 85 67 119 108 207 245 58 90 116 149 240 242 59 45 89 77 134
145 82 123 134 176 233 235 125 75 146 93 218 185 83 106 125 142 237 199 142
73 199 117 285 217 100 117 158 157 356 247 181 81 294 146 398 229 154 122
189 141 392 211 186 64 313 124 477 224 153 93 226 127 344 160 84 24 138 35
504 101 147 27 401 104 569 172 183 75 253 87 356 59z"/>
</g>
</svg>
