<svg xmlns="http://www.w3.org/2000/svg" viewBox="0 0 294.777215 256.903095">
<g transform="translate(-8.107114,305.737214) scale(0.100000,-0.100000)" fill="#000000" stroke="none" >
<path d="M 2908 2646 C 2905 2603 2898 2633 2890 2622 C 2882 2610 2870 2593 2859 2577 C 2849 2561 2838 2543 2828 2525 C 2818 2508 2808 2489 2798 2470 C 2788 2450 2778 2430 2768 2410 C 2759 2389 2749 2368 2739 2347 C 2729 2326 2719 2304 2709 2282 C 2698 2260 2688 2238 2678 2216 C 2668 2195 2658 2173 2647 2151 C 2637 2129 2627 2107 2617 2085 C 2606 2064 2595 2040 2586 2020 C 2577 2000 2570 1986 2560 1966 C 2551 1946 2540 1922 2529 1900 C 2519 1879 2509 1857 2498 1835 C 2488 1813 2478 1792 2468 1770 C 2457 1748 2447 1727 2437 1705 C 2426 1684 2416 1662 2406 1640 C 2396 1618 2386 1597 2375 1575 C 2365 1553 2355 1532 2344 1510 C 2334 1488 2324 1466 2313 1444 C 2303 1423 2292 1401 2282 1379 C 2272 1358 2262 1336 2251 1314 C 2241 1293 2230 1270 2220 1250 C 2211 1230 2204 1216 2195 1196 C 2185 1176 2174 1152 2164 1130 C 2153 1108 2142 1086 2131 1063 C 2120 1040 2108 1017 2096 994 C 2083 970 2070 946 2056 922 C 2041 898 2026 874 2008 849 C 1991 824 1972 799 1950 775 C 1928 751 1904 726 1877 704 C 1849 682 1818 660 1784 642 C 1750 625 1712 609 1672 600 C 1633 591 1589 587 1548 588 C 1508 590 1462 600 1427 610 C 1392 621 1368 633 1338 650 C 1308 666 1276 690 1249 712 C 1222 734 1199 758 1177 782 C 1156 806 1137 831 1120 855 C 1102 879 1087 904 1072 927 C 1058 951 1045 975 1032 998 C 1020 1021 1008 1043 996 1066 C 985 1088 974 1110 963 1132 C 952 1154 942 1176 931 1197 C 920 1219 910 1240 899 1262 C 888 1284 877 1307 867 1327 C 857 1346 850 1361 840 1381 C 831 1400 819 1424 809 1445 C 798 1467 788 1488 777 1510 C 766 1531 756 1552 745 1574 C 735 1595 724 1616 713 1638 C 703 1659 692 1681 681 1702 C 671 1724 660 1745 649 1767 C 638 1788 628 1810 617 1831 C 606 1853 596 1874 585 1896 C 574 1918 564 1939 553 1961 C 542 1982 532 2004 521 2025 C 510 2047 499 2070 489 2090 C 479 2110 472 2124 462 2144 C 453 2164 441 2187 430 2208 C 420 2230 409 2252 399 2273 C 388 2294 378 2316 367 2337 C 356 2359 346 2380 335 2402 C 324 2423 314 2445 303 2466 C 292 2488 282 2510 271 2531 C 260 2552 249 2575 240 2595 C 230 2614 222 2616 214 2648 C 205 2680 164 2736 188 2786 C 212 2836 294 2940 356 2949 C 419 2958 526 2863 564 2840 C 600 2816 572 2823 579 2808 C 586 2793 597 2770 607 2750 C 617 2730 628 2708 639 2686 C 650 2665 660 2643 671 2622 C 682 2600 692 2579 703 2557 C 714 2536 724 2514 735 2492 C 746 2471 756 2449 767 2428 C 777 2406 788 2385 799 2363 C 809 2342 820 2320 830 2299 C 841 2277 852 2256 862 2234 C 873 2213 884 2189 894 2170 C 904 2150 911 2136 921 2116 C 930 2096 942 2073 953 2052 C 963 2030 974 2009 985 1987 C 995 1966 1006 1944 1017 1923 C 1027 1902 1038 1880 1049 1859 C 1059 1837 1070 1816 1081 1794 C 1092 1772 1102 1751 1113 1729 C 1124 1708 1134 1686 1145 1664 C 1156 1643 1166 1621 1177 1599 C 1188 1578 1198 1556 1209 1535 C 1219 1513 1230 1492 1240 1470 C 1251 1449 1263 1426 1272 1406 C 1282 1386 1289 1372 1299 1352 C 1308 1333 1320 1310 1330 1289 C 1341 1268 1351 1247 1362 1227 C 1372 1207 1382 1188 1393 1169 C 1403 1151 1414 1133 1424 1117 C 1434 1100 1445 1085 1455 1071 C 1466 1058 1476 1045 1486 1035 C 1496 1025 1506 1016 1515 1009 C 1524 1002 1533 997 1540 994 C 1548 990 1553 989 1559 987 C 1564 986 1568 986 1573 987 C 1578 987 1583 988 1589 991 C 1594 993 1599 995 1606 1000 C 1614 1005 1624 1012 1633 1020 C 1642 1029 1652 1040 1662 1052 C 1672 1064 1683 1078 1693 1094 C 1703 1109 1713 1126 1723 1144 C 1734 1161 1744 1180 1754 1200 C 1764 1219 1774 1239 1784 1260 C 1794 1281 1804 1302 1814 1323 C 1824 1345 1835 1366 1845 1388 C 1855 1410 1866 1432 1876 1453 C 1886 1475 1898 1499 1907 1519 C 1916 1538 1923 1553 1933 1573 C 1942 1593 1954 1616 1964 1638 C 1974 1659 1984 1681 1994 1702 C 2005 1724 2015 1746 2025 1767 C 2035 1789 2046 1811 2056 1832 C 2066 1854 2077 1876 2087 1898 C 2097 1919 2108 1941 2118 1963 C 2128 1984 2138 2006 2149 2028 C 2159 2049 2169 2071 2180 2093 C 2190 2114 2200 2136 2210 2158 C 2220 2179 2230 2201 2241 2222 C 2251 2244 2262 2268 2271 2287 C 2281 2307 2287 2322 2297 2342 C 2306 2361 2317 2385 2327 2406 C 2337 2428 2347 2450 2357 2472 C 2367 2494 2378 2516 2388 2538 C 2399 2560 2409 2583 2420 2606 C 2432 2628 2443 2652 2456 2675 C 2468 2699 2482 2723 2496 2747 C 2510 2770 2526 2795 2540 2816 C 2554 2836 2553 2847 2579 2871 C 2604 2895 2637 2956 2692 2958 C 2748 2959 2878 2932 2914 2880 C 2950 2828 2912 2689 2908 2646 Z"/>
</g>
</svg>
