<svg xmlns="http://www.w3.org/2000/svg" viewBox="0 0 444.043089 670.956440">
<g transform="translate(-8.223566,691.251195) scale(0.100000,-0.100000)" fill="#000000" stroke="none" fill-rule="evenodd">
<path d="M 2138 5712 C 2126 5705 2135 5695 2083 5682 C 2031 5668 1925 5639 1826 5629 C 1728 5619 1602 5624 1495 5623 C 1388 5622 1291 5624 1184 5624 C 1077 5624 962 5624 852 5624 C 741 5623 624 5630 520 5621 C 416 5612 284 5610 226 5567 C 169 5525 136 5406 174 5364 C 213 5322 355 5322 458 5313 C 560 5304 679 5310 790 5309 C 900 5308 1014 5308 1122 5308 C 1229 5308 1326 5309 1433 5309 C 1540 5310 1662 5313 1765 5312 C 1868 5311 1993 5307 2050 5303 C 2108 5300 2099 5293 2112 5290 C 2120 5253 2139 5164 2147 5121 C 2154 5079 2153 5070 2156 5036 C 2159 5002 2163 4961 2166 4917 C 2169 4872 2172 4823 2175 4772 C 2177 4722 2179 4668 2181 4615 C 2182 4561 2183 4506 2184 4451 C 2185 4397 2186 4341 2186 4286 C 2186 4231 2186 4179 2185 4121 C 2185 4062 2184 3993 2181 3935 C 2178 3877 2175 3826 2169 3773 C 2163 3719 2156 3666 2145 3614 C 2134 3563 2121 3512 2104 3463 C 2086 3414 2065 3367 2041 3321 C 2016 3276 1988 3232 1957 3189 C 1926 3146 1894 3108 1856 3065 C 1818 3022 1771 2973 1730 2932 C 1690 2890 1653 2854 1614 2815 C 1574 2776 1535 2738 1496 2699 C 1456 2660 1417 2622 1378 2582 C 1339 2543 1300 2504 1261 2465 C 1223 2425 1184 2385 1147 2345 C 1110 2305 1072 2264 1037 2223 C 1001 2181 968 2142 934 2096 C 899 2051 859 1996 828 1948 C 797 1900 771 1857 746 1810 C 720 1763 696 1715 675 1667 C 654 1618 635 1569 620 1519 C 604 1469 592 1418 584 1368 C 576 1317 571 1265 572 1214 C 573 1164 576 1115 588 1062 C 598 1009 617 947 637 897 C 658 846 681 803 708 759 C 735 715 765 673 798 634 C 832 594 868 557 906 524 C 944 490 985 460 1028 433 C 1071 406 1116 382 1163 362 C 1210 342 1255 326 1308 312 C 1360 298 1424 286 1479 280 C 1533 274 1582 272 1634 274 C 1685 275 1737 280 1788 288 C 1839 295 1890 307 1939 321 C 1988 335 2036 353 2082 374 C 2128 395 2172 419 2215 446 C 2257 473 2297 504 2334 537 C 2372 571 2406 605 2439 646 C 2472 688 2508 740 2535 787 C 2561 834 2580 878 2598 926 C 2616 974 2629 1024 2640 1075 C 2652 1126 2659 1178 2665 1232 C 2671 1285 2675 1339 2678 1393 C 2680 1448 2682 1503 2683 1558 C 2684 1612 2684 1664 2684 1723 C 2685 1782 2685 1851 2685 1910 C 2685 1968 2685 2020 2685 2076 C 2685 2131 2685 2186 2685 2241 C 2685 2296 2686 2351 2686 2405 C 2686 2459 2687 2513 2688 2564 C 2688 2615 2690 2666 2691 2712 C 2692 2757 2693 2799 2694 2836 C 2696 2874 2695 2890 2698 2936 C 2701 2982 2709 3072 2712 3111 C 2719 3120 2708 3117 2742 3151 C 2775 3185 2846 3261 2912 3317 C 2978 3373 3057 3442 3137 3489 C 3218 3536 3314 3549 3393 3599 C 3471 3650 3555 3722 3608 3792 C 3660 3863 3728 3978 3706 4020 C 3685 4063 3556 4069 3478 4049 C 3400 4030 3325 3939 3239 3902 C 3153 3866 3050 3844 2961 3830 C 2872 3816 2758 3818 2708 3818 C 2658 3819 2671 3831 2661 3835 C 2656 3841 2648 3832 2638 3863 C 2628 3894 2607 3961 2600 4022 C 2593 4084 2596 4161 2595 4230 C 2594 4299 2594 4372 2595 4437 C 2595 4503 2596 4558 2598 4624 C 2599 4690 2601 4762 2604 4831 C 2607 4900 2608 4973 2614 5038 C 2621 5104 2635 5189 2642 5226 C 2648 5264 2651 5254 2653 5262 C 2663 5266 2649 5272 2699 5279 C 2749 5286 2864 5299 2955 5304 C 3046 5308 3149 5306 3245 5306 C 3342 5307 3436 5307 3536 5307 C 3636 5307 3747 5308 3847 5308 C 3947 5309 4042 5306 4138 5311 C 4233 5316 4372 5301 4420 5339 C 4468 5378 4468 5496 4425 5543 C 4382 5589 4253 5606 4161 5619 C 4068 5632 3971 5622 3871 5622 C 3770 5623 3660 5622 3559 5622 C 3459 5622 3366 5621 3269 5622 C 3172 5622 3073 5618 2978 5624 C 2884 5631 2756 5650 2703 5659 C 2649 5668 2668 5675 2658 5679 C 2653 5689 2646 5675 2637 5724 C 2628 5774 2610 5888 2604 5979 C 2597 6070 2601 6172 2600 6269 C 2598 6366 2608 6467 2594 6560 C 2581 6652 2571 6778 2520 6826 C 2470 6874 2346 6886 2291 6847 C 2236 6808 2208 6684 2190 6594 C 2173 6503 2186 6400 2186 6304 C 2186 6207 2192 6104 2188 6013 C 2183 5922 2166 5808 2158 5758 C 2150 5708 2143 5722 2138 5712 Z M 2042 2378 C 2086 2355 2119 2296 2142 2238 C 2164 2180 2168 2101 2177 2030 C 2185 1958 2187 1883 2190 1809 C 2193 1736 2196 1662 2197 1588 C 2197 1514 2199 1440 2193 1368 C 2186 1295 2180 1221 2158 1154 C 2137 1087 2106 1020 2064 967 C 2021 914 1964 866 1904 834 C 1844 803 1771 783 1704 778 C 1636 774 1561 785 1499 809 C 1437 833 1376 875 1331 924 C 1287 974 1255 1040 1234 1106 C 1214 1171 1208 1247 1209 1318 C 1210 1389 1220 1463 1238 1533 C 1255 1603 1282 1671 1313 1737 C 1344 1802 1384 1865 1424 1926 C 1465 1987 1509 2047 1556 2103 C 1603 2159 1652 2217 1706 2262 C 1759 2308 1820 2358 1876 2377 C 1932 2396 1998 2401 2042 2378 Z"/>
</g>
</svg>
