<svg xmlns="http://www.w3.org/2000/svg" viewBox="0 0 540.476886 642.850843">
<g transform="translate(-0.000000,659.057808) scale(0.100000,-0.100000)" fill="#000000" stroke="none">
<path d="M128 6572 c-128 -15 -128 -15 -128 -3007 0 -2993 0 -2993 23 -2999
75 -20 254 -18 342 4 50 12 151 26 228 31 75 4 186 17 245 28 59 11 150 25
204 31 53 5 143 21 200 35 153 37 451 77 773 104 82 7 158 21 240 44 66 19
145 38 175 41 30 4 120 25 200 46 144 39 225 53 370 65 41 4 116 13 166 20
141 21 182 6 262 -97 66 -85 265 -256 369 -317 48 -28 121 -80 160 -116 112
-99 406 -240 604 -290 252 -64 365 -40 584 125 66 50 150 105 187 123 81 38
97 79 36 93 -131 28 -660 267 -746 337 -342 275 -365 296 -589 531 -377 393
-410 431 -455 520 -22 44 -59 110 -82 146 -68 105 -72 113 -104 188 -17 39
-62 120 -100 179 -38 59 -86 148 -107 196 -48 112 -104 175 -193 219 -88 44
-436 57 -509 19 -101 -51 -99 -201 5 -401 21 -41 67 -158 101 -260 64 -192 72
-208 158 -334 117 -171 71 -263 -156 -306 -55 -10 -136 -30 -179 -44 -43 -13
-141 -34 -218 -45 -76 -12 -179 -30 -229 -41 -49 -10 -142 -26 -205 -35 -63
-9 -164 -29 -225 -45 -60 -16 -154 -39 -208 -50 -53 -12 -143 -38 -200 -58
-186 -66 -350 -49 -408 44 -28 45 -33 1949 -5 2002 55 107 -11 102 1371 102
1390 0 1320 -6 1381 112 16 30 20 1336 8 2373 -2 184 1 356 8 423 17 170 -13
231 -134 267 -77 22 -3026 20 -3220 -3z m2570 -471 c126 -67 152 -639 34 -765
-49 -52 -27 -51 -947 -51 -1154 1 -1080 -28 -1080 420 0 300 29 364 183 399
72 16 1779 13 1810 -3z m-46 -1332 c125 -27 147 -89 149 -424 3 -289 -9 -332
-105 -382 -47 -24 -1776 -21 -1849 3 -130 43 -150 100 -145 410 4 250 8 272
64 328 64 64 16 60 949 66 468 3 858 6 867 8 9 1 41 -3 70 -9z"/>
</g>
</svg>
