<svg xmlns="http://www.w3.org/2000/svg" viewBox="0 0 318.935728 515.873548">
<g transform="rotate(180 159.467864 257.936774)">
<g transform="translate(-22.060565,520.791480) scale(0.100000,-0.100000)" fill="#000000" stroke="none" fill-rule="evenodd">
<path d="M 1311 4966 C 1258 4954 1207 4940 1157 4922 C 1108 4903 1059 4881 1012 4855 C 966 4829 918 4797 876 4764 C 833 4731 794 4695 757 4657 C 721 4619 687 4578 656 4534 C 624 4490 594 4442 569 4395 C 543 4347 521 4299 502 4249 C 484 4200 468 4149 456 4097 C 443 4044 434 3988 429 3934 C 424 3881 424 3828 427 3775 C 430 3722 437 3669 449 3617 C 461 3564 478 3510 497 3460 C 517 3410 540 3363 568 3317 C 595 3270 621 3228 663 3182 C 705 3136 765 3081 820 3043 C 875 3004 940 2973 992 2951 C 1044 2930 1089 2924 1132 2914 C 1174 2904 1208 2898 1248 2892 C 1288 2885 1328 2880 1370 2875 C 1413 2871 1457 2867 1504 2865 C 1550 2863 1600 2863 1649 2863 C 1697 2863 1745 2865 1793 2867 C 1842 2869 1890 2872 1938 2874 C 1987 2876 2038 2878 2086 2879 C 2133 2880 2179 2881 2223 2879 C 2267 2877 2310 2875 2352 2869 C 2393 2864 2435 2856 2472 2847 C 2509 2838 2542 2826 2573 2814 C 2605 2801 2631 2787 2659 2771 C 2686 2756 2712 2743 2740 2719 C 2767 2695 2803 2671 2824 2627 C 2844 2583 2858 2517 2862 2457 C 2866 2397 2856 2324 2848 2266 C 2839 2208 2826 2160 2813 2108 C 2801 2055 2789 2005 2775 1952 C 2761 1900 2745 1846 2728 1794 C 2712 1743 2694 1693 2675 1643 C 2655 1594 2635 1545 2611 1497 C 2588 1448 2561 1398 2533 1351 C 2506 1305 2477 1261 2446 1218 C 2415 1174 2383 1132 2348 1091 C 2314 1049 2277 1006 2241 966 C 2204 926 2168 888 2130 850 C 2093 812 2056 775 2016 738 C 1976 701 1934 664 1892 629 C 1851 594 1809 562 1768 528 C 1726 495 1675 465 1643 430 C 1610 394 1570 346 1574 316 C 1578 287 1627 260 1668 254 C 1709 249 1769 267 1819 284 C 1868 302 1918 332 1964 361 C 2010 389 2052 421 2094 453 C 2136 485 2177 519 2218 555 C 2259 590 2300 628 2339 666 C 2378 704 2414 742 2450 782 C 2485 822 2518 862 2551 906 C 2584 949 2616 995 2645 1041 C 2675 1086 2702 1131 2728 1178 C 2754 1224 2778 1271 2801 1320 C 2824 1369 2847 1421 2868 1471 C 2889 1521 2908 1570 2926 1620 C 2944 1670 2961 1720 2977 1772 C 2992 1824 3008 1878 3021 1930 C 3035 1983 3047 2034 3059 2086 C 3072 2138 3083 2189 3094 2242 C 3105 2295 3116 2351 3125 2404 C 3135 2458 3143 2510 3151 2562 C 3159 2615 3166 2667 3172 2721 C 3178 2775 3184 2831 3188 2885 C 3193 2939 3196 2992 3199 3045 C 3202 3098 3204 3151 3205 3205 C 3206 3259 3206 3316 3204 3370 C 3203 3424 3200 3476 3195 3530 C 3190 3582 3183 3635 3173 3688 C 3164 3741 3151 3796 3137 3849 C 3123 3901 3107 3951 3090 4002 C 3072 4052 3054 4101 3033 4151 C 3012 4201 2988 4252 2964 4301 C 2939 4349 2914 4395 2886 4440 C 2857 4485 2828 4529 2794 4571 C 2761 4614 2723 4656 2685 4694 C 2646 4731 2605 4765 2562 4796 C 2519 4826 2473 4854 2425 4877 C 2376 4900 2323 4920 2272 4936 C 2220 4952 2168 4963 2116 4972 C 2064 4982 2011 4988 1957 4993 C 1904 4998 1847 5001 1793 5002 C 1739 5004 1686 5004 1633 5002 C 1580 5001 1527 4998 1473 4992 C 1420 4986 1363 4978 1311 4966 Z M 1985 4598 C 2048 4583 2109 4560 2170 4536 C 2230 4512 2290 4487 2347 4455 C 2403 4423 2460 4390 2506 4346 C 2553 4303 2594 4250 2623 4194 C 2653 4138 2671 4074 2684 4011 C 2697 3948 2700 3882 2699 3818 C 2697 3753 2691 3687 2676 3625 C 2660 3563 2639 3500 2607 3445 C 2575 3390 2532 3339 2485 3297 C 2438 3254 2381 3219 2324 3189 C 2268 3158 2206 3134 2145 3112 C 2084 3091 2021 3071 1958 3058 C 1895 3045 1830 3035 1766 3034 C 1701 3034 1636 3043 1573 3055 C 1509 3067 1446 3086 1385 3108 C 1325 3130 1263 3155 1208 3188 C 1154 3221 1100 3260 1056 3306 C 1012 3352 973 3407 945 3463 C 916 3520 896 3584 883 3647 C 870 3709 866 3776 867 3840 C 867 3904 874 3970 888 4033 C 903 4095 923 4159 954 4214 C 985 4269 1027 4321 1074 4364 C 1121 4407 1178 4441 1234 4472 C 1291 4504 1352 4528 1413 4550 C 1474 4572 1536 4592 1600 4604 C 1663 4616 1728 4624 1793 4622 C 1857 4621 1922 4612 1985 4598 Z"/>
</g>
</g>
</svg>
