<svg xmlns="http://www.w3.org/2000/svg" viewBox="0 0 279.271913 739.733340">
<g transform="translate(-0.000000,739.733340) scale(0.100000,-0.100000)" fill="#000000" stroke="none">
<path d="M1268 7393 c-1268 -3 -1268 -3 -1268 -398 0 -395 0 -395 958 -395
1059 0 1027 2 1096 -63 41 -39 61 -102 52 -167 -19 -140 -7 -4254 12 -4279 52
-71 154 -94 403 -89 195 3 219 11 253 82 23 50 26 5178 2 5224 -32 61 -97 92
-186 89 -30 -1 -625 -3 -1322 -4z"/>
<path d="M1302 1400 C1688 1400 2002 1086 2002 700 C2002 314 1688 0 1302 0 C916 0 602 314 602 700 C602 1086 916 1400 1302 1400 Z"/>
</g>
</svg>
