<svg xmlns="http://www.w3.org/2000/svg" viewBox="0 0 208.850739 540.076248">
<g transform="translate(-17.393892,561.819658) scale(0.100000,-0.100000)" fill="#000000" stroke="none">
<path d="M514 5601 c-135 -61 -136 -211 -1 -358 29 -32 72 -84 95 -115 23 -31
65 -76 93 -100 222 -186 405 -395 502 -572 27 -50 71 -121 98 -157 67 -90 82
-130 119 -304 20 -96 50 -195 81 -275 77 -195 82 -241 74 -660 -7 -418 -10
-437 -81 -646 -29 -89 -68 -214 -84 -280 -35 -137 -52 -175 -118 -266 -27 -37
-60 -93 -72 -125 -39 -98 -76 -165 -125 -228 -26 -33 -66 -94 -88 -135 -23
-41 -69 -107 -103 -145 -33 -39 -78 -95 -100 -125 -21 -30 -65 -84 -97 -120
-33 -36 -81 -96 -107 -135 -26 -38 -65 -86 -85 -105 -21 -19 -75 -84 -120
-145 -46 -60 -106 -132 -135 -160 -195 -188 -28 -320 187 -148 37 30 104 73
147 96 44 23 110 71 150 108 39 36 93 80 119 98 26 18 76 59 110 91 34 31 89
79 123 106 33 27 82 74 108 104 27 30 74 80 105 110 115 113 253 275 293 344
23 39 69 105 102 146 33 42 79 117 104 170 24 52 68 133 98 180 34 54 68 127
93 200 22 63 60 154 85 201 70 131 81 180 111 469 8 85 27 216 42 290 33 169
34 318 4 507 -11 73 -27 193 -36 267 -19 163 -37 234 -75 303 -17 29 -44 77
-60 107 -17 30 -44 92 -59 138 -31 92 -69 172 -112 234 -15 22 -55 94 -88 160
-40 79 -81 143 -122 189 -33 39 -78 95 -100 126 -126 185 -503 486 -668 534
-153 45 -339 57 -407 26z"/>
</g>
</svg>
