<svg xmlns="http://www.w3.org/2000/svg" viewBox="0 0 165.984077 639.990194">
<g transform="translate(-17.411426,639.990194) scale(0.100000,-0.100000)" fill="#000000" stroke="none">
<path d="M196 6288 c-53 -227 -2 -290 376 -467 77 -36 123 -65 174 -111 38
-35 101 -86 139 -115 99 -74 294 -278 329 -345 16 -30 51 -88 79 -129 192
-286 195 -845 6 -1119 -28 -40 -62 -101 -76 -135 -39 -96 -59 -132 -123 -217
-32 -43 -73 -105 -91 -136 -17 -31 -60 -87 -94 -123 -34 -36 -83 -97 -107
-136 -25 -38 -70 -98 -99 -132 -30 -33 -69 -87 -88 -120 -19 -32 -63 -98 -97
-148 -77 -112 -96 -151 -124 -245 -12 -41 -51 -131 -86 -199 -74 -146 -85
-188 -119 -476 -53 -443 -4 -857 125 -1060 28 -44 69 -114 91 -156 71 -137
361 -433 507 -518 84 -49 128 -97 144 -157 12 -44 12 -44 165 -44 152 0 153 0
153 23 0 12 8 68 17 123 25 148 6 197 -110 281 -29 20 -77 58 -107 83 -30 25
-78 60 -105 77 -68 44 -256 247 -307 330 -22 37 -59 95 -81 127 -169 249 -159
943 17 1258 19 35 51 106 72 158 47 124 58 143 114 215 25 33 68 96 94 141 26
44 76 113 111 152 35 39 78 93 96 119 18 26 61 78 96 116 40 44 81 102 108
156 23 47 67 118 95 156 29 39 75 117 102 174 27 57 62 123 79 148 74 107 99
194 150 528 42 275 -23 688 -139 887 -27 45 -68 119 -91 163 -22 45 -67 110
-99 146 -32 37 -69 81 -82 100 -38 55 -71 88 -145 145 -38 30 -105 82 -147
116 -42 35 -100 80 -130 101 -29 20 -80 59 -114 85 -34 27 -100 65 -150 86
-146 61 -170 78 -201 146 -28 60 -28 60 -164 60 -136 0 -136 0 -163 -112z"/>
</g>
</svg>
