<svg xmlns="http://www.w3.org/2000/svg" viewBox="0 0 284.570000 273.080000">
<g transform="translate(-12.820000,275.540000) scale(0.100000,-0.100000)" fill="#000000" stroke="none">
<path d="M 1820 2590 L 1821 2595 Q 1820 2590 1824 2586 L 1876 2531 Q 1880 2527 1880 2522 L 1880 2301 Q 1880 2296 1885 2295 L 1924 2291 Q 1928 2290 1928 2285 L 1930 1779 Q 1930 1774 1926 1772 L 1815 1712 Q 1810 1710 1805 1710 L 1585 1709 Q 1580 1709 1577 1705 L 1539 1650 Q 1536 1646 1537 1641 L 1540 1595 Q 1541 1590 1546 1590 L 1754 1590 Q 1758 1590 1759 1595 L 1766 1645 Q 1767 1650 1772 1650 L 1870 1650 Q 1876 1650 1876 1645 L 1876 1565 Q 1876 1560 1873 1556 L 1636 1082 Q 1633 1078 1630 1074 L 1413 792 Q 1410 788 1415 790 L 1568 832 Q 1573 834 1576 838 L 1921 1236 Q 1924 1240 1923 1235 L 1820 197 Q 1820 192 1825 190 L 1982 132 Q 1987 131 1987 136 L 2050 1232 Q 2050 1237 2054 1234 L 2221 1064 Q 2225 1060 2225 1055 L 2230 948 Q 2230 943 2235 942 L 2277 938 Q 2282 938 2284 933 L 2352 775 Q 2354 770 2359 770 L 2852 770 Q 2858 770 2859 775 L 2868 807 Q 2870 812 2865 814 L 2530 956 Q 2525 958 2522 962 L 2066 1370 Q 2063 1374 2063 1379 L 2055 1694 Q 2055 1700 2060 1700 L 2465 1712 Q 2470 1712 2472 1716 L 2519 1796 Q 2522 1800 2517 1802 L 2392 1880 Q 2388 1882 2383 1882 L 2056 1831 Q 2051 1830 2051 1835 L 2110 2522 Q 2110 2527 2105 2529 L 1947 2597 Q 1942 2599 1942 2604 L 1938 2645 Q 1937 2650 1932 2650 L 1833 2650 Q 1828 2650 1827 2645 Z M 590 2475 L 590 2480 Q 590 2475 590 2470 L 590 2368 Q 590 2363 587 2359 L 247 1960 Q 244 1956 249 1958 L 399 2014 Q 404 2016 408 2019 L 816 2411 Q 820 2414 820 2419 L 820 2521 Q 820 2526 816 2530 L 758 2586 Q 755 2590 750 2590 L 595 2587 Q 590 2587 590 2582 Z M 1170 2491 L 1175 2493 Q 1170 2491 1172 2486 L 1228 2354 Q 1230 2350 1230 2345 L 1230 1782 Q 1230 1776 1225 1775 L 947 1711 Q 942 1710 942 1705 L 940 1661 Q 940 1656 945 1656 L 1222 1650 Q 1227 1650 1227 1645 L 1227 1602 Q 1227 1597 1225 1592 L 1059 1185 Q 1057 1180 1052 1180 L 1006 1180 Q 1001 1180 1001 1175 L 996 1065 Q 995 1060 992 1056 L 713 678 Q 710 674 715 676 L 930 772 Q 934 774 937 778 L 1222 1236 Q 1225 1240 1225 1235 L 1173 267 Q 1173 262 1174 257 L 1184 185 Q 1184 180 1190 180 L 1277 180 Q 1282 180 1283 185 L 1290 293 Q 1290 298 1295 299 L 1345 307 Q 1350 308 1350 313 L 1350 1226 Q 1350 1231 1354 1228 L 1486 1123 Q 1489 1120 1493 1124 L 1576 1204 Q 1580 1207 1580 1212 L 1578 1284 Q 1578 1289 1574 1291 L 1355 1364 Q 1350 1365 1350 1370 L 1350 1696 Q 1350 1701 1355 1701 L 1514 1713 Q 1519 1714 1523 1717 L 1585 1789 Q 1588 1793 1584 1794 L 1357 1830 Q 1352 1831 1352 1836 L 1405 2407 Q 1405 2412 1402 2415 L 1288 2526 Q 1285 2530 1280 2528 Z M 650 2106 L 650 2111 Q 650 2106 649 2101 L 587 1842 Q 586 1837 582 1833 L 248 1489 Q 244 1486 249 1487 L 462 1548 Q 466 1549 470 1553 L 873 1948 Q 876 1952 876 1957 L 878 2100 Q 878 2105 874 2108 L 814 2160 Q 811 2163 806 2164 L 655 2178 Q 650 2178 650 2173 Z M 650 1603 L 650 1608 Q 650 1603 648 1598 L 577 1372 Q 576 1368 572 1364 L 235 979 Q 232 975 236 973 L 283 954 Q 288 952 292 955 L 415 1067 Q 419 1070 424 1070 L 520 1058 Q 525 1058 525 1052 L 531 784 Q 531 779 527 776 L 480 734 Q 476 731 476 726 L 468 485 Q 468 480 463 480 L 414 476 Q 409 475 410 470 L 474 135 Q 475 130 480 130 L 584 130 Q 589 130 590 135 L 594 238 Q 594 243 599 244 L 635 251 Q 640 252 640 257 L 653 1108 Q 653 1113 648 1114 L 595 1125 Q 590 1126 590 1131 L 592 1222 Q 592 1227 596 1231 L 875 1490 Q 878 1493 876 1498 L 820 1645 Q 818 1650 813 1650 L 659 1650 Q 654 1650 653 1645 Z"/>
</g>
</svg>
