<svg xmlns="http://www.w3.org/2000/svg" viewBox="0 0 353.405401 513.835098">
<g transform="translate(16.819839,496.647862) scale(0.100000,-0.100000)" fill="#000000" stroke="none">
<path d="M 1078 4700 C 1077 4696 1074 4695 1074 4682 C 1074 4668 1071 4644 1077 4621 C 1082 4599 1094 4571 1108 4549 C 1122 4527 1142 4507 1162 4489 C 1181 4471 1204 4456 1227 4443 C 1250 4429 1275 4419 1300 4408 C 1325 4398 1351 4389 1375 4379 C 1400 4368 1425 4357 1448 4344 C 1472 4332 1495 4318 1519 4304 C 1542 4291 1565 4277 1589 4265 C 1613 4253 1638 4242 1663 4233 C 1688 4223 1714 4216 1740 4208 C 1766 4200 1792 4192 1817 4182 C 1842 4172 1866 4161 1890 4149 C 1914 4137 1937 4123 1961 4110 C 1984 4096 2008 4082 2032 4070 C 2056 4058 2080 4047 2105 4037 C 2130 4026 2156 4018 2180 4007 C 2204 3996 2232 3984 2251 3970 C 2271 3956 2289 3934 2298 3924 C 2308 3913 2306 3911 2308 3907 C 2308 3900 2309 3893 2306 3880 C 2303 3867 2300 3849 2291 3829 C 2282 3809 2267 3783 2253 3761 C 2238 3739 2220 3718 2203 3697 C 2186 3676 2168 3657 2150 3636 C 2132 3616 2112 3596 2095 3577 C 2078 3558 2063 3540 2046 3521 C 2029 3501 2012 3479 1994 3459 C 1977 3438 1959 3418 1941 3398 C 1923 3378 1904 3358 1886 3338 C 1868 3318 1850 3298 1833 3278 C 1816 3257 1798 3235 1781 3215 C 1765 3196 1750 3178 1733 3159 C 1716 3139 1696 3119 1679 3098 C 1661 3078 1644 3057 1626 3037 C 1609 3016 1592 2995 1574 2975 C 1556 2955 1538 2934 1519 2917 C 1500 2899 1482 2885 1461 2871 C 1439 2857 1414 2844 1390 2832 C 1366 2821 1340 2812 1315 2802 C 1290 2793 1264 2785 1238 2777 C 1213 2769 1187 2760 1161 2754 C 1135 2747 1108 2741 1082 2738 C 1057 2734 1034 2732 1008 2730 C 982 2728 954 2728 927 2727 C 900 2726 873 2726 846 2726 C 819 2725 792 2725 766 2725 C 738 2725 710 2725 685 2725 C 659 2725 636 2725 610 2725 C 584 2725 556 2725 529 2724 C 502 2724 475 2724 448 2724 C 421 2723 394 2723 367 2721 C 340 2720 314 2718 287 2714 C 261 2710 233 2703 208 2698 C 183 2692 160 2686 136 2679 C 111 2673 82 2669 61 2658 C 40 2647 23 2632 13 2612 C 3 2591 3 2562 1 2537 C -1 2511 0 2480 1 2457 C 2 2434 4 2412 5 2397 C 7 2383 9 2377 10 2370 C 16 2369 21 2366 32 2364 C 43 2362 58 2360 77 2358 C 95 2355 121 2352 143 2348 C 165 2344 189 2340 210 2336 C 232 2332 250 2328 272 2324 C 293 2321 316 2317 339 2315 C 362 2312 386 2311 407 2310 C 429 2310 448 2310 470 2310 C 491 2310 515 2310 538 2310 C 561 2310 585 2310 606 2311 C 628 2311 647 2311 669 2312 C 690 2312 714 2312 737 2312 C 760 2313 783 2313 806 2313 C 828 2314 852 2314 874 2314 C 896 2314 914 2314 936 2314 C 958 2314 982 2314 1004 2312 C 1027 2310 1051 2307 1072 2302 C 1093 2298 1110 2291 1130 2283 C 1150 2275 1171 2263 1192 2253 C 1212 2244 1234 2234 1254 2226 C 1274 2217 1292 2211 1312 2204 C 1333 2197 1356 2191 1378 2183 C 1399 2176 1422 2168 1441 2159 C 1461 2150 1477 2141 1495 2129 C 1513 2117 1532 2102 1550 2088 C 1568 2075 1586 2061 1605 2047 C 1623 2034 1643 2021 1661 2009 C 1679 1997 1695 1987 1713 1975 C 1731 1963 1750 1949 1769 1935 C 1787 1921 1805 1906 1822 1892 C 1840 1879 1854 1868 1872 1855 C 1890 1842 1910 1830 1929 1817 C 1948 1805 1968 1792 1986 1780 C 2005 1769 2020 1758 2038 1745 C 2056 1733 2074 1718 2093 1705 C 2111 1692 2131 1677 2149 1665 C 2167 1653 2182 1643 2201 1632 C 2219 1620 2241 1609 2259 1596 C 2278 1583 2297 1568 2311 1554 C 2325 1541 2336 1525 2343 1515 C 2350 1505 2351 1499 2353 1494 C 2353 1488 2355 1485 2351 1471 C 2348 1457 2343 1434 2332 1412 C 2320 1390 2302 1363 2284 1340 C 2266 1318 2245 1297 2225 1277 C 2205 1256 2184 1236 2163 1216 C 2142 1195 2121 1175 2100 1156 C 2079 1136 2058 1116 2036 1096 C 2015 1076 1994 1056 1973 1036 C 1952 1017 1930 997 1909 977 C 1888 957 1867 937 1845 918 C 1824 898 1803 878 1782 858 C 1760 838 1739 819 1718 799 C 1697 779 1676 759 1654 739 C 1633 720 1612 700 1591 680 C 1570 660 1548 640 1527 620 C 1506 600 1485 580 1465 560 C 1444 539 1423 519 1403 498 C 1383 477 1362 456 1344 434 C 1325 412 1306 387 1292 365 C 1278 343 1268 317 1262 303 C 1257 288 1258 286 1257 280 C 1260 271 1263 255 1268 242 C 1272 230 1277 219 1285 204 C 1292 189 1302 170 1314 151 C 1325 132 1340 109 1353 91 C 1366 73 1379 57 1391 44 C 1402 31 1412 22 1423 14 C 1434 6 1447 1 1456 -4 C 1462 -1 1468 -2 1479 7 C 1490 16 1506 32 1522 51 C 1538 69 1555 96 1574 118 C 1593 139 1614 158 1636 178 C 1658 198 1685 218 1708 237 C 1731 256 1753 274 1775 293 C 1797 312 1818 332 1839 351 C 1861 371 1881 390 1903 411 C 1925 431 1949 454 1971 474 C 1993 495 2013 514 2035 534 C 2056 554 2077 574 2098 594 C 2119 614 2140 633 2162 653 C 2184 674 2208 696 2230 717 C 2252 738 2272 757 2293 777 C 2314 797 2336 816 2357 836 C 2378 856 2398 875 2420 896 C 2442 916 2466 939 2488 960 C 2510 980 2531 999 2552 1019 C 2573 1039 2594 1059 2616 1078 C 2637 1098 2658 1117 2680 1137 C 2702 1158 2727 1180 2749 1200 C 2770 1221 2791 1240 2810 1262 C 2830 1283 2849 1305 2865 1329 C 2881 1353 2896 1380 2906 1404 C 2916 1428 2921 1457 2924 1473 C 2928 1489 2926 1493 2927 1500 C 2925 1506 2925 1511 2921 1523 C 2917 1534 2912 1552 2902 1570 C 2891 1588 2876 1612 2861 1631 C 2846 1650 2829 1669 2811 1687 C 2794 1704 2776 1722 2757 1738 C 2738 1754 2718 1770 2698 1783 C 2679 1797 2660 1807 2641 1820 C 2621 1833 2599 1847 2578 1861 C 2558 1875 2538 1890 2518 1904 C 2497 1918 2476 1932 2456 1946 C 2435 1959 2412 1972 2392 1985 C 2372 1998 2354 2008 2335 2023 C 2316 2037 2296 2054 2279 2071 C 2262 2089 2245 2108 2231 2128 C 2217 2148 2203 2172 2194 2192 C 2184 2211 2178 2232 2174 2245 C 2170 2257 2172 2262 2171 2267 C 2175 2270 2176 2274 2186 2278 C 2196 2283 2212 2291 2231 2295 C 2250 2299 2276 2302 2298 2304 C 2321 2306 2344 2306 2366 2307 C 2389 2308 2412 2308 2435 2309 C 2458 2309 2481 2309 2503 2310 C 2525 2310 2544 2310 2565 2310 C 2587 2310 2611 2310 2634 2310 C 2657 2310 2680 2310 2702 2310 C 2725 2310 2748 2310 2771 2310 C 2794 2310 2817 2310 2839 2310 C 2861 2310 2880 2310 2901 2311 C 2923 2311 2947 2311 2970 2312 C 2992 2313 3016 2314 3038 2317 C 3060 2319 3085 2322 3105 2328 C 3125 2333 3145 2342 3156 2347 C 3167 2352 3168 2355 3172 2358 C 3175 2366 3181 2379 3184 2391 C 3187 2403 3189 2413 3191 2428 C 3193 2444 3196 2463 3197 2484 C 3198 2504 3198 2530 3197 2550 C 3196 2571 3194 2590 3192 2606 C 3190 2623 3187 2636 3184 2649 C 3180 2661 3174 2674 3171 2682 C 3166 2685 3164 2688 3152 2694 C 3139 2699 3119 2708 3098 2713 C 3077 2718 3050 2722 3025 2724 C 3001 2727 2977 2728 2951 2728 C 2925 2729 2896 2730 2870 2730 C 2844 2730 2820 2730 2795 2730 C 2770 2730 2746 2730 2721 2730 C 2696 2730 2672 2730 2646 2730 C 2620 2730 2591 2730 2565 2729 C 2539 2729 2515 2729 2490 2729 C 2466 2729 2441 2729 2416 2729 C 2391 2728 2367 2728 2341 2728 C 2315 2728 2286 2728 2260 2728 C 2234 2729 2210 2728 2186 2731 C 2162 2734 2136 2738 2116 2746 C 2096 2755 2078 2774 2067 2783 C 2056 2792 2056 2796 2052 2801 C 2051 2806 2047 2809 2048 2823 C 2049 2837 2049 2862 2056 2884 C 2064 2905 2079 2931 2094 2953 C 2108 2975 2127 2996 2144 3016 C 2162 3037 2180 3056 2198 3076 C 2216 3096 2235 3116 2253 3136 C 2271 3156 2289 3175 2307 3196 C 2325 3216 2343 3236 2361 3256 C 2378 3276 2396 3297 2413 3318 C 2431 3338 2448 3358 2466 3379 C 2484 3399 2502 3419 2520 3439 C 2538 3459 2557 3479 2575 3499 C 2593 3518 2612 3538 2630 3558 C 2648 3578 2667 3597 2685 3618 C 2703 3638 2721 3658 2738 3678 C 2755 3699 2772 3720 2788 3742 C 2803 3764 2818 3786 2832 3810 C 2845 3833 2858 3857 2867 3882 C 2877 3907 2884 3934 2888 3959 C 2891 3983 2889 4012 2888 4028 C 2888 4043 2885 4045 2884 4051 C 2881 4057 2882 4060 2871 4075 C 2860 4090 2841 4118 2818 4139 C 2795 4159 2762 4180 2732 4198 C 2702 4215 2668 4228 2637 4244 C 2606 4260 2576 4278 2544 4295 C 2514 4312 2483 4330 2451 4344 C 2419 4359 2387 4371 2353 4384 C 2319 4396 2281 4406 2247 4419 C 2214 4432 2183 4448 2152 4464 C 2120 4480 2091 4500 2060 4516 C 2029 4532 1997 4548 1965 4562 C 1932 4575 1898 4586 1866 4598 C 1833 4610 1800 4622 1767 4636 C 1734 4650 1699 4668 1666 4684 C 1633 4700 1603 4716 1571 4730 C 1538 4744 1506 4757 1472 4767 C 1438 4777 1404 4786 1369 4791 C 1335 4796 1299 4800 1265 4797 C 1230 4794 1193 4786 1164 4774 C 1136 4762 1108 4735 1094 4722 C 1079 4710 1082 4706 1078 4700 Z"/>
</g>
</svg>
