<svg xmlns="http://www.w3.org/2000/svg" viewBox="0 0 252.722895 492.116776">
<g transform="translate(16.102895,476.082222) scale(0.100000,-0.100000)" fill="#000000" stroke="none">
<path d="M 7 4234 C 11 4232 12 4229 21 4227 C 30 4224 45 4221 60 4218 C 76 4215 95 4213 112 4209 C 130 4205 147 4199 164 4193 C 180 4187 197 4180 213 4172 C 229 4165 244 4157 260 4148 C 276 4138 294 4126 310 4117 C 326 4107 340 4098 356 4089 C 372 4081 387 4073 404 4065 C 420 4058 436 4051 453 4045 C 470 4038 487 4033 504 4028 C 520 4022 537 4017 555 4012 C 573 4007 593 4001 611 3995 C 629 3989 645 3984 662 3977 C 678 3971 695 3965 711 3958 C 728 3951 744 3943 760 3935 C 776 3928 792 3919 807 3911 C 823 3903 838 3895 855 3887 C 872 3878 891 3869 908 3861 C 925 3853 941 3846 957 3840 C 974 3833 990 3827 1007 3821 C 1024 3815 1041 3810 1058 3805 C 1075 3800 1092 3795 1109 3789 C 1126 3784 1142 3778 1160 3772 C 1177 3765 1197 3756 1214 3748 C 1231 3740 1246 3733 1261 3724 C 1276 3714 1292 3705 1305 3694 C 1319 3683 1333 3671 1345 3658 C 1356 3645 1367 3630 1375 3615 C 1383 3601 1388 3581 1391 3571 C 1394 3561 1393 3559 1394 3555 C 1393 3550 1393 3545 1390 3535 C 1387 3525 1383 3509 1375 3494 C 1366 3479 1353 3458 1339 3443 C 1326 3427 1308 3414 1292 3400 C 1276 3386 1258 3374 1241 3361 C 1224 3347 1208 3334 1191 3320 C 1175 3307 1159 3293 1142 3279 C 1126 3265 1109 3251 1093 3238 C 1077 3225 1063 3214 1047 3201 C 1031 3188 1014 3174 997 3161 C 980 3148 964 3134 948 3120 C 931 3106 915 3092 899 3078 C 882 3064 866 3051 849 3038 C 833 3024 816 3011 799 2998 C 782 2985 764 2971 748 2959 C 732 2946 718 2935 702 2922 C 686 2909 670 2894 653 2880 C 637 2867 620 2853 604 2839 C 587 2826 570 2813 553 2800 C 536 2787 518 2775 502 2762 C 485 2749 468 2735 452 2722 C 435 2708 418 2693 402 2680 C 387 2667 373 2656 357 2643 C 341 2630 323 2617 307 2603 C 290 2590 274 2576 258 2561 C 243 2546 229 2530 215 2514 C 201 2498 188 2480 176 2463 C 163 2446 150 2429 138 2411 C 126 2394 112 2375 103 2358 C 93 2342 85 2325 80 2315 C 76 2304 76 2300 75 2296 C 76 2292 76 2289 81 2280 C 86 2272 94 2259 104 2246 C 115 2233 130 2216 143 2202 C 156 2187 169 2172 181 2157 C 194 2143 203 2130 216 2116 C 228 2102 242 2087 256 2074 C 271 2061 288 2050 304 2040 C 320 2030 334 2023 351 2016 C 368 2008 388 2002 406 1995 C 425 1988 444 1982 462 1975 C 479 1968 494 1961 510 1953 C 527 1945 545 1935 562 1926 C 580 1916 597 1905 613 1896 C 629 1886 642 1877 659 1868 C 675 1859 694 1850 711 1842 C 729 1834 748 1827 766 1820 C 784 1813 804 1806 821 1799 C 838 1792 854 1787 871 1780 C 888 1772 907 1764 924 1755 C 942 1746 960 1736 976 1727 C 992 1717 1005 1708 1021 1698 C 1036 1688 1054 1677 1071 1667 C 1088 1658 1106 1649 1123 1641 C 1140 1634 1156 1628 1173 1621 C 1190 1615 1210 1608 1228 1601 C 1246 1594 1266 1586 1282 1578 C 1299 1570 1314 1563 1330 1553 C 1345 1543 1363 1532 1377 1519 C 1391 1506 1405 1489 1414 1474 C 1424 1460 1430 1442 1433 1432 C 1437 1422 1436 1420 1437 1416 C 1437 1411 1438 1407 1435 1396 C 1433 1385 1430 1366 1421 1349 C 1413 1332 1400 1309 1385 1291 C 1371 1274 1353 1258 1336 1243 C 1319 1229 1303 1218 1285 1205 C 1267 1192 1246 1178 1228 1165 C 1209 1151 1191 1137 1173 1122 C 1155 1108 1137 1092 1120 1078 C 1102 1064 1087 1051 1069 1038 C 1052 1024 1032 1010 1013 997 C 994 984 974 970 956 958 C 938 945 922 933 904 920 C 886 906 868 890 850 876 C 832 862 814 847 796 833 C 777 819 757 805 739 792 C 721 779 705 768 687 755 C 669 741 650 726 632 712 C 615 697 597 681 579 667 C 562 652 543 637 525 623 C 507 610 491 598 473 585 C 455 572 435 559 417 545 C 398 531 379 516 362 502 C 345 487 330 474 314 459 C 299 443 282 426 266 409 C 251 391 237 373 224 354 C 212 335 199 314 191 293 C 183 273 178 254 174 232 C 171 211 170 186 170 163 C 171 140 172 115 174 94 C 177 74 182 53 186 42 C 189 30 192 28 194 23 C 200 21 212 16 222 13 C 232 10 241 9 254 7 C 267 5 284 3 301 2 C 319 1 341 1 359 1 C 377 0 394 1 408 1 C 422 2 434 2 446 3 C 457 4 469 5 477 6 C 480 10 483 15 488 25 C 493 35 498 50 507 66 C 516 83 527 107 540 125 C 554 142 570 159 588 174 C 605 188 625 201 644 214 C 664 226 685 238 703 251 C 722 263 738 274 756 288 C 773 301 792 316 810 331 C 828 345 847 359 865 373 C 884 387 902 401 921 415 C 940 428 958 442 976 457 C 994 471 1013 487 1030 501 C 1047 515 1062 528 1080 542 C 1097 555 1116 570 1135 584 C 1154 597 1173 610 1192 624 C 1211 637 1230 650 1248 664 C 1266 678 1284 693 1302 708 C 1320 722 1339 738 1357 751 C 1374 765 1390 776 1408 789 C 1426 802 1446 816 1465 829 C 1484 842 1503 856 1522 870 C 1540 884 1558 899 1576 913 C 1594 928 1612 944 1630 957 C 1647 971 1663 983 1681 996 C 1698 1010 1718 1024 1736 1038 C 1755 1052 1773 1066 1791 1080 C 1809 1095 1827 1110 1845 1124 C 1863 1139 1881 1154 1898 1169 C 1916 1184 1934 1200 1951 1215 C 1967 1230 1982 1243 1998 1258 C 2015 1273 2032 1289 2050 1305 C 2067 1320 2085 1335 2103 1350 C 2120 1364 2141 1377 2156 1393 C 2170 1409 2184 1429 2192 1446 C 2200 1463 2202 1483 2204 1495 C 2206 1507 2205 1513 2205 1519 C 2203 1522 2204 1526 2198 1532 C 2191 1537 2180 1545 2166 1552 C 2151 1558 2130 1564 2112 1572 C 2095 1581 2078 1591 2061 1601 C 2045 1612 2029 1625 2014 1636 C 1999 1648 1988 1659 1974 1671 C 1959 1683 1944 1698 1929 1710 C 1914 1722 1898 1734 1882 1744 C 1865 1754 1848 1764 1830 1772 C 1812 1780 1793 1787 1775 1794 C 1758 1800 1742 1805 1725 1811 C 1707 1817 1688 1824 1670 1832 C 1652 1839 1634 1848 1616 1856 C 1599 1865 1582 1875 1565 1886 C 1548 1896 1531 1907 1515 1917 C 1499 1926 1486 1935 1469 1943 C 1452 1952 1434 1961 1416 1968 C 1398 1976 1379 1982 1360 1988 C 1342 1995 1323 2001 1305 2008 C 1287 2015 1268 2023 1251 2031 C 1234 2039 1220 2046 1204 2055 C 1187 2064 1170 2075 1153 2085 C 1136 2095 1120 2106 1103 2116 C 1086 2126 1069 2136 1051 2144 C 1034 2153 1015 2162 998 2169 C 981 2177 966 2182 948 2189 C 931 2196 911 2202 894 2210 C 876 2219 858 2228 842 2239 C 826 2250 810 2264 799 2277 C 788 2290 779 2307 774 2316 C 769 2326 769 2328 768 2332 C 768 2337 766 2341 768 2352 C 769 2363 770 2382 777 2400 C 783 2417 792 2438 804 2456 C 816 2474 832 2494 847 2510 C 862 2526 878 2540 894 2554 C 910 2568 926 2580 944 2594 C 961 2608 981 2623 998 2637 C 1016 2651 1032 2664 1048 2678 C 1064 2692 1080 2706 1096 2720 C 1113 2734 1132 2751 1149 2765 C 1166 2779 1183 2792 1200 2804 C 1217 2817 1234 2829 1252 2843 C 1269 2856 1289 2872 1306 2886 C 1323 2900 1338 2914 1354 2928 C 1370 2942 1386 2956 1403 2970 C 1420 2984 1440 2999 1458 3012 C 1476 3026 1492 3038 1508 3052 C 1525 3065 1540 3079 1557 3094 C 1574 3108 1592 3125 1609 3140 C 1626 3154 1642 3167 1658 3181 C 1675 3194 1691 3207 1709 3221 C 1726 3234 1746 3250 1764 3264 C 1781 3278 1797 3290 1813 3304 C 1830 3318 1845 3331 1862 3346 C 1878 3361 1897 3378 1913 3393 C 1929 3409 1943 3424 1958 3439 C 1972 3455 1986 3470 1999 3488 C 2013 3506 2028 3526 2039 3545 C 2051 3564 2061 3583 2068 3601 C 2076 3619 2081 3641 2084 3653 C 2087 3665 2086 3668 2086 3673 C 2084 3678 2084 3681 2079 3691 C 2073 3702 2064 3717 2053 3733 C 2041 3749 2023 3769 2008 3785 C 1993 3802 1979 3816 1963 3831 C 1947 3847 1930 3864 1913 3879 C 1895 3894 1876 3910 1858 3922 C 1840 3934 1823 3944 1803 3953 C 1782 3963 1760 3971 1738 3978 C 1716 3986 1692 3991 1671 3998 C 1650 4004 1631 4009 1610 4016 C 1588 4023 1566 4030 1544 4039 C 1523 4048 1501 4058 1481 4068 C 1461 4077 1444 4087 1424 4097 C 1404 4107 1383 4119 1362 4128 C 1341 4138 1319 4148 1298 4156 C 1277 4164 1259 4170 1238 4177 C 1216 4184 1193 4191 1171 4199 C 1149 4206 1127 4214 1106 4222 C 1085 4230 1067 4237 1046 4246 C 1026 4254 1004 4264 982 4273 C 961 4283 940 4293 919 4303 C 899 4312 882 4321 861 4330 C 841 4338 818 4348 797 4356 C 775 4364 752 4371 731 4378 C 710 4385 691 4389 669 4396 C 648 4403 625 4410 604 4418 C 582 4427 560 4437 541 4448 C 522 4459 505 4470 489 4484 C 473 4499 457 4520 446 4536 C 435 4553 428 4572 423 4582 C 417 4592 414 4592 412 4596 C 404 4596 394 4597 380 4598 C 367 4598 349 4599 329 4599 C 308 4599 281 4600 256 4600 C 232 4600 206 4600 182 4599 C 157 4598 131 4597 110 4595 C 88 4593 68 4589 54 4586 C 41 4582 33 4578 26 4575 C 24 4570 19 4565 16 4554 C 13 4543 8 4528 6 4510 C 3 4491 2 4464 1 4442 C 0 4420 0 4400 0 4378 C 0 4356 0 4329 1 4309 C 2 4289 3 4270 4 4258 C 5 4245 7 4240 7 4234 Z"/>
</g>
</svg>
