<svg xmlns="http://www.w3.org/2000/svg" viewBox="0 0 288.433789 319.985824">
<g transform="translate(1.187912,309.407912) scale(0.100000,-0.100000)" fill="#000000" stroke="none" >
<path d="M 2566 21 C 2525 -8 2540 19 2517 18 C 2493 16 2457 14 2425 12 C 2393 10 2358 9 2324 8 C 2291 6 2257 5 2224 5 C 2191 4 2158 3 2124 3 C 2092 2 2059 2 2026 2 C 1993 1 1960 1 1928 1 C 1895 1 1862 0 1829 0 C 1797 0 1764 0 1731 0 C 1698 0 1666 0 1633 0 C 1600 0 1565 0 1535 0 C 1505 0 1483 0 1453 0 C 1423 0 1387 0 1355 0 C 1322 1 1289 1 1256 1 C 1224 1 1191 2 1158 2 C 1125 2 1092 3 1058 4 C 1025 4 991 5 957 7 C 922 8 887 10 851 13 C 814 16 777 19 738 25 C 699 32 658 39 616 51 C 574 64 530 78 488 100 C 446 121 403 148 365 179 C 328 210 290 252 263 286 C 236 321 220 350 201 388 C 182 425 165 471 152 512 C 139 552 130 593 123 632 C 116 671 112 708 108 745 C 104 782 102 818 100 853 C 98 889 97 923 96 957 C 95 991 95 1024 94 1058 C 94 1091 94 1124 94 1157 C 94 1190 94 1222 94 1255 C 94 1288 94 1320 94 1353 C 94 1386 94 1418 94 1451 C 94 1483 94 1518 94 1548 C 94 1578 94 1600 94 1630 C 94 1660 94 1695 94 1728 C 94 1760 94 1793 94 1826 C 94 1859 94 1892 94 1925 C 95 1959 95 1992 96 2026 C 97 2060 98 2095 100 2131 C 103 2166 105 2203 110 2240 C 114 2278 119 2316 128 2356 C 136 2395 146 2436 160 2477 C 175 2518 192 2560 214 2600 C 236 2640 266 2683 294 2716 C 322 2749 346 2773 380 2800 C 414 2827 458 2856 498 2877 C 539 2898 582 2915 623 2928 C 664 2941 705 2950 744 2957 C 783 2965 821 2969 858 2973 C 895 2977 930 2979 966 2981 C 1001 2983 1035 2984 1068 2985 C 1102 2986 1136 2986 1169 2987 C 1202 2987 1235 2988 1268 2988 C 1301 2988 1334 2988 1367 2988 C 1400 2989 1433 2989 1466 2989 C 1498 2989 1534 2988 1564 2988 C 1594 2988 1616 2988 1646 2988 C 1676 2988 1711 2988 1744 2987 C 1777 2987 1809 2987 1842 2986 C 1875 2986 1908 2986 1940 2985 C 1973 2985 2006 2984 2039 2984 C 2072 2983 2105 2983 2138 2982 C 2171 2981 2204 2981 2237 2980 C 2270 2979 2305 2977 2335 2976 C 2365 2975 2378 2981 2417 2972 C 2456 2963 2533 2972 2570 2922 C 2607 2872 2663 2736 2638 2670 C 2613 2605 2464 2551 2419 2528 C 2375 2505 2395 2529 2372 2530 C 2350 2531 2317 2533 2287 2534 C 2256 2535 2224 2536 2192 2537 C 2160 2538 2128 2539 2096 2539 C 2064 2540 2032 2540 2000 2541 C 1967 2541 1935 2542 1902 2542 C 1870 2542 1838 2543 1805 2543 C 1773 2543 1740 2544 1708 2544 C 1676 2544 1643 2544 1611 2544 C 1578 2545 1546 2545 1514 2545 C 1481 2545 1446 2545 1417 2545 C 1387 2545 1366 2545 1336 2545 C 1307 2545 1272 2544 1240 2544 C 1208 2544 1176 2543 1144 2543 C 1112 2542 1080 2542 1050 2540 C 1019 2539 988 2538 959 2536 C 930 2534 901 2532 874 2528 C 848 2525 822 2521 799 2516 C 776 2511 755 2505 736 2498 C 717 2491 701 2483 686 2474 C 672 2466 660 2456 648 2445 C 636 2434 626 2423 617 2409 C 607 2395 598 2377 591 2361 C 584 2345 579 2332 573 2312 C 568 2292 562 2267 558 2242 C 553 2218 550 2191 548 2163 C 545 2135 543 2106 542 2076 C 540 2046 540 2015 539 1984 C 538 1952 538 1920 538 1889 C 538 1857 538 1824 537 1792 C 537 1760 537 1727 537 1695 C 537 1662 537 1630 537 1597 C 537 1565 537 1532 537 1500 C 537 1467 537 1434 537 1402 C 537 1369 537 1334 537 1304 C 537 1274 537 1253 537 1223 C 537 1193 538 1158 538 1126 C 538 1094 538 1062 538 1030 C 539 999 539 967 540 936 C 542 906 543 876 545 846 C 546 817 549 789 552 762 C 556 735 560 709 565 686 C 570 662 576 640 583 621 C 590 602 598 586 606 571 C 614 557 623 546 632 535 C 642 525 653 516 665 509 C 676 501 685 496 700 490 C 716 484 736 478 758 473 C 779 468 804 464 830 460 C 856 457 885 455 914 453 C 943 451 974 450 1005 449 C 1036 448 1068 447 1099 447 C 1131 446 1163 446 1196 445 C 1228 445 1260 445 1293 444 C 1325 444 1357 444 1390 444 C 1422 444 1455 444 1487 444 C 1519 443 1552 443 1584 443 C 1616 443 1652 443 1681 443 C 1711 443 1733 443 1762 444 C 1792 444 1827 444 1860 444 C 1892 444 1924 444 1957 445 C 1989 445 2021 445 2054 446 C 2086 446 2118 446 2150 447 C 2182 448 2214 448 2246 449 C 2277 450 2309 451 2340 452 C 2371 453 2404 455 2432 457 C 2460 458 2469 466 2508 462 C 2547 458 2622 477 2665 431 C 2708 386 2781 259 2765 190 C 2748 122 2608 50 2566 21 Z"/>
</g>
</svg>
