<svg xmlns="http://www.w3.org/2000/svg" viewBox="0 0 428.000000 386.500000">
<g transform="translate(14.000000,396.300000) scale(0.100000,-0.100000)" fill="#000000" stroke="none">
<path d="M 2054 3823 L 80 3823 Q 0 3823 0 3743 L 0 1906 Q 0 1826 80 1826 L 1714 1826 Q 1794 1826 1794 1746 L 1794 318 Q 1794 238 1874 238 L 3920 238 Q 4000 238 4000 318 L 4000 2076 Q 4000 2156 3920 2156 L 3620 2156 Q 3540 2156 3540 2076 L 3540 715 Q 3540 635 3460 635 L 2270 635 Q 2190 635 2190 715 L 2190 2150 Q 2190 2230 2110 2230 L 521 2230 Q 441 2230 441 2310 L 441 3346 Q 441 3426 521 3426 L 2054 3426 Q 2134 3426 2134 3506 L 2134 3743 Q 2134 3823 2054 3823 Z"/>
</g>
</svg>
