<svg xmlns="http://www.w3.org/2000/svg" viewBox="0 0 227.200270 362.621442">
<g transform="translate(-6.254291,351.579736) scale(0.100000,-0.100000)" fill="#000000" stroke="none" >
<path d="M 902 232 C 885 274 905 252 909 270 C 912 288 917 316 923 340 C 929 365 935 393 942 418 C 949 444 957 470 965 495 C 973 520 981 544 989 568 C 998 592 1006 616 1015 639 C 1023 662 1032 685 1041 708 C 1049 731 1058 753 1067 776 C 1075 798 1084 821 1093 843 C 1101 865 1110 887 1118 909 C 1127 932 1136 955 1144 976 C 1152 996 1157 1010 1165 1031 C 1172 1051 1182 1074 1190 1096 C 1198 1118 1206 1140 1214 1162 C 1222 1184 1230 1206 1237 1228 C 1245 1249 1252 1271 1260 1292 C 1267 1314 1274 1335 1280 1356 C 1287 1378 1293 1399 1299 1420 C 1305 1441 1311 1462 1317 1484 C 1322 1505 1327 1526 1332 1548 C 1337 1571 1342 1593 1347 1616 C 1353 1640 1358 1664 1364 1689 C 1370 1714 1377 1743 1384 1767 C 1391 1792 1396 1810 1405 1836 C 1414 1861 1426 1892 1438 1918 C 1450 1945 1464 1972 1478 1996 C 1491 2021 1505 2044 1518 2066 C 1531 2088 1544 2108 1556 2127 C 1568 2147 1579 2165 1590 2184 C 1600 2202 1610 2220 1619 2238 C 1628 2256 1637 2274 1646 2293 C 1654 2312 1662 2332 1671 2352 C 1679 2372 1687 2392 1694 2413 C 1702 2434 1710 2455 1717 2476 C 1724 2496 1731 2519 1737 2538 C 1743 2557 1747 2571 1753 2590 C 1758 2609 1764 2631 1769 2652 C 1774 2673 1779 2694 1783 2714 C 1787 2735 1791 2757 1795 2777 C 1798 2798 1801 2820 1804 2840 C 1806 2860 1808 2880 1809 2897 C 1810 2914 1810 2931 1810 2942 C 1809 2954 1807 2961 1806 2965 C 1806 2968 1806 2964 1807 2964 C 1808 2963 1812 2960 1810 2961 C 1807 2962 1802 2965 1794 2968 C 1786 2970 1777 2973 1763 2975 C 1750 2978 1730 2980 1711 2982 C 1692 2984 1671 2985 1650 2986 C 1628 2987 1606 2988 1583 2988 C 1560 2989 1537 2989 1514 2990 C 1490 2990 1467 2990 1443 2990 C 1420 2990 1396 2990 1373 2990 C 1349 2990 1325 2990 1302 2990 C 1278 2990 1254 2990 1230 2990 C 1207 2990 1183 2990 1159 2989 C 1136 2989 1112 2989 1088 2989 C 1064 2989 1039 2988 1017 2988 C 995 2988 979 2988 957 2988 C 935 2988 909 2987 885 2987 C 861 2987 837 2987 813 2986 C 789 2986 765 2986 741 2986 C 717 2986 693 2986 669 2986 C 646 2986 622 2986 598 2986 C 575 2986 552 2986 529 2985 C 506 2985 483 2984 462 2984 C 442 2983 439 2977 407 2982 C 375 2986 306 2971 268 3013 C 231 3056 166 3174 183 3236 C 200 3298 332 3361 369 3386 C 406 3412 388 3387 406 3388 C 423 3389 450 3390 474 3390 C 497 3391 523 3392 548 3392 C 572 3392 597 3392 621 3392 C 645 3392 669 3392 692 3392 C 716 3392 740 3392 764 3392 C 787 3393 811 3393 835 3393 C 858 3393 882 3393 906 3394 C 930 3394 953 3394 977 3394 C 1001 3394 1025 3395 1049 3395 C 1073 3395 1099 3395 1121 3395 C 1143 3396 1159 3396 1181 3396 C 1203 3396 1229 3396 1253 3396 C 1277 3396 1301 3396 1325 3396 C 1349 3396 1373 3396 1397 3396 C 1421 3396 1445 3396 1469 3396 C 1494 3396 1518 3396 1542 3396 C 1567 3395 1592 3395 1617 3394 C 1642 3393 1668 3392 1694 3391 C 1721 3389 1748 3388 1778 3384 C 1807 3380 1837 3376 1870 3368 C 1903 3359 1940 3350 1976 3332 C 2011 3314 2055 3287 2085 3260 C 2116 3232 2138 3204 2158 3168 C 2178 3132 2195 3084 2204 3046 C 2214 3007 2215 2970 2216 2937 C 2218 2904 2215 2874 2213 2845 C 2211 2816 2207 2790 2204 2763 C 2200 2736 2196 2710 2191 2685 C 2186 2659 2181 2633 2176 2607 C 2170 2581 2164 2556 2157 2530 C 2151 2505 2144 2479 2136 2454 C 2129 2429 2121 2405 2113 2380 C 2105 2356 2097 2332 2088 2308 C 2080 2284 2070 2258 2061 2236 C 2053 2213 2047 2197 2037 2175 C 2028 2153 2016 2126 2005 2102 C 1993 2077 1981 2053 1968 2029 C 1955 2005 1942 1981 1929 1959 C 1916 1936 1902 1914 1889 1894 C 1877 1874 1865 1854 1854 1836 C 1843 1818 1833 1801 1825 1784 C 1816 1767 1808 1752 1802 1735 C 1795 1718 1789 1702 1783 1684 C 1777 1666 1772 1647 1767 1627 C 1762 1607 1756 1584 1752 1563 C 1747 1543 1744 1527 1739 1506 C 1734 1484 1728 1457 1722 1433 C 1716 1408 1710 1383 1704 1358 C 1697 1334 1690 1309 1683 1284 C 1676 1260 1668 1235 1660 1211 C 1653 1187 1645 1163 1637 1139 C 1629 1116 1620 1093 1612 1069 C 1604 1046 1596 1023 1587 1000 C 1579 978 1570 955 1562 932 C 1553 909 1545 887 1536 864 C 1528 841 1519 819 1510 796 C 1502 774 1492 750 1484 729 C 1476 709 1471 694 1463 674 C 1455 653 1446 630 1437 608 C 1429 586 1420 564 1412 542 C 1404 520 1396 498 1388 477 C 1380 456 1373 435 1366 414 C 1359 393 1352 372 1346 352 C 1340 332 1334 312 1329 292 C 1324 272 1319 251 1315 233 C 1312 214 1317 211 1306 182 C 1294 152 1294 81 1245 54 C 1196 27 1066 -11 1009 18 C 952 48 919 190 902 232 Z"/>
</g>
</svg>
