<svg xmlns="http://www.w3.org/2000/svg" viewBox="0 0 468.517427 492.084851">
<g transform="translate(-22.534351,486.992203) scale(0.100000,-0.100000)" fill="#000000" stroke="none" >
<path d="M 592 533 C 634 557 621 533 648 533 C 674 533 714 533 749 532 C 785 532 824 532 861 532 C 899 532 937 532 974 532 C 1012 532 1050 532 1087 532 C 1125 531 1162 531 1200 531 C 1238 531 1275 531 1312 531 C 1350 531 1387 530 1425 531 C 1462 531 1499 531 1536 531 C 1573 531 1610 532 1646 533 C 1682 534 1721 535 1753 536 C 1785 538 1808 539 1838 542 C 1868 545 1904 549 1933 554 C 1962 559 1990 566 2014 573 C 2038 581 2059 590 2077 600 C 2095 610 2110 620 2123 633 C 2136 646 2147 659 2157 676 C 2168 693 2177 713 2185 736 C 2193 759 2199 786 2205 814 C 2210 843 2214 874 2217 907 C 2220 939 2222 974 2224 1009 C 2226 1044 2227 1080 2227 1116 C 2228 1152 2228 1192 2229 1226 C 2229 1260 2229 1285 2229 1319 C 2229 1354 2229 1394 2229 1432 C 2229 1469 2229 1507 2229 1545 C 2229 1583 2229 1621 2230 1660 C 2230 1699 2231 1738 2232 1778 C 2234 1818 2236 1859 2240 1901 C 2244 1943 2248 1987 2257 2032 C 2266 2077 2276 2124 2294 2171 C 2311 2218 2333 2268 2362 2312 C 2391 2357 2428 2402 2468 2439 C 2508 2475 2556 2506 2601 2531 C 2647 2556 2700 2573 2742 2587 C 2784 2600 2815 2606 2855 2613 C 2896 2620 2942 2625 2984 2629 C 3026 2633 3066 2635 3106 2637 C 3146 2639 3185 2640 3224 2641 C 3262 2642 3300 2642 3339 2642 C 3377 2643 3415 2643 3452 2643 C 3490 2643 3528 2643 3565 2644 C 3602 2644 3640 2644 3676 2645 C 3713 2645 3750 2646 3785 2647 C 3821 2648 3856 2649 3890 2652 C 3924 2654 3960 2658 3988 2661 C 4016 2665 4036 2668 4061 2674 C 4085 2680 4112 2688 4134 2698 C 4156 2706 4174 2716 4190 2728 C 4206 2740 4219 2752 4232 2766 C 4244 2781 4255 2798 4265 2817 C 4274 2837 4283 2860 4290 2885 C 4298 2910 4303 2939 4308 2969 C 4313 2999 4316 3032 4319 3065 C 4321 3099 4323 3134 4324 3169 C 4326 3205 4326 3241 4327 3278 C 4327 3314 4328 3352 4328 3389 C 4328 3426 4328 3466 4328 3501 C 4328 3535 4328 3560 4328 3594 C 4328 3629 4328 3669 4328 3707 C 4328 3744 4328 3782 4328 3819 C 4328 3857 4328 3894 4328 3932 C 4327 3969 4327 4006 4327 4044 C 4326 4081 4326 4118 4326 4156 C 4325 4193 4325 4230 4324 4267 C 4323 4304 4322 4343 4322 4377 C 4321 4410 4314 4428 4319 4468 C 4325 4509 4310 4581 4355 4620 C 4399 4659 4522 4721 4585 4702 C 4648 4684 4710 4550 4735 4508 C 4760 4467 4736 4479 4736 4453 C 4737 4426 4738 4386 4739 4350 C 4740 4314 4740 4275 4741 4237 C 4742 4199 4742 4161 4742 4123 C 4743 4085 4743 4047 4743 4009 C 4744 3972 4744 3934 4744 3896 C 4744 3858 4744 3820 4744 3783 C 4744 3745 4744 3707 4744 3670 C 4745 3632 4745 3594 4745 3557 C 4744 3519 4744 3481 4744 3443 C 4744 3405 4744 3364 4744 3329 C 4743 3294 4743 3269 4742 3233 C 4742 3197 4741 3155 4739 3115 C 4737 3074 4735 3034 4730 2992 C 4726 2950 4721 2906 4712 2862 C 4703 2817 4693 2771 4676 2725 C 4660 2679 4639 2630 4612 2586 C 4585 2542 4551 2496 4514 2459 C 4476 2421 4431 2387 4387 2360 C 4342 2333 4294 2312 4248 2296 C 4202 2279 4155 2269 4111 2260 C 4066 2250 4023 2246 3981 2241 C 3938 2237 3894 2235 3858 2233 C 3821 2231 3794 2230 3759 2230 C 3723 2229 3682 2228 3643 2228 C 3605 2228 3567 2227 3530 2227 C 3492 2227 3454 2227 3417 2227 C 3380 2226 3342 2226 3305 2226 C 3268 2225 3232 2225 3196 2224 C 3160 2223 3124 2222 3089 2220 C 3055 2218 3020 2215 2989 2211 C 2957 2208 2926 2203 2898 2197 C 2871 2191 2845 2184 2824 2175 C 2802 2167 2784 2157 2768 2147 C 2752 2136 2740 2124 2729 2111 C 2718 2099 2712 2090 2704 2073 C 2695 2056 2686 2033 2679 2009 C 2672 1985 2666 1956 2662 1927 C 2657 1897 2654 1864 2652 1831 C 2650 1798 2648 1762 2647 1727 C 2646 1692 2646 1655 2646 1618 C 2645 1582 2645 1544 2645 1507 C 2645 1470 2645 1432 2645 1394 C 2645 1357 2645 1319 2645 1281 C 2645 1243 2645 1205 2644 1166 C 2644 1128 2643 1086 2642 1050 C 2641 1014 2640 987 2638 950 C 2636 912 2633 868 2627 825 C 2622 782 2616 738 2605 692 C 2593 647 2580 599 2560 553 C 2540 506 2515 457 2483 415 C 2451 372 2411 330 2369 296 C 2328 262 2280 235 2234 212 C 2188 190 2139 176 2094 163 C 2048 150 2003 143 1960 137 C 1917 130 1875 127 1834 124 C 1793 121 1753 120 1714 118 C 1674 117 1632 116 1597 115 C 1562 115 1536 115 1501 114 C 1466 114 1425 114 1387 114 C 1349 114 1311 114 1274 114 C 1236 115 1198 115 1161 115 C 1123 115 1086 115 1048 115 C 1010 116 973 116 935 116 C 898 116 860 116 823 116 C 786 116 746 116 712 116 C 678 116 660 110 620 116 C 579 123 507 111 469 156 C 431 202 373 327 394 389 C 414 452 550 509 592 533 Z"/>
</g>
</svg>
