<svg xmlns="http://www.w3.org/2000/svg" viewBox="0 0 280.439463 805.501635">
<g transform="translate(-94.078976,784.501172) scale(0.100000,-0.100000)" fill="#000000" stroke="none">
<path d="M 2212 7600 C 2141 7596 2070 7590 1999 7582 C 1928 7575 1857 7568 1787 7558 C 1718 7547 1644 7537 1581 7519 C 1518 7500 1448 7476 1407 7446 C 1367 7417 1337 7374 1336 7340 C 1335 7306 1366 7270 1402 7242 C 1439 7214 1498 7194 1554 7171 C 1611 7148 1680 7132 1743 7107 C 1805 7081 1874 7055 1928 7016 C 1983 6977 2036 6928 2068 6873 C 2101 6818 2118 6750 2126 6684 C 2134 6618 2120 6545 2116 6475 C 2113 6404 2106 6333 2104 6262 C 2102 6192 2102 6121 2102 6050 C 2102 5979 2103 5908 2103 5837 C 2104 5766 2104 5695 2105 5624 C 2105 5553 2106 5482 2106 5411 C 2106 5340 2107 5270 2107 5199 C 2108 5128 2108 5057 2108 4986 C 2109 4915 2109 4844 2109 4773 C 2110 4702 2110 4632 2110 4560 C 2111 4490 2111 4419 2111 4348 C 2111 4277 2112 4206 2112 4135 C 2112 4064 2112 3993 2113 3922 C 2113 3852 2113 3781 2113 3710 C 2113 3639 2114 3568 2114 3497 C 2114 3426 2114 3355 2114 3284 C 2114 3213 2114 3142 2114 3072 C 2115 3001 2115 2930 2115 2859 C 2115 2788 2115 2717 2115 2646 C 2115 2575 2115 2504 2115 2434 C 2115 2363 2115 2292 2115 2221 C 2115 2150 2114 2079 2114 2008 C 2114 1937 2114 1866 2114 1795 C 2114 1724 2114 1653 2114 1582 C 2115 1512 2114 1440 2117 1370 C 2119 1299 2125 1228 2129 1157 C 2133 1087 2147 1015 2141 948 C 2135 881 2123 812 2093 755 C 2063 698 2012 647 1960 607 C 1907 566 1839 538 1776 511 C 1714 484 1644 468 1586 445 C 1527 423 1466 404 1426 376 C 1385 349 1348 316 1342 282 C 1337 249 1358 206 1393 176 C 1429 145 1496 118 1557 99 C 1619 80 1693 71 1763 61 C 1832 51 1904 46 1975 41 C 2046 35 2117 31 2188 28 C 2260 25 2331 24 2403 24 C 2474 25 2546 27 2617 31 C 2688 35 2759 39 2830 47 C 2900 54 2974 61 3040 75 C 3107 90 3180 107 3231 133 C 3281 159 3328 198 3343 232 C 3358 266 3344 307 3318 338 C 3293 370 3240 395 3189 420 C 3137 446 3071 464 3011 492 C 2951 520 2883 547 2830 587 C 2778 627 2727 677 2696 733 C 2666 789 2654 858 2648 924 C 2642 991 2655 1064 2659 1134 C 2662 1204 2667 1276 2669 1346 C 2671 1417 2670 1488 2670 1559 C 2670 1630 2670 1701 2670 1772 C 2669 1843 2669 1914 2669 1985 C 2668 2056 2668 2126 2668 2197 C 2668 2268 2668 2339 2667 2410 C 2667 2481 2667 2552 2667 2623 C 2667 2694 2666 2764 2666 2835 C 2666 2906 2666 2977 2666 3048 C 2666 3119 2666 3190 2666 3261 C 2666 3332 2665 3403 2665 3474 C 2665 3544 2665 3615 2665 3686 C 2665 3757 2665 3828 2665 3899 C 2665 3970 2665 4041 2665 4112 C 2665 4183 2665 4254 2665 4324 C 2665 4395 2665 4466 2665 4537 C 2665 4608 2665 4679 2665 4750 C 2665 4821 2665 4892 2665 4962 C 2665 5033 2666 5104 2666 5175 C 2666 5246 2666 5317 2666 5388 C 2666 5459 2666 5530 2667 5601 C 2667 5672 2667 5742 2667 5813 C 2667 5884 2668 5955 2668 6026 C 2667 6097 2668 6168 2666 6239 C 2664 6310 2661 6381 2657 6451 C 2654 6522 2640 6594 2644 6661 C 2649 6729 2656 6798 2684 6856 C 2712 6914 2759 6966 2810 7008 C 2861 7050 2929 7080 2988 7108 C 3048 7137 3116 7156 3169 7181 C 3222 7207 3277 7230 3306 7261 C 3336 7292 3356 7331 3346 7366 C 3336 7400 3294 7440 3247 7468 C 3200 7496 3128 7516 3062 7533 C 2996 7549 2924 7558 2854 7568 C 2783 7578 2712 7586 2641 7592 C 2570 7598 2498 7602 2427 7604 C 2356 7605 2284 7603 2212 7600 Z"/>
</g>
</svg>
