<svg xmlns="http://www.w3.org/2000/svg" viewBox="0 0 377.776955 409.485562">
<g transform="translate(13.378478,413.393478) scale(0.100000,-0.100000)" fill="#000000" stroke="none">
<path d="M 0 3666 C 30 3651 72 3623 121 3606 C 169 3589 216 3578 289 3566 C 362 3554 465 3540 560 3532 C 656 3524 762 3522 864 3520 C 965 3517 1070 3518 1171 3517 C 1272 3516 1369 3516 1470 3516 C 1572 3516 1676 3516 1778 3516 C 1880 3515 1986 3515 2084 3514 C 2181 3512 2286 3510 2364 3507 C 2442 3504 2496 3502 2551 3496 C 2607 3490 2660 3478 2696 3472 C 2696 3463 2698 3453 2695 3435 C 2692 3417 2688 3392 2677 3365 C 2666 3337 2647 3300 2627 3270 C 2608 3239 2583 3211 2559 3182 C 2535 3154 2508 3127 2484 3101 C 2459 3075 2437 3052 2413 3026 C 2389 3000 2363 2972 2338 2944 C 2313 2917 2288 2889 2263 2862 C 2238 2835 2213 2807 2188 2780 C 2163 2753 2137 2724 2113 2698 C 2088 2672 2067 2649 2043 2623 C 2019 2596 1993 2568 1968 2540 C 1944 2513 1919 2486 1894 2458 C 1869 2431 1844 2403 1819 2376 C 1794 2349 1767 2321 1743 2294 C 1719 2268 1698 2245 1673 2219 C 1649 2193 1623 2165 1598 2138 C 1572 2111 1547 2084 1522 2057 C 1496 2030 1471 2003 1445 1976 C 1420 1949 1394 1921 1369 1895 C 1345 1868 1324 1846 1299 1819 C 1275 1793 1249 1765 1224 1738 C 1198 1711 1173 1684 1148 1657 C 1122 1630 1097 1602 1072 1576 C 1046 1548 1020 1520 996 1494 C 972 1468 950 1445 926 1419 C 901 1393 875 1365 850 1338 C 824 1311 799 1284 774 1257 C 748 1230 723 1203 697 1176 C 672 1149 646 1121 621 1095 C 597 1069 575 1046 551 1020 C 526 994 500 966 475 939 C 450 912 424 885 399 858 C 374 830 349 803 325 775 C 301 747 276 717 253 690 C 230 663 211 637 187 612 C 162 587 132 563 106 540 C 80 516 48 500 31 474 C 13 447 8 410 3 381 C -2 352 2 319 3 299 C 3 279 5 271 6 261 C 52 252 137 234 192 226 C 246 217 274 215 334 210 C 395 204 476 198 556 193 C 636 188 727 184 815 182 C 904 179 996 177 1086 176 C 1177 174 1269 174 1360 174 C 1451 173 1542 173 1634 173 C 1725 173 1816 174 1907 174 C 1998 175 2090 175 2181 176 C 2272 177 2364 178 2454 181 C 2545 183 2637 185 2724 190 C 2812 194 2902 200 2981 208 C 3060 216 3138 228 3197 238 C 3257 248 3288 250 3338 267 C 3389 285 3460 323 3500 341 C 3485 362 3476 394 3438 423 C 3399 452 3344 491 3269 514 C 3194 538 3086 554 2988 564 C 2891 573 2785 569 2682 570 C 2580 572 2478 570 2374 570 C 2270 570 2162 570 2058 570 C 1954 570 1852 570 1750 570 C 1647 570 1543 569 1442 571 C 1341 573 1230 575 1145 581 C 1060 587 985 597 933 608 C 881 618 858 635 833 644 C 833 652 828 658 832 674 C 836 691 843 719 858 744 C 872 769 897 798 918 824 C 940 850 965 874 989 899 C 1012 924 1036 946 1061 972 C 1086 997 1114 1026 1139 1051 C 1164 1077 1186 1100 1210 1125 C 1234 1150 1257 1175 1281 1200 C 1304 1224 1327 1250 1351 1275 C 1374 1300 1396 1324 1420 1350 C 1444 1376 1472 1406 1496 1432 C 1520 1458 1542 1482 1565 1507 C 1588 1532 1612 1558 1635 1583 C 1658 1608 1681 1633 1705 1658 C 1728 1683 1750 1707 1774 1733 C 1799 1759 1826 1788 1850 1814 C 1874 1841 1897 1865 1920 1890 C 1943 1915 1966 1940 1989 1966 C 2012 1991 2035 2016 2058 2042 C 2081 2067 2103 2091 2127 2118 C 2151 2144 2178 2174 2202 2200 C 2226 2226 2248 2250 2272 2275 C 2295 2301 2318 2326 2341 2351 C 2364 2376 2387 2402 2410 2427 C 2433 2452 2455 2476 2479 2503 C 2503 2529 2530 2558 2554 2585 C 2578 2611 2601 2635 2624 2660 C 2647 2685 2670 2710 2694 2736 C 2717 2760 2740 2786 2764 2810 C 2787 2836 2810 2859 2834 2885 C 2858 2912 2886 2941 2910 2967 C 2934 2993 2956 3017 2979 3042 C 3002 3068 3025 3093 3048 3118 C 3071 3143 3095 3168 3118 3193 C 3142 3218 3164 3242 3189 3268 C 3214 3293 3242 3322 3266 3347 C 3291 3373 3314 3397 3336 3422 C 3359 3448 3381 3475 3401 3502 C 3422 3529 3442 3560 3458 3586 C 3474 3613 3490 3646 3499 3664 C 3508 3681 3507 3686 3510 3694 C 3505 3702 3504 3709 3492 3726 C 3480 3743 3457 3769 3435 3796 C 3414 3823 3383 3858 3362 3887 C 3341 3915 3322 3949 3309 3966 C 3297 3984 3294 3985 3288 3992 C 3241 3992 3171 3994 3100 3995 C 3029 3996 2960 3996 2862 3997 C 2763 3998 2630 3998 2507 3999 C 2384 3999 2253 4000 2125 4000 C 1997 4000 1868 4000 1740 4000 C 1612 4000 1483 4000 1355 3999 C 1227 3998 1098 4000 972 3994 C 846 3988 716 3983 602 3964 C 488 3945 371 3910 288 3880 C 205 3849 151 3818 103 3782 C 56 3747 26 3695 0 3666 Z"/>
</g>
</svg>
