<svg xmlns="http://www.w3.org/2000/svg" viewBox="0 0 460.803786 550.153166">
<g transform="translate(0.000000,550.153166) scale(0.100000,-0.100000)" fill="#000000" stroke="none">
<path d="M2355 5479 c-28 -14 -65 -22 -121 -24 -149 -6 -278 -126 -407 -378
-73 -143 -114 -194 -227 -285 -52 -42 -147 -128 -210 -193 -106 -107 -123
-120 -215 -164 -55 -26 -141 -67 -191 -91 -91 -43 -144 -86 -331 -264 -167
-161 -190 -347 -67 -546 24 -40 44 -79 44 -87 0 -59 -198 -112 -460 -123 -69
-3 -135 -7 -147 -10 -23 -4 -23 -4 -23 -1659 0 -1655 0 -1655 2307 -1655 2306
0 2306 0 2300 148 -15 403 -100 554 -285 512 -112 -26 -3048 -13 -3133 14
-121 38 -207 138 -250 288 -32 112 -37 985 -7 1118 49 211 129 270 393 291
101 7 2726 5 3082 -3 128 -3 180 108 198 417 22 398 -73 589 -274 551 -74 -14
-1464 -15 -1666 -1 -39 2 -277 0 -530 -5 -498 -11 -649 -3 -790 41 -114 35
-115 55 -5 179 36 41 96 114 133 161 80 105 103 124 226 196 350 204 492 326
644 552 68 102 105 143 259 286 193 180 178 369 -49 648 -96 119 -116 127
-198 86z"/>
</g>
</svg>
