<svg xmlns="http://www.w3.org/2000/svg" viewBox="0 0 303.208591 276.316587">
<g transform="translate(0.581648,283.595653) scale(0.100000,-0.100000)" fill="#000000" stroke="none">
<path d="M255 2828 c-16 -6 -69 -38 -117 -70 -49 -32 -99 -63 -113 -68 -47
-18 -38 -2364 9 -2380 42 -13 126 -72 217 -150 98 -84 118 -93 193 -85 33 4
581 9 1217 10 1319 3 1189 -7 1294 99 89 89 94 162 18 247 -79 88 25 81 -1192
82 -1076 2 -1076 2 -1125 31 -119 70 -178 151 -179 245 0 31 0 458 2 950 2
992 4 948 -64 1028 -54 64 -102 82 -160 61z"/>
</g>
</svg>
