<svg xmlns="http://www.w3.org/2000/svg" viewBox="0 0 280.258425 322.521664">
<g transform="translate(0.258425,321.827870) scale(0.100000,-0.100000)" fill="#000000" stroke="none">
<path d="M2020 3206 c-98 -26 -149 -74 -215 -199 -25 -49 -70 -120 -100 -158
-30 -39 -73 -106 -97 -150 -23 -44 -67 -110 -96 -147 -30 -37 -73 -105 -97
-152 -27 -53 -67 -111 -107 -155 -35 -39 -79 -92 -98 -120 -18 -27 -68 -86
-110 -131 -70 -73 -78 -86 -94 -150 -36 -137 -48 -166 -106 -237 -31 -40 -73
-103 -93 -142 -19 -38 -64 -108 -98 -155 -35 -47 -82 -119 -103 -160 -21 -41
-63 -105 -93 -141 -29 -37 -75 -107 -102 -156 -27 -50 -70 -119 -96 -154 -26
-35 -65 -100 -87 -144 -72 -142 -149 -225 -210 -225 -28 0 -27 -229 1 -254 11
-10 25 -31 31 -47 23 -55 335 -44 344 13 11 65 38 117 105 198 34 41 78 108
98 149 20 40 61 104 90 142 29 37 78 111 108 164 30 53 73 119 96 146 22 27
65 95 95 151 30 55 72 122 94 148 22 26 62 86 90 133 117 199 251 170 425 -93
34 -52 88 -123 118 -157 31 -35 75 -91 98 -125 24 -35 68 -92 99 -128 32 -36
80 -99 107 -140 28 -42 75 -105 105 -140 30 -36 68 -87 84 -115 15 -27 63 -87
107 -132 78 -82 109 -135 122 -205 7 -38 7 -38 186 -38 179 0 179 0 179 189 0
189 0 189 -43 199 -61 16 -117 60 -157 127 -19 31 -65 96 -101 144 -37 48 -87
119 -112 158 -26 40 -68 96 -96 126 -27 31 -72 90 -101 132 -29 42 -74 101
-100 130 -26 29 -71 87 -99 129 -29 42 -72 100 -98 128 -25 29 -70 89 -99 134
-29 45 -73 105 -98 133 -115 129 -114 233 3 366 28 31 70 96 95 144 25 48 70
118 100 156 31 39 76 109 101 156 24 47 67 114 94 148 201 251 211 459 26 510
-47 13 -38 13 -95 -3z"/>
</g>
</svg>
