<svg xmlns="http://www.w3.org/2000/svg" viewBox="0 0 536.859621 293.566306">
<g transform="translate(-21.039367,302.037940) scale(0.100000,-0.100000)" fill="#000000" stroke="none">
<path d="M4565 3009 c-201 -75 -170 -231 85 -436 630 -506 685 -1397 114
-1826 -545 -409 -1235 -227 -1558 411 -53 105 -181 415 -226 547 -308 909
-820 1329 -1542 1266 -1140 -101 -1619 -1496 -859 -2502 229 -304 418 -399
549 -276 104 97 82 207 -76 372 -275 288 -407 610 -407 995 1 665 544 1132
1140 980 369 -95 593 -391 835 -1105 26 -77 78 -201 116 -275 38 -74 86 -171
107 -215 49 -104 207 -315 322 -431 274 -278 846 -488 1126 -414 621 164 936
388 1145 815 236 481 174 1190 -138 1587 -304 387 -566 568 -733 507z"/>
</g>
</svg>
