<svg xmlns="http://www.w3.org/2000/svg" viewBox="0 0 469.749136 440.550750">
<g transform="translate(-14.722399,440.550750) scale(0.100000,-0.100000)" fill="#000000" stroke="none">
<path d="M275 4391 c-49 -23 -89 -64 -110 -114 -26 -62 -23 -1922 4 -1998 38
-112 81 -179 139 -217 24 -16 92 -17 927 -22 1012 -6 937 0 1030 -81 64 -57
62 -21 59 -849 -2 -843 -9 -761 71 -939 21 -46 40 -104 43 -128 5 -43 5 -43
1163 -43 1159 0 1159 0 1159 23 0 12 12 49 26 82 78 181 78 202 3 270 -79 71
-25 67 -926 66 -447 0 -823 -3 -837 -7 -72 -18 -174 31 -222 107 -69 109 -67
87 -65 875 3 856 2 866 -108 953 -103 81 -29 76 -1023 77 -1007 2 -922 -6
-985 88 -75 110 -73 90 -73 920 0 612 -2 751 -14 790 -37 124 -161 193 -261
147z"/>
</g>
</svg>
