<svg xmlns="http://www.w3.org/2000/svg" viewBox="0 0 342.663199 260.318349">
<g transform="translate(-20.402836,262.138655) scale(0.100000,-0.100000)" fill="#000000" stroke="none">
<path d="M305 2601 c-40 -25 -71 -59 -86 -96 -19 -47 -21 -2150 -2 -2225 26
-105 123 -230 178 -230 31 0 102 63 144 128 55 87 62 138 55 407 -10 363 11
486 91 535 46 29 2369 34 2423 6 100 -52 117 -121 118 -486 1 -377 0 -373 136
-532 101 -118 96 -118 161 -10 110 183 101 80 107 1207 3 505 -16 1171 -34
1205 -68 128 -210 148 -308 44 -58 -62 -60 -74 -59 -466 2 -443 -11 -494 -136
-527 -87 -24 -2371 -10 -2413 14 -81 48 -85 71 -85 500 0 417 -1 423 -63 489
-54 57 -165 76 -227 37z"/>
</g>
</svg>
