<svg xmlns="http://www.w3.org/2000/svg" viewBox="0 0 340.665613 318.320026">
<g transform="translate(0.665613,327.575805) scale(0.100000,-0.100000)" fill="#000000" stroke="none">
<path d="M349 3270 c-20 -5 -91 -36 -158 -69 -67 -33 -138 -63 -157 -67 -59
-11 -52 -105 9 -122 23 -6 78 -35 121 -63 153 -100 14 -90 1273 -87 610 1
1141 2 1181 1 165 -4 293 -114 295 -252 1 -31 0 -556 -2 -1166 -3 -1236 -9
-1130 67 -1243 99 -145 116 -145 252 -7 47 48 104 98 128 112 42 25 42 25 42
1362 0 1337 0 1337 -71 1396 -39 33 -96 82 -127 109 -122 104 21 94 -1436 95
-704 1 -1303 3 -1331 6 -27 2 -66 0 -86 -5z"/>
</g>
</svg>
