<svg xmlns="http://www.w3.org/2000/svg" viewBox="0 0 260.982663 280.480956">
<g transform="translate(-15.374246,280.582364) scale(0.100000,-0.100000)" fill="#000000" stroke="none">
<path d="M300 2770 c-7 -16 -41 -71 -76 -121 -91 -131 -92 -168 -12 -248 84
-84 36 -80 923 -80 819 0 837 -1 881 -42 65 -61 14 -255 -101 -389 -33 -39
-75 -106 -104 -165 -27 -55 -72 -129 -101 -165 -29 -36 -72 -105 -95 -155 -24
-49 -71 -126 -104 -169 -34 -44 -81 -120 -105 -170 -24 -50 -69 -124 -100
-165 -31 -40 -74 -111 -96 -156 -21 -45 -71 -124 -110 -176 -122 -163 -137
-243 -82 -449 30 -115 30 -115 110 -118 80 -3 80 -3 95 36 9 22 42 72 75 113
32 41 85 115 117 164 32 50 72 108 90 130 18 22 55 85 83 140 28 55 76 134
108 175 31 41 74 111 95 156 20 44 64 116 97 160 33 43 80 120 105 169 25 50
71 124 102 165 32 41 77 116 100 165 23 50 64 117 90 149 27 33 74 108 106
166 31 59 75 132 97 161 22 30 65 106 96 171 43 89 71 133 121 187 83 91 85
81 -43 181 -58 45 -117 127 -127 178 -10 49 -2214 52 -2235 2z"/>
</g>
</svg>
