<svg xmlns="http://www.w3.org/2000/svg" viewBox="0 0 309.322841 587.985793">
<g transform="translate(0.772568,587.403735) scale(0.100000,-0.100000)" fill="#000000" stroke="none">
<path d="M 305 5790 C 258 5784 204 5733 174 5676 C 143 5618 131 5524 122 5446 C 112 5369 118 5292 117 5211 C 116 5129 118 5040 118 4958 C 118 4876 118 4803 119 4721 C 119 4640 119 4550 120 4468 C 120 4387 120 4313 120 4231 C 120 4150 120 4063 120 3979 C 121 3894 121 3808 121 3726 C 121 3644 121 3571 121 3489 C 121 3407 121 3318 121 3236 C 121 3155 121 3081 121 2999 C 121 2918 121 2828 121 2746 C 121 2665 121 2591 121 2510 C 121 2428 121 2338 121 2257 C 120 2175 121 2101 118 2020 C 115 1939 114 1852 104 1770 C 94 1688 74 1606 59 1528 C 44 1450 25 1380 15 1301 C 5 1221 1 1132 -3 1050 C -6 969 -6 895 -6 814 C -5 732 -6 641 3 563 C 11 484 19 411 44 343 C 70 275 114 200 158 153 C 201 107 254 64 305 64 C 356 63 420 103 464 152 C 508 201 546 286 568 359 C 590 431 593 507 599 587 C 605 667 602 757 602 839 C 603 920 602 994 602 1076 C 602 1157 601 1247 602 1328 C 604 1410 602 1484 610 1565 C 617 1645 627 1734 645 1812 C 662 1891 689 1960 716 2036 C 742 2113 772 2195 805 2272 C 838 2349 872 2428 912 2498 C 951 2569 992 2631 1042 2694 C 1092 2758 1151 2826 1211 2879 C 1270 2932 1331 2977 1401 3012 C 1471 3047 1556 3078 1632 3088 C 1708 3098 1783 3092 1857 3072 C 1931 3051 2012 3010 2076 2966 C 2140 2921 2192 2867 2243 2806 C 2294 2744 2341 2670 2381 2598 C 2422 2525 2456 2444 2486 2369 C 2516 2294 2538 2223 2558 2145 C 2578 2066 2594 1978 2606 1898 C 2618 1817 2623 1743 2630 1662 C 2636 1581 2640 1491 2644 1410 C 2648 1328 2651 1255 2655 1173 C 2658 1092 2662 1002 2664 920 C 2666 839 2664 765 2668 684 C 2671 603 2668 512 2684 435 C 2699 358 2727 268 2762 219 C 2796 170 2849 134 2892 142 C 2935 150 2989 212 3019 269 C 3049 326 3063 408 3072 485 C 3082 563 3078 655 3077 736 C 3076 817 3072 891 3068 972 C 3064 1054 3059 1143 3054 1225 C 3049 1306 3045 1380 3039 1461 C 3034 1543 3029 1630 3022 1713 C 3014 1797 3007 1884 2996 1965 C 2985 2045 2974 2118 2957 2198 C 2940 2277 2916 2364 2891 2441 C 2866 2518 2840 2588 2807 2661 C 2773 2735 2731 2814 2690 2883 C 2648 2952 2607 3014 2556 3077 C 2505 3139 2445 3205 2384 3258 C 2324 3311 2263 3354 2193 3392 C 2123 3431 2042 3466 1963 3488 C 1884 3510 1797 3523 1718 3525 C 1639 3526 1565 3518 1488 3498 C 1411 3479 1328 3445 1256 3410 C 1184 3375 1120 3336 1055 3289 C 990 3242 925 3174 866 3128 C 808 3083 752 3023 704 3014 C 655 3006 602 3032 574 3077 C 546 3121 543 3204 535 3280 C 528 3356 531 3447 530 3531 C 529 3615 530 3702 530 3784 C 530 3866 530 3939 530 4021 C 530 4102 530 4192 530 4274 C 530 4355 530 4429 530 4510 C 530 4592 530 4682 531 4763 C 531 4845 531 4919 531 5000 C 531 5082 532 5172 530 5253 C 528 5334 532 5412 520 5488 C 507 5563 491 5657 456 5707 C 420 5757 352 5795 305 5790 Z"/>
</g>
</svg>
