<svg xmlns="http://www.w3.org/2000/svg" viewBox="0 0 419.906617 383.618292">
<g transform="translate(-8.297254,389.295335) scale(0.100000,-0.100000)" fill="#000000" stroke="none">
<path d="M 1649 3742 C 1600 3725 1556 3685 1515 3648 C 1473 3610 1438 3564 1401 3520 C 1363 3475 1326 3427 1290 3381 C 1254 3335 1220 3290 1185 3244 C 1151 3198 1117 3153 1083 3106 C 1048 3059 1013 3009 978 2963 C 943 2916 908 2872 872 2827 C 836 2783 796 2741 762 2696 C 727 2650 683 2602 666 2556 C 650 2510 646 2452 663 2418 C 681 2385 729 2358 772 2357 C 814 2356 874 2385 920 2413 C 967 2440 1008 2483 1051 2521 C 1094 2559 1134 2600 1176 2639 C 1219 2679 1264 2721 1306 2761 C 1349 2801 1390 2839 1432 2879 C 1473 2918 1514 2957 1556 2998 C 1598 3038 1642 3080 1684 3121 C 1725 3162 1766 3202 1805 3243 C 1844 3285 1888 3325 1917 3371 C 1946 3418 1974 3472 1977 3521 C 1979 3570 1960 3626 1932 3665 C 1903 3704 1853 3740 1806 3753 C 1758 3766 1697 3760 1649 3742 Z"/>
<path d="M 2809 1713 C 2750 1704 2690 1682 2634 1658 C 2577 1634 2522 1602 2470 1567 C 2418 1533 2368 1493 2322 1452 C 2275 1410 2231 1364 2189 1318 C 2147 1271 2107 1222 2068 1172 C 2028 1123 1991 1072 1952 1023 C 1912 973 1874 923 1831 877 C 1789 831 1745 784 1697 746 C 1649 708 1597 671 1543 650 C 1488 629 1428 617 1371 620 C 1315 624 1256 644 1204 672 C 1152 699 1104 742 1060 785 C 1016 827 976 878 938 927 C 898 976 862 1028 826 1080 C 791 1132 758 1186 725 1240 C 693 1294 664 1351 631 1403 C 598 1456 568 1515 529 1556 C 491 1597 443 1638 401 1649 C 359 1660 307 1648 278 1620 C 248 1592 228 1534 223 1482 C 219 1429 233 1365 250 1307 C 266 1249 294 1190 321 1134 C 348 1077 378 1022 410 967 C 442 913 477 861 513 809 C 549 758 587 707 627 658 C 666 609 706 560 749 514 C 792 469 837 423 885 384 C 933 344 984 307 1038 279 C 1092 251 1151 230 1211 216 C 1271 202 1334 197 1396 197 C 1458 197 1521 203 1581 216 C 1640 230 1699 252 1754 280 C 1808 308 1860 345 1909 383 C 1958 421 2005 465 2049 509 C 2094 553 2135 601 2176 649 C 2217 697 2255 747 2294 797 C 2333 846 2370 898 2411 946 C 2451 994 2492 1042 2537 1085 C 2583 1127 2631 1169 2683 1200 C 2735 1230 2793 1256 2849 1265 C 2905 1274 2966 1269 3020 1252 C 3075 1236 3129 1201 3178 1166 C 3228 1131 3273 1085 3318 1041 C 3363 997 3405 950 3446 902 C 3487 854 3526 804 3565 755 C 3603 705 3637 650 3677 604 C 3717 558 3757 508 3804 478 C 3851 449 3910 429 3959 428 C 4009 428 4069 449 4099 476 C 4130 504 4146 552 4142 594 C 4138 637 4102 685 4074 734 C 4045 782 4005 832 3970 883 C 3934 933 3899 987 3861 1037 C 3824 1087 3784 1136 3743 1184 C 3702 1232 3660 1279 3616 1325 C 3573 1371 3529 1417 3482 1458 C 3435 1499 3386 1538 3333 1572 C 3281 1605 3224 1635 3167 1658 C 3110 1681 3050 1702 2990 1712 C 2930 1721 2868 1722 2809 1713 Z"/>
</g>
</svg>
