<svg xmlns="http://www.w3.org/2000/svg" viewBox="0 0 60.832997 2000.000130">
<g transform="translate(-19.706794,2000.000130) scale(0.100000,-0.100000)" fill="#000000" stroke="none">
<path d="M200 19970 c0 -134 77 -180 301 -180 195 0 239 16 280 105 49 107 54
105 -281 105 -300 0 -300 0 -300 -30z"/>
<path d="M292 18983 c-81 -39 -94 -93 -83 -343 14 -307 42 -339 299 -340 249
0 279 40 284 385 3 221 -5 252 -77 292 -53 30 -366 34 -423 6z"/>
<path d="M286 17378 c-112 -65 -121 -471 -12 -552 45 -34 384 -36 440 -4 112
65 121 473 12 551 -49 35 -382 39 -440 5z"/>
<path d="M335 15884 c-95 -32 -116 -86 -126 -323 -14 -343 4 -364 304 -359
274 5 284 15 279 313 -3 259 -32 345 -125 374 -45 14 -287 11 -332 -5z"/>
<path d="M342 14398 c-116 -20 -137 -68 -134 -303 5 -354 34 -393 295 -393
255 0 284 38 289 383 3 220 -5 251 -78 292 -44 24 -277 38 -372 21z"/>
<path d="M294 12786 c-110 -49 -126 -483 -21 -560 43 -32 410 -32 454 0 100
73 100 475 0 548 -37 27 -379 36 -433 12z"/>
<path d="M325 11286 c-89 -39 -114 -116 -117 -371 -4 -298 6 -308 275 -313
294 -5 311 13 308 319 -2 255 -23 318 -115 360 -52 23 -301 27 -351 5z"/>
<path d="M288 9780 c-76 -41 -89 -97 -78 -345 7 -181 13 -209 54 -269 69 -102
411 -94 480 11 81 123 69 534 -18 596 -46 33 -380 38 -438 7z"/>
<path d="M292 8184 c-78 -39 -94 -101 -84 -321 12 -250 21 -258 295 -258 282
0 292 10 292 295 0 196 -9 230 -69 273 -42 30 -378 39 -434 11z"/>
<path d="M334 6688 c-92 -24 -123 -114 -126 -373 -4 -302 3 -310 292 -310 287
0 296 10 292 300 -4 256 -20 318 -100 372 -35 23 -283 31 -358 11z"/>
<path d="M292 5183 c-78 -38 -91 -94 -82 -345 11 -306 39 -337 313 -339 227
-1 255 34 268 334 11 250 -2 307 -81 347 -53 27 -364 30 -418 3z"/>
<path d="M445 3601 c-221 -10 -238 -33 -238 -300 0 -287 8 -296 293 -296 279
0 292 12 296 270 4 311 -27 340 -351 326z"/>
<path d="M348 2090 c-102 -29 -129 -92 -138 -325 -15 -347 3 -368 303 -363
273 5 282 14 279 303 -3 251 -19 313 -95 369 -30 22 -286 34 -349 16z"/>
<path d="M295 584 c-86 -45 -94 -78 -87 -362 5 -222 5 -222 292 -222 287 0
287 0 292 217 9 369 -2 383 -294 383 -137 0 -179 -3 -203 -16z"/>
</g>
</svg>
