<svg xmlns="http://www.w3.org/2000/svg" viewBox="0 0 332.096544 497.747307">
<g transform="translate(16.169998,496.301698) scale(0.100000,-0.100000)" fill="#000000" stroke="none" fill-rule="evenodd">
<path d="M 20 2260 C 28 2262 37 2262 59 2270 C 81 2278 116 2291 152 2308 C 188 2325 234 2351 275 2372 C 317 2394 358 2417 400 2438 C 442 2460 485 2482 526 2502 C 567 2522 606 2541 648 2558 C 691 2574 736 2590 782 2604 C 826 2617 873 2629 918 2637 C 964 2646 1016 2653 1056 2654 C 1095 2654 1133 2645 1156 2640 C 1178 2634 1182 2625 1189 2620 C 1188 2610 1191 2596 1183 2574 C 1175 2553 1162 2522 1139 2491 C 1116 2460 1078 2421 1043 2388 C 1009 2354 969 2324 932 2291 C 896 2258 860 2225 824 2191 C 789 2157 754 2122 720 2086 C 686 2051 653 2014 620 1978 C 587 1942 555 1905 522 1868 C 490 1831 457 1794 426 1756 C 396 1718 366 1679 339 1638 C 313 1596 288 1554 269 1509 C 250 1465 236 1418 226 1370 C 217 1323 214 1272 213 1225 C 211 1177 212 1132 215 1084 C 218 1036 222 986 230 938 C 238 890 249 842 264 795 C 279 749 299 704 320 660 C 341 616 364 572 389 530 C 414 488 440 446 470 408 C 500 370 533 332 570 301 C 607 270 647 241 690 219 C 733 197 779 180 826 168 C 873 157 922 151 971 149 C 1019 147 1068 151 1117 155 C 1166 160 1216 168 1263 176 C 1310 185 1354 194 1400 207 C 1446 220 1494 236 1538 256 C 1583 275 1626 299 1669 324 C 1711 348 1753 374 1794 401 C 1835 428 1875 456 1915 485 C 1954 514 1992 546 2031 576 C 2069 607 2107 638 2144 670 C 2181 703 2218 736 2252 770 C 2287 805 2321 841 2352 878 C 2384 916 2415 954 2442 995 C 2470 1035 2496 1077 2519 1120 C 2541 1163 2561 1210 2577 1255 C 2594 1300 2604 1343 2616 1390 C 2628 1436 2639 1485 2649 1533 C 2658 1582 2667 1630 2673 1678 C 2679 1727 2682 1776 2683 1825 C 2684 1874 2681 1923 2676 1972 C 2671 2021 2663 2069 2653 2117 C 2643 2165 2628 2212 2615 2259 C 2602 2306 2582 2353 2573 2400 C 2564 2446 2554 2496 2563 2539 C 2572 2582 2595 2624 2625 2656 C 2656 2688 2703 2710 2744 2733 C 2786 2756 2838 2774 2874 2793 C 2910 2813 2940 2834 2960 2850 C 2980 2865 2985 2878 2992 2886 C 2993 2889 2994 2893 2995 2901 C 2996 2910 2997 2924 2996 2937 C 2995 2950 2992 2965 2988 2980 C 2983 2995 2975 3013 2968 3027 C 2961 3041 2954 3052 2945 3066 C 2936 3079 2925 3094 2915 3107 C 2905 3119 2896 3129 2885 3140 C 2874 3152 2860 3165 2848 3175 C 2836 3186 2826 3194 2813 3203 C 2800 3212 2784 3223 2770 3230 C 2755 3238 2744 3244 2728 3247 C 2713 3251 2694 3253 2678 3253 C 2663 3252 2650 3250 2634 3247 C 2618 3244 2600 3240 2584 3237 C 2568 3234 2556 3231 2540 3228 C 2524 3224 2506 3220 2490 3216 C 2474 3212 2462 3209 2447 3205 C 2431 3201 2412 3196 2397 3191 C 2382 3187 2369 3184 2354 3179 C 2339 3174 2320 3169 2305 3164 C 2290 3159 2278 3155 2262 3150 C 2247 3144 2229 3137 2214 3132 C 2199 3127 2187 3122 2171 3119 C 2156 3116 2137 3114 2121 3114 C 2105 3114 2092 3116 2077 3119 C 2061 3122 2043 3129 2028 3134 C 2013 3140 2001 3145 1987 3151 C 1972 3158 1954 3166 1940 3172 C 1925 3179 1913 3184 1898 3190 C 1884 3196 1866 3203 1851 3209 C 1836 3214 1824 3218 1808 3223 C 1793 3227 1774 3231 1758 3235 C 1743 3238 1730 3240 1714 3242 C 1698 3244 1679 3246 1663 3248 C 1647 3249 1634 3250 1618 3251 C 1602 3252 1583 3253 1567 3254 C 1551 3254 1538 3255 1522 3255 C 1506 3256 1487 3256 1471 3256 C 1455 3257 1442 3257 1426 3257 C 1410 3258 1391 3258 1375 3258 C 1359 3258 1346 3259 1330 3259 C 1314 3259 1295 3259 1279 3260 C 1263 3260 1250 3260 1234 3260 C 1218 3261 1198 3261 1182 3262 C 1166 3262 1154 3262 1138 3263 C 1122 3263 1102 3264 1086 3265 C 1070 3265 1058 3266 1042 3267 C 1026 3268 1006 3270 990 3272 C 975 3274 960 3277 947 3281 C 933 3285 917 3292 909 3297 C 901 3301 900 3304 897 3306 C 897 3313 896 3323 899 3337 C 902 3352 907 3370 916 3392 C 924 3415 938 3446 949 3472 C 960 3499 971 3523 982 3549 C 994 3575 1005 3604 1019 3631 C 1032 3658 1047 3685 1062 3709 C 1076 3734 1091 3755 1106 3780 C 1121 3804 1138 3830 1152 3856 C 1167 3882 1181 3910 1195 3935 C 1209 3961 1221 3983 1235 4008 C 1250 4033 1267 4060 1282 4085 C 1298 4109 1313 4130 1328 4154 C 1343 4179 1360 4205 1374 4231 C 1389 4257 1402 4285 1416 4311 C 1429 4336 1440 4359 1454 4384 C 1469 4409 1485 4436 1501 4461 C 1516 4486 1534 4512 1549 4537 C 1563 4562 1576 4584 1588 4610 C 1600 4636 1612 4667 1620 4691 C 1628 4715 1632 4738 1636 4754 C 1639 4770 1639 4779 1640 4786 C 1635 4788 1641 4790 1618 4792 C 1595 4794 1544 4797 1502 4799 C 1461 4800 1413 4800 1368 4800 C 1323 4800 1278 4800 1233 4800 C 1188 4800 1141 4800 1098 4800 C 1055 4799 1000 4797 975 4796 C 951 4795 956 4794 951 4793 C 948 4786 944 4776 938 4761 C 932 4745 925 4723 914 4698 C 904 4674 889 4642 876 4614 C 862 4586 846 4557 832 4528 C 818 4500 804 4471 789 4442 C 775 4413 760 4385 745 4357 C 730 4329 713 4302 696 4274 C 680 4246 664 4219 648 4191 C 632 4163 617 4135 602 4107 C 586 4078 572 4050 556 4022 C 540 3994 522 3968 506 3940 C 489 3913 471 3886 455 3859 C 439 3831 424 3803 410 3774 C 396 3745 384 3716 370 3686 C 357 3658 344 3629 329 3600 C 314 3570 297 3538 281 3509 C 266 3480 251 3453 236 3424 C 220 3396 206 3367 190 3340 C 174 3313 157 3285 138 3261 C 118 3237 92 3218 73 3195 C 54 3173 35 3152 24 3125 C 13 3098 11 3067 7 3036 C 4 3005 5 2972 4 2940 C 3 2908 3 2876 3 2844 C 3 2812 2 2780 2 2748 C 2 2716 2 2684 2 2652 C 2 2620 2 2588 1 2556 C 1 2523 1 2491 2 2459 C 2 2428 2 2393 4 2366 C 5 2338 8 2311 10 2294 C 13 2276 18 2268 20 2260 Z M 1892 2213 C 1939 2187 1976 2121 2002 2061 C 2029 2000 2042 1922 2050 1851 C 2058 1780 2058 1705 2050 1633 C 2043 1562 2027 1489 2004 1421 C 1982 1352 1951 1285 1914 1223 C 1877 1161 1833 1101 1784 1048 C 1735 995 1680 946 1622 902 C 1563 860 1500 819 1435 790 C 1370 761 1299 732 1232 727 C 1165 721 1090 730 1030 756 C 971 781 910 828 874 882 C 838 935 820 1007 814 1074 C 808 1142 820 1218 840 1286 C 859 1354 892 1420 929 1482 C 966 1543 1014 1600 1062 1655 C 1109 1711 1161 1763 1212 1816 C 1264 1868 1316 1920 1370 1969 C 1424 2019 1479 2071 1536 2113 C 1594 2155 1658 2204 1717 2221 C 1776 2238 1844 2240 1892 2213 Z"/>
</g>
</svg>
