<svg xmlns="http://www.w3.org/2000/svg" viewBox="0 0 281.029648 383.802727">
<g transform="translate(-16.189244,402.168648) scale(0.100000,-0.100000)" fill="#000000" stroke="none">
<path d="M520 4011 c-161 -49 -285 -244 -315 -497 -7 -65 -21 -175 -31 -244
-17 -130 -17 -119 6 -670 15 -371 39 -504 130 -700 32 -69 68 -156 80 -195 31
-95 60 -152 128 -245 31 -43 73 -106 92 -139 49 -84 417 -464 507 -524 38 -24
95 -67 128 -95 33 -29 100 -73 149 -99 49 -26 124 -73 167 -104 62 -44 105
-66 201 -99 68 -23 161 -63 208 -90 110 -63 159 -77 370 -102 441 -53 636 -21
632 104 -1 56 -50 92 -180 134 -43 14 -108 43 -147 64 -38 21 -125 57 -192 79
-121 40 -165 62 -234 117 -19 16 -73 49 -118 74 -46 24 -110 68 -143 97 -32
29 -110 87 -171 128 -183 122 -495 443 -584 601 -25 44 -68 111 -97 149 -65
87 -79 112 -117 223 -17 48 -53 136 -80 195 -28 59 -58 141 -69 181 -61 239
-52 925 16 1191 71 278 -113 533 -336 466z"/>
</g>
</svg>
