<svg xmlns="http://www.w3.org/2000/svg" viewBox="0 0 204.054396 357.406907">
<g transform="translate(12.052198,370.734602) scale(0.100000,-0.100000)" fill="#000000" stroke="none">
<path d="M 1183 2276 C 1179 2271 1178 2264 1165 2253 C 1153 2241 1131 2220 1106 2207 C 1081 2193 1046 2180 1015 2170 C 984 2161 950 2155 918 2147 C 885 2140 853 2133 820 2125 C 788 2117 756 2109 723 2101 C 691 2092 660 2084 626 2076 C 593 2067 556 2058 523 2050 C 489 2042 458 2036 425 2028 C 393 2020 360 2014 328 2005 C 296 1995 265 1984 235 1969 C 206 1954 178 1935 151 1916 C 124 1896 97 1873 74 1853 C 51 1833 27 1810 15 1796 C 2 1783 3 1778 0 1772 C 9 1760 15 1754 43 1717 C 72 1680 124 1618 170 1551 C 215 1484 266 1394 316 1315 C 364 1236 413 1157 464 1077 C 514 997 567 915 618 836 C 668 756 716 676 767 599 C 819 522 864 431 927 373 C 990 316 1084 253 1146 253 C 1208 254 1285 315 1300 375 C 1314 435 1269 532 1233 613 C 1197 693 1134 776 1084 856 C 1034 936 985 1014 935 1093 C 886 1172 828 1257 787 1329 C 747 1400 712 1479 694 1524 C 677 1568 683 1579 680 1594 C 683 1599 683 1604 694 1614 C 705 1625 722 1644 744 1658 C 766 1672 799 1688 827 1698 C 855 1709 881 1716 910 1724 C 939 1732 970 1740 1000 1747 C 1031 1754 1062 1762 1091 1768 C 1121 1774 1147 1779 1177 1783 C 1206 1787 1240 1791 1270 1793 C 1299 1796 1326 1797 1356 1799 C 1386 1801 1419 1801 1449 1805 C 1480 1810 1511 1816 1540 1825 C 1568 1834 1592 1846 1619 1858 C 1647 1870 1679 1886 1704 1896 C 1730 1907 1758 1917 1773 1923 C 1788 1929 1789 1931 1794 1933 C 1794 1935 1795 1936 1796 1941 C 1796 1947 1798 1958 1798 1966 C 1799 1975 1799 1984 1799 1993 C 1800 2002 1800 2011 1800 2020 C 1800 2028 1800 2037 1800 2046 C 1800 2055 1800 2064 1800 2073 C 1800 2082 1800 2091 1800 2100 C 1800 2109 1800 2118 1800 2126 C 1800 2135 1800 2144 1800 2153 C 1800 2162 1800 2171 1800 2180 C 1800 2189 1800 2198 1800 2206 C 1800 2215 1800 2224 1800 2233 C 1800 2242 1800 2250 1799 2260 C 1799 2270 1798 2285 1797 2292 C 1797 2298 1796 2298 1796 2300 C 1784 2307 1773 2305 1740 2331 C 1708 2357 1648 2401 1600 2456 C 1552 2512 1501 2593 1453 2666 C 1405 2738 1358 2818 1311 2892 C 1264 2966 1219 3037 1172 3111 C 1124 3185 1078 3265 1028 3335 C 977 3405 929 3489 868 3530 C 806 3571 708 3600 658 3581 C 607 3562 565 3482 564 3415 C 563 3348 614 3255 652 3179 C 689 3103 741 3032 788 2958 C 834 2883 883 2806 930 2732 C 977 2659 1030 2581 1070 2515 C 1109 2450 1147 2381 1166 2341 C 1185 2301 1179 2290 1183 2276 Z"/>
</g>
</svg>
