<svg xmlns="http://www.w3.org/2000/svg" viewBox="0 0 309.867872 349.129872">
<g transform="translate(-30.458582,380.355280) scale(0.100000,-0.100000)" fill="#000000" stroke="none">
<path d="M511 3798 c-188 -32 -270 -209 -151 -328 80 -80 -10 -75 1304 -77
1286 -2 1220 1 1275 -51 54 -52 57 -76 56 -522 -1 -426 -1 -429 -68 -498 -63
-66 -12 -63 -1257 -62 -688 1 -1137 -2 -1156 -8 -211 -66 -232 -316 -33 -401
51 -23 51 -23 1218 -24 1166 -2 1166 -2 1207 -26 91 -52 88 -23 88 -716 1
-610 1 -610 30 -662 92 -167 299 -140 361 47 24 71 25 3091 1 3158 -33 91
-109 156 -196 168 -65 9 -2629 11 -2679 2z"/>
</g>
</svg>
