<svg xmlns="http://www.w3.org/2000/svg" viewBox="0 0 418.135106 580.559530">
<g transform="translate(19.114649,560.846574) scale(0.100000,-0.100000)" fill="#000000" stroke="none">
<path d="M 38 4041 C 35 4036 30 4033 25 4020 C 19 4008 10 3989 6 3966 C 2 3944 1 3912 0 3884 C -2 3857 0 3827 0 3801 C 0 3776 0 3758 0 3732 C 0 3707 0 3677 0 3649 C 0 3621 0 3592 1 3566 C 2 3540 5 3510 6 3494 C 8 3478 9 3475 10 3470 C 17 3468 19 3465 42 3463 C 64 3461 107 3458 145 3457 C 183 3455 228 3455 269 3454 C 311 3453 352 3452 394 3452 C 435 3451 477 3450 518 3449 C 560 3448 602 3448 643 3445 C 684 3442 729 3440 765 3431 C 801 3422 839 3400 859 3390 C 879 3380 880 3374 885 3370 C 887 3366 890 3366 894 3355 C 897 3344 905 3323 907 3305 C 908 3288 904 3269 901 3251 C 897 3233 891 3218 884 3198 C 876 3179 865 3154 857 3134 C 849 3115 842 3100 835 3083 C 829 3066 823 3051 815 3032 C 808 3012 797 2987 789 2968 C 781 2948 775 2934 767 2917 C 760 2900 753 2885 744 2866 C 735 2848 723 2823 714 2804 C 706 2785 698 2771 691 2754 C 683 2737 677 2722 669 2703 C 662 2684 652 2658 645 2638 C 638 2618 634 2603 629 2585 C 624 2567 620 2552 616 2531 C 612 2511 608 2483 607 2463 C 605 2442 605 2426 606 2407 C 608 2389 609 2372 615 2353 C 621 2334 636 2305 642 2293 C 648 2281 650 2282 652 2279 C 656 2276 655 2272 671 2264 C 687 2256 720 2239 749 2232 C 778 2226 813 2227 845 2227 C 877 2227 907 2230 941 2233 C 976 2236 1017 2240 1052 2242 C 1086 2245 1116 2246 1149 2248 C 1181 2249 1211 2249 1246 2250 C 1280 2250 1322 2249 1356 2248 C 1391 2247 1421 2246 1453 2244 C 1485 2242 1518 2240 1550 2238 C 1582 2235 1612 2233 1646 2229 C 1681 2226 1722 2221 1756 2216 C 1791 2212 1820 2207 1852 2202 C 1884 2196 1914 2191 1948 2184 C 1981 2177 2022 2167 2055 2158 C 2088 2149 2117 2139 2147 2128 C 2178 2118 2208 2106 2238 2094 C 2268 2082 2296 2071 2327 2056 C 2358 2042 2396 2023 2426 2006 C 2456 1989 2482 1974 2508 1955 C 2534 1936 2558 1918 2583 1894 C 2608 1870 2635 1838 2655 1810 C 2675 1782 2689 1755 2701 1726 C 2714 1696 2723 1665 2731 1634 C 2738 1602 2742 1572 2746 1538 C 2749 1504 2749 1462 2749 1428 C 2749 1393 2748 1363 2745 1331 C 2743 1299 2740 1269 2735 1234 C 2730 1200 2722 1160 2713 1126 C 2704 1093 2694 1064 2682 1034 C 2669 1005 2655 976 2638 948 C 2621 921 2604 896 2581 870 C 2558 845 2527 816 2500 795 C 2474 773 2448 757 2421 740 C 2393 724 2366 710 2335 696 C 2303 682 2264 667 2232 655 C 2199 644 2170 635 2139 626 C 2108 618 2077 610 2045 603 C 2014 596 1984 590 1950 583 C 1916 577 1875 570 1841 564 C 1807 558 1777 553 1746 548 C 1714 543 1684 539 1650 534 C 1615 529 1574 523 1540 518 C 1506 514 1476 511 1444 508 C 1411 505 1379 503 1347 502 C 1315 502 1284 502 1250 506 C 1216 510 1175 518 1142 526 C 1108 535 1080 545 1050 557 C 1020 569 990 582 964 600 C 937 618 906 652 891 666 C 877 681 880 683 878 687 C 876 692 873 696 872 711 C 872 727 869 755 875 782 C 882 808 899 843 912 870 C 925 896 940 915 955 941 C 970 967 988 999 1002 1025 C 1017 1052 1027 1072 1043 1098 C 1058 1124 1078 1155 1095 1180 C 1112 1204 1126 1223 1144 1246 C 1163 1270 1186 1298 1206 1321 C 1226 1344 1242 1360 1263 1382 C 1284 1403 1310 1429 1332 1449 C 1354 1470 1372 1484 1395 1504 C 1418 1523 1447 1546 1469 1566 C 1492 1586 1510 1601 1530 1622 C 1551 1644 1577 1671 1592 1696 C 1608 1721 1620 1756 1625 1772 C 1631 1789 1626 1791 1627 1796 C 1619 1801 1621 1811 1591 1816 C 1562 1821 1503 1832 1448 1827 C 1392 1823 1318 1807 1259 1789 C 1200 1771 1149 1748 1093 1721 C 1037 1695 979 1661 922 1630 C 865 1599 806 1569 753 1536 C 700 1504 655 1470 605 1434 C 555 1397 499 1359 451 1316 C 403 1274 353 1228 315 1179 C 277 1131 248 1083 224 1026 C 199 970 180 904 169 842 C 157 779 150 711 154 650 C 157 589 165 531 188 476 C 211 420 247 360 291 316 C 335 272 398 244 451 213 C 503 181 554 157 606 126 C 656 95 700 48 757 28 C 814 8 884 11 946 6 C 1007 1 1063 1 1126 -1 C 1188 -3 1255 -4 1320 -5 C 1384 -6 1451 -6 1513 -7 C 1576 -7 1631 -7 1693 -7 C 1756 -6 1823 -6 1887 -5 C 1952 -4 2019 -3 2081 -1 C 2143 0 2199 2 2261 5 C 2323 8 2396 6 2454 18 C 2511 31 2556 52 2606 83 C 2656 113 2702 163 2754 199 C 2807 236 2868 265 2919 301 C 2970 336 3014 370 3060 412 C 3106 454 3152 503 3194 552 C 3236 600 3279 653 3312 705 C 3345 757 3370 808 3390 866 C 3411 924 3425 990 3435 1053 C 3445 1117 3450 1184 3452 1246 C 3454 1308 3453 1364 3448 1426 C 3444 1488 3436 1554 3424 1618 C 3412 1681 3396 1746 3376 1805 C 3357 1864 3334 1915 3307 1971 C 3279 2026 3246 2085 3211 2139 C 3176 2193 3136 2248 3096 2295 C 3056 2342 3018 2383 2971 2423 C 2924 2463 2869 2503 2814 2536 C 2759 2569 2698 2598 2641 2622 C 2584 2646 2531 2663 2471 2680 C 2411 2698 2346 2713 2283 2726 C 2219 2739 2153 2749 2092 2758 C 2030 2768 1975 2773 1913 2782 C 1852 2792 1779 2799 1722 2814 C 1665 2829 1602 2857 1571 2870 C 1540 2884 1545 2890 1538 2896 C 1537 2903 1531 2906 1534 2928 C 1537 2950 1543 2990 1554 3028 C 1566 3066 1588 3114 1605 3156 C 1622 3199 1633 3249 1657 3283 C 1680 3316 1709 3340 1746 3357 C 1784 3374 1835 3378 1880 3384 C 1926 3390 1972 3390 2018 3392 C 2064 3394 2113 3395 2157 3396 C 2201 3397 2238 3397 2281 3398 C 2325 3398 2374 3398 2420 3399 C 2466 3399 2512 3400 2558 3400 C 2604 3400 2653 3400 2697 3401 C 2741 3401 2778 3401 2821 3402 C 2865 3402 2914 3402 2960 3403 C 3006 3403 3052 3403 3098 3404 C 3144 3404 3193 3404 3237 3405 C 3281 3405 3318 3405 3361 3406 C 3405 3406 3454 3406 3500 3407 C 3546 3407 3596 3406 3638 3408 C 3681 3409 3730 3412 3755 3415 C 3779 3418 3779 3422 3786 3424 C 3787 3429 3789 3432 3791 3448 C 3793 3464 3796 3493 3798 3519 C 3799 3545 3799 3572 3800 3602 C 3800 3632 3800 3669 3800 3699 C 3800 3729 3800 3752 3800 3782 C 3800 3812 3800 3849 3800 3879 C 3800 3909 3800 3934 3799 3962 C 3798 3990 3795 4029 3793 4048 C 3792 4066 3790 4066 3789 4072 C 3784 4073 3782 4076 3766 4078 C 3750 4079 3723 4081 3695 4082 C 3667 4083 3630 4083 3598 4083 C 3566 4084 3531 4084 3501 4084 C 3471 4085 3448 4085 3418 4085 C 3388 4086 3354 4086 3321 4086 C 3289 4087 3254 4087 3224 4087 C 3194 4088 3171 4088 3141 4088 C 3111 4088 3077 4089 3044 4089 C 3012 4089 2977 4090 2947 4090 C 2917 4090 2894 4090 2864 4091 C 2834 4091 2800 4091 2767 4092 C 2735 4092 2700 4092 2670 4092 C 2640 4093 2617 4093 2587 4093 C 2557 4094 2523 4094 2490 4094 C 2458 4095 2424 4095 2394 4096 C 2364 4097 2340 4097 2310 4098 C 2280 4099 2246 4100 2214 4103 C 2182 4106 2147 4109 2119 4119 C 2092 4129 2063 4153 2048 4163 C 2034 4174 2035 4177 2031 4181 C 2029 4186 2024 4188 2020 4203 C 2016 4218 2006 4245 2006 4272 C 2006 4299 2014 4335 2022 4366 C 2030 4397 2043 4429 2054 4457 C 2065 4485 2075 4506 2086 4534 C 2098 4562 2112 4593 2125 4623 C 2137 4653 2151 4684 2163 4712 C 2175 4740 2184 4761 2196 4788 C 2207 4816 2221 4848 2234 4878 C 2246 4907 2260 4939 2271 4967 C 2283 4995 2292 5016 2304 5043 C 2316 5071 2332 5102 2342 5132 C 2352 5163 2364 5196 2367 5225 C 2369 5254 2360 5290 2357 5308 C 2354 5326 2350 5326 2348 5331 C 2337 5338 2335 5350 2298 5364 C 2261 5378 2190 5408 2123 5414 C 2056 5420 1964 5422 1895 5400 C 1825 5379 1756 5341 1705 5286 C 1654 5232 1624 5145 1590 5072 C 1557 5000 1534 4926 1505 4853 C 1476 4780 1448 4709 1417 4635 C 1386 4560 1356 4476 1321 4405 C 1286 4334 1257 4257 1205 4208 C 1153 4159 1083 4128 1010 4109 C 936 4090 843 4094 763 4091 C 683 4088 606 4091 528 4090 C 449 4089 365 4091 293 4086 C 221 4081 138 4068 95 4060 C 52 4053 50 4045 38 4041 Z"/>
</g>
</svg>
