<svg xmlns="http://www.w3.org/2000/svg" viewBox="0 0 239.570269 409.520001">
<g transform="translate(-15.880611,393.697437) scale(0.100000,-0.100000)" fill="#000000" stroke="none">
<path d="M 1196 3764 C 1125 3756 1060 3744 993 3722 C 926 3700 855 3669 793 3631 C 732 3592 674 3543 624 3490 C 574 3437 529 3376 493 3312 C 457 3248 428 3178 408 3108 C 387 3038 374 2963 371 2890 C 369 2818 377 2740 392 2671 C 406 2602 428 2540 460 2477 C 491 2414 533 2348 579 2292 C 626 2236 682 2185 740 2139 C 797 2092 861 2052 925 2014 C 989 1975 1056 1941 1123 1909 C 1190 1876 1261 1850 1329 1819 C 1396 1788 1468 1757 1530 1722 C 1592 1686 1648 1651 1702 1605 C 1756 1559 1812 1504 1854 1446 C 1895 1387 1932 1320 1951 1252 C 1970 1184 1976 1110 1969 1040 C 1962 970 1937 897 1906 832 C 1876 767 1832 704 1784 651 C 1735 598 1674 549 1614 515 C 1554 480 1492 456 1424 442 C 1356 428 1278 423 1206 428 C 1133 433 1059 451 990 474 C 921 497 854 532 789 568 C 725 604 664 656 604 691 C 545 725 478 771 432 775 C 385 778 336 750 323 714 C 310 678 325 611 352 559 C 380 506 437 447 491 399 C 544 351 611 312 672 271 C 734 230 798 190 860 153 C 922 116 980 74 1046 49 C 1111 25 1183 10 1252 6 C 1321 3 1398 11 1461 29 C 1524 48 1574 80 1632 116 C 1690 152 1751 199 1809 244 C 1867 289 1927 334 1980 386 C 2032 437 2078 497 2124 555 C 2169 612 2214 673 2252 732 C 2291 791 2334 846 2357 908 C 2380 971 2391 1045 2390 1110 C 2389 1175 2378 1238 2354 1299 C 2329 1360 2285 1418 2244 1476 C 2204 1535 2157 1594 2108 1650 C 2060 1705 2008 1759 1952 1808 C 1896 1856 1834 1898 1772 1938 C 1709 1978 1642 2014 1576 2048 C 1509 2081 1437 2110 1371 2139 C 1305 2169 1243 2191 1180 2224 C 1116 2258 1048 2295 991 2340 C 933 2385 878 2438 835 2496 C 793 2553 756 2620 735 2688 C 714 2755 703 2831 708 2901 C 712 2972 730 3046 760 3110 C 789 3174 836 3237 885 3284 C 934 3332 990 3368 1053 3397 C 1116 3425 1191 3446 1263 3455 C 1335 3464 1411 3461 1483 3452 C 1555 3442 1628 3421 1697 3396 C 1767 3372 1833 3334 1900 3304 C 1968 3274 2038 3234 2101 3219 C 2164 3204 2242 3199 2280 3215 C 2320 3230 2343 3273 2335 3312 C 2326 3351 2277 3405 2229 3448 C 2182 3491 2112 3533 2049 3571 C 1986 3608 1919 3645 1851 3673 C 1783 3702 1712 3726 1640 3743 C 1568 3759 1493 3769 1419 3772 C 1345 3776 1267 3772 1196 3764 Z"/>
</g>
</svg>
