<svg xmlns="http://www.w3.org/2000/svg" viewBox="0 0 482.722514 794.537369">
<g transform="translate(-20.868533,815.594962) scale(0.100000,-0.100000)" fill="#000000" stroke="none">
<path d="M4430 8149 c-373 -50 -516 -163 -546 -429 -8 -74 -21 -178 -29 -230
-8 -52 -29 -207 -46 -345 -31 -258 -52 -364 -113 -574 -49 -167 -56 -200 -136
-619 -87 -456 -105 -528 -180 -749 -34 -98 -81 -253 -105 -345 -83 -316 -166
-403 -351 -369 -95 18 -476 148 -591 202 -343 160 -460 117 -636 -237 -124
-247 -129 -356 -21 -438 42 -32 75 -46 329 -136 66 -23 165 -63 220 -87 55
-25 162 -70 238 -99 242 -95 285 -138 275 -276 -5 -75 -175 -415 -318 -638
-47 -74 -111 -175 -141 -223 -240 -390 -963 -1138 -1296 -1343 -43 -26 -107
-70 -143 -98 -67 -52 -251 -180 -420 -293 -260 -174 -276 -286 -70 -495 121
-122 192 -142 332 -92 115 42 436 207 513 265 38 29 123 86 189 127 127 79
274 184 366 261 30 26 87 71 125 101 339 261 756 685 997 1010 47 64 118 158
159 211 41 52 94 132 119 177 25 45 78 140 119 210 40 70 116 212 168 315 168
336 234 367 509 239 136 -63 210 -90 469 -168 337 -102 398 -65 570 335 136
317 23 428 -633 626 -386 117 -454 225 -335 535 48 124 118 386 168 630 21
100 62 249 95 350 72 214 78 242 134 627 49 338 92 594 160 953 46 247 64 368
96 665 11 99 25 214 32 256 24 154 -66 216 -272 188z"/>
</g>
</svg>
