<svg xmlns="http://www.w3.org/2000/svg" viewBox="0 0 531.132920 736.477809">
<g transform="translate(-32.245647,760.501587) scale(0.100000,-0.100000)" fill="#000000" stroke="none">
<path d="M4509 7597 c-102 -29 -151 -98 -169 -242 -6 -50 -29 -209 -51 -355
-104 -701 -98 -674 -190 -957 -27 -83 -67 -225 -88 -315 -92 -381 -189 -429
-549 -274 -70 30 -163 68 -207 86 -44 17 -156 69 -250 115 -393 192 -532 183
-638 -43 -170 -364 -71 -483 599 -725 595 -215 665 -318 493 -722 -152 -356
-244 -368 -702 -88 -78 47 -226 137 -329 199 -103 62 -228 140 -276 174 -277
187 -398 157 -545 -137 -60 -122 -68 -196 -30 -268 39 -74 15 -58 793 -528
410 -248 439 -268 475 -340 45 -91 32 -157 -56 -285 -33 -48 -107 -158 -164
-244 -58 -86 -133 -192 -168 -235 -35 -43 -105 -132 -157 -198 -182 -233 -448
-511 -675 -706 -66 -56 -156 -136 -200 -177 -44 -40 -114 -98 -155 -127 -41
-29 -115 -85 -165 -125 -114 -91 -248 -180 -392 -258 -455 -248 -495 -339
-210 -475 334 -160 431 -149 802 93 99 65 205 130 235 145 71 36 170 100 268
173 42 32 111 84 152 114 355 264 937 821 1121 1073 35 48 106 144 157 214 51
69 133 190 182 267 184 291 293 317 561 137 445 -299 592 -319 742 -99 166
244 112 386 -213 566 -507 281 -573 388 -427 696 36 76 84 190 106 253 99 283
221 318 531 151 156 -83 160 -85 440 -187 285 -104 347 -93 409 73 94 248 86
392 -27 502 -59 57 -394 221 -613 300 -407 147 -443 259 -249 762 59 153 99
311 146 580 50 290 94 494 174 808 120 470 100 522 -237 606 -129 32 -197 38
-254 23z"/>
</g>
</svg>
