<svg xmlns="http://www.w3.org/2000/svg" viewBox="146.10 77.10 667.80 614.80">
<g transform="translate(0,832) scale(0.1,-0.1)" fill="#000000" stroke="none">
<path d="M4615 7353 c-151 -40 -178 -136 -181 -655 -4 -520 7 -504 -377 -567
-509 -85 -873 -73 -1090 36 -106 53 -164 62 -452 69 -342 9 -341 10 -459 -105
-149 -145 -184 -305 -93 -435 49 -70 -50 -66 1442 -66 1295 0 2060 -11 2137
-31 126 -33 120 -154 -22 -389 -21 -36 -55 -102 -74 -148 -19 -46 -54 -109
-78 -140 -23 -31 -60 -92 -81 -135 -21 -43 -60 -103 -88 -133 -28 -31 -68 -82
-88 -113 -20 -31 -52 -76 -70 -101 -18 -25 -53 -85 -76 -135 -37 -78 -56 -103
-143 -190 -165 -164 -257 -180 -367 -65 -22 23 -78 74 -125 114 -47 39 -283
267 -525 506 -560 552 -605 581 -736 463 -147 -133 -85 -380 123 -488 40 -21
98 -55 128 -75 30 -20 84 -54 120 -74 85 -49 380 -347 417 -421 14 -27 45 -81
69 -118 24 -37 58 -95 74 -128 17 -33 51 -87 75 -121 69 -92 62 -122 -48 -204
-34 -26 -114 -98 -177 -159 -79 -77 -134 -122 -175 -143 -33 -16 -94 -55 -135
-85 -41 -31 -106 -68 -145 -83 -38 -14 -97 -44 -130 -65 -33 -21 -100 -57
-150 -79 -49 -23 -113 -59 -140 -80 -96 -71 -124 -82 -295 -105 -62 -9 -167
-32 -234 -51 -222 -64 -229 -65 -471 -73 -332 -10 -396 -64 -279 -239 20 -31
56 -100 79 -153 91 -210 203 -317 405 -385 76 -26 371 -26 474 -1 104 26 286
121 364 191 39 34 98 73 142 94 41 19 102 54 135 77 33 24 88 56 121 73 34 17
92 56 130 86 46 37 93 64 144 82 92 33 218 115 322 210 42 40 112 97 155 128
43 30 166 141 273 246 218 213 237 225 314 196 58 -22 190 -170 301 -336 144
-216 291 -328 576 -440 110 -44 261 -174 364 -316 107 -147 253 -288 363 -350
47 -27 110 -64 141 -81 95 -55 175 -68 426 -68 261 0 294 7 406 89 41 29 111
72 156 95 45 22 97 54 115 69 18 16 65 49 104 74 78 50 76 48 169 192 98 152
96 220 -9 270 -52 25 -79 30 -366 62 -83 9 -203 30 -280 50 -74 19 -196 44
-270 55 -168 24 -221 39 -329 94 -47 23 -131 54 -186 69 -55 14 -125 39 -155
54 -161 82 -266 146 -318 193 -31 29 -82 68 -112 87 -30 20 -77 52 -105 73
-27 21 -86 54 -130 74 -43 20 -103 54 -132 75 -29 22 -87 58 -130 81 -42 22
-89 50 -103 62 -15 12 -59 48 -98 80 -82 66 -107 105 -99 153 10 62 87 220
138 284 28 34 67 87 86 118 20 32 57 86 83 122 26 36 64 99 84 140 26 56 62
104 141 190 125 137 149 168 222 285 86 138 93 154 123 308 93 467 174 519
613 390 107 -32 136 -36 237 -37 160 -1 159 -2 328 187 110 123 169 400 110
517 -47 92 53 84 -1163 90 -1200 6 -1125 0 -1171 85 -22 42 -7 321 27 505 60
328 -82 580 -296 523z"/>
</g>
</svg>
