<svg xmlns="http://www.w3.org/2000/svg" viewBox="24.12 11.39 99.73 91.09">
<path d="M28.11 36.79L28.80 36.71L29.59 36.62L30.48 36.53L31.45 36.44L32.51 36.35L33.64 36.25L34.83 36.16L36.09 36.07L37.40 35.98L38.76 35.89L40.16 35.81L41.59 35.73L43.05 35.65L44.52 35.57L46.01 35.50L47.50 35.43L48.99 35.37L50.47 35.32L51.93 35.27L53.37 35.23L54.78 35.20L56.14 35.18L57.46 35.16L58.75 35.15L60.03 35.14L61.32 35.12L62.61 35.09L63.91 35.06L65.20 35.02L66.50 34.97L67.79 34.91L69.08 34.84L70.37 34.77L71.65 34.69L72.92 34.60L74.19 34.50L75.46 34.39L76.71 34.28L77.96 34.16L79.20 34.04L80.43 33.92L81.65 33.80L82.85 33.67L84.05 33.55L85.23 33.44L86.40 33.33L87.56 33.22L88.70 33.13L89.87 33.05L91.08 32.99L92.31 32.95L93.56 32.92L94.83 32.90L96.11 32.90L97.39 32.90L98.67 32.92L99.94 32.95L101.20 32.99L102.44 33.04L103.65 33.09L104.84 33.15L105.99 33.22L107.10 33.29L108.16 33.36L109.17 33.44L110.13 33.51L111.02 33.59L111.85 33.66L112.61 33.74L113.29 33.81L113.89 33.87L114.11 32.13L113.52 32.05L112.86 31.94L112.12 31.80L111.32 31.63L110.44 31.44L109.51 31.23L108.52 31.00L107.48 30.75L106.39 30.49L105.27 30.22L104.10 29.94L102.91 29.65L101.68 29.37L100.44 29.08L99.17 28.79L97.89 28.51L96.60 28.24L95.31 27.98L94.01 27.73L92.72 27.49L91.43 27.27L90.15 27.08L88.89 26.91L87.65 26.76L86.42 26.64L85.17 26.54L83.92 26.46L82.65 26.39L81.37 26.35L80.09 26.33L78.80 26.33L77.50 26.35L76.20 26.39L74.90 26.45L73.59 26.53L72.29 26.63L70.98 26.75L69.67 26.89L68.37 27.05L67.07 27.23L65.77 27.41L64.48 27.62L63.19 27.83L61.91 28.05L60.63 28.28L59.36 28.52L58.10 28.76L56.82 29.02L55.49 29.28L54.13 29.57L52.73 29.87L51.30 30.17L49.86 30.49L48.40 30.82L46.93 31.14L45.47 31.47L44.01 31.81L42.56 32.13L41.13 32.46L39.73 32.78L38.36 33.08L37.03 33.38L35.75 33.67L34.51 33.94L33.34 34.19L32.23 34.42L31.19 34.63L30.23 34.82L29.36 34.98L28.58 35.11L27.89 35.21ZM72.35 15.09L72.11 15.50L71.84 15.96L71.54 16.46L71.20 17.00L70.83 17.59L70.43 18.21L70.00 18.86L69.55 19.54L69.08 20.26L68.58 20.99L68.06 21.75L67.53 22.53L66.98 23.32L66.42 24.13L65.85 24.95L65.27 25.77L64.68 26.60L64.08 27.44L63.49 28.27L62.89 29.09L62.29 29.91L61.70 30.72L61.11 31.51L60.52 32.30L59.94 33.09L59.35 33.89L58.77 34.70L58.20 35.50L57.62 36.32L57.05 37.14L56.48 37.97L55.91 38.81L55.35 39.66L54.78 40.53L54.22 41.41L53.66 42.31L53.10 43.23L52.55 44.16L52.00 45.13L51.45 46.11L50.89 47.12L50.34 48.15L49.77 49.20L49.20 50.28L48.62 51.39L48.03 52.52L47.42 53.68L46.79 54.87L46.10 56.14L45.36 57.49L44.56 58.90L43.73 60.36L42.86 61.87L41.96 63.41L41.03 64.98L40.09 66.56L39.14 68.16L38.17 69.74L37.21 71.32L36.26 72.87L35.31 74.40L34.39 75.88L33.49 77.31L32.61 78.69L31.77 79.99L30.98 81.22L30.23 82.36L29.53 83.41L28.89 84.34L28.32 85.17L27.82 85.87L28.18 86.13L28.70 85.45L29.32 84.66L30.03 83.78L30.83 82.81L31.71 81.76L32.66 80.65L33.67 79.47L34.73 78.24L35.85 76.97L37.00 75.65L38.19 74.31L39.40 72.94L40.63 71.56L41.86 70.17L43.10 68.78L44.34 67.40L45.56 66.04L46.75 64.70L47.92 63.39L49.06 62.12L50.15 60.90L51.19 59.74L52.17 58.63L53.09 57.59L53.97 56.59L54.82 55.60L55.64 54.62L56.44 53.65L57.21 52.70L57.96 51.75L58.68 50.81L59.37 49.88L60.03 48.95L60.66 48.03L61.27 47.10L61.85 46.18L62.40 45.27L62.94 44.36L63.46 43.45L63.96 42.54L64.45 41.64L64.92 40.74L65.39 39.85L65.84 38.95L66.28 38.06L66.71 37.16L67.14 36.26L67.57 35.35L68.00 34.42L68.43 33.48L68.86 32.52L69.28 31.56L69.70 30.61L70.11 29.65L70.51 28.69L70.91 27.75L71.31 26.82L71.69 25.90L72.07 25.00L72.43 24.12L72.79 23.27L73.14 22.45L73.47 21.66L73.80 20.90L74.11 20.19L74.40 19.51L74.69 18.89L74.95 18.31L75.20 17.79L75.44 17.32L75.65 16.91ZM56.13 67.04L56.50 67.00L56.90 66.96L57.33 66.93L57.80 66.90L58.29 66.87L58.82 66.84L59.37 66.82L59.96 66.80L60.56 66.78L61.19 66.76L61.85 66.75L62.52 66.74L63.21 66.73L63.92 66.72L64.64 66.71L65.38 66.70L66.13 66.69L66.89 66.69L67.66 66.68L68.44 66.68L69.22 66.67L70.00 66.67L70.79 66.66L71.58 66.66L72.37 66.65L73.15 66.64L73.93 66.63L74.70 66.63L75.47 66.61L76.23 66.60L76.97 66.59L77.70 66.57L78.42 66.55L79.12 66.53L79.80 66.51L80.48 66.48L81.17 66.45L81.88 66.41L82.62 66.37L83.38 66.33L84.16 66.28L84.95 66.23L85.76 66.18L86.58 66.12L87.41 66.06L88.25 66.00L89.09 65.94L89.94 65.88L90.79 65.81L91.64 65.75L92.49 65.69L93.33 65.63L94.17 65.56L95.00 65.50L95.82 65.44L96.63 65.39L97.42 65.33L98.20 65.28L98.96 65.23L99.70 65.18L100.41 65.14L101.11 65.10L101.78 65.07L102.42 65.04L103.03 65.01L103.61 64.99L104.15 64.98L104.66 64.97L105.13 64.96L105.57 64.97L105.96 64.98L106.04 63.02L105.66 63.00L105.24 62.96L104.77 62.91L104.27 62.84L103.74 62.76L103.17 62.67L102.57 62.57L101.94 62.46L101.29 62.34L100.60 62.21L99.89 62.08L99.17 61.94L98.41 61.79L97.65 61.65L96.86 61.50L96.06 61.34L95.24 61.19L94.42 61.04L93.58 60.89L92.73 60.74L91.88 60.59L91.02 60.45L90.16 60.32L89.30 60.19L88.44 60.07L87.58 59.95L86.73 59.85L85.88 59.76L85.04 59.68L84.21 59.61L83.38 59.55L82.57 59.51L81.78 59.49L81.00 59.48L80.23 59.49L79.49 59.52L78.73 59.57L77.97 59.64L77.19 59.72L76.41 59.83L75.63 59.95L74.84 60.08L74.05 60.22L73.25 60.38L72.46 60.55L71.66 60.72L70.87 60.91L70.08 61.10L69.30 61.30L68.52 61.50L67.75 61.71L66.99 61.92L66.24 62.13L65.49 62.35L64.77 62.56L64.05 62.77L63.35 62.97L62.67 63.18L62.00 63.38L61.35 63.57L60.72 63.75L60.12 63.93L59.54 64.10L58.98 64.25L58.44 64.40L57.94 64.53L57.46 64.65L57.01 64.75L56.60 64.84L56.22 64.91L55.87 64.96ZM83.60 64.00L83.60 64.21L83.58 64.44L83.56 64.69L83.53 64.96L83.50 65.24L83.45 65.54L83.40 65.86L83.35 66.19L83.29 66.53L83.22 66.89L83.15 67.26L83.08 67.64L83.00 68.04L82.93 68.44L82.84 68.85L82.76 69.27L82.68 69.70L82.59 70.13L82.51 70.57L82.42 71.01L82.34 71.46L82.25 71.91L82.17 72.36L82.09 72.82L82.02 73.27L81.94 73.73L81.87 74.18L81.81 74.64L81.75 75.09L81.69 75.53L81.64 75.97L81.60 76.41L81.56 76.84L81.53 77.26L81.51 77.68L81.50 78.09L81.49 78.51L81.49 78.95L81.50 79.41L81.52 79.88L81.54 80.36L81.57 80.85L81.60 81.35L81.64 81.86L81.68 82.38L81.73 82.90L81.78 83.42L81.83 83.95L81.89 84.48L81.95 85.01L82.01 85.54L82.07 86.06L82.13 86.58L82.19 87.10L82.25 87.61L82.31 88.12L82.37 88.61L82.42 89.10L82.48 89.57L82.53 90.03L82.58 90.48L82.62 90.91L82.66 91.33L82.70 91.73L82.73 92.11L82.75 92.47L82.77 92.81L82.78 93.12L82.79 93.41L82.79 93.68L82.78 93.92L85.22 94.08L85.24 93.84L85.28 93.58L85.32 93.29L85.38 92.99L85.44 92.66L85.52 92.30L85.60 91.93L85.69 91.55L85.79 91.14L85.90 90.72L86.01 90.28L86.13 89.83L86.25 89.37L86.37 88.89L86.50 88.41L86.63 87.92L86.76 87.42L86.89 86.91L87.02 86.40L87.15 85.88L87.28 85.36L87.41 84.83L87.53 84.31L87.65 83.78L87.76 83.26L87.87 82.74L87.97 82.22L88.07 81.71L88.16 81.20L88.24 80.70L88.31 80.21L88.37 79.72L88.42 79.25L88.46 78.79L88.49 78.34L88.50 77.90L88.51 77.45L88.50 77.00L88.48 76.55L88.46 76.09L88.42 75.63L88.38 75.16L88.32 74.69L88.27 74.23L88.20 73.76L88.13 73.29L88.06 72.82L87.98 72.36L87.89 71.90L87.81 71.44L87.72 70.98L87.63 70.53L87.54 70.09L87.44 69.65L87.35 69.22L87.26 68.80L87.17 68.39L87.08 67.99L87.00 67.60L86.91 67.22L86.83 66.85L86.76 66.49L86.69 66.15L86.63 65.82L86.57 65.51L86.52 65.21L86.48 64.93L86.45 64.67L86.42 64.43L86.41 64.20L86.40 64.00ZM40.06 97.99L40.80 97.95L41.65 97.92L42.60 97.90L43.66 97.89L44.80 97.89L46.03 97.89L47.32 97.90L48.69 97.91L50.11 97.93L51.58 97.96L53.08 97.99L54.63 98.03L56.19 98.07L57.77 98.11L59.36 98.15L60.95 98.20L62.53 98.25L64.09 98.30L65.63 98.35L67.14 98.40L68.60 98.45L70.01 98.50L71.37 98.55L72.66 98.60L73.93 98.64L75.19 98.68L76.46 98.72L77.72 98.75L78.98 98.77L80.23 98.78L81.48 98.78L82.73 98.77L83.97 98.75L85.20 98.71L86.42 98.65L87.63 98.58L88.83 98.48L90.03 98.37L91.21 98.24L92.37 98.09L93.53 97.93L94.66 97.74L95.79 97.55L96.89 97.33L97.98 97.10L99.05 96.86L100.10 96.60L101.13 96.33L102.17 96.04L103.21 95.73L104.24 95.41L105.26 95.08L106.27 94.74L107.26 94.40L108.24 94.05L109.21 93.70L110.16 93.35L111.08 93.00L111.98 92.66L112.86 92.32L113.71 92.00L114.53 91.68L115.31 91.39L116.07 91.10L116.78 90.84L117.46 90.60L118.09 90.38L118.68 90.19L119.23 90.03L119.72 89.89L120.16 89.79L119.84 88.21L119.38 88.29L118.86 88.38L118.29 88.47L117.67 88.55L117.00 88.63L116.29 88.72L115.53 88.80L114.73 88.88L113.90 88.95L113.03 89.03L112.14 89.10L111.21 89.16L110.27 89.22L109.30 89.28L108.32 89.33L107.32 89.37L106.31 89.41L105.29 89.44L104.27 89.47L103.25 89.49L102.23 89.50L101.22 89.50L100.22 89.49L99.23 89.48L98.21 89.46L97.18 89.45L96.12 89.44L95.05 89.43L93.95 89.43L92.85 89.43L91.72 89.44L90.58 89.46L89.42 89.50L88.25 89.54L87.07 89.60L85.87 89.67L84.67 89.76L83.45 89.86L82.23 89.98L80.99 90.11L79.75 90.25L78.50 90.41L77.24 90.57L75.98 90.75L74.72 90.94L73.45 91.14L72.19 91.35L70.91 91.56L69.58 91.79L68.18 92.02L66.74 92.26L65.26 92.50L63.74 92.75L62.20 92.99L60.64 93.24L59.07 93.48L57.50 93.72L55.94 93.96L54.39 94.19L52.86 94.41L51.37 94.63L49.92 94.84L48.51 95.03L47.16 95.21L45.87 95.38L44.66 95.53L43.52 95.67L42.47 95.78L41.52 95.88L40.67 95.96L39.94 96.01Z" fill="#000000" fill-rule="evenodd"/>
</svg>
