<svg xmlns="http://www.w3.org/2000/svg" viewBox="227.73 227.73 423.50 343.97">
<g transform="translate(239.72,559.72) scale(0.100000,-0.100000)" fill="#000000" stroke="none" fill-rule="evenodd">
<path d="M 1585.0 2853.0 L 1585.0 2855.4 Q 1585.0 2853.0 1585.0 2850.6 L 1593.0 1065.3 Q 1593.0 1062.9 1592.8 1060.5 L 1570.2 813.1 Q 1570.0 810.7 1567.9 809.5 L 1488.4 760.2 Q 1486.4 759.0 1484.0 758.7 L 15.2 600.0 Q 12.8 599.7 12.8 597.3 L 0.1 101.9 Q 0.0 99.5 2.4 99.6 L 79.9 102.4 Q 82.3 102.5 84.6 103.1 L 814.9 318.0 Q 817.2 318.7 819.6 318.9 L 1374.3 375.8 Q 1376.7 376.0 1379.1 376.0 L 1885.7 378.7 Q 1888.1 378.7 1890.5 378.5 L 2395.0 334.3 Q 2397.4 334.1 2399.8 333.8 L 2748.3 278.6 Q 2750.6 278.2 2752.9 277.3 L 3173.2 104.1 Q 3175.4 103.2 3177.1 101.5 L 3277.4 1.7 Q 3279.1 0.0 3281.5 0.0 L 3583.6 0.0 Q 3586.0 0.0 3588.2 1.1 L 3620.5 17.5 Q 3622.6 18.6 3623.7 20.7 L 3668.0 106.2 Q 3669.1 108.3 3671.0 109.8 L 3826.1 234.2 Q 3828.0 235.7 3829.4 237.6 L 3974.9 441.4 Q 3976.3 443.3 3976.6 445.7 L 3995.1 642.2 Q 3995.3 644.6 3994.3 646.8 L 3955.8 734.7 Q 3954.8 736.9 3952.8 738.3 L 3914.7 763.8 Q 3912.7 765.1 3910.3 765.2 L 3813.8 768.1 Q 3811.4 768.1 3809.0 767.8 L 3308.8 691.1 Q 3306.5 690.7 3304.1 690.9 L 2185.8 756.3 Q 2183.4 756.5 2181.0 756.9 L 2035.5 784.2 Q 2033.2 784.6 2031.1 785.9 L 1992.2 810.5 Q 1990.2 811.8 1989.1 814.0 L 1945.1 899.3 Q 1944.0 901.4 1944.1 903.8 L 1968.6 1306.9 Q 1968.7 1309.3 1968.7 1311.7 L 1959.5 1613.5 Q 1959.5 1615.9 1960.2 1618.2 L 1990.4 1709.1 Q 1991.1 1711.4 1993.2 1712.5 L 2078.1 1757.0 Q 2080.2 1758.1 2082.6 1758.4 L 2178.8 1773.5 Q 2181.2 1773.9 2183.6 1774.0 L 3148.0 1828.8 Q 3150.4 1828.9 3152.1 1830.5 L 3296.8 1963.7 Q 3298.6 1965.3 3299.1 1967.7 L 3319.2 2061.4 Q 3319.7 2063.7 3319.0 2066.0 L 3304.5 2109.7 Q 3303.8 2112.0 3302.0 2113.6 L 3231.0 2178.2 Q 3229.2 2179.9 3226.9 2180.4 L 3181.8 2190.3 Q 3179.5 2190.9 3177.1 2190.9 L 2466.2 2211.0 Q 2463.8 2211.1 2461.4 2211.3 L 2109.7 2243.3 Q 2107.4 2243.5 2105.1 2244.3 L 2014.3 2277.0 Q 2012.1 2277.8 2010.3 2279.4 L 1977.0 2311.3 Q 1975.2 2313.0 1974.9 2315.3 L 1967.8 2360.2 Q 1967.5 2362.6 1967.5 2365.0 L 1980.7 3178.4 Q 1980.8 3180.8 1978.7 3182.1 L 1951.1 3198.8 Q 1949.0 3200.0 1946.6 3200.0 L 1593.4 3200.0 Q 1591.0 3200.0 1590.9 3197.6 Z"/>
</g>
</svg>
