<svg xmlns="http://www.w3.org/2000/svg" viewBox="217.93 113.93 709.14 598.14">
<g transform="translate(0,864) scale(0.1,-0.1)" fill="#000000" stroke="none">
<path d="M5750 7285 c-74 -33 -102 -74 -151 -211 -16 -47 -47 -113 -67 -147
-53 -88 -59 -105 -87 -233 -34 -163 -106 -279 -211 -340 -44 -26 -44 -26 -832
-28 -898 -1 -889 0 -1029 -143 -144 -147 -157 -221 -56 -301 127 -99 260 -117
468 -61 197 52 240 58 475 69 124 6 307 15 406 21 242 14 296 -2 311 -93 7
-46 -44 -232 -96 -348 -21 -47 -50 -121 -65 -166 -14 -44 -36 -94 -49 -111
-57 -80 -162 -200 -191 -219 -118 -79 -239 -156 -285 -180 -30 -16 -80 -52
-110 -79 -31 -28 -78 -68 -104 -89 -26 -21 -70 -70 -96 -110 -107 -158 -256
-290 -416 -367 -55 -27 -127 -66 -161 -87 -72 -45 -120 -57 -308 -78 -77 -8
-172 -22 -211 -31 -38 -8 -144 -18 -235 -22 -195 -8 -226 -19 -256 -96 -37
-97 4 -189 148 -335 291 -296 509 -358 758 -215 41 24 112 58 157 75 46 17
111 51 145 74 35 24 90 57 123 74 64 32 99 66 213 204 79 95 116 127 176 152
21 9 65 34 98 57 33 22 89 54 125 71 36 18 80 46 97 63 48 48 171 193 224 264
98 132 111 152 127 198 45 130 170 356 237 429 40 43 82 103 104 146 20 40 52
92 70 115 19 23 55 84 81 135 25 51 63 118 85 150 24 33 53 96 72 155 42 124
55 149 103 194 84 81 -44 73 1363 79 1401 6 1300 0 1388 76 122 104 118 272
-8 343 -45 25 -71 25 -322 1 -222 -22 -2025 2 -2076 27 -88 44 -102 131 -38
246 29 51 44 96 61 185 13 64 31 146 39 182 50 208 -53 368 -194 305z"/>
<path d="M5270 4650 c-168 -16 -248 -65 -290 -175 -53 -143 -48 -236 15 -300
67 -67 89 -69 565 -71 606 -1 552 63 553 -668 0 -706 21 -668 -363 -672 -129
-2 -356 -10 -505 -18 -609 -35 -702 -45 -884 -91 -53 -13 -137 -28 -187 -34
-190 -23 -261 -62 -348 -191 -20 -30 -53 -74 -71 -98 -89 -111 -98 -365 -18
-470 64 -84 165 -83 267 4 24 21 70 43 120 60 44 14 133 50 196 80 63 29 160
65 215 79 55 14 147 48 205 75 189 88 464 107 1370 97 667 -8 789 -19 940 -82
30 -12 140 -41 244 -65 220 -48 261 -62 342 -117 32 -22 90 -54 129 -72 38
-18 92 -49 120 -70 184 -139 500 -168 724 -65 67 30 307 265 336 328 193 420
156 732 -83 691 -360 -62 -2008 -30 -2159 42 -89 42 -98 94 -75 403 6 91 18
275 27 410 28 466 0 445 600 441 487 -2 498 -1 625 62 76 37 101 70 129 166
70 237 12 328 -209 324 -63 -1 -414 -7 -780 -13 -462 -8 -757 -8 -965 -1 -458
16 -702 19 -785 11z"/>
</g>
</svg>
