<svg xmlns="http://www.w3.org/2000/svg" viewBox="108.14 54.53 357.08 299.20">
<g transform="translate(0.000000,432.000000) scale(0.100000,-0.100000)" fill="#000000" stroke="none" fill-rule="evenodd">
<path d="M2880 3641 c-12 -18 -31 -31 -48 -33 -24 -3 -28 -8 -34 -53 -11 -81
-17 -93 -46 -107 -22 -11 -27 -21 -29 -53 -2 -22 -8 -63 -13 -92 -9 -43 -18
-57 -58 -90 l-46 -38 -401 -5 c-352 -4 -403 -7 -425 -22 -14 -9 -42 -20 -62
-23 -32 -6 -38 -12 -45 -43 -6 -27 -15 -38 -31 -40 -48 -7 -46 -66 3 -74 11
-2 26 -17 34 -35 12 -28 20 -32 67 -38 82 -10 145 2 171 33 l22 26 248 6 c136
4 259 3 272 -2 23 -8 24 -11 18 -81 -10 -112 -17 -138 -43 -147 -21 -8 -30
-35 -46 -135 -2 -12 -15 -23 -36 -29 -24 -7 -32 -15 -32 -32 0 -30 -25 -54
-56 -54 -19 0 -28 -8 -35 -29 -8 -23 -19 -31 -57 -41 -79 -20 -92 -27 -92 -55
0 -19 -6 -26 -27 -31 -49 -10 -53 -13 -53 -36 0 -29 -9 -42 -38 -57 -13 -7
-27 -23 -32 -37 -6 -14 -25 -31 -45 -40 -22 -9 -37 -23 -41 -38 -5 -19 -15
-26 -47 -32 -25 -4 -57 -20 -80 -39 -44 -38 -72 -45 -176 -45 -42 0 -92 -4
-111 -10 -19 -5 -71 -14 -114 -20 -59 -7 -86 -16 -103 -32 -26 -24 -27 -36
-12 -107 9 -45 14 -52 42 -59 24 -6 33 -16 39 -40 7 -26 16 -33 49 -42 22 -6
57 -27 78 -46 36 -32 43 -34 105 -34 69 0 108 13 139 48 10 11 37 23 61 26 28
5 58 20 90 46 31 26 58 40 76 40 24 0 29 5 37 38 7 29 14 38 33 41 29 4 40 17
40 47 0 23 17 34 56 34 16 0 28 9 38 29 14 27 51 43 121 53 14 2 21 13 25 38
4 28 10 35 37 42 26 7 34 16 42 46 6 21 26 53 46 72 22 21 37 47 41 69 9 54
23 87 50 112 13 12 24 32 24 43 0 31 13 46 46 55 23 6 30 14 35 42 7 44 23 73
53 96 14 12 26 34 30 59 5 29 14 43 35 55 24 14 30 27 41 82 11 58 17 71 56
107 l44 40 653 0 c507 0 657 3 669 13 40 31 39 186 -1 206 -9 4 -52 3 -96 -2
-163 -22 -1109 -2 -1140 23 -25 21 -19 69 9 80 32 12 44 55 52 186 8 121 -10
193 -48 194 -4 0 -16 -13 -28 -29z"/>
<path d="M2584 2319 c-75 -9 -90 -21 -104 -80 -14 -56 -9 -134 9 -152 8 -8 96
-13 271 -15 l260 -4 11 -40 c6 -26 9 -146 7 -335 -3 -278 -4 -295 -22 -309
-16 -11 -68 -14 -250 -14 -127 0 -312 -5 -411 -10 -168 -8 -181 -10 -198 -31
-15 -18 -38 -25 -125 -38 l-107 -16 -3 -30 c-2 -20 -16 -41 -40 -61 l-37 -32
-3 -93 c-3 -86 -1 -96 20 -122 18 -22 35 -30 70 -34 44 -5 47 -4 54 21 7 31
27 40 101 51 44 6 55 11 65 33 12 24 21 28 88 37 78 10 109 23 148 59 23 21
27 21 567 21 l544 0 28 -27 c31 -29 88 -48 145 -48 20 0 60 -5 88 -11 40 -9
53 -17 65 -40 12 -22 22 -29 46 -29 21 0 39 -10 62 -34 18 -20 49 -39 72 -45
45 -12 172 -14 254 -4 47 5 55 10 65 34 7 19 20 30 38 35 20 4 33 16 42 39 8
18 24 36 36 40 25 8 35 31 45 101 4 36 14 58 31 73 20 18 24 30 24 79 0 59
-11 82 -40 82 -8 0 -24 9 -34 21 -13 16 -24 19 -44 15 -103 -26 -153 -29 -452
-28 -179 0 -352 5 -385 10 -33 6 -93 16 -132 22 -40 6 -85 17 -100 25 -16 8
-35 15 -44 15 -23 0 -27 22 -18 125 9 112 53 407 69 458 l11 37 212 0 c202 0
383 13 400 29 4 4 10 53 14 108 4 77 3 102 -7 108 -16 10 -1330 13 -1406 4z"/>
</g>
</svg>
