<svg xmlns="http://www.w3.org/2000/svg" viewBox="84.16 93.01 366.74 283.98">
<g transform="translate(0.000000,432.000000) scale(0.100000,-0.100000)" fill="#000000" stroke="none" fill-rule="evenodd">
<path d="M2580 3283 c-22 -9 -30 -24 -30 -56 0 -16 -7 -30 -15 -34 -9 -3 -25
-23 -35 -44 -38 -73 -24 -388 23 -529 21 -64 22 -77 27 -975 3 -500 7 -911 8
-912 1 -1 18 -5 37 -9 24 -4 39 -14 48 -33 10 -22 20 -26 60 -29 27 -2 54 2
61 7 7 6 21 37 31 68 10 32 24 72 30 88 21 50 38 231 31 324 -4 47 -16 120
-27 161 -20 72 -21 111 -30 1009 -7 765 -11 937 -22 948 -14 15 -171 28 -197
16z"/>
<path d="M3487 2313 c-33 -5 -47 -34 -47 -94 0 -36 3 -41 35 -55 26 -10 35
-20 35 -38 0 -23 42 -89 73 -115 9 -7 17 -27 17 -43 0 -24 6 -32 35 -44 26
-11 35 -20 35 -38 0 -27 14 -41 53 -50 20 -5 27 -12 27 -30 0 -28 16 -43 50
-48 22 -3 26 -10 36 -71 10 -65 23 -86 50 -87 13 0 24 -23 24 -51 0 -42 109
-75 151 -45 13 9 37 16 54 17 58 1 109 23 115 49 4 17 15 26 36 31 45 9 54 17
54 49 0 23 5 30 30 35 24 5 30 13 35 43 3 20 8 45 10 56 9 42 -11 64 -66 71
-36 5 -60 15 -78 33 -22 22 -38 26 -119 33 -113 10 -132 15 -132 38 0 25 -20
41 -53 41 -22 0 -31 7 -42 34 -9 22 -25 37 -43 44 -21 7 -31 19 -35 40 -4 22
-13 31 -34 36 -95 23 -101 26 -111 55 -8 22 -19 31 -49 38 -30 7 -39 14 -42
33 -5 39 -24 45 -104 33z"/>
<path d="M1782 2288 c-7 -7 -12 -18 -12 -25 0 -7 -15 -20 -33 -29 -18 -9 -39
-27 -47 -41 -8 -14 -31 -31 -50 -37 -22 -7 -36 -18 -38 -31 -5 -26 -30 -45
-59 -45 -17 0 -24 -8 -31 -32 -8 -32 -11 -33 -80 -44 -40 -6 -73 -13 -75 -15
-1 -2 -7 -13 -13 -24 -20 -36 -86 -47 -234 -40 -171 9 -165 13 -156 -128 6
-90 10 -104 31 -122 27 -23 46 -58 54 -99 4 -16 14 -33 24 -38 9 -4 25 -12 35
-17 9 -4 18 -17 20 -29 5 -34 26 -43 88 -40 55 3 58 4 66 34 7 26 14 33 43 38
25 5 39 15 50 36 9 16 27 33 41 36 16 4 30 19 39 40 9 21 23 36 39 40 21 5 27
14 32 44 5 33 10 38 43 46 29 7 37 14 39 36 3 22 10 30 42 38 28 7 40 17 44
35 3 14 19 31 35 39 29 15 30 18 46 123 5 32 12 42 30 47 20 5 24 14 30 70 11
96 -12 165 -43 134z"/>
</g>
</svg>
