<svg xmlns="http://www.w3.org/2000/svg" viewBox="71.24 38.63 336.27 306.76">
<g transform="translate(0.000000,416.000000) scale(0.100000,-0.100000)" fill="#000000" stroke="none" fill-rule="evenodd">
<path d="M2250 3670 c-12 -8 -15 -48 -18 -242 -3 -273 -6 -298 -32 -298 -10 0
-32 -11 -48 -25 -16 -13 -42 -29 -57 -35 -46 -18 -300 -33 -439 -26 -108 5
-133 9 -150 25 -53 48 -75 52 -273 49 l-187 -3 -8 -32 c-7 -25 -16 -34 -41
-41 l-32 -8 0 -92 c0 -74 3 -95 18 -109 17 -17 71 -18 915 -23 493 -3 898 -6
898 -8 23 -37 1 -145 -41 -197 -18 -23 -35 -57 -38 -80 -4 -22 -11 -41 -17
-43 -28 -10 -51 -43 -63 -92 -12 -48 -18 -56 -45 -64 -24 -7 -31 -15 -36 -45
-4 -28 -12 -39 -34 -47 -24 -9 -30 -20 -43 -75 -14 -58 -18 -65 -47 -73 -25
-7 -33 -16 -38 -42 -6 -31 -9 -33 -58 -39 -76 -10 -99 -4 -114 28 -8 15 -25
32 -38 37 -27 10 -125 103 -364 341 l-156 156 -55 5 c-30 3 -64 2 -76 -3 -21
-8 -23 -15 -22 -81 0 -40 5 -88 12 -107 12 -35 33 -46 120 -65 17 -4 27 -13
27 -25 0 -24 18 -38 55 -43 23 -2 31 -10 38 -34 7 -23 17 -34 40 -41 23 -6 34
-17 40 -40 7 -23 18 -33 41 -40 27 -7 31 -14 34 -46 3 -30 8 -38 28 -43 30 -8
38 -23 53 -96 11 -51 15 -57 42 -63 24 -5 29 -12 29 -36 0 -30 -3 -33 -52 -43
-19 -4 -28 -14 -33 -36 -5 -23 -14 -32 -38 -38 -24 -6 -33 -16 -39 -40 -7 -26
-15 -33 -51 -42 -81 -19 -91 -25 -97 -50 -5 -20 -16 -27 -70 -40 -50 -12 -68
-22 -79 -42 -11 -20 -26 -28 -57 -33 -26 -3 -50 -15 -65 -31 -37 -40 -73 -54
-139 -54 -61 0 -150 -17 -150 -29 -1 -30 -23 -35 -187 -41 -92 -4 -176 -11
-185 -15 -27 -11 -24 -62 5 -71 30 -9 35 -20 43 -88 6 -54 9 -59 40 -72 25
-11 34 -21 34 -38 0 -28 16 -43 50 -48 15 -2 30 -14 38 -30 11 -23 20 -27 79
-34 36 -3 102 -4 146 -1 69 5 83 9 101 30 20 24 64 43 116 49 19 2 26 10 30
33 4 26 11 31 48 40 24 6 64 27 89 48 29 23 56 37 74 37 24 0 30 5 37 32 7 30
13 33 58 40 87 14 91 16 97 47 5 24 12 30 38 33 18 2 36 11 40 21 5 9 13 25
18 35 4 9 20 19 34 22 23 4 67 43 253 218 50 47 95 43 108 -10 4 -20 15 -30
39 -36 27 -7 33 -13 35 -41 3 -26 10 -35 38 -47 26 -11 34 -20 34 -39 0 -13 7
-30 16 -37 37 -30 61 -55 65 -67 3 -7 23 -15 46 -18 30 -4 44 -11 52 -29 7
-17 26 -28 68 -39 32 -9 64 -18 71 -20 6 -3 12 -16 12 -29 0 -20 6 -27 28 -32
48 -10 52 -13 52 -37 0 -28 17 -47 42 -47 19 0 22 -5 32 -52 5 -20 15 -30 38
-36 25 -6 34 -15 40 -40 7 -27 13 -32 37 -32 19 0 45 -14 76 -39 46 -38 49
-39 149 -46 57 -4 124 -4 149 -1 26 3 67 8 91 11 38 5 46 10 54 35 8 22 19 30
46 36 21 3 50 20 69 39 18 18 52 38 74 44 40 11 43 14 58 69 9 31 28 69 42 84
52 55 -6 88 -157 88 -80 0 -185 26 -200 50 -3 6 -55 15 -116 20 -146 14 -160
17 -190 50 -23 24 -38 29 -101 35 -70 6 -75 9 -84 34 -8 24 -19 30 -67 41 -66
15 -82 25 -82 51 0 21 -12 30 -54 38 -22 5 -32 13 -34 29 -4 26 -22 37 -77 46
-66 11 -72 15 -79 46 -5 26 -10 30 -38 30 -22 0 -41 9 -62 30 -17 17 -48 45
-69 63 l-39 32 21 27 c12 14 21 37 21 50 0 51 21 98 49 113 30 15 41 33 41 66
0 14 9 21 30 26 22 4 32 12 36 32 20 99 27 112 56 118 20 4 30 13 34 32 10 47
12 50 41 53 24 3 29 9 37 46 6 23 15 42 21 42 34 0 46 27 58 130 13 103 27
141 69 183 10 10 18 26 18 37 0 10 7 23 16 28 21 12 115 3 134 -13 36 -31 94
-45 187 -45 106 0 133 9 133 45 0 19 8 28 34 39 30 12 35 21 45 66 12 55 15
198 5 224 -6 14 -64 16 -553 16 -500 0 -549 2 -581 18 l-35 17 1 80 c1 44 9
99 18 123 19 53 31 158 22 204 -4 25 -13 36 -35 45 -22 8 -30 18 -33 39 -3 28
-5 29 -68 32 -36 1 -72 -2 -80 -8z"/>
</g>
</svg>
