<svg xmlns="http://www.w3.org/2000/svg" viewBox="22.72 16.94 82.55 82.11">
<path d="M61.93 20.00L61.92 20.56L61.91 21.19L61.88 21.87L61.84 22.60L61.80 23.38L61.75 24.21L61.68 25.08L61.62 25.99L61.54 26.95L61.46 27.94L61.37 28.97L61.28 30.03L61.19 31.12L61.09 32.24L61.00 33.38L60.89 34.54L60.79 35.73L60.69 36.93L60.59 38.14L60.49 39.37L60.39 40.60L60.29 41.85L60.19 43.09L60.10 44.34L60.01 45.59L59.93 46.83L59.85 48.07L59.78 49.30L59.71 50.52L59.66 51.73L59.61 52.92L59.57 54.09L59.53 55.24L59.51 56.36L59.50 57.46L59.50 58.54L59.51 59.64L59.54 60.76L59.57 61.91L59.62 63.08L59.67 64.27L59.73 65.48L59.80 66.70L59.88 67.93L59.96 69.17L60.05 70.41L60.14 71.66L60.24 72.91L60.35 74.15L60.45 75.40L60.56 76.63L60.67 77.86L60.78 79.07L60.89 80.27L61.00 81.46L61.11 82.62L61.21 83.76L61.32 84.88L61.42 85.97L61.51 87.03L61.61 88.06L61.69 89.05L61.77 90.01L61.85 90.92L61.91 91.79L61.97 92.62L62.02 93.40L62.06 94.13L62.09 94.81L62.10 95.44L62.11 96.00L65.89 96.00L65.90 95.44L65.91 94.81L65.94 94.13L65.98 93.40L66.03 92.62L66.09 91.79L66.15 90.92L66.23 90.01L66.31 89.05L66.39 88.06L66.49 87.03L66.58 85.97L66.68 84.88L66.79 83.76L66.89 82.62L67.00 81.46L67.11 80.27L67.22 79.07L67.33 77.86L67.44 76.63L67.55 75.40L67.65 74.15L67.76 72.91L67.86 71.66L67.95 70.41L68.04 69.17L68.12 67.93L68.20 66.70L68.27 65.48L68.33 64.27L68.38 63.08L68.43 61.91L68.46 60.76L68.49 59.64L68.50 58.54L68.50 57.46L68.49 56.36L68.47 55.24L68.43 54.09L68.39 52.92L68.34 51.73L68.29 50.52L68.22 49.30L68.15 48.07L68.07 46.83L67.99 45.59L67.90 44.34L67.81 43.09L67.71 41.85L67.61 40.60L67.51 39.37L67.41 38.14L67.31 36.93L67.21 35.73L67.11 34.54L67.00 33.38L66.91 32.24L66.81 31.12L66.72 30.03L66.63 28.97L66.54 27.94L66.46 26.95L66.38 25.99L66.32 25.08L66.25 24.21L66.20 23.38L66.16 22.60L66.12 21.87L66.09 21.19L66.08 20.56L66.07 20.00ZM25.78 63.34L25.94 63.44L26.11 63.56L26.28 63.70L26.47 63.86L26.67 64.03L26.87 64.22L27.09 64.42L27.31 64.64L27.54 64.86L27.78 65.10L28.03 65.35L28.29 65.61L28.55 65.87L28.82 66.15L29.09 66.43L29.37 66.72L29.66 67.01L29.95 67.31L30.25 67.61L30.56 67.92L30.87 68.23L31.18 68.54L31.50 68.86L31.83 69.17L32.16 69.48L32.49 69.79L32.83 70.10L33.17 70.41L33.52 70.72L33.88 71.02L34.24 71.31L34.60 71.60L34.97 71.89L35.34 72.16L35.72 72.43L36.11 72.69L36.51 72.95L36.93 73.19L37.36 73.44L37.80 73.68L38.25 73.91L38.72 74.14L39.19 74.36L39.67 74.57L40.16 74.78L40.65 74.99L41.15 75.18L41.65 75.38L42.15 75.56L42.65 75.74L43.16 75.90L43.66 76.07L44.16 76.22L44.65 76.37L45.14 76.50L45.62 76.63L46.10 76.75L46.56 76.86L47.02 76.95L47.47 76.98L47.92 76.97L48.36 76.93L48.79 76.87L49.20 76.78L49.60 76.69L49.97 76.59L50.31 76.50L50.63 76.43L50.91 76.39L51.16 76.37L51.38 76.40L52.62 71.60L52.39 71.51L52.14 71.37L51.87 71.19L51.59 70.98L51.30 70.75L50.99 70.50L50.66 70.24L50.32 69.99L49.96 69.75L49.58 69.52L49.18 69.33L48.76 69.17L48.32 69.05L47.87 68.96L47.40 68.86L46.93 68.77L46.46 68.68L45.97 68.60L45.49 68.51L45.00 68.43L44.51 68.36L44.02 68.28L43.53 68.21L43.04 68.13L42.56 68.07L42.08 68.00L41.61 67.93L41.15 67.87L40.70 67.80L40.26 67.74L39.83 67.68L39.41 67.63L39.01 67.57L38.63 67.51L38.26 67.46L37.91 67.41L37.55 67.35L37.19 67.28L36.82 67.20L36.44 67.10L36.05 67.00L35.66 66.89L35.27 66.78L34.87 66.65L34.47 66.52L34.07 66.39L33.68 66.24L33.28 66.10L32.88 65.94L32.49 65.79L32.10 65.63L31.72 65.47L31.34 65.31L30.97 65.14L30.60 64.98L30.24 64.81L29.89 64.64L29.55 64.48L29.22 64.32L28.90 64.16L28.59 64.00L28.29 63.84L28.00 63.69L27.73 63.54L27.47 63.40L27.22 63.26L26.99 63.13L26.77 63.00L26.57 62.88L26.38 62.77L26.22 62.66ZM101.78 62.66L101.62 62.77L101.43 62.88L101.23 63.00L101.01 63.13L100.78 63.26L100.53 63.40L100.27 63.54L100.00 63.69L99.71 63.84L99.41 64.00L99.10 64.16L98.78 64.32L98.45 64.48L98.11 64.64L97.76 64.81L97.40 64.98L97.03 65.14L96.66 65.31L96.28 65.47L95.90 65.63L95.51 65.79L95.12 65.94L94.72 66.10L94.32 66.24L93.93 66.39L93.53 66.52L93.13 66.65L92.73 66.78L92.34 66.89L91.95 67.00L91.56 67.10L91.18 67.20L90.81 67.28L90.45 67.35L90.09 67.41L89.74 67.46L89.37 67.51L88.99 67.57L88.59 67.63L88.17 67.68L87.74 67.74L87.30 67.80L86.85 67.87L86.39 67.93L85.92 68.00L85.44 68.07L84.96 68.13L84.47 68.21L83.98 68.28L83.49 68.36L83.00 68.43L82.51 68.51L82.03 68.60L81.54 68.68L81.07 68.77L80.60 68.86L80.13 68.96L79.68 69.05L79.24 69.17L78.82 69.33L78.42 69.52L78.04 69.75L77.68 69.99L77.34 70.24L77.01 70.50L76.70 70.75L76.41 70.98L76.13 71.19L75.86 71.37L75.61 71.51L75.38 71.60L76.62 76.40L76.84 76.37L77.09 76.39L77.37 76.43L77.69 76.50L78.03 76.59L78.40 76.69L78.80 76.78L79.21 76.87L79.64 76.93L80.08 76.97L80.53 76.98L80.98 76.95L81.44 76.86L81.90 76.75L82.38 76.63L82.86 76.50L83.35 76.37L83.84 76.22L84.34 76.07L84.84 75.90L85.35 75.74L85.85 75.56L86.35 75.38L86.85 75.18L87.35 74.99L87.84 74.78L88.33 74.57L88.81 74.36L89.28 74.14L89.75 73.91L90.20 73.68L90.64 73.44L91.07 73.19L91.49 72.95L91.89 72.69L92.28 72.43L92.66 72.16L93.03 71.89L93.40 71.60L93.76 71.31L94.12 71.02L94.48 70.72L94.83 70.41L95.17 70.10L95.51 69.79L95.84 69.48L96.17 69.17L96.50 68.86L96.82 68.54L97.13 68.23L97.44 67.92L97.75 67.61L98.05 67.31L98.34 67.01L98.63 66.72L98.91 66.43L99.18 66.15L99.45 65.87L99.71 65.61L99.97 65.35L100.22 65.10L100.46 64.86L100.69 64.64L100.91 64.42L101.13 64.22L101.33 64.03L101.53 63.86L101.72 63.70L101.89 63.56L102.06 63.44L102.22 63.34Z" fill="#000000" fill-rule="evenodd"/>
</svg>
