<svg xmlns="http://www.w3.org/2000/svg" viewBox="9.84 7.86 110.52 94.23">
<path d="M14.07 53.70L15.05 53.61L16.22 53.50L17.56 53.39L19.06 53.28L20.69 53.16L22.44 53.04L24.29 52.93L26.21 52.82L28.20 52.71L30.22 52.62L32.27 52.54L34.31 52.48L36.34 52.44L38.33 52.41L40.26 52.41L42.12 52.44L43.87 52.49L45.51 52.58L47.10 52.69L48.67 52.82L50.21 52.96L51.72 53.11L53.22 53.28L54.71 53.45L56.18 53.63L57.65 53.82L59.11 54.01L60.58 54.20L62.04 54.38L63.51 54.57L64.99 54.74L66.48 54.91L67.98 55.07L69.50 55.21L71.04 55.34L72.60 55.45L74.20 55.55L75.83 55.63L77.48 55.69L79.14 55.74L80.82 55.76L82.51 55.77L84.19 55.76L85.86 55.74L87.51 55.71L89.14 55.67L90.74 55.62L92.30 55.57L93.81 55.51L95.28 55.46L96.68 55.41L98.02 55.36L99.28 55.32L100.47 55.28L101.63 55.28L102.78 55.29L103.91 55.33L105.02 55.38L106.10 55.46L107.15 55.54L108.16 55.65L109.14 55.76L110.08 55.89L110.97 56.02L111.82 56.16L112.62 56.30L113.36 56.44L114.05 56.58L114.67 56.71L115.24 56.85L115.74 56.97L116.26 55.03L115.79 54.90L115.27 54.71L114.70 54.48L114.07 54.20L113.38 53.89L112.64 53.54L111.85 53.17L111.01 52.77L110.13 52.36L109.19 51.93L108.21 51.49L107.18 51.05L106.11 50.61L104.99 50.18L103.83 49.75L102.62 49.35L101.38 48.96L100.10 48.61L98.76 48.27L97.37 47.96L95.91 47.66L94.40 47.38L92.84 47.12L91.24 46.87L89.60 46.65L87.94 46.45L86.26 46.27L84.57 46.11L82.87 45.97L81.18 45.85L79.49 45.76L77.81 45.70L76.16 45.65L74.54 45.62L72.96 45.61L71.41 45.60L69.89 45.61L68.38 45.63L66.87 45.66L65.37 45.70L63.88 45.74L62.38 45.81L60.88 45.88L59.37 45.96L57.86 46.06L56.34 46.17L54.82 46.30L53.27 46.44L51.72 46.60L50.14 46.77L48.55 46.96L46.94 47.16L45.30 47.39L43.61 47.63L41.82 47.90L39.94 48.19L38.00 48.50L36.02 48.83L34.00 49.16L31.96 49.50L29.93 49.83L27.93 50.17L25.96 50.50L24.05 50.81L22.22 51.11L20.49 51.39L18.88 51.64L17.39 51.86L16.06 52.05L14.90 52.20L13.93 52.30ZM61.50 12.04L61.51 12.68L61.50 13.41L61.49 14.23L61.47 15.12L61.44 16.09L61.40 17.12L61.36 18.22L61.31 19.37L61.25 20.57L61.19 21.81L61.13 23.09L61.06 24.40L60.99 25.74L60.91 27.10L60.83 28.47L60.76 29.85L60.67 31.23L60.59 32.61L60.51 33.98L60.43 35.34L60.35 36.67L60.27 37.98L60.20 39.25L60.12 40.49L60.06 41.72L59.99 42.97L59.94 44.23L59.89 45.49L59.84 46.76L59.81 48.03L59.78 49.31L59.77 50.59L59.76 51.88L59.76 53.16L59.77 54.45L59.80 55.74L59.83 57.02L59.88 58.31L59.94 59.59L60.01 60.86L60.09 62.14L60.18 63.40L60.27 64.67L60.38 65.92L60.48 67.17L60.60 68.40L60.71 69.63L60.83 70.86L60.95 72.12L61.08 73.42L61.20 74.75L61.33 76.09L61.45 77.46L61.58 78.83L61.70 80.21L61.82 81.59L61.94 82.96L62.05 84.31L62.16 85.65L62.27 86.96L62.37 88.24L62.46 89.48L62.54 90.68L62.62 91.83L62.69 92.92L62.75 93.95L62.80 94.92L62.84 95.81L62.88 96.63L62.89 97.36L62.90 98.00L67.10 98.00L67.11 97.36L67.13 96.64L67.16 95.82L67.21 94.93L67.27 93.97L67.33 92.93L67.41 91.84L67.49 90.69L67.59 89.49L67.69 88.25L67.79 86.97L67.90 85.66L68.02 84.32L68.13 82.96L68.25 81.59L68.37 80.21L68.49 78.83L68.62 77.45L68.73 76.08L68.85 74.72L68.97 73.38L69.08 72.07L69.18 70.79L69.28 69.55L69.37 68.31L69.46 67.06L69.54 65.80L69.60 64.54L69.66 63.27L69.71 61.99L69.75 60.71L69.78 59.42L69.80 58.13L69.80 56.84L69.79 55.55L69.77 54.26L69.73 52.97L69.68 51.69L69.63 50.40L69.56 49.12L69.48 47.84L69.40 46.57L69.31 45.31L69.21 44.05L69.11 42.80L69.00 41.56L68.89 40.33L68.77 39.10L68.65 37.83L68.53 36.53L68.40 35.20L68.27 33.85L68.15 32.48L68.02 31.10L67.89 29.72L67.76 28.35L67.63 26.98L67.51 25.62L67.39 24.29L67.27 22.98L67.16 21.70L67.05 20.46L66.96 19.26L66.86 18.12L66.78 17.02L66.71 15.99L66.64 15.03L66.59 14.14L66.55 13.32L66.52 12.59L66.50 11.96Z" fill="#000000" fill-rule="evenodd"/>
</svg>
