<svg xmlns="http://www.w3.org/2000/svg" viewBox="125.90 134.90 816.20 644.20">
<g transform="translate(0,832) scale(0.1,-0.1)" fill="#000000" stroke="none">
<path d="M5195 6726 c-41 -18 -91 -69 -116 -119 -56 -109 -53 -49 -59 -1032
-7 -999 -6 -978 -67 -1037 -65 -63 -58 -62 -638 -69 -1255 -16 -2351 -113
-2602 -231 -67 -32 -109 -82 -166 -197 -180 -368 113 -524 598 -319 181 76
217 84 540 113 185 17 536 60 820 100 218 32 483 44 955 44 416 1 452 -6 507
-104 47 -85 46 -55 52 -1486 6 -1356 6 -1356 49 -1441 121 -245 262 -246 397
-4 74 134 70 78 67 1066 -3 960 9 1736 28 1812 32 133 130 184 285 148 49 -11
698 -92 970 -121 249 -26 351 -52 513 -128 70 -33 170 -72 222 -86 52 -15 158
-46 235 -70 359 -112 415 -110 704 18 523 231 838 642 642 838 -55 55 -99 64
-256 50 -71 -5 -202 -13 -290 -16 -88 -4 -263 -13 -390 -21 -183 -11 -302 -12
-580 -4 -192 5 -568 15 -835 21 -854 19 -1063 27 -1103 40 -47 16 -102 74
-117 126 -27 86 -21 833 12 1429 28 528 -40 695 -283 694 -35 -1 -78 -7 -94
-14z"/>
</g>
</svg>
