<svg xmlns="http://www.w3.org/2000/svg" viewBox="172.62 172.62 321.02 274.17">
<g transform="translate(181.71,437.71) scale(0.100000,-0.100000)" fill="#000000" stroke="none" fill-rule="evenodd">
<path d="M 450.0 2533.0 L 452.2 2534.0 Q 450.0 2533.0 449.4 2530.7 L 406.4 2362.2 Q 405.8 2359.9 406.3 2357.5 L 422.1 2278.3 Q 422.5 2276.0 424.3 2274.3 L 486.5 2217.5 Q 488.3 2215.9 490.5 2215.1 L 570.0 2188.0 Q 572.2 2187.2 574.6 2187.4 L 1014.7 2226.0 Q 1017.1 2226.2 1019.5 2226.3 L 2713.5 2253.9 Q 2715.9 2253.9 2717.9 2255.3 L 2785.9 2304.3 Q 2787.8 2305.7 2788.9 2307.8 L 2824.3 2383.9 Q 2825.3 2386.1 2825.5 2388.5 L 2838.9 2557.6 Q 2839.1 2560.0 2836.7 2560.0 L 514.9 2560.0 Q 512.5 2560.0 510.3 2559.0 Z M 690.0 1588.0 L 692.4 1588.0 Q 690.0 1588.0 687.9 1586.8 L 605.2 1538.5 Q 603.2 1537.3 601.7 1535.4 L 542.7 1459.4 Q 541.2 1457.6 540.5 1455.2 L 514.4 1363.2 Q 513.7 1360.9 514.6 1358.6 L 549.3 1271.0 Q 550.2 1268.7 552.0 1267.2 L 625.8 1205.8 Q 627.6 1204.2 630.0 1203.7 L 723.1 1181.3 Q 725.4 1180.8 727.8 1181.2 L 1121.1 1247.9 Q 1123.5 1248.3 1125.9 1248.3 L 2541.1 1272.1 Q 2543.5 1272.1 2545.9 1272.5 L 2640.7 1289.1 Q 2643.1 1289.5 2644.7 1291.2 L 2709.9 1359.7 Q 2711.6 1361.5 2712.1 1363.8 L 2733.2 1457.5 Q 2733.7 1459.8 2733.1 1462.2 L 2709.5 1553.8 Q 2708.9 1556.1 2706.6 1556.9 L 2619.6 1588.9 Q 2617.3 1589.7 2614.9 1589.7 Z M 1125.0 589.0 L 1127.4 589.0 Q 1125.0 589.0 1122.6 588.8 L 22.0 488.4 Q 19.6 488.2 18.4 486.1 L 1.2 455.9 Q 0.0 453.8 0.0 451.4 L 0.0 33.1 Q 0.0 30.7 1.4 28.8 L 20.8 1.9 Q 22.2 0.0 24.6 0.0 L 228.8 3.4 Q 231.2 3.5 232.3 5.6 L 276.8 95.4 Q 277.9 97.5 279.8 98.9 L 318.7 126.7 Q 320.6 128.1 323.0 128.6 L 730.5 219.2 Q 732.8 219.7 735.2 219.9 L 1521.0 275.6 Q 1523.4 275.7 1525.8 275.6 L 1995.3 240.6 Q 1997.7 240.4 2000.1 240.0 L 2462.4 150.2 Q 2464.8 149.8 2467.0 148.9 L 2560.6 112.3 Q 2562.8 111.4 2564.4 109.6 L 2656.8 1.8 Q 2658.4 0.0 2660.8 0.0 L 3026.1 0.0 Q 3028.5 0.0 3028.5 2.4 L 3027.8 555.9 Q 3027.8 558.3 3025.4 558.3 L 1973.3 595.2 Q 1970.9 595.3 1968.5 595.3 Z"/>
</g>
</svg>
