<svg xmlns="http://www.w3.org/2000/svg" viewBox="163.03 163.03 303.14 303.18">
<g transform="translate(152.84,467.93) scale(0.100000,-0.100000)" fill="#000000" stroke="none" fill-rule="evenodd">
<path d="M 2955.0 2960.0 L 2957.4 2960.1 Q 2955.0 2960.0 2953.2 2958.4 L 2899.5 2908.0 Q 2897.8 2906.3 2896.7 2904.2 L 2840.8 2789.0 Q 2839.7 2786.9 2838.4 2784.9 L 1744.3 1220.8 Q 1742.9 1218.8 1741.0 1217.3 L 1665.7 1153.9 Q 1663.8 1152.3 1661.5 1152.7 L 1588.6 1163.8 Q 1586.2 1164.1 1584.3 1165.7 L 1486.1 1246.4 Q 1484.2 1248.0 1482.7 1249.8 L 477.9 2517.2 Q 476.4 2519.0 474.8 2520.8 L 350.1 2652.3 Q 348.5 2654.1 347.3 2656.2 L 284.6 2767.7 Q 283.5 2769.8 281.3 2770.8 L 239.0 2788.5 Q 236.8 2789.4 235.0 2787.8 L 201.0 2756.6 Q 199.2 2755.0 198.9 2752.6 L 188.0 2678.9 Q 187.7 2676.5 188.4 2674.3 L 203.6 2628.8 Q 204.3 2626.5 205.5 2624.4 L 1462.6 293.6 Q 1463.7 291.5 1465.1 289.6 L 1540.0 186.0 Q 1541.4 184.1 1543.3 182.6 L 1644.1 104.5 Q 1646.0 103.0 1648.3 103.7 L 1691.6 116.3 Q 1693.9 117.0 1695.3 119.0 L 1751.9 202.8 Q 1753.3 204.8 1754.3 206.9 L 3004.2 2750.2 Q 3005.3 2752.3 3005.8 2754.7 L 3046.9 2929.0 Q 3047.5 2931.3 3045.6 2932.8 L 3009.0 2961.7 Q 3007.2 2963.2 3004.8 2963.1 Z"/>
</g>
</svg>
