<svg xmlns="http://www.w3.org/2000/svg" viewBox="359.07 359.07 420.43 667.75">
<g transform="translate(377.97,1023.48) scale(0.100000,-0.100000)" fill="#000000" stroke="none" fill-rule="evenodd">
<path d="M 3645.0 6454.0 L 3647.4 6454.0 Q 3645.0 6454.0 3642.6 6454.0 L 2.4 6437.0 Q 0.0 6437.0 0.0 6434.6 L 0.0 5965.6 Q 0.0 5963.2 1.7 5961.5 L 22.5 5941.6 Q 24.2 5939.9 26.6 5939.9 L 1679.4 5933.2 Q 1681.8 5933.2 1683.4 5931.4 L 1743.4 5866.4 Q 1745.0 5864.6 1745.0 5862.2 L 1730.5 2362.0 Q 1730.5 2359.6 1729.0 2357.7 L 165.5 345.3 Q 164.1 343.4 162.8 341.4 L 115.0 265.3 Q 113.7 263.3 115.0 261.3 L 159.6 192.2 Q 160.9 190.2 163.2 189.4 L 247.1 160.5 Q 249.4 159.7 251.8 159.6 L 389.0 155.6 Q 391.4 155.6 393.8 155.8 L 577.5 171.4 Q 579.9 171.6 581.9 172.9 L 616.4 197.1 Q 618.3 198.5 619.9 200.3 L 1065.9 746.4 Q 1067.4 748.3 1068.8 750.2 L 1925.3 1875.3 Q 1926.8 1877.2 1928.9 1878.4 L 2004.6 1920.7 Q 2006.7 1921.9 2008.8 1920.6 L 2083.5 1875.2 Q 2085.5 1873.9 2087.0 1872.0 L 2346.9 1540.4 Q 2348.4 1538.6 2349.8 1536.6 L 3284.3 234.6 Q 3285.7 232.7 3287.7 231.4 L 3362.9 183.1 Q 3365.0 181.8 3367.3 181.5 L 3502.8 161.7 Q 3505.2 161.3 3507.6 161.3 L 3739.4 157.6 Q 3741.8 157.5 3743.9 158.7 L 3818.6 201.0 Q 3820.7 202.1 3820.8 204.5 L 3824.1 289.0 Q 3824.2 291.4 3822.7 293.2 L 3703.0 433.3 Q 3701.5 435.1 3700.4 437.2 L 3638.7 559.6 Q 3637.6 561.8 3636.1 563.6 L 3372.6 891.6 Q 3371.1 893.4 3369.7 895.4 L 2406.8 2236.5 Q 2405.4 2238.4 2404.3 2240.6 L 2326.2 2407.4 Q 2325.1 2409.6 2325.0 2412.0 L 2314.5 2548.7 Q 2314.3 2551.1 2314.3 2553.5 L 2318.4 5861.2 Q 2318.4 5863.6 2320.4 5865.1 L 2391.9 5918.3 Q 2393.8 5919.7 2396.2 5920.1 L 2484.9 5933.7 Q 2487.2 5934.1 2489.6 5934.1 L 3762.5 5940.8 Q 3764.9 5940.8 3766.6 5942.5 L 3796.6 5972.7 Q 3798.3 5974.4 3799.0 5976.7 L 3825.6 6061.3 Q 3826.3 6063.6 3826.3 6066.0 L 3825.6 6344.5 Q 3825.6 6346.9 3824.1 6348.8 L 3739.4 6453.2 Q 3737.9 6455.1 3735.5 6455.1 Z"/>
</g>
</svg>
