<svg xmlns="http://www.w3.org/2000/svg" viewBox="220.99 221.00 410.97 343.26">
<g transform="translate(184.36,552.63) scale(0.100000,-0.100000)" fill="#000000" stroke="none" fill-rule="evenodd">
<path d="M 1685.0 3118.0 L 1685.2 3120.4 Q 1685.0 3118.0 1685.0 3115.6 L 1682.9 2283.3 Q 1682.9 2280.9 1682.0 2278.7 L 1637.1 2176.4 Q 1636.2 2174.2 1634.3 2172.7 L 1591.3 2138.9 Q 1589.4 2137.4 1587.1 2136.7 L 1477.7 2104.0 Q 1475.4 2103.3 1473.0 2103.1 L 587.6 1999.8 Q 585.3 1999.5 583.5 1997.9 L 542.9 1962.1 Q 541.1 1960.5 540.3 1958.2 L 485.8 1793.4 Q 485.0 1791.1 485.0 1788.7 L 482.7 1674.3 Q 482.6 1671.9 483.5 1669.6 L 522.3 1563.0 Q 523.1 1560.7 525.0 1559.2 L 567.3 1525.1 Q 569.2 1523.6 571.5 1523.2 L 624.9 1515.4 Q 627.3 1515.0 629.6 1515.7 L 1025.5 1635.0 Q 1027.8 1635.7 1030.1 1636.1 L 1497.6 1709.6 Q 1500.0 1709.9 1502.3 1709.4 L 1611.8 1682.1 Q 1614.1 1681.6 1615.8 1679.9 L 1654.4 1641.1 Q 1656.1 1639.4 1656.7 1637.1 L 1698.7 1470.6 Q 1699.3 1468.3 1699.1 1465.9 L 1606.1 338.5 Q 1605.9 336.1 1606.0 333.8 L 1620.2 40.2 Q 1620.3 37.8 1621.6 35.9 L 1644.4 2.0 Q 1645.8 0.0 1648.2 0.0 L 3487.3 11.6 Q 3489.7 11.6 3490.2 14.0 L 3516.0 125.5 Q 3516.6 127.8 3517.7 129.9 L 3596.3 284.7 Q 3597.4 286.9 3597.4 289.3 L 3598.8 344.0 Q 3598.9 346.4 3597.8 348.5 L 3547.2 449.2 Q 3546.1 451.4 3544.1 452.7 L 3499.0 483.6 Q 3497.0 484.9 3494.6 485.2 L 3381.6 498.6 Q 3379.2 498.9 3376.9 498.6 L 3085.9 460.5 Q 3083.5 460.2 3081.1 460.2 L 2188.9 462.1 Q 2186.5 462.2 2184.3 463.2 L 2082.7 510.3 Q 2080.6 511.3 2079.2 513.2 L 2047.9 558.2 Q 2046.5 560.2 2046.3 562.6 L 2035.3 676.0 Q 2035.1 678.4 2035.3 680.8 L 2097.0 1629.8 Q 2097.1 1632.2 2098.4 1634.2 L 2160.8 1727.9 Q 2162.1 1729.9 2164.5 1730.2 L 2275.1 1745.2 Q 2277.5 1745.5 2279.9 1745.2 L 3104.7 1638.2 Q 3107.1 1637.9 3109.4 1637.3 L 3741.6 1476.3 Q 3743.9 1475.7 3746.3 1475.7 L 3978.6 1475.4 Q 3981.0 1475.4 3983.1 1476.6 L 4184.5 1592.5 Q 4186.5 1593.7 4188.0 1595.6 L 4293.2 1733.1 Q 4294.6 1735.0 4295.3 1737.3 L 4359.1 1961.9 Q 4359.7 1964.2 4359.5 1966.6 L 4350.0 2080.2 Q 4349.8 2082.6 4348.7 2084.8 L 4324.6 2133.9 Q 4323.5 2136.1 4321.5 2137.3 L 4227.2 2196.8 Q 4225.2 2198.1 4222.9 2197.4 L 3942.7 2114.5 Q 3940.4 2113.8 3938.0 2113.6 L 3764.0 2100.2 Q 3761.6 2100.0 3759.2 2100.1 L 2210.7 2150.6 Q 2208.3 2150.7 2206.0 2151.5 L 2155.2 2171.1 Q 2152.9 2171.9 2151.9 2174.1 L 2104.7 2275.3 Q 2103.7 2277.5 2103.6 2279.9 L 2076.8 3171.5 Q 2076.7 3173.9 2074.6 3175.0 L 2031.4 3197.4 Q 2029.2 3198.5 2026.8 3198.5 L 1732.6 3200.0 Q 1730.2 3200.0 1728.1 3198.8 L 1692.9 3178.7 Q 1690.8 3177.5 1690.6 3175.1 Z"/>
</g>
</svg>
