<svg xmlns="http://www.w3.org/2000/svg" viewBox="168.27 185.27 732.46 567.46">
<g transform="translate(0,864) scale(0.1,-0.1)" fill="#000000" stroke="none">
<path d="M5195 6563 c-67 -35 -144 -162 -189 -313 -38 -124 -31 -415 19 -875
72 -661 67 -525 63 -1740 -6 -1998 -6 -1980 19 -2053 36 -107 90 -163 225
-235 135 -73 273 18 334 218 40 133 48 668 15 1055 -47 574 -59 978 -71 2489
-12 1354 -11 1341 -64 1398 -57 63 -273 98 -351 56z"/>
<path d="M6980 4598 c-106 -54 -110 -187 -9 -308 20 -25 56 -76 79 -115 23
-38 58 -89 76 -112 19 -23 53 -75 76 -115 60 -108 161 -229 306 -370 135 -130
149 -150 201 -283 58 -152 158 -297 225 -329 141 -67 617 149 748 340 183 265
158 407 -80 444 -37 6 -108 24 -158 40 -50 16 -133 36 -185 45 -122 21 -146
29 -216 73 -32 21 -87 54 -123 74 -47 26 -101 73 -191 165 -95 97 -142 139
-195 167 -38 21 -91 57 -119 80 -27 24 -77 60 -110 81 -33 21 -80 55 -105 76
-85 71 -146 84 -220 47z"/>
<path d="M3567 4545 c-15 -7 -66 -55 -114 -105 -48 -51 -107 -106 -132 -123
-26 -17 -68 -52 -96 -78 -27 -25 -77 -63 -109 -84 -33 -21 -86 -59 -119 -86
-46 -37 -84 -56 -156 -80 -53 -18 -141 -56 -196 -84 -157 -82 -277 -93 -469
-44 -159 41 -259 -5 -282 -129 -10 -51 49 -321 85 -392 204 -403 435 -543 596
-361 10 12 55 44 100 71 92 56 299 258 358 350 40 63 77 99 238 233 193 161
226 204 270 347 12 41 38 111 56 155 96 224 79 467 -30 410z"/>
</g>
</svg>
