<svg xmlns="http://www.w3.org/2000/svg" viewBox="18.38 2.04 82.30 93.57">
<path d="M55.69 6.50L55.73 6.62L55.78 6.76L55.82 6.91L55.86 7.08L55.90 7.25L55.94 7.44L55.97 7.64L56.01 7.85L56.05 8.07L56.08 8.30L56.12 8.53L56.15 8.78L56.18 9.03L56.22 9.28L56.25 9.55L56.28 9.82L56.31 10.09L56.34 10.36L56.37 10.64L56.40 10.92L56.43 11.20L56.46 11.49L56.49 11.77L56.51 12.05L56.54 12.33L56.57 12.61L56.60 12.89L56.62 13.16L56.65 13.43L56.67 13.69L56.70 13.94L56.72 14.19L56.75 14.43L56.77 14.67L56.80 14.89L56.82 15.10L56.85 15.32L56.88 15.55L56.92 15.78L56.97 16.01L57.02 16.25L57.08 16.49L57.14 16.73L57.22 16.97L57.30 17.22L57.39 17.46L57.50 17.70L57.61 17.95L57.72 18.19L57.84 18.43L57.97 18.66L58.10 18.90L58.23 19.13L58.37 19.36L58.50 19.59L58.64 19.81L58.78 20.03L58.91 20.24L59.04 20.45L59.17 20.66L59.30 20.86L59.42 21.05L59.53 21.24L59.64 21.41L59.74 21.59L59.83 21.75L59.91 21.91L59.98 22.06L60.05 22.20L60.09 22.34L60.13 22.46L63.87 21.54L63.85 21.42L63.83 21.30L63.83 21.15L63.83 21.00L63.83 20.83L63.84 20.64L63.86 20.45L63.88 20.24L63.90 20.02L63.92 19.80L63.95 19.56L63.98 19.32L64.00 19.07L64.03 18.82L64.05 18.56L64.08 18.29L64.10 18.02L64.11 17.74L64.12 17.46L64.13 17.18L64.13 16.90L64.12 16.62L64.11 16.33L64.09 16.05L64.06 15.77L64.02 15.48L63.97 15.21L63.91 14.93L63.83 14.66L63.75 14.39L63.66 14.13L63.57 13.87L63.47 13.62L63.36 13.37L63.25 13.12L63.13 12.88L63.01 12.64L62.88 12.40L62.74 12.16L62.59 11.91L62.45 11.67L62.29 11.42L62.14 11.18L61.97 10.93L61.81 10.69L61.64 10.44L61.48 10.20L61.31 9.95L61.14 9.71L60.97 9.47L60.80 9.23L60.63 9.00L60.46 8.76L60.29 8.53L60.13 8.31L59.97 8.09L59.81 7.87L59.66 7.66L59.51 7.45L59.37 7.24L59.23 7.05L59.10 6.86L58.98 6.67L58.86 6.50L58.75 6.33L58.65 6.17L58.56 6.02L58.48 5.87L58.41 5.74L58.36 5.62L58.31 5.50ZM22.15 33.84L22.68 33.75L23.29 33.66L23.97 33.56L24.72 33.46L25.52 33.36L26.38 33.26L27.30 33.16L28.26 33.06L29.26 32.96L30.29 32.86L31.36 32.77L32.45 32.69L33.57 32.60L34.69 32.53L35.83 32.46L36.98 32.41L38.12 32.36L39.25 32.32L40.38 32.30L41.48 32.28L42.56 32.28L43.61 32.30L44.63 32.33L45.62 32.37L46.63 32.41L47.64 32.45L48.66 32.49L49.67 32.52L50.68 32.55L51.70 32.58L52.71 32.60L53.73 32.62L54.75 32.63L55.76 32.63L56.78 32.63L57.80 32.62L58.82 32.60L59.85 32.58L60.88 32.55L61.91 32.53L62.94 32.50L63.98 32.47L65.03 32.44L66.08 32.41L67.13 32.39L68.19 32.38L69.25 32.37L70.32 32.37L71.43 32.40L72.61 32.45L73.83 32.52L75.10 32.61L76.39 32.73L77.71 32.86L79.05 33.01L80.40 33.17L81.75 33.34L83.09 33.52L84.42 33.71L85.72 33.91L87.01 34.11L88.25 34.31L89.46 34.51L90.62 34.71L91.72 34.91L92.76 35.10L93.73 35.28L94.62 35.46L95.44 35.62L96.16 35.78L96.79 35.91L97.21 34.09L96.60 33.94L95.90 33.75L95.11 33.52L94.25 33.25L93.31 32.94L92.31 32.61L91.25 32.25L90.14 31.87L88.98 31.47L87.77 31.05L86.54 30.62L85.28 30.18L83.99 29.74L82.69 29.30L81.38 28.86L80.06 28.42L78.75 27.99L77.44 27.58L76.14 27.18L74.86 26.80L73.60 26.44L72.37 26.11L71.17 25.81L70.02 25.55L68.89 25.31L67.76 25.09L66.64 24.89L65.52 24.72L64.40 24.56L63.28 24.43L62.17 24.32L61.06 24.24L59.95 24.17L58.85 24.14L57.75 24.12L56.66 24.13L55.58 24.17L54.49 24.23L53.42 24.31L52.35 24.41L51.29 24.53L50.23 24.67L49.19 24.82L48.14 24.99L47.11 25.17L46.08 25.37L45.05 25.57L44.01 25.79L42.92 26.04L41.82 26.31L40.71 26.59L39.58 26.90L38.45 27.21L37.32 27.54L36.20 27.88L35.07 28.22L33.96 28.56L32.86 28.90L31.78 29.24L30.73 29.58L29.70 29.91L28.70 30.23L27.74 30.53L26.81 30.82L25.93 31.09L25.10 31.34L24.33 31.56L23.61 31.76L22.95 31.93L22.37 32.06L21.85 32.16ZM70.64 34.84L70.37 35.15L70.04 35.50L69.68 35.87L69.28 36.28L68.84 36.71L68.37 37.16L67.86 37.64L67.33 38.14L66.77 38.66L66.19 39.19L65.58 39.75L64.95 40.32L64.31 40.90L63.66 41.49L62.99 42.10L62.32 42.71L61.63 43.32L60.95 43.94L60.26 44.57L59.58 45.20L58.89 45.82L58.22 46.44L57.55 47.06L56.89 47.68L56.24 48.30L55.58 48.93L54.93 49.58L54.28 50.23L53.64 50.90L52.99 51.58L52.35 52.28L51.72 52.99L51.08 53.72L50.46 54.46L49.83 55.23L49.20 56.01L48.58 56.81L47.95 57.63L47.33 58.46L46.70 59.31L46.06 60.18L45.42 61.07L44.77 61.97L44.12 62.89L43.46 63.83L42.79 64.78L42.11 65.75L41.40 66.75L40.65 67.81L39.84 68.92L39.00 70.08L38.11 71.28L37.20 72.51L36.25 73.76L35.29 75.04L34.31 76.33L33.33 77.61L32.34 78.90L31.35 80.17L30.38 81.42L29.41 82.65L28.47 83.84L27.55 85.00L26.67 86.10L25.82 87.15L25.02 88.13L24.26 89.05L23.56 89.89L22.92 90.64L22.35 91.30L21.84 91.86L22.16 92.14L22.67 91.59L23.28 90.97L23.97 90.27L24.75 89.50L25.60 88.67L26.51 87.78L27.49 86.85L28.51 85.88L29.59 84.87L30.70 83.83L31.84 82.77L33.01 81.69L34.19 80.60L35.39 79.50L36.59 78.41L37.78 77.32L38.97 76.25L40.14 75.20L41.29 74.18L42.40 73.18L43.48 72.23L44.52 71.32L45.50 70.46L46.43 69.66L47.33 68.88L48.21 68.11L49.08 67.35L49.93 66.60L50.76 65.85L51.57 65.12L52.37 64.38L53.15 63.66L53.91 62.93L54.65 62.21L55.38 61.49L56.08 60.77L56.77 60.06L57.44 59.34L58.09 58.61L58.72 57.89L59.33 57.16L59.93 56.44L60.51 55.71L61.08 54.97L61.64 54.24L62.18 53.51L62.71 52.77L63.24 52.03L63.77 51.28L64.30 50.51L64.83 49.74L65.35 48.96L65.88 48.19L66.39 47.41L66.90 46.64L67.41 45.87L67.90 45.12L68.39 44.38L68.86 43.65L69.33 42.94L69.78 42.25L70.21 41.59L70.64 40.95L71.05 40.34L71.44 39.77L71.81 39.23L72.16 38.73L72.49 38.27L72.80 37.85L73.09 37.48L73.36 37.16ZM49.13 51.01L49.44 51.28L49.79 51.60L50.18 51.97L50.60 52.38L51.06 52.83L51.54 53.31L52.05 53.82L52.59 54.37L53.14 54.94L53.72 55.53L54.31 56.14L54.92 56.77L55.54 57.41L56.16 58.06L56.80 58.71L57.44 59.38L58.08 60.04L58.72 60.70L59.36 61.35L60.00 62.00L60.63 62.64L61.25 63.26L61.86 63.87L62.47 64.46L63.07 65.04L63.69 65.61L64.30 66.18L64.93 66.74L65.55 67.29L66.18 67.84L66.82 68.39L67.45 68.93L68.09 69.46L68.73 69.99L69.37 70.51L70.01 71.03L70.65 71.55L71.29 72.07L71.93 72.58L72.57 73.08L73.21 73.59L73.84 74.09L74.47 74.59L75.10 75.10L75.73 75.59L76.35 76.09L76.98 76.59L77.61 77.10L78.28 77.64L78.98 78.19L79.70 78.77L80.47 79.34L81.28 79.88L82.14 80.38L83.04 80.86L83.97 81.32L84.92 81.75L85.88 82.15L86.84 82.54L87.81 82.90L88.76 83.25L89.69 83.59L90.60 83.91L91.47 84.22L92.29 84.51L93.06 84.80L93.77 85.09L94.42 85.36L94.98 85.64L95.46 85.91L95.85 86.18L96.15 85.82L95.81 85.49L95.45 85.07L95.07 84.57L94.68 83.99L94.28 83.34L93.86 82.64L93.42 81.88L92.96 81.08L92.47 80.24L91.97 79.39L91.45 78.51L90.90 77.63L90.33 76.74L89.73 75.87L89.11 75.01L88.46 74.18L87.78 73.39L87.08 72.64L86.34 71.94L85.58 71.30L84.81 70.71L84.05 70.13L83.30 69.59L82.57 69.07L81.84 68.57L81.10 68.09L80.36 67.62L79.61 67.16L78.87 66.72L78.12 66.29L77.38 65.87L76.64 65.46L75.90 65.06L75.16 64.67L74.42 64.29L73.69 63.91L72.96 63.54L72.24 63.17L71.52 62.81L70.80 62.44L70.09 62.08L69.39 61.72L68.69 61.36L68.00 60.99L67.31 60.62L66.63 60.25L65.96 59.87L65.28 59.47L64.59 59.05L63.88 58.61L63.16 58.15L62.42 57.67L61.68 57.17L60.94 56.66L60.20 56.15L59.46 55.62L58.73 55.10L58.01 54.57L57.30 54.05L56.61 53.53L55.93 53.03L55.28 52.53L54.65 52.04L54.05 51.58L53.48 51.13L52.95 50.70L52.45 50.30L51.99 49.93L51.57 49.58L51.19 49.27L50.87 48.99Z" fill="#000000" fill-rule="evenodd"/>
</svg>
