<svg xmlns="http://www.w3.org/2000/svg" viewBox="200.53 200.53 372.90 294.70">
<g transform="translate(211.08,498.62) scale(0.100000,-0.100000)" fill="#000000" stroke="none" fill-rule="evenodd">
<path d="M 2303.0 2869.0 L 2305.4 2869.1 Q 2303.0 2869.0 2300.7 2868.5 L 1738.4 2747.9 Q 1736.0 2747.4 1733.6 2747.2 L 1256.8 2707.1 Q 1254.4 2706.9 1252.1 2706.5 L 876.6 2647.8 Q 874.3 2647.5 872.8 2645.6 L 847.0 2611.6 Q 845.6 2609.7 845.6 2607.3 L 846.0 2564.4 Q 846.0 2562.0 847.5 2560.1 L 903.2 2489.9 Q 904.7 2488.0 907.1 2487.8 L 1044.7 2472.9 Q 1047.1 2472.6 1049.4 2473.0 L 1378.2 2519.6 Q 1380.6 2519.9 1382.9 2519.4 L 1471.8 2498.1 Q 1474.1 2497.5 1475.6 2495.6 L 1528.4 2427.0 Q 1529.9 2425.1 1529.7 2422.7 L 1518.2 2234.9 Q 1518.0 2232.5 1517.6 2230.1 L 1427.7 1760.2 Q 1427.3 1757.9 1426.7 1755.6 L 1404.7 1666.5 Q 1404.1 1664.2 1402.5 1662.4 L 1374.7 1629.6 Q 1373.1 1627.7 1370.9 1626.9 L 1286.0 1593.6 Q 1283.8 1592.7 1281.4 1592.4 L 761.7 1521.5 Q 759.3 1521.2 759.2 1518.8 L 758.1 1478.5 Q 758.0 1476.1 759.7 1474.4 L 789.9 1443.5 Q 791.6 1441.8 793.7 1440.8 L 876.7 1402.6 Q 878.9 1401.6 881.3 1401.4 L 971.8 1395.1 Q 974.2 1394.9 976.5 1395.5 L 1159.1 1437.5 Q 1161.5 1438.0 1163.6 1437.0 L 1285.8 1378.0 Q 1288.0 1377.0 1288.2 1374.6 L 1295.6 1285.0 Q 1295.8 1282.6 1295.3 1280.2 L 1266.4 1143.0 Q 1265.9 1140.7 1265.3 1138.4 L 1086.7 491.0 Q 1086.1 488.7 1084.9 486.6 L 1039.8 407.1 Q 1038.7 405.0 1036.6 403.8 L 959.0 358.7 Q 957.0 357.5 954.6 357.3 L 2.4 308.3 Q 0.0 308.2 0.1 305.8 L 6.7 172.4 Q 6.8 170.0 9.2 169.8 L 340.7 139.8 Q 343.0 139.5 345.4 139.8 L 1542.4 262.7 Q 1544.8 263.0 1547.2 263.0 L 2267.2 282.5 Q 2269.6 282.6 2272.0 282.5 L 3282.0 257.8 Q 3284.4 257.7 3286.8 258.0 L 3426.0 272.7 Q 3428.4 272.9 3430.6 273.9 L 3512.6 308.0 Q 3514.8 309.0 3514.9 311.4 L 3517.8 354.6 Q 3517.9 357.0 3516.1 358.5 L 3447.0 415.9 Q 3445.1 417.4 3442.9 418.4 L 3136.5 547.5 Q 3134.3 548.5 3131.9 548.6 L 2992.7 556.4 Q 2990.3 556.5 2987.9 556.3 L 2463.1 511.4 Q 2460.7 511.2 2458.4 511.6 L 2368.1 526.1 Q 2365.7 526.5 2363.8 528.0 L 2329.7 553.8 Q 2327.8 555.2 2327.8 557.6 L 2326.3 646.5 Q 2326.2 648.9 2326.8 651.2 L 2455.1 1161.3 Q 2455.7 1163.6 2456.8 1165.8 L 2563.7 1376.9 Q 2564.8 1379.0 2566.5 1380.8 L 2692.2 1518.1 Q 2693.8 1519.9 2693.2 1522.2 L 2671.1 1607.6 Q 2670.5 1609.9 2668.8 1611.5 L 2566.3 1706.5 Q 2564.6 1708.1 2562.3 1709.0 L 2386.8 1774.8 Q 2384.6 1775.6 2382.2 1775.9 L 2195.2 1793.9 Q 2192.8 1794.2 2190.4 1793.7 L 2006.1 1757.0 Q 2003.8 1756.6 2001.6 1755.6 L 1785.5 1659.2 Q 1783.3 1658.2 1780.9 1657.9 L 1738.1 1652.3 Q 1735.7 1652.0 1733.7 1653.3 L 1697.7 1675.7 Q 1695.7 1677.0 1695.5 1679.3 L 1687.6 1767.6 Q 1687.3 1770.0 1687.9 1772.3 L 1765.3 2096.3 Q 1765.8 2098.6 1766.8 2100.8 L 1856.5 2316.9 Q 1857.4 2319.1 1856.5 2321.4 L 1803.9 2450.3 Q 1803.0 2452.6 1803.3 2455.0 L 1807.3 2497.7 Q 1807.6 2500.1 1809.1 2501.9 L 1837.1 2534.3 Q 1838.7 2536.1 1841.1 2536.5 L 2072.4 2578.0 Q 2074.7 2578.5 2077.1 2578.6 L 2747.8 2617.4 Q 2750.2 2617.6 2752.5 2618.3 L 2793.3 2632.1 Q 2795.6 2632.8 2796.8 2634.9 L 2816.8 2672.5 Q 2817.9 2674.6 2817.5 2677.0 L 2802.1 2764.6 Q 2801.7 2767.0 2799.7 2768.4 L 2689.3 2850.5 Q 2687.4 2851.9 2685.0 2852.2 L 2498.5 2875.1 Q 2496.1 2875.4 2493.7 2875.4 Z M 2150.0 1524.0 L 2147.6 1524.1 Q 2150.0 1524.0 2151.7 1522.3 L 2209.8 1461.8 Q 2211.5 1460.1 2211.6 1457.7 L 2220.4 1327.4 Q 2220.6 1325.0 2220.0 1322.6 L 2105.0 886.2 Q 2104.4 883.9 2104.0 881.5 L 2065.6 615.6 Q 2065.3 613.2 2064.2 611.1 L 2026.0 534.6 Q 2025.0 532.5 2022.9 531.2 L 1950.2 486.4 Q 1948.2 485.1 1945.8 484.7 L 1861.0 468.3 Q 1858.6 467.9 1856.2 467.6 L 1498.6 423.4 Q 1496.2 423.1 1493.8 423.4 L 1409.4 433.7 Q 1407.1 434.0 1405.9 436.1 L 1363.9 509.0 Q 1362.7 511.1 1362.8 513.5 L 1365.6 599.4 Q 1365.7 601.8 1366.4 604.1 L 1522.6 1170.2 Q 1523.2 1172.5 1524.1 1174.7 L 1622.5 1424.0 Q 1623.3 1426.2 1625.4 1427.4 L 1700.3 1467.7 Q 1702.4 1468.9 1704.8 1469.4 L 1967.5 1527.5 Q 1969.8 1528.0 1972.2 1528.0 Z"/>
</g>
</svg>
