<svg xmlns="http://www.w3.org/2000/svg" viewBox="0 0 531.056310 1079.770473">
<g transform="translate(35.735293,1075.326233) scale(0.100000,-0.100000)" fill="#000000" stroke="none" fill-rule="evenodd">
<path d="M -1 540 C 24 520 36 484 111 452 C 186 420 310 370 450 347 C 591 323 783 318 953 312 C 1123 306 1298 310 1470 310 C 1643 310 1816 310 1988 310 C 2161 310 2333 310 2506 310 C 2679 310 2851 310 3024 311 C 3196 311 3370 311 3542 312 C 3713 313 3905 314 4053 317 C 4201 321 4342 328 4431 333 C 4519 339 4551 347 4585 351 C 4586 354 4588 348 4590 366 C 4592 383 4597 425 4599 455 C 4601 485 4600 517 4600 548 C 4600 579 4600 610 4600 641 C 4600 672 4600 701 4600 734 C 4600 766 4599 818 4599 837 C 4598 857 4598 850 4598 853 C 4594 859 4602 861 4578 881 C 4552 902 4493 934 4448 976 C 4404 1019 4356 1082 4311 1136 C 4266 1190 4222 1249 4179 1302 C 4135 1355 4094 1401 4050 1454 C 4006 1507 3960 1563 3916 1619 C 3871 1674 3828 1730 3784 1785 C 3740 1841 3695 1898 3652 1952 C 3610 2005 3572 2055 3530 2108 C 3487 2162 3441 2219 3397 2274 C 3352 2329 3306 2385 3262 2438 C 3219 2491 3180 2540 3137 2593 C 3094 2646 3048 2702 3003 2758 C 2959 2813 2914 2868 2871 2924 C 2828 2980 2782 3037 2744 3094 C 2707 3151 2669 3203 2649 3266 C 2629 3329 2630 3404 2626 3474 C 2621 3544 2624 3618 2623 3686 C 2623 3755 2622 3817 2622 3885 C 2622 3954 2622 4027 2622 4098 C 2621 4168 2621 4239 2621 4310 C 2621 4381 2621 4454 2621 4522 C 2621 4591 2621 4653 2620 4722 C 2620 4790 2620 4863 2620 4934 C 2620 5005 2620 5078 2620 5146 C 2620 5215 2620 5277 2620 5346 C 2620 5414 2620 5487 2620 5558 C 2620 5629 2620 5700 2620 5770 C 2620 5841 2620 5914 2620 5983 C 2620 6052 2620 6114 2620 6182 C 2620 6251 2620 6324 2620 6394 C 2620 6465 2620 6538 2620 6607 C 2620 6676 2620 6738 2620 6806 C 2620 6875 2620 6948 2620 7018 C 2620 7089 2620 7160 2620 7231 C 2620 7302 2620 7375 2620 7443 C 2620 7512 2620 7574 2620 7642 C 2620 7711 2620 7784 2620 7855 C 2620 7926 2620 7999 2620 8067 C 2619 8136 2619 8198 2619 8267 C 2619 8335 2619 8408 2619 8479 C 2619 8550 2619 8621 2619 8691 C 2619 8762 2619 8835 2618 8904 C 2618 8972 2618 9034 2618 9103 C 2618 9172 2618 9245 2618 9315 C 2618 9386 2618 9459 2617 9528 C 2617 9596 2617 9658 2617 9727 C 2617 9796 2616 9869 2616 9939 C 2616 10010 2618 10086 2615 10152 C 2612 10218 2605 10297 2600 10334 C 2596 10370 2591 10364 2588 10372 C 2584 10374 2586 10377 2567 10382 C 2548 10386 2507 10395 2474 10398 C 2441 10401 2403 10400 2368 10400 C 2332 10400 2297 10400 2261 10400 C 2226 10400 2189 10400 2155 10399 C 2122 10398 2080 10396 2060 10395 C 2040 10394 2041 10392 2036 10392 C 2035 10383 2031 10390 2029 10354 C 2027 10317 2025 10237 2024 10172 C 2023 10106 2024 10030 2023 9959 C 2023 9888 2023 9818 2023 9747 C 2022 9676 2022 9605 2022 9534 C 2022 9464 2022 9395 2022 9322 C 2022 9249 2022 9169 2022 9096 C 2021 9023 2021 8955 2021 8884 C 2021 8813 2021 8742 2021 8671 C 2021 8600 2021 8530 2021 8459 C 2021 8388 2021 8320 2020 8246 C 2020 8174 2020 8094 2020 8021 C 2020 7948 2020 7879 2020 7808 C 2020 7738 2020 7667 2020 7596 C 2020 7525 2020 7454 2020 7384 C 2020 7313 2020 7242 2020 7171 C 2020 7100 2020 7032 2020 6959 C 2020 6886 2020 6806 2020 6733 C 2020 6660 2020 6591 2020 6520 C 2020 6450 2020 6379 2020 6308 C 2020 6237 2020 6166 2020 6096 C 2020 6025 2020 5956 2020 5883 C 2020 5810 2020 5731 2020 5658 C 2020 5584 2020 5516 2020 5445 C 2020 5374 2020 5304 2020 5233 C 2020 5162 2020 5091 2020 5020 C 2020 4949 2020 4879 2020 4808 C 2020 4737 2020 4668 2020 4595 C 2020 4522 2019 4443 2019 4370 C 2019 4297 2018 4228 2018 4157 C 2018 4086 2017 4016 2016 3945 C 2016 3874 2015 3803 2013 3732 C 2012 3662 2013 3592 2006 3520 C 2000 3448 2000 3365 1976 3300 C 1951 3235 1899 3186 1858 3130 C 1816 3074 1770 3019 1727 2963 C 1684 2907 1643 2849 1600 2793 C 1558 2736 1516 2679 1472 2624 C 1429 2568 1385 2515 1340 2458 C 1294 2400 1244 2339 1200 2281 C 1155 2223 1115 2168 1072 2112 C 1029 2055 985 2000 942 1943 C 899 1887 858 1830 815 1773 C 773 1717 733 1661 687 1604 C 642 1547 589 1487 543 1431 C 497 1374 453 1321 410 1265 C 368 1208 328 1150 286 1092 C 245 1035 205 975 162 921 C 119 866 57 823 29 766 C 2 709 3 618 -2 581 C -7 543 -1 548 -1 540 Z M 3766 912 C 3749 906 3719 892 3692 886 C 3665 879 3643 877 3606 873 C 3568 869 3516 865 3467 862 C 3418 860 3363 859 3312 858 C 3262 858 3216 858 3166 857 C 3115 857 3061 857 3009 856 C 2957 856 2903 856 2852 856 C 2802 856 2756 856 2706 856 C 2655 856 2601 856 2549 856 C 2497 856 2443 856 2392 857 C 2342 857 2296 857 2245 857 C 2195 858 2141 858 2089 858 C 2036 858 1983 859 1932 859 C 1881 860 1836 860 1785 860 C 1734 861 1681 861 1628 862 C 1576 862 1522 863 1472 864 C 1421 864 1375 865 1325 866 C 1275 867 1220 868 1170 870 C 1121 872 1068 876 1029 879 C 990 882 963 884 935 890 C 907 895 877 907 861 911 C 862 926 860 954 864 978 C 869 1001 875 1021 887 1050 C 899 1079 917 1116 937 1151 C 956 1185 981 1220 1005 1255 C 1029 1289 1056 1322 1082 1356 C 1108 1389 1135 1422 1161 1455 C 1188 1488 1215 1521 1241 1554 C 1268 1587 1294 1620 1320 1654 C 1346 1687 1372 1721 1397 1755 C 1423 1789 1448 1823 1473 1857 C 1498 1891 1524 1925 1550 1959 C 1575 1992 1601 2026 1627 2060 C 1653 2093 1679 2126 1705 2160 C 1731 2194 1756 2228 1782 2261 C 1808 2295 1833 2328 1860 2362 C 1886 2395 1912 2428 1939 2461 C 1965 2494 1992 2528 2019 2560 C 2046 2592 2073 2626 2100 2655 C 2127 2685 2157 2714 2182 2736 C 2207 2759 2228 2775 2249 2789 C 2270 2802 2296 2812 2309 2818 C 2322 2810 2346 2796 2365 2780 C 2384 2765 2399 2750 2421 2726 C 2444 2703 2472 2672 2498 2642 C 2524 2611 2551 2577 2578 2545 C 2605 2512 2632 2479 2659 2446 C 2686 2414 2712 2381 2739 2348 C 2766 2315 2793 2282 2820 2249 C 2846 2216 2873 2183 2899 2150 C 2926 2117 2952 2084 2978 2050 C 3004 2017 3030 1984 3057 1950 C 3083 1917 3109 1883 3135 1850 C 3162 1817 3188 1783 3214 1750 C 3240 1717 3266 1683 3293 1650 C 3319 1617 3346 1584 3373 1552 C 3400 1519 3427 1486 3454 1453 C 3481 1420 3508 1388 3535 1356 C 3562 1323 3590 1290 3616 1257 C 3641 1224 3668 1190 3688 1156 C 3709 1123 3728 1086 3741 1057 C 3754 1027 3761 1002 3765 978 C 3769 954 3766 927 3766 912 Z"/>
</g>
</svg>
