<svg xmlns="http://www.w3.org/2000/svg" viewBox="0 0 193.731537 168.022952">
<g transform="translate(-22.249157,180.576565) scale(0.100000,-0.100000)" fill="#000000" stroke="none">
<path d="M300 1792 c-105 -55 -104 -144 5 -277 44 -54 77 -108 101 -165 19
-47 56 -114 82 -150 67 -92 87 -126 118 -203 15 -38 50 -101 78 -140 72 -101
89 -131 126 -221 18 -43 56 -108 84 -145 28 -36 72 -111 99 -166 136 -279 275
-265 416 39 22 49 63 118 90 155 27 36 72 115 100 175 28 59 73 138 100 175
27 37 74 118 104 181 29 63 77 147 105 186 29 39 64 99 78 134 30 74 45 99
100 165 94 113 98 199 12 249 -39 24 -1754 31 -1798 8z"/>
</g>
</svg>
