<svg xmlns="http://www.w3.org/2000/svg" viewBox="0 0 359.795945 1785.626969">
<g transform="translate(-7.000000,1800.560461) scale(0.100000,-0.100000)" fill="#000000" stroke="none">
<path d="M1277 17967 c-53 -70 -184 -119 -441 -167 -214 -40 -283 -66 -551
-207 -74 -39 -215 -208 -215 -257 0 -62 145 -141 255 -140 83 1 134 20 285
104 120 67 187 90 350 120 63 12 195 41 292 65 299 74 772 96 1003 46 111 -23
496 -142 548 -168 74 -38 296 -235 348 -311 160 -229 136 -754 -46 -997 -29
-38 -68 -97 -88 -130 -26 -42 -109 -130 -284 -300 -136 -132 -284 -276 -328
-320 -44 -44 -102 -96 -130 -115 -27 -18 -79 -59 -115 -90 -36 -32 -105 -85
-155 -118 -118 -80 -425 -391 -533 -541 -159 -221 -125 -781 59 -986 30 -33
73 -86 96 -117 24 -31 66 -76 94 -100 29 -24 84 -72 123 -107 39 -35 108 -88
153 -117 128 -83 317 -306 372 -439 32 -77 35 -249 7 -330 -26 -74 -214 -351
-278 -410 -109 -100 -215 -193 -308 -267 -68 -54 -114 -101 -155 -159 -33 -45
-84 -114 -113 -153 -214 -284 -216 -806 -6 -1022 32 -33 83 -88 112 -123 30
-34 84 -82 120 -106 37 -24 92 -66 122 -92 30 -27 94 -77 141 -111 142 -102
176 -148 260 -357 84 -208 82 -281 -13 -437 -73 -121 -102 -153 -187 -210 -42
-28 -105 -75 -141 -104 -36 -29 -104 -75 -151 -103 -63 -37 -105 -71 -150
-123 -35 -39 -88 -95 -117 -125 -88 -88 -180 -334 -189 -503 -15 -289 136
-500 584 -816 187 -132 297 -287 309 -437 18 -209 -50 -337 -320 -602 -88 -87
-135 -143 -222 -264 -41 -57 -163 -351 -183 -441 -50 -221 51 -535 249 -775
268 -323 250 -296 312 -470 57 -159 56 -201 -14 -420 -62 -191 -73 -217 -133
-295 -47 -61 -71 -106 -121 -222 -18 -43 -51 -104 -72 -135 -168 -248 -169
-717 -3 -942 28 -38 70 -109 92 -157 23 -49 68 -128 100 -175 169 -251 165
-832 -8 -1170 -84 -166 -78 -261 23 -332 284 -200 558 424 500 1136 -25 297
-37 346 -118 479 -28 46 -74 133 -103 193 -29 61 -72 137 -97 170 -143 190
-147 441 -10 653 60 93 72 115 115 212 19 41 56 104 82 140 59 79 87 139 124
266 16 55 45 144 65 199 64 178 51 351 -41 570 -70 167 -87 198 -166 292 -36
43 -107 128 -157 188 -203 243 -249 430 -160 660 63 167 79 189 252 366 89 90
181 194 205 231 24 37 62 88 84 114 152 176 179 693 46 885 -142 206 -300 368
-437 450 -101 60 -285 230 -318 294 -85 166 -14 381 173 523 33 25 88 70 122
98 35 29 100 73 146 98 54 30 111 72 159 119 41 39 99 95 129 122 44 41 68 76
126 190 142 280 147 420 22 742 -81 212 -97 239 -201 355 -146 163 -197 209
-288 265 -319 195 -440 401 -386 660 34 161 234 407 448 551 42 28 96 75 120
103 24 29 75 87 115 130 40 43 91 111 113 151 23 40 66 109 96 153 92 138 106
188 119 420 13 222 -15 325 -146 537 -101 164 -307 376 -469 482 -103 68 -311
280 -350 357 -73 142 -67 396 13 511 55 80 268 299 347 356 41 31 96 75 122
98 26 24 80 65 120 90 73 47 123 90 361 317 361 342 564 556 601 631 20 40 63
115 96 166 88 137 133 297 164 587 23 204 21 222 -34 438 -60 234 -76 269
-186 410 -183 234 -415 395 -653 451 -184 44 -338 118 -371 179 -24 46 -1098
38 -1133 -8z"/>
</g>
</svg>
