<svg xmlns="http://www.w3.org/2000/svg" viewBox="0 0 122.317417 1400.000000">
<g transform="translate(-16.555974,1400.000000) scale(0.100000,-0.100000)" fill="#000000" stroke="none">
<path d="M890 13962 c-17 -63 -65 -106 -188 -167 -184 -93 -399 -329 -463
-511 -101 -287 -67 -773 68 -975 27 -41 66 -105 87 -144 26 -49 63 -96 124
-155 153 -149 248 -255 287 -321 21 -35 60 -95 85 -134 147 -221 36 -465 -362
-798 -142 -119 -274 -331 -313 -504 -74 -328 -48 -651 67 -814 127 -181 179
-243 328 -394 492 -499 494 -711 10 -1170 -225 -214 -345 -379 -384 -532 -95
-367 -63 -693 88 -898 28 -38 64 -89 79 -113 15 -23 106 -122 203 -220 107
-108 189 -200 211 -237 20 -33 58 -90 85 -126 165 -227 71 -444 -341 -782 -77
-63 -229 -254 -276 -347 -144 -284 -132 -800 24 -1005 21 -27 61 -83 88 -123
27 -41 124 -149 215 -240 206 -209 334 -382 364 -494 54 -206 -45 -404 -281
-563 -167 -113 -324 -268 -404 -399 -181 -299 -164 -836 36 -1096 27 -36 67
-92 87 -125 50 -78 269 -294 351 -346 83 -52 148 -125 165 -183 13 -46 13 -46
136 -46 122 0 124 0 124 22 0 13 10 66 21 118 40 174 26 201 -200 402 -258
230 -394 407 -427 559 -65 297 31 537 284 708 48 32 101 73 117 91 17 18 65
59 108 93 163 127 271 312 288 498 24 254 -6 419 -103 576 -31 48 -72 118 -92
155 -28 51 -77 107 -204 235 -92 92 -186 190 -207 218 -22 27 -63 77 -91 111
-120 143 -140 433 -44 629 36 73 201 269 296 350 201 172 364 373 416 511 56
148 26 479 -55 609 -17 28 -59 96 -94 153 -66 109 -144 202 -308 366 -268 270
-315 352 -315 553 0 263 61 367 430 733 315 312 382 456 366 785 -8 179 -21
231 -74 323 -25 42 -69 122 -98 177 -54 100 -116 171 -327 374 -52 51 -81 85
-217 257 -101 128 -118 397 -40 608 27 70 173 238 375 429 322 307 430 590
346 909 -48 183 -179 378 -437 647 -262 275 -326 404 -326 666 -1 258 98 437
315 571 51 32 106 68 124 81 17 13 81 46 143 73 180 79 190 100 153 313 -16
97 -16 97 -214 97 -198 0 -198 0 -209 -38z"/>
</g>
</svg>
