<svg xmlns="http://www.w3.org/2000/svg" viewBox="0 0 227.684519 228.747873">
<g transform="translate(-12.314938,243.957448) scale(0.100000,-0.100000)" fill="#000000" stroke="none">
<path d="M179 2392 c-26 -26 -51 -61 -55 -77 -11 -43 68 -267 128 -363 26 -41
59 -111 73 -153 15 -45 49 -113 80 -159 29 -44 63 -111 76 -148 26 -79 56
-139 103 -205 19 -26 46 -84 61 -130 16 -52 46 -111 79 -162 34 -50 64 -112
81 -163 17 -51 46 -112 76 -155 30 -45 60 -106 79 -164 17 -50 48 -115 68
-145 21 -29 50 -74 64 -99 57 -97 134 -134 227 -109 63 17 98 54 129 140 16
41 49 105 74 142 31 45 56 98 77 165 17 54 44 118 61 143 46 67 75 127 99 207
13 44 40 99 71 145 35 51 60 102 81 170 21 68 46 122 84 178 36 54 63 111 84
176 17 52 47 120 67 152 45 69 61 105 86 197 32 116 89 185 152 185 14 0 16
16 16 113 0 112 0 112 -103 135 -61 14 -113 21 -129 17 -66 -17 -187 -199
-244 -368 -22 -65 -51 -126 -79 -167 -29 -42 -58 -104 -83 -176 -22 -64 -50
-127 -68 -150 -43 -54 -62 -94 -94 -194 -18 -59 -42 -108 -75 -154 -33 -46
-58 -99 -81 -168 -55 -165 -136 -268 -212 -268 -56 0 -85 36 -115 141 -28 97
-38 119 -77 169 -36 46 -62 100 -89 182 -13 37 -47 104 -76 148 -29 44 -63
111 -76 148 -27 84 -41 111 -95 192 -24 36 -55 101 -69 147 -15 46 -42 104
-61 130 -48 67 -79 129 -97 194 -23 77 -52 116 -125 166 -85 58 -111 57 -173
-5z"/>
</g>
</svg>
