<svg xmlns="http://www.w3.org/2000/svg" viewBox="0 0 143.012333 142.941030">
<g transform="translate(-7.000000,152.565886) scale(0.100000,-0.100000)" fill="#000000" stroke="none">
<path d="M107 1491 c-20 -23 -37 -45 -37 -49 0 -20 64 -182 91 -228 16 -28 36
-71 44 -95 9 -24 31 -66 49 -94 19 -27 42 -75 51 -105 10 -30 32 -75 50 -100
18 -25 40 -70 50 -100 10 -30 29 -70 43 -89 14 -18 37 -66 52 -106 15 -40 39
-88 54 -107 14 -19 35 -62 46 -94 10 -33 42 -94 70 -137 41 -62 57 -78 85 -86
71 -19 133 19 154 95 5 18 23 52 40 76 17 24 40 72 51 108 11 36 33 84 50 108
16 24 36 67 44 95 8 29 31 76 51 106 19 30 42 80 51 110 8 31 31 79 50 106 18
28 43 78 54 113 11 34 33 82 49 106 15 25 36 74 45 110 18 66 58 116 92 116
11 0 14 16 14 69 0 77 7 70 -88 91 -49 11 -56 11 -80 -7 -38 -28 -109 -148
-128 -216 -9 -32 -30 -76 -47 -99 -16 -22 -40 -72 -52 -109 -13 -38 -37 -88
-54 -112 -16 -23 -37 -67 -46 -98 -8 -31 -31 -78 -51 -105 -19 -27 -42 -74
-50 -104 -19 -66 -65 -142 -100 -165 -53 -34 -85 -5 -113 102 -6 22 -26 63
-45 90 -18 26 -41 73 -51 103 -10 30 -33 77 -52 104 -18 27 -38 69 -45 93 -6
25 -26 67 -45 95 -19 28 -44 76 -54 107 -11 31 -35 79 -53 106 -19 28 -41 74
-51 102 -12 39 -28 62 -58 87 -66 54 -87 55 -130 7z"/>
</g>
</svg>
