<svg xmlns="http://www.w3.org/2000/svg" viewBox="0 0 283.350914 284.870566">
<g transform="translate(-16.648038,303.976800) scale(0.100000,-0.100000)" fill="#000000" stroke="none">
<path d="M248 3015 c-130 -88 -104 -290 77 -590 23 -38 59 -117 80 -174 24
-66 60 -137 98 -194 37 -56 73 -126 93 -184 40 -111 65 -162 110 -225 45 -64
68 -111 108 -222 20 -57 57 -129 91 -182 35 -52 72 -125 92 -181 39 -112 59
-152 118 -239 24 -36 56 -100 71 -142 82 -233 234 -454 331 -481 130 -36 240
31 297 179 15 41 53 115 83 163 34 54 72 135 98 208 25 70 66 159 100 214 33
55 72 139 94 203 21 60 42 116 46 123 4 8 32 52 61 99 30 48 68 129 88 186 37
110 73 186 116 249 42 61 68 117 106 225 19 55 58 140 88 191 37 62 68 132 96
221 49 152 81 197 161 225 49 18 49 18 49 158 0 140 0 140 -108 163 -118 25
-157 27 -199 11 -84 -31 -213 -234 -293 -460 -22 -65 -57 -139 -83 -178 -59
-89 -79 -130 -112 -231 -33 -102 -50 -137 -113 -233 -31 -48 -61 -113 -86
-187 -27 -83 -54 -139 -101 -212 -44 -68 -74 -130 -96 -196 -127 -385 -324
-456 -419 -152 -16 52 -45 120 -64 150 -19 30 -47 75 -62 99 -16 25 -48 96
-71 159 -27 70 -64 146 -98 196 -34 51 -71 126 -99 200 -25 66 -65 149 -90
186 -55 83 -88 148 -111 220 -23 72 -54 133 -114 225 -29 43 -62 113 -80 167
-69 206 -237 322 -353 243z"/>
</g>
</svg>
