<svg xmlns="http://www.w3.org/2000/svg" viewBox="0 0 444.043089 670.956440">
<g transform="translate(-8.223566,691.251195) scale(0.100000,-0.100000)" fill="#000000" stroke="none">
<path d="M2371 6909 c-58 -12 -113 -61 -150 -133 -35 -67 -35 -67 -35 -524 -1
-696 115 -627 -1046 -628 -961 -1 -903 5 -991 -91 -102 -110 -89 -169 47 -209
54 -16 850 -21 1799 -10 183 2 186 -13 192 -966 6 -1025 10 -997 -158 -1147
-321 -287 -518 -474 -779 -746 -69 -71 -160 -160 -203 -198 -43 -38 -91 -89
-108 -114 -17 -24 -64 -80 -105 -124 -87 -92 -100 -118 -113 -222 -10 -86 -28
-121 -96 -187 -167 -162 -163 -613 8 -824 27 -34 67 -91 88 -128 31 -53 54
-77 102 -110 73 -49 78 -55 116 -133 42 -85 63 -95 208 -99 117 -2 119 -3 220
-49 186 -85 292 -85 463 0 95 48 95 48 225 48 158 0 171 6 218 103 30 63 36
69 102 103 67 34 71 38 101 106 28 60 43 79 103 127 118 94 106 -41 106 1222
0 1266 -16 1119 136 1255 46 41 124 115 174 166 101 103 120 113 210 113 94 0
132 20 210 106 37 41 94 93 128 116 137 93 245 281 185 320 -117 76 -240 51
-348 -71 -69 -78 -88 -87 -200 -94 -57 -4 -100 -15 -179 -47 -176 -71 -339
-51 -387 48 -37 77 -18 1230 22 1331 37 92 -31 85 899 88 821 3 879 5 951 39
60 29 46 99 -38 190 -84 91 -44 87 -873 86 -892 -2 -894 -2 -947 106 -23 47
-23 50 -28 517 -5 424 -7 474 -23 510 -53 118 -124 172 -206 154z m-292 -4462
c67 -33 87 -131 106 -507 36 -728 20 -863 -120 -1017 -268 -296 -778 -197
-854 165 -45 215 1 536 95 662 30 41 75 113 100 160 61 119 360 451 445 496
97 50 181 65 228 41z"/>
</g>
</svg>
