<svg xmlns="http://www.w3.org/2000/svg" viewBox="0 0 432.000000 513.565096">
<g transform="translate(0.000000,526.609830) scale(0.100000,-0.100000)" fill="#000000" stroke="none">
<path d="M93 5257 c-93 -10 -93 -10 -93 -2407 0 -2397 0 -2397 68 -2403 105
-10 163 -8 222 9 30 8 118 20 195 24 77 5 156 14 175 20 19 6 82 15 140 20 58
6 134 19 170 29 116 34 351 67 630 90 82 6 153 18 205 35 44 14 105 28 135 31
30 4 96 20 145 35 109 34 270 58 513 77 63 5 63 5 105 -42 127 -142 235 -237
327 -288 38 -21 100 -66 139 -101 45 -40 92 -72 128 -86 32 -13 95 -43 140
-67 56 -30 120 -53 200 -73 225 -56 288 -41 521 125 34 24 85 52 112 62 48 17
50 19 50 55 0 33 -3 38 -22 38 -44 0 -294 91 -368 134 -41 23 -102 53 -135 66
-33 13 -82 45 -110 70 -28 26 -85 72 -126 103 -123 95 -187 154 -359 336 -284
299 -311 331 -336 388 -13 30 -46 86 -73 126 -27 40 -63 106 -80 148 -18 42
-51 103 -75 135 -24 32 -62 101 -85 153 -73 170 -124 201 -349 212 -168 7
-212 2 -247 -31 -50 -47 -40 -165 26 -285 21 -38 61 -140 89 -226 34 -106 61
-173 85 -205 19 -27 46 -66 61 -86 34 -48 43 -118 20 -153 -23 -35 -60 -51
-149 -65 -43 -6 -110 -23 -150 -36 -40 -14 -121 -32 -182 -40 -60 -8 -135 -22
-165 -29 -30 -8 -107 -21 -170 -30 -63 -8 -155 -26 -205 -39 -49 -14 -117 -30
-150 -36 -33 -7 -105 -28 -160 -47 -159 -56 -290 -45 -333 27 -17 28 -20 1587
-3 1618 6 11 28 31 48 44 38 23 38 23 1048 28 967 5 1012 6 1048 24 74 37 68
-61 72 1218 2 634 4 1167 5 1185 2 41 -22 77 -68 100 -35 17 -95 18 -1287 19
-763 1 -1286 -3 -1342 -9z m2067 -372 c66 -34 75 -75 75 -320 0 -242 -7 -274
-66 -318 -38 -27 -1409 -29 -1490 -2 -99 33 -119 85 -119 310 0 211 18 272 93
313 29 15 91 17 707 22 371 3 697 6 723 8 28 1 60 -4 77 -13z m10 -1080 c61
-31 69 -68 71 -326 2 -227 -5 -260 -63 -302 -26 -19 -47 -20 -745 -18 -729 2
-769 4 -815 41 -51 40 -58 72 -58 270 0 251 17 300 116 335 62 22 1452 22
1494 0z"/>
</g>
</svg>
