<svg xmlns="http://www.w3.org/2000/svg" viewBox="0 0 269.992981 321.384954">
<g transform="translate(0.000000,329.384954) scale(0.100000,-0.100000)" fill="#000000" stroke="none">
<path d="M149 3293 c-8 -1 -44 -5 -81 -8 l-68 -7 0 -1497 0 -1498 64 -6 c35
-3 79 -1 98 4 18 6 78 15 133 19 128 11 296 36 338 49 45 15 215 39 327 46 52
4 127 15 166 26 38 10 80 19 92 19 13 0 48 9 80 20 31 11 98 25 147 31 50 6
115 14 145 19 63 9 98 -3 119 -43 19 -35 139 -140 190 -166 24 -13 62 -39 84
-60 76 -69 308 -161 406 -161 47 0 114 28 176 75 33 25 77 51 98 57 30 9 37
16 37 37 0 24 -6 27 -70 43 -88 21 -292 120 -346 167 -23 20 -72 61 -108 91
-113 93 -358 356 -390 419 -16 31 -39 70 -51 86 -12 17 -30 50 -39 74 -9 25
-31 64 -48 88 -18 24 -43 71 -58 105 -41 101 -96 126 -259 124 -86 -1 -95 -3
-113 -26 -26 -32 -19 -104 15 -164 13 -22 41 -92 61 -154 26 -77 48 -125 72
-153 63 -76 54 -137 -21 -152 -22 -5 -74 -17 -115 -28 -80 -21 -188 -41 -335
-64 -102 -15 -261 -54 -349 -85 -33 -11 -72 -20 -88 -20 -32 0 -92 23 -102 39
-5 7 -10 817 -6 1004 0 9 15 26 33 37 31 19 52 20 655 20 682 0 681 0 698 56
5 16 7 322 4 699 -3 369 -1 692 3 719 10 58 -2 89 -43 106 -18 8 -254 12 -781
13 -416 1 -762 1 -770 0z m1217 -251 c28 -28 34 -62 34 -196 0 -122 -2 -136
-23 -167 l-23 -34 -454 0 c-505 0 -511 1 -536 61 -19 45 -19 243 -1 287 13 29
34 46 77 61 8 2 217 5 463 4 390 0 450 -2 463 -16z m-11 -658 c35 -14 45 -58
45 -203 0 -148 -8 -183 -44 -198 -15 -6 -699 -9 -924 -4 -13 1 -37 14 -53 30
l-29 29 0 134 c0 149 8 174 59 200 29 14 84 16 481 17 247 1 456 -2 465 -5z"/>
</g>
</svg>
