<svg xmlns="http://www.w3.org/2000/svg" viewBox="0 0 224.725970 335.538710">
<g transform="translate(-3.274030,345.841923) scale(0.100000,-0.100000)" fill="#000000" stroke="none">
<path d="M1180 3453 c-21 -8 -59 -44 -73 -68 -7 -13 -12 -105 -13 -261 -1
-157 -6 -248 -13 -262 -25 -46 -32 -47 -513 -52 l-456 -5 -25 -23 c-35 -33
-64 -89 -51 -102 23 -23 132 -28 562 -26 496 1 471 4 486 -58 4 -16 7 -226 7
-467 0 -342 -3 -443 -13 -462 -7 -14 -56 -63 -108 -109 -96 -85 -443 -428
-552 -545 -56 -60 -58 -64 -58 -117 0 -51 -2 -57 -36 -82 -55 -42 -65 -72 -67
-193 -2 -123 10 -168 60 -225 19 -21 41 -52 48 -69 8 -20 27 -37 56 -51 38
-18 45 -26 50 -60 9 -55 28 -66 104 -59 56 5 67 3 111 -23 70 -41 158 -41 228
0 45 26 53 28 118 21 83 -8 98 1 98 56 0 47 25 64 77 54 l35 -6 -6 38 c-8 47
2 62 56 88 28 13 44 28 48 45 5 22 5 320 -1 930 0 96 2 182 6 192 3 9 34 39
68 67 34 29 76 71 93 94 30 41 32 42 92 42 60 0 61 0 114 55 30 30 66 63 82
74 52 34 75 135 37 156 -11 5 -34 10 -51 10 -31 0 -62 -24 -112 -88 -15 -18
-27 -22 -71 -21 -36 1 -66 -5 -95 -20 -57 -29 -154 -29 -182 -1 -11 11 -20 30
-21 43 0 12 0 150 1 307 1 273 7 351 28 372 6 6 192 11 463 12 250 1 462 6
472 10 9 5 17 12 17 17 0 7 -68 107 -83 121 -1 1 -193 5 -425 8 l-424 5 -24
28 c-24 28 -24 29 -24 268 0 261 -4 287 -55 327 -28 22 -38 25 -65 15z m-133
-2228 c31 -22 42 -107 49 -386 5 -168 3 -257 -5 -284 -6 -23 -31 -61 -58 -91
-39 -41 -61 -55 -117 -74 -80 -26 -123 -23 -200 14 -35 17 -63 41 -82 68 -29
41 -29 43 -29 187 0 151 8 186 50 221 9 8 29 39 45 69 16 31 69 99 119 153 73
77 102 101 144 117 64 24 58 24 84 6z"/>
<path d="M1902 2074 c-26 -55 2 -126 43 -111 20 8 19 11 -8 79 -23 57 -24 57
-35 32z"/>
</g>
</svg>
