<svg xmlns="http://www.w3.org/2000/svg" viewBox="0 0 357.107559 536.916303">
<g transform="translate(-6.166151,552.968627) scale(0.100000,-0.100000)" fill="#000000" stroke="none">
<path d="M1855 5507 c-21 -12 -53 -42 -70 -65 -30 -44 -30 -44 -35 -435 -6
-443 -5 -442 -85 -482 -39 -19 -65 -20 -745 -25 -403 -3 -714 -9 -725 -14 -41
-20 -77 -52 -105 -96 -48 -75 -36 -107 50 -131 38 -10 998 -14 1467 -5 38 1
59 -5 80 -20 57 -43 57 -43 58 -809 0 -828 11 -753 -123 -867 -134 -114 -294
-268 -558 -534 -132 -134 -246 -244 -252 -244 -6 0 -30 -26 -53 -58 -23 -31
-68 -83 -100 -114 -68 -65 -79 -88 -79 -164 0 -68 -7 -82 -86 -166 -79 -85
-88 -119 -82 -332 5 -179 21 -232 96 -319 26 -30 59 -78 74 -106 23 -41 38
-56 86 -80 60 -30 75 -50 88 -115 11 -63 41 -77 158 -74 101 3 101 3 191 -42
133 -67 219 -66 358 4 98 49 98 49 182 37 71 -10 90 -9 119 3 36 15 38 20 51
99 7 45 35 66 101 75 48 7 48 7 60 65 13 67 31 90 93 121 94 46 86 -94 76
1340 -4 574 -13 520 101 622 103 93 153 142 192 192 33 42 33 42 122 42 100 0
123 12 180 95 18 26 52 56 85 75 67 38 109 88 136 159 24 66 22 88 -12 114
-71 52 -184 23 -241 -61 -49 -74 -62 -82 -150 -82 -66 0 -86 -5 -149 -35 -139
-67 -297 -45 -325 45 -20 65 -2 1006 20 1058 30 69 -8 66 741 69 856 4 836 0
745 138 -77 118 -19 109 -765 115 -600 5 -653 6 -678 23 -63 41 -62 33 -67
467 -5 385 -6 396 -27 435 -58 104 -116 128 -198 82z m-162 -3569 c43 -57 73
-459 65 -858 -5 -215 -10 -233 -104 -338 -63 -71 -93 -88 -212 -126 -102 -32
-121 -32 -219 -1 -214 67 -270 165 -260 460 6 199 18 248 78 320 23 27 57 81
76 120 68 135 309 389 409 430 79 33 139 31 167 -7z"/>
<path d="M3030 3261 c-16 -30 -12 -50 15 -76 57 -58 93 0 39 64 -30 36 -39 38
-54 12z"/>
</g>
</svg>
