<svg xmlns="http://www.w3.org/2000/svg" viewBox="0 0 387.487 583.785">
<g transform="rotate(180 193.7435 291.8925)">
<g transform="translate(37.498766,548.692318) scale(0.100000,-0.100000)" fill="#000000" stroke="none">
<path d="M1323 4905 c-563 -80 -982 -811 -792 -1383 39 -117 201 -346 305
-433 49 -40 111 -93 139 -117 69 -61 120 -85 310 -142 415 -124 549 -124 915
0 63 21 147 48 187 60 50 14 87 33 123 63 188 153 360 99 360 -114 0 -49 -53
-321 -94 -484 -13 -55 -37 -163 -51 -240 -42 -224 -71 -328 -128 -453 -30 -64
-64 -147 -76 -184 -37 -111 -123 -221 -411 -527 -274 -290 -433 -419 -588
-475 -190 -68 -204 -115 -67 -221 68 -53 68 -53 159 -10 50 24 120 57 156 73
36 16 99 59 141 93 41 35 102 85 135 112 207 166 259 212 342 298 61 64 106
122 136 177 25 44 66 109 92 144 56 76 72 108 113 220 18 48 56 134 85 190 38
74 60 131 76 203 12 55 46 195 75 310 97 384 137 672 155 1107 17 419 -9 592
-129 863 -32 72 -66 155 -76 185 -26 81 -77 174 -148 271 -34 47 -76 106 -93
131 -32 46 -209 181 -294 224 -127 64 -767 99 -1057 59z m672 -269 c33 -9 107
-39 165 -66 58 -27 142 -63 187 -80 265 -101 386 -302 386 -645 0 -441 -168
-643 -653 -784 -332 -96 -317 -96 -695 14 -384 111 -570 378 -552 789 16 364
138 545 450 666 67 26 157 62 200 79 133 55 367 67 512 27z"/>
<path d="M0 4173 c0 -159 5 -169 59 -115 76 76 57 241 -29 254 -30 5 -30 5
-30 -139z"/>
</g>
</g>
</svg>
