<svg xmlns="http://www.w3.org/2000/svg" viewBox="0 0 446.751 644.800">
<g transform="rotate(180 223.3755 322.4)">
<g transform="translate(43.516756,582.400000) scale(0.100000,-0.100000)" fill="#000000" stroke="none">
<path d="M1900 5181 c0 -51 -150 -189 -400 -369 -479 -344 -616 -465 -825
-727 -166 -207 -217 -278 -319 -440 -153 -243 -249 -354 -323 -374 -43 -11
-50 -2641 -7 -2641 148 0 477 -382 511 -592 6 -38 6 -38 1534 -38 1529 0 1529
0 1529 1010 0 1009 0 1009 -42 1020 -90 22 -178 63 -318 146 -410 243 -723
322 -1420 359 -471 25 -535 63 -535 324 0 399 289 778 960 1256 442 315 491
468 263 820 -94 146 -118 192 -118 229 0 36 0 36 -245 36 -236 0 -245 -1 -245
-19z m240 -3716 c576 -153 422 -683 -210 -722 -615 -38 -798 630 -202 737 77
14 338 5 412 -15z"/>
</g>
</g>
<g transform="scale(1.3888,1.3123)" fill="#000000" stroke="none">
<g transform="translate(0.000079,501.862999) scale(0.100000,-0.100000)">
<path d="M0 4174 c0 -272 -1 -269 107 -208 117 67 130 345 18 414 -116 72 -125 58 -125 -206z"/>
</g>
</g>
</svg>
