<svg xmlns="http://www.w3.org/2000/svg" viewBox="0 0 360.000000 514.209299">
<g transform="translate(0.000000,513.471701) scale(0.100000,-0.100000)" fill="#000000" stroke="none">
<path d="M2038 5124 c-68 -21 -541 -309 -682 -416 -67 -50 -191 -144 -276
-208 -171 -129 -229 -186 -342 -335 -41 -55 -115 -147 -163 -205 -128 -153
-172 -224 -295 -469 -116 -231 -181 -322 -250 -351 -30 -12 -30 -12 -30 -1216
0 -1204 0 -1204 66 -1234 80 -36 149 -103 284 -278 162 -209 200 -274 224
-385 13 -55 2768 -40 2783 16 27 98 102 173 201 198 42 11 42 11 42 869 0 858
0 858 -72 880 -81 24 -125 50 -286 172 -344 261 -1106 414 -1697 342 -302 -37
-371 1 -369 201 1 173 151 506 377 835 80 116 415 394 744 617 414 282 461
474 184 752 -188 190 -319 253 -443 215z m91 -3624 c245 -50 440 -169 496
-304 128 -306 -643 -615 -1061 -426 -649 293 -191 884 565 730z"/>
</g>
</svg>
