<svg xmlns="http://www.w3.org/2000/svg" viewBox="0 0 321.662154 491.440180">
<g transform="translate(0.000079,501.862999) scale(0.100000,-0.100000)" fill="#000000" stroke="none">
<path d="M1326 5005 c-183 -26 -303 -83 -502 -236 -370 -285 -545 -878 -384
-1302 36 -96 207 -344 281 -409 270 -237 284 -246 525 -318 438 -131 587 -131
1014 6 253 81 256 82 311 127 104 85 130 94 166 55 44 -48 30 -176 -57 -528
-16 -63 -41 -178 -55 -255 -42 -224 -71 -328 -128 -453 -30 -64 -64 -146 -76
-182 -43 -130 -347 -480 -661 -761 -148 -132 -162 -141 -330 -202 -204 -75
-226 -221 -54 -357 134 -107 129 -106 266 -41 57 27 137 65 178 84 41 19 109
64 151 98 41 35 102 85 135 112 218 175 273 223 363 319 69 72 116 132 146
187 24 44 65 108 91 143 56 76 72 108 113 220 18 48 56 134 85 190 38 74 60
131 76 203 12 55 46 195 75 310 98 389 137 668 156 1120 20 481 -6 672 -130
949 -32 72 -66 156 -76 186 -25 78 -71 166 -120 230 -23 30 -64 89 -92 130
-119 175 -332 314 -551 357 -160 32 -739 43 -916 18z m629 -460 c33 -8 107
-38 165 -65 58 -27 141 -62 185 -79 152 -59 263 -176 300 -318 53 -201 29
-483 -51 -621 -124 -213 -677 -423 -929 -354 -356 98 -394 114 -490 204 -219
204 -276 579 -131 865 67 134 143 196 317 262 57 22 143 56 191 76 142 58 298
69 443 30z"/>
<path d="M0 4174 c0 -272 -1 -269 107 -208 117 67 130 345 18 414 -116 72
-125 58 -125 -206z"/>
</g>
</svg>
