<svg xmlns="http://www.w3.org/2000/svg" viewBox="0 0 257.054105 393.136583">
<g transform="translate(0.000017,400.886583) scale(0.100000,-0.100000)" fill="#000000" stroke="none">
<path d="M1025 3999 c-191 -28 -461 -224 -570 -414 -80 -140 -94 -178 -125
-331 -34 -169 -36 -225 -15 -350 29 -163 161 -381 301 -493 43 -35 98 -81 122
-103 54 -49 93 -67 263 -118 329 -99 467 -102 730 -17 73 24 167 54 207 66 62
19 84 32 138 82 71 66 84 70 119 34 28 -27 34 -99 14 -152 -6 -15 -19 -71 -30
-123 -10 -52 -28 -129 -39 -170 -10 -41 -29 -129 -40 -195 -32 -179 -57 -269
-99 -354 -21 -42 -48 -105 -60 -141 -25 -78 -37 -96 -120 -192 -276 -318 -492
-522 -589 -558 -31 -11 -76 -27 -100 -36 -108 -40 -161 -135 -114 -206 27 -40
171 -150 198 -150 12 0 44 13 71 29 26 16 74 40 106 52 87 32 116 49 177 100
30 26 78 63 105 83 28 20 59 46 70 58 11 13 45 41 75 63 89 66 239 226 265
282 12 28 43 77 68 110 52 70 77 118 102 195 10 30 39 96 65 145 39 73 54 117
79 230 17 77 42 180 56 229 91 331 143 1012 100 1311 -18 126 -35 184 -95 315
-26 58 -55 132 -66 164 -10 33 -32 79 -48 103 -17 23 -62 87 -99 142 -52 76
-83 109 -130 142 -34 24 -81 58 -104 75 -107 81 -252 104 -644 103 -156 -1
-311 -5 -344 -10z m555 -365 c30 -9 87 -33 125 -54 39 -21 90 -44 115 -50 104
-28 222 -133 254 -226 54 -159 38 -425 -33 -540 -17 -28 -132 -128 -194 -169
-15 -9 -100 -40 -190 -67 -185 -57 -273 -68 -352 -44 -27 8 -106 31 -173 50
-147 42 -170 55 -256 146 -143 152 -177 440 -77 656 51 110 131 174 271 219
30 10 81 31 113 47 122 61 263 72 397 32z"/>
<path d="M0 3340 c0 -190 0 -190 28 -190 80 0 124 67 129 195 5 105 -13 146
-72 171 -86 35 -85 37 -85 -176z"/>
</g>
</svg>
