<svg xmlns="http://www.w3.org/2000/svg" viewBox="0 0 359.868493 482.733039">
<g transform="translate(-0.131507,482.733039) scale(0.100000,-0.100000)" fill="#000000" stroke="none">
<path d="M1945 4815 c-152 -39 -388 -175 -520 -301 -102 -97 -149 -129 -259
-177 -164 -71 -197 -103 -274 -268 -57 -121 -96 -175 -193 -267 -149 -140
-237 -318 -310 -622 -107 -444 -191 -589 -344 -590 -47 -1 -45 28 -43 -776 3
-759 3 -759 75 -771 153 -25 228 -104 324 -340 71 -176 133 -252 280 -346 132
-84 158 -129 174 -289 7 -68 7 -68 1119 -68 1113 0 1113 0 1120 93 18 263 160
409 414 424 92 6 92 6 92 599 0 592 0 592 -67 599 -189 17 -272 64 -334 187
-95 190 -185 249 -435 288 -77 12 -169 28 -205 35 -62 13 -309 35 -559 50
-212 13 -470 -15 -709 -76 -276 -71 -392 66 -361 426 32 374 72 488 241 690
117 139 133 165 200 317 61 140 89 169 238 249 149 80 190 113 258 210 64 92
93 116 188 159 380 171 450 278 287 440 -120 120 -252 161 -397 125z m358
-3139 c266 -47 312 -69 415 -203 36 -48 88 -100 123 -125 174 -125 199 -156
199 -246 0 -104 -31 -141 -190 -222 -76 -39 -121 -72 -199 -144 -195 -180
-495 -278 -809 -262 -343 17 -395 36 -610 227 -343 303 -357 417 -95 751 173
221 288 259 768 253 217 -2 269 -6 398 -29z"/>
</g>
</svg>
