<svg xmlns="http://www.w3.org/2000/svg" viewBox="0 0 160.512350 246.582552">
<g transform="translate(0.000000,250.935015) scale(0.100000,-0.100000)" fill="#000000" stroke="none">
<path d="M641 2498 c-35 -5 -76 -15 -91 -23 -67 -35 -149 -97 -200 -152 -82
-89 -118 -161 -141 -278 -36 -191 -22 -277 70 -414 55 -81 91 -117 215 -212
27 -21 200 -74 290 -90 95 -16 195 -6 301 29 50 17 109 36 132 42 27 7 55 25
79 50 41 43 64 49 84 25 15 -17 10 -59 -19 -185 -11 -47 -34 -152 -51 -234
-19 -91 -42 -170 -59 -205 -16 -31 -34 -74 -41 -96 -16 -50 -33 -72 -162 -212
-152 -166 -240 -240 -307 -260 -63 -18 -121 -68 -121 -104 0 -22 65 -91 118
-126 20 -14 25 -13 62 11 22 14 61 34 88 44 27 11 82 46 121 78 40 32 91 74
114 92 76 61 158 146 179 187 12 22 36 60 55 84 18 24 39 65 47 90 7 25 30 77
50 114 20 38 36 77 36 87 0 10 13 70 29 132 48 186 72 349 82 566 10 221 2
337 -31 426 -56 154 -95 245 -120 276 -15 19 -39 54 -54 77 -28 46 -125 123
-191 153 -78 36 -401 52 -564 28z m394 -248 c33 -16 85 -38 115 -49 62 -23
121 -77 143 -131 32 -76 29 -238 -4 -322 -14 -36 -123 -124 -174 -142 -22 -8
-82 -27 -133 -42 -105 -31 -108 -31 -282 21 -77 23 -90 31 -141 83 -68 69 -94
139 -93 247 1 146 62 254 162 291 26 9 72 28 102 42 81 36 108 42 180 36 44
-3 85 -14 125 -34z"/>
<path d="M0 2090 c0 -119 0 -120 23 -120 39 0 70 43 75 104 6 79 -3 105 -43
122 -19 8 -39 14 -45 14 -6 0 -10 -44 -10 -120z"/>
</g>
</svg>
