<svg xmlns="http://www.w3.org/2000/svg" viewBox="0 0 288.000000 386.045573">
<g transform="translate(0.000000,386.200438) scale(0.100000,-0.100000)" fill="#000000" stroke="none">
<path d="M1505 3836 c-139 -54 -300 -152 -365 -222 -65 -70 -120 -108 -218
-149 -115 -47 -160 -91 -206 -201 -43 -105 -84 -163 -150 -215 -112 -88 -190
-247 -264 -544 -84 -337 -128 -417 -239 -429 -63 -7 -63 -7 -63 -621 0 -614 0
-614 58 -621 128 -15 193 -83 266 -277 49 -130 110 -204 226 -273 101 -60 121
-91 129 -197 6 -82 6 -82 899 -85 892 -2 892 -2 892 42 0 227 144 376 365 376
45 0 45 0 45 474 0 473 0 473 -76 479 -132 12 -195 51 -246 152 -78 154 -152
203 -343 226 -49 6 -117 17 -150 24 -251 58 -743 55 -979 -5 -171 -43 -230
-38 -290 26 -51 56 -60 98 -53 267 10 260 53 425 136 519 133 150 180 226 232
364 28 73 61 103 181 164 114 57 154 90 203 165 51 77 85 103 190 146 267 107
327 228 173 350 -120 95 -225 114 -353 65z m292 -2487 c270 -40 289 -49 403
-205 20 -26 62 -64 95 -85 119 -75 145 -108 145 -184 0 -75 -28 -105 -159
-171 -74 -37 -111 -64 -169 -122 -81 -80 -103 -93 -282 -155 -194 -68 -529
-64 -675 7 -91 45 -333 265 -366 333 -49 102 -18 228 88 355 27 31 63 75 82
98 40 49 105 93 170 115 121 39 450 47 668 14z"/>
</g>
</svg>
