<svg xmlns="http://www.w3.org/2000/svg" viewBox="0 0 387.487 583.785">
<g transform="translate(37.498766,548.692318) scale(0.100000,-0.100000)" fill="#000000" stroke="none" fill-rule="evenodd">
<path d="M 1310 4969 C 1241 4953 1171 4933 1106 4905 C 1040 4876 977 4841 918 4800 C 860 4759 806 4711 756 4660 C 707 4609 663 4552 624 4493 C 585 4434 551 4370 522 4305 C 494 4240 471 4172 454 4103 C 438 4034 427 3963 423 3892 C 420 3821 423 3748 434 3678 C 445 3608 464 3537 490 3470 C 515 3404 549 3340 587 3280 C 625 3220 669 3163 717 3111 C 764 3058 817 3009 873 2966 C 929 2922 989 2882 1051 2849 C 1113 2816 1179 2783 1246 2765 C 1314 2746 1385 2732 1454 2740 C 1523 2747 1593 2791 1660 2809 C 1728 2827 1792 2837 1857 2850 C 1922 2864 1986 2874 2050 2890 C 2114 2906 2177 2927 2241 2946 C 2306 2966 2369 2995 2438 3009 C 2506 3022 2584 3041 2650 3027 C 2715 3013 2789 2975 2832 2925 C 2875 2875 2896 2794 2906 2726 C 2917 2657 2904 2582 2896 2513 C 2888 2443 2872 2376 2858 2309 C 2844 2242 2830 2175 2814 2108 C 2798 2042 2782 1974 2764 1908 C 2745 1841 2724 1774 2701 1709 C 2677 1644 2651 1578 2622 1515 C 2592 1452 2559 1389 2522 1329 C 2486 1270 2445 1212 2402 1156 C 2360 1101 2315 1048 2269 996 C 2223 945 2176 894 2127 845 C 2079 796 2029 748 1978 701 C 1926 655 1871 610 1819 567 C 1766 525 1709 486 1663 448 C 1617 410 1551 372 1541 338 C 1530 304 1557 257 1600 245 C 1643 234 1735 249 1799 270 C 1864 292 1927 335 1986 373 C 2045 411 2099 455 2153 499 C 2207 543 2259 588 2310 636 C 2360 684 2409 734 2456 787 C 2502 839 2546 894 2586 951 C 2627 1008 2665 1067 2700 1127 C 2735 1187 2768 1249 2798 1311 C 2828 1374 2856 1437 2882 1502 C 2908 1566 2932 1631 2954 1697 C 2976 1763 2995 1830 3013 1896 C 3031 1963 3047 2030 3062 2096 C 3078 2163 3092 2230 3106 2298 C 3119 2365 3132 2433 3142 2501 C 3153 2569 3163 2638 3171 2706 C 3179 2774 3185 2843 3191 2912 C 3196 2980 3200 3049 3203 3118 C 3206 3187 3208 3256 3206 3325 C 3205 3394 3203 3464 3196 3534 C 3189 3603 3179 3674 3165 3742 C 3150 3811 3132 3879 3110 3945 C 3089 4012 3065 4077 3038 4141 C 3011 4206 2982 4269 2950 4331 C 2917 4393 2882 4454 2841 4512 C 2800 4570 2756 4626 2706 4677 C 2656 4727 2601 4775 2542 4814 C 2482 4854 2417 4887 2351 4913 C 2284 4938 2214 4956 2145 4969 C 2076 4983 2006 4990 1936 4996 C 1867 5002 1798 5004 1728 5004 C 1659 5005 1589 5004 1519 4998 C 1450 4992 1379 4984 1310 4969 Z M 1969 4531 C 2028 4518 2087 4497 2145 4474 C 2202 4451 2261 4425 2314 4395 C 2366 4366 2417 4334 2458 4294 C 2500 4256 2534 4211 2561 4161 C 2587 4112 2604 4055 2616 3998 C 2628 3941 2632 3879 2630 3819 C 2629 3760 2622 3698 2608 3641 C 2594 3585 2574 3529 2546 3480 C 2517 3432 2480 3387 2438 3349 C 2396 3310 2344 3278 2292 3249 C 2239 3220 2181 3196 2123 3176 C 2065 3155 2004 3137 1944 3125 C 1884 3113 1825 3104 1765 3104 C 1705 3103 1645 3110 1586 3122 C 1526 3133 1465 3150 1408 3171 C 1351 3192 1294 3217 1244 3247 C 1194 3278 1146 3313 1106 3355 C 1067 3396 1033 3444 1007 3495 C 981 3546 963 3603 951 3660 C 939 3718 934 3780 935 3839 C 936 3898 942 3960 956 4017 C 969 4074 988 4130 1016 4180 C 1044 4229 1080 4273 1122 4312 C 1163 4351 1215 4383 1267 4412 C 1319 4442 1378 4466 1436 4487 C 1493 4508 1553 4526 1613 4537 C 1672 4548 1732 4554 1792 4553 C 1851 4552 1910 4544 1969 4531 Z"/>
</g>
</svg>
