<svg xmlns="http://www.w3.org/2000/svg" viewBox="0 0 387.487 583.785">
<g transform="rotate(180 193.7435 291.8925)">
<g transform="translate(37.498766,548.692318) scale(0.100000,-0.100000)" fill="#000000" stroke="none" fill-rule="evenodd">
<path d="M 1321 4916 C 1252 4902 1186 4884 1123 4857 C 1060 4830 999 4795 943 4755 C 888 4715 836 4668 789 4617 C 742 4567 700 4511 662 4453 C 625 4396 593 4334 566 4270 C 539 4207 518 4142 502 4073 C 487 4004 476 3926 474 3856 C 472 3785 477 3717 490 3650 C 503 3583 524 3516 552 3453 C 580 3390 616 3330 655 3274 C 695 3218 740 3164 788 3115 C 836 3066 889 3020 944 2979 C 1000 2939 1058 2904 1121 2873 C 1185 2843 1259 2817 1326 2797 C 1394 2777 1460 2761 1528 2756 C 1595 2750 1665 2758 1732 2764 C 1799 2770 1866 2779 1931 2791 C 1997 2803 2062 2818 2127 2837 C 2191 2855 2255 2878 2318 2901 C 2382 2924 2441 2957 2505 2975 C 2569 2992 2646 3017 2701 3005 C 2756 2994 2807 2953 2834 2905 C 2862 2857 2864 2782 2865 2717 C 2865 2652 2848 2582 2836 2515 C 2824 2447 2808 2381 2793 2314 C 2779 2247 2765 2180 2750 2114 C 2735 2047 2721 1981 2702 1913 C 2683 1845 2660 1771 2636 1705 C 2612 1638 2586 1576 2557 1514 C 2527 1452 2495 1391 2458 1333 C 2421 1275 2378 1220 2335 1167 C 2292 1113 2246 1063 2199 1012 C 2153 962 2106 912 2057 863 C 2009 814 1962 767 1909 720 C 1856 673 1795 624 1740 582 C 1684 541 1622 508 1575 472 C 1528 436 1471 402 1459 368 C 1446 334 1464 287 1499 270 C 1534 253 1610 252 1668 266 C 1727 279 1792 317 1850 351 C 1909 385 1962 428 2018 470 C 2075 513 2134 562 2187 608 C 2241 655 2291 699 2339 748 C 2388 797 2434 848 2477 902 C 2520 956 2559 1013 2596 1071 C 2633 1128 2667 1188 2699 1249 C 2731 1310 2760 1372 2788 1435 C 2815 1498 2842 1559 2866 1626 C 2890 1692 2912 1766 2932 1834 C 2951 1902 2966 1966 2982 2033 C 2998 2100 3014 2166 3028 2233 C 3043 2300 3056 2368 3068 2435 C 3080 2503 3091 2571 3100 2639 C 3109 2707 3116 2775 3122 2844 C 3128 2912 3133 2978 3137 3049 C 3141 3119 3144 3196 3145 3266 C 3146 3337 3146 3404 3142 3473 C 3137 3541 3131 3611 3119 3678 C 3107 3746 3090 3814 3070 3879 C 3050 3945 3025 4010 3000 4073 C 2975 4137 2948 4201 2918 4262 C 2888 4324 2858 4384 2819 4444 C 2781 4503 2735 4567 2688 4619 C 2641 4672 2591 4718 2535 4758 C 2480 4798 2418 4832 2355 4858 C 2292 4883 2223 4898 2156 4911 C 2088 4924 2019 4928 1951 4934 C 1882 4939 1814 4942 1745 4943 C 1676 4944 1609 4945 1539 4940 C 1468 4936 1390 4930 1321 4916 Z M 1986 4602 C 2050 4587 2109 4562 2169 4537 C 2230 4513 2291 4488 2349 4457 C 2406 4426 2468 4391 2514 4349 C 2561 4306 2598 4258 2627 4203 C 2656 4147 2675 4079 2688 4016 C 2700 3952 2704 3889 2702 3824 C 2701 3758 2695 3686 2680 3623 C 2666 3561 2646 3501 2616 3447 C 2585 3393 2546 3344 2500 3302 C 2453 3259 2392 3221 2335 3190 C 2278 3159 2218 3137 2156 3114 C 2093 3092 2023 3070 1959 3056 C 1895 3042 1834 3029 1770 3029 C 1705 3028 1636 3039 1572 3052 C 1508 3065 1445 3084 1384 3106 C 1323 3128 1263 3150 1207 3183 C 1152 3216 1094 3257 1050 3303 C 1006 3348 970 3399 942 3456 C 913 3512 892 3580 879 3643 C 866 3707 863 3771 863 3835 C 864 3899 869 3963 882 4026 C 896 4090 917 4158 946 4213 C 976 4269 1013 4317 1060 4360 C 1106 4403 1167 4439 1224 4471 C 1281 4502 1341 4526 1403 4549 C 1466 4572 1534 4595 1598 4608 C 1662 4621 1724 4628 1788 4627 C 1853 4626 1923 4617 1986 4602 Z"/>
</g>
</g>
</svg>
