<svg xmlns="http://www.w3.org/2000/svg" viewBox="0 0 180.023723 241.482756">
<g transform="translate(0.023723,241.482756) scale(0.100000,-0.100000)" fill="#000000" stroke="none">
<path d="M965 2406 c-77 -24 -190 -91 -251 -148 -39 -37 -88 -70 -135 -92 -87
-40 -97 -50 -138 -139 -22 -49 -46 -83 -85 -119 -75 -68 -126 -173 -167 -345
-39 -160 -83 -257 -119 -261 -14 -1 -35 -5 -48 -8 l-22 -4 2 -383 3 -382 41
-5 c70 -10 92 -32 146 -148 53 -114 90 -162 150 -193 52 -27 76 -62 83 -125
l7 -54 553 0 553 0 6 23 c3 12 6 38 6 57 1 88 86 168 188 177 l62 6 0 297 0
298 -60 4 c-72 5 -105 26 -140 91 -54 98 -93 122 -224 143 -191 31 -256 37
-426 37 -147 -1 -188 -4 -254 -22 -115 -31 -161 -28 -197 10 -38 41 -44 83
-31 224 14 158 33 207 115 310 39 47 81 113 96 149 35 84 51 101 133 142 42
21 79 49 100 75 60 76 83 95 133 114 78 29 150 79 164 113 11 27 10 35 -5 62
-25 42 -110 97 -159 104 -22 3 -58 -1 -80 -8z m208 -1571 c113 -20 132 -30
189 -104 26 -33 64 -69 85 -80 56 -28 78 -56 78 -101 0 -48 -24 -75 -93 -106
-29 -13 -79 -48 -110 -78 -49 -47 -74 -61 -158 -92 l-99 -36 -145 4 c-176 4
-198 12 -319 121 -105 95 -121 118 -121 182 0 60 15 91 93 186 68 82 114 107
221 119 96 12 272 5 379 -15z"/>
</g>
</svg>
