<svg xmlns="http://www.w3.org/2000/svg" viewBox="0 0 139.082237 369.786695">
<g transform="translate(0.000000,369.786695) scale(0.100000,-0.100000)" fill="#000000" stroke="none">
<path d="M632 3693 l-632 -3 0 -195 0 -195 490 0 c530 0 541 -1 558 -53 4 -12
5 -508 2 -1102 -3 -594 -1 -1088 3 -1098 15 -34 69 -47 190 -47 99 0 116 3
131 19 16 17 17 112 17 1332 l0 1314 -22 18 c-14 11 -35 16 -63 15 -22 -2
-326 -4 -674 -5z"/>
<path d="M524 678 c-11 -13 -28 -35 -36 -49 -12 -19 -28 -28 -58 -33 -114 -18
-125 -43 -125 -280 l0 -179 45 -32 c33 -23 47 -41 54 -68 l10 -37 236 0 236 0
10 37 c7 27 21 45 54 68 l45 32 3 165 2 166 -51 56 c-29 31 -66 63 -84 70 -18
8 -45 31 -61 52 -16 22 -33 42 -39 46 -5 4 -58 8 -116 8 -97 0 -107 -2 -125
-22z"/>
</g>
</svg>
