<svg xmlns="http://www.w3.org/2000/svg" viewBox="0 0 169.938836 339.798517">
<g transform="translate(0.000000,339.798517) scale(0.100000,-0.100000)" fill="#000000" stroke="none">
<path d="M783 3393 l-783 -3 0 -195 0 -195 683 0 c654 0 685 -1 701 -19 15
-17 16 -126 16 -1500 l0 -1481 145 0 145 0 0 1608 c0 884 3 1637 6 1674 6 62
5 68 -19 92 -21 21 -34 26 -69 24 -24 -2 -395 -4 -825 -5z"/>
<path d="M504 2654 c-21 -25 -50 -52 -65 -60 -40 -20 -49 -65 -43 -207 7 -160
8 -164 50 -184 25 -13 44 -34 66 -76 75 -140 218 -179 283 -77 14 22 38 46 55
55 40 20 50 43 50 110 0 43 7 69 31 116 34 65 34 90 -4 143 -16 22 -22 50 -27
114 -7 114 -4 112 -201 112 l-158 0 -37 -46z"/>
<path d="M560 1803 c-8 -3 -38 -28 -67 -57 -28 -28 -60 -59 -72 -68 -20 -17
-21 -28 -21 -178 0 -175 6 -202 57 -261 17 -19 40 -52 51 -75 26 -51 54 -63
159 -66 74 -3 84 -1 107 21 14 13 28 33 32 43 3 10 23 27 43 38 46 23 51 34
51 106 0 49 4 58 39 97 21 23 41 52 45 63 9 29 -9 71 -49 116 -32 35 -35 43
-35 103 0 57 -3 69 -25 90 -23 24 -31 25 -133 25 -60 0 -122 2 -138 5 -16 2
-36 2 -44 -2z"/>
<path d="M549 899 c-14 -5 -36 -28 -49 -50 -12 -23 -37 -50 -55 -60 -18 -11
-36 -30 -39 -42 -10 -40 -7 -375 5 -400 6 -13 24 -31 40 -41 16 -9 34 -27 40
-39 32 -62 44 -67 166 -67 l114 0 54 51 c37 35 61 68 74 103 10 28 33 77 50
110 43 80 43 151 2 199 -16 18 -40 57 -54 87 -15 34 -44 74 -75 103 l-51 47
-78 0 c-43 0 -87 2 -98 5 -11 2 -32 0 -46 -6z"/>
</g>
</svg>
