<svg xmlns="http://www.w3.org/2000/svg" viewBox="0 0 271.378289 543.778649">
<g transform="translate(0.000000,543.778649) scale(0.100000,-0.100000)" fill="#000000" stroke="none">
<path d="M1257 5433 c-1257 -3 -1257 -3 -1257 -318 0 -315 0 -315 1080 -315
1177 0 1122 3 1149 -56 9 -21 12 -526 11 -2386 0 -2358 0 -2358 235 -2358 235
0 235 0 237 2668 3 2955 9 2719 -62 2754 -22 12 -53 17 -85 16 -27 -2 -616 -4
-1308 -5z"/>
<path d="M905 4321 c-45 -11 -69 -29 -101 -78 -16 -24 -53 -59 -82 -79 -86
-58 -88 -63 -84 -329 4 -264 4 -264 84 -317 47 -31 63 -50 95 -110 81 -156
204 -234 337 -214 47 7 72 27 134 105 19 23 51 53 73 66 60 39 71 63 78 178 6
94 10 110 49 187 52 103 52 120 0 217 -40 76 -42 81 -47 195 -9 174 -7 173
-239 175 -97 0 -197 3 -222 6 -25 3 -58 2 -75 -2z"/>
<path d="M876 2871 c-21 -9 -50 -37 -71 -66 -19 -27 -58 -66 -87 -85 -79 -53
-78 -49 -75 -340 2 -291 5 -302 90 -397 25 -28 60 -79 77 -112 47 -88 71 -100
229 -113 155 -13 178 -5 239 82 23 33 55 64 81 79 62 34 81 71 81 158 0 92 10
117 71 179 83 84 84 163 4 252 -62 69 -72 96 -77 198 -7 162 -20 170 -315 176
-180 5 -217 3 -247 -11z"/>
<path d="M878 1433 c-25 -10 -47 -31 -68 -64 -18 -27 -58 -72 -91 -100 -78
-67 -79 -73 -79 -389 0 -316 1 -322 79 -389 33 -28 73 -73 90 -100 17 -26 43
-54 59 -61 39 -18 322 -14 370 5 73 31 211 203 212 264 0 7 23 55 50 106 86
159 90 263 15 363 -24 31 -59 91 -79 132 -41 87 -156 212 -209 228 -60 19
-307 22 -349 5z"/>
</g>
</svg>
