<svg xmlns="http://www.w3.org/2000/svg" viewBox="0 0 223.290138 591.783514">
<g transform="translate(0.000000,591.783514) scale(0.100000,-0.100000)" fill="#000000" stroke="none">
<path d="M1017 5913 c-1017 -3 -1017 -3 -1017 -318 0 -315 0 -315 793 -317
792 -3 792 -3 828 -25 45 -29 64 -64 63 -122 -9 -563 -3 -3456 7 -3468 41 -48
108 -62 307 -64 164 -1 184 4 217 55 24 37 24 4176 0 4213 -22 33 -75 53 -132
51 -26 -2 -506 -4 -1066 -5z"/>
<path d="M862 1108 c-12 -6 -38 -35 -58 -65 -42 -64 -62 -77 -133 -92 -165
-35 -190 -89 -191 -420 -2 -276 -1 -283 15 -307 8 -12 40 -39 72 -60 53 -36
60 -44 78 -101 19 -63 19 -63 397 -63 378 0 378 0 384 28 20 91 27 100 105
145 51 29 74 69 72 127 -1 19 -2 122 -3 228 0 169 -3 199 -19 230 -27 52 -157
174 -214 201 -35 17 -58 38 -84 77 -55 83 -59 84 -240 83 -92 0 -167 -5 -181
-11z"/>
</g>
</svg>
