<svg xmlns="http://www.w3.org/2000/svg" viewBox="0 0 319.269672 519.781794">
<g transform="translate(0.000000,519.781955) scale(0.100000,-0.100000)" fill="#000000" stroke="none">
<path d="M1468 5193 c-1468 -3 -1468 -3 -1468 -298 0 -295 0 -295 1295 -295
1349 0 1363 0 1427 -43 60 -41 71 -74 69 -205 -2 -65 -3 -1070 -4 -2234 -2
-2118 -2 -2118 200 -2118 203 0 203 0 205 2523 2 1387 -1 2538 -6 2557 -18 75
-100 122 -201 117 -27 -1 -710 -3 -1517 -4z"/>
<path d="M940 3613 c-362 -54 -605 -369 -525 -678 135 -517 1055 -556 1294
-56 183 384 -264 811 -769 734z"/>
</g>
</svg>
