<svg xmlns="http://www.w3.org/2000/svg" viewBox="0 0 339.273357 679.781799">
<g transform="translate(0.000000,679.781799) scale(0.100000,-0.100000)" fill="#000000" stroke="none">
<path d="M1568 6793 c-1568 -3 -1568 -3 -1568 -398 0 -395 0 -395 1354 -397
1355 -3 1355 -3 1383 -24 70 -53 64 252 63 -3028 0 -2946 0 -2946 295 -2946
295 0 295 0 297 3322 2 1828 -1 3339 -6 3358 -18 75 -100 122 -201 117 -27 -1
-755 -3 -1617 -4z"/>
<path d="M1349 5328 C1697 5328 1978 5046 1978 4698 C1978 4350 1697 4068 1349 4068 C1001 4068 720 4350 720 4698 C720 5046 1001 5328 1349 5328 Z"/>
<path d="M1382 3541 C1737 3541 2025 3253 2025 2898 C2025 2543 1737 2255 1382 2255 C1027 2255 739 2543 739 2898 C739 3253 1027 3541 1382 3541 Z"/>
<path d="M1380 1742 C1733 1742 2019 1456 2019 1103 C2019 750 1733 464 1380 464 C1027 464 741 750 741 1103 C741 1456 1027 1742 1380 1742 Z"/>
</g>
</svg>
