<svg xmlns="http://www.w3.org/2000/svg" viewBox="0 0 339.273357 679.781799">
<g transform="translate(0.000000,679.781799) scale(0.100000,-0.100000)" fill="#000000" stroke="none">
<path d="M1568 6793 c-1568 -3 -1568 -3 -1568 -398 0 -395 0 -395 1354 -397
1355 -3 1355 -3 1383 -24 70 -53 64 252 63 -3028 0 -2946 0 -2946 295 -2946
295 0 295 0 297 3322 2 1828 -1 3339 -6 3358 -18 75 -100 122 -201 117 -27 -1
-755 -3 -1617 -4z"/>
<path d="M1143 5400 c-56 -12 -82 -30 -148 -106 -31 -35 -77 -79 -102 -96 -95
-68 -98 -84 -95 -397 4 -326 5 -329 96 -398 75 -57 86 -69 138 -163 82 -147
195 -233 323 -246 106 -11 135 3 256 127 59 60 112 109 117 109 32 0 62 87 71
203 8 108 12 122 55 214 63 135 63 175 0 304 -45 92 -46 97 -53 220 -13 217
-32 230 -327 227 -109 0 -219 2 -244 5 -25 3 -64 2 -87 -3z"/>
<path d="M1135 3600 c-48 -11 -68 -25 -130 -95 -32 -37 -83 -85 -113 -107 -88
-65 -91 -75 -91 -393 0 -358 7 -393 114 -525 29 -36 67 -90 85 -120 74 -124
111 -144 295 -161 184 -17 192 -14 321 117 56 57 107 104 113 104 31 0 63 78
71 178 11 119 23 151 82 217 105 117 107 202 6 325 -69 84 -79 111 -90 233
-12 145 -37 190 -121 216 -37 11 -498 21 -542 11z"/>
<path d="M1138 1800 c-47 -9 -80 -31 -115 -77 -15 -21 -65 -75 -110 -120 -112
-114 -108 -94 -108 -503 0 -408 -4 -387 108 -502 45 -46 96 -102 114 -125 53
-67 76 -73 277 -73 278 0 406 81 495 315 13 33 50 115 84 183 94 189 95 315 2
447 -23 33 -65 106 -94 161 -64 126 -159 231 -242 268 -57 25 -323 42 -411 26z"/>
</g>
</svg>
