<svg xmlns="http://www.w3.org/2000/svg" viewBox="0 0 255.371107 415.778844">
<g transform="translate(-0.000000,415.778844) scale(0.100000,-0.100000)" fill="#000000" stroke="none">
<path d="M1178 4153 c-1178 -3 -1178 -3 -1178 -238 0 -235 0 -235 1046 -235
1114 0 1111 0 1159 -50 26 -27 26 -27 25 -1829 -1 -1801 -1 -1801 159 -1801
160 0 160 0 163 2028 3 2246 8 2079 -62 2114 -22 12 -53 17 -85 16 -27 -2
-580 -4 -1227 -5z"/>
<path d="M721 2885 c-127 -24 -158 -40 -258 -138 -121 -118 -137 -153 -138
-302 0 -220 100 -331 360 -401 171 -46 317 -29 492 56 189 93 279 328 193 506
-24 49 -169 191 -235 230 -94 55 -274 76 -414 49z"/>
</g>
</svg>
