<svg xmlns="http://www.w3.org/2000/svg" viewBox="0 0 279.271913 739.733340">
<g transform="translate(-0.000000,739.733340) scale(0.100000,-0.100000)" fill="#000000" stroke="none">
<path d="M1268 7393 c-1268 -3 -1268 -3 -1268 -398 0 -395 0 -395 958 -395
1059 0 1027 2 1096 -63 41 -39 61 -102 52 -167 -19 -140 -7 -4254 12 -4279 52
-71 154 -94 403 -89 195 3 219 11 253 82 23 50 26 5178 2 5224 -32 61 -97 92
-186 89 -30 -1 -625 -3 -1322 -4z"/>
<path d="M1094 1386 c-17 -8 -49 -36 -70 -62 -70 -87 -101 -112 -161 -129
-242 -67 -255 -94 -259 -544 -4 -376 -5 -371 99 -445 69 -49 99 -95 112 -168
7 -38 7 -38 485 -38 478 0 478 0 489 51 16 72 33 97 109 154 78 59 102 100
103 176 4 293 -3 498 -18 543 -21 66 -156 207 -248 261 -42 24 -91 66 -132
112 -37 41 -79 81 -94 89 -39 19 -370 19 -415 0z"/>
</g>
</svg>
