<svg xmlns="http://www.w3.org/2000/svg" viewBox="0 0 159.938836 259.798787">
<g transform="translate(0.000000,259.798787) scale(0.100000,-0.100000)" fill="#000000" stroke="none">
<path d="M733 2593 l-733 -3 0 -145 0 -145 660 0 c554 0 666 -2 695 -14 19 -8
35 -21 35 -28 1 -7 0 -518 0 -1135 l-1 -1123 101 0 100 0 0 1208 c0 664 3
1237 6 1274 6 62 5 68 -19 92 -21 21 -34 26 -69 24 -24 -2 -373 -4 -775 -5z"/>
<path d="M421 1799 c-55 -11 -80 -27 -147 -97 -59 -60 -74 -97 -74 -180 0 -64
20 -116 63 -160 41 -43 76 -61 162 -83 86 -23 128 -23 208 -3 96 24 154 61
201 127 38 54 41 63 41 125 0 52 -6 76 -24 107 -35 61 -135 142 -194 160 -54
16 -165 18 -236 4z"/>
</g>
</svg>
