<svg xmlns="http://www.w3.org/2000/svg" viewBox="0 0 224.054849 377.317120">
<g transform="translate(-15.923691,386.578266) scale(0.100000,-0.100000)" fill="#000000" stroke="none">
<path d="M2025 3861 c-27 -4 -356 -8 -730 -10 -757 -3 -725 0 -773 -71 -33
-48 -28 -171 9 -246 43 -87 30 -85 539 -86 477 -1 470 0 470 -54 0 -26 -29
-90 -63 -137 -11 -16 -49 -48 -86 -72 -36 -23 -77 -55 -91 -70 -14 -15 -56
-49 -95 -75 -38 -26 -83 -62 -100 -80 -16 -18 -57 -50 -90 -73 -33 -22 -82
-61 -110 -87 -27 -25 -77 -66 -110 -90 -33 -24 -85 -66 -116 -94 -31 -28 -78
-69 -104 -90 -56 -47 -69 -73 -89 -192 -21 -116 -20 -160 4 -211 42 -94 85
-99 435 -48 347 50 362 51 490 27 61 -11 133 -24 160 -27 69 -9 109 -28 163
-76 26 -23 68 -52 95 -65 81 -41 159 -196 159 -316 0 -72 -79 -323 -116 -369
-17 -21 -66 -82 -108 -136 -47 -59 -98 -112 -130 -133 -29 -19 -85 -63 -126
-96 -48 -40 -99 -71 -143 -89 -39 -15 -93 -45 -120 -67 -65 -51 -91 -61 -220
-87 -58 -11 -180 -43 -270 -70 -131 -39 -190 -51 -294 -60 -213 -20 -264 -43
-295 -137 -60 -181 147 -332 364 -265 37 11 136 30 219 42 199 27 298 51 432
103 61 24 141 54 178 66 47 15 89 39 135 76 37 29 96 66 132 81 36 14 79 37
95 50 17 13 62 48 100 77 86 66 235 217 279 282 17 27 48 70 67 95 19 25 50
87 68 138 36 100 81 158 133 168 28 6 28 6 28 297 -1 291 -1 291 -40 309 -56
26 -83 67 -119 178 -32 99 -57 132 -138 188 -18 12 -56 42 -84 66 -29 25 -86
58 -128 76 -42 17 -103 46 -136 64 -79 44 -147 62 -276 75 -165 16 -219 41
-219 101 0 37 24 63 101 112 99 63 195 135 268 202 36 34 92 76 124 94 32 18
91 63 131 100 90 81 191 163 261 213 69 49 86 88 97 218 21 232 -37 306 -217
281z"/>
</g>
</svg>
