<svg xmlns="http://www.w3.org/2000/svg" viewBox="0 0 292.604663 502.004628">
<g transform="translate(-17.037436,500.269516) scale(0.100000,-0.100000)" fill="#000000" stroke="none" >
<path d="M 556 652 C 601 687 584 655 608 658 C 633 662 670 667 704 672 C 737 677 772 683 807 689 C 841 695 875 702 909 709 C 943 716 977 724 1011 733 C 1045 741 1078 750 1112 760 C 1145 769 1178 779 1211 790 C 1244 800 1277 812 1309 823 C 1341 835 1373 847 1404 860 C 1436 873 1467 887 1498 901 C 1528 915 1561 931 1588 945 C 1616 960 1636 970 1662 986 C 1689 1001 1720 1019 1749 1037 C 1777 1055 1805 1074 1832 1093 C 1859 1112 1886 1132 1912 1152 C 1938 1172 1964 1194 1988 1215 C 2013 1237 2037 1259 2060 1282 C 2084 1305 2106 1328 2128 1352 C 2149 1376 2170 1400 2190 1425 C 2210 1450 2229 1476 2247 1502 C 2265 1528 2282 1554 2297 1581 C 2313 1608 2328 1635 2341 1662 C 2354 1690 2367 1720 2376 1745 C 2386 1770 2392 1788 2399 1813 C 2406 1838 2413 1867 2417 1894 C 2421 1920 2424 1946 2424 1972 C 2425 1997 2424 2022 2421 2047 C 2418 2072 2413 2097 2407 2122 C 2401 2146 2392 2171 2382 2194 C 2373 2218 2361 2241 2348 2264 C 2335 2286 2320 2308 2304 2329 C 2287 2350 2270 2370 2251 2389 C 2232 2408 2211 2426 2190 2443 C 2168 2460 2145 2475 2121 2490 C 2097 2505 2069 2519 2045 2531 C 2021 2543 2003 2551 1977 2561 C 1951 2571 1919 2582 1888 2591 C 1858 2601 1826 2609 1792 2618 C 1758 2627 1724 2634 1685 2644 C 1647 2654 1608 2661 1563 2676 C 1519 2690 1469 2703 1419 2732 C 1369 2760 1306 2796 1262 2847 C 1218 2899 1174 2974 1154 3041 C 1134 3107 1136 3184 1142 3246 C 1148 3309 1170 3364 1190 3414 C 1210 3464 1238 3510 1261 3548 C 1283 3587 1302 3611 1327 3644 C 1352 3677 1382 3713 1410 3745 C 1438 3777 1466 3806 1494 3835 C 1521 3864 1548 3891 1574 3918 C 1600 3944 1625 3970 1649 3995 C 1672 4020 1695 4045 1715 4070 C 1736 4094 1755 4118 1772 4142 C 1788 4165 1804 4189 1815 4210 C 1827 4231 1836 4253 1841 4268 C 1847 4283 1846 4296 1848 4300 C 1850 4304 1849 4295 1851 4291 C 1854 4286 1863 4277 1863 4275 C 1862 4273 1862 4278 1850 4281 C 1838 4284 1817 4291 1793 4295 C 1768 4299 1737 4302 1705 4305 C 1674 4307 1638 4308 1603 4310 C 1568 4311 1531 4311 1495 4312 C 1458 4312 1420 4313 1383 4313 C 1345 4314 1307 4314 1270 4314 C 1232 4315 1192 4315 1158 4316 C 1124 4317 1109 4309 1064 4318 C 1019 4327 931 4314 888 4370 C 844 4427 776 4580 802 4656 C 829 4732 997 4797 1047 4825 C 1097 4853 1076 4824 1102 4824 C 1128 4824 1167 4823 1202 4822 C 1238 4822 1276 4821 1313 4821 C 1350 4820 1388 4820 1426 4820 C 1463 4819 1501 4819 1540 4818 C 1579 4817 1618 4817 1658 4815 C 1699 4813 1740 4812 1785 4807 C 1829 4802 1875 4798 1926 4785 C 1977 4772 2034 4760 2089 4729 C 2143 4698 2209 4654 2252 4598 C 2295 4543 2329 4458 2346 4396 C 2362 4334 2357 4283 2350 4228 C 2343 4172 2323 4111 2304 4060 C 2285 4010 2260 3967 2236 3925 C 2211 3884 2184 3846 2157 3810 C 2130 3775 2102 3742 2074 3710 C 2046 3678 2018 3648 1991 3619 C 1963 3591 1936 3563 1910 3537 C 1884 3510 1859 3484 1836 3459 C 1812 3434 1789 3409 1769 3385 C 1749 3361 1730 3337 1713 3314 C 1697 3291 1682 3267 1671 3247 C 1660 3226 1652 3205 1648 3192 C 1643 3180 1645 3172 1644 3170 C 1642 3169 1642 3178 1640 3181 C 1638 3185 1629 3193 1633 3193 C 1636 3192 1645 3184 1662 3177 C 1680 3171 1708 3161 1738 3153 C 1767 3145 1804 3137 1840 3128 C 1876 3119 1916 3110 1956 3099 C 1996 3088 2037 3077 2078 3063 C 2119 3049 2161 3034 2202 3016 C 2244 2998 2285 2979 2326 2957 C 2366 2935 2406 2911 2445 2884 C 2483 2857 2524 2825 2556 2797 C 2589 2768 2612 2746 2642 2713 C 2671 2681 2705 2640 2733 2601 C 2760 2562 2786 2520 2809 2478 C 2831 2435 2851 2390 2868 2344 C 2885 2298 2898 2250 2908 2202 C 2919 2154 2926 2105 2929 2056 C 2932 2007 2932 1958 2928 1909 C 2925 1861 2918 1813 2909 1766 C 2900 1720 2887 1675 2873 1631 C 2859 1587 2843 1544 2825 1503 C 2807 1462 2786 1418 2767 1382 C 2748 1347 2733 1321 2712 1287 C 2690 1253 2664 1214 2639 1179 C 2614 1144 2587 1110 2560 1077 C 2532 1044 2504 1012 2475 981 C 2445 950 2415 920 2384 890 C 2354 861 2322 833 2290 806 C 2258 779 2225 753 2191 728 C 2158 702 2124 678 2089 654 C 2055 631 2020 609 1984 587 C 1949 565 1913 544 1876 525 C 1840 505 1803 486 1766 468 C 1729 449 1688 431 1654 416 C 1619 400 1594 390 1559 376 C 1524 362 1482 347 1444 334 C 1405 320 1367 307 1328 295 C 1289 283 1250 272 1212 261 C 1173 251 1134 241 1094 232 C 1055 222 1016 214 976 206 C 937 197 897 190 858 183 C 819 177 777 170 742 165 C 706 160 692 150 646 152 C 599 155 514 129 463 179 C 411 228 322 370 337 449 C 353 528 510 617 556 652 Z"/>
</g>
</svg>
