<svg xmlns="http://www.w3.org/2000/svg" viewBox="0 0 281.095106 472.134823">
<g transform="translate(-19.490849,482.792121) scale(0.100000,-0.100000)" fill="#000000" stroke="none">
<path d="M1635 4820 c-936 -5 -884 -2 -949 -59 -103 -91 -67 -351 59 -423 40
-23 40 -23 583 -28 544 -5 544 -5 563 -29 44 -54 -5 -182 -97 -255 -104 -83
-168 -132 -247 -193 -45 -35 -107 -85 -137 -112 -30 -26 -91 -74 -135 -105
-44 -32 -118 -90 -165 -131 -47 -40 -121 -103 -165 -139 -245 -201 -262 -217
-287 -263 -75 -138 -86 -386 -21 -463 68 -81 134 -86 458 -36 500 78 482 77
798 22 171 -30 205 -42 267 -95 26 -22 78 -60 117 -85 110 -71 153 -138 199
-309 32 -122 -46 -441 -138 -563 -103 -137 -230 -283 -276 -318 -30 -22 -96
-74 -146 -114 -58 -46 -131 -92 -203 -127 -62 -30 -136 -72 -166 -94 -70 -53
-106 -67 -248 -96 -66 -14 -204 -50 -307 -80 -187 -56 -298 -78 -447 -90 -278
-21 -397 -138 -334 -326 44 -132 279 -240 412 -190 50 19 258 61 423 85 175
25 274 53 519 145 197 75 237 94 309 149 39 30 116 75 171 101 55 26 127 70
160 97 33 27 83 66 110 86 162 118 414 433 476 591 57 149 112 220 179 234 50
9 47 736 -3 752 -70 23 -122 100 -172 250 -40 121 -227 296 -405 379 -41 19
-131 60 -200 92 -139 65 -172 74 -344 95 -303 37 -346 123 -133 273 200 140
274 196 332 252 33 31 100 82 148 113 48 32 119 85 156 120 76 70 238 202 323
265 104 76 126 130 135 327 11 231 -48 308 -229 303 -46 -2 -470 -5 -943 -8z"/>
</g>
</svg>
