<svg xmlns="http://www.w3.org/2000/svg" viewBox="0 0 139.910613 235.688516">
<g transform="translate(-10.089387,241.353575) scale(0.100000,-0.100000)" fill="#000000" stroke="none">
<path d="M840 2410 c-486 -5 -497 -6 -520 -50 -13 -24 -12 -84 3 -135 9 -30
21 -45 47 -58 32 -16 61 -18 305 -15 149 1 276 -1 283 -6 29 -18 -24 -118 -80
-151 -18 -10 -53 -36 -78 -57 -25 -21 -72 -60 -104 -88 -33 -27 -63 -50 -67
-50 -5 0 -33 -21 -63 -47 -30 -27 -84 -73 -121 -103 -130 -105 -124 -97 -141
-185 -17 -92 -13 -134 19 -162 36 -33 58 -35 207 -13 200 29 288 34 361 22 35
-6 83 -14 107 -18 29 -4 58 -18 87 -42 24 -21 59 -46 77 -57 24 -15 40 -37 57
-80 32 -77 31 -120 -2 -226 -22 -71 -38 -99 -92 -167 -36 -45 -82 -94 -103
-109 -20 -15 -56 -44 -80 -65 -24 -20 -65 -44 -92 -53 -26 -9 -56 -25 -66 -36
-27 -30 -62 -46 -119 -54 -28 -4 -104 -23 -170 -42 -66 -19 -169 -41 -228 -48
-132 -15 -157 -32 -164 -112 -5 -45 -2 -53 26 -85 21 -25 47 -40 86 -51 51
-14 60 -14 122 3 38 10 111 24 163 30 52 6 113 17 135 23 95 26 268 98 298
123 17 15 56 38 86 51 137 61 328 264 381 405 19 52 66 108 91 108 5 0 9 76 9
178 l0 179 -37 24 c-32 20 -42 35 -61 96 -22 69 -27 76 -99 134 -41 33 -92 68
-112 76 -20 8 -67 30 -106 49 -53 25 -89 35 -145 40 -100 8 -139 21 -152 50
-10 20 -8 28 12 49 13 14 28 25 33 25 12 0 187 131 187 140 0 4 24 23 53 41
28 18 73 51 98 73 25 23 72 61 104 86 123 96 116 85 126 188 10 95 2 130 -33
159 -22 18 -44 19 -528 13z"/>
</g>
</svg>
