<svg xmlns="http://www.w3.org/2000/svg" viewBox="0 0 206.756483 289.820863">
<g transform="translate(-17.243517,304.000000) scale(0.100000,-0.100000)" fill="#000000" stroke="none">
<path d="M276 3024 c-3 -9 -6 -26 -6 -38 0 -12 -11 -60 -25 -106 -25 -83 -25
-86 -25 -484 0 -368 -2 -407 -20 -476 -34 -127 -36 -203 -9 -300 21 -77 23
-113 28 -385 6 -300 6 -300 44 -385 21 -47 48 -116 59 -155 28 -97 51 -139 97
-175 21 -17 56 -56 77 -86 64 -89 274 -225 391 -253 312 -73 652 -42 812 72
25 19 72 48 103 66 32 18 74 53 95 79 20 26 61 71 90 100 45 45 56 65 74 125
45 155 83 220 149 247 30 12 30 12 30 1020 0 1007 0 1007 -24 1018 -30 14 -56
52 -65 95 -7 32 -7 32 -118 35 -111 3 -111 3 -118 -55 -4 -32 -12 -94 -19
-138 -8 -55 -12 -199 -10 -455 2 -426 4 -417 -74 -453 -75 -35 -1122 -34
-1192 0 -73 36 -84 64 -76 197 16 299 10 647 -13 721 -12 38 -25 96 -28 127
-6 58 -6 58 -113 58 -89 0 -109 -3 -114 -16z m1504 -1444 c92 -34 100 -60 100
-317 0 -235 -2 -247 -78 -423 -55 -128 -80 -159 -220 -270 -101 -80 -117 -87
-250 -106 -179 -25 -370 4 -450 69 -225 184 -216 171 -289 383 -48 139 -48
139 -47 344 1 255 17 296 131 325 69 19 1053 14 1103 -5z"/>
</g>
</svg>
