<svg xmlns="http://www.w3.org/2000/svg" viewBox="0 0 128.911278 180.890371">
<g transform="translate(-11.088722,190.000000) scale(0.100000,-0.100000)" fill="#000000" stroke="none">
<path d="M170 1877 c0 -13 -7 -46 -16 -73 -12 -39 -15 -98 -14 -299 0 -194 -3
-262 -15 -305 -19 -70 -19 -151 0 -214 11 -36 15 -98 15 -225 0 -164 2 -179
24 -227 13 -28 31 -76 40 -107 26 -90 160 -227 287 -292 14 -8 63 -21 109 -31
151 -30 381 -5 455 49 16 13 51 35 78 50 26 16 47 32 47 36 0 5 20 29 44 53
50 50 59 65 75 132 14 58 39 96 75 116 l26 13 0 623 0 622 -30 30 c-16 17 -30
40 -30 51 0 19 -6 21 -69 21 l-69 0 -11 -75 c-6 -42 -11 -190 -11 -330 l0
-254 -27 -21 c-26 -20 -33 -21 -400 -18 -365 3 -373 3 -394 24 -20 21 -21 30
-20 215 1 107 4 214 7 239 4 28 0 62 -9 90 -8 25 -18 64 -22 88 l-7 42 -69 0
c-66 0 -69 -1 -69 -23z m931 -887 c65 -18 74 -37 77 -169 2 -65 -1 -139 -6
-167 -11 -54 -73 -199 -95 -224 -28 -30 -119 -102 -146 -116 -49 -25 -168 -36
-251 -23 -90 13 -97 17 -193 96 l-74 61 -37 109 c-34 103 -36 117 -36 234 0
140 8 165 60 191 31 16 70 18 350 18 179 0 331 -4 351 -10z"/>
</g>
</svg>
