<svg xmlns="http://www.w3.org/2000/svg" viewBox="0 0 276.610365 367.572283">
<g transform="translate(-14.993777,392.685715) scale(0.100000,-0.100000)" fill="#000000" stroke="none" fill-rule="evenodd" >
<path d="M 2671 3794 C 2666 3795 2665 3796 2650 3797 C 2635 3798 2608 3799 2583 3800 C 2558 3800 2526 3800 2501 3799 C 2476 3798 2449 3796 2434 3794 C 2420 3793 2418 3791 2414 3790 C 2412 3784 2407 3778 2404 3762 C 2400 3747 2395 3724 2391 3698 C 2386 3674 2381 3641 2377 3612 C 2373 3583 2369 3554 2366 3524 C 2364 3495 2362 3466 2361 3436 C 2359 3407 2359 3377 2358 3348 C 2358 3318 2357 3288 2357 3259 C 2356 3230 2356 3200 2356 3170 C 2356 3141 2356 3111 2355 3082 C 2355 3052 2355 3023 2355 2993 C 2355 2964 2355 2934 2355 2905 C 2354 2875 2354 2846 2354 2816 C 2354 2786 2354 2757 2354 2727 C 2354 2698 2354 2668 2353 2639 C 2352 2610 2351 2577 2347 2552 C 2344 2528 2337 2505 2332 2490 C 2328 2475 2322 2470 2318 2464 C 2317 2462 2314 2460 2310 2456 C 2306 2452 2300 2446 2294 2441 C 2288 2436 2280 2430 2272 2426 C 2264 2422 2255 2419 2247 2416 C 2238 2413 2229 2412 2220 2410 C 2211 2408 2202 2407 2193 2406 C 2184 2405 2175 2404 2166 2403 C 2157 2402 2148 2402 2139 2401 C 2130 2400 2121 2400 2112 2400 C 2103 2399 2094 2399 2084 2398 C 2075 2398 2066 2398 2057 2397 C 2048 2397 2039 2397 2030 2397 C 2021 2396 2012 2396 2003 2396 C 1994 2396 1985 2396 1976 2396 C 1966 2395 1957 2395 1948 2395 C 1939 2395 1930 2395 1921 2395 C 1912 2395 1903 2394 1894 2394 C 1885 2394 1876 2394 1866 2394 C 1857 2394 1848 2394 1839 2394 C 1830 2394 1821 2394 1812 2394 C 1803 2394 1794 2393 1785 2393 C 1776 2393 1766 2393 1757 2393 C 1748 2393 1739 2393 1730 2393 C 1721 2393 1712 2393 1703 2393 C 1694 2393 1685 2393 1676 2393 C 1666 2393 1658 2392 1648 2392 C 1639 2392 1630 2392 1621 2392 C 1612 2392 1603 2392 1594 2392 C 1585 2392 1576 2392 1567 2392 C 1558 2392 1550 2392 1539 2392 C 1529 2392 1516 2392 1505 2392 C 1495 2392 1487 2392 1478 2392 C 1469 2392 1460 2392 1451 2392 C 1442 2392 1432 2392 1424 2391 C 1414 2391 1405 2391 1396 2391 C 1387 2391 1378 2391 1369 2391 C 1360 2391 1351 2391 1342 2391 C 1333 2391 1324 2391 1314 2391 C 1305 2391 1296 2391 1287 2391 C 1278 2391 1269 2391 1260 2391 C 1251 2391 1242 2391 1233 2391 C 1224 2391 1214 2391 1205 2391 C 1196 2391 1187 2391 1178 2391 C 1169 2391 1160 2392 1151 2392 C 1142 2392 1133 2392 1124 2392 C 1114 2392 1105 2392 1096 2392 C 1087 2392 1078 2392 1069 2392 C 1060 2393 1051 2393 1042 2393 C 1033 2393 1024 2393 1014 2394 C 1006 2394 996 2394 987 2394 C 978 2395 969 2395 960 2396 C 951 2396 942 2396 933 2397 C 924 2398 915 2398 906 2399 C 897 2400 888 2400 878 2402 C 870 2403 860 2404 852 2405 C 843 2407 834 2408 825 2411 C 816 2413 807 2416 799 2419 C 790 2422 782 2425 774 2429 C 766 2433 758 2437 750 2442 C 742 2447 731 2454 726 2457 C 720 2461 718 2463 716 2465 C 714 2471 709 2477 705 2492 C 701 2508 695 2531 692 2556 C 689 2581 687 2614 686 2643 C 685 2672 685 2702 685 2732 C 685 2761 685 2791 685 2820 C 686 2850 686 2879 686 2909 C 686 2938 687 2968 687 2997 C 687 3027 688 3056 688 3086 C 688 3116 689 3145 689 3175 C 689 3204 689 3234 689 3263 C 689 3293 689 3322 689 3352 C 688 3381 687 3411 685 3440 C 682 3470 678 3499 673 3528 C 668 3557 660 3586 654 3614 C 648 3643 642 3675 637 3700 C 632 3725 629 3749 626 3764 C 622 3779 619 3785 617 3792 C 580 3744 496 3709 446 3577 C 396 3444 345 3248 318 2997 C 292 2746 261 2380 286 2069 C 311 1759 345 1399 468 1136 C 592 873 797 612 1025 492 C 1254 373 1594 343 1838 420 C 2082 498 2337 719 2490 955 C 2642 1191 2705 1530 2754 1836 C 2804 2141 2787 2516 2785 2786 C 2783 3055 2761 3284 2742 3453 C 2723 3621 2687 3719 2671 3794 Z M 2295 1932 C 2298 1927 2303 1922 2308 1910 C 2313 1898 2321 1880 2326 1860 C 2332 1839 2336 1812 2339 1788 C 2342 1764 2344 1738 2345 1714 C 2346 1689 2347 1664 2347 1639 C 2348 1614 2348 1589 2348 1564 C 2348 1540 2349 1515 2348 1490 C 2348 1464 2348 1436 2346 1411 C 2345 1385 2343 1361 2340 1337 C 2337 1312 2333 1288 2327 1263 C 2321 1239 2314 1216 2306 1192 C 2298 1168 2289 1145 2280 1122 C 2270 1099 2261 1077 2250 1054 C 2240 1030 2229 1005 2218 982 C 2206 959 2196 937 2183 916 C 2170 895 2157 874 2141 855 C 2125 836 2106 820 2088 803 C 2070 787 2050 772 2030 756 C 2011 741 1992 725 1972 710 C 1951 695 1928 679 1907 666 C 1885 653 1863 642 1840 633 C 1817 623 1794 615 1770 608 C 1746 601 1722 595 1698 590 C 1673 585 1649 582 1624 578 C 1599 575 1575 573 1550 571 C 1524 570 1496 569 1471 570 C 1445 570 1421 571 1397 573 C 1372 575 1347 578 1323 583 C 1298 587 1274 592 1250 599 C 1226 606 1203 614 1180 624 C 1158 635 1137 647 1116 660 C 1094 674 1072 691 1052 706 C 1031 722 1013 738 994 754 C 976 770 957 787 940 805 C 922 823 906 841 890 860 C 874 879 858 899 844 919 C 830 939 817 960 805 982 C 792 1004 780 1029 770 1053 C 759 1076 751 1099 743 1122 C 735 1146 729 1170 723 1194 C 717 1218 712 1242 708 1267 C 703 1291 700 1316 697 1340 C 694 1365 692 1389 690 1415 C 688 1440 687 1468 686 1494 C 686 1519 685 1543 685 1568 C 685 1593 686 1618 686 1643 C 687 1668 688 1693 689 1717 C 691 1742 693 1767 697 1791 C 701 1816 707 1842 714 1862 C 721 1883 732 1903 738 1915 C 744 1927 749 1931 752 1936 C 778 1942 818 1956 872 1964 C 925 1972 990 1978 1073 1983 C 1156 1988 1268 1990 1369 1991 C 1470 1992 1578 1992 1679 1990 C 1780 1988 1892 1984 1975 1979 C 2058 1974 2122 1968 2176 1960 C 2229 1952 2269 1938 2295 1932 Z"/>
</g>
</svg>
