<svg xmlns="http://www.w3.org/2000/svg" viewBox="0 0 258.596280 362.377564">
<g transform="translate(-21.958196,380.000000) scale(0.100000,-0.100000)" fill="#000000" stroke="none">
<path d="M340 3766 c0 -19 -14 -88 -32 -153 -32 -118 -32 -118 -34 -618 -1
-500 -1 -500 -28 -612 -35 -151 -35 -265 0 -399 25 -95 26 -111 28 -429 3
-362 5 -377 70 -524 18 -42 46 -116 61 -166 36 -120 46 -136 129 -225 39 -42
92 -100 117 -130 54 -65 276 -219 365 -255 287 -116 843 -101 1050 27 228 142
255 162 317 231 36 40 84 92 107 117 50 53 80 112 104 199 36 132 100 227 174
258 41 17 53 2545 12 2558 -30 9 -69 63 -82 111 -12 44 -12 44 -154 44 -142 0
-142 0 -149 -62 -3 -35 -13 -101 -22 -148 -13 -70 -16 -173 -18 -570 -2 -575
2 -511 -36 -555 -61 -69 -59 -69 -753 -73 -654 -3 -727 0 -800 41 -88 48 -84
23 -79 559 5 473 5 473 -26 592 -17 65 -31 140 -31 167 0 49 0 49 -145 49
-145 0 -145 0 -145 -34z m1844 -1787 c143 -28 160 -67 164 -373 4 -295 -4
-340 -93 -543 -80 -181 -98 -209 -177 -269 -35 -27 -90 -71 -123 -98 -181
-149 -644 -173 -832 -43 -326 226 -438 457 -438 907 0 346 29 405 214 428 84
11 1229 3 1285 -9z"/>
</g>
</svg>
