<svg xmlns="http://www.w3.org/2000/svg" viewBox="0 0 133.193562 512.000000">
<g transform="translate(-13.511853,512.000000) scale(0.100000,-0.100000)" fill="#000000" stroke="none">
<path d="M170 5093 c0 -16 -9 -62 -20 -103 -23 -83 -20 -113 13 -152 29 -35
217 -149 310 -188 45 -18 87 -45 108 -66 19 -20 61 -57 94 -81 108 -81 261
-236 290 -294 15 -30 44 -77 65 -104 105 -142 142 -363 105 -631 -24 -168 -21
-161 -118 -304 -13 -19 -35 -64 -48 -100 -13 -35 -45 -92 -70 -126 -26 -34
-62 -86 -80 -115 -18 -30 -58 -81 -89 -114 -32 -33 -67 -80 -80 -104 -12 -25
-44 -67 -70 -95 -27 -28 -66 -83 -89 -122 -22 -40 -63 -101 -90 -138 -38 -50
-57 -88 -77 -154 -14 -48 -48 -127 -74 -177 -60 -112 -64 -127 -91 -360 -24
-213 -23 -393 5 -570 26 -163 38 -204 78 -269 21 -33 56 -95 77 -136 66 -128
295 -361 424 -434 69 -38 101 -74 112 -128 7 -28 7 -28 125 -28 117 0 117 0
134 89 28 152 18 181 -86 255 -31 23 -84 61 -118 86 -98 71 -263 241 -299 310
-18 33 -42 72 -55 87 -48 57 -66 111 -86 251 -41 289 -8 570 90 757 26 50 55
115 65 145 24 76 40 104 91 167 24 30 56 77 70 104 14 28 49 76 78 108 29 31
71 84 93 117 23 32 60 77 83 99 26 24 56 69 77 114 19 41 51 95 72 120 43 52
60 82 94 161 13 30 42 83 65 118 51 80 56 94 86 277 40 238 42 299 16 465 -39
263 -27 227 -163 480 -31 57 -76 125 -100 150 -25 25 -59 67 -76 93 -18 26
-51 60 -74 75 -23 14 -70 52 -105 84 -34 32 -79 67 -100 77 -20 11 -60 39 -89
64 -68 58 -102 78 -193 112 -84 32 -137 76 -146 124 -6 31 -6 31 -120 31 -114
0 -114 0 -114 -27z"/>
</g>
</svg>
