<svg xmlns="http://www.w3.org/2000/svg" viewBox="0 0 83.231839 320.000000">
<g transform="translate(-8.277282,320.000000) scale(0.100000,-0.100000)" fill="#000000" stroke="none">
<path d="M96 3129 c-18 -70 -18 -72 1 -97 21 -28 121 -92 198 -126 28 -13 68
-39 90 -59 22 -20 74 -66 115 -103 41 -37 91 -93 110 -125 19 -31 44 -69 54
-84 47 -66 66 -238 43 -383 -13 -76 -21 -100 -50 -140 -20 -26 -44 -71 -55
-100 -11 -29 -34 -68 -51 -87 -17 -20 -40 -53 -51 -75 -11 -22 -30 -46 -41
-53 -11 -6 -34 -34 -51 -62 -17 -27 -46 -67 -64 -88 -19 -20 -34 -41 -34 -46
0 -5 -21 -37 -46 -71 -25 -34 -53 -86 -61 -114 -8 -28 -31 -82 -50 -119 -29
-58 -36 -89 -48 -190 -27 -223 -10 -444 39 -537 14 -25 36 -68 50 -96 29 -60
208 -245 265 -274 42 -21 66 -46 75 -77 7 -21 13 -23 80 -23 l73 0 12 70 c15
80 6 105 -48 138 -83 51 -233 193 -271 256 -17 28 -40 66 -51 84 -13 20 -27
70 -36 130 -25 162 -1 362 57 471 16 31 37 76 45 101 9 25 28 61 43 80 16 19
39 53 52 75 24 40 68 96 147 184 23 26 51 67 61 92 11 24 31 58 46 76 14 17
36 53 48 80 11 26 34 67 50 91 31 45 50 125 68 283 9 75 7 108 -10 215 -18
114 -25 135 -72 222 -28 54 -68 116 -87 140 -70 84 -97 109 -261 237 -25 19
-70 47 -100 61 -30 13 -66 30 -80 37 -14 7 -32 27 -40 44 -15 32 -17 33 -80
33 l-66 0 -18 -71z"/>
</g>
</svg>
