<svg xmlns="http://www.w3.org/2000/svg" viewBox="0 0 168.069507 432.547252">
<g transform="translate(-12.809863,449.574012) scale(0.100000,-0.100000)" fill="#000000" stroke="none">
<path d="M424 4490 c-119 -37 -131 -169 -25 -283 32 -34 72 -83 89 -108 17
-26 51 -62 74 -80 86 -67 220 -199 270 -266 27 -37 60 -79 73 -93 13 -14 37
-54 55 -90 18 -36 51 -90 75 -120 61 -80 70 -101 99 -245 16 -85 42 -169 72
-243 58 -142 61 -174 53 -567 -6 -312 -18 -392 -79 -505 -6 -11 -26 -82 -45
-156 -34 -133 -47 -164 -120 -266 -18 -26 -42 -75 -54 -109 -12 -37 -43 -91
-75 -133 -29 -39 -66 -96 -81 -125 -15 -30 -51 -80 -80 -110 -28 -31 -70 -83
-92 -116 -23 -33 -55 -73 -73 -90 -18 -16 -50 -57 -73 -90 -22 -33 -66 -87
-97 -120 -31 -33 -73 -86 -94 -117 -20 -31 -56 -74 -79 -94 -93 -84 -114 -149
-57 -179 60 -31 130 -13 202 53 24 22 72 54 108 72 35 18 91 58 125 90 33 31
80 71 105 87 25 17 61 48 80 68 19 20 63 57 98 81 34 25 62 49 62 54 0 5 37
47 83 94 155 159 234 251 260 301 14 28 47 75 73 105 26 30 67 98 92 150 24
52 62 120 84 150 24 34 48 86 64 140 15 47 46 122 70 167 52 95 67 158 89 373
8 85 24 204 35 264 24 130 25 195 4 341 -8 61 -21 169 -30 240 -18 164 -32
212 -89 305 -25 41 -55 107 -66 145 -25 81 -48 131 -91 189 -16 22 -49 83 -73
133 -27 58 -62 112 -93 145 -27 29 -64 76 -82 103 -79 116 -229 247 -444 388
-70 46 -329 89 -402 67z"/>
</g>
</svg>
