<svg xmlns="http://www.w3.org/2000/svg" viewBox="0 0 104.701663 270.384266">
<g transform="translate(-8.140027,280.964437) scale(0.100000,-0.100000)" fill="#000000" stroke="none">
<path d="M231 2782 c-17 -17 -31 -40 -31 -52 0 -31 29 -89 51 -101 10 -5 30
-30 45 -54 14 -25 45 -59 68 -75 74 -52 195 -191 240 -275 14 -28 39 -68 56
-90 22 -30 34 -62 46 -125 9 -47 30 -116 47 -155 l32 -70 0 -240 0 -240 -32
-83 c-17 -45 -39 -116 -48 -157 -12 -54 -26 -87 -51 -117 -19 -24 -41 -64 -50
-90 -8 -26 -29 -64 -46 -85 -16 -21 -39 -56 -50 -78 -11 -22 -39 -61 -62 -87
-22 -27 -59 -69 -81 -94 -22 -25 -49 -61 -60 -78 -20 -33 -77 -101 -173 -206
-42 -46 -53 -64 -50 -86 2 -21 10 -30 31 -35 36 -10 70 3 114 41 19 17 49 36
67 44 18 8 59 37 90 65 31 28 60 51 64 51 8 0 211 199 300 293 28 31 52 62 52
69 0 7 19 36 41 63 23 28 51 73 64 100 12 28 36 72 53 99 17 27 39 74 47 104
9 30 28 72 42 93 20 31 28 62 39 151 7 62 21 166 30 231 16 111 16 125 0 260
-26 212 -33 246 -66 296 -16 26 -38 75 -49 109 -10 34 -31 78 -46 97 -14 20
-37 59 -50 89 -43 97 -213 283 -330 361 -89 60 -125 72 -237 81 -76 7 -77 6
-107 -24z"/>
</g>
</svg>
