<svg xmlns="http://www.w3.org/2000/svg" viewBox="0 0 185.292543 510.087104">
<g transform="translate(-101.227720,495.377961) scale(0.100000,-0.100000)" fill="#000000" stroke="none" >
<path d="M 1448 4784 C 1493 4790 1469 4775 1488 4767 C 1508 4758 1537 4746 1564 4734 C 1590 4723 1618 4710 1646 4698 C 1673 4686 1700 4674 1728 4662 C 1755 4649 1782 4637 1809 4625 C 1836 4613 1864 4601 1891 4589 C 1918 4576 1945 4564 1973 4552 C 2000 4540 2028 4527 2055 4515 C 2083 4502 2110 4489 2139 4476 C 2167 4463 2195 4449 2224 4434 C 2253 4420 2285 4403 2312 4387 C 2340 4371 2360 4360 2388 4340 C 2417 4319 2451 4295 2481 4266 C 2511 4238 2543 4205 2568 4168 C 2593 4130 2618 4086 2633 4041 C 2648 3996 2657 3945 2660 3898 C 2662 3852 2656 3804 2648 3761 C 2639 3718 2624 3678 2610 3641 C 2595 3604 2577 3571 2559 3539 C 2541 3507 2522 3478 2502 3450 C 2483 3422 2464 3395 2444 3370 C 2425 3344 2405 3319 2386 3295 C 2366 3271 2346 3246 2328 3224 C 2311 3203 2299 3188 2282 3168 C 2266 3147 2247 3123 2230 3102 C 2213 3080 2197 3058 2182 3036 C 2167 3015 2152 2993 2139 2972 C 2125 2950 2113 2928 2101 2906 C 2089 2884 2078 2862 2069 2840 C 2059 2818 2050 2795 2042 2773 C 2034 2750 2027 2728 2022 2707 C 2017 2686 2014 2665 2011 2646 C 2009 2626 2009 2609 2010 2591 C 2011 2574 2013 2557 2018 2539 C 2022 2521 2029 2500 2036 2482 C 2043 2463 2049 2448 2059 2428 C 2069 2408 2082 2382 2094 2360 C 2107 2337 2120 2314 2134 2292 C 2148 2270 2162 2249 2177 2228 C 2191 2207 2206 2188 2222 2168 C 2238 2149 2254 2130 2272 2112 C 2289 2093 2308 2075 2327 2056 C 2347 2036 2368 2018 2389 1997 C 2411 1977 2434 1956 2458 1933 C 2481 1909 2506 1885 2530 1857 C 2554 1829 2582 1796 2602 1764 C 2622 1733 2638 1707 2654 1669 C 2668 1631 2685 1581 2692 1535 C 2698 1489 2698 1439 2693 1394 C 2688 1348 2675 1303 2661 1263 C 2647 1223 2627 1186 2608 1152 C 2589 1118 2568 1088 2546 1059 C 2525 1030 2503 1004 2481 978 C 2459 952 2437 929 2415 905 C 2393 882 2371 859 2349 837 C 2326 815 2304 794 2282 772 C 2260 751 2239 730 2217 709 C 2195 688 2171 666 2151 647 C 2131 628 2117 615 2097 596 C 2077 578 2054 556 2032 535 C 2011 515 1990 495 1968 475 C 1948 455 1927 434 1906 415 C 1886 395 1866 375 1848 355 C 1829 335 1810 316 1793 296 C 1776 276 1760 257 1745 238 C 1730 218 1716 198 1703 180 C 1691 162 1694 154 1672 128 C 1650 103 1627 35 1571 25 C 1515 15 1379 22 1335 69 C 1290 116 1305 261 1304 308 C 1303 355 1316 331 1329 352 C 1342 372 1361 405 1380 432 C 1399 459 1421 488 1442 515 C 1464 541 1486 567 1508 591 C 1530 616 1553 639 1575 662 C 1597 684 1619 706 1642 728 C 1664 749 1686 770 1708 791 C 1730 812 1751 833 1773 853 C 1795 874 1817 894 1838 914 C 1860 935 1882 955 1903 975 C 1924 996 1947 1018 1967 1036 C 1986 1055 2000 1068 2019 1086 C 2038 1105 2060 1127 2079 1147 C 2099 1166 2118 1186 2136 1206 C 2154 1226 2172 1246 2188 1265 C 2204 1284 2219 1304 2232 1322 C 2244 1340 2255 1358 2264 1374 C 2272 1391 2278 1406 2282 1420 C 2286 1433 2288 1444 2288 1455 C 2289 1466 2288 1474 2285 1485 C 2282 1496 2279 1507 2272 1520 C 2265 1532 2256 1547 2244 1562 C 2232 1578 2215 1596 2200 1612 C 2185 1628 2172 1640 2153 1658 C 2135 1676 2111 1697 2089 1718 C 2067 1739 2043 1761 2020 1784 C 1997 1807 1973 1832 1950 1857 C 1928 1882 1905 1909 1884 1936 C 1863 1963 1843 1991 1824 2019 C 1804 2047 1787 2076 1770 2104 C 1752 2133 1736 2161 1720 2191 C 1705 2221 1689 2251 1675 2284 C 1661 2317 1646 2351 1635 2388 C 1624 2425 1614 2466 1608 2506 C 1602 2546 1600 2592 1601 2629 C 1601 2666 1604 2694 1610 2728 C 1615 2763 1624 2803 1634 2838 C 1644 2874 1655 2908 1668 2941 C 1680 2974 1694 3006 1709 3037 C 1724 3069 1740 3100 1757 3130 C 1774 3159 1792 3189 1810 3217 C 1828 3245 1848 3272 1867 3299 C 1886 3325 1906 3350 1925 3375 C 1944 3400 1964 3424 1983 3448 C 2002 3472 2021 3495 2039 3517 C 2058 3540 2077 3564 2093 3584 C 2109 3605 2120 3619 2135 3639 C 2149 3658 2166 3682 2179 3702 C 2192 3722 2205 3743 2214 3762 C 2224 3781 2233 3800 2239 3816 C 2244 3832 2248 3847 2250 3859 C 2252 3872 2251 3881 2250 3891 C 2249 3900 2247 3907 2243 3916 C 2239 3924 2234 3933 2225 3944 C 2216 3954 2204 3966 2190 3978 C 2176 3989 2158 4002 2139 4014 C 2120 4026 2098 4039 2075 4051 C 2052 4063 2025 4077 2002 4088 C 1980 4099 1962 4107 1938 4118 C 1914 4129 1885 4142 1859 4155 C 1832 4167 1805 4179 1778 4191 C 1751 4203 1724 4215 1697 4227 C 1670 4239 1642 4252 1615 4264 C 1588 4276 1561 4288 1534 4300 C 1507 4312 1480 4324 1453 4336 C 1426 4348 1398 4360 1374 4371 C 1350 4381 1338 4379 1308 4399 C 1278 4419 1208 4436 1192 4491 C 1176 4546 1171 4681 1213 4730 C 1256 4779 1402 4778 1448 4784 Z"/>
</g>
</svg>
