<svg xmlns="http://www.w3.org/2000/svg" viewBox="0 0 320.000000 480.492435">
<g transform="translate(0.000000,480.107386) scale(0.100000,-0.100000)" fill="#000000" stroke="none">
<path d="M1173 4784 c-183 -67 -112 -286 121 -374 45 -17 94 -36 110 -42 15
-6 64 -33 109 -60 95 -58 122 -70 224 -99 86 -24 144 -50 248 -114 39 -24 110
-57 159 -74 226 -79 223 -156 -14 -406 -42 -44 -97 -107 -122 -140 -25 -33
-67 -80 -93 -105 -26 -25 -73 -79 -105 -120 -32 -41 -70 -86 -85 -100 -15 -14
-54 -59 -88 -100 -150 -186 -168 -199 -397 -273 -155 -51 -155 -51 -550 -52
-395 -1 -395 -1 -485 -28 -49 -15 -116 -31 -148 -34 -57 -6 -57 -6 -57 -154 0
-149 0 -149 50 -149 27 0 105 -12 172 -26 123 -27 123 -27 478 -22 386 5 373
7 480 -54 36 -20 107 -48 159 -63 114 -32 133 -41 202 -100 30 -26 88 -67 130
-92 42 -25 103 -69 137 -99 33 -30 93 -73 134 -95 40 -23 106 -68 145 -100 40
-32 104 -74 143 -95 166 -87 166 -168 2 -331 -78 -78 -117 -114 -517 -487
-519 -484 -519 -484 -379 -682 24 -33 48 -72 53 -87 16 -41 115 -41 125 0 13
49 68 114 144 170 43 31 113 90 157 131 88 83 175 164 585 549 151 142 309
288 351 325 169 149 217 281 142 389 -53 76 -155 175 -208 202 -28 14 -91 55
-140 92 -49 36 -119 82 -157 102 -80 42 -154 118 -193 197 -61 126 -60 126
528 126 477 0 477 0 477 211 0 211 0 211 -522 209 -616 -3 -549 -6 -587 26
-85 72 -65 137 97 309 70 75 159 173 197 219 66 80 122 142 296 329 265 286
282 473 52 586 -34 17 -66 31 -70 31 -5 0 -58 29 -118 65 -63 38 -140 75 -180
86 -140 41 -163 50 -221 86 -122 75 -162 94 -271 128 -70 22 -154 59 -220 96
-177 98 -367 135 -480 93z"/>
</g>
</svg>
