<svg xmlns="http://www.w3.org/2000/svg" viewBox="0 0 255.885025 384.061430">
<g transform="translate(-0.114975,384.061430) scale(0.100000,-0.100000)" fill="#000000" stroke="none">
<path d="M935 3829 c-162 -60 -89 -232 133 -313 48 -18 115 -51 150 -74 61
-39 95 -53 212 -86 30 -8 91 -38 135 -66 48 -30 113 -60 163 -76 200 -61 184
-104 -185 -503 -33 -36 -79 -90 -101 -119 -22 -30 -49 -60 -61 -68 -11 -8 -41
-43 -67 -77 -106 -140 -161 -183 -264 -207 -30 -7 -84 -24 -120 -38 -64 -24
-68 -24 -325 -21 -359 5 -352 5 -424 -20 -35 -12 -89 -25 -120 -29 -56 -7 -56
-7 -59 -125 -3 -117 -3 -117 40 -117 24 0 81 -10 128 -21 88 -22 363 -28 595
-13 90 6 90 6 165 -40 49 -30 99 -51 146 -61 76 -17 93 -26 175 -93 29 -24 71
-53 93 -64 23 -11 66 -44 96 -72 31 -28 85 -66 120 -85 36 -18 83 -50 106 -71
22 -20 77 -56 121 -79 165 -86 149 -127 -164 -418 -185 -173 -261 -245 -345
-328 -48 -47 -91 -85 -96 -85 -5 0 -48 -43 -95 -95 -112 -124 -114 -150 -21
-272 19 -24 37 -55 40 -69 5 -21 12 -24 53 -24 47 0 47 0 73 54 20 40 43 66
85 97 73 54 251 215 452 409 38 36 112 106 166 155 54 50 119 111 144 136 25
25 78 73 117 107 132 112 184 224 137 292 -50 74 -137 159 -192 188 -32 18
-80 50 -107 72 -26 21 -75 54 -108 71 -94 50 -111 64 -160 139 -89 135 -104
130 386 130 408 0 408 0 408 166 0 165 0 165 -428 163 -450 -2 -455 -2 -486
43 -44 63 -23 104 130 260 66 68 135 144 152 170 18 26 46 57 63 69 17 12 51
49 76 83 25 34 67 81 93 106 73 67 160 213 160 266 0 90 -47 148 -157 194 -42
18 -106 51 -142 75 -47 31 -95 52 -165 71 -76 21 -118 40 -178 80 -59 39 -102
59 -165 75 -52 14 -118 41 -169 71 -144 82 -320 120 -409 87z"/>
</g>
</svg>
