<svg xmlns="http://www.w3.org/2000/svg" viewBox="0 0 160.000000 239.705625">
<g transform="translate(0.000000,239.705625) scale(0.100000,-0.100000)" fill="#000000" stroke="none">
<path d="M580 2394 c-31 -13 -50 -38 -50 -67 0 -44 69 -109 140 -131 30 -10
70 -29 88 -43 18 -14 68 -36 110 -49 43 -13 93 -35 112 -49 19 -14 65 -35 103
-46 79 -23 101 -51 75 -91 -15 -22 -109 -131 -197 -228 -44 -48 -120 -136
-189 -218 -32 -38 -53 -54 -85 -63 -23 -6 -68 -20 -99 -31 -50 -18 -78 -20
-245 -17 -154 2 -198 0 -242 -14 -30 -9 -65 -17 -78 -17 -22 0 -23 -3 -23 -75
l0 -75 33 0 c17 0 55 -6 82 -13 35 -9 99 -12 215 -9 91 2 175 4 187 4 13 0 43
-13 68 -30 25 -16 66 -33 91 -37 31 -4 57 -17 82 -39 20 -19 55 -43 77 -54 22
-11 51 -32 65 -47 14 -15 43 -36 65 -47 22 -12 55 -34 74 -51 19 -16 51 -36
70 -44 53 -22 71 -42 71 -78 0 -28 -15 -46 -116 -141 -333 -312 -444 -424
-444 -447 0 -11 19 -49 42 -84 34 -51 47 -63 68 -63 20 0 30 8 43 34 9 19 40
52 69 74 29 22 87 73 129 113 41 41 126 121 188 179 296 275 311 292 311 343
0 37 -80 132 -135 159 -22 11 -50 30 -63 41 -13 12 -48 35 -79 52 -41 21 -68
46 -96 86 -22 31 -36 62 -33 68 5 8 89 11 272 11 l264 0 0 100 0 100 -274 0
c-231 0 -277 2 -290 15 -36 37 -28 78 24 125 15 14 76 79 135 145 59 66 126
140 149 165 136 144 139 239 9 296 -29 13 -70 35 -91 49 -21 14 -68 33 -103
43 -36 10 -85 32 -110 49 -25 17 -65 36 -89 43 -25 6 -86 32 -137 57 -77 38
-104 46 -160 49 -37 2 -75 1 -83 -2z"/>
</g>
</svg>
