<svg xmlns="http://www.w3.org/2000/svg" viewBox="0 0 273.578222 301.083198">
<g transform="translate(-9.973124,300.727682) scale(0.100000,-0.100000)" fill="#000000" stroke="none">
<path d="M300 2963 c-7 -21 -52 -97 -101 -170 -91 -137 -110 -188 -94 -250 3
-15 5 -486 3 -1047 -1 -562 -2 -1050 -2 -1086 0 -60 4 -72 51 -155 52 -91 76
-150 88 -218 9 -49 2497 -56 2503 -7 2 14 20 61 40 105 66 148 51 219 -58 279
-53 29 -53 29 -1029 27 -1113 -2 -1031 -9 -1098 92 -79 118 -75 65 -75 958 0
896 -6 826 77 939 76 104 -23 95 1075 95 1093 0 1021 -6 1109 90 66 72 63 111
-19 241 -22 35 -47 82 -56 104 -25 61 -2395 64 -2414 3z"/>
</g>
</svg>
