<svg xmlns="http://www.w3.org/2000/svg" viewBox="0 0 400.000000 360.994030">
<g transform="translate(0.000000,382.392565) scale(0.100000,-0.100000)" fill="#000000" stroke="none">
<path d="M209 3808 c-63 -9 -135 -17 -161 -17 -48 -1 -48 -1 -48 -906 0 -904
0 -905 20 -905 28 0 95 -35 156 -81 99 -76 54 -72 779 -73 723 -1 722 -1 792
-69 47 -44 46 -40 47 -702 1 -678 -1 -656 80 -740 76 -79 59 -78 806 -76 488
2 684 -1 770 -11 213 -24 260 -20 377 35 56 26 118 51 137 54 36 6 36 6 36
849 0 842 0 843 -21 849 -11 4 -48 32 -82 62 -156 139 -281 126 -335 -36 -14
-39 -17 -134 -22 -611 -9 -849 43 -792 -724 -794 -693 -3 -619 -96 -626 784
-7 892 91 802 -885 810 -924 8 -855 -38 -863 570 -7 477 -7 462 13 504 55 115
89 120 820 122 692 2 689 1 778 69 154 118 99 276 -108 314 -110 20 -1597 20
-1736 -1z"/>
</g>
</svg>
