<svg xmlns="http://www.w3.org/2000/svg" viewBox="0 0 320.000000 288.289269">
<g transform="translate(-0.000000,305.465114) scale(0.100000,-0.100000)" fill="#000000" stroke="none">
<path d="M160 3044 c-36 -7 -86 -12 -112 -13 -48 -1 -48 -1 -48 -719 0 -719 0
-719 38 -730 21 -6 67 -34 102 -62 36 -27 79 -53 97 -56 17 -3 269 -7 560 -7
506 -2 530 -3 568 -22 76 -38 74 -24 73 -584 -2 -539 -2 -539 55 -599 55 -59
28 -56 707 -64 344 -4 658 -10 699 -13 71 -7 76 -6 157 34 46 23 97 44 114 47
30 7 30 7 30 675 0 456 -3 669 -10 669 -6 0 -42 29 -79 64 -86 81 -131 97
-188 70 -85 -42 -94 -100 -92 -615 2 -464 -1 -488 -65 -553 -56 -55 -79 -58
-521 -59 -451 -1 -440 -3 -473 71 -15 33 -17 93 -18 542 0 549 -1 559 -55 605
-65 54 -93 56 -666 58 -528 2 -528 2 -578 27 -92 46 -100 75 -102 380 -1 140
-3 296 -5 347 -3 109 9 133 88 173 49 25 49 25 584 30 607 6 595 4 667 99 65
85 34 163 -79 196 -70 20 -1338 28 -1448 9z"/>
</g>
</svg>
