<svg xmlns="http://www.w3.org/2000/svg" viewBox="0 0 197.584836 476.274410">
<g transform="translate(2.452230,468.553025) scale(0.100000,-0.100000)" fill="#000000" stroke="none" >
<path d="M 310 434 C 324 478 329 451 346 467 C 363 482 389 506 413 527 C 436 547 463 570 488 591 C 513 612 538 632 564 653 C 589 673 614 693 640 713 C 665 733 690 753 716 772 C 741 792 766 811 791 831 C 816 850 841 869 866 888 C 892 908 916 927 941 946 C 966 965 991 984 1015 1003 C 1040 1022 1066 1042 1088 1060 C 1110 1077 1125 1090 1146 1107 C 1166 1124 1191 1145 1211 1163 C 1232 1182 1252 1201 1270 1220 C 1288 1238 1306 1257 1320 1275 C 1334 1293 1347 1311 1357 1328 C 1366 1344 1373 1360 1378 1374 C 1383 1387 1385 1398 1385 1409 C 1386 1419 1385 1427 1382 1437 C 1380 1446 1376 1456 1369 1467 C 1362 1478 1353 1490 1340 1504 C 1327 1517 1311 1531 1292 1545 C 1274 1559 1250 1574 1230 1587 C 1210 1600 1193 1610 1170 1622 C 1147 1635 1119 1650 1092 1664 C 1065 1678 1038 1692 1009 1707 C 981 1721 953 1736 924 1751 C 895 1766 865 1781 835 1798 C 805 1815 775 1832 744 1853 C 713 1873 681 1893 650 1918 C 619 1944 587 1971 558 2004 C 528 2037 498 2074 475 2116 C 453 2159 432 2208 422 2257 C 412 2306 409 2360 413 2409 C 417 2458 433 2510 446 2550 C 459 2590 474 2616 493 2650 C 512 2683 537 2720 561 2751 C 584 2782 609 2810 634 2837 C 658 2864 684 2888 709 2912 C 734 2936 759 2959 784 2981 C 809 3004 834 3025 858 3046 C 883 3067 907 3088 932 3108 C 956 3129 980 3149 1003 3169 C 1027 3189 1050 3209 1073 3229 C 1096 3249 1118 3268 1139 3288 C 1161 3308 1183 3329 1201 3347 C 1218 3365 1231 3378 1246 3396 C 1262 3413 1279 3435 1292 3453 C 1305 3472 1316 3490 1325 3507 C 1333 3523 1339 3539 1342 3552 C 1346 3565 1347 3576 1346 3585 C 1346 3595 1345 3602 1342 3611 C 1338 3620 1334 3629 1326 3639 C 1317 3650 1306 3662 1292 3674 C 1278 3687 1260 3700 1240 3712 C 1220 3725 1197 3738 1173 3751 C 1150 3763 1124 3775 1097 3788 C 1071 3800 1041 3813 1016 3824 C 990 3835 971 3843 945 3854 C 919 3865 888 3878 859 3890 C 830 3902 801 3914 771 3926 C 742 3938 713 3949 684 3962 C 654 3974 625 3986 595 3998 C 566 4010 536 4023 506 4036 C 477 4048 447 4061 418 4074 C 388 4087 358 4101 331 4112 C 305 4124 291 4124 260 4145 C 229 4166 160 4184 146 4240 C 131 4295 129 4429 173 4476 C 216 4524 360 4519 406 4524 C 452 4528 428 4514 448 4505 C 468 4496 498 4482 525 4470 C 552 4458 581 4445 609 4433 C 637 4420 666 4408 694 4396 C 723 4384 751 4372 780 4360 C 809 4348 838 4336 867 4324 C 896 4312 925 4301 954 4289 C 984 4277 1013 4265 1042 4252 C 1072 4240 1101 4228 1131 4215 C 1161 4203 1191 4190 1221 4176 C 1252 4163 1285 4148 1314 4134 C 1342 4120 1364 4110 1393 4093 C 1423 4076 1458 4056 1491 4032 C 1524 4008 1558 3983 1589 3951 C 1620 3920 1653 3883 1678 3842 C 1702 3800 1725 3750 1737 3702 C 1749 3653 1753 3598 1751 3549 C 1748 3500 1736 3451 1722 3407 C 1708 3363 1687 3324 1667 3287 C 1646 3250 1623 3218 1599 3187 C 1576 3156 1551 3128 1526 3101 C 1502 3074 1477 3049 1452 3025 C 1427 3001 1400 2977 1377 2956 C 1354 2936 1337 2921 1315 2902 C 1292 2882 1265 2860 1241 2839 C 1217 2818 1192 2798 1169 2778 C 1145 2758 1121 2738 1098 2718 C 1076 2698 1053 2679 1031 2659 C 1010 2639 988 2620 969 2600 C 949 2580 930 2561 913 2542 C 897 2522 881 2503 868 2485 C 855 2466 844 2448 836 2432 C 828 2416 823 2401 820 2388 C 816 2376 816 2366 816 2356 C 817 2346 819 2338 822 2329 C 826 2320 829 2313 836 2302 C 844 2292 855 2278 869 2264 C 883 2251 901 2237 920 2223 C 939 2209 961 2194 984 2180 C 1007 2166 1033 2152 1058 2138 C 1084 2124 1111 2110 1138 2096 C 1165 2082 1194 2068 1222 2053 C 1250 2039 1279 2024 1308 2008 C 1338 1993 1368 1977 1398 1959 C 1428 1941 1459 1923 1490 1901 C 1521 1880 1556 1854 1584 1830 C 1613 1805 1635 1786 1660 1753 C 1686 1721 1718 1679 1739 1635 C 1760 1591 1777 1540 1785 1491 C 1792 1441 1792 1387 1785 1339 C 1779 1291 1763 1244 1746 1202 C 1729 1160 1706 1122 1684 1087 C 1661 1052 1636 1021 1611 992 C 1586 962 1560 936 1534 911 C 1509 885 1482 862 1457 839 C 1431 816 1405 795 1379 774 C 1353 753 1328 733 1302 713 C 1277 692 1249 671 1226 653 C 1203 636 1186 623 1163 605 C 1140 587 1113 567 1088 547 C 1063 528 1038 509 1013 490 C 988 471 964 452 939 433 C 914 414 890 394 866 375 C 842 356 818 337 794 318 C 771 299 747 279 724 260 C 702 241 678 220 658 203 C 638 185 634 173 604 153 C 573 134 530 77 474 84 C 417 92 292 142 265 200 C 238 258 297 389 310 434 Z"/>
</g>
</svg>
