<svg xmlns="http://www.w3.org/2000/svg" viewBox="0 0 423.096202 388.536403">
<g transform="translate(12.206202,398.209277) scale(0.100000,-0.100000)" fill="#000000" stroke="none" >
<path d="M 3947 1849 C 3974 1808 3950 1815 3952 1785 C 3954 1754 3957 1708 3959 1666 C 3962 1624 3964 1579 3965 1535 C 3967 1491 3968 1447 3968 1402 C 3969 1358 3969 1314 3968 1269 C 3968 1224 3967 1179 3964 1133 C 3961 1086 3958 1040 3952 991 C 3945 943 3938 893 3925 843 C 3912 792 3897 739 3873 688 C 3850 638 3820 584 3784 538 C 3748 492 3698 446 3656 413 C 3614 380 3577 361 3531 339 C 3484 318 3427 299 3376 285 C 3326 271 3276 264 3228 257 C 3179 250 3132 246 3086 243 C 3040 240 2995 239 2949 238 C 2904 237 2860 236 2815 237 C 2770 238 2725 239 2679 241 C 2632 244 2586 247 2538 253 C 2489 259 2440 266 2389 279 C 2338 292 2285 306 2234 330 C 2183 354 2129 383 2083 420 C 2037 456 1991 506 1958 549 C 1925 592 1906 628 1885 675 C 1864 722 1846 779 1832 830 C 1819 880 1812 930 1805 977 C 1798 1025 1795 1071 1791 1116 C 1787 1161 1785 1204 1782 1246 C 1780 1289 1777 1330 1774 1368 C 1770 1408 1766 1445 1760 1480 C 1754 1514 1747 1547 1738 1576 C 1729 1604 1718 1629 1706 1651 C 1694 1672 1681 1689 1665 1705 C 1650 1721 1632 1734 1611 1746 C 1589 1758 1561 1769 1536 1778 C 1510 1786 1488 1791 1457 1797 C 1426 1802 1386 1808 1348 1811 C 1310 1815 1270 1817 1229 1820 C 1188 1822 1146 1823 1103 1825 C 1060 1828 1017 1829 972 1832 C 927 1835 881 1838 834 1844 C 787 1850 738 1856 689 1866 C 640 1877 588 1890 538 1909 C 488 1928 435 1952 387 1982 C 339 2013 291 2051 251 2093 C 211 2135 174 2189 147 2234 C 120 2278 105 2315 89 2361 C 73 2408 58 2464 48 2514 C 38 2563 32 2612 28 2660 C 23 2707 21 2754 19 2800 C 18 2847 18 2892 19 2939 C 20 2986 22 3032 27 3081 C 32 3129 37 3179 48 3230 C 60 3281 73 3335 96 3387 C 118 3439 148 3495 185 3542 C 222 3588 270 3634 318 3668 C 366 3703 421 3729 473 3750 C 525 3771 581 3783 627 3793 C 673 3804 706 3807 749 3812 C 793 3817 843 3821 888 3824 C 934 3826 978 3828 1022 3829 C 1066 3830 1110 3831 1153 3832 C 1196 3832 1239 3833 1282 3833 C 1325 3834 1367 3834 1410 3834 C 1452 3835 1495 3835 1537 3836 C 1579 3836 1624 3837 1662 3838 C 1700 3838 1722 3846 1766 3840 C 1808 3834 1880 3848 1920 3804 C 1959 3760 2018 3639 2000 3576 C 1981 3514 1850 3454 1808 3429 C 1765 3404 1774 3428 1744 3428 C 1714 3427 1669 3426 1628 3426 C 1587 3425 1543 3424 1500 3424 C 1457 3423 1414 3423 1371 3422 C 1329 3422 1286 3422 1244 3421 C 1201 3420 1159 3420 1117 3419 C 1075 3418 1033 3418 992 3416 C 952 3415 911 3413 872 3410 C 833 3407 795 3404 760 3398 C 724 3393 690 3387 661 3379 C 632 3370 604 3360 584 3350 C 563 3340 552 3332 538 3319 C 524 3306 510 3291 498 3272 C 486 3253 476 3231 467 3204 C 458 3178 451 3146 445 3113 C 440 3080 436 3043 434 3006 C 431 2969 430 2929 430 2891 C 429 2852 430 2812 432 2774 C 434 2736 437 2697 441 2662 C 446 2626 452 2591 459 2559 C 467 2528 476 2498 487 2473 C 498 2447 511 2425 526 2405 C 540 2385 558 2367 575 2353 C 592 2338 606 2329 628 2318 C 651 2307 679 2295 709 2286 C 739 2276 773 2269 807 2263 C 842 2257 880 2253 918 2249 C 957 2245 997 2243 1038 2241 C 1079 2238 1121 2237 1164 2235 C 1207 2233 1251 2231 1296 2228 C 1341 2225 1387 2222 1434 2216 C 1482 2210 1531 2204 1582 2191 C 1632 2179 1685 2165 1736 2142 C 1787 2120 1841 2092 1888 2056 C 1934 2020 1982 1970 2016 1928 C 2049 1886 2069 1849 2091 1802 C 2112 1756 2132 1698 2145 1647 C 2159 1597 2166 1547 2173 1499 C 2180 1451 2183 1405 2187 1360 C 2191 1315 2193 1272 2196 1230 C 2199 1188 2201 1146 2205 1107 C 2208 1068 2212 1030 2218 996 C 2224 961 2231 928 2240 899 C 2249 870 2259 844 2271 822 C 2284 800 2296 782 2312 766 C 2328 750 2347 736 2366 724 C 2385 712 2401 705 2426 696 C 2451 688 2484 679 2517 672 C 2550 666 2586 661 2623 658 C 2660 654 2700 652 2740 651 C 2779 649 2820 648 2860 648 C 2900 648 2941 649 2981 650 C 3021 652 3061 653 3099 657 C 3136 660 3174 664 3208 670 C 3242 676 3275 683 3304 692 C 3332 701 3358 712 3380 724 C 3402 737 3420 750 3437 766 C 3453 782 3468 802 3480 821 C 3491 840 3499 856 3508 881 C 3516 907 3526 939 3532 972 C 3539 1005 3543 1042 3547 1079 C 3551 1116 3553 1155 3555 1195 C 3556 1234 3557 1275 3557 1316 C 3558 1356 3557 1397 3556 1438 C 3555 1480 3554 1521 3552 1562 C 3551 1602 3548 1646 3546 1683 C 3544 1720 3536 1742 3539 1785 C 3542 1827 3524 1898 3566 1940 C 3608 1981 3726 2048 3790 2033 C 3853 2018 3920 1890 3947 1849 Z"/>
</g>
</svg>
