<svg xmlns="http://www.w3.org/2000/svg" viewBox="0 0 110.000000 230.000000">
<g transform="translate(-0.000000,230.000000) scale(0.100000,-0.100000)" fill="#000000" stroke="none">
<path d="M7 2293 c-4 -3 -7 -45 -7 -93 l0 -86 54 -11 c31 -7 76 -27 104 -46
29 -20 79 -41 118 -51 38 -10 96 -32 129 -51 33 -18 87 -41 120 -50 118 -34
175 -79 175 -136 0 -28 -30 -69 -50 -69 -5 0 -34 -21 -64 -47 -85 -76 -184
-156 -203 -166 -10 -6 -39 -28 -65 -51 -26 -23 -73 -61 -104 -86 -32 -25 -74
-62 -93 -84 -20 -21 -54 -56 -76 -79 l-39 -40 24 -16 c14 -8 48 -39 75 -68 40
-42 61 -56 102 -67 28 -8 71 -27 95 -44 24 -16 68 -38 98 -48 30 -9 76 -32
102 -50 26 -17 75 -41 109 -53 73 -24 109 -54 109 -90 0 -37 -34 -87 -72 -107
-18 -9 -54 -35 -79 -58 -25 -22 -66 -53 -90 -68 -55 -34 -125 -87 -164 -125
-16 -15 -51 -42 -77 -60 -27 -17 -70 -54 -98 -81 l-50 -49 0 -82 0 -81 73 0
73 0 19 42 c15 32 31 48 62 63 23 11 55 32 70 47 15 14 42 34 60 45 17 10 51
36 75 56 59 52 120 98 199 151 37 25 68 49 70 54 2 5 22 22 44 36 22 15 79 63
126 106 48 44 99 85 113 91 21 10 26 19 26 49 0 35 -3 38 -41 49 -26 8 -56 28
-77 52 -28 31 -50 44 -106 60 -39 12 -80 29 -91 39 -23 22 -103 59 -126 60 -9
0 -46 20 -83 44 -38 25 -85 48 -107 51 -118 20 -117 114 3 203 29 21 60 47 67
56 8 10 35 32 60 49 25 16 65 46 88 66 24 20 69 58 100 84 154 128 210 182
235 225 15 26 28 54 28 62 -1 8 -31 43 -69 77 -60 55 -76 64 -144 81 -43 11
-98 34 -125 50 -26 17 -76 38 -112 47 -36 10 -89 31 -118 47 -30 16 -87 37
-128 48 -89 22 -117 38 -134 79 l-12 31 -98 0 c-53 0 -100 -3 -103 -7z"/>
</g>
</svg>
