<svg xmlns="http://www.w3.org/2000/svg" viewBox="0 0 219.030367 239.830932">
<g transform="translate(-8.249506,240.000000) scale(0.100000,-0.100000)" fill="#000000" stroke="none">
<path d="M232 2358 c-7 -24 -40 -81 -74 -128 -63 -88 -84 -136 -73 -171 5 -16
7 -1582 2 -1745 -1 -31 8 -56 40 -110 23 -38 50 -99 60 -137 18 -67 18 -67
1011 -65 993 3 993 3 1012 53 10 28 29 78 41 112 29 75 16 115 -50 159 -40 26
-40 26 -798 24 -417 -1 -776 -2 -798 -1 -75 3 -124 50 -164 156 -19 51 -20 81
-22 687 -1 698 -4 660 62 753 61 85 -13 78 860 76 844 -2 808 -5 877 54 64 53
69 79 31 149 -18 33 -46 87 -62 119 -30 57 -30 57 -986 57 -957 0 -957 0 -969
-42z"/>
</g>
</svg>
