<svg xmlns="http://www.w3.org/2000/svg" viewBox="0 0 176.000147 367.959232">
<g transform="translate(0.000147,367.959232) scale(0.100000,-0.100000)" fill="#000000" stroke="none">
<path d="M0 3531 c0 -163 -1 -160 67 -161 41 0 116 -32 178 -74 71 -49 87 -55
215 -91 52 -14 124 -42 160 -62 110 -62 132 -71 230 -99 276 -78 353 -221 178
-332 -35 -22 -74 -52 -88 -67 -14 -15 -65 -58 -115 -95 -49 -37 -101 -80 -115
-95 -14 -15 -56 -49 -95 -75 -38 -26 -83 -62 -100 -80 -16 -18 -52 -47 -80
-65 -27 -18 -63 -46 -80 -61 -16 -16 -59 -52 -95 -80 -36 -27 -79 -70 -97 -95
-18 -24 -53 -67 -78 -95 -57 -65 -57 -63 17 -138 35 -34 79 -81 99 -103 31
-35 50 -45 125 -68 51 -15 109 -41 136 -60 62 -45 108 -67 196 -95 40 -12 97
-40 128 -61 71 -50 113 -71 199 -99 98 -32 123 -46 145 -83 48 -78 5 -174
-107 -238 -28 -16 -81 -57 -117 -89 -36 -33 -84 -69 -106 -80 -21 -11 -68 -45
-102 -76 -35 -31 -81 -65 -103 -76 -22 -12 -67 -46 -100 -78 -33 -31 -87 -74
-120 -95 -66 -41 -199 -165 -220 -206 -18 -34 -21 -84 -11 -181 8 -78 8 -78
126 -78 118 0 118 0 129 43 15 62 44 93 120 131 37 19 89 54 116 79 28 24 70
56 94 71 24 15 72 54 106 86 35 32 82 68 105 80 23 12 67 45 99 74 32 29 80
66 107 81 27 16 72 49 99 75 28 25 77 63 110 84 60 39 134 102 274 232 42 39
89 74 104 78 26 6 27 9 27 67 0 39 -4 61 -12 63 -88 25 -108 36 -168 92 -75
70 -99 84 -193 109 -46 12 -95 35 -149 71 -53 36 -109 63 -163 79 -44 14 -103
40 -130 58 -97 65 -121 77 -202 102 -184 57 -177 196 17 325 19 13 62 49 95
80 33 31 93 78 133 104 40 27 80 59 88 72 9 13 46 43 82 68 37 24 85 63 107
86 22 23 65 59 95 80 30 21 66 50 80 65 14 15 52 49 85 75 40 32 74 71 101
116 68 116 69 111 -38 221 -104 106 -132 123 -236 147 -96 22 -159 46 -213 83
-52 35 -96 53 -204 83 -44 12 -125 46 -180 74 -68 36 -130 60 -195 75 -129 29
-169 53 -200 118 -25 52 -25 52 -192 53 -168 0 -168 0 -168 -149z"/>
</g>
</svg>
