<svg xmlns="http://www.w3.org/2000/svg" viewBox="0 0 200.000000 180.635453">
<g transform="translate(0.000000,190.898145) scale(0.100000,-0.100000)" fill="#000000" stroke="none">
<path d="M62 1898 l-62 -10 0 -444 0 -444 24 -10 c13 -5 45 -25 71 -44 l47
-36 337 0 c350 0 392 -4 412 -41 6 -13 9 -133 8 -337 -2 -283 0 -321 15 -350
31 -60 46 -62 442 -62 216 0 382 -4 421 -11 60 -10 67 -10 116 14 28 14 64 30
80 36 l27 11 -1 412 -1 413 -54 48 c-41 35 -62 47 -87 47 -78 -1 -81 -14 -87
-375 -4 -275 -7 -314 -23 -338 -37 -57 -42 -58 -333 -60 -266 -2 -269 -2 -291
20 -26 25 -25 -1 -23 420 1 290 -3 313 -67 340 -32 13 -87 15 -358 15 -176 -1
-338 3 -359 8 -22 5 -51 20 -65 35 l-26 25 -6 223 c-3 148 -2 230 5 247 6 14
27 33 46 42 31 16 71 18 360 18 295 0 329 2 366 19 22 10 50 31 62 46 42 54
24 98 -50 120 -44 13 -119 15 -468 14 -228 -1 -443 -6 -478 -11z"/>
</g>
</svg>
