<svg xmlns="http://www.w3.org/2000/svg" viewBox="0 0 220.605805 460.000004">
<g transform="translate(0.000000,460.000000) scale(0.100000,-0.100000)" fill="#000000" stroke="none">
<path d="M0 4410 c0 -190 0 -190 38 -190 75 0 176 -38 267 -100 71 -48 137
-77 257 -110 65 -18 153 -50 195 -73 171 -89 212 -107 318 -137 328 -94 414
-267 205 -410 -30 -21 -82 -62 -115 -92 -34 -29 -90 -76 -125 -103 -36 -27
-90 -71 -120 -99 -30 -27 -89 -74 -130 -105 -41 -30 -102 -79 -135 -109 -33
-30 -85 -71 -116 -92 -31 -21 -80 -61 -110 -87 -30 -27 -76 -65 -104 -85 -68
-50 -102 -86 -184 -202 -86 -120 -86 -119 -13 -198 32 -35 72 -81 89 -104 43
-55 95 -88 178 -115 82 -26 142 -54 225 -108 34 -22 82 -48 108 -57 165 -60
211 -81 267 -119 84 -58 109 -70 226 -111 264 -92 289 -254 63 -400 -47 -30
-112 -79 -144 -109 -32 -30 -96 -79 -142 -108 -46 -30 -109 -77 -141 -105 -31
-28 -88 -71 -125 -95 -37 -24 -94 -68 -127 -99 -33 -30 -96 -79 -139 -108
-183 -123 -296 -262 -296 -364 0 -217 0 -216 166 -216 152 0 152 0 159 32 18
84 61 134 165 191 36 20 92 59 125 87 33 29 87 70 120 93 33 22 92 68 130 102
39 35 102 83 142 108 39 25 97 69 128 97 30 27 92 74 138 103 45 30 107 76
137 104 30 27 84 69 120 93 71 49 247 197 355 300 39 37 87 73 108 81 41 14
61 159 22 159 -49 0 -131 46 -205 115 -90 84 -122 103 -253 145 -60 19 -121
48 -168 79 -93 61 -118 73 -204 101 -87 28 -144 56 -240 119 -46 30 -113 62
-173 82 -233 77 -236 225 -7 397 50 36 121 95 159 130 38 35 96 82 130 104 34
23 88 67 121 98 33 31 83 72 110 90 28 19 75 58 106 87 31 30 93 82 138 116
225 172 333 288 377 402 25 66 14 88 -97 201 -119 121 -156 142 -313 183 -78
20 -146 46 -195 73 -130 71 -163 85 -286 122 -70 21 -174 64 -250 101 -92 46
-163 74 -242 94 -162 41 -263 115 -263 193 0 17 -14 18 -215 18 -215 0 -215 0
-215 -190z"/>
</g>
</svg>
