<svg xmlns="http://www.w3.org/2000/svg" viewBox="0 0 136.122161 150.000000">
<g transform="translate(-5.890122,150.000000) scale(0.100000,-0.100000)" fill="#000000" stroke="none">
<path d="M142 1466 c-7 -19 -28 -54 -48 -80 l-35 -46 0 -589 0 -590 27 -42
c14 -23 29 -60 31 -81 l6 -38 621 0 621 0 28 68 c15 38 27 75 27 84 0 9 -14
28 -31 42 l-31 27 -503 -1 c-366 -1 -509 1 -525 10 -12 6 -32 35 -46 63 l-24
52 0 398 c0 429 -1 424 53 491 l24 29 490 -2 c445 -2 494 -1 525 14 75 39 86
74 43 137 -14 21 -30 49 -35 63 l-10 25 -598 0 -598 0 -12 -34z"/>
</g>
</svg>
