<svg xmlns="http://www.w3.org/2000/svg" viewBox="0 0 113.280369 169.781791">
<g transform="translate(-6.719631,169.969964) scale(0.100000,-0.100000)" fill="#000000" stroke="none">
<path d="M106 1688 c-2 -7 -13 -38 -24 -69 -18 -51 -19 -59 -6 -78 35 -49 48
-51 431 -51 430 0 409 5 400 -102 -5 -56 -16 -90 -56 -173 -29 -57 -61 -109
-74 -118 -42 -27 -142 -38 -330 -36 -122 2 -189 -1 -203 -9 -35 -18 -74 -71
-74 -99 0 -34 62 -93 98 -94 15 0 104 0 197 0 94 0 177 -2 187 -5 23 -7 38
-56 29 -96 -4 -18 -22 -58 -38 -88 -17 -30 -36 -80 -42 -110 -7 -30 -27 -82
-46 -116 -19 -34 -40 -86 -46 -115 -6 -30 -22 -80 -36 -111 l-25 -57 21 -38
c11 -21 31 -57 43 -80 27 -53 49 -55 71 -4 10 21 35 59 57 84 31 35 43 60 56
113 8 38 29 93 45 122 16 29 40 92 53 140 13 48 39 116 59 152 19 36 38 85 42
110 9 56 19 75 65 126 35 38 37 45 42 120 5 65 12 91 37 135 16 30 40 96 52
147 21 95 50 145 89 157 18 6 20 16 20 106 0 96 -1 101 -27 124 l-28 24 -518
1 c-406 0 -518 -3 -521 -12z"/>
</g>
</svg>
