<svg xmlns="http://www.w3.org/2000/svg" viewBox="0 0 225.800441 336.741067">
<g transform="translate(-14.199559,340.419302) scale(0.100000,-0.100000)" fill="#000000" stroke="none">
<path d="M200 3375 c0 -13 -13 -61 -30 -107 -53 -146 -34 -205 87 -264 56 -28
56 -28 739 -25 657 2 684 2 726 -17 138 -62 131 -231 -24 -537 -147 -293 -154
-296 -758 -299 -432 -2 -431 -2 -510 -73 -97 -88 -102 -172 -15 -259 83 -83
96 -85 508 -82 336 3 346 2 374 -18 84 -61 84 -164 -1 -327 -41 -79 -66 -145
-92 -240 -26 -100 -49 -159 -94 -243 -42 -78 -68 -145 -90 -225 -17 -63 -46
-153 -65 -202 -56 -140 -45 -194 69 -349 71 -97 68 -97 157 13 188 231 180
218 218 384 14 62 41 131 85 221 56 111 136 343 136 389 0 5 31 73 70 150 50
100 79 172 100 252 35 134 46 157 110 228 80 89 110 172 110 311 0 70 23 139
84 259 41 78 61 135 86 236 56 231 100 309 184 325 36 6 36 6 36 239 0 225 -1
234 -20 240 -11 3 -25 15 -30 26 -19 34 -2150 29 -2150 -6z"/>
</g>
</svg>
