<svg xmlns="http://www.w3.org/2000/svg" viewBox="0 0 181.410952 271.785078">
<g transform="translate(-10.899820,272.000000) scale(0.100000,-0.100000)" fill="#000000" stroke="none">
<path d="M138 2614 c-41 -119 -40 -134 14 -179 69 -58 52 -57 657 -54 605 3
596 3 635 -53 30 -43 5 -216 -45 -309 -16 -30 -49 -95 -74 -146 -78 -160 -93
-165 -560 -172 -382 -7 -379 -6 -436 -68 -75 -81 -63 -167 32 -230 43 -28 43
-28 357 -28 314 -1 314 -1 343 -33 42 -47 41 -126 -2 -208 -17 -32 -42 -79
-55 -104 -13 -25 -31 -81 -40 -125 -15 -78 -41 -141 -98 -237 -15 -26 -38 -93
-52 -149 -14 -57 -39 -132 -55 -167 -38 -85 -37 -115 8 -188 20 -32 49 -83 65
-111 37 -67 56 -67 87 -4 13 27 51 80 83 118 75 86 92 118 112 218 11 55 34
117 75 200 42 83 69 156 90 238 23 90 43 140 81 205 31 55 55 113 65 157 31
136 35 145 95 211 69 76 77 96 88 236 9 102 11 112 61 208 39 74 58 127 76
210 39 177 89 260 157 260 30 0 27 346 -2 355 -11 4 -28 17 -36 31 -16 24 -16
24 -853 24 -837 0 -837 0 -873 -106z"/>
</g>
</svg>
