<svg xmlns="http://www.w3.org/2000/svg" viewBox="0 0 227.110376 234.000000">
<g transform="translate(-10.044463,240.000000) scale(0.100000,-0.100000)" fill="#000000" stroke="none">
<path d="M2210 2380 c0 -11 -9 -46 -20 -78 -20 -54 -21 -79 -20 -467 0 -450 0
-453 -61 -498 -25 -18 -47 -19 -435 -18 -444 0 -487 -4 -533 -53 l-23 -25 -2
-461 -1 -462 -32 -28 -31 -28 -431 -1 c-366 0 -435 -3 -460 -16 -58 -30 -77
-87 -45 -134 35 -50 48 -51 567 -51 538 0 562 2 612 61 l26 32 -2 449 c-1 492
-4 468 61 496 29 12 102 15 450 13 468 -2 458 -3 513 75 l29 41 -1 515 0 515
-31 57 c-16 32 -30 64 -30 72 0 10 -14 14 -50 14 -44 0 -50 -3 -50 -20z"/>
</g>
</svg>
