<svg xmlns="http://www.w3.org/2000/svg" viewBox="0 0 453.271654 469.575769">
<g transform="translate(-20.933006,480.584773) scale(0.100000,-0.100000)" fill="#000000" stroke="none">
<path d="M4430 4775 c0 -24 -28 -115 -70 -230 -22 -60 -22 -60 -21 -850 2
-932 2 -931 -118 -1012 -67 -45 -68 -45 -908 -48 -920 -4 -918 -4 -1017 -101
-62 -62 -60 -18 -58 -939 2 -910 2 -918 -51 -987 -67 -87 -4 -81 -900 -79
-921 3 -950 0 -1023 -81 -120 -131 -33 -298 172 -328 95 -13 1773 -13 1882 0
156 20 252 76 299 174 23 51 23 51 22 913 -1 979 -7 910 82 966 91 56 109 57
976 56 894 -1 848 -6 942 91 109 112 103 49 103 1176 0 1007 0 1007 -57 1121
-31 62 -59 129 -62 148 -8 47 -193 57 -193 10z"/>
</g>
</svg>
