<svg xmlns="http://www.w3.org/2000/svg" viewBox="0 0 200.384622 218.579714">
<g transform="translate(0.000000,227.730280) scale(0.100000,-0.100000)" fill="#000000" stroke="none">
<path d="M973 2219 c-29 -33 -53 -65 -53 -72 -2 -438 -11 -845 -19 -886 -6
-33 -22 -69 -39 -90 -40 -50 -179 -141 -217 -141 -62 0 -183 104 -257 220 -19
30 -45 64 -57 74 -11 11 -28 42 -36 69 -15 51 -86 173 -113 195 -23 18 -63 15
-126 -9 l-56 -22 0 -53 c0 -40 4 -54 14 -54 35 0 73 -49 94 -123 12 -41 29
-80 37 -87 9 -8 28 -34 43 -59 29 -52 79 -113 169 -210 46 -49 83 -77 145
-109 75 -38 90 -42 155 -42 66 0 75 3 106 30 59 51 98 58 140 22 16 -14 17
-44 17 -364 l0 -350 29 -28 c51 -52 114 -51 153 1 19 25 19 47 18 510 l-1 484
27 35 c14 19 37 58 50 85 23 50 89 121 131 144 33 17 134 14 163 -6 35 -23
192 -185 234 -241 20 -26 56 -77 82 -114 25 -38 57 -77 71 -88 30 -23 85 -26
102 -6 38 46 31 156 -14 218 -14 18 -38 56 -55 83 -35 59 -258 290 -315 328
-89 58 -317 56 -393 -4 -32 -25 -59 -24 -72 2 -8 14 -11 112 -9 303 l2 283
-35 64 c-19 35 -41 65 -49 66 -8 2 -38 -25 -66 -58z"/>
</g>
</svg>
