<svg xmlns="http://www.w3.org/2000/svg" viewBox="0 0 400.970077 433.421966">
<g transform="translate(0.000000,451.838946) scale(0.100000,-0.100000)" fill="#000000" stroke="none">
<path d="M2015 4498 c-55 -36 -129 -118 -157 -172 -21 -40 -21 -50 -19 -687 3
-787 -16 -1108 -71 -1226 -69 -147 -365 -352 -493 -341 -128 11 -342 189 -482
403 -37 55 -84 120 -106 145 -42 48 -77 111 -97 175 -35 112 -184 347 -240
379 -52 30 -118 25 -229 -18 -51 -20 -99 -36 -107 -36 -11 0 -14 -22 -14 -105
0 -105 0 -105 37 -120 93 -39 126 -85 182 -258 24 -70 48 -118 86 -172 30 -41
73 -106 96 -145 23 -39 65 -97 95 -130 29 -32 77 -92 107 -132 187 -253 491
-426 731 -416 110 4 132 12 221 78 114 85 221 76 266 -23 18 -40 19 -76 19
-682 0 -686 1 -692 52 -751 103 -117 260 -103 331 30 22 41 22 41 24 976 2
1044 -2 977 57 1063 24 34 66 108 95 164 134 261 372 375 570 273 39 -19 241
-196 241 -210 0 -4 42 -52 93 -107 51 -54 105 -116 121 -138 16 -22 53 -69 82
-105 28 -36 72 -99 97 -140 91 -151 173 -220 258 -220 164 0 202 265 66 460
-21 30 -68 100 -104 154 -61 93 -111 151 -367 425 -110 117 -239 226 -307 259
-173 84 -499 82 -705 -3 -199 -82 -193 -99 -197 611 -2 531 -2 531 -41 607
-77 151 -120 182 -191 135z"/>
</g>
</svg>
