<svg xmlns="http://www.w3.org/2000/svg" viewBox="0 0 320.879129 347.947992">
<g transform="translate(-0.000000,362.511338) scale(0.100000,-0.100000)" fill="#000000" stroke="none">
<path d="M1570 3564 c-109 -105 -101 -47 -104 -727 -3 -587 -11 -791 -37 -877
-31 -104 -294 -310 -396 -310 -98 0 -313 181 -407 343 -15 26 -47 70 -71 98
-52 58 -67 84 -89 160 -9 32 -31 80 -50 107 -19 28 -48 76 -66 107 -58 101
-118 117 -247 65 -41 -16 -81 -30 -89 -30 -11 0 -14 -19 -14 -89 0 -88 0 -88
29 -94 58 -12 106 -73 136 -172 32 -105 46 -136 90 -190 17 -22 47 -66 64 -98
18 -32 57 -84 85 -115 29 -31 66 -77 83 -102 65 -95 170 -182 308 -256 130
-69 130 -69 251 -69 133 0 112 -8 221 81 60 49 142 41 185 -17 18 -24 19 -49
18 -558 -1 -611 -3 -595 83 -645 93 -55 179 -34 224 53 23 45 23 45 21 805 -2
823 -5 773 54 848 15 20 44 69 62 110 36 77 147 199 212 231 46 24 123 31 187
18 55 -12 193 -116 252 -191 10 -14 49 -56 85 -95 37 -38 77 -86 90 -105 13
-19 43 -57 66 -85 23 -27 56 -74 74 -104 120 -205 260 -251 316 -105 33 87 0
231 -76 326 -16 20 -45 62 -63 93 -19 32 -68 94 -110 139 -41 44 -117 126
-168 181 -98 107 -199 193 -263 227 -128 66 -425 61 -570 -11 -34 -16 -69 -32
-79 -35 -23 -7 -67 35 -68 66 0 13 -2 220 -3 460 -2 437 -2 437 -35 499 -78
150 -96 155 -191 63z"/>
</g>
</svg>
