<svg xmlns="http://www.w3.org/2000/svg" viewBox="0 0 363.098410 374.182876">
<g transform="translate(-16.512875,383.893094) scale(0.100000,-0.100000)" fill="#000000" stroke="none">
<path d="M3535 3793 c-4 -26 -21 -84 -37 -127 -17 -44 -31 -98 -31 -120 -1
-23 0 -313 1 -646 3 -633 2 -643 -42 -710 -56 -84 -28 -81 -783 -83 -750 -3
-729 -1 -810 -79 -46 -45 -45 -20 -47 -799 -1 -675 -2 -695 -21 -728 -41 -70
-97 -91 -220 -81 -39 3 -336 3 -660 0 -590 -5 -590 -5 -637 -32 -121 -72 -107
-220 25 -273 52 -21 1583 -25 1660 -4 77 21 132 62 163 122 16 29 23 1274 8
1351 -9 49 12 111 47 140 67 57 74 57 788 56 654 -1 654 -1 707 25 60 30 127
111 143 174 5 20 8 388 7 831 -2 795 -2 795 -41 870 -21 41 -44 93 -50 115
-12 40 -12 40 -87 43 -76 3 -76 3 -83 -45z"/>
</g>
</svg>
