<svg xmlns="http://www.w3.org/2000/svg" viewBox="0 0 282.587900 305.997423">
<g transform="translate(0.000000,319.997423) scale(0.100000,-0.100000)" fill="#000000" stroke="none">
<path d="M215 3162 c-27 -50 -103 -100 -166 -108 -49 -7 -49 -7 -49 -89 0 -82
0 -82 63 -93 35 -7 91 -23 125 -37 61 -25 61 -25 1011 -24 522 1 954 -1 959
-5 48 -29 -23 -180 -135 -288 -37 -36 -111 -113 -163 -173 -52 -59 -158 -176
-235 -259 -77 -83 -160 -173 -184 -201 -50 -55 -758 -813 -879 -940 -262 -274
-349 -370 -375 -413 -51 -82 -114 -132 -167 -132 -19 0 -20 -6 -20 -105 0
-105 0 -105 34 -105 19 0 77 -11 130 -25 96 -25 96 -25 1280 -25 1183 0 1183
0 1254 35 131 66 140 95 60 188 -92 107 2 99 -1087 96 -1048 -2 -988 -6 -1012
59 -18 48 1 77 134 202 71 66 138 132 150 147 11 16 56 66 100 113 100 108
207 222 305 328 42 46 106 114 142 152 36 37 108 116 160 175 52 59 129 144
170 189 41 45 113 124 160 176 117 130 391 423 571 611 83 86 172 189 200 230
27 41 57 84 65 97 16 22 15 24 -27 60 -76 66 -110 106 -127 154 -17 48 -17 48
-1222 48 -1205 0 -1205 0 -1225 -38z"/>
</g>
</svg>
