<svg xmlns="http://www.w3.org/2000/svg" viewBox="0 0 383.411881 224.000000">
<g transform="translate(-15.301996,224.000000) scale(0.100000,-0.100000)" fill="#000000" stroke="none">
<path d="M627 2201 c-10 -22 -59 -81 -109 -133 -115 -118 -166 -190 -227 -319
-274 -577 -127 -1246 335 -1524 66 -40 265 -108 368 -126 198 -34 493 47 662
182 156 124 340 428 425 702 200 641 475 933 864 914 402 -19 685 -342 685
-782 0 -311 -99 -497 -418 -785 -86 -78 -92 -112 -45 -251 26 -79 26 -79 99
-79 63 0 73 3 79 20 10 32 77 106 145 160 129 103 230 222 292 344 38 73 199
527 205 576 4 34 -45 191 -151 484 -81 227 -238 390 -492 511 -100 49 -140 74
-166 104 -35 41 -35 41 -265 41 -231 0 -231 0 -249 -27 -27 -42 -48 -57 -188
-130 -212 -111 -341 -250 -480 -514 -61 -116 -97 -204 -226 -558 -166 -451
-410 -653 -742 -613 -604 73 -778 943 -292 1462 114 122 119 143 77 287 -28
93 -28 93 -98 93 -70 -1 -70 -1 -88 -39z"/>
</g>
</svg>
