<svg xmlns="http://www.w3.org/2000/svg" viewBox="0 0 205.179890 605.148153">
<g transform="translate(-84.081182,608.000000) scale(0.100000,-0.100000)" fill="#000000" stroke="none">
<path d="M1767 6045 c-32 -68 -43 -69 -407 -70 -325 0 -325 0 -398 -34 -165
-78 -161 -170 11 -256 71 -36 71 -36 326 -34 330 1 396 -13 434 -94 20 -41 27
-4969 8 -5019 -12 -33 -63 -74 -109 -90 -25 -8 -124 -12 -313 -13 -276 -1
-276 -1 -330 -28 -198 -96 -194 -210 8 -278 63 -21 80 -22 312 -18 414 7 383
9 484 -44 95 -50 92 -50 179 -6 87 44 126 49 448 49 344 0 362 3 425 64 65 61
63 127 -4 199 -54 59 -59 60 -375 59 -334 -1 -345 1 -378 74 -29 67 -29 5002
1 5069 35 80 38 80 346 76 299 -4 334 1 391 51 80 71 85 158 12 224 -53 49
-55 49 -388 49 -352 1 -380 5 -431 74 -23 31 -23 31 -129 31 -106 0 -106 0
-123 -35z"/>
</g>
</svg>
