<svg xmlns="http://www.w3.org/2000/svg" viewBox="0 0 299.038948 578.867714">
<g transform="translate(-20.908406,600.000000) scale(0.100000,-0.100000)" fill="#000000" stroke="none">
<path d="M217 5843 c-14 -329 -8 -1569 8 -1703 13 -106 15 -394 15 -1890 0
-1849 1 -1871 45 -1946 54 -92 198 -122 280 -59 87 65 80 -59 82 1493 1 1474
-1 1420 53 1442 53 22 211 -105 307 -245 54 -79 73 -95 168 -145 44 -23 112
-67 151 -97 217 -165 767 -180 988 -27 28 20 94 64 146 99 52 34 109 78 126
96 77 83 176 218 213 288 22 42 61 103 86 136 66 84 80 115 115 256 17 68 51
185 75 259 93 289 102 355 115 880 13 558 13 994 -2 1173 -11 147 -11 147
-173 147 -162 0 -162 0 -183 -167 -18 -144 -22 -241 -27 -673 -9 -854 -16
-924 -107 -1195 -28 -82 -66 -211 -84 -285 -28 -113 -40 -143 -74 -190 -22
-30 -73 -105 -113 -165 -201 -301 -466 -412 -784 -329 -125 32 -352 208 -438
339 -30 45 -77 111 -105 146 -64 80 -79 109 -120 234 -17 55 -56 147 -86 205
-78 150 -84 178 -94 455 -9 240 -23 386 -61 643 -28 193 -35 360 -19 498 15
131 9 163 -45 254 -37 61 -65 147 -65 197 0 33 0 33 -193 33 -194 0 -194 0
-200 -157z"/>
</g>
</svg>
