<svg xmlns="http://www.w3.org/2000/svg" viewBox="0 0 417.134121 227.632977">
<g transform="translate(-14.844026,227.496132) scale(0.100000,-0.100000)" fill="#000000" stroke="none">
<path d="M3148 2265 c-43 -7 -125 -18 -184 -24 -143 -15 -169 -24 -260 -92
-43 -33 -81 -59 -85 -59 -17 0 -195 -179 -249 -250 -165 -216 -245 -232 -301
-62 -18 54 -33 78 -78 123 -31 30 -74 77 -95 103 -26 33 -57 57 -95 74 -31 14
-83 42 -116 62 -106 64 -133 71 -395 101 -90 10 -129 10 -270 -5 -179 -19
-233 -35 -309 -89 -27 -20 -74 -48 -103 -63 -66 -33 -256 -220 -288 -284 -13
-25 -41 -72 -63 -104 -91 -135 -130 -439 -97 -754 27 -248 137 -448 345 -629
109 -94 164 -129 240 -153 22 -7 83 -30 135 -52 52 -23 114 -49 138 -59 23
-10 45 -25 48 -33 7 -19 344 -24 344 -6 0 17 71 90 104 107 16 9 71 29 122 44
78 25 102 38 151 81 130 116 256 246 289 299 84 139 180 120 330 -66 57 -70
93 -103 185 -166 163 -112 190 -124 319 -149 63 -11 144 -27 180 -35 163 -35
485 30 635 129 44 29 106 68 139 87 38 22 73 53 100 89 22 30 64 83 93 117 59
71 82 112 119 215 34 94 67 144 110 170 34 20 34 20 34 321 -1 302 -1 302 -41
321 -54 24 -92 79 -125 179 -26 78 -32 86 -124 178 -53 52 -114 108 -136 124
-21 16 -64 51 -95 77 -75 63 -104 74 -288 109 -192 37 -264 42 -363 24z m286
-331 c107 -18 146 -37 223 -107 32 -29 79 -69 105 -90 32 -25 66 -69 105 -135
145 -246 151 -374 32 -671 -62 -155 -100 -212 -187 -281 -37 -30 -87 -72 -112
-94 -117 -102 -356 -141 -581 -95 -111 23 -162 43 -194 79 -11 13 -54 48 -95
80 -94 71 -136 118 -188 206 -22 38 -55 83 -72 99 -98 91 -96 317 5 465 24 36
60 99 80 140 38 79 142 197 270 306 85 72 112 83 238 99 197 25 211 25 371 -1z
m-2074 -18 c109 -18 127 -25 216 -89 150 -105 156 -111 196 -182 22 -38 57
-93 78 -120 53 -69 88 -182 105 -342 7 -63 -23 -266 -48 -325 -40 -95 -308
-364 -398 -401 -35 -14 -93 -38 -129 -53 -107 -46 -210 -40 -414 25 -211 67
-242 90 -379 281 -97 136 -127 243 -127 455 0 196 27 311 89 385 21 25 54 70
74 100 39 62 74 96 131 130 21 13 59 41 84 63 52 45 96 66 162 77 76 13 270
11 360 -4z"/>
</g>
</svg>
