<svg xmlns="http://www.w3.org/2000/svg" viewBox="0 0 254.357119 758.262326">
<g transform="translate(-106.491507,760.532387) scale(0.100000,-0.100000)" fill="#000000" stroke="none">
<path d="M2210 7569 c-38 -91 -81 -99 -507 -94 -397 4 -395 5 -520 -58 -149
-76 -158 -186 -23 -279 104 -71 116 -73 480 -73 404 -1 461 -14 522 -120 26
-45 43 -6153 17 -6249 -35 -128 -106 -149 -509 -152 -356 -3 -372 -5 -443 -41
-214 -107 -212 -254 4 -339 74 -29 74 -29 469 -29 458 0 456 0 605 -95 43 -27
56 -25 145 20 137 69 166 72 590 74 332 1 380 3 419 19 159 63 196 202 87 320
-60 64 -74 67 -464 67 -420 0 -431 3 -477 113 -20 49 -24 6227 -4 6287 42 123
60 128 472 129 372 1 393 3 457 59 117 100 100 237 -40 316 -55 31 -55 31
-390 28 -426 -5 -534 14 -572 99 -21 47 -299 45 -318 -2z"/>
</g>
</svg>
