<svg xmlns="http://www.w3.org/2000/svg" viewBox="0 0 260.321259 141.765519">
<g transform="translate(-9.678741,141.765519) scale(0.100000,-0.100000)" fill="#000000" stroke="none">
<path d="M1915 1409 c-148 -19 -175 -27 -234 -71 -89 -67 -152 -127 -214 -205
-99 -125 -132 -131 -168 -32 -14 37 -34 70 -54 87 -17 15 -41 41 -53 58 -14
20 -56 49 -121 82 -84 43 -114 53 -188 63 -177 22 -348 7 -421 -39 -24 -15
-63 -38 -86 -52 -52 -31 -149 -127 -171 -171 -10 -17 -30 -50 -46 -71 -43 -60
-63 -167 -62 -328 1 -173 15 -246 66 -345 31 -60 60 -99 120 -157 84 -81 123
-105 277 -164 52 -20 102 -43 111 -50 11 -10 43 -14 106 -14 l91 0 39 39 c29
30 56 45 103 58 90 25 213 133 313 277 10 14 26 20 52 20 35 0 45 -7 119 -86
45 -47 102 -99 128 -116 26 -17 59 -40 75 -51 42 -31 221 -66 318 -63 103 3
223 28 272 58 21 12 66 39 101 59 34 21 75 53 90 74 14 20 43 55 64 79 20 24
44 67 54 95 22 71 53 124 81 142 23 15 23 18 23 200 0 107 -4 185 -9 185 -27
0 -80 69 -96 124 -14 49 -27 67 -83 121 -151 142 -182 160 -320 185 -114 21
-165 22 -277 9z m232 -200 c64 -11 79 -20 178 -100 107 -87 175 -243 161 -367
-7 -57 -67 -220 -99 -265 -25 -37 -165 -156 -197 -169 -14 -5 -62 -17 -107
-25 -76 -14 -90 -14 -178 2 -83 15 -102 22 -139 54 -24 20 -67 55 -95 79 -28
24 -60 61 -72 83 -11 22 -36 58 -56 80 -32 35 -37 49 -41 100 -5 73 12 143 44
187 14 18 34 52 45 77 32 72 113 159 226 240 40 30 221 43 330 24z m-1292 -12
c59 -11 83 -22 153 -71 45 -32 82 -61 82 -66 0 -4 22 -41 49 -82 74 -109 96
-229 70 -374 -6 -32 -21 -75 -34 -95 -30 -47 -199 -219 -215 -219 -6 0 -44
-14 -83 -31 -63 -28 -78 -31 -131 -25 -34 3 -103 20 -155 37 -110 37 -157 74
-231 184 -56 83 -70 138 -69 273 0 125 11 187 37 220 12 15 38 51 57 80 20 28
60 68 88 87 29 19 64 44 78 55 45 37 180 49 304 27z"/>
</g>
</svg>
