<svg xmlns="http://www.w3.org/2000/svg" viewBox="0 0 348.393824 407.100767">
<g transform="translate(1.604908,409.808478) scale(0.100000,-0.100000)" fill="#000000" stroke="none" >
<path d="M 302 3929 C 344 3955 337 3932 369 3934 C 401 3936 449 3940 492 3942 C 536 3945 583 3948 629 3950 C 675 3953 721 3955 767 3956 C 813 3958 859 3959 905 3960 C 951 3961 997 3962 1042 3963 C 1088 3963 1134 3963 1179 3964 C 1224 3964 1270 3964 1315 3964 C 1360 3964 1405 3964 1450 3964 C 1496 3964 1541 3964 1586 3964 C 1631 3964 1680 3964 1721 3964 C 1763 3964 1793 3963 1834 3963 C 1876 3963 1924 3963 1970 3963 C 2015 3962 2060 3962 2106 3962 C 2151 3961 2197 3961 2243 3960 C 2290 3959 2336 3958 2385 3955 C 2433 3952 2482 3950 2535 3942 C 2588 3934 2644 3927 2701 3906 C 2758 3884 2826 3858 2877 3813 C 2928 3768 2982 3698 3009 3634 C 3036 3569 3041 3488 3039 3423 C 3037 3358 3016 3298 2998 3243 C 2980 3188 2952 3136 2929 3093 C 2906 3050 2888 3022 2863 2984 C 2837 2945 2806 2902 2778 2863 C 2748 2824 2719 2787 2689 2750 C 2659 2714 2629 2678 2599 2643 C 2569 2607 2538 2573 2508 2538 C 2477 2504 2447 2470 2416 2436 C 2386 2403 2355 2369 2325 2336 C 2294 2302 2264 2269 2233 2235 C 2203 2202 2172 2169 2142 2135 C 2111 2102 2081 2069 2050 2036 C 2020 2002 1989 1969 1958 1936 C 1928 1903 1895 1867 1866 1837 C 1838 1806 1818 1784 1790 1754 C 1762 1723 1728 1688 1698 1654 C 1667 1621 1636 1588 1606 1555 C 1575 1522 1544 1489 1514 1456 C 1484 1423 1453 1390 1423 1357 C 1392 1324 1362 1292 1332 1259 C 1303 1226 1273 1193 1244 1160 C 1215 1127 1187 1095 1160 1062 C 1132 1029 1105 996 1081 964 C 1056 931 1032 898 1012 866 C 992 835 972 800 959 773 C 946 747 939 726 934 708 C 930 689 930 670 930 661 C 929 651 929 654 934 648 C 939 643 944 637 961 629 C 978 622 1005 612 1036 605 C 1066 599 1105 594 1144 590 C 1183 586 1225 584 1268 582 C 1310 580 1354 580 1398 579 C 1442 578 1487 578 1531 578 C 1576 578 1621 578 1666 578 C 1711 578 1756 578 1801 578 C 1846 578 1894 578 1935 578 C 1977 578 2007 578 2048 579 C 2089 579 2138 579 2183 579 C 2228 580 2273 580 2318 580 C 2363 581 2408 581 2453 581 C 2498 582 2543 582 2589 582 C 2634 582 2679 582 2725 582 C 2770 582 2816 582 2862 582 C 2907 582 2955 581 2996 580 C 3037 580 3064 585 3108 578 C 3152 570 3224 580 3261 535 C 3298 490 3350 367 3329 306 C 3307 245 3176 193 3132 171 C 3088 148 3098 172 3066 172 C 3036 173 2988 174 2946 175 C 2904 175 2858 176 2814 176 C 2770 176 2725 176 2680 176 C 2636 176 2591 176 2546 175 C 2501 175 2456 175 2411 174 C 2366 174 2321 174 2276 174 C 2230 173 2185 173 2140 173 C 2095 172 2050 172 2005 172 C 1959 172 1914 172 1869 171 C 1824 171 1775 171 1733 171 C 1692 171 1662 171 1620 171 C 1579 171 1530 171 1484 172 C 1438 172 1393 172 1346 174 C 1300 175 1253 175 1205 178 C 1156 181 1108 183 1056 190 C 1004 198 950 203 894 222 C 838 240 774 260 720 300 C 666 340 605 400 572 463 C 539 525 525 609 522 677 C 520 744 540 809 558 866 C 576 924 604 972 630 1020 C 656 1067 687 1112 713 1150 C 740 1188 760 1213 787 1248 C 815 1283 848 1323 878 1358 C 908 1394 939 1429 970 1464 C 1001 1498 1031 1532 1062 1566 C 1093 1599 1124 1633 1154 1666 C 1185 1699 1216 1732 1246 1766 C 1277 1799 1308 1832 1338 1865 C 1369 1898 1400 1931 1430 1964 C 1461 1997 1492 2030 1522 2063 C 1553 2096 1583 2129 1614 2162 C 1644 2195 1675 2228 1705 2261 C 1736 2294 1769 2330 1797 2361 C 1825 2391 1845 2413 1873 2444 C 1901 2474 1934 2510 1964 2543 C 1994 2576 2024 2609 2055 2642 C 2085 2676 2115 2709 2144 2742 C 2174 2775 2204 2808 2233 2841 C 2262 2874 2291 2908 2319 2941 C 2347 2974 2374 3007 2401 3040 C 2427 3074 2453 3107 2477 3140 C 2501 3173 2524 3207 2544 3240 C 2564 3272 2583 3306 2597 3337 C 2611 3367 2622 3400 2628 3422 C 2634 3444 2634 3458 2634 3469 C 2634 3480 2633 3483 2629 3489 C 2626 3494 2625 3497 2612 3503 C 2598 3510 2576 3520 2548 3527 C 2520 3534 2482 3539 2444 3543 C 2406 3547 2364 3549 2321 3551 C 2279 3553 2235 3553 2191 3554 C 2147 3555 2102 3555 2057 3556 C 2013 3556 1968 3556 1923 3556 C 1878 3557 1833 3557 1788 3557 C 1743 3557 1698 3557 1653 3557 C 1608 3558 1559 3558 1518 3558 C 1476 3558 1446 3558 1405 3558 C 1364 3558 1315 3558 1270 3558 C 1226 3557 1181 3557 1136 3557 C 1092 3557 1047 3556 1003 3556 C 958 3555 914 3554 870 3553 C 826 3552 782 3550 738 3548 C 694 3547 649 3544 606 3542 C 562 3540 516 3536 476 3534 C 436 3531 411 3523 367 3526 C 323 3529 252 3512 211 3553 C 170 3595 105 3712 120 3774 C 135 3837 261 3902 302 3929 Z"/>
</g>
</svg>
