<svg xmlns="http://www.w3.org/2000/svg" viewBox="0 0 199.786698 293.924197">
<g transform="translate(-22.000000,313.879421) scale(0.100000,-0.100000)" fill="#000000" stroke="none">
<path d="M1173 3120 c-17 -10 -37 -28 -43 -39 -7 -15 -11 -161 -10 -467 0
-519 6 -489 -106 -594 -75 -71 -125 -100 -171 -100 -33 0 -101 40 -161 94 -54
49 -157 206 -226 343 -30 61 -66 119 -78 127 -12 9 -40 16 -61 16 -51 0 -97
-43 -97 -92 0 -35 7 -51 77 -173 119 -207 203 -326 273 -385 25 -20 83 -57
130 -81 74 -37 94 -43 151 -43 59 -1 70 2 120 37 64 44 109 49 133 15 14 -19
16 -71 16 -366 0 -286 2 -348 15 -372 18 -35 43 -50 85 -50 42 0 66 15 87 53
17 29 18 74 18 532 l0 500 23 43 c27 51 98 122 161 163 134 86 276 -21 519
-393 43 -66 125 -85 167 -38 42 47 25 132 -43 212 -15 18 -36 47 -47 63 -33
53 -161 210 -197 241 -56 49 -190 123 -247 135 -70 15 -111 8 -200 -31 -82
-35 -113 -32 -130 13 -5 13 -7 137 -5 276 5 279 0 315 -47 355 -36 31 -63 33
-106 6z"/>
<path d="M1030 913 c-17 -7 -318 -283 -478 -438 -138 -135 -142 -152 -54 -247
30 -32 84 -38 120 -13 12 9 56 59 99 113 42 53 93 117 112 141 20 24 54 67 76
97 85 113 131 171 167 211 46 51 52 102 16 127 -24 17 -33 18 -58 9z"/>
</g>
</svg>
