<svg xmlns="http://www.w3.org/2000/svg" viewBox="0 0 128.606838 378.797958">
<g transform="translate(-52.253643,379.949353) scale(0.100000,-0.100000)" fill="#000000" stroke="none">
<path d="M1093 3763 l-33 -36 -197 5 c-176 5 -204 3 -249 -14 -112 -41 -121
-97 -24 -155 l55 -33 178 0 c181 0 226 -7 255 -42 18 -22 19 -3153 1 -3175
-28 -32 -57 -37 -254 -43 l-200 -5 -47 -33 c-59 -40 -70 -73 -38 -107 44 -47
99 -56 323 -54 l205 2 54 -31 53 -30 55 26 c53 26 61 27 280 32 196 4 230 7
253 23 57 37 60 96 7 148 l-28 29 -199 0 -200 0 -24 26 -24 26 -3 1564 c-2
1694 -5 1623 50 1643 12 4 95 6 183 3 182 -5 220 2 260 49 34 41 32 72 -9 116
l-34 37 -189 -3 c-208 -3 -261 5 -291 44 -17 22 -28 25 -78 24 -55 0 -61 -3
-91 -36z"/>
</g>
</svg>
