<svg xmlns="http://www.w3.org/2000/svg" viewBox="0 0 480.973293 280.475351">
<g transform="translate(-19.129765,280.475351) scale(0.100000,-0.100000)" fill="#000000" stroke="none">
<path d="M783 2753 c-13 -28 -64 -91 -123 -153 -331 -345 -488 -765 -467
-1245 31 -697 463 -1165 1154 -1250 156 -20 541 106 700 228 212 163 423 501
551 883 278 828 573 1155 1042 1155 903 -1 1229 -1226 492 -1850 -230 -195
-237 -212 -170 -423 31 -98 31 -98 124 -98 74 0 94 3 94 14 0 27 88 131 162
191 284 233 372 367 525 804 36 102 81 216 99 253 44 87 46 160 8 245 -14 32
-64 164 -111 293 -172 473 -313 644 -680 821 -139 67 -216 121 -228 160 -12
38 -610 28 -630 -10 -22 -43 -88 -93 -195 -146 -422 -211 -591 -461 -917
-1355 -203 -558 -518 -822 -921 -771 -763 98 -980 1166 -372 1826 129 140 143
193 94 360 -14 50 -28 96 -30 103 -2 8 -30 12 -91 12 -88 0 -88 0 -110 -47z"/>
</g>
</svg>
