<svg xmlns="http://www.w3.org/2000/svg" viewBox="0 0 178.000000 190.995035">
<g transform="translate(0.000000,200.000000) scale(0.100000,-0.100000)" fill="#000000" stroke="none">
<path d="M140 1987 c0 -23 -53 -65 -97 -77 -43 -11 -43 -11 -43 -58 l0 -47 83
-23 c81 -23 86 -23 640 -22 306 0 564 3 572 6 23 9 62 -4 69 -22 9 -24 -50
-122 -109 -179 -28 -27 -163 -174 -300 -325 -138 -151 -268 -293 -291 -315
-22 -22 -94 -98 -159 -170 -65 -71 -139 -150 -164 -175 -47 -46 -202 -220
-255 -285 -16 -20 -41 -39 -57 -42 -28 -5 -29 -7 -29 -67 l0 -62 63 -15 c50
-11 212 -14 827 -16 l765 -3 53 30 c28 17 52 37 52 46 0 21 -49 81 -86 104
-30 19 -54 20 -634 19 l-604 -2 -18 23 c-23 28 -16 58 19 85 44 34 185 180
353 365 62 69 129 141 149 162 20 20 59 63 88 95 160 181 526 577 614 663 25
25 55 61 67 80 11 20 32 46 46 59 14 14 26 27 26 30 0 4 -17 17 -38 30 -41 25
-82 77 -82 104 0 16 -53 17 -760 17 -621 0 -760 -2 -760 -13z"/>
</g>
</svg>
