<svg xmlns="http://www.w3.org/2000/svg" viewBox="0 0 230.500000 278.000522">
<g transform="translate(0.000000,278.000000) scale(0.100000,-0.100000)" fill="#000000" stroke="none">
<path d="M1210 2770 c0 -6 -11 -21 -25 -34 -21 -20 -32 -22 -76 -18 -50 5 -50
4 -103 -50 -30 -31 -72 -91 -96 -136 -34 -66 -54 -92 -105 -132 -34 -27 -80
-69 -101 -92 -56 -62 -76 -76 -164 -113 -64 -27 -98 -50 -169 -115 -91 -83
-121 -132 -121 -197 0 -37 38 -117 65 -137 14 -10 25 -24 25 -30 0 -24 -144
-55 -257 -56 -28 0 -58 -3 -67 -6 -14 -6 -16 -88 -16 -830 l0 -824 1153 0
1152 0 -7 112 c-7 119 -17 164 -44 205 -15 23 -20 25 -58 17 -48 -11 -1558
-11 -1599 0 -15 3 -45 23 -67 42 -62 56 -70 98 -73 380 -3 346 14 398 133 423
40 9 278 12 850 11 437 -1 801 -1 807 0 7 0 20 15 30 33 15 27 18 58 18 197 0
152 -2 168 -22 207 -26 48 -50 59 -96 44 -48 -16 -1478 -8 -1529 8 -60 19 -61
39 -3 81 19 14 56 53 82 88 50 65 61 75 140 118 147 81 251 174 316 281 23 37
58 76 91 101 120 91 125 190 17 332 -22 30 -41 59 -41 63 0 10 -26 37 -34 37
-3 0 -6 -5 -6 -10z"/>
</g>
</svg>
