<svg xmlns="http://www.w3.org/2000/svg" viewBox="0 0 149.080524 289.824536">
<g transform="translate(-10.738856,300.000000) scale(0.100000,-0.100000)" fill="#000000" stroke="none">
<path d="M108 2588 c-2 -227 0 -444 4 -483 4 -38 7 -479 7 -980 1 -606 5 -923
12 -948 20 -74 107 -100 160 -48 l29 29 2 619 c2 633 2 648 -3 744 -3 59 10
89 39 89 19 0 130 -115 154 -159 11 -20 34 -38 61 -50 25 -11 65 -35 91 -55
65 -49 111 -60 266 -60 149 -1 196 12 265 73 19 16 43 32 54 36 25 8 130 130
148 173 7 18 29 53 48 78 19 24 40 64 46 87 6 23 26 94 45 157 18 63 37 142
43 175 13 81 25 686 16 824 l-7 111 -82 0 -82 0 -13 -110 c-7 -60 -10 -118 -7
-128 3 -10 2 -159 -3 -332 l-9 -315 -40 -125 c-22 -69 -43 -144 -47 -167 -4
-24 -20 -60 -38 -84 -18 -23 -42 -58 -54 -78 -32 -53 -142 -150 -183 -161 -54
-15 -195 -12 -236 5 -105 44 -268 229 -300 343 -9 31 -32 86 -52 121 -35 63
-35 64 -43 230 -4 91 -15 222 -24 291 -13 90 -16 157 -12 240 l6 115 -29 38
c-16 21 -31 56 -35 78 l-7 39 -93 0 -94 0 -3 -412z"/>
</g>
</svg>
