<svg xmlns="http://www.w3.org/2000/svg" viewBox="0 0 238.231170 463.583815">
<g transform="translate(-17.189863,480.099143) scale(0.100000,-0.100000)" fill="#000000" stroke="none">
<path d="M175 4658 c-8 -175 -1 -1162 13 -1738 6 -234 11 -920 11 -1526 1
-1101 1 -1101 24 -1144 57 -109 210 -114 272 -9 20 33 20 53 21 1150 1 614 5
1126 9 1138 10 31 52 46 79 27 43 -29 170 -162 201 -210 43 -66 57 -79 135
-114 36 -16 88 -49 115 -72 96 -83 187 -105 440 -105 196 0 275 17 361 80 27
20 76 52 109 73 99 62 212 189 272 307 19 38 52 90 73 115 51 61 64 89 90 200
12 52 39 148 60 212 82 248 90 335 93 1072 3 743 14 686 -142 686 -128 0 -128
0 -144 -122 -12 -86 -17 -191 -17 -349 0 -310 -18 -871 -31 -944 -6 -32 -35
-134 -64 -225 -29 -91 -56 -181 -60 -200 -18 -95 -38 -142 -86 -202 -28 -35
-64 -86 -80 -114 -30 -53 -182 -200 -234 -226 -98 -50 -353 -50 -450 -1 -27
15 -70 48 -204 160 -24 20 -64 68 -88 107 -25 39 -63 90 -85 114 -44 48 -59
78 -83 172 -9 35 -41 111 -71 170 -65 125 -74 169 -74 349 0 145 -17 325 -51
561 -21 142 -22 284 -3 431 6 48 1 62 -61 164 -14 22 -30 66 -36 98 -12 57
-12 57 -159 57 -148 0 -148 0 -155 -142z"/>
</g>
</svg>
