<svg xmlns="http://www.w3.org/2000/svg" viewBox="0 0 351.006650 382.813647">
<g transform="translate(0.000000,400.000000) scale(0.100000,-0.100000)" fill="#000000" stroke="none">
<path d="M263 3952 c-44 -71 -166 -142 -245 -142 -16 0 -18 -10 -18 -104 0
-103 0 -103 50 -109 28 -3 98 -23 156 -43 106 -36 106 -36 1280 -38 1173 -1
1173 -1 1195 -22 57 -57 -5 -197 -151 -345 -52 -52 -147 -153 -210 -224 -63
-71 -149 -165 -191 -209 -42 -45 -105 -113 -140 -153 -79 -89 -360 -393 -489
-529 -52 -55 -142 -151 -200 -214 -116 -125 -423 -453 -585 -625 -57 -60 -175
-186 -263 -280 -89 -93 -191 -211 -228 -261 -71 -96 -127 -141 -188 -151 -36
-6 -36 -6 -36 -133 0 -127 0 -127 57 -134 32 -4 101 -19 153 -33 177 -49 3058
-37 3158 13 165 84 176 161 39 280 -94 82 19 76 -1301 74 -1234 -1 -1207 -2
-1251 46 -64 69 -45 104 175 325 155 155 218 222 455 479 92 100 159 173 376
406 52 56 148 161 214 234 66 73 156 172 200 219 44 48 143 157 220 241 77 85
212 230 300 324 88 93 192 206 231 250 39 45 136 146 215 227 111 112 158 168
206 245 86 139 86 133 -13 231 -69 68 -124 152 -124 191 0 9 -308 12 -1509 12
-1508 0 -1508 0 -1538 -48z"/>
</g>
</svg>
