<svg xmlns="http://www.w3.org/2000/svg" viewBox="0 0 522.274340 285.230276">
<g transform="translate(-18.266300,284.787506) scale(0.100000,-0.100000)" fill="#000000" stroke="none">
<path d="M3990 2840 c-25 -4 -128 -17 -230 -29 -214 -26 -266 -42 -357 -108
-36 -26 -98 -71 -138 -100 -112 -80 -189 -157 -295 -293 -214 -273 -301 -292
-383 -82 -41 104 -239 318 -342 369 -38 19 -106 57 -150 83 -283 170 -962 173
-1201 6 -36 -25 -99 -65 -141 -88 -100 -55 -285 -242 -358 -361 -27 -46 -60
-97 -73 -114 -131 -182 -180 -700 -102 -1084 69 -340 405 -730 727 -846 127
-45 333 -144 357 -171 34 -39 450 -33 470 6 38 73 112 120 269 171 146 49 410
274 542 462 126 179 234 164 418 -61 87 -107 112 -129 217 -198 47 -30 108
-72 135 -92 92 -69 256 -118 542 -163 213 -33 590 55 778 183 39 26 105 69
148 95 42 25 93 65 111 88 200 245 229 286 267 387 65 169 104 231 168 264 45
24 50 779 5 790 -39 10 -117 89 -142 143 -12 26 -36 84 -53 128 -34 83 -190
252 -335 362 -27 20 -78 61 -113 90 -73 60 -139 88 -256 110 -44 8 -137 25
-208 39 -127 24 -193 28 -277 14z m282 -419 c149 -26 184 -42 303 -142 329
-277 456 -578 376 -892 -42 -160 -150 -409 -210 -479 -59 -69 -281 -248 -346
-279 -260 -123 -710 -92 -878 60 -23 21 -75 64 -116 96 -104 82 -146 127 -209
225 -30 47 -74 108 -97 135 -132 156 -130 402 5 600 15 22 52 90 83 150 69
134 173 255 327 382 143 117 153 121 415 156 83 11 242 5 347 -12z m-2577 -27
c187 -28 435 -188 517 -334 17 -30 55 -89 83 -130 74 -107 82 -125 117 -268
50 -205 35 -444 -37 -596 -54 -112 -338 -416 -436 -466 -304 -156 -419 -163
-775 -50 -225 71 -391 224 -517 475 -97 194 -89 721 13 872 149 220 183 261
265 316 33 22 87 61 120 87 142 112 340 140 650 94z"/>
</g>
</svg>
