<svg xmlns="http://www.w3.org/2000/svg" viewBox="0 0 368.711930 441.089253">
<g transform="translate(0.000000,441.089253) scale(0.100000,-0.100000)" fill="#000000" stroke="none">
<path d="M1898 4379 c-27 -28 -30 -29 -112 -27 -84 3 -84 3 -132 -38 -75 -63
-140 -149 -195 -260 -54 -109 -92 -155 -191 -230 -35 -26 -74 -60 -88 -74 -14
-15 -48 -52 -77 -82 -69 -75 -125 -112 -232 -153 -120 -46 -156 -70 -293 -198
-204 -191 -230 -329 -94 -506 49 -64 49 -64 26 -83 -46 -37 -274 -78 -436 -78
-74 0 -74 0 -74 -1325 0 -1325 0 -1325 1847 -1325 1846 0 1846 0 1839 125 -18
337 -84 457 -222 405 -25 -10 -1108 -15 -2103 -10 -434 2 -438 3 -523 90 -90
92 -99 131 -108 475 -17 639 20 768 228 805 73 13 2417 16 2543 4 140 -14 179
72 181 391 2 317 -62 428 -222 382 -36 -10 -195 -12 -775 -7 -401 3 -869 3
-1040 -1 -325 -8 -488 2 -601 36 -92 27 -91 50 6 134 28 24 78 79 111 122 72
95 100 122 159 156 193 111 298 181 401 267 34 29 116 135 172 223 31 48 76
98 137 151 135 118 169 182 157 295 -9 83 -97 236 -194 335 -7 7 -13 18 -13
23 0 21 -56 6 -82 -22z"/>
</g>
</svg>
