<svg xmlns="http://www.w3.org/2000/svg" viewBox="0 0 497.516008 292.762040">
<g transform="translate(-6.218413,287.238981) scale(0.100000,-0.100000)" fill="#000000" stroke="none" >
<path d="M 951 2398 C 949 2351 933 2367 917 2341 C 901 2314 877 2273 856 2236 C 836 2200 814 2161 794 2123 C 775 2085 756 2047 739 2009 C 722 1972 706 1934 692 1896 C 678 1858 665 1819 654 1781 C 644 1742 635 1704 628 1665 C 621 1626 616 1587 613 1548 C 610 1509 608 1469 609 1430 C 610 1391 613 1352 618 1314 C 623 1276 630 1235 638 1201 C 646 1167 654 1143 666 1110 C 677 1078 693 1040 710 1007 C 726 974 745 941 766 910 C 787 880 809 850 834 822 C 858 795 885 768 913 745 C 940 721 970 698 1000 679 C 1031 659 1063 642 1095 627 C 1128 612 1161 600 1195 590 C 1229 580 1264 574 1299 569 C 1334 565 1369 564 1403 566 C 1438 567 1473 572 1507 579 C 1541 586 1578 598 1608 610 C 1638 621 1660 631 1689 647 C 1718 663 1751 684 1781 706 C 1811 728 1840 752 1867 779 C 1895 805 1922 833 1947 863 C 1972 893 1996 925 2020 958 C 2043 990 2065 1025 2086 1060 C 2107 1096 2127 1133 2147 1171 C 2166 1208 2185 1247 2204 1287 C 2222 1326 2240 1367 2258 1408 C 2277 1449 2295 1491 2313 1534 C 2332 1576 2351 1619 2371 1662 C 2391 1705 2413 1752 2433 1791 C 2453 1831 2468 1860 2490 1899 C 2513 1938 2540 1985 2567 2027 C 2594 2069 2623 2110 2654 2151 C 2684 2191 2717 2231 2751 2269 C 2786 2307 2823 2344 2861 2378 C 2900 2413 2941 2446 2983 2477 C 3026 2508 3071 2537 3118 2562 C 3164 2588 3213 2611 3264 2631 C 3314 2650 3367 2667 3420 2678 C 3474 2690 3529 2699 3584 2702 C 3639 2706 3699 2704 3749 2700 C 3800 2696 3836 2690 3885 2678 C 3933 2666 3990 2650 4041 2630 C 4091 2611 4140 2588 4187 2563 C 4234 2537 4279 2509 4322 2478 C 4365 2446 4406 2413 4445 2376 C 4484 2340 4521 2302 4555 2261 C 4589 2221 4621 2178 4650 2134 C 4679 2089 4706 2043 4729 1996 C 4752 1948 4773 1899 4791 1850 C 4808 1800 4823 1749 4835 1698 C 4847 1646 4855 1594 4861 1542 C 4867 1489 4869 1432 4869 1384 C 4869 1336 4867 1300 4862 1253 C 4857 1205 4848 1148 4838 1098 C 4827 1046 4813 996 4797 947 C 4781 898 4762 849 4742 802 C 4722 755 4699 709 4676 665 C 4652 621 4626 578 4600 536 C 4575 494 4547 454 4520 415 C 4494 376 4465 336 4440 302 C 4416 268 4404 241 4374 210 C 4343 179 4313 118 4258 114 C 4204 109 4082 135 4047 183 C 4012 232 4041 360 4048 406 C 4055 452 4069 434 4088 459 C 4106 485 4135 524 4159 558 C 4183 592 4210 629 4233 665 C 4257 701 4280 736 4302 772 C 4323 808 4343 844 4361 880 C 4379 916 4396 953 4411 990 C 4425 1026 4438 1063 4449 1101 C 4460 1138 4468 1176 4475 1214 C 4482 1252 4486 1291 4489 1329 C 4491 1367 4492 1406 4490 1444 C 4488 1482 4483 1523 4477 1558 C 4472 1592 4466 1617 4457 1650 C 4448 1684 4435 1724 4421 1759 C 4407 1794 4391 1828 4373 1862 C 4354 1895 4334 1927 4312 1958 C 4290 1988 4267 2018 4241 2046 C 4216 2074 4188 2100 4160 2124 C 4131 2149 4101 2172 4070 2192 C 4039 2213 4006 2232 3973 2248 C 3940 2264 3905 2278 3871 2290 C 3836 2301 3801 2310 3766 2316 C 3731 2322 3696 2326 3661 2326 C 3626 2327 3588 2324 3556 2319 C 3524 2315 3500 2310 3469 2301 C 3437 2292 3400 2279 3367 2264 C 3333 2249 3300 2232 3268 2212 C 3236 2193 3204 2171 3174 2147 C 3144 2124 3114 2098 3086 2071 C 3058 2044 3031 2015 3005 1984 C 2979 1954 2954 1922 2931 1890 C 2907 1856 2884 1822 2863 1787 C 2841 1752 2820 1715 2800 1678 C 2780 1640 2761 1602 2742 1563 C 2723 1524 2705 1483 2687 1443 C 2668 1402 2649 1357 2632 1319 C 2615 1280 2603 1252 2585 1213 C 2568 1174 2547 1127 2526 1084 C 2505 1041 2483 997 2460 954 C 2436 911 2412 867 2385 825 C 2358 782 2330 740 2299 699 C 2269 658 2236 618 2201 579 C 2166 541 2129 504 2089 469 C 2049 434 2006 401 1962 371 C 1917 341 1870 313 1820 290 C 1771 266 1719 246 1666 230 C 1614 214 1554 203 1504 195 C 1454 188 1416 186 1366 187 C 1315 188 1255 192 1200 202 C 1146 211 1092 225 1040 242 C 988 260 938 282 889 307 C 841 332 794 360 750 392 C 706 423 664 458 625 494 C 586 531 550 571 516 613 C 482 654 451 698 423 744 C 395 790 370 837 348 886 C 327 934 308 984 292 1035 C 277 1085 264 1137 255 1189 C 245 1240 239 1297 235 1344 C 231 1392 230 1427 231 1474 C 232 1522 235 1578 241 1629 C 246 1681 255 1732 266 1782 C 276 1832 289 1882 304 1931 C 319 1980 337 2027 355 2074 C 374 2121 394 2166 415 2211 C 437 2255 460 2299 482 2341 C 504 2383 529 2426 550 2463 C 571 2499 581 2527 608 2561 C 636 2596 661 2659 714 2668 C 768 2678 892 2664 931 2619 C 971 2574 953 2444 951 2398 Z"/>
</g>
</svg>
