<svg xmlns="http://www.w3.org/2000/svg" viewBox="0 0 237.568072 140.000000">
<g transform="translate(-10.578030,140.000000) scale(0.100000,-0.100000)" fill="#000000" stroke="none">
<path d="M395 1380 c-3 -11 -42 -59 -86 -106 -60 -65 -90 -108 -124 -177 -69
-144 -79 -195 -79 -387 0 -152 2 -171 26 -237 37 -102 71 -157 150 -239 81
-84 131 -114 252 -148 122 -36 204 -35 328 4 115 36 190 88 265 181 54 68 135
229 173 345 72 215 171 399 253 469 172 148 415 135 581 -31 96 -97 142 -227
133 -384 -10 -187 -81 -315 -255 -458 -59 -49 -64 -68 -35 -159 l17 -53 48 0
c29 0 48 4 48 11 0 7 53 64 118 128 70 69 128 136 144 166 41 77 129 344 129
392 1 55 -93 333 -132 395 -53 82 -151 165 -255 214 -51 25 -102 56 -112 69
-19 24 -23 25 -157 25 l-137 0 -29 -29 c-16 -16 -64 -46 -106 -67 -157 -76
-289 -247 -377 -484 -19 -52 -51 -137 -70 -188 -65 -178 -158 -303 -259 -350
-255 -120 -531 67 -563 381 -7 68 7 184 33 262 23 72 89 182 144 240 65 69 70
86 50 165 l-17 65 -46 3 c-39 3 -47 0 -53 -18z"/>
</g>
</svg>
