<svg xmlns="http://www.w3.org/2000/svg" viewBox="0 0 319.349300 469.827584">
<g transform="translate(-35.479830,501.858144) scale(0.100000,-0.100000)" fill="#000000" stroke="none">
<path d="M1900 5004 c-45 -20 -68 -41 -91 -86 -18 -35 -19 -73 -21 -755 -3
-844 11 -755 -153 -919 -219 -218 -337 -219 -556 -4 -47 47 -103 114 -124 150
-22 36 -58 91 -82 123 -23 32 -79 131 -123 220 -117 234 -147 267 -236 267
-134 -1 -200 -127 -133 -256 48 -92 132 -239 180 -314 26 -41 65 -105 86 -142
55 -98 196 -271 271 -333 36 -30 124 -84 196 -122 131 -67 131 -67 232 -71
112 -5 135 3 235 75 92 66 188 47 204 -40 3 -18 7 -270 8 -562 2 -530 2 -530
25 -571 66 -114 220 -105 276 15 21 46 21 53 22 836 1 884 -5 817 89 947 43
58 185 181 243 209 64 31 156 29 224 -4 64 -31 188 -132 237 -190 19 -23 53
-62 77 -87 47 -50 140 -181 220 -310 80 -130 130 -166 218 -157 137 13 166
165 61 315 -30 42 -78 111 -106 152 -29 41 -73 100 -99 130 -25 30 -62 78 -82
106 -94 130 -306 291 -470 357 -102 40 -250 32 -373 -22 -106 -46 -161 -55
-190 -31 -43 36 -45 59 -45 503 0 447 -1 463 -47 525 -44 60 -104 76 -173 46z"/>
<path d="M1625 1449 c-11 -6 -47 -39 -81 -73 -33 -33 -116 -110 -185 -171 -68
-60 -149 -135 -181 -165 -31 -30 -112 -107 -179 -170 -307 -287 -320 -305
-280 -394 61 -140 165 -191 267 -131 39 23 114 110 252 293 23 31 74 95 112
142 71 88 164 207 247 319 27 35 76 95 109 132 82 90 94 149 41 207 -23 24
-86 30 -122 11z"/>
</g>
</svg>
