<svg xmlns="http://www.w3.org/2000/svg" viewBox="0 0 398.638651 587.103949">
<g transform="translate(-44.655262,626.905523) scale(0.100000,-0.100000)" fill="#000000" stroke="none">
<path d="M2361 6244 c-128 -64 -123 -15 -124 -1051 -2 -1010 10 -932 -176
-1120 -249 -253 -381 -279 -607 -118 -149 106 -360 401 -525 729 -147 295
-234 361 -382 291 -161 -76 -134 -215 121 -635 25 -41 67 -111 93 -155 217
-362 359 -507 638 -649 245 -125 374 -122 590 15 67 42 153 48 191 14 62 -55
61 -43 60 -742 -2 -697 -1 -705 56 -773 94 -111 263 -80 323 59 35 81 37 171
31 1086 -5 726 -4 890 7 935 47 188 315 452 487 480 225 36 526 -226 848 -740
119 -190 233 -255 345 -197 139 73 127 237 -36 457 -43 58 -88 121 -101 140
-141 209 -384 474 -505 552 -327 211 -484 238 -755 129 -129 -52 -174 -59
-217 -32 -70 44 -68 27 -69 612 -1 587 -1 587 -71 669 -64 75 -133 88 -222 44z"/>
<path d="M2032 1804 c-17 -9 -58 -43 -90 -74 -31 -32 -91 -86 -132 -120 -93
-78 -617 -568 -800 -750 -154 -153 -160 -263 -21 -393 155 -145 251 -83 616
403 27 36 69 87 92 114 24 27 72 88 106 135 33 47 91 122 127 166 36 44 85
107 109 139 24 32 66 83 92 112 144 159 73 352 -99 268z"/>
</g>
</svg>
