<svg xmlns="http://www.w3.org/2000/svg" viewBox="0 0 198.988681 224.000000">
<g transform="translate(-14.126434,224.000000) scale(0.100000,-0.100000)" fill="#000000" stroke="none">
<path d="M175 2183 c-4 -32 -13 -93 -21 -136 -11 -64 -14 -237 -13 -935 2
-856 2 -856 25 -952 13 -52 24 -110 24 -127 0 -33 0 -33 934 -33 934 0 934 0
946 67 6 36 22 93 36 125 25 60 25 60 25 936 0 854 0 878 -20 935 -11 31 -23
84 -27 117 -7 60 -7 60 -104 60 -97 0 -97 0 -110 -62 -6 -35 -23 -89 -36 -121
-25 -58 -25 -58 -27 -825 -2 -767 -2 -767 -27 -816 -45 -90 -15 -86 -660 -87
-634 -1 -593 -6 -635 77 -19 38 -20 64 -25 829 -5 790 -5 790 -37 875 -18 47
-33 95 -33 108 0 21 -3 22 -104 22 -105 0 -105 0 -111 -57z"/>
</g>
</svg>
