<svg xmlns="http://www.w3.org/2000/svg" viewBox="0 0 124.147165 140.000000">
<g transform="translate(-9.103701,140.000000) scale(0.100000,-0.100000)" fill="#000000" stroke="none">
<path d="M105 1353 c-4 -27 -9 -300 -12 -608 -4 -508 -3 -569 13 -652 l18 -93
582 0 581 0 6 45 c4 25 14 59 22 75 23 45 23 1110 0 1184 -8 27 -15 60 -15 73
0 23 -2 24 -62 21 l-63 -3 -6 -35 c-3 -19 -13 -52 -22 -74 -15 -34 -17 -93
-17 -513 0 -495 -2 -517 -43 -552 -14 -11 -87 -13 -383 -14 -362 0 -366 1
-387 22 -22 21 -22 26 -27 529 l-5 507 -25 68 -25 67 -61 0 -62 0 -7 -47z"/>
</g>
</svg>
