<svg xmlns="http://www.w3.org/2000/svg" viewBox="0 0 250.128129 279.996808">
<g transform="translate(-17.518798,280.000000) scale(0.100000,-0.100000)" fill="#000000" stroke="none">
<path d="M220 2761 c0 -21 -9 -91 -20 -156 -35 -201 -32 -2245 4 -2392 13 -56
28 -127 31 -157 7 -56 7 -56 1174 -56 1166 0 1166 0 1183 88 10 48 31 122 48
165 45 115 50 2167 5 2308 -14 46 -31 119 -37 162 -11 78 -11 78 -137 75 -126
-3 -126 -3 -132 -53 -4 -27 -23 -101 -43 -163 -37 -114 -37 -114 -36 -1020 1
-1033 2 -1020 -77 -1093 -59 -56 -26 -53 -763 -56 -739 -2 -731 -3 -779 52
-68 78 -66 36 -68 1089 -2 949 -2 949 -43 1072 -22 68 -40 135 -40 149 0 25 0
25 -135 25 -135 0 -135 0 -135 -39z"/>
</g>
</svg>
