<svg xmlns="http://www.w3.org/2000/svg" viewBox="0 0 243.000000 221.651599">
<g transform="translate(0.000000,227.089034) scale(0.100000,-0.100000)" fill="#000000" stroke="none">
<path d="M130 2220 c-41 -27 -87 -54 -102 -61 -28 -11 -28 -11 -28 -959 0
-948 0 -948 26 -954 37 -10 88 -44 176 -119 93 -79 101 -82 175 -63 51 13 187
15 981 15 923 -1 923 -1 970 36 47 36 102 107 102 131 0 83 -129 185 -217 171
-21 -4 -399 -7 -839 -8 -898 -1 -828 -7 -919 73 -64 57 -79 89 -74 168 2 36 3
385 3 775 1 792 5 735 -70 810 -51 51 -89 49 -184 -15z"/>
</g>
</svg>
