<svg xmlns="http://www.w3.org/2000/svg" viewBox="0 0 140.125160 160.922506">
<g transform="translate(0.125160,160.922506) scale(0.100000,-0.100000)" fill="#000000" stroke="none">
<path d="M1000 1603 c-38 -15 -74 -50 -93 -92 -11 -25 -37 -66 -57 -91 -21
-25 -41 -55 -45 -67 -3 -13 -24 -45 -45 -72 -21 -27 -46 -66 -55 -87 -16 -39
-62 -96 -152 -189 -40 -41 -53 -62 -53 -84 0 -42 -17 -81 -50 -116 -16 -16
-36 -48 -45 -70 -10 -21 -32 -57 -50 -80 -18 -22 -44 -62 -58 -90 -14 -27 -35
-59 -47 -70 -12 -11 -34 -42 -47 -70 -14 -27 -36 -64 -49 -81 -13 -16 -33 -51
-44 -76 -21 -47 -70 -98 -96 -98 -23 0 -19 -95 6 -120 11 -11 20 -27 20 -35 0
-12 16 -15 80 -15 79 0 80 0 80 25 0 33 24 80 50 98 11 8 33 41 49 73 16 32
39 68 51 79 12 11 35 45 50 76 16 30 36 61 45 69 9 8 32 44 50 80 18 36 41 72
50 80 9 8 28 36 41 62 27 53 59 72 100 62 24 -6 124 -115 124 -134 0 -6 22
-36 50 -67 102 -119 118 -139 143 -180 15 -23 39 -56 55 -75 16 -18 36 -46 45
-63 8 -16 33 -46 55 -66 27 -24 44 -51 52 -78 l11 -41 89 0 90 0 0 93 0 92
-40 17 c-24 10 -47 29 -58 48 -19 36 -107 158 -149 209 -15 18 -37 48 -48 66
-11 18 -38 53 -58 76 -53 60 -102 126 -135 178 -15 24 -44 63 -65 87 -26 29
-41 56 -44 82 -5 34 -1 44 36 86 23 26 48 64 56 84 9 19 30 54 49 76 18 23 45
64 59 92 14 27 33 57 43 65 23 19 84 147 84 177 0 34 -52 82 -87 81 -15 0 -35
-3 -43 -6z"/>
</g>
</svg>
