<svg xmlns="http://www.w3.org/2000/svg" viewBox="0 0 176.492023 196.389888">
<g transform="translate(0.000000,200.000000) scale(0.100000,-0.100000)" fill="#000000" stroke="none">
<path d="M81 1956 c-14 -28 -32 -48 -51 -56 l-30 -12 0 -884 c0 -789 2 -884
15 -884 21 0 88 -35 104 -54 8 -9 19 -16 26 -16 24 0 138 84 154 113 16 29 36
55 149 191 54 64 195 226 300 343 137 151 303 342 387 443 33 40 91 107 129
149 38 42 91 105 119 140 64 80 145 118 161 74 4 -9 6 -315 6 -680 -1 -647 -1
-664 19 -696 11 -17 33 -45 50 -61 l31 -30 41 40 c22 21 45 48 51 58 7 13 10
277 9 795 -1 479 2 799 9 836 9 57 8 62 -25 130 -19 38 -35 78 -35 88 0 14 -9
17 -48 17 -43 0 -49 -3 -58 -26 -5 -14 -48 -67 -96 -117 -47 -51 -134 -146
-192 -212 -58 -66 -124 -140 -146 -165 -42 -48 -93 -107 -205 -240 -38 -46
-151 -173 -250 -283 -170 -188 -215 -241 -283 -329 -45 -58 -138 -138 -160
-138 -11 0 -25 6 -31 14 -9 10 -12 195 -14 692 -2 628 -4 684 -21 742 -18 62
-19 62 -56 62 -35 0 -40 -3 -59 -44z"/>
</g>
</svg>
