<svg xmlns="http://www.w3.org/2000/svg" viewBox="0 0 281.090203 311.914847">
<g transform="translate(0.000000,320.000000) scale(0.100000,-0.100000)" fill="#000000" stroke="none">
<path d="M146 3164 c-9 -44 -67 -109 -112 -126 -34 -12 -34 -12 -34 -1429 0
-1417 0 -1417 37 -1424 46 -8 86 -29 136 -68 52 -40 68 -38 176 29 72 45 100
68 120 102 14 24 41 62 58 85 18 23 52 67 75 97 23 30 75 93 116 140 41 47
111 127 156 179 79 92 140 160 296 332 41 45 92 105 113 133 21 28 51 61 67
74 17 13 51 51 77 85 26 34 64 77 85 96 21 18 57 60 79 92 22 32 53 69 69 81
16 12 47 46 69 77 22 31 58 76 81 101 23 25 58 65 78 90 20 25 63 74 97 110
33 36 103 117 155 180 144 174 167 195 233 216 58 18 58 18 80 -4 22 -23 22
-23 24 -1086 2 -1209 -8 -1088 90 -1193 66 -71 84 -70 155 5 97 102 88 -57 89
1476 1 1354 1 1354 -40 1422 -26 42 -43 85 -47 116 -7 48 -7 48 -85 48 -69 0
-79 -2 -79 -17 0 -32 -35 -76 -155 -198 -64 -66 -131 -138 -147 -160 -16 -22
-61 -75 -101 -118 -165 -179 -205 -224 -237 -269 -18 -27 -44 -55 -57 -63 -13
-9 -48 -48 -77 -88 -30 -40 -66 -83 -81 -97 -15 -14 -48 -52 -73 -85 -45 -59
-128 -154 -248 -284 -33 -36 -86 -99 -118 -138 -31 -40 -64 -77 -74 -82 -9 -5
-39 -39 -66 -75 -28 -36 -63 -75 -78 -86 -16 -12 -49 -49 -74 -83 -25 -34 -63
-77 -85 -95 -22 -19 -54 -55 -71 -80 -18 -26 -55 -72 -83 -102 -28 -30 -64
-73 -81 -96 -67 -92 -191 -194 -238 -194 -64 0 -61 -57 -62 1110 -2 1056 -2
1056 -33 1153 -17 54 -31 108 -31 122 0 24 -2 25 -69 25 -69 0 -69 0 -75 -36z"/>
</g>
</svg>
