<svg xmlns="http://www.w3.org/2000/svg" viewBox="0 0 223.839166 256.864342">
<g transform="translate(0.000000,256.864342) scale(0.100000,-0.100000)" fill="#000000" stroke="none">
<path d="M1575 2551 c-56 -26 -99 -75 -133 -151 -16 -36 -50 -90 -76 -120 -26
-30 -64 -86 -83 -125 -20 -38 -54 -90 -76 -115 -22 -25 -55 -78 -73 -119 -22
-48 -51 -90 -83 -121 -27 -26 -68 -77 -90 -113 -24 -36 -58 -76 -81 -91 -48
-32 -66 -64 -85 -156 -18 -85 -25 -100 -76 -155 -21 -23 -55 -74 -74 -114 -20
-40 -56 -97 -81 -127 -24 -31 -60 -86 -79 -124 -19 -38 -55 -92 -80 -120 -25
-28 -61 -83 -81 -122 -20 -39 -53 -94 -74 -122 -21 -28 -56 -87 -78 -132 -44
-87 -95 -141 -143 -151 -29 -5 -29 -5 -29 -92 0 -74 3 -88 19 -98 11 -7 25
-28 32 -48 13 -35 13 -35 135 -35 122 0 122 0 133 51 14 65 22 79 83 146 27
30 62 83 78 117 15 33 51 90 80 126 29 36 63 88 75 115 13 28 46 78 74 112 28
33 64 89 79 124 16 35 49 89 73 119 24 30 60 84 79 120 85 155 196 126 338
-90 31 -47 77 -107 102 -135 25 -27 60 -73 78 -100 17 -28 45 -64 63 -80 17
-17 54 -64 82 -105 28 -41 70 -97 95 -125 24 -27 54 -70 67 -95 13 -25 54 -77
93 -116 61 -62 71 -78 83 -127 12 -57 12 -57 156 -57 144 0 144 0 141 151 -3
152 -3 152 -47 165 -54 16 -83 43 -128 119 -19 33 -54 83 -78 110 -23 28 -56
75 -74 106 -17 30 -54 80 -82 110 -27 30 -59 72 -71 94 -11 21 -44 64 -73 95
-29 30 -68 80 -88 110 -19 30 -57 81 -85 112 -27 31 -64 82 -82 113 -18 31
-48 72 -66 90 -55 56 -74 94 -74 153 0 64 9 83 66 142 24 25 57 75 73 111 16
36 52 92 79 125 27 32 65 91 85 129 19 39 55 95 81 126 49 59 120 201 131 259
19 109 -114 185 -230 131z"/>
</g>
</svg>
