<svg xmlns="http://www.w3.org/2000/svg" viewBox="0 0 351.205952 389.616603">
<g transform="translate(0.000000,400.616603) scale(0.100000,-0.100000)" fill="#000000" stroke="none">
<path d="M182 3962 c-24 -78 -110 -162 -167 -162 -13 0 -15 -184 -15 -1785 0
-1785 0 -1785 24 -1785 38 0 107 -28 172 -70 80 -53 107 -52 210 6 115 65 145
93 219 202 68 100 152 206 260 327 34 39 96 111 138 160 161 189 319 368 462
524 39 42 86 96 105 121 18 25 68 82 109 127 166 178 235 256 269 301 19 26
63 76 97 112 34 36 82 92 107 125 25 33 74 92 109 130 36 39 84 95 109 125 24
30 71 84 104 120 67 72 184 208 288 336 92 113 176 159 253 140 63 -16 60 53
62 -1384 2 -1302 2 -1302 30 -1354 44 -80 132 -168 169 -168 52 0 166 106 201
187 16 40 22 3379 5 3423 -5 14 -26 52 -46 85 -19 33 -43 90 -53 127 -17 68
-17 68 -108 68 -91 0 -91 0 -103 -47 -11 -38 -29 -62 -100 -133 -103 -102
-224 -234 -322 -354 -39 -47 -74 -86 -78 -86 -4 0 -29 -28 -57 -62 -27 -35
-82 -97 -121 -138 -39 -41 -91 -102 -116 -135 -25 -33 -63 -76 -83 -95 -20
-19 -63 -69 -95 -110 -32 -41 -72 -88 -90 -105 -17 -16 -55 -59 -83 -95 -28
-36 -87 -106 -132 -156 -44 -50 -136 -155 -205 -234 -69 -79 -155 -176 -191
-215 -36 -38 -88 -97 -114 -130 -46 -57 -121 -141 -286 -318 -42 -45 -96 -109
-121 -142 -25 -33 -58 -71 -73 -85 -15 -14 -54 -59 -85 -101 -105 -137 -251
-259 -310 -259 -26 0 -80 51 -80 77 -1 10 -1 596 -2 1303 -1 1001 -4 1295 -14
1330 -7 25 -29 90 -48 145 -20 55 -36 110 -36 123 0 46 -154 32 -168 -16z"/>
</g>
</svg>
