<svg xmlns="http://www.w3.org/2000/svg" viewBox="0 0 428.769588 234.323897">
<g transform="translate(-17.150937,241.571732) scale(0.100000,-0.100000)" fill="#000000" stroke="none">
<path d="M3663 2411 c-76 -19 -127 -80 -119 -144 7 -59 41 -100 160 -194 407
-322 533 -800 324 -1228 -81 -166 -310 -346 -506 -396 -380 -97 -702 55 -939
442 -33 52 -165 370 -201 479 -88 272 -280 599 -443 754 -191 181 -378 249
-689 249 -319 0 -504 -70 -728 -277 -281 -261 -404 -682 -329 -1120 67 -383
372 -827 593 -861 54 -9 121 27 151 81 45 78 25 133 -91 253 -420 434 -451
1064 -69 1421 282 263 742 244 984 -42 102 -119 141 -189 236 -418 67 -160 76
-186 113 -305 12 -38 40 -104 63 -145 23 -41 60 -115 82 -165 86 -188 306
-440 473 -539 161 -96 479 -191 612 -183 107 6 403 97 530 163 314 162 540
485 580 829 21 188 5 449 -36 595 -32 113 -140 302 -238 417 -219 256 -386
365 -513 334z"/>
</g>
</svg>
