<svg xmlns="http://www.w3.org/2000/svg" viewBox="0 0 267.476622 146.103472">
<g transform="translate(-10.920760,150.892346) scale(0.100000,-0.100000)" fill="#000000" stroke="none">
<path d="M2253 1490 c-70 -42 -51 -108 56 -190 79 -61 171 -166 205 -235 36
-74 66 -199 66 -274 0 -130 -50 -270 -127 -352 -131 -141 -308 -202 -481 -165
-126 26 -229 99 -318 222 -47 67 -125 238 -169 369 -57 173 -180 380 -277 466
-128 113 -240 153 -428 152 -179 0 -295 -40 -418 -142 -206 -172 -291 -437
-237 -744 38 -217 222 -491 352 -523 70 -18 137 50 119 119 -3 12 -36 54 -74
94 -128 135 -190 277 -199 459 -5 86 -2 112 17 175 46 154 131 262 252 321
149 73 341 49 466 -58 88 -75 183 -248 244 -444 36 -118 143 -318 221 -415 94
-118 183 -179 334 -229 197 -66 236 -65 452 8 230 77 398 253 458 479 20 75
23 311 5 402 -17 88 -90 228 -165 315 -156 184 -267 243 -354 190z"/>
</g>
</svg>
