<svg xmlns="http://www.w3.org/2000/svg" viewBox="0 0 318.367191 277.830770">
<g transform="translate(-11.070695,286.862066) scale(0.100000,-0.100000)" fill="#000000" stroke="none">
<path d="M 1599 2745 C 1565 2730 1535 2705 1507 2677 C 1479 2649 1456 2613 1433 2578 C 1410 2543 1392 2505 1371 2469 C 1350 2432 1328 2395 1308 2360 C 1287 2325 1267 2292 1246 2257 C 1226 2221 1206 2184 1185 2147 C 1164 2111 1143 2074 1122 2038 C 1101 2002 1078 1967 1058 1930 C 1037 1894 1017 1856 997 1820 C 977 1785 958 1752 937 1716 C 916 1681 893 1645 872 1609 C 850 1573 831 1536 810 1499 C 790 1463 770 1425 749 1390 C 728 1355 707 1323 686 1288 C 665 1253 643 1216 623 1180 C 602 1143 583 1106 562 1070 C 541 1033 518 998 497 962 C 475 926 453 890 432 854 C 412 819 394 785 374 749 C 354 714 332 677 311 640 C 291 604 268 568 252 530 C 236 493 220 452 216 414 C 212 376 213 336 226 303 C 239 270 266 234 295 217 C 325 199 368 191 403 195 C 439 200 478 220 509 243 C 540 266 566 301 591 333 C 615 365 634 399 656 433 C 678 468 702 504 723 540 C 744 576 764 613 784 649 C 805 686 824 724 845 760 C 865 795 886 826 908 862 C 929 897 950 934 971 970 C 992 1006 1011 1044 1032 1080 C 1053 1116 1076 1151 1097 1187 C 1119 1223 1141 1260 1162 1295 C 1182 1331 1199 1365 1220 1400 C 1240 1436 1262 1472 1284 1508 C 1306 1544 1329 1579 1350 1615 C 1370 1651 1390 1690 1410 1725 C 1429 1761 1447 1795 1468 1830 C 1489 1865 1512 1903 1535 1936 C 1559 1970 1583 2009 1611 2030 C 1640 2052 1674 2070 1705 2067 C 1735 2064 1767 2037 1793 2012 C 1818 1986 1836 1949 1857 1915 C 1879 1880 1900 1842 1921 1806 C 1941 1770 1962 1733 1981 1696 C 2001 1659 2020 1620 2039 1584 C 2059 1549 2078 1516 2099 1481 C 2120 1445 2143 1409 2163 1373 C 2184 1336 2202 1298 2221 1261 C 2241 1224 2260 1188 2281 1151 C 2302 1115 2326 1079 2346 1044 C 2366 1008 2383 974 2402 938 C 2421 902 2440 863 2460 826 C 2480 790 2502 754 2523 718 C 2544 682 2565 644 2585 608 C 2604 572 2620 537 2639 502 C 2659 466 2679 428 2703 393 C 2726 359 2750 323 2779 295 C 2808 267 2840 239 2876 224 C 2911 209 2954 203 2992 203 C 3030 204 3071 210 3102 226 C 3133 242 3163 268 3178 298 C 3192 329 3195 374 3189 408 C 3183 442 3163 473 3142 502 C 3121 531 3089 551 3065 582 C 3041 612 3019 649 2998 685 C 2978 720 2961 760 2942 797 C 2922 834 2902 870 2881 907 C 2861 944 2841 981 2821 1017 C 2802 1054 2786 1088 2766 1124 C 2747 1160 2725 1197 2704 1233 C 2682 1269 2659 1304 2639 1340 C 2618 1377 2600 1415 2580 1451 C 2561 1487 2543 1521 2523 1557 C 2503 1592 2481 1629 2460 1665 C 2439 1702 2420 1739 2400 1776 C 2380 1812 2361 1850 2340 1886 C 2319 1923 2296 1959 2276 1994 C 2255 2030 2236 2063 2217 2099 C 2198 2135 2181 2174 2161 2211 C 2141 2248 2120 2284 2100 2320 C 2079 2357 2058 2394 2038 2430 C 2019 2466 2004 2502 1983 2536 C 1962 2572 1941 2609 1914 2640 C 1888 2671 1858 2702 1824 2723 C 1791 2743 1751 2760 1714 2764 C 1676 2767 1634 2759 1599 2745 Z"/>
</g>
</svg>
