<svg xmlns="http://www.w3.org/2000/svg" viewBox="0 0 375.787921 352.671065">
<g transform="translate(-12.034533,352.671065) scale(0.100000,-0.100000)" fill="#000000" stroke="none">
<path d="M193 3501 c-78 -56 -75 -17 -71 -892 3 -774 3 -774 37 -847 68 -144
-1 -133 820 -131 718 1 718 1 770 -21 49 -22 110 -77 112 -103 0 -7 0 -290 -1
-629 -2 -618 -2 -618 39 -701 23 -47 44 -105 47 -131 7 -46 7 -46 930 -46 923
0 923 0 935 42 6 23 24 68 40 100 37 73 36 99 -2 143 -63 72 -19 68 -758 64
-366 -1 -687 -2 -714 -1 -84 1 -132 48 -172 167 -14 44 -16 115 -15 643 1 669
2 654 -69 722 -85 83 -57 80 -857 79 -804 -2 -732 -11 -786 99 -33 67 -33 67
-38 708 -5 640 -5 640 -32 681 -53 80 -147 103 -215 54z"/>
</g>
</svg>
