<svg xmlns="http://www.w3.org/2000/svg" viewBox="0 0 240.075324 209.107853">
<g transform="translate(-15.830582,222.851777) scale(0.100000,-0.100000)" fill="#000000" stroke="none">
<path d="M1282 2213 c-57 -28 -134 -122 -165 -201 -16 -39 -50 -100 -77 -134
-26 -35 -62 -97 -79 -138 -17 -41 -49 -97 -72 -125 -46 -56 -60 -81 -89 -159
-12 -30 -41 -81 -66 -113 -49 -62 -84 -125 -103 -184 -6 -20 -26 -54 -44 -75
-55 -65 -74 -97 -103 -168 -15 -38 -51 -98 -80 -135 -29 -36 -63 -93 -76 -126
-12 -33 -47 -96 -77 -140 -113 -166 -123 -297 -28 -355 91 -56 199 -5 264 125
20 39 51 88 69 111 19 22 53 83 77 135 25 52 63 116 85 143 23 27 54 83 71
124 17 41 55 106 85 146 30 39 68 105 85 146 17 41 51 100 76 130 24 30 57 84
72 120 14 36 44 90 64 120 21 30 56 87 78 127 82 145 145 142 215 -10 18 -40
53 -102 78 -139 25 -36 51 -83 58 -105 20 -60 49 -113 96 -173 23 -30 55 -88
70 -129 16 -43 49 -102 80 -144 29 -38 61 -93 70 -121 23 -71 39 -101 95 -177
27 -36 62 -101 79 -145 35 -91 142 -244 193 -274 38 -23 88 -25 166 -6 31 8
69 17 84 20 28 7 28 7 25 107 -3 101 -3 101 -42 114 -61 21 -91 58 -126 156
-18 49 -53 118 -80 156 -26 37 -59 100 -74 139 -15 40 -50 103 -81 143 -29 39
-63 96 -74 127 -30 78 -48 113 -88 161 -18 23 -45 68 -59 100 -53 123 -65 144
-107 200 -25 32 -57 90 -72 130 -14 40 -48 101 -74 137 -26 35 -58 93 -71 128
-66 183 -214 287 -328 231z"/>
</g>
</svg>
