<svg xmlns="http://www.w3.org/2000/svg" viewBox="0 0 300.101280 260.760806">
<g transform="translate(-19.897649,278.170738) scale(0.100000,-0.100000)" fill="#000000" stroke="none">
<path d="M1593 2759 c-70 -34 -137 -117 -197 -244 -30 -62 -75 -141 -101 -176
-26 -35 -68 -109 -94 -164 -27 -55 -70 -129 -96 -164 -26 -36 -69 -111 -96
-168 -27 -57 -75 -141 -108 -186 -33 -45 -74 -116 -92 -157 -36 -85 -47 -104
-105 -180 -24 -30 -65 -103 -93 -162 -27 -58 -74 -139 -104 -180 -31 -40 -75
-116 -100 -168 -24 -52 -72 -136 -106 -186 -34 -51 -71 -117 -81 -148 -107
-304 228 -427 378 -138 23 43 64 109 92 147 28 39 67 104 86 145 51 111 72
149 121 212 24 32 64 102 89 155 25 54 72 134 104 179 33 44 81 128 108 185
27 57 60 118 74 134 48 58 87 122 119 196 18 41 60 117 94 169 34 52 77 119
95 148 84 136 170 124 246 -36 20 -42 59 -110 87 -152 28 -41 72 -123 98 -182
25 -58 67 -132 91 -165 49 -63 81 -122 122 -222 14 -35 48 -95 75 -132 59 -80
62 -86 116 -211 24 -53 66 -129 95 -167 28 -39 73 -120 100 -180 26 -60 58
-124 71 -143 165 -238 194 -252 411 -206 108 23 108 23 108 156 0 126 -1 132
-20 132 -74 0 -143 74 -195 208 -20 53 -62 134 -92 179 -30 45 -74 127 -99
184 -24 56 -66 131 -92 168 -62 85 -84 122 -112 196 -13 33 -55 110 -95 170
-39 61 -89 150 -110 199 -22 49 -57 114 -80 145 -62 86 -72 103 -111 198 -20
48 -53 112 -73 141 -58 85 -79 122 -112 202 -98 233 -268 343 -416 269z"/>
</g>
</svg>
