<svg xmlns="http://www.w3.org/2000/svg" viewBox="0 0 149.926834 130.691509">
<g transform="translate(-10.073166,139.486382) scale(0.100000,-0.100000)" fill="#000000" stroke="none">
<path d="M821 1393 c-34 -7 -106 -84 -121 -129 -7 -21 -25 -56 -42 -77 -16
-20 -40 -63 -54 -93 -14 -31 -38 -72 -54 -92 -16 -21 -36 -57 -46 -82 -9 -25
-32 -64 -51 -87 -18 -23 -40 -61 -49 -85 -8 -24 -28 -60 -45 -81 -17 -20 -41
-61 -54 -90 -13 -29 -34 -66 -48 -83 -13 -16 -38 -56 -54 -89 -16 -33 -44 -84
-63 -112 -45 -72 -52 -138 -18 -178 20 -23 32 -28 64 -27 49 2 82 26 114 84
14 25 38 61 53 81 15 20 34 55 43 78 8 23 29 61 48 83 18 23 41 63 51 90 10
26 35 68 55 93 21 24 43 62 49 84 7 22 25 54 41 73 16 18 43 62 59 98 16 36
34 69 40 72 5 4 24 33 42 66 51 95 92 94 133 -4 15 -36 36 -72 47 -81 10 -10
28 -43 39 -74 12 -31 35 -73 52 -95 17 -21 39 -61 50 -90 11 -28 33 -68 50
-90 17 -21 39 -61 50 -90 11 -28 33 -68 50 -90 17 -21 39 -61 50 -89 22 -59
101 -173 130 -188 21 -11 63 -8 131 11 l37 11 0 59 c0 58 -1 60 -32 73 -43 18
-54 33 -78 102 -11 32 -32 74 -46 93 -15 19 -35 57 -46 85 -11 28 -33 68 -50
89 -16 21 -39 62 -50 90 -11 29 -33 69 -50 90 -16 21 -39 62 -50 90 -11 29
-33 69 -50 90 -16 21 -39 62 -50 91 -11 29 -32 69 -49 89 -16 20 -38 61 -49
91 -19 52 -94 137 -119 137 -5 0 -15 2 -23 4 -7 2 -24 1 -37 -1z"/>
</g>
</svg>
