<svg xmlns="http://www.w3.org/2000/svg" viewBox="0 0 235.069036 220.867618">
<g transform="translate(-7.930964,220.867618) scale(0.100000,-0.100000)" fill="#000000" stroke="none">
<path d="M132 2197 c-55 -31 -53 -16 -52 -554 1 -477 1 -498 21 -544 38 -87 0
-81 509 -80 439 2 453 1 495 -19 24 -12 46 -29 50 -38 4 -9 7 -193 5 -408 l-2
-392 26 -48 c14 -27 29 -64 32 -81 l6 -33 579 0 c557 0 579 1 579 19 0 10 11
39 25 65 14 26 25 53 25 60 0 8 -16 28 -36 45 l-36 32 -451 -1 c-249 -1 -460
2 -471 6 -10 4 -29 30 -42 58 -24 51 -24 52 -24 442 0 389 0 391 -23 424 -47
71 -32 69 -537 70 -288 1 -461 5 -473 12 -10 5 -28 31 -40 56 -20 45 -21 61
-19 427 2 420 0 434 -57 472 -38 26 -56 28 -89 10z"/>
</g>
</svg>
