<svg xmlns="http://www.w3.org/2000/svg" viewBox="0 0 127.919418 160.010872">
<g transform="translate(-9.080582,169.967032) scale(0.100000,-0.100000)" fill="#000000" stroke="none">
<path d="M1008 1677 c-15 -12 -57 -71 -94 -132 -37 -60 -82 -134 -100 -163
-17 -29 -43 -67 -57 -85 -13 -17 -36 -56 -51 -85 -15 -29 -46 -80 -69 -113
-23 -32 -61 -89 -85 -126 -23 -38 -65 -103 -92 -146 -28 -43 -50 -81 -50 -85
0 -4 -24 -43 -53 -87 -29 -44 -74 -111 -99 -150 -24 -38 -64 -99 -88 -134 -84
-127 -99 -188 -55 -235 13 -14 35 -26 48 -26 51 0 90 42 204 225 63 99 125
191 138 205 33 33 68 20 118 -45 21 -28 90 -119 153 -202 64 -84 127 -162 141
-173 38 -29 97 -27 130 6 38 38 27 80 -44 171 -32 40 -78 100 -103 132 -40 52
-96 125 -197 254 -47 61 -51 96 -18 162 17 36 37 61 57 71 46 24 78 5 146 -88
176 -243 327 -433 357 -446 63 -29 125 6 125 72 0 29 -19 60 -108 178 -225
298 -307 404 -333 430 -30 31 -44 76 -34 110 4 13 24 46 45 73 20 28 43 61 50
75 7 14 48 79 91 146 90 138 100 176 53 213 -36 28 -91 27 -126 -2z"/>
</g>
</svg>
