<svg xmlns="http://www.w3.org/2000/svg" viewBox="0 0 320.810697 461.274531">
<g transform="translate(0.810697,460.502604) scale(0.100000,-0.100000)" fill="#000000" stroke="none">
<path d="M170 4568 c-28 -71 -103 -138 -155 -138 -13 0 -15 -107 -15 -1004 0
-1004 0 -1004 45 -1011 25 -3 96 -32 158 -63 112 -57 112 -57 1222 -59 1250
-2 1193 2 1279 -74 79 -69 76 -40 76 -819 0 -755 0 -755 -60 -824 -76 -86 0
-81 -1235 -83 -1268 -2 -1153 3 -1283 -57 -56 -25 -124 -51 -152 -57 -70 -15
-80 -152 -12 -162 87 -14 202 -94 248 -173 38 -64 2612 -71 2639 -6 34 80 123
142 228 157 47 7 47 7 47 1204 0 1197 0 1197 -61 1209 -33 6 -104 32 -158 56
-118 56 25 50 -1252 48 -1455 -3 -1300 -110 -1298 888 1 685 1 685 -45 828
-25 78 -46 149 -46 157 0 36 -156 20 -170 -17z"/>
</g>
</svg>
