<svg xmlns="http://www.w3.org/2000/svg" viewBox="0 0 256.004320 368.000000">
<g transform="translate(0.004320,368.000000) scale(0.100000,-0.100000)" fill="#000000" stroke="none">
<path d="M137 3651 c-8 -40 -61 -97 -102 -111 -35 -12 -35 -12 -35 -805 0
-859 -3 -805 51 -805 10 0 58 -21 106 -46 88 -46 88 -46 993 -48 990 -1 954 1
1018 -59 56 -52 55 -32 54 -664 0 -671 4 -642 -97 -693 -50 -25 -50 -25 -961
-27 -911 -2 -911 -2 -985 -36 -41 -19 -98 -40 -127 -47 -53 -12 -53 -12 -50
-73 3 -61 3 -61 41 -69 78 -16 197 -109 197 -153 0 -13 116 -15 1044 -15 1044
0 1044 0 1054 28 25 71 114 132 194 132 28 0 28 0 28 959 0 958 0 958 -46 965
-26 3 -83 25 -128 47 -54 28 -94 42 -121 42 -22 0 -420 -1 -885 -2 -840 -3
-845 -3 -902 19 -62 23 -127 85 -129 123 0 12 -1 272 -2 577 -2 555 -2 555
-34 653 -18 53 -33 106 -33 117 0 18 -7 20 -69 20 -68 0 -69 0 -74 -29z"/>
</g>
</svg>
