<svg xmlns="http://www.w3.org/2000/svg" viewBox="0 0 255.447972 319.572499">
<g transform="translate(-18.547824,339.763897) scale(0.100000,-0.100000)" fill="#000000" stroke="none">
<path d="M2053 3375 c-65 -33 -89 -63 -217 -272 -124 -202 -195 -315 -301
-476 -45 -67 -102 -162 -128 -211 -26 -50 -78 -133 -116 -185 -37 -53 -85
-125 -106 -161 -22 -36 -71 -113 -110 -172 -128 -195 -215 -335 -266 -430 -28
-51 -74 -124 -103 -163 -29 -38 -65 -92 -81 -120 -31 -55 -206 -327 -321 -500
-161 -243 -158 -425 9 -452 118 -19 188 52 418 425 350 568 331 564 671 122
101 -131 210 -275 243 -321 169 -235 292 -303 413 -228 120 72 97 185 -84 409
-82 101 -178 225 -366 470 -49 63 -118 151 -154 195 -140 171 -154 270 -59
430 100 171 230 140 385 -90 29 -44 79 -111 110 -150 31 -38 83 -107 116 -151
63 -88 199 -264 329 -428 128 -160 233 -207 324 -144 128 88 109 180 -93 439
-61 79 -134 176 -161 214 -27 39 -74 102 -105 140 -31 39 -121 156 -200 260
-79 105 -175 226 -212 269 -125 145 -127 231 -8 396 33 46 95 140 137 209 42
69 119 191 171 270 109 166 131 211 132 264 1 129 -143 205 -267 142z"/>
</g>
</svg>
