<svg xmlns="http://www.w3.org/2000/svg" viewBox="0 0 160.000000 229.497904">
<g transform="translate(0.000000,229.997904) scale(0.100000,-0.100000)" fill="#000000" stroke="none">
<path d="M90 2286 c0 -20 -40 -66 -66 -76 l-24 -10 0 -495 c0 -480 1 -495 19
-495 10 0 45 -14 77 -31 l59 -31 575 -1 c630 -2 620 -1 648 -62 9 -19 12 -130
12 -395 l0 -368 -26 -31 c-15 -18 -42 -35 -65 -41 -27 -8 -224 -11 -593 -9
-485 1 -556 0 -583 -14 -16 -9 -51 -21 -76 -28 -45 -11 -47 -13 -47 -49 0 -34
3 -38 40 -49 43 -13 96 -53 104 -79 5 -16 52 -17 660 -17 l654 0 10 27 c12 33
67 68 105 68 l27 0 0 600 0 600 -24 0 c-12 0 -45 12 -72 26 l-49 26 -549 -1
c-599 -2 -615 0 -667 55 l-24 26 0 351 c-1 314 -3 361 -20 434 l-20 83 -42 0
c-30 0 -43 -4 -43 -14z"/>
</g>
</svg>
