<svg xmlns="http://www.w3.org/2000/svg" viewBox="0 0 203.815584 255.878036">
<g transform="translate(-15.009731,271.965555) scale(0.100000,-0.100000)" fill="#000000" stroke="none">
<path d="M1644 2706 c-39 -17 -75 -61 -148 -183 -76 -125 -200 -321 -281 -443
-35 -52 -77 -122 -93 -155 -16 -33 -51 -89 -78 -125 -26 -36 -68 -99 -93 -140
-53 -87 -143 -227 -219 -342 -29 -44 -68 -110 -86 -146 -19 -37 -55 -94 -81
-127 -26 -33 -56 -78 -67 -100 -18 -37 -63 -106 -234 -366 -87 -132 -114 -192
-114 -257 0 -128 107 -180 214 -105 41 29 68 66 196 273 170 274 229 360 262
380 39 25 81 20 116 -13 23 -21 266 -335 347 -447 78 -108 166 -207 204 -228
70 -40 163 -21 201 40 42 69 22 121 -107 283 -85 106 -112 141 -273 352 -41
54 -100 128 -131 165 -121 141 -140 214 -86 328 40 85 87 125 145 125 62 0 90
-22 172 -139 36 -51 90 -124 121 -162 30 -38 76 -98 102 -134 119 -167 314
-404 347 -421 98 -53 200 -8 207 92 5 69 -4 88 -140 265 -112 147 -149 195
-359 474 -72 96 -154 199 -180 227 -101 109 -102 198 -4 318 19 22 62 88 97
145 34 58 100 162 145 231 121 182 134 222 94 287 -35 56 -125 78 -196 48z"/>
</g>
</svg>
