<svg xmlns="http://www.w3.org/2000/svg" viewBox="0 0 273.711432 210.287598">
<g transform="translate(-16.560957,209.905854) scale(0.100000,-0.100000)" fill="#000000" stroke="none">
<path d="M255 2091 c-33 -14 -74 -61 -82 -95 -5 -17 -8 -422 -7 -901 1 -975
-5 -913 89 -1023 47 -54 65 -53 123 5 94 94 97 107 97 423 1 185 5 288 13 316
12 41 54 94 76 94 6 1 440 1 964 1 1047 1 983 4 1016 -59 34 -66 39 -115 37
-354 -2 -273 -2 -276 89 -388 29 -36 57 -75 63 -87 24 -52 51 -30 108 90 58
121 56 95 61 927 3 559 -7 936 -28 975 -50 96 -158 110 -242 32 -53 -50 -54
-56 -50 -386 3 -343 2 -349 -72 -399 -55 -37 -1945 -30 -1985 8 -47 43 -48 57
-49 395 -1 302 -2 322 -21 355 -35 61 -137 96 -200 71z"/>
</g>
</svg>
