<svg xmlns="http://www.w3.org/2000/svg" viewBox="0 0 171.014438 130.862565">
<g transform="translate(-10.092756,131.008389) scale(0.100000,-0.100000)" fill="#000000" stroke="none">
<path d="M129 1284 l-24 -26 -2 -551 -2 -552 24 -50 c13 -27 33 -61 44 -75
l20 -25 40 39 c67 66 71 81 71 289 0 178 1 187 23 212 l22 26 600 0 c330 0
607 -3 616 -6 9 -3 25 -25 35 -48 17 -36 19 -62 16 -202 l-3 -160 31 -45 c17
-25 41 -60 53 -77 34 -51 50 -43 86 43 l32 76 0 537 c0 304 -4 548 -9 562 -27
70 -111 79 -165 19 l-29 -32 4 -204 3 -204 -26 -25 -26 -26 -599 0 c-329 0
-607 0 -616 1 -10 0 -25 12 -35 27 -15 23 -17 49 -15 223 4 214 -1 241 -49
266 -44 22 -92 18 -120 -12z"/>
</g>
</svg>
