<svg xmlns="http://www.w3.org/2000/svg" viewBox="0 0 169.765476 161.612180">
<g transform="translate(-0.112079,163.624418) scale(0.100000,-0.100000)" fill="#000000" stroke="none">
<path d="M140 1620 c-19 -11 -59 -27 -88 -36 -50 -15 -53 -17 -50 -47 2 -24 9
-33 33 -40 17 -6 49 -23 72 -39 24 -16 55 -29 70 -30 16 0 288 0 606 1 568 2
579 2 611 -19 19 -11 39 -27 46 -35 9 -11 12 -154 12 -612 l-1 -597 42 -73
c23 -40 48 -73 54 -73 7 0 19 13 27 29 16 30 102 111 118 111 6 0 7 17 3 43
-11 60 -12 1162 -1 1219 13 71 4 89 -77 151 l-74 56 -648 1 c-356 0 -664 2
-684 5 -25 4 -47 -1 -71 -15z"/>
</g>
</svg>
