<svg xmlns="http://www.w3.org/2000/svg" viewBox="0 0 272.000000 256.497559">
<g transform="translate(-0.000000,261.832645) scale(0.100000,-0.100000)" fill="#000000" stroke="none">
<path d="M183 2576 c-50 -25 -112 -50 -137 -57 -46 -11 -46 -11 -46 -58 0 -47
0 -47 43 -58 23 -7 67 -28 97 -48 109 -73 12 -67 1066 -66 953 2 953 2 1002
-23 91 -46 153 -148 128 -212 -4 -12 -10 -1654 -6 -1795 0 -23 116 -198 135
-205 10 -4 48 28 112 94 54 54 108 102 121 106 20 7 22 14 22 76 0 38 -3 71
-7 73 -8 5 -4 1639 4 1887 3 115 3 115 -97 200 -128 108 -177 133 -245 125
-62 -8 -1922 -7 -2025 1 -74 5 -77 5 -167 -40z"/>
</g>
</svg>
