<svg xmlns="http://www.w3.org/2000/svg" viewBox="0 0 212.005395 223.991895">
<g transform="translate(-12.005393,224.000000) scale(0.100000,-0.100000)" fill="#000000" stroke="none">
<path d="M236 2208 c-7 -18 -37 -64 -65 -103 -62 -85 -66 -117 -19 -170 70
-81 28 -76 772 -78 748 -2 716 1 716 -75 0 -98 -45 -202 -127 -295 -19 -21
-49 -71 -67 -111 -18 -40 -56 -101 -84 -135 -28 -35 -60 -89 -72 -121 -12 -31
-46 -88 -77 -126 -30 -38 -70 -102 -89 -142 -18 -40 -53 -98 -78 -130 -24 -31
-61 -92 -81 -134 -20 -42 -58 -101 -83 -130 -95 -111 -111 -191 -72 -355 25
-103 25 -103 92 -103 65 0 68 1 74 26 4 14 32 58 63 98 31 39 71 95 89 124 17
29 52 76 76 106 24 29 54 82 67 116 13 34 48 91 78 128 29 37 69 101 88 142
19 41 52 95 73 120 21 25 57 84 80 130 23 46 64 111 91 144 26 33 58 85 70
115 25 62 45 94 100 161 21 25 50 72 64 105 15 33 45 84 67 113 22 29 61 99
87 155 47 101 90 153 147 179 41 19 29 45 -34 77 -83 42 -127 94 -156 184 -5
16 -56 17 -891 17 -885 0 -885 0 -899 -32z"/>
</g>
</svg>
