<svg xmlns="http://www.w3.org/2000/svg" viewBox="0 0 132.821022 140.036400">
<g transform="translate(-7.000000,140.000000) scale(0.100000,-0.100000)" fill="#000000" stroke="none">
<path d="M150 1389 c0 -6 -18 -36 -40 -68 -22 -31 -40 -64 -40 -73 0 -9 18
-32 39 -51 l40 -36 421 -1 c266 0 429 -4 441 -11 24 -12 24 -32 0 -108 -11
-37 -33 -77 -54 -100 -19 -22 -45 -61 -57 -88 -11 -26 -32 -59 -45 -73 -13
-14 -34 -47 -46 -75 -12 -27 -35 -66 -52 -84 -16 -19 -40 -58 -52 -85 -13 -28
-37 -69 -54 -90 -18 -22 -40 -59 -51 -83 -11 -24 -35 -63 -55 -86 -51 -59 -62
-102 -45 -185 7 -37 15 -73 18 -79 6 -18 92 -17 92 1 0 12 34 62 115 166 19
25 48 72 64 106 16 33 42 76 59 95 17 19 41 59 55 89 13 30 32 61 41 69 10 8
31 42 48 75 17 34 41 72 54 86 12 14 34 50 47 80 14 31 40 74 59 97 19 22 41
56 48 74 8 19 26 50 41 70 15 19 35 55 45 80 24 61 50 97 85 114 41 22 36 41
-18 67 -37 18 -53 34 -72 71 l-23 47 -554 0 c-394 0 -554 -3 -554 -11z"/>
</g>
</svg>
