<svg xmlns="http://www.w3.org/2000/svg" viewBox="0 0 394.075779 160.490947">
<g transform="translate(-10.587685,180.591781) scale(0.100000,-0.100000)" fill="#000000" stroke="none">
<path d="M196 1788 c-3 -7 -7 -28 -10 -47 -3 -18 -21 -68 -40 -110 -53 -117
-53 -116 -3 -211 25 -47 59 -124 76 -172 36 -103 52 -137 96 -198 17 -25 50
-79 73 -120 22 -41 73 -113 113 -160 39 -47 94 -119 122 -160 106 -157 348
-347 489 -384 207 -54 474 -18 603 80 33 25 96 69 140 98 48 32 104 80 140
122 33 38 79 89 103 114 24 25 63 79 87 120 24 41 67 102 95 135 28 33 72 91
98 130 117 175 359 336 482 322 94 -11 263 -117 354 -222 35 -40 83 -90 106
-111 23 -21 63 -65 88 -99 26 -33 73 -91 105 -129 32 -39 79 -110 105 -160
102 -194 223 -267 342 -206 144 74 108 274 -105 585 -159 232 -468 549 -599
614 -96 48 -149 95 -166 147 -17 50 -494 54 -505 4 -11 -52 -85 -121 -186
-175 -119 -63 -311 -251 -383 -376 -25 -41 -71 -107 -103 -146 -32 -38 -82
-105 -111 -147 -32 -47 -76 -94 -114 -124 -34 -26 -89 -71 -122 -100 -122
-107 -252 -131 -377 -70 -86 43 -311 289 -408 446 -27 44 -72 110 -99 147 -32
42 -62 97 -81 151 -40 110 -55 138 -109 204 -48 59 -88 135 -98 188 -6 32 -6
32 -100 32 -67 0 -96 -4 -98 -12z"/>
</g>
</svg>
