<svg xmlns="http://www.w3.org/2000/svg" viewBox="0 0 197.552138 79.598160">
<g transform="translate(-5.111563,90.000000) scale(0.100000,-0.100000)" fill="#000000" stroke="none">
<path d="M95 868 c-4 -18 -16 -47 -26 -64 -24 -40 -24 -59 1 -95 12 -15 29
-53 39 -82 25 -73 87 -179 136 -236 23 -25 53 -65 68 -88 33 -52 146 -148 207
-176 63 -30 237 -31 291 -2 78 42 175 113 188 137 7 14 26 35 42 47 16 12 38
40 50 64 12 23 33 56 48 72 14 17 40 52 56 78 21 33 55 65 112 104 73 49 87
55 120 51 21 -3 62 -22 91 -42 80 -53 249 -242 290 -322 50 -98 114 -139 170
-110 42 22 59 68 42 115 -39 111 -91 198 -170 284 -128 139 -181 187 -234 212
-38 18 -57 34 -66 55 l-12 30 -119 0 c-66 0 -119 -4 -119 -9 0 -21 -56 -74
-104 -98 -57 -28 -156 -124 -182 -175 -9 -18 -33 -53 -53 -78 -21 -25 -50 -64
-66 -87 -15 -24 -31 -43 -35 -43 -4 0 -30 -20 -56 -43 -27 -24 -59 -49 -71
-55 -30 -16 -108 -15 -142 2 -38 20 -174 174 -204 231 -8 17 -29 48 -46 69
-18 22 -37 59 -43 84 -6 25 -27 63 -49 88 -21 24 -41 60 -45 79 -6 34 -7 35
-54 35 -47 0 -49 -1 -55 -32z"/>
</g>
</svg>
