<svg xmlns="http://www.w3.org/2000/svg" viewBox="0 0 415.057636 186.171286">
<g transform="translate(-0.304925,193.400016) scale(0.100000,-0.100000)" fill="#000000" stroke="none">
<path d="M 229 1741 C 204 1724 183 1691 169 1659 C 154 1628 144 1587 141 1549 C 138 1512 143 1472 152 1433 C 160 1394 175 1357 190 1317 C 206 1278 225 1235 243 1196 C 261 1157 279 1120 299 1083 C 319 1047 341 1010 363 975 C 385 939 407 905 432 869 C 456 834 484 796 509 761 C 535 727 560 694 586 661 C 612 628 638 595 665 564 C 693 532 721 501 751 472 C 781 442 811 415 845 389 C 878 362 916 335 953 313 C 990 291 1026 272 1064 257 C 1102 242 1142 231 1183 223 C 1223 215 1264 211 1306 210 C 1349 209 1396 212 1438 218 C 1480 224 1520 233 1559 245 C 1598 258 1636 274 1673 293 C 1710 311 1746 334 1781 357 C 1815 380 1848 404 1882 431 C 1915 458 1950 490 1980 519 C 2011 549 2039 580 2066 611 C 2094 643 2120 676 2146 709 C 2171 742 2194 776 2220 810 C 2246 845 2273 883 2299 918 C 2325 952 2349 985 2376 1017 C 2402 1050 2429 1082 2458 1112 C 2487 1142 2518 1171 2550 1196 C 2582 1222 2616 1247 2653 1266 C 2690 1285 2732 1303 2771 1312 C 2810 1320 2850 1321 2888 1315 C 2926 1310 2965 1295 3001 1278 C 3038 1261 3072 1238 3106 1213 C 3140 1188 3175 1156 3206 1127 C 3238 1098 3266 1068 3295 1038 C 3324 1007 3352 976 3380 944 C 3407 912 3434 880 3460 847 C 3486 815 3511 782 3536 747 C 3561 712 3587 673 3612 638 C 3637 604 3659 569 3687 540 C 3714 511 3744 482 3776 465 C 3808 448 3846 436 3878 439 C 3911 441 3949 458 3972 480 C 3995 502 4009 537 4016 572 C 4022 606 4017 647 4009 685 C 4002 724 3985 763 3969 801 C 3952 838 3932 874 3910 912 C 3888 948 3862 987 3838 1023 C 3813 1058 3788 1091 3763 1124 C 3737 1157 3710 1189 3682 1221 C 3655 1253 3628 1284 3598 1315 C 3569 1347 3536 1380 3506 1410 C 3474 1440 3445 1468 3413 1496 C 3381 1523 3348 1549 3315 1574 C 3282 1600 3248 1624 3214 1648 C 3181 1672 3150 1697 3114 1718 C 3079 1739 3041 1760 3003 1773 C 2965 1786 2926 1792 2886 1796 C 2846 1800 2803 1800 2764 1795 C 2724 1790 2686 1782 2649 1766 C 2612 1751 2577 1727 2543 1704 C 2509 1681 2478 1655 2446 1630 C 2413 1605 2378 1581 2346 1555 C 2312 1529 2279 1504 2248 1476 C 2216 1448 2187 1420 2157 1389 C 2128 1358 2098 1322 2071 1289 C 2044 1255 2020 1222 1995 1188 C 1970 1154 1946 1120 1921 1086 C 1896 1053 1872 1020 1845 986 C 1818 952 1788 916 1760 884 C 1731 852 1702 824 1671 796 C 1640 768 1608 740 1574 717 C 1540 694 1505 671 1468 655 C 1431 640 1393 628 1354 626 C 1314 623 1270 629 1232 640 C 1194 652 1159 673 1125 695 C 1092 718 1061 747 1031 775 C 1001 804 974 835 945 867 C 917 900 888 936 861 970 C 835 1004 811 1038 787 1072 C 763 1106 740 1141 717 1177 C 695 1212 673 1248 652 1284 C 632 1321 614 1357 594 1395 C 574 1433 552 1475 532 1512 C 510 1549 490 1585 468 1618 C 445 1651 423 1687 398 1711 C 373 1734 345 1756 317 1761 C 289 1766 254 1758 229 1741 Z"/>
</g>
</svg>
