<svg xmlns="http://www.w3.org/2000/svg" viewBox="0 0 316.072930 127.807231">
<g transform="translate(-8.269593,144.000000) scale(0.100000,-0.100000)" fill="#000000" stroke="none">
<path d="M156 1425 c-3 -9 -6 -26 -6 -38 0 -12 -16 -53 -35 -90 -44 -86 -44
-94 5 -174 22 -36 47 -91 56 -122 18 -62 46 -121 79 -166 12 -16 37 -59 56
-94 18 -36 56 -89 84 -119 27 -30 74 -91 105 -136 62 -91 233 -239 327 -283
147 -68 430 -49 540 38 26 21 78 57 115 79 37 22 80 57 95 77 16 21 54 64 86
97 32 33 72 86 88 119 17 32 49 79 72 104 23 25 65 80 92 122 42 63 65 86 140
139 194 135 223 137 388 31 109 -70 386 -381 452 -506 93 -179 205 -235 300
-152 41 36 56 83 44 136 -14 62 -87 225 -119 265 -16 20 -45 62 -63 92 -19 31
-111 137 -205 235 -161 168 -176 181 -259 222 -79 40 -90 49 -112 92 -23 47
-23 47 -212 47 -189 0 -189 0 -200 -27 -21 -56 -59 -91 -146 -136 -108 -56
-258 -203 -313 -305 -18 -34 -55 -87 -82 -118 -27 -31 -64 -79 -82 -108 -19
-29 -51 -67 -72 -84 -22 -17 -68 -55 -102 -84 -35 -29 -75 -62 -89 -73 -38
-31 -168 -34 -226 -6 -65 32 -259 243 -329 358 -22 37 -61 93 -85 124 -30 39
-51 81 -68 135 -18 60 -36 93 -70 133 -53 63 -72 96 -83 148 -8 38 -8 38 -84
41 -62 2 -77 0 -82 -13z"/>
</g>
</svg>
