<svg xmlns="http://www.w3.org/2000/svg" viewBox="0 0 225.610678 330.616584">
<g transform="translate(-0.000000,340.862706) scale(0.100000,-0.100000)" fill="#000000" stroke="none">
<path d="M104 3377 l-35 -32 1 -648 c0 -412 -3 -661 -10 -685 -5 -21 -21 -49
-35 -62 l-25 -23 0 -207 0 -207 29 -6 c20 -4 39 -20 60 -50 57 -84 96 -77 180
32 l26 34 5 266 5 267 41 69 c23 39 47 86 53 105 6 19 40 65 74 101 57 60 71
69 144 93 90 30 103 29 201 -15 45 -20 67 -37 80 -60 9 -17 33 -53 51 -78 49
-65 63 -110 55 -184 -4 -44 0 -91 15 -164 26 -126 26 -145 0 -213 -19 -48 -21
-69 -16 -165 3 -60 11 -126 17 -145 6 -23 10 -235 10 -600 0 -311 4 -582 9
-603 17 -73 81 -112 141 -87 58 24 60 40 60 465 -1 281 2 391 11 401 6 8 29
14 49 14 31 0 49 -9 91 -45 33 -28 66 -47 88 -50 20 -3 58 -10 84 -15 72 -15
105 -12 205 13 83 22 95 28 161 87 39 35 71 67 71 70 0 3 20 27 44 52 30 30
48 60 55 89 7 24 27 74 47 111 30 58 37 85 49 188 8 66 23 157 34 202 10 46
22 117 25 159 5 71 4 80 -29 147 -55 115 -110 118 -161 9 -20 -44 -24 -68 -24
-152 0 -55 -5 -118 -10 -140 -5 -22 -14 -89 -20 -150 -13 -118 -22 -148 -64
-209 -14 -21 -30 -55 -36 -75 -15 -56 -129 -170 -187 -187 -56 -17 -109 -18
-169 -3 -52 13 -133 88 -166 154 -12 22 -35 57 -51 78 -30 37 -31 41 -37 175
-5 123 -9 143 -34 197 -29 60 -29 60 -23 206 6 132 5 152 -12 190 -11 24 -25
75 -31 112 -9 48 -23 84 -47 120 -19 29 -44 76 -55 105 -11 30 -29 57 -41 63
-12 6 -42 30 -67 54 -47 44 -117 77 -216 100 -85 20 -128 18 -182 -9 -26 -13
-67 -27 -92 -31 -36 -6 -54 -17 -90 -56 -51 -55 -96 -71 -123 -44 -10 9 -17
26 -17 38 -1 12 -2 197 -3 410 l-2 389 -37 34 c-48 43 -78 44 -124 1z"/>
</g>
</svg>
