<svg xmlns="http://www.w3.org/2000/svg" viewBox="0 0 451.992499 659.778676">
<g transform="translate(0.436455,681.000000) scale(0.100000,-0.100000)" fill="#000000" stroke="none">
<path d="M234 6778 c-113 -78 -106 28 -104 -1405 0 -1121 -1 -1275 -15 -1328
-19 -71 -56 -131 -90 -147 -37 -17 -40 -878 -3 -878 40 0 104 -40 137 -85 108
-150 191 -160 311 -36 127 130 125 122 126 611 2 565 6 595 98 743 25 41 64
114 85 164 50 119 41 106 166 239 132 141 234 195 427 228 134 23 378 -100
452 -229 16 -27 51 -81 79 -119 95 -132 100 -152 108 -386 5 -169 11 -227 34
-330 39 -181 38 -268 -6 -395 -40 -119 -47 -345 -15 -520 9 -49 23 -126 31
-170 12 -67 14 -258 15 -1187 0 -761 3 -1123 11 -1158 41 -193 270 -243 363
-80 31 55 31 55 36 820 4 589 8 770 18 787 48 84 161 71 290 -34 196 -159 643
-180 912 -43 68 35 220 174 356 326 102 115 112 130 148 240 18 55 58 147 89
204 71 135 83 177 107 395 20 187 34 264 75 422 73 282 48 504 -76 661 -150
191 -320 -21 -318 -393 1 -121 -3 -178 -24 -295 -15 -80 -33 -210 -42 -290
-25 -225 -33 -249 -114 -384 -27 -44 -64 -119 -82 -166 -48 -125 -254 -334
-364 -369 -274 -88 -512 12 -669 280 -27 46 -69 112 -94 147 -76 108 -84 139
-92 372 -9 236 -17 281 -74 405 -45 100 -48 138 -36 545 4 155 4 155 -28 237
-17 45 -42 135 -56 200 -31 150 -50 201 -113 293 -28 41 -61 100 -73 130 -40
103 -71 148 -134 197 -33 26 -89 73 -122 105 -90 82 -210 138 -403 185 -164
41 -263 38 -368 -9 -45 -20 -121 -49 -170 -63 -111 -34 -157 -61 -211 -124
-93 -109 -213 -123 -263 -31 -11 20 -15 167 -17 800 -2 775 -2 775 -30 830
-37 73 -103 120 -172 120 -37 0 -58 -7 -96 -32z"/>
</g>
</svg>
