<svg xmlns="http://www.w3.org/2000/svg" viewBox="0 0 360.319989 528.833806">
<g transform="translate(-0.000000,545.091698) scale(0.100000,-0.100000)" fill="#000000" stroke="none">
<path d="M205 5438 c-37 -20 -67 -53 -84 -88 -14 -33 -16 -134 -14 -1055 3
-1146 6 -1094 -68 -1168 -39 -39 -39 -39 -39 -372 0 -333 0 -333 34 -339 45
-9 78 -36 110 -90 67 -114 155 -107 258 21 79 99 77 90 78 503 0 420 3 445 75
550 24 36 58 101 74 145 28 71 42 91 129 181 109 115 111 115 236 155 119 38
156 37 270 -7 112 -43 153 -75 196 -151 18 -32 47 -76 65 -99 73 -89 80 -113
82 -284 1 -124 6 -180 27 -279 34 -160 33 -218 -1 -312 -37 -98 -38 -331 -4
-493 20 -95 21 -123 21 -980 0 -520 4 -905 10 -940 30 -185 221 -237 299 -82
24 47 24 47 23 654 -1 663 -2 647 58 672 46 19 108 -2 176 -61 75 -67 100 -78
223 -101 185 -35 201 -34 371 8 154 38 154 38 229 104 179 157 295 292 316
367 24 87 35 112 78 185 53 91 65 138 83 313 8 83 24 191 36 240 11 50 26 117
34 150 7 33 15 119 16 191 3 130 3 130 -45 227 -51 103 -77 127 -135 127 -91
0 -168 -170 -156 -345 6 -88 0 -152 -31 -323 -8 -46 -19 -133 -25 -195 -14
-150 -24 -184 -80 -272 -27 -42 -59 -107 -72 -143 -29 -84 -212 -278 -283
-300 -102 -33 -273 -24 -355 18 -49 25 -159 144 -194 210 -16 30 -49 81 -72
113 -61 81 -74 134 -74 291 0 171 -11 229 -61 339 -42 91 -42 91 -30 311 12
229 12 234 -29 336 -12 30 -28 92 -36 137 -20 112 -37 157 -86 222 -23 30 -54
89 -69 130 -22 60 -37 84 -70 111 -23 19 -71 63 -108 96 -94 88 -197 133 -391
174 -124 25 -155 22 -260 -25 -42 -19 -101 -40 -131 -46 -77 -16 -99 -30 -158
-98 -57 -65 -106 -88 -162 -76 -62 14 -61 2 -63 699 -1 631 -1 631 -25 669
-45 74 -136 108 -196 75z"/>
</g>
</svg>
