<svg xmlns="http://www.w3.org/2000/svg" viewBox="0 0 154.150686 295.000000">
<g transform="translate(0.000000,295.000000) scale(0.100000,-0.100000)" fill="#000000" stroke="none">
<path d="M110 2903 c-53 -60 -61 -81 -49 -129 5 -22 8 -460 8 -989 0 -889 -1
-952 -18 -990 -10 -22 -25 -46 -34 -54 -15 -12 -17 -46 -17 -317 l0 -304 24 0
c38 0 67 -30 73 -78 l6 -42 52 0 c52 0 53 1 59 33 4 20 21 48 46 70 l39 38 3
382 3 382 42 90 c23 50 49 119 58 154 8 35 28 79 43 100 16 20 40 55 54 79 14
23 52 71 85 105 74 77 179 127 267 127 78 0 210 -63 246 -117 13 -21 39 -56
57 -77 18 -21 40 -60 49 -85 9 -25 30 -75 46 -110 15 -35 35 -102 43 -149 17
-94 34 -418 38 -698 2 -176 3 -181 27 -210 14 -16 34 -49 44 -72 25 -54 53
-54 72 -1 6 20 24 55 39 77 15 23 27 51 27 64 -10 394 -37 801 -63 936 -17 88
-95 280 -129 319 -17 19 -42 58 -56 87 -14 30 -38 61 -60 75 -19 13 -39 32
-45 42 -5 10 -59 43 -120 73 l-112 56 -106 0 c-96 0 -110 -3 -151 -26 -25 -14
-66 -34 -93 -45 -73 -29 -174 -114 -202 -169 -19 -37 -33 -51 -64 -64 -41 -16
-70 -13 -72 8 0 6 0 315 1 686 l2 675 -36 47 c-32 41 -63 68 -79 68 -3 0 -24
-21 -47 -47z"/>
</g>
</svg>
