<svg xmlns="http://www.w3.org/2000/svg" viewBox="0 0 309.322841 587.985793">
<g transform="translate(0.772568,587.403735) scale(0.100000,-0.100000)" fill="#000000" stroke="none">
<path d="M295 5870 c-102 -41 -191 -201 -182 -328 4 -48 7 -937 8 -1975 1
-2136 7 -1959 -78 -2045 -66 -66 -68 -1275 -2 -1286 103 -16 135 -57 164 -208
9 -49 210 -43 218 6 9 55 33 97 96 169 33 36 64 81 70 100 14 43 14 -2 13 736
-2 758 -3 747 103 971 40 85 73 174 90 240 33 130 52 174 112 259 27 36 68 98
93 138 147 236 366 404 603 464 191 47 488 -76 616 -255 32 -45 83 -114 114
-155 37 -50 67 -105 92 -170 20 -53 57 -142 82 -199 71 -165 113 -402 128
-722 3 -69 12 -273 21 -455 11 -213 15 -412 11 -561 -6 -280 -6 -283 113 -448
104 -145 103 -145 188 -11 131 208 123 167 112 547 -5 183 -14 387 -19 453 -6
66 -17 245 -26 398 -28 490 -67 732 -158 965 -30 76 -66 171 -81 212 -17 50
-45 99 -81 145 -30 39 -74 103 -97 143 -77 132 -92 150 -205 250 -211 188
-439 286 -672 290 -219 4 -233 1 -406 -83 -71 -34 -155 -74 -185 -89 -77 -36
-263 -190 -304 -251 -18 -27 -46 -69 -61 -93 -51 -77 -164 -120 -211 -81 -46
38 -45 2 -44 1398 2 1461 7 1348 -65 1435 -59 73 -130 113 -170 96z"/>
</g>
</svg>
