<svg xmlns="http://www.w3.org/2000/svg" viewBox="0 0 451.992499 659.778676">
<g transform="translate(0.436455,681.000000) scale(0.100000,-0.100000)" fill="#000000" stroke="none">
<path d="M 270 6698 C 229 6678 194 6622 172 6560 C 150 6499 143 6409 136 6329 C 129 6249 131 6159 130 6079 C 129 5998 130 5927 129 5846 C 129 5766 130 5679 130 5595 C 130 5511 130 5427 130 5343 C 130 5259 130 5172 130 5091 C 130 5011 130 4940 130 4859 C 130 4778 130 4691 129 4607 C 128 4524 129 4439 124 4356 C 119 4274 110 4188 98 4110 C 86 4033 66 3967 51 3891 C 37 3814 19 3731 11 3650 C 3 3569 0 3480 3 3403 C 6 3326 10 3254 32 3186 C 53 3118 88 3043 133 2996 C 178 2950 247 2912 302 2909 C 358 2906 426 2938 469 2979 C 511 3020 539 3087 559 3157 C 580 3227 585 3316 591 3398 C 598 3480 595 3565 598 3648 C 602 3732 604 3819 614 3898 C 624 3977 636 4046 659 4121 C 682 4196 715 4277 753 4349 C 791 4422 838 4496 887 4557 C 936 4618 985 4670 1047 4714 C 1109 4758 1185 4801 1259 4820 C 1332 4839 1415 4844 1489 4829 C 1562 4815 1639 4776 1700 4733 C 1760 4691 1809 4637 1852 4574 C 1895 4512 1933 4434 1959 4358 C 1985 4282 1997 4199 2010 4117 C 2022 4036 2030 3949 2037 3869 C 2044 3789 2049 3719 2049 3639 C 2049 3560 2040 3474 2035 3392 C 2030 3309 2020 3223 2020 3143 C 2019 3063 2024 2992 2030 2912 C 2035 2832 2046 2746 2052 2662 C 2058 2579 2062 2495 2065 2412 C 2067 2328 2068 2241 2068 2160 C 2069 2079 2069 2008 2069 1928 C 2070 1847 2070 1760 2070 1676 C 2070 1592 2070 1508 2070 1424 C 2070 1340 2070 1253 2070 1173 C 2071 1092 2070 1021 2072 940 C 2073 860 2070 770 2078 690 C 2085 610 2092 521 2116 459 C 2139 398 2176 342 2217 322 C 2258 302 2324 308 2364 340 C 2403 373 2433 447 2452 517 C 2470 586 2470 679 2475 757 C 2480 836 2478 908 2479 989 C 2480 1070 2480 1157 2481 1241 C 2482 1324 2480 1411 2485 1491 C 2490 1572 2492 1662 2511 1724 C 2529 1786 2552 1839 2597 1864 C 2641 1889 2708 1883 2775 1874 C 2843 1864 2926 1825 3000 1808 C 3075 1791 3145 1775 3223 1772 C 3301 1769 3388 1774 3467 1791 C 3546 1808 3624 1836 3695 1874 C 3766 1912 3835 1966 3894 2017 C 3954 2069 4002 2122 4050 2185 C 4099 2247 4145 2320 4185 2392 C 4225 2465 4259 2541 4289 2619 C 4319 2696 4344 2779 4364 2856 C 4384 2934 4396 3004 4410 3082 C 4425 3162 4440 3248 4453 3330 C 4466 3412 4483 3499 4487 3577 C 4491 3655 4494 3730 4478 3799 C 4463 3869 4432 3953 4395 3993 C 4358 4034 4297 4056 4254 4042 C 4211 4028 4166 3966 4139 3908 C 4111 3851 4102 3774 4088 3698 C 4075 3622 4070 3533 4059 3450 C 4049 3367 4039 3284 4025 3201 C 4011 3119 3996 3034 3975 2957 C 3954 2880 3930 2814 3898 2742 C 3865 2670 3824 2591 3778 2525 C 3732 2458 3676 2390 3619 2341 C 3561 2292 3501 2253 3432 2231 C 3363 2209 3278 2198 3204 2208 C 3130 2218 3053 2251 2989 2292 C 2924 2334 2864 2399 2816 2458 C 2767 2518 2730 2580 2698 2651 C 2666 2722 2642 2804 2623 2884 C 2603 2963 2596 3047 2582 3129 C 2568 3210 2551 3295 2537 3374 C 2524 3453 2510 3521 2502 3601 C 2493 3680 2492 3767 2485 3850 C 2479 3932 2475 4019 2463 4098 C 2451 4176 2437 4246 2415 4322 C 2394 4399 2366 4482 2334 4558 C 2302 4634 2265 4709 2222 4779 C 2179 4848 2128 4918 2074 4975 C 2021 5032 1967 5079 1902 5121 C 1836 5164 1759 5204 1682 5231 C 1606 5257 1524 5275 1444 5280 C 1364 5284 1279 5274 1203 5258 C 1127 5243 1060 5212 990 5186 C 920 5160 842 5113 781 5104 C 720 5094 660 5099 622 5130 C 584 5160 568 5222 553 5288 C 538 5354 538 5445 535 5527 C 532 5609 533 5694 532 5778 C 532 5862 532 5949 531 6030 C 531 6110 533 6183 528 6262 C 524 6340 523 6432 504 6502 C 485 6572 454 6646 415 6679 C 376 6712 310 6718 270 6698 Z"/>
</g>
</svg>
