<svg xmlns="http://www.w3.org/2000/svg" viewBox="0 0 246.416585 470.733823">
<g transform="translate(-0.000000,470.693032) scale(0.100000,-0.100000)" fill="#000000" stroke="none">
<path d="M182 4654 c-29 -31 -60 -70 -68 -86 -14 -26 -15 -204 -12 -1546 1
-834 3 -1557 3 -1607 0 -100 -30 -184 -81 -224 -24 -19 -24 -19 -24 -510 0
-491 0 -491 30 -491 72 0 129 -67 130 -152 0 -38 0 -38 85 -38 84 0 85 0 91
27 13 59 18 69 69 123 82 87 77 40 75 643 -1 640 1 654 80 810 34 65 61 137
77 201 28 112 41 143 88 201 17 22 50 72 73 110 24 42 83 112 144 175 101 103
106 106 218 155 171 73 246 73 413 -5 126 -58 141 -71 235 -198 26 -35 60 -80
75 -101 15 -20 43 -77 61 -126 19 -50 50 -126 69 -170 20 -44 43 -114 51 -155
35 -168 69 -728 71 -1175 1 -137 3 -257 4 -266 0 -9 23 -47 50 -84 27 -37 60
-89 73 -117 31 -65 62 -65 87 2 10 25 38 79 63 120 24 41 47 82 50 91 7 19 -8
527 -21 724 -6 83 -15 229 -21 325 -19 323 -55 540 -115 680 -17 41 -44 112
-60 157 -20 60 -43 102 -82 150 -30 38 -72 103 -95 145 -25 48 -53 87 -76 105
-20 15 -62 50 -92 78 -57 53 -330 198 -395 209 -70 13 -319 -9 -360 -31 -93
-49 -124 -65 -195 -97 -120 -54 -256 -170 -300 -256 -51 -101 -144 -148 -201
-101 -23 18 -23 18 -20 1095 2 1235 11 1118 -96 1216 -70 64 -85 63 -151 -6z"/>
</g>
</svg>
