<svg xmlns="http://www.w3.org/2000/svg" viewBox="0 0 320.437484 288.794113">
<g transform="translate(-15.562516,303.850858) scale(0.100000,-0.100000)" fill="#000000" stroke="none">
<path d="M1336 3025 c-49 -17 -162 -128 -221 -215 -23 -36 -62 -83 -85 -105
-23 -22 -53 -62 -67 -89 -14 -27 -47 -72 -73 -100 -26 -28 -57 -70 -69 -93
-11 -23 -44 -70 -73 -104 -29 -34 -69 -83 -88 -109 -19 -26 -65 -76 -103 -111
-67 -64 -67 -64 -67 -122 0 -163 157 -162 313 2 34 36 114 113 176 171 432
398 603 569 621 623 32 101 -40 218 -156 253 -57 17 -59 17 -108 -1z"/>
<path d="M2226 1393 c-11 -3 -76 -35 -145 -71 -183 -96 -341 -245 -473 -444
-25 -39 -62 -87 -80 -107 -19 -20 -50 -56 -69 -81 -19 -25 -47 -56 -64 -70
-16 -14 -53 -46 -81 -72 -28 -26 -67 -54 -87 -63 -52 -22 -181 -20 -232 4 -39
18 -205 179 -205 199 0 5 -30 43 -66 83 -37 41 -82 105 -100 142 -19 37 -54
96 -78 131 -24 35 -54 95 -66 132 -42 126 -179 236 -249 199 -105 -54 -99
-277 12 -448 22 -34 55 -98 74 -142 23 -55 48 -95 82 -130 27 -27 65 -76 85
-107 76 -121 280 -318 371 -359 87 -39 282 -50 426 -25 89 16 107 24 174 80
28 23 73 58 100 78 68 49 163 150 209 221 20 33 56 80 80 105 24 26 55 67 69
92 85 146 306 310 416 310 62 0 210 -78 253 -133 18 -23 60 -69 93 -102 104
-105 194 -214 221 -268 38 -73 150 -215 187 -233 39 -21 101 -14 184 20 35 14
69 26 78 26 12 0 15 15 15 78 0 78 0 78 -33 90 -59 21 -105 71 -137 150 -31
78 -133 214 -239 320 -31 32 -101 104 -155 161 -72 75 -112 109 -150 126 -248
111 -238 107 -321 111 -44 1 -89 0 -99 -3z"/>
</g>
</svg>
