<svg xmlns="http://www.w3.org/2000/svg" viewBox="0 0 400.827400 360.360552">
<g transform="translate(-19.079797,378.942218) scale(0.100000,-0.100000)" fill="#000000" stroke="none">
<path d="M1640 3765 c-54 -27 -179 -156 -238 -243 -23 -33 -66 -87 -96 -119
-29 -32 -74 -91 -100 -130 -26 -40 -70 -99 -97 -130 -28 -32 -68 -88 -89 -124
-22 -36 -59 -88 -83 -115 -24 -27 -70 -83 -102 -124 -32 -41 -91 -106 -130
-145 -82 -80 -104 -133 -85 -204 44 -163 200 -143 390 48 52 53 151 148 220
211 386 356 727 695 755 749 97 191 -153 427 -345 326z"/>
<path d="M2805 1739 c-50 -8 -291 -125 -370 -180 -112 -76 -334 -318 -427
-464 -25 -39 -68 -97 -97 -130 -29 -33 -67 -80 -85 -104 -57 -80 -252 -239
-314 -257 -192 -56 -363 25 -518 246 -28 41 -79 106 -112 143 -33 37 -79 105
-103 150 -23 45 -64 114 -90 154 -27 39 -63 107 -80 150 -84 214 -242 328
-339 247 -106 -90 -106 -261 1 -469 29 -55 80 -157 115 -226 44 -89 80 -144
122 -191 33 -36 80 -97 104 -134 95 -145 330 -373 443 -429 155 -77 519 -79
666 -5 127 65 401 310 473 423 21 33 62 88 92 123 30 35 81 103 114 152 126
188 350 356 491 370 114 11 245 -67 411 -244 210 -224 263 -288 327 -395 170
-285 237 -322 451 -249 115 39 115 39 118 133 3 95 3 95 -24 101 -76 19 -129
78 -197 216 -53 110 -152 234 -380 479 -190 204 -221 228 -414 311 -194 84
-262 99 -378 79z"/>
</g>
</svg>
