<svg xmlns="http://www.w3.org/2000/svg" viewBox="0 0 200.467453 180.248193">
<g transform="translate(-9.418509,189.794165) scale(0.100000,-0.100000)" fill="#000000" stroke="none">
<path d="M825 1888 c-35 -19 -86 -71 -126 -130 -22 -31 -45 -61 -52 -65 -8 -4
-30 -33 -49 -63 -19 -30 -43 -61 -52 -69 -10 -8 -26 -31 -36 -50 -10 -20 -27
-45 -37 -56 -10 -11 -34 -40 -53 -65 -19 -24 -52 -60 -73 -78 -44 -40 -54 -71
-37 -112 14 -35 39 -44 87 -35 27 5 63 33 152 118 65 62 190 181 278 265 185
174 197 193 165 265 -29 65 -115 104 -167 75z"/>
<path d="M1401 872 c-14 -2 -62 -24 -107 -49 -99 -53 -218 -166 -288 -273 -56
-84 -196 -227 -243 -246 -41 -18 -95 -18 -136 0 -45 19 -201 194 -237 266 -12
25 -33 59 -46 77 -13 17 -33 56 -44 87 -24 62 -97 136 -136 136 -27 0 -50 -30
-65 -83 -8 -29 -6 -51 5 -91 23 -77 120 -263 159 -305 19 -20 44 -53 56 -73
25 -42 161 -172 203 -194 75 -39 283 -38 347 3 118 75 227 188 331 343 43 65
103 120 168 155 75 42 99 43 160 9 57 -32 246 -224 274 -279 11 -22 43 -68 70
-102 45 -57 53 -63 86 -63 21 0 60 9 87 19 49 18 50 20 53 63 3 42 1 45 -36
65 -21 12 -43 32 -49 45 -6 13 -20 43 -32 68 -12 26 -77 107 -153 190 -132
143 -134 144 -228 186 -93 41 -150 54 -199 46z"/>
</g>
</svg>
