<svg xmlns="http://www.w3.org/2000/svg" viewBox="0 0 48.172401 1600.000446">
<g transform="translate(-16.202827,1600.000446) scale(0.100000,-0.100000)" fill="#000000" stroke="none">
<path d="M164 15953 c14 -105 46 -122 232 -121 168 0 196 9 224 70 46 100 51
98 -221 98 -242 0 -242 0 -235 -47z"/>
<path d="M219 15185 c-49 -26 -59 -74 -53 -252 9 -269 23 -287 222 -290 221
-4 237 14 246 286 8 262 0 271 -236 271 -113 -1 -160 -5 -179 -15z"/>
<path d="M211 13894 c-41 -34 -49 -74 -47 -234 3 -213 14 -223 241 -221 218 2
228 12 231 220 3 249 -7 261 -236 261 -156 0 -159 0 -189 -26z"/>
<path d="M240 12699 c-53 -32 -63 -68 -71 -249 -14 -278 -4 -290 230 -290 234
0 246 13 236 268 -11 269 -27 290 -230 289 -112 0 -140 -3 -165 -18z"/>
<path d="M274 11522 c-98 -16 -109 -44 -106 -261 6 -281 18 -298 232 -298 210
-1 225 18 234 293 8 244 -5 261 -210 266 -72 2 -139 2 -150 0z"/>
<path d="M365 10240 c-197 -8 -198 -10 -199 -235 0 -239 5 -245 234 -245 230
0 239 9 236 250 -3 231 -15 241 -271 230z"/>
<path d="M231 9014 c-50 -42 -59 -83 -63 -275 -5 -255 1 -261 234 -260 229 2
234 8 230 251 -5 288 -19 308 -230 308 -136 0 -144 -1 -171 -24z"/>
<path d="M211 7814 c-45 -38 -51 -76 -42 -264 12 -255 23 -268 231 -268 208 0
219 13 231 268 13 279 4 290 -231 290 -156 0 -159 0 -189 -26z"/>
<path d="M211 6534 c-42 -35 -49 -75 -46 -236 4 -207 14 -216 238 -219 217 -3
230 9 233 225 5 243 -7 256 -236 256 -156 0 -159 0 -189 -26z"/>
<path d="M230 5333 c-45 -38 -58 -91 -64 -260 -8 -261 2 -273 234 -273 235 0
245 12 231 290 -8 173 -24 235 -69 259 -9 5 -82 9 -160 8 -137 0 -145 -1 -172
-24z"/>
<path d="M265 4159 c-89 -15 -106 -66 -96 -289 11 -234 36 -272 176 -268 39 1
93 -2 121 -6 120 -18 154 38 165 274 13 269 4 283 -196 290 -74 3 -150 2 -170
-1z"/>
<path d="M358 2881 c-186 -9 -197 -24 -194 -263 4 -209 13 -217 234 -219 228
-1 237 8 237 241 0 240 -14 252 -277 241z"/>
<path d="M240 1658 c-53 -32 -63 -67 -71 -248 -13 -278 -3 -290 227 -290 237
0 241 5 236 255 -6 283 -21 303 -226 302 -112 -1 -142 -4 -166 -19z"/>
<path d="M219 465 c-50 -27 -58 -71 -52 -279 6 -186 6 -186 233 -186 227 0
227 0 232 182 9 291 3 298 -230 298 -117 -1 -164 -4 -183 -15z"/>
</g>
</svg>
