<svg xmlns="http://www.w3.org/2000/svg" viewBox="0 0 30.000000 1000.000000">
<g transform="translate(-10.000000,1000.000000) scale(0.100000,-0.100000)" fill="#000000" stroke="none">
<path d="M100 9980 c0 -32 28 -80 48 -82 71 -6 182 -4 203 4 27 10 49 45 49
78 0 19 -8 20 -150 20 -145 0 -150 -1 -150 -20z"/>
<path d="M121 9474 c-19 -24 -21 -37 -17 -140 5 -123 21 -170 59 -179 12 -2
60 -4 106 -2 115 3 120 11 127 174 4 110 3 122 -17 147 -20 25 -23 26 -129 26
-105 0 -109 -1 -129 -26z"/>
<path d="M122 8675 c-29 -37 -29 -213 0 -250 19 -24 24 -25 128 -25 104 0 109
1 128 25 17 21 20 41 20 125 0 84 -3 104 -20 125 -19 24 -24 25 -128 25 -104
0 -109 -1 -128 -25z"/>
<path d="M152 7943 c-29 -11 -44 -66 -48 -178 -4 -102 -2 -115 17 -139 20 -25
24 -26 129 -26 105 0 109 1 129 26 18 22 21 41 21 113 -1 97 -14 168 -37 193
-12 13 -32 17 -106 16 -51 0 -98 -3 -105 -5z"/>
<path d="M121 7174 c-19 -24 -21 -37 -17 -141 4 -87 9 -122 23 -146 l19 -32
99 -2 c63 -1 104 2 113 10 25 20 34 60 38 173 4 101 2 114 -17 138 -20 25 -24
26 -129 26 -105 0 -109 -1 -129 -26z"/>
<path d="M124 6379 c-16 -18 -19 -38 -20 -125 -2 -90 1 -107 18 -129 19 -24
24 -25 128 -25 104 0 109 1 128 25 17 21 20 41 20 125 0 84 -3 104 -20 125
-19 24 -24 25 -127 25 -97 0 -110 -2 -127 -21z"/>
<path d="M137 5632 c-23 -25 -35 -95 -33 -198 1 -129 6 -134 146 -134 140 0
144 5 146 134 2 103 -10 173 -33 198 -12 13 -33 17 -113 17 -80 0 -101 -4
-113 -17z"/>
<path d="M124 4879 c-17 -18 -19 -37 -18 -139 0 -98 4 -123 20 -151 20 -34 20
-34 105 -37 46 -2 94 0 106 3 39 9 54 57 59 180 3 102 1 116 -17 139 -20 25
-24 26 -128 26 -97 0 -110 -2 -127 -21z"/>
<path d="M121 4074 c-19 -24 -21 -38 -18 -132 4 -138 8 -142 152 -142 99 0
104 1 124 26 17 21 20 40 20 124 0 84 -3 103 -20 124 -20 25 -25 26 -129 26
-105 0 -109 -1 -129 -26z"/>
<path d="M306 3352 c-4 -3 -41 -6 -83 -7 -105 0 -112 -10 -118 -172 -4 -111
-3 -123 16 -147 20 -25 24 -26 129 -26 105 0 109 1 129 26 19 24 21 37 17 138
-5 113 -13 154 -37 172 -20 16 -46 24 -53 16z"/>
<path d="M121 2574 c-18 -23 -20 -37 -16 -139 4 -124 19 -171 58 -179 12 -3
56 -7 98 -10 69 -5 78 -4 96 17 29 31 32 46 38 173 5 102 4 113 -16 137 -20
26 -23 27 -129 27 -105 0 -109 -1 -129 -26z"/>
<path d="M122 1775 c-29 -37 -29 -213 0 -250 19 -24 24 -25 128 -25 104 0 109
1 128 25 17 21 20 41 20 125 0 84 -3 104 -20 125 -19 24 -24 25 -128 25 -104
0 -109 -1 -128 -25z"/>
<path d="M152 1043 c-29 -11 -43 -65 -47 -178 -4 -102 -2 -116 16 -139 20 -25
24 -26 129 -26 105 0 109 1 129 26 18 23 20 36 16 138 -4 115 -12 153 -37 173
-13 11 -178 16 -206 6z"/>
<path d="M120 273 c-20 -25 -21 -36 -16 -93 3 -36 6 -91 6 -122 l0 -58 140 0
140 0 2 83 c7 222 10 217 -143 217 -105 0 -108 -1 -129 -27z"/>
</g>
</svg>
