<svg xmlns="http://www.w3.org/2000/svg" viewBox="0 0 299.716608 465.691383">
<g transform="translate(-0.126798,480.000000) scale(0.100000,-0.100000)" fill="#000000" stroke="none">
<path d="M940 4780 c0 -34 -31 -113 -71 -180 -21 -36 -55 -103 -75 -150 -20
-47 -62 -124 -95 -172 -32 -48 -79 -130 -103 -183 -25 -53 -68 -127 -95 -163
-55 -75 -84 -130 -130 -246 -18 -44 -54 -116 -80 -160 -27 -45 -69 -125 -95
-178 -50 -105 -87 -145 -153 -164 -38 -11 -38 -11 -41 -467 -2 -457 -2 -457
22 -457 36 0 102 26 169 67 53 32 170 94 387 203 175 89 530 162 583 120 76
-60 28 -156 -143 -283 -97 -72 -331 -301 -425 -417 -29 -36 -88 -102 -131
-146 -85 -88 -188 -246 -226 -349 -52 -136 -29 -578 35 -705 13 -25 54 -106
91 -180 171 -339 413 -469 776 -415 262 38 387 75 497 147 43 28 115 73 161
100 46 27 113 75 150 106 37 32 87 73 112 92 290 222 493 495 544 730 14 63
37 165 51 225 60 263 35 536 -72 799 -90 223 -37 323 212 401 164 51 218 106
200 203 -20 113 -179 277 -287 297 -43 8 -352 -67 -472 -115 -103 -41 -138
-39 -258 15 -202 93 -231 98 -659 104 -461 7 -470 11 -389 171 16 32 41 88 54
123 33 89 60 139 112 210 25 33 69 110 98 171 30 61 81 147 115 191 36 48 77
117 101 175 23 52 67 131 99 175 85 116 130 224 131 313 0 9 -77 12 -350 12
-341 0 -350 0 -350 -20z m979 -2517 c74 -56 155 -359 148 -553 -16 -419 -266
-770 -677 -951 -195 -86 -242 -88 -382 -16 -178 91 -212 145 -211 327 3 264
67 391 343 674 458 470 662 606 779 519z"/>
</g>
</svg>
