<svg xmlns="http://www.w3.org/2000/svg" viewBox="0 0 239.966832 371.783228">
<g transform="translate(-0.000000,384.000000) scale(0.100000,-0.100000)" fill="#000000" stroke="none">
<path d="M746 3788 c-8 -29 -30 -75 -47 -103 -18 -27 -49 -89 -69 -136 -21
-47 -55 -109 -78 -137 -22 -29 -53 -83 -69 -122 -15 -38 -54 -105 -85 -147
-36 -49 -69 -109 -89 -163 -17 -47 -51 -116 -75 -155 -23 -38 -55 -101 -71
-140 -33 -81 -78 -131 -128 -141 -35 -6 -35 -6 -35 -375 0 -203 4 -369 8 -369
27 0 106 31 143 57 24 17 89 53 144 80 55 28 127 64 160 81 77 40 362 122 424
122 78 0 106 -63 62 -136 -20 -32 -36 -47 -151 -131 -70 -51 -265 -247 -324
-326 -20 -26 -64 -75 -98 -110 -149 -149 -202 -282 -200 -505 2 -204 17 -281
75 -382 24 -41 54 -102 67 -134 27 -69 159 -210 229 -245 175 -90 594 -50 773
73 35 23 92 58 128 77 35 19 89 57 120 85 30 28 76 65 102 82 26 18 63 52 84
77 20 25 59 62 86 82 30 22 72 68 105 117 30 45 69 102 87 127 21 29 37 70 46
110 7 35 27 120 43 189 54 218 42 473 -32 657 -10 26 -29 72 -40 101 -50 124
25 210 233 267 159 44 167 157 23 308 -90 94 -109 98 -279 57 -73 -17 -173
-47 -221 -66 -109 -42 -106 -42 -206 6 -162 79 -204 85 -554 85 -294 0 -309 1
-323 19 -21 29 -18 45 20 108 19 31 46 89 61 129 14 40 49 104 79 145 30 41
66 105 81 142 16 40 51 98 86 142 36 45 69 101 85 143 14 37 41 89 60 115 98
137 107 157 121 250 6 42 6 42 -270 42 -276 0 -276 0 -291 -52z m792 -1975
c51 -32 129 -331 119 -456 -6 -74 -45 -237 -74 -309 -51 -128 -273 -355 -398
-407 -39 -16 -99 -43 -135 -60 -92 -44 -138 -42 -237 10 -161 84 -176 108
-175 270 2 221 65 332 339 599 363 354 461 416 561 353z"/>
</g>
</svg>
