<svg xmlns="http://www.w3.org/2000/svg" viewBox="0 0 150.072661 232.188048">
<g transform="translate(0.000000,240.000000) scale(0.100000,-0.100000)" fill="#000000" stroke="none">
<path d="M477 2393 c-4 -3 -7 -14 -7 -23 0 -9 -14 -38 -31 -65 -17 -28 -38
-68 -46 -90 -7 -22 -27 -56 -43 -77 -16 -20 -40 -61 -54 -92 -14 -30 -38 -73
-55 -93 -17 -21 -39 -64 -50 -96 -11 -32 -29 -70 -39 -85 -11 -15 -33 -58 -50
-95 -26 -56 -37 -70 -67 -82 l-35 -15 0 -231 0 -230 23 6 c12 4 36 16 52 26
17 10 59 33 95 50 36 17 77 40 91 50 31 22 257 89 299 89 19 0 33 -7 40 -20
18 -34 -11 -83 -77 -128 -32 -22 -98 -82 -146 -133 -48 -52 -107 -114 -131
-139 -65 -68 -125 -169 -136 -232 -7 -35 -7 -96 -2 -166 8 -106 11 -114 62
-214 62 -120 138 -198 212 -219 107 -30 356 4 432 59 23 16 60 39 83 51 72 36
267 212 318 286 19 28 42 60 51 73 27 37 75 266 75 358 0 94 -23 205 -57 278
-13 28 -24 60 -24 70 0 11 20 39 44 62 34 33 57 45 99 54 106 22 127 81 57
168 -45 58 -76 82 -105 82 -33 0 -208 -46 -242 -64 -43 -22 -67 -20 -116 8
-81 46 -168 59 -367 54 -216 -6 -227 -1 -174 78 15 21 34 59 42 84 8 25 28 62
44 82 15 20 40 62 54 94 14 31 40 75 58 96 19 21 41 60 51 86 10 26 35 70 55
97 34 44 60 107 60 143 0 9 -40 12 -168 12 -93 0 -172 -3 -175 -7z m491 -1266
c14 -15 31 -61 48 -132 28 -121 26 -173 -14 -302 -32 -102 -181 -266 -270
-297 -22 -8 -57 -23 -80 -35 -57 -29 -81 -27 -157 15 -87 48 -95 61 -95 159 0
109 11 142 79 232 87 115 317 333 385 364 54 25 78 24 104 -4z"/>
</g>
</svg>
