<svg xmlns="http://www.w3.org/2000/svg" viewBox="0 0 225.980171 306.794064">
<g transform="translate(-13.221119,321.867204) scale(0.100000,-0.100000)" fill="#000000" stroke="none">
<path d="M409 3207 c-104 -39 -218 -188 -233 -307 -43 -322 -48 -390 -42 -530
28 -650 34 -686 121 -870 30 -63 55 -121 55 -127 0 -32 46 -129 83 -175 23
-29 58 -80 77 -115 44 -78 350 -400 430 -450 30 -20 74 -53 97 -74 23 -21 77
-56 120 -78 43 -21 99 -56 123 -76 55 -46 76 -56 180 -89 47 -15 114 -45 150
-66 87 -51 145 -66 336 -86 219 -22 402 -17 441 12 89 66 45 134 -119 184 -37
11 -90 33 -117 50 -28 16 -90 41 -138 56 -106 32 -127 42 -183 89 -24 20 -74
52 -111 70 -36 19 -90 56 -120 83 -30 27 -88 70 -129 96 -135 83 -409 368
-475 496 -21 38 -54 89 -75 112 -45 52 -60 82 -90 173 -12 39 -42 111 -66 160
-64 132 -74 190 -81 480 -6 283 12 523 47 633 25 79 25 98 0 165 -58 154 -168
226 -281 184z"/>
</g>
</svg>
