<svg xmlns="http://www.w3.org/2000/svg" viewBox="0 0 141.134513 191.899864">
<g transform="translate(-8.537832,200.919494) scale(0.100000,-0.100000)" fill="#000000" stroke="none">
<path d="M232 1994 c-35 -18 -97 -96 -112 -141 -5 -15 -16 -89 -24 -163 -12
-109 -13 -176 -6 -348 10 -227 24 -312 65 -393 14 -27 34 -77 44 -110 11 -32
33 -76 51 -96 18 -20 39 -51 46 -69 14 -34 255 -284 273 -284 6 0 28 -15 48
-34 21 -18 57 -43 81 -55 24 -12 63 -37 86 -55 24 -18 65 -38 92 -45 26 -7 76
-28 111 -47 56 -32 75 -37 195 -49 73 -8 157 -15 186 -15 143 0 178 87 49 125
-27 8 -69 26 -93 39 -24 14 -70 32 -101 41 -32 9 -74 29 -93 44 -20 16 -54 38
-77 49 -23 12 -62 40 -88 62 -26 22 -61 48 -78 56 -30 15 -109 87 -160 143
-97 109 -118 135 -130 163 -8 18 -30 52 -50 76 -20 24 -43 67 -52 98 -9 31
-29 81 -46 112 -42 81 -53 184 -46 422 5 155 10 208 26 259 20 63 20 64 0 115
-36 99 -118 140 -197 100z"/>
</g>
</svg>
