<svg xmlns="http://www.w3.org/2000/svg" viewBox="0 0 144.000000 274.558897">
<g transform="translate(-0.000000,290.890163) scale(0.100000,-0.100000)" fill="#000000" stroke="none">
<path d="M480 2885 c-43 -32 -70 -73 -70 -108 0 -37 113 -260 161 -317 21 -25
55 -79 75 -120 19 -40 54 -94 76 -119 23 -25 57 -80 76 -121 22 -49 55 -96 93
-137 52 -54 59 -66 59 -102 0 -89 -29 -112 -171 -135 -52 -9 -150 -32 -219
-51 -69 -20 -173 -45 -232 -55 -118 -20 -147 -33 -246 -117 -35 -29 -67 -53
-73 -53 -5 0 -9 -15 -9 -34 0 -30 6 -37 45 -60 55 -33 83 -69 129 -170 20 -44
54 -103 76 -131 22 -29 56 -85 76 -125 20 -41 55 -96 79 -122 24 -27 59 -81
78 -121 19 -40 55 -97 80 -127 25 -30 66 -96 91 -145 115 -229 265 -310 386
-209 63 54 60 133 -9 220 -21 27 -54 81 -74 119 -19 39 -59 99 -87 135 -29 35
-67 96 -85 135 -17 38 -48 90 -69 114 -20 24 -53 71 -72 105 -20 33 -46 75
-58 91 -105 140 -72 201 140 256 177 46 207 50 359 58 141 6 141 6 213 49 40
24 88 46 107 49 35 6 35 6 35 158 0 153 0 153 -37 160 -62 11 -98 40 -133 107
-18 35 -52 89 -77 120 -24 32 -61 92 -82 135 -21 43 -57 98 -79 123 -21 25
-58 81 -80 125 -22 44 -60 103 -83 130 -23 28 -57 82 -74 121 -71 154 -224
236 -315 169z"/>
</g>
</svg>
