<svg xmlns="http://www.w3.org/2000/svg" viewBox="0 0 89.882748 172.123793">
<g transform="translate(0.000000,182.000000) scale(0.100000,-0.100000)" fill="#000000" stroke="none">
<path d="M291 1795 c-16 -14 -33 -34 -36 -45 -7 -21 72 -187 100 -210 9 -8 30
-40 46 -71 16 -32 42 -74 59 -93 17 -19 35 -49 42 -68 6 -18 31 -54 55 -80 65
-71 52 -129 -34 -143 -21 -3 -83 -17 -138 -31 -55 -15 -132 -32 -172 -40 -40
-7 -82 -18 -95 -25 -44 -23 -118 -92 -118 -110 0 -9 16 -26 36 -38 26 -16 43
-38 64 -85 16 -35 41 -77 55 -94 14 -17 35 -51 46 -77 11 -26 36 -63 54 -83
18 -21 40 -54 49 -75 8 -21 31 -57 49 -80 19 -23 43 -62 54 -87 11 -25 44 -71
74 -102 60 -64 92 -73 149 -43 62 32 65 81 11 156 -21 30 -42 65 -46 78 -4 13
-22 40 -41 61 -19 20 -44 59 -55 86 -12 26 -38 69 -58 96 -65 85 -111 164
-111 190 0 14 8 32 18 41 29 26 208 68 323 76 87 6 111 11 138 30 17 13 44 26
59 30 27 7 27 9 30 99 2 81 1 93 -15 98 -45 13 -70 33 -93 74 -14 25 -39 65
-57 89 -18 23 -35 53 -39 65 -3 11 -24 44 -45 72 -21 27 -45 66 -54 87 -8 20
-28 51 -45 70 -16 19 -42 58 -57 88 -33 62 -100 119 -143 119 -16 0 -42 -11
-59 -25z"/>
</g>
</svg>
