<svg xmlns="http://www.w3.org/2000/svg" viewBox="0 0 180.089235 342.919949">
<g transform="translate(0.089235,363.594276) scale(0.100000,-0.100000)" fill="#000000" stroke="none">
<path d="M640 3624 c-72 -31 -120 -96 -120 -162 0 -54 120 -295 190 -382 29
-36 71 -103 95 -150 23 -47 67 -117 98 -155 30 -39 73 -107 96 -153 23 -46 66
-109 96 -142 156 -170 115 -277 -123 -321 -59 -11 -188 -42 -287 -68 -99 -27
-229 -58 -288 -69 -131 -24 -188 -52 -287 -138 -41 -36 -83 -70 -92 -75 -27
-15 -24 -73 5 -86 65 -30 127 -105 182 -220 31 -64 82 -152 114 -197 33 -44
75 -112 94 -151 19 -38 63 -106 97 -150 34 -44 80 -116 102 -160 23 -44 66
-114 98 -155 32 -41 78 -116 103 -165 149 -291 340 -394 485 -261 78 70 71
160 -22 286 -26 35 -67 102 -91 149 -25 47 -70 116 -100 154 -30 37 -72 104
-93 150 -22 45 -70 122 -107 171 -36 49 -72 101 -80 115 -7 14 -38 65 -68 113
-118 189 -77 260 190 327 210 53 263 62 428 70 160 7 160 7 274 64 62 31 127
57 142 57 29 0 29 0 29 200 0 200 0 200 -24 200 -78 0 -135 43 -197 148 -28
48 -73 116 -99 152 -26 36 -66 101 -88 145 -22 44 -68 116 -102 160 -34 44
-80 116 -102 160 -23 44 -65 111 -95 149 -29 38 -76 113 -104 167 -89 174
-240 270 -349 223z"/>
</g>
</svg>
