<svg xmlns="http://www.w3.org/2000/svg" viewBox="0 0 150.000000 170.000000">
<g transform="translate(-0.000000,170.000000) scale(0.100000,-0.100000)" fill="#000000" stroke="none">
<path d="M36 1666 c-8 -18 -19 -37 -25 -40 -8 -5 -11 -221 -11 -756 l0 -749
38 -11 c43 -11 75 -41 91 -82 l11 -28 609 0 609 0 15 23 c15 24 47 40 100 51
26 6 27 9 27 71 l0 64 -37 6 c-21 3 -58 10 -81 16 -26 6 -248 9 -547 9 -656
-2 -615 -20 -615 265 0 201 7 226 75 256 44 19 65 20 553 19 432 -1 514 1 556
15 27 8 60 15 73 15 21 0 23 4 23 54 0 54 0 55 -37 67 -20 6 -51 20 -69 31
-31 18 -57 19 -539 18 -327 0 -520 3 -545 10 -22 6 -52 21 -66 34 l-27 23 2
246 c1 148 -2 278 -10 326 l-11 81 -74 0 -74 0 -14 -34z"/>
</g>
</svg>
