<svg xmlns="http://www.w3.org/2000/svg" viewBox="0 0 240.000000 271.835452">
<g transform="translate(0.000000,272.000648) scale(0.100000,-0.100000)" fill="#000000" stroke="none">
<path d="M60 2700 c0 -28 -26 -76 -45 -83 -13 -6 -15 -138 -15 -1222 0 -1215
0 -1215 28 -1215 68 -1 153 -66 177 -136 13 -39 13 -39 999 -42 836 -2 986 0
986 12 0 42 119 106 195 106 12 0 15 20 15 109 0 110 0 110 -57 116 -32 4 -85
13 -118 21 -51 13 -183 15 -860 14 -906 -1 -874 -3 -951 74 -58 57 -63 86 -63
351 0 313 13 361 115 411 51 25 51 25 865 25 814 0 814 0 894 25 44 14 101 28
128 31 47 6 47 6 47 94 0 85 -1 89 -22 89 -12 0 -65 20 -117 45 -116 54 -13
49 -951 46 -659 -1 -772 0 -815 14 -62 18 -109 47 -130 78 -19 29 -18 14 -15
477 1 236 -2 381 -9 410 -6 25 -11 66 -11 92 0 80 4 78 -141 78 -123 0 -129
-1 -129 -20z"/>
</g>
</svg>
