<svg xmlns="http://www.w3.org/2000/svg" viewBox="0 0 300.000000 339.994145">
<g transform="translate(-0.000000,340.000000) scale(0.100000,-0.100000)" fill="#000000" stroke="none">
<path d="M64 3383 c-18 -54 -29 -75 -45 -84 -18 -9 -19 -57 -19 -1539 0 -1529
0 -1529 38 -1536 95 -17 199 -102 223 -183 12 -41 12 -41 1243 -41 1231 0
1231 0 1247 29 33 57 136 111 214 111 35 0 35 0 35 144 0 143 0 143 -71 150
-39 3 -111 15 -161 26 -86 20 -124 20 -1080 20 -1139 -1 -1073 -6 -1169 90
-77 77 -81 103 -77 463 5 344 9 369 82 442 79 78 29 75 1158 75 996 0 996 0
1107 35 60 19 133 37 161 41 50 7 50 7 50 114 0 107 0 107 -35 113 -19 3 -76
25 -127 48 -51 23 -106 46 -123 51 -17 5 -440 9 -1011 8 -1081 -1 -1062 -2
-1171 60 -64 37 -93 87 -95 163 0 28 0 250 1 492 2 364 0 455 -13 525 -9 47
-16 111 -16 143 0 57 0 57 -170 57 -154 0 -171 -2 -176 -17z"/>
</g>
</svg>
