<svg xmlns="http://www.w3.org/2000/svg" viewBox="0 0 154.933866 174.950908">
<g transform="translate(-15.066134,189.954555) scale(0.100000,-0.100000)" fill="#000000" stroke="none">
<path d="M220 1889 c-65 -26 -86 -79 -56 -138 28 -53 23 -52 667 -51 428 0
604 -3 622 -11 42 -19 47 -46 47 -263 0 -214 -7 -258 -44 -279 -16 -9 -173
-13 -624 -17 l-604 -5 -29 -33 c-33 -37 -37 -77 -13 -123 30 -59 26 -59 678
-59 l595 0 21 -27 c21 -27 21 -34 19 -338 -3 -339 0 -358 56 -383 56 -26 95
-10 125 48 20 38 20 59 20 816 0 705 -2 779 -17 811 -30 65 -10 63 -760 62
-426 0 -687 -4 -703 -10z"/>
</g>
</svg>
