<svg xmlns="http://www.w3.org/2000/svg" viewBox="0 0 247.770940 279.823227">
<g transform="translate(-24.133275,304.362050) scale(0.100000,-0.100000)" fill="#000000" stroke="none">
<path d="M1395 3040 c-1127 -6 -1056 -1 -1120 -69 -65 -69 -32 -191 64 -234
44 -19 67 -20 1006 -21 900 -1 963 -2 988 -19 61 -40 61 -39 63 -401 3 -378
-1 -406 -64 -454 -35 -27 -35 -27 -981 -32 -1045 -6 -987 -2 -1044 -69 -66
-78 -35 -210 60 -257 36 -18 79 -19 993 -24 1023 -5 980 -3 1015 -57 18 -26
19 -61 19 -528 1 -497 1 -500 23 -541 63 -119 212 -118 273 1 25 49 25 49 28
1295 3 1365 6 1294 -56 1353 -69 67 -14 64 -1267 57z"/>
</g>
</svg>
