<svg xmlns="http://www.w3.org/2000/svg" viewBox="0 0 380.098706 543.441612">
<g transform="translate(0.098706,542.708181) scale(0.100000,-0.100000)" fill="#000000" stroke="none">
<path d="M1932 5419 c-150 -17 -248 -88 -292 -212 -70 -193 -172 -453 -236
-605 -41 -95 -87 -208 -104 -250 -93 -243 -137 -262 -590 -262 -768 0 -710 26
-710 -322 0 -308 0 -308 33 -309 17 0 190 -4 382 -8 325 -6 353 -8 395 -28
106 -48 123 -113 66 -244 -21 -46 -51 -120 -67 -164 -17 -44 -59 -138 -94
-210 -139 -281 -147 -494 -20 -559 49 -25 113 -27 312 -7 340 33 859 -13 1105
-98 482 -166 638 -335 638 -691 -1 -549 -220 -771 -866 -879 -502 -84 -613
-88 -784 -33 -235 77 -289 183 -178 350 26 38 65 107 89 153 82 164 241 352
408 483 255 201 282 333 63 311 -176 -18 -301 -58 -441 -140 -51 -31 -139 -78
-195 -104 -55 -27 -130 -72 -166 -101 -36 -29 -104 -79 -151 -111 -132 -91
-257 -226 -296 -319 -168 -404 -80 -746 218 -849 132 -45 210 -103 231 -173
18 -62 1888 -59 1907 3 19 64 70 110 190 174 212 112 344 231 530 479 190 254
195 895 9 1259 -275 540 -590 732 -1348 822 -441 52 -497 91 -405 283 19 39
44 102 55 139 64 206 12 197 1135 204 517 4 964 7 993 8 52 1 52 1 52 336 0
335 0 335 -32 336 -18 1 -386 5 -818 9 -854 7 -833 6 -895 65 -76 71 -71 145
24 362 33 76 98 228 145 338 46 110 100 236 120 280 96 215 -62 324 -412 284z"/>
</g>
</svg>
