<svg xmlns="http://www.w3.org/2000/svg" viewBox="0 0 304.253213 433.896434">
<g transform="translate(-0.000000,433.896434) scale(0.100000,-0.100000)" fill="#000000" stroke="none">
<path d="M1495 4326 c-110 -27 -163 -78 -196 -189 -21 -68 -117 -310 -243
-615 -106 -258 -76 -246 -628 -250 -428 -3 -428 -3 -428 -257 0 -255 0 -255
285 -255 314 0 369 -7 415 -50 41 -38 40 -84 -3 -175 -19 -39 -42 -95 -52
-125 -9 -30 -41 -100 -70 -155 -81 -154 -115 -318 -81 -398 32 -77 81 -90 268
-70 245 26 650 2 859 -52 32 -8 129 -45 216 -82 152 -65 161 -70 230 -140 109
-111 127 -155 131 -328 9 -322 -59 -467 -279 -598 -125 -75 -169 -89 -389
-126 -468 -77 -529 -77 -714 -8 -136 51 -165 146 -79 259 22 29 59 91 81 138
54 112 202 285 324 375 136 102 203 198 168 240 -36 43 -326 -17 -450 -95 -36
-22 -114 -64 -175 -94 -60 -29 -130 -71 -155 -93 -25 -21 -77 -60 -116 -86
-86 -56 -192 -166 -221 -228 -135 -292 -75 -600 134 -684 173 -69 207 -94 220
-156 5 -29 5 -29 758 -29 752 0 752 0 770 45 20 53 50 78 161 133 94 47 267
183 304 238 14 21 47 63 74 94 211 239 205 795 -12 1145 -30 50 -68 111 -84
136 -32 53 -224 232 -278 259 -139 71 -426 146 -650 170 -381 40 -426 71 -337
232 20 34 39 81 43 103 8 50 19 73 52 108 54 57 54 57 893 57 422 0 774 3 783
6 14 5 16 38 16 269 0 307 86 275 -741 275 -585 0 -613 2 -666 55 -29 29 -33
39 -33 87 0 52 6 69 78 233 17 39 61 142 98 230 36 88 82 191 100 230 35 71
42 121 24 156 -34 62 -266 99 -405 65z"/>
</g>
</svg>
