<svg xmlns="http://www.w3.org/2000/svg" viewBox="0 0 265.156 469.924">
<g transform="translate(-0.504194,423.923081) scale(0.100000,-0.100000)" fill="#000000" stroke="none">
<path d="M1195 3773 c-320 -38 -462 -118 -665 -374 -121 -152 -207 -489 -169
-659 81 -368 208 -529 589 -747 162 -93 216 -118 330 -153 243 -75 492 -240
599 -398 148 -218 158 -384 40 -622 -251 -504 -850 -553 -1335 -110 -171 158
-253 179 -304 80 -81 -158 110 -389 460 -559 148 -71 235 -142 246 -200 9 -43
584 -50 584 -8 0 55 87 139 205 199 164 83 288 205 379 372 93 170 162 246
223 246 23 0 23 0 23 259 0 258 0 258 -47 276 -61 23 -121 85 -168 171 -69
127 -105 172 -204 252 -187 152 -441 291 -652 358 -482 152 -733 514 -618 890
137 448 719 570 1201 253 181 -119 242 -139 391 -131 97 5 97 5 97 106 0 101
0 101 -59 118 -41 12 -84 37 -138 78 -332 258 -633 348 -1008 303z"/>
</g>
</svg>
