<svg xmlns="http://www.w3.org/2000/svg" viewBox="0 0 109.965118 190.558898">
<g transform="translate(-10.034882,190.558898) scale(0.100000,-0.100000)" fill="#000000" stroke="none">
<path d="M531 1900 c-108 -15 -166 -50 -266 -161 -62 -67 -63 -70 -89 -160
-43 -148 -43 -159 4 -302 41 -126 42 -128 93 -166 29 -21 61 -48 72 -61 11
-12 38 -31 60 -42 22 -11 65 -36 96 -55 31 -19 88 -42 125 -52 38 -10 97 -35
130 -57 34 -21 75 -46 92 -55 16 -9 51 -50 78 -90 43 -66 48 -81 52 -139 2
-52 -1 -72 -17 -100 -12 -19 -34 -60 -50 -90 -25 -48 -38 -60 -107 -99 -68
-39 -88 -46 -149 -49 -65 -4 -78 -1 -170 39 -78 33 -115 55 -165 102 -126 116
-172 131 -205 67 -34 -66 -7 -166 57 -211 18 -13 53 -40 78 -60 25 -21 72 -48
105 -60 72 -26 112 -53 120 -79 6 -19 16 -20 154 -20 l148 0 39 36 c21 20 66
49 99 64 75 34 165 126 184 190 7 24 31 63 57 90 l44 47 0 131 0 130 -34 21
c-23 14 -41 38 -55 74 -31 74 -43 97 -52 97 -4 0 -29 19 -55 43 -61 54 -247
154 -330 177 -35 9 -87 33 -116 52 -29 19 -72 47 -95 61 -30 19 -49 42 -69 84
-58 122 -40 237 53 335 67 69 99 80 228 80 120 0 164 -13 266 -82 126 -85 119
-82 194 -69 l65 11 0 68 c0 66 -1 68 -27 75 -16 3 -48 26 -73 50 -47 45 -156
105 -225 125 -53 15 -264 21 -344 10z"/>
</g>
</svg>
