<svg xmlns="http://www.w3.org/2000/svg" viewBox="0 0 220.784546 383.342339">
<g transform="translate(-19.957797,382.693900) scale(0.100000,-0.100000)" fill="#000000" stroke="none">
<path d="M1210 3819 c-360 -34 -443 -78 -709 -373 -118 -131 -204 -382 -205
-596 -1 -205 127 -537 238 -617 28 -21 83 -67 123 -103 39 -36 95 -79 125 -96
29 -17 85 -49 123 -71 39 -22 97 -57 130 -77 55 -34 94 -48 290 -105 44 -13
102 -41 155 -76 47 -31 117 -73 155 -93 197 -103 347 -379 315 -580 -14 -83
-153 -355 -206 -401 -59 -53 -276 -160 -356 -177 -219 -47 -541 74 -766 287
-228 216 -345 237 -408 74 -77 -203 159 -487 527 -634 117 -46 170 -84 199
-142 28 -53 637 -63 664 -11 28 54 104 112 224 169 177 84 296 208 375 391 46
105 97 175 153 208 63 37 71 590 8 613 -58 21 -105 77 -149 176 -51 117 -86
168 -140 205 -25 17 -75 58 -112 91 -44 38 -113 82 -193 124 -69 36 -160 85
-203 109 -48 26 -127 57 -210 81 -115 34 -144 47 -222 100 -49 34 -114 75
-144 91 -411 222 -323 910 131 1019 242 58 518 19 690 -99 284 -193 305 -201
470 -184 118 12 118 12 118 154 0 142 0 142 -32 149 -52 11 -83 31 -156 97
-255 232 -602 335 -1002 297z"/>
</g>
</svg>
