<svg xmlns="http://www.w3.org/2000/svg" viewBox="0 0 190.000000 270.912428">
<g transform="translate(0.000000,270.912428) scale(0.100000,-0.100000)" fill="#000000" stroke="none">
<path d="M905 2695 c-49 -17 -79 -53 -96 -114 -7 -25 -41 -116 -76 -201 -36
-85 -76 -183 -90 -218 -17 -43 -37 -72 -61 -90 -35 -27 -36 -27 -211 -28 -97
-1 -220 -2 -273 -2 l-98 -2 0 -155 c0 -85 1 -155 3 -156 1 -1 95 -4 208 -8
184 -5 209 -8 228 -25 28 -25 27 -58 -3 -109 -13 -23 -30 -62 -36 -87 -6 -25
-25 -65 -40 -90 -56 -87 -77 -227 -41 -271 19 -23 19 -23 292 -25 326 -1 377
-9 545 -85 105 -47 121 -58 160 -108 55 -70 69 -129 59 -255 -8 -102 -32 -170
-84 -228 -37 -43 -150 -112 -206 -126 -62 -16 -379 -62 -429 -62 -55 0 -165
33 -200 61 -34 27 -35 80 -3 123 13 17 40 63 60 101 41 77 153 201 228 251 53
36 108 119 90 137 -20 20 -204 -18 -270 -55 -31 -17 -90 -48 -132 -69 -43 -21
-80 -43 -84 -49 -4 -6 -32 -27 -62 -46 -70 -46 -141 -119 -164 -169 -25 -58
-51 -194 -44 -234 11 -56 51 -136 79 -159 15 -11 51 -28 79 -38 69 -23 93 -39
107 -74 l12 -30 469 0 c390 0 469 2 469 14 0 26 43 67 104 98 78 40 163 106
204 160 17 24 45 60 61 80 70 91 91 316 46 492 -33 134 -118 278 -213 363 -81
72 -95 80 -237 127 -85 27 -149 40 -278 55 -108 13 -178 26 -193 36 -31 20
-31 58 1 110 14 22 25 51 25 65 0 14 7 36 16 49 35 50 47 51 579 51 l495 0 0
169 0 170 -419 3 c-408 3 -420 4 -448 24 -43 32 -43 83 1 181 34 74 135 309
159 364 17 42 -10 75 -73 88 -69 15 -167 13 -215 -4z"/>
</g>
</svg>
