<svg xmlns="http://www.w3.org/2000/svg" viewBox="0 0 175.966824 305.828500">
<g transform="translate(-16.001628,305.828500) scale(0.100000,-0.100000)" fill="#000000" stroke="none">
<path d="M895 3045 c-217 -28 -266 -53 -418 -209 -143 -146 -151 -160 -198
-323 -67 -227 -65 -258 22 -513 49 -146 62 -167 137 -222 32 -23 82 -65 113
-94 30 -28 89 -69 130 -89 41 -21 94 -52 119 -70 54 -40 97 -57 209 -85 93
-24 121 -36 190 -85 25 -18 73 -46 106 -63 86 -44 106 -65 179 -180 94 -149
109 -261 53 -372 -110 -215 -129 -240 -211 -282 -33 -17 -76 -41 -95 -54 -112
-73 -270 -71 -446 8 -180 80 -194 89 -298 187 -118 111 -163 142 -207 143
-138 4 -165 -245 -39 -360 135 -123 256 -203 355 -236 73 -24 139 -70 158
-111 17 -35 17 -35 265 -35 248 0 248 0 261 25 22 42 92 92 192 138 128 60
229 163 279 285 37 92 89 167 137 197 31 20 31 20 32 242 0 222 0 222 -35 239
-48 23 -89 72 -114 139 -37 99 -59 133 -108 166 -27 18 -72 54 -101 81 -31 29
-83 63 -130 84 -42 20 -108 55 -147 79 -63 39 -126 63 -252 95 -24 6 -78 35
-120 64 -43 29 -102 65 -131 81 -103 56 -172 162 -203 311 -33 161 84 391 242
474 149 78 487 51 623 -51 97 -72 233 -152 267 -156 21 -3 76 0 123 7 87 12
87 12 84 123 -3 111 -3 111 -41 120 -26 6 -63 32 -116 81 -211 193 -505 267
-866 221z"/>
</g>
</svg>
