<svg xmlns="http://www.w3.org/2000/svg" viewBox="0 0 266.542647 367.937926">
<g transform="translate(-15.156452,380.020977) scale(0.100000,-0.100000)" fill="#000000" stroke="none">
<path d="M2210 3773 c-24 -21 -33 -39 -36 -73 -3 -25 -24 -162 -46 -305 -29
-188 -49 -288 -74 -362 -19 -56 -41 -134 -49 -173 -29 -139 -55 -172 -134
-172 -56 1 -129 29 -366 140 -120 57 -148 66 -197 67 -49 0 -61 -4 -86 -28
-37 -35 -87 -173 -77 -215 13 -62 102 -119 298 -193 163 -62 279 -122 313
-162 34 -41 30 -83 -22 -207 -82 -195 -122 -197 -399 -25 -55 34 -118 72 -140
85 -22 13 -77 48 -122 77 -141 94 -192 82 -262 -57 -23 -45 -41 -91 -41 -102
0 -58 46 -91 568 -403 109 -64 125 -124 60 -215 -17 -25 -54 -79 -82 -120 -65
-99 -259 -340 -328 -411 -78 -78 -311 -287 -368 -329 -170 -125 -210 -152
-255 -174 -27 -14 -86 -49 -130 -78 -61 -40 -81 -59 -83 -79 -4 -34 16 -50
118 -95 153 -68 209 -60 379 54 47 31 109 69 137 83 118 60 377 274 581 481
140 141 204 222 328 409 83 125 115 153 171 146 24 -2 64 -18 91 -35 126 -82
260 -152 288 -152 53 0 101 43 144 127 44 88 13 156 -101 218 -29 16 -99 59
-155 97 -145 97 -160 135 -99 252 19 36 44 96 56 133 28 83 50 117 90 133 43
18 92 7 170 -39 75 -45 340 -144 373 -139 33 5 62 58 81 148 17 77 17 84 1
126 -19 49 -56 82 -125 108 -25 10 -59 27 -77 37 -18 11 -80 37 -138 58 -128
47 -152 62 -172 109 -23 55 -12 105 67 327 12 33 33 121 46 195 26 147 59 300
105 482 32 129 34 155 18 192 -14 29 -50 48 -135 70 -96 25 -148 21 -184 -11z"/>
</g>
</svg>
