<svg xmlns="http://www.w3.org/2000/svg" viewBox="0 0 386.520307 636.095139">
<g transform="translate(-16.825038,652.775971) scale(0.100000,-0.100000)" fill="#000000" stroke="none">
<path d="M3515 6515 c-292 -54 -389 -132 -406 -323 -4 -53 -15 -137 -23 -187
-8 -49 -27 -186 -41 -304 -26 -217 -41 -291 -100 -486 -18 -60 -59 -247 -90
-415 -72 -387 -84 -437 -155 -650 -32 -96 -73 -229 -90 -295 -53 -210 -105
-271 -223 -268 -80 2 -385 101 -549 179 -249 118 -345 76 -488 -213 -119 -240
-101 -319 89 -392 44 -17 85 -31 90 -31 12 0 219 -82 361 -142 58 -25 126 -53
152 -62 111 -40 163 -101 155 -182 -6 -58 -147 -344 -242 -489 -29 -44 -82
-128 -119 -188 -112 -183 -375 -498 -568 -682 -166 -158 -370 -340 -416 -371
-26 -18 -78 -53 -117 -78 -38 -26 -104 -71 -145 -101 -140 -101 -235 -167
-298 -207 -158 -101 -165 -211 -20 -360 133 -137 164 -136 470 11 81 39 178
94 215 123 37 28 106 73 151 100 104 62 288 202 549 418 189 156 497 482 635
671 33 46 91 122 128 169 37 47 89 126 115 175 27 50 65 117 86 151 20 33 78
142 127 241 143 285 181 302 421 189 64 -30 163 -69 221 -86 58 -17 149 -45
204 -62 198 -61 262 -21 372 237 88 205 89 239 10 333 -51 59 -220 136 -445
202 -204 60 -253 81 -297 124 -74 73 -80 158 -24 305 16 42 42 123 59 181 29
103 44 164 95 405 14 66 39 154 56 196 49 126 67 211 109 499 42 285 65 419
126 750 20 107 47 287 60 400 14 113 30 239 36 280 22 153 22 173 -1 202 -37
47 -106 57 -235 33z"/>
</g>
</svg>
