<svg xmlns="http://www.w3.org/2000/svg" viewBox="0 0 241.303915 397.642646">
<g transform="translate(-10.541003,407.894165) scale(0.100000,-0.100000)" fill="#000000" stroke="none">
<path d="M2143 4060 c-133 -35 -177 -68 -192 -144 -5 -28 -19 -127 -31 -221
-31 -251 -38 -290 -70 -400 -16 -55 -45 -188 -65 -295 -42 -227 -55 -279 -100
-415 -18 -55 -43 -135 -54 -178 -12 -44 -28 -92 -36 -108 -18 -33 -62 -59
-101 -59 -38 0 -261 73 -332 109 -114 57 -182 58 -234 4 -36 -38 -95 -145
-119 -216 -19 -57 -19 -60 -2 -95 13 -27 30 -41 63 -54 25 -9 92 -35 150 -57
200 -76 305 -122 327 -144 44 -43 40 -72 -27 -202 -116 -223 -234 -397 -390
-574 -94 -107 -373 -366 -428 -398 -26 -14 -67 -43 -91 -62 -25 -20 -59 -45
-77 -56 -129 -80 -208 -141 -221 -173 -19 -45 -4 -91 50 -149 52 -56 91 -77
130 -69 50 10 267 115 311 150 23 18 73 52 111 75 70 43 198 140 284 216 25
23 67 58 93 78 59 47 283 293 352 386 28 37 64 84 79 103 30 39 83 133 188
333 38 72 78 138 90 147 33 28 88 22 171 -17 105 -50 335 -118 373 -111 49 10
92 63 135 169 44 108 48 135 23 178 -34 57 -123 99 -352 169 -118 36 -155 64
-167 125 -5 26 -1 54 10 89 40 117 68 218 96 342 16 73 42 170 59 217 19 56
38 144 55 263 14 98 44 280 66 404 22 124 50 299 61 390 12 91 24 181 26 201
4 30 1 40 -18 53 -31 21 -105 20 -196 -4z"/>
</g>
</svg>
