<svg xmlns="http://www.w3.org/2000/svg" viewBox="0 0 426.620846 589.385425">
<g transform="translate(-23.853780,608.524960) scale(0.100000,-0.100000)" fill="#000000" stroke="none">
<path d="M3611 6080 c-75 -18 -127 -82 -136 -168 -8 -78 -22 -178 -51 -367
-80 -517 -83 -532 -135 -683 -36 -107 -71 -231 -94 -335 -53 -247 -157 -286
-430 -162 -33 15 -109 47 -170 72 -60 24 -150 66 -200 92 -226 121 -371 137
-451 49 -44 -48 -114 -234 -114 -301 1 -129 140 -222 555 -372 242 -87 414
-190 445 -265 25 -59 9 -144 -54 -289 -134 -310 -193 -320 -561 -95 -60 37
-182 111 -271 164 -88 54 -201 125 -251 159 -195 133 -290 105 -404 -119 -58
-114 -63 -175 -21 -240 29 -46 56 -64 461 -305 64 -38 146 -89 181 -111 36
-23 120 -73 186 -113 241 -141 259 -221 101 -429 -24 -31 -73 -102 -108 -157
-184 -282 -504 -648 -766 -876 -59 -52 -137 -122 -173 -155 -36 -34 -99 -85
-140 -114 -41 -29 -97 -72 -125 -95 -67 -57 -218 -157 -313 -208 -110 -58
-298 -182 -316 -209 -44 -62 -10 -100 156 -176 260 -120 345 -111 608 64 74
49 174 111 222 136 94 50 229 147 417 298 217 174 284 236 522 476 247 250
397 438 560 701 94 152 144 193 234 193 61 0 92 -14 237 -108 344 -222 441
-237 553 -84 152 209 116 328 -142 468 -123 66 -344 216 -376 253 -64 76 -59
158 17 304 29 56 68 149 86 206 73 231 186 265 424 127 66 -38 158 -81 226
-104 63 -22 159 -56 213 -76 180 -66 215 -42 272 188 40 160 20 254 -68 319
-51 39 -340 174 -477 223 -232 84 -290 137 -290 263 0 52 52 242 94 342 46
112 78 236 110 430 37 226 126 623 182 818 64 221 15 297 -225 350 -128 28
-160 31 -200 21z"/>
</g>
</svg>
