<svg xmlns="http://www.w3.org/2000/svg" viewBox="0 0 912.53 864.91">
<g transform="translate(248.87,616.44) scale(0.100000,-0.100000)" fill="#000000" stroke="none" fill-rule="evenodd">
<path d="M 1744.0 3243.0 L 1744.0 3245.4 Q 1744.0 3243.0 1744.0 3240.6 L 1737.0 2812.8 Q 1737.0 2810.4 1736.4 2808.1 L 1710.3 2709.3 Q 1709.7 2707.0 1707.9 2705.3 L 1672.8 2671.1 Q 1671.1 2669.4 1668.7 2668.8 L 1517.9 2633.5 Q 1515.6 2632.9 1513.2 2632.9 L 436.8 2608.2 Q 434.4 2608.1 432.1 2607.4 L 282.8 2562.4 Q 280.5 2561.7 278.8 2560.0 L 205.1 2489.5 Q 203.4 2487.9 203.1 2485.5 L 181.7 2332.7 Q 181.4 2330.3 182.6 2328.3 L 236.5 2242.7 Q 237.7 2240.6 239.9 2239.6 L 284.3 2219.1 Q 286.5 2218.1 288.9 2218.2 L 1525.7 2280.8 Q 1528.1 2280.9 1530.4 2280.5 L 1630.7 2260.3 Q 1633.1 2259.9 1635.0 2258.4 L 1674.2 2229.0 Q 1676.2 2227.6 1676.8 2225.3 L 1706.0 2129.2 Q 1706.6 2126.9 1706.1 2124.6 L 1627.2 1759.7 Q 1626.7 1757.3 1625.9 1755.1 L 1553.9 1556.3 Q 1553.1 1554.0 1552.0 1551.9 L 1456.8 1363.2 Q 1455.7 1361.1 1454.2 1359.2 L 1288.4 1152.1 Q 1286.9 1150.2 1285.0 1148.7 L 1081.7 978.9 Q 1079.8 977.3 1077.6 976.5 L 780.0 860.1 Q 777.8 859.2 775.4 858.7 L 568.6 815.8 Q 566.3 815.3 563.9 815.0 L 30.9 760.2 Q 28.5 760.0 26.7 758.4 L 1.8 736.0 Q 0.0 734.4 0.1 732.0 L 14.1 372.4 Q 14.2 370.0 16.5 369.3 L 113.6 339.5 Q 115.9 338.8 117.7 337.2 L 277.2 199.2 Q 279.1 197.7 281.4 197.2 L 435.0 167.9 Q 437.4 167.4 439.8 167.7 L 648.5 194.7 Q 650.9 195.0 653.0 196.0 L 992.3 351.9 Q 994.5 352.9 996.4 354.4 L 1250.7 547.6 Q 1252.6 549.0 1254.3 550.8 L 1591.4 894.9 Q 1593.1 896.6 1594.5 898.6 L 1772.2 1163.7 Q 1773.6 1165.7 1774.5 1168.0 L 1897.3 1462.0 Q 1898.2 1464.2 1900.4 1465.2 L 1989.0 1508.9 Q 1991.2 1509.9 1993.6 1509.7 L 2042.5 1505.0 Q 2044.9 1504.8 2046.8 1503.4 L 2131.0 1445.7 Q 2132.9 1444.4 2134.5 1442.5 L 2716.1 737.0 Q 2717.7 735.1 2719.3 733.4 L 3055.6 388.3 Q 3057.3 386.6 3059.1 385.0 L 3220.8 248.7 Q 3222.7 247.1 3224.7 245.8 L 3578.7 7.5 Q 3580.7 6.1 3583.1 6.1 L 3685.5 4.1 Q 3687.9 4.0 3689.8 5.5 L 3815.0 99.1 Q 3816.9 100.6 3819.1 101.5 L 4063.6 204.5 Q 4065.8 205.4 4067.3 207.3 L 4130.4 285.0 Q 4131.9 286.9 4132.3 289.3 L 4147.5 391.3 Q 4147.9 393.6 4147.8 396.0 L 4142.5 499.1 Q 4142.4 501.5 4141.3 503.6 L 4096.3 593.9 Q 4095.3 596.1 4092.9 596.7 L 3733.9 690.0 Q 3731.6 690.6 3729.4 691.5 L 3385.6 837.9 Q 3383.4 838.8 3381.3 840.0 L 3102.8 996.5 Q 3100.7 997.7 3098.8 999.2 L 2442.5 1554.0 Q 2440.7 1555.5 2439.0 1557.3 L 2110.0 1909.3 Q 2108.4 1911.1 2106.9 1913.0 L 2010.4 2037.2 Q 2009.0 2039.1 2008.3 2041.4 L 1994.6 2088.4 Q 1993.9 2090.7 1994.1 2093.1 L 2004.1 2194.5 Q 2004.4 2196.9 2006.2 2198.5 L 2081.2 2266.4 Q 2083.0 2268.0 2085.4 2268.5 L 2133.3 2278.6 Q 2135.7 2279.1 2138.1 2279.1 L 3591.7 2297.5 Q 3594.1 2297.6 3596.0 2299.0 L 3676.5 2363.0 Q 3678.4 2364.5 3679.7 2366.5 L 3738.4 2451.1 Q 3739.8 2453.0 3740.1 2455.4 L 3748.0 2503.0 Q 3748.3 2505.4 3747.1 2507.5 L 3721.9 2549.2 Q 3720.7 2551.3 3718.8 2552.8 L 3680.5 2583.5 Q 3678.6 2585.0 3676.3 2585.6 L 3576.9 2609.9 Q 3574.6 2610.4 3572.2 2610.5 L 2279.3 2634.6 Q 2276.9 2634.7 2274.5 2635.2 L 2122.8 2667.1 Q 2120.4 2667.6 2118.6 2669.2 L 2081.7 2701.4 Q 2079.9 2703.0 2079.0 2705.2 L 2042.2 2800.4 Q 2041.3 2802.6 2041.3 2805.0 L 2052.7 3665.4 Q 2052.7 3667.8 2050.3 3667.8 L 1747.4 3675.6 Q 1745.0 3675.7 1745.0 3673.3 Z"/>
</g>
</svg>
