<svg xmlns="http://www.w3.org/2000/svg" viewBox="0 0 844.25 668.01">
<g transform="translate(213.80,437.70) scale(0.100000,-0.100000)" fill="#000000" stroke="none" fill-rule="evenodd">
<path d="M 1930.0 1997.0 L 1930.0 1999.4 Q 1930.0 1997.0 1930.5 1994.6 L 1963.8 1823.8 Q 1964.3 1821.4 1965.7 1819.5 L 2199.6 1485.0 Q 2200.9 1483.0 2202.0 1480.8 L 2267.3 1346.0 Q 2268.4 1343.8 2269.8 1341.9 L 3071.3 241.6 Q 3072.7 239.6 3074.6 238.1 L 3251.7 96.2 Q 3253.5 94.7 3254.8 92.7 L 3307.9 10.7 Q 3309.2 8.7 3311.6 8.6 L 3407.7 5.5 Q 3410.1 5.4 3411.9 7.1 L 3521.3 107.2 Q 3523.0 108.8 3525.3 109.7 L 3760.9 201.8 Q 3763.1 202.7 3764.8 204.3 L 3966.6 396.2 Q 3968.3 397.8 3968.8 400.2 L 4001.4 543.2 Q 4002.0 545.5 4000.8 547.6 L 3953.1 630.8 Q 3951.9 632.9 3949.6 633.4 L 3704.7 686.3 Q 3702.3 686.8 3700.1 687.6 L 3292.9 836.0 Q 3290.6 836.8 3288.7 838.3 L 2923.1 1115.3 Q 2921.2 1116.8 2919.5 1118.4 L 2630.9 1407.3 Q 2629.2 1409.0 2627.6 1410.8 L 2177.1 1936.2 Q 2175.6 1938.0 2174.5 1940.1 L 2105.8 2071.7 Q 2104.7 2073.8 2102.3 2073.8 L 1932.4 2074.5 Q 1930.0 2074.5 1930.0 2072.1 Z M 1313.0 1440.0 L 1315.4 1440.4 Q 1313.0 1440.0 1311.5 1438.1 L 940.3 954.4 Q 938.9 952.5 937.2 950.7 L 691.5 688.4 Q 689.8 686.6 687.8 685.4 L 427.9 532.9 Q 425.9 531.7 423.5 531.1 L 238.1 487.8 Q 235.8 487.3 234.0 485.7 L 176.6 434.3 Q 174.8 432.7 174.5 430.3 L 164.8 353.1 Q 164.5 350.8 165.6 348.6 L 202.9 279.7 Q 204.1 277.5 205.9 276.0 L 289.2 209.0 Q 291.1 207.5 293.3 206.4 L 489.2 108.2 Q 491.3 107.1 492.8 105.2 L 570.0 1.3 Q 571.4 -0.6 573.8 -0.3 L 725.7 21.1 Q 728.1 21.5 729.2 23.6 L 776.7 119.2 Q 777.7 121.3 779.2 123.2 L 1075.6 488.9 Q 1077.1 490.8 1078.3 492.9 L 1397.6 1075.5 Q 1398.8 1077.6 1399.7 1079.8 L 1498.5 1306.6 Q 1499.4 1308.9 1499.6 1311.2 L 1504.7 1389.2 Q 1504.9 1391.6 1503.5 1393.6 L 1474.4 1434.6 Q 1473.0 1436.6 1470.8 1437.5 L 1424.1 1456.9 Q 1421.9 1457.9 1419.5 1457.5 Z"/>
</g>
</svg>
