<svg xmlns="http://www.w3.org/2000/svg" viewBox="0 0 666.46 566.07">
<g transform="translate(164.70,395.53) scale(0.100000,-0.100000)" fill="#000000" stroke="none" fill-rule="evenodd">
<path d="M 2165.0 2114.0 L 2167.4 2114.4 Q 2165.0 2114.0 2162.6 2113.6 L 1275.8 1954.1 Q 1273.4 1953.6 1271.0 1953.5 L 564.6 1921.0 Q 562.2 1920.8 560.0 1919.9 L 506.0 1897.2 Q 503.8 1896.2 503.0 1894.0 L 482.5 1839.6 Q 481.7 1837.4 482.6 1835.2 L 505.0 1782.1 Q 506.0 1779.9 508.2 1779.1 L 624.5 1738.2 Q 626.8 1737.5 629.2 1737.1 L 1008.5 1680.4 Q 1010.9 1680.0 1013.3 1680.1 L 1267.1 1684.9 Q 1269.5 1684.9 1271.9 1685.2 L 2359.9 1812.8 Q 2362.3 1813.1 2364.6 1813.8 L 2606.9 1887.9 Q 2609.2 1888.6 2611.2 1889.9 L 2661.0 1922.9 Q 2663.0 1924.2 2664.1 1926.4 L 2688.9 1978.4 Q 2689.9 1980.6 2688.9 1982.8 L 2665.4 2035.8 Q 2664.4 2038.0 2662.3 2039.1 L 2609.4 2066.3 Q 2607.2 2067.4 2604.9 2067.9 L 2293.9 2137.2 Q 2291.5 2137.7 2289.2 2137.3 Z M 2555.0 624.0 L 2557.4 624.1 Q 2555.0 624.0 2552.6 623.6 L 1951.9 520.5 Q 1949.5 520.1 1947.2 519.8 L 270.0 363.4 Q 267.6 363.2 265.5 362.0 L 183.3 314.5 Q 181.2 313.3 180.7 311.0 L 171.2 266.6 Q 170.7 264.2 171.4 261.9 L 186.3 218.3 Q 187.1 216.1 189.0 214.6 L 265.5 157.1 Q 267.4 155.6 269.7 155.1 L 463.0 112.7 Q 465.3 112.2 467.7 112.6 L 1474.0 272.4 Q 1476.4 272.7 1478.8 272.9 L 2190.1 306.7 Q 2192.5 306.8 2194.9 306.8 L 3162.8 288.0 Q 3165.2 288.0 3167.4 288.9 L 3197.8 302.4 Q 3200.0 303.4 3200.0 305.8 L 3200.0 454.7 Q 3200.0 457.1 3198.8 459.1 L 3180.4 489.4 Q 3179.2 491.5 3176.9 492.2 L 3084.8 522.4 Q 3082.5 523.1 3080.6 524.6 L 2962.1 614.3 Q 2960.2 615.7 2957.8 616.1 L 2812.8 638.5 Q 2810.5 638.9 2808.1 638.7 Z"/>
</g>
</svg>
