<svg xmlns="http://www.w3.org/2000/svg" viewBox="228.00 228.00 376.00 424.00">
<g transform="translate(240.00,640.00) scale(0.100000,-0.100000)" fill="#000000" stroke="none" fill-rule="evenodd">
<path d="M 1563.0 3663.0 L 1563.0 3665.4 Q 1563.0 3663.0 1562.9 3660.6 L 1546.5 3291.6 Q 1546.4 3289.2 1544.4 3287.9 L 1447.9 3224.8 Q 1445.9 3223.5 1443.5 3223.5 L 9.5 3215.0 Q 7.1 3215.0 7.1 3212.6 L 0.0 1472.7 Q 0.0 1470.3 1.2 1468.2 L 21.1 1432.1 Q 22.3 1430.0 24.7 1430.1 L 207.4 1433.9 Q 209.8 1434.0 212.2 1434.5 L 881.5 1566.2 Q 883.8 1566.6 886.2 1566.6 L 1381.9 1564.5 Q 1384.3 1564.5 1386.7 1564.1 L 1504.1 1545.7 Q 1506.5 1545.4 1508.0 1543.5 L 1542.8 1499.6 Q 1544.3 1497.8 1544.6 1495.4 L 1557.5 1376.0 Q 1557.8 1373.6 1557.8 1371.2 L 1562.0 249.9 Q 1562.0 247.5 1562.7 245.2 L 1631.9 10.1 Q 1632.6 7.8 1634.9 7.5 L 1691.1 0.3 Q 1693.5 0.0 1695.7 0.8 L 1739.8 16.8 Q 1742.0 17.6 1743.0 19.8 L 1838.1 245.1 Q 1839.1 247.3 1839.1 249.7 L 1842.3 1370.1 Q 1842.3 1372.5 1842.5 1374.9 L 1855.2 1494.3 Q 1855.4 1496.7 1857.0 1498.5 L 1892.8 1541.1 Q 1894.4 1542.9 1896.7 1543.3 L 2014.5 1561.8 Q 2016.9 1562.1 2019.3 1562.1 L 2327.1 1554.9 Q 2329.5 1554.8 2331.9 1554.5 L 3134.9 1462.1 Q 3137.3 1461.8 3139.7 1462.0 L 3258.6 1472.0 Q 3261.0 1472.2 3262.9 1473.7 L 3308.2 1508.3 Q 3310.1 1509.8 3311.0 1512.0 L 3358.0 1621.5 Q 3359.0 1623.7 3359.1 1626.1 L 3405.1 2495.7 Q 3405.2 2498.1 3405.6 2500.5 L 3450.5 2741.1 Q 3450.9 2743.5 3452.1 2745.6 L 3512.9 2846.9 Q 3514.2 2849.0 3514.2 2851.4 L 3520.0 3159.1 Q 3520.0 3161.5 3517.6 3161.9 L 3278.5 3200.1 Q 3276.1 3200.5 3273.7 3200.5 L 2027.4 3220.5 Q 2025.0 3220.6 2022.6 3221.1 L 1906.5 3246.5 Q 1904.1 3247.0 1902.5 3248.8 L 1864.7 3291.0 Q 1863.1 3292.8 1862.5 3295.1 L 1848.4 3350.9 Q 1847.8 3353.2 1847.7 3355.6 L 1828.0 3976.0 Q 1827.9 3978.4 1825.8 3979.5 L 1788.2 3998.9 Q 1786.1 4000.0 1783.7 4000.0 L 1600.8 4000.0 Q 1598.4 4000.0 1596.4 3998.7 L 1562.2 3977.1 Q 1560.2 3975.8 1560.2 3973.4 Z M 1493.0 2866.0 L 1490.6 2866.1 Q 1493.0 2866.0 1494.9 2864.5 L 1547.9 2823.8 Q 1549.8 2822.3 1550.1 2819.9 L 1561.1 2751.5 Q 1561.5 2749.1 1561.5 2746.7 L 1562.5 2082.2 Q 1562.5 2079.8 1561.9 2077.5 L 1527.1 1942.3 Q 1526.5 1940.0 1524.2 1939.5 L 1386.7 1907.7 Q 1384.4 1907.1 1382.0 1907.1 L 568.8 1904.5 Q 566.4 1904.5 564.1 1905.2 L 428.1 1942.1 Q 425.8 1942.7 424.1 1944.4 L 375.7 1994.1 Q 374.0 1995.8 374.0 1998.2 L 383.4 2662.6 Q 383.5 2665.0 384.4 2667.3 L 410.8 2730.2 Q 411.7 2732.4 413.5 2734.0 L 464.7 2780.6 Q 466.4 2782.3 468.7 2783.2 L 601.0 2837.5 Q 603.3 2838.4 605.6 2838.7 L 748.4 2856.4 Q 750.8 2856.7 753.2 2856.8 L 1194.0 2878.1 Q 1196.4 2878.2 1198.8 2878.1 Z M 2510.0 2859.0 L 2507.6 2859.0 Q 2510.0 2859.0 2512.4 2858.8 L 2911.8 2829.4 Q 2914.2 2829.2 2916.3 2828.1 L 3014.7 2781.2 Q 3016.8 2780.2 3018.1 2778.1 L 3045.9 2733.3 Q 3047.2 2731.3 3047.4 2728.9 L 3065.4 2562.1 Q 3065.7 2559.7 3065.6 2557.3 L 3041.4 2041.6 Q 3041.3 2039.2 3040.7 2036.9 L 3000.9 1876.0 Q 3000.3 1873.7 2998.4 1872.2 L 2956.9 1839.9 Q 2955.0 1838.4 2952.6 1838.1 L 2900.4 1831.8 Q 2898.0 1831.5 2895.7 1831.6 L 2091.3 1879.2 Q 2088.9 1879.4 2086.6 1879.8 L 1921.1 1910.6 Q 1918.8 1911.0 1916.8 1912.4 L 1873.2 1941.9 Q 1871.2 1943.2 1870.5 1945.5 L 1838.5 2048.7 Q 1837.8 2051.0 1837.8 2053.4 L 1842.3 2799.5 Q 1842.3 2801.9 1844.2 2803.4 L 1929.7 2867.7 Q 1931.7 2869.2 1934.1 2869.2 Z"/>
</g>
</svg>
