<svg xmlns="http://www.w3.org/2000/svg" viewBox="0 0 1128.58 1378.08">
<g transform="translate(364.12,1002.24) scale(0.100000,-0.100000)" fill="#000000" stroke="none" fill-rule="evenodd">
<path d="M 3678.0 6264.0 L 3680.3 6263.3 Q 3678.0 6264.0 3675.6 6264.0 L 346.0 6251.8 Q 343.6 6251.8 341.2 6251.5 L 205.6 6234.4 Q 203.2 6234.1 201.7 6232.2 L 119.2 6126.9 Q 117.7 6125.0 117.7 6122.6 L 117.2 6057.1 Q 117.2 6054.7 118.2 6052.5 L 172.6 5928.0 Q 173.6 5925.8 175.3 5924.2 L 224.0 5879.8 Q 225.7 5878.2 228.1 5877.6 L 290.8 5861.7 Q 293.1 5861.1 295.5 5861.1 L 1638.5 5865.4 Q 1640.9 5865.4 1643.3 5865.0 L 1708.6 5855.4 Q 1711.0 5855.1 1712.9 5853.7 L 1764.1 5815.4 Q 1766.1 5814.0 1767.3 5811.9 L 1799.7 5754.3 Q 1800.9 5752.2 1800.9 5749.8 L 1810.5 2775.9 Q 1810.5 2773.5 1810.5 2771.1 L 1808.7 2634.0 Q 1808.7 2631.6 1807.8 2629.4 L 1783.1 2569.6 Q 1782.2 2567.4 1780.1 2566.3 L 1722.4 2536.5 Q 1720.3 2535.4 1718.0 2535.9 L 1585.9 2562.5 Q 1583.5 2563.0 1581.6 2564.3 L 1411.9 2683.8 Q 1410.0 2685.2 1407.8 2686.3 L 973.8 2910.4 Q 971.7 2911.5 969.6 2912.7 L 552.2 3168.9 Q 550.2 3170.1 547.8 3170.3 L 414.6 3183.0 Q 412.2 3183.2 410.5 3181.6 L 362.4 3138.6 Q 360.6 3137.0 360.0 3134.6 L 343.7 3071.1 Q 343.1 3068.8 343.5 3066.4 L 367.2 2932.5 Q 367.7 2930.1 368.9 2928.0 L 437.9 2810.3 Q 439.1 2808.3 441.2 2807.0 L 798.8 2590.2 Q 800.9 2588.9 803.0 2587.9 L 1243.7 2372.6 Q 1245.9 2371.6 1247.3 2369.7 L 1328.2 2260.9 Q 1329.6 2259.0 1330.3 2256.7 L 1348.5 2194.0 Q 1349.1 2191.7 1346.9 2190.8 L 1292.0 2170.4 Q 1289.7 2169.6 1287.3 2169.5 L 795.8 2164.3 Q 793.4 2164.3 791.2 2163.4 L 730.5 2138.1 Q 728.3 2137.2 726.9 2135.3 L 688.6 2082.7 Q 687.2 2080.7 687.0 2078.3 L 669.7 1800.9 Q 669.5 1798.5 669.5 1796.1 L 672.8 311.0 Q 672.8 308.6 673.0 306.3 L 699.5 28.9 Q 699.8 26.5 701.9 25.4 L 746.0 1.2 Q 748.1 0.0 750.5 0.0 L 3228.8 4.2 Q 3231.2 4.2 3233.6 4.2 L 3299.8 5.3 Q 3302.2 5.3 3304.0 6.8 L 3341.5 38.3 Q 3343.3 39.9 3343.5 42.3 L 3367.4 462.1 Q 3367.6 464.5 3367.6 466.9 L 3365.1 2023.0 Q 3365.1 2025.4 3364.1 2027.6 L 3309.1 2148.6 Q 3308.1 2150.8 3305.8 2151.5 L 3243.1 2169.8 Q 3240.8 2170.5 3238.4 2170.5 L 2817.7 2178.5 Q 2815.3 2178.5 2813.3 2179.8 L 2762.7 2210.6 Q 2760.6 2211.8 2761.0 2214.2 L 2772.1 2278.4 Q 2772.5 2280.8 2774.1 2282.6 L 2863.6 2381.8 Q 2865.2 2383.6 2867.4 2384.5 L 3057.6 2467.6 Q 3059.8 2468.6 3061.9 2469.9 L 3415.8 2694.7 Q 3417.8 2696.0 3419.9 2697.1 L 3605.2 2789.8 Q 3607.4 2790.8 3608.5 2792.9 L 3672.8 2910.9 Q 3673.9 2913.0 3674.0 2915.4 L 3681.8 3122.2 Q 3681.9 3124.6 3680.6 3126.7 L 3646.9 3181.6 Q 3645.7 3183.6 3643.4 3184.3 L 3581.0 3203.6 Q 3578.8 3204.3 3576.4 3203.7 L 3513.7 3185.8 Q 3511.4 3185.1 3509.5 3183.7 L 3346.6 3055.6 Q 3344.7 3054.1 3342.6 3052.9 L 2673.4 2671.1 Q 2671.3 2670.0 2669.5 2668.4 L 2566.3 2578.3 Q 2564.5 2576.7 2562.1 2576.2 L 2499.6 2561.0 Q 2497.3 2560.4 2495.0 2561.2 L 2432.8 2581.1 Q 2430.5 2581.9 2429.4 2584.0 L 2399.6 2639.2 Q 2398.4 2641.3 2398.4 2643.7 L 2402.7 5689.4 Q 2402.7 5691.8 2403.2 5694.2 L 2430.3 5826.5 Q 2430.7 5828.9 2432.6 5830.4 L 2482.3 5872.4 Q 2484.1 5874.0 2486.5 5874.0 L 3757.4 5869.4 Q 3759.8 5869.4 3761.4 5871.2 L 3853.0 5970.1 Q 3854.7 5971.9 3855.2 5974.2 L 3885.7 6105.9 Q 3886.2 6108.2 3884.9 6110.2 L 3810.5 6222.4 Q 3809.2 6224.4 3806.9 6225.1 Z M 2737.0 1729.0 L 2734.6 1729.2 Q 2737.0 1729.0 2738.5 1727.1 L 2799.8 1646.8 Q 2801.3 1644.9 2801.5 1642.5 L 2809.0 1534.2 Q 2809.1 1531.8 2809.2 1529.4 L 2812.1 740.2 Q 2812.1 737.8 2811.8 735.5 L 2785.1 517.9 Q 2784.8 515.6 2782.6 514.8 L 2681.4 482.4 Q 2679.1 481.6 2676.7 481.5 L 2454.8 472.6 Q 2452.4 472.5 2450.0 472.5 L 1321.1 482.5 Q 1318.7 482.5 1317.5 484.6 L 1265.6 572.1 Q 1264.3 574.2 1264.2 576.5 L 1259.0 685.0 Q 1258.9 687.4 1258.9 689.8 L 1259.3 1592.4 Q 1259.3 1594.8 1259.8 1597.2 L 1280.2 1700.2 Q 1280.7 1702.5 1282.9 1703.6 L 1376.2 1748.4 Q 1378.4 1749.5 1380.8 1749.5 L 1489.4 1751.6 Q 1491.8 1751.6 1494.2 1751.6 L 2510.2 1750.3 Q 2512.6 1750.3 2515.0 1750.1 Z"/>
</g>
</svg>
