<svg xmlns="http://www.w3.org/2000/svg" viewBox="0 0 844.80 748.80">
<g transform="translate(230.40,518.40) scale(0.100000,-0.100000)" fill="#000000" stroke="none" fill-rule="evenodd">
<path d="M 1765.0 2820.0 L 1765.3 2822.4 Q 1765.0 2820.0 1765.0 2817.6 L 1764.9 1993.2 Q 1764.9 1990.8 1763.3 1989.1 L 1698.7 1919.8 Q 1697.1 1918.0 1694.7 1918.0 L 1026.8 1909.1 Q 1024.4 1909.0 1022.7 1907.3 L 888.9 1767.3 Q 887.3 1765.5 884.9 1765.5 L 8.7 1761.0 Q 6.3 1761.0 6.2 1758.6 L 0.0 1303.2 Q 0.0 1300.8 2.0 1299.4 L 29.1 1281.1 Q 31.0 1279.8 33.4 1279.8 L 702.3 1280.2 Q 704.7 1280.2 706.9 1281.1 L 749.6 1298.5 Q 751.8 1299.4 753.2 1301.3 L 842.2 1422.4 Q 843.6 1424.3 845.9 1424.7 L 890.8 1433.2 Q 893.2 1433.7 895.6 1433.7 L 2082.8 1439.5 Q 2085.2 1439.5 2087.6 1439.4 L 2652.8 1430.0 Q 2655.2 1430.0 2656.8 1428.1 L 2748.7 1315.0 Q 2750.3 1313.2 2752.5 1312.4 L 2844.5 1283.0 Q 2846.8 1282.3 2849.2 1282.3 L 3518.1 1279.5 Q 3520.5 1279.5 3522.9 1279.9 L 3619.2 1297.6 Q 3621.6 1298.1 3623.1 1300.0 L 3715.5 1417.5 Q 3717.0 1419.4 3719.3 1419.9 L 3813.7 1439.5 Q 3816.0 1440.0 3817.6 1441.8 L 3838.4 1466.0 Q 3840.0 1467.9 3839.9 1470.3 L 3825.7 1917.6 Q 3825.7 1920.0 3823.3 1920.0 L 2376.8 1921.5 Q 2374.4 1921.5 2372.0 1921.7 L 2120.0 1938.9 Q 2117.6 1939.1 2116.6 1941.3 L 2076.1 2027.3 Q 2075.1 2029.5 2075.1 2031.9 L 2075.0 2286.0 Q 2075.0 2288.4 2076.0 2290.6 L 2115.5 2377.7 Q 2116.4 2379.8 2118.5 2381.1 L 2203.4 2431.3 Q 2205.5 2432.5 2206.8 2434.5 L 2233.4 2472.5 Q 2234.7 2474.5 2234.9 2476.9 L 2242.1 2626.4 Q 2242.2 2628.8 2240.5 2630.5 L 2095.2 2766.4 Q 2093.5 2768.0 2092.8 2770.3 L 2062.9 2863.5 Q 2062.2 2865.8 2059.8 2865.9 L 1817.6 2879.9 Q 1815.3 2880.0 1812.9 2879.5 L 1773.4 2871.9 Q 1771.0 2871.5 1770.7 2869.1 Z M 1162.0 944.0 L 1164.4 944.1 Q 1162.0 944.0 1160.4 942.2 L 754.3 498.4 Q 752.7 496.6 750.3 496.5 L 420.5 480.2 Q 418.1 480.1 416.0 479.0 L 341.2 441.5 Q 339.0 440.4 338.7 438.1 L 316.7 293.0 Q 316.3 290.6 316.3 288.2 L 319.8 17.4 Q 319.8 15.0 321.5 13.3 L 333.9 1.7 Q 335.6 0.0 338.0 0.0 L 944.7 1.1 Q 947.1 1.1 947.8 3.5 L 977.8 115.6 Q 978.4 118.0 980.2 119.5 L 1111.4 234.3 Q 1113.2 235.9 1113.4 238.3 L 1128.1 416.0 Q 1128.3 418.4 1130.2 419.9 L 1245.2 508.5 Q 1247.1 510.0 1248.2 512.1 L 1274.3 560.9 Q 1275.4 563.0 1275.4 565.4 L 1283.3 896.6 Q 1283.3 899.0 1281.9 901.0 L 1249.7 944.9 Q 1248.3 946.9 1245.9 946.8 Z M 2593.0 948.0 L 2595.4 948.4 Q 2593.0 948.0 2591.8 945.9 L 2554.3 878.7 Q 2553.1 876.6 2553.3 874.2 L 2573.5 537.8 Q 2573.6 535.4 2575.5 533.9 L 2704.2 432.3 Q 2706.1 430.8 2706.3 428.4 L 2727.3 235.6 Q 2727.6 233.2 2729.4 231.7 L 2854.2 127.4 Q 2856.0 125.8 2856.8 123.6 L 2901.7 2.3 Q 2902.5 0.0 2904.9 0.1 L 3497.3 14.4 Q 3499.7 14.4 3500.6 16.6 L 3530.8 90.4 Q 3531.7 92.6 3533.5 94.2 L 3657.1 204.2 Q 3658.9 205.8 3659.3 208.1 L 3668.4 258.4 Q 3668.8 260.7 3667.7 262.9 L 3645.0 308.7 Q 3644.0 310.9 3641.7 311.5 L 3565.7 334.0 Q 3563.4 334.7 3561.0 334.5 L 3423.7 324.3 Q 3421.3 324.2 3419.7 326.0 L 3295.6 469.8 Q 3294.1 471.6 3291.7 471.8 L 3098.4 489.6 Q 3096.0 489.9 3094.4 491.6 L 2697.9 926.8 Q 2696.3 928.6 2694.3 929.8 L 2650.4 956.7 Q 2648.3 957.9 2646.0 957.5 Z"/>
</g>
</svg>
