<svg xmlns="http://www.w3.org/2000/svg" viewBox="230.23 230.23 428.16 390.87">
<g transform="translate(70.70,700.01) scale(0.100000,-0.100000)" fill="#000000" stroke="none" fill-rule="evenodd">
<path d="M 3616.0 4570.0 L 3619.0 4570.5 Q 3616.0 4570.0 3613.3 4568.6 L 3579.9 4551.5 Q 3577.2 4550.1 3575.3 4547.8 L 3551.6 4518.5 Q 3549.8 4516.2 3548.7 4513.4 L 3519.8 4437.3 Q 3518.7 4434.5 3518.6 4431.5 L 3508.2 3999.2 Q 3508.2 3996.2 3507.6 3993.2 L 3493.0 3913.2 Q 3492.4 3910.3 3490.7 3907.8 L 3468.6 3877.6 Q 3466.8 3875.1 3464.2 3873.7 L 3431.2 3855.5 Q 3428.6 3854.0 3425.7 3853.4 L 3346.2 3834.7 Q 3343.3 3834.0 3340.3 3833.6 L 3128.9 3804.8 Q 3125.9 3804.4 3123.0 3804.2 L 2953.9 3792.3 Q 2950.9 3792.1 2947.9 3792.3 L 2779.2 3804.7 Q 2776.2 3804.9 2773.3 3805.7 L 2609.2 3847.9 Q 2606.3 3848.7 2603.4 3849.1 L 2479.2 3867.9 Q 2476.3 3868.3 2473.3 3868.4 L 2216.3 3879.9 Q 2213.3 3880.1 2210.4 3879.8 L 2129.2 3871.9 Q 2126.3 3871.6 2123.5 3870.3 L 2089.6 3854.0 Q 2086.9 3852.8 2084.9 3850.6 L 1999.5 3759.0 Q 1997.5 3756.8 1996.1 3754.1 L 1959.6 3681.4 Q 1958.3 3678.7 1958.1 3675.7 L 1953.7 3594.9 Q 1953.5 3591.9 1954.7 3589.2 L 1986.5 3514.5 Q 1987.7 3511.7 1989.7 3509.5 L 2014.8 3481.3 Q 2016.8 3479.1 2019.5 3477.7 L 2091.6 3441.3 Q 2094.3 3439.9 2097.2 3439.6 L 2134.9 3436.1 Q 2137.9 3435.8 2140.9 3435.8 L 3670.4 3431.8 Q 3673.4 3431.8 3676.4 3431.7 L 4152.8 3416.5 Q 4155.8 3416.4 4158.7 3415.8 L 4237.2 3399.1 Q 4240.1 3398.5 4241.2 3395.7 L 4254.3 3363.3 Q 4255.4 3360.5 4254.4 3357.7 L 4228.3 3280.5 Q 4227.3 3277.7 4225.9 3275.0 L 4045.2 2931.1 Q 4043.8 2928.5 4042.2 2926.0 L 3950.4 2783.6 Q 3948.8 2781.1 3946.9 2778.7 L 3812.4 2613.2 Q 3810.5 2610.9 3808.4 2608.7 L 3721.3 2518.3 Q 3719.2 2516.1 3716.8 2514.3 L 3686.9 2491.2 Q 3684.5 2489.4 3681.6 2488.8 L 3645.4 2480.8 Q 3642.4 2480.2 3639.7 2481.6 L 3567.5 2517.8 Q 3564.8 2519.1 3562.5 2521.1 L 3368.1 2689.4 Q 3365.8 2691.3 3363.6 2693.4 L 2899.7 3151.5 Q 2897.6 3153.7 2895.3 3155.6 L 2833.0 3207.9 Q 2830.7 3209.8 2827.8 3210.2 L 2747.5 3219.2 Q 2744.5 3219.6 2741.7 3218.6 L 2665.1 3191.8 Q 2662.3 3190.8 2660.2 3188.7 L 2604.1 3130.8 Q 2602.0 3128.7 2601.7 3125.7 L 2594.7 3044.7 Q 2594.5 3041.7 2595.5 3038.9 L 2608.0 3004.1 Q 2609.0 3001.3 2611.2 2999.3 L 2924.8 2701.4 Q 2927.0 2699.3 2929.1 2697.1 L 3169.3 2449.6 Q 3171.4 2447.5 3173.4 2445.2 L 3342.1 2251.3 Q 3344.1 2249.0 3344.4 2246.0 L 3347.8 2209.2 Q 3348.0 2206.2 3346.5 2203.6 L 3327.8 2171.1 Q 3326.3 2168.5 3324.1 2166.5 L 3263.7 2111.6 Q 3261.5 2109.6 3259.0 2107.8 L 3014.5 1933.1 Q 3012.0 1931.3 3009.5 1929.7 L 2903.4 1864.1 Q 2900.9 1862.5 2898.2 1861.3 L 2703.1 1776.1 Q 2700.4 1774.9 2697.6 1773.9 L 2497.0 1701.7 Q 2494.2 1700.6 2491.2 1700.0 L 2153.7 1630.1 Q 2150.7 1629.5 2147.7 1629.4 L 1847.3 1614.9 Q 1844.3 1614.8 1841.4 1614.1 L 1762.9 1594.1 Q 1760.0 1593.4 1758.0 1591.1 L 1733.7 1562.9 Q 1731.8 1560.6 1731.2 1557.7 L 1717.0 1478.0 Q 1716.5 1475.0 1717.0 1472.1 L 1722.9 1434.7 Q 1723.4 1431.8 1724.5 1429.0 L 1753.8 1352.9 Q 1754.9 1350.1 1756.5 1347.6 L 1799.9 1278.4 Q 1801.5 1275.8 1803.5 1273.6 L 1887.8 1180.8 Q 1889.8 1178.6 1892.2 1176.7 L 1956.3 1126.1 Q 1958.6 1124.2 1961.3 1122.8 L 2071.1 1062.1 Q 2073.7 1060.6 2076.5 1059.5 L 2111.1 1046.1 Q 2113.9 1045.0 2116.9 1045.1 L 2417.8 1050.3 Q 2420.8 1050.4 2423.6 1051.5 L 2662.5 1145.6 Q 2665.3 1146.7 2667.9 1148.2 L 2929.3 1296.9 Q 2932.0 1298.4 2934.4 1300.2 L 3419.7 1666.8 Q 3422.1 1668.6 3424.3 1670.6 L 3615.2 1843.0 Q 3617.4 1845.0 3619.8 1846.8 L 3686.1 1894.2 Q 3688.5 1896.0 3691.4 1895.3 L 3725.2 1887.4 Q 3728.1 1886.7 3730.4 1884.8 L 3794.1 1833.6 Q 3796.5 1831.7 3798.7 1829.7 L 4114.9 1534.3 Q 4117.1 1532.3 4119.3 1530.3 L 4314.0 1362.2 Q 4316.2 1360.2 4318.6 1358.4 L 4696.2 1067.6 Q 4698.5 1065.7 4701.1 1064.1 L 4842.1 971.0 Q 4844.6 969.3 4847.6 968.6 L 5097.7 910.9 Q 5100.7 910.3 5103.6 910.7 L 5227.9 927.2 Q 5230.8 927.6 5233.7 928.4 L 5396.6 974.5 Q 5399.5 975.4 5402.1 976.9 L 5548.7 1060.8 Q 5551.3 1062.3 5553.7 1064.1 L 5653.9 1139.5 Q 5656.3 1141.3 5658.2 1143.6 L 5681.9 1173.1 Q 5683.8 1175.4 5685.3 1178.0 L 5726.7 1248.4 Q 5728.2 1250.9 5729.2 1253.8 L 5754.7 1331.0 Q 5755.7 1333.9 5755.1 1336.8 L 5747.7 1373.5 Q 5747.1 1376.4 5745.5 1379.0 L 5725.5 1410.9 Q 5723.9 1413.4 5721.6 1415.3 L 5692.5 1439.3 Q 5690.2 1441.2 5687.4 1442.4 L 5612.2 1473.8 Q 5609.5 1475.0 5606.5 1475.6 L 5354.7 1527.3 Q 5351.7 1527.9 5348.8 1528.7 L 5016.3 1619.4 Q 5013.4 1620.2 5010.5 1621.2 L 4809.1 1690.8 Q 4806.3 1691.7 4803.5 1692.9 L 4566.2 1791.0 Q 4563.4 1792.2 4560.8 1793.6 L 4107.4 2048.1 Q 4104.8 2049.6 4102.4 2051.4 L 3968.0 2154.4 Q 3965.6 2156.2 3963.9 2158.7 L 3942.7 2189.4 Q 3941.0 2191.9 3941.3 2194.9 L 3944.7 2231.8 Q 3945.0 2234.8 3946.4 2237.5 L 3963.9 2271.0 Q 3965.3 2273.6 3967.0 2276.1 L 4167.2 2557.0 Q 4168.9 2559.4 4170.5 2561.9 L 4353.6 2854.3 Q 4355.2 2856.9 4356.5 2859.5 L 4592.2 3323.1 Q 4593.5 3325.7 4595.9 3327.6 L 4625.8 3350.1 Q 4628.2 3351.9 4631.1 3352.6 L 4667.9 3360.9 Q 4670.8 3361.6 4673.8 3361.5 L 4755.3 3357.6 Q 4758.3 3357.4 4761.2 3357.0 L 5015.3 3318.9 Q 5018.3 3318.5 5021.3 3318.8 L 5059.0 3322.2 Q 5061.9 3322.5 5064.7 3323.6 L 5139.6 3355.0 Q 5142.3 3356.1 5144.6 3358.1 L 5269.9 3471.7 Q 5272.1 3473.8 5273.8 3476.2 L 5344.3 3579.7 Q 5346.0 3582.2 5346.9 3585.0 L 5383.3 3704.6 Q 5384.2 3707.4 5384.0 3710.4 L 5377.9 3791.3 Q 5377.7 3794.3 5376.3 3797.0 L 5359.3 3830.6 Q 5358.0 3833.3 5355.7 3835.2 L 5327.1 3859.5 Q 5324.8 3861.4 5321.9 3861.8 L 5241.1 3871.9 Q 5238.1 3872.2 5235.1 3872.3 L 3881.1 3884.8 Q 3878.1 3884.9 3875.4 3886.3 L 3845.8 3902.2 Q 3843.1 3903.6 3841.7 3906.2 L 3824.1 3939.0 Q 3822.6 3941.6 3822.8 3944.6 L 3838.2 4376.9 Q 3838.3 4379.9 3838.0 4382.8 L 3829.1 4463.6 Q 3828.7 4466.6 3827.1 4469.1 L 3783.2 4537.6 Q 3781.6 4540.1 3779.1 4541.8 L 3748.1 4562.6 Q 3745.6 4564.3 3742.7 4564.7 L 3662.2 4576.2 Q 3659.2 4576.6 3656.3 4576.1 Z"/>
</g>
</svg>
