<svg xmlns="http://www.w3.org/2000/svg" viewBox="0 0 1157.83 1418.69">
<g transform="translate(386.92,1045.42) scale(0.100000,-0.100000)" fill="#000000" stroke="none" fill-rule="evenodd">
<path d="M 150.0 6558.0 L 152.3 6558.6 Q 150.0 6558.0 147.7 6557.3 L 2.3 6511.8 Q 0.0 6511.1 0.0 6508.7 L 0.0 6169.4 Q 0.0 6167.0 2.3 6166.4 L 215.0 6105.6 Q 217.3 6104.9 219.7 6104.9 L 1648.2 6090.0 Q 1650.6 6090.0 1653.0 6089.4 L 1703.7 6077.0 Q 1706.1 6076.4 1706.9 6074.1 L 1742.7 5975.8 Q 1743.5 5973.6 1743.5 5971.2 L 1739.9 2937.0 Q 1739.9 2934.6 1738.6 2932.6 L 1680.9 2842.5 Q 1679.6 2840.5 1677.5 2839.4 L 1526.3 2769.2 Q 1524.1 2768.2 1521.8 2767.5 L 1198.4 2669.5 Q 1196.1 2668.8 1194.0 2667.6 L 904.6 2494.0 Q 902.5 2492.8 900.7 2491.2 L 686.0 2309.8 Q 684.2 2308.2 682.8 2306.3 L 520.1 2076.3 Q 518.7 2074.3 517.6 2072.2 L 366.2 1769.4 Q 365.1 1767.2 365.0 1764.8 L 346.2 1312.8 Q 346.1 1310.4 346.5 1308.0 L 373.9 1144.6 Q 374.3 1142.2 375.3 1140.1 L 528.4 838.0 Q 529.5 835.9 531.0 834.0 L 778.0 525.0 Q 779.5 523.2 781.5 521.8 L 1012.3 360.7 Q 1014.3 359.4 1016.5 358.3 L 1322.2 211.7 Q 1324.3 210.6 1326.7 210.3 L 1773.2 136.8 Q 1775.6 136.4 1778.0 136.5 L 2289.0 152.3 Q 2291.3 152.4 2293.7 152.9 L 2570.1 207.3 Q 2572.5 207.8 2574.6 208.8 L 2878.3 358.1 Q 2880.4 359.1 2882.4 360.4 L 3118.4 514.4 Q 3120.4 515.7 3121.8 517.6 L 3293.1 740.1 Q 3294.5 742.0 3295.6 744.1 L 3504.1 1146.0 Q 3505.3 1148.1 3505.4 1150.5 L 3527.9 1603.1 Q 3528.0 1605.5 3527.7 1607.9 L 3504.0 1772.8 Q 3503.7 1775.2 3502.7 1777.4 L 3334.8 2136.4 Q 3333.8 2138.6 3332.3 2140.5 L 3158.0 2361.3 Q 3156.5 2363.2 3154.6 2364.7 L 2976.9 2501.6 Q 2975.0 2503.1 2972.9 2504.3 L 2684.8 2680.0 Q 2682.8 2681.2 2680.5 2681.9 L 2410.4 2758.0 Q 2408.1 2758.7 2406.1 2759.9 L 2361.8 2787.8 Q 2359.7 2789.1 2358.6 2791.2 L 2306.0 2885.6 Q 2304.9 2887.7 2304.9 2890.1 L 2290.5 5979.9 Q 2290.5 5982.3 2291.9 5984.2 L 2354.7 6070.8 Q 2356.2 6072.7 2358.4 6073.4 L 2408.2 6089.3 Q 2410.5 6090.0 2412.9 6090.0 L 3611.9 6104.9 Q 3614.3 6104.9 3616.6 6105.5 L 3833.5 6161.2 Q 3835.8 6161.8 3835.8 6164.2 L 3840.0 6500.3 Q 3840.0 6502.7 3838.2 6504.3 L 3811.7 6528.8 Q 3810.0 6530.4 3807.6 6531.0 L 3589.7 6580.5 Q 3587.3 6581.0 3584.9 6581.0 L 263.7 6585.0 Q 261.3 6585.0 258.9 6584.4 Z M 2015.0 2329.0 L 2012.6 2329.1 Q 2015.0 2329.0 2017.4 2329.0 L 2161.1 2326.4 Q 2163.5 2326.4 2165.8 2325.6 L 2371.7 2254.7 Q 2374.0 2253.9 2376.0 2252.6 L 2714.2 2034.2 Q 2716.2 2032.9 2717.8 2031.1 L 2859.5 1865.4 Q 2861.1 1863.5 2862.3 1861.5 L 2972.3 1673.6 Q 2973.5 1671.5 2973.5 1669.1 L 2968.8 1266.6 Q 2968.8 1264.2 2967.7 1262.1 L 2869.1 1068.9 Q 2868.0 1066.7 2866.4 1064.9 L 2679.6 840.4 Q 2678.1 838.6 2676.0 837.4 L 2393.7 668.3 Q 2391.6 667.1 2389.3 666.4 L 2287.8 634.6 Q 2285.5 633.9 2283.2 633.7 L 2102.9 618.7 Q 2100.5 618.5 2098.1 618.4 L 1768.4 617.2 Q 1766.0 617.2 1763.6 617.4 L 1584.2 638.6 Q 1581.8 638.9 1579.7 640.0 L 1227.5 834.4 Q 1225.4 835.6 1223.9 837.4 L 984.7 1114.6 Q 983.1 1116.4 982.1 1118.6 L 953.3 1181.5 Q 952.3 1183.6 951.9 1186.0 L 933.2 1328.3 Q 932.9 1330.7 933.0 1333.1 L 950.2 1736.0 Q 950.3 1738.4 951.4 1740.6 L 998.3 1835.4 Q 999.3 1837.6 1000.9 1839.4 L 1165.9 2034.1 Q 1167.5 2036.0 1169.4 2037.3 L 1409.8 2202.7 Q 1411.8 2204.0 1414.0 2205.0 L 1715.7 2334.4 Q 1717.9 2335.4 1720.3 2335.3 Z"/>
</g>
</svg>
