<svg xmlns="http://www.w3.org/2000/svg" viewBox="0 0 1802.882 325.163">
<g transform="translate(-233.576684,1064.007675) scale(0.100000,-0.100000)" fill="#000000" stroke="none">
<path d="M10670 10320 c-96 -4 -328 -13 -515 -19 -402 -13 -607 -29 -925 -70
-296 -38 -602 -67 -924 -86 -874 -53 -1257 -102 -1634 -210 -354 -101 -792
-166 -1302 -195 -472 -26 -612 -64 -783 -212 -54 -47 -137 -106 -184 -133
-160 -89 -203 -149 -268 -376 -171 -589 68 -893 617 -784 392 77 552 127 700
217 195 118 283 149 569 203 268 50 368 77 511 136 68 28 159 66 203 85 156
65 377 111 645 136 204 18 4197 18 4495 0 796 -50 1048 -84 1550 -212 321 -81
466 -111 718 -145 372 -51 534 -98 683 -201 114 -77 199 -108 464 -168 250
-56 285 -72 403 -183 122 -115 146 -127 447 -222 140 -44 313 -100 383 -125
219 -76 328 -72 538 24 63 29 170 74 239 101 154 61 215 102 280 189 60 81 99
118 202 189 79 54 126 108 192 218 36 60 65 90 191 191 73 59 101 107 160 282
48 140 68 182 164 355 155 277 175 653 45 812 -92 112 -348 149 -581 84 -60
-16 -231 -48 -383 -71 -313 -47 -356 -55 -605 -115 -391 -95 -569 -111 -823
-76 -314 43 -377 51 -532 71 -362 46 -925 90 -1460 115 -783 36 -1297 77
-1745 140 -379 54 -438 57 -1015 60 -300 1 -624 -1 -720 -5z"/>
</g>
</svg>
