<svg xmlns="http://www.w3.org/2000/svg" viewBox="0 0 1188.20 1445.40">
<g transform="translate(394.00,1066.20) scale(0.100000,-0.100000)" fill="#000000" stroke="none" fill-rule="evenodd">
<path d="M 1807.0 6638.0 L 1808.7 6639.7 Q 1807.0 6638.0 1806.2 6635.7 L 1760.9 6510.4 Q 1760.1 6508.2 1760.0 6505.8 L 1756.4 6372.4 Q 1756.3 6370.0 1756.3 6367.6 L 1746.5 1256.2 Q 1746.5 1253.8 1746.4 1251.4 L 1719.4 845.8 Q 1719.3 843.5 1716.9 842.9 L 1589.2 814.7 Q 1586.9 814.2 1584.5 814.2 L 206.7 802.8 Q 204.3 802.8 202.0 802.0 L 76.3 758.0 Q 74.0 757.2 72.5 755.3 L 3.5 669.3 Q 2.0 667.4 2.0 665.0 L 2.0 255.0 Q 2.0 252.6 4.2 251.7 L 242.8 150.9 Q 245.0 150.0 247.4 150.0 L 3976.0 150.0 Q 3978.4 150.0 3978.8 152.4 L 3999.6 264.3 Q 4000.0 266.7 4000.0 269.1 L 3991.3 808.6 Q 3991.2 811.0 3988.8 811.0 L 2334.5 816.3 Q 2332.1 816.3 2330.4 818.0 L 2251.9 902.1 Q 2250.2 903.8 2250.2 906.2 L 2231.1 6432.1 Q 2231.1 6434.5 2230.6 6436.9 L 2208.1 6566.3 Q 2207.7 6568.6 2206.7 6570.8 L 2153.5 6693.2 Q 2152.6 6695.4 2150.2 6695.6 L 1893.5 6719.8 Q 1891.1 6720.0 1889.4 6718.3 Z"/>
</g>
</svg>
