<svg xmlns="http://www.w3.org/2000/svg" viewBox="0 0 1154.91 1442.80">
<g transform="translate(377.42,1049.49) scale(0.100000,-0.100000)" fill="#000000" stroke="none" fill-rule="evenodd">
<path d="M 166.4 6514.0 L 166.1 6516.4 Q 166.4 6514.0 166.4 6511.6 L 166.4 6032.2 Q 166.4 6029.8 168.8 6029.8 L 1633.1 6025.8 Q 1635.5 6025.8 1637.7 6024.9 L 1734.4 5985.4 Q 1736.7 5984.4 1738.0 5982.5 L 1798.1 5895.7 Q 1799.5 5893.7 1799.5 5891.3 L 1799.7 2956.9 Q 1799.7 2954.5 1799.6 2952.1 L 1778.9 2458.9 Q 1778.8 2456.6 1776.9 2455.1 L 1739.8 2426.6 Q 1737.9 2425.1 1735.5 2424.8 L 1630.7 2411.4 Q 1628.3 2411.1 1625.9 2411.1 L 466.5 2395.0 Q 464.1 2394.9 462.1 2393.6 L 377.4 2335.2 Q 375.4 2333.8 375.4 2331.4 L 367.9 2005.9 Q 367.9 2003.5 369.1 2001.4 L 395.4 1959.3 Q 396.7 1957.3 399.0 1956.6 L 499.2 1928.0 Q 501.5 1927.3 503.9 1927.3 L 2662.1 1922.5 Q 2664.5 1922.5 2666.8 1922.0 L 2770.6 1902.7 Q 2773.0 1902.3 2774.9 1900.8 L 2814.8 1870.9 Q 2816.7 1869.5 2816.8 1867.1 L 2818.5 1818.8 Q 2818.6 1816.4 2816.8 1814.8 L 2778.3 1783.0 Q 2776.4 1781.5 2774.3 1780.4 L 2093.8 1421.0 Q 2091.7 1419.9 2089.6 1418.7 L 1150.9 843.8 Q 1148.9 842.6 1146.8 841.4 L 668.2 578.5 Q 666.1 577.3 664.6 575.4 L 530.9 406.4 Q 529.4 404.5 529.5 402.1 L 543.9 20.4 Q 544.0 18.0 546.3 17.2 L 585.0 2.7 Q 587.3 1.8 589.5 2.7 L 632.6 19.5 Q 634.8 20.3 636.2 22.3 L 698.0 107.1 Q 699.4 109.1 701.4 110.3 L 744.7 136.5 Q 746.7 137.8 748.9 138.9 L 1187.6 363.1 Q 1189.7 364.2 1191.6 365.6 L 1319.7 463.7 Q 1321.6 465.2 1323.7 466.4 L 1843.6 773.0 Q 1845.7 774.2 1847.9 775.2 L 2145.5 908.3 Q 2147.7 909.3 2149.9 908.3 L 2800.4 618.5 Q 2802.6 617.6 2804.5 616.2 L 2935.1 521.9 Q 2937.0 520.5 2939.2 519.5 L 3437.8 293.5 Q 3440.0 292.5 3442.0 291.2 L 3577.6 204.0 Q 3579.6 202.7 3581.9 201.9 L 3681.7 167.1 Q 3684.0 166.3 3686.4 166.1 L 3837.6 156.2 Q 3840.0 156.1 3840.0 158.5 L 3840.0 597.4 Q 3840.0 599.8 3838.4 601.6 L 3814.5 629.0 Q 3812.9 630.8 3810.5 631.2 L 3651.9 658.8 Q 3649.5 659.2 3647.6 660.6 L 3517.5 755.5 Q 3515.6 756.9 3513.4 757.9 L 2965.2 1009.8 Q 2963.0 1010.8 2960.9 1011.9 L 2724.4 1145.0 Q 2722.3 1146.1 2720.8 1148.1 L 2690.7 1187.7 Q 2689.3 1189.6 2689.8 1191.9 L 2700.4 1239.5 Q 2701.0 1241.9 2702.7 1243.5 L 2739.0 1278.5 Q 2740.8 1280.1 2742.8 1281.4 L 3207.7 1573.5 Q 3209.8 1574.7 3211.9 1575.9 L 3595.9 1782.1 Q 3598.0 1783.2 3600.0 1784.6 L 3729.5 1880.6 Q 3731.5 1882.0 3733.8 1882.6 L 3835.4 1911.8 Q 3837.7 1912.5 3837.6 1914.9 L 3827.3 2395.2 Q 3827.2 2397.6 3824.8 2397.6 L 2445.1 2425.8 Q 2442.7 2425.9 2442.0 2428.1 L 2410.7 2523.5 Q 2410.0 2525.7 2409.9 2528.1 L 2398.8 3577.0 Q 2398.8 3579.4 2398.8 3581.8 L 2405.4 5518.2 Q 2405.4 5520.6 2405.5 5523.0 L 2428.7 5959.4 Q 2428.9 5961.8 2430.3 5963.7 L 2460.9 6003.5 Q 2462.3 6005.4 2464.6 6006.2 L 2511.3 6024.3 Q 2513.5 6025.1 2515.9 6025.1 L 3837.6 6024.1 Q 3840.0 6024.1 3840.0 6026.5 L 3840.0 6520.9 Q 3840.0 6523.3 3838.9 6525.4 L 3822.3 6557.9 Q 3821.2 6560.0 3818.8 6560.0 L 163.1 6560.0 Q 160.7 6560.0 161.0 6557.6 Z"/>
</g>
</svg>
