<svg xmlns="http://www.w3.org/2000/svg" viewBox="0 0 1179.00 1422.74">
<g transform="translate(374.98,1060.62) scale(0.100000,-0.100000)" fill="#000000" stroke="none" fill-rule="evenodd">
<path d="M 210.0 6708.0 L 212.4 6708.3 Q 210.0 6708.0 208.6 6706.0 L 131.8 6598.1 Q 130.4 6596.1 130.4 6593.7 L 132.2 6454.5 Q 132.3 6452.1 132.6 6449.8 L 155.1 6314.2 Q 155.5 6311.8 157.6 6310.7 L 272.6 6249.2 Q 274.7 6248.1 277.1 6248.1 L 1713.1 6246.9 Q 1715.5 6246.9 1717.9 6246.7 L 1856.6 6236.2 Q 1859.0 6236.0 1860.2 6234.0 L 1923.1 6125.8 Q 1924.3 6123.7 1924.3 6121.3 L 1923.3 2812.5 Q 1923.3 2810.1 1921.6 2808.4 L 1836.6 2724.6 Q 1834.9 2722.9 1832.5 2722.8 L 829.4 2705.9 Q 827.0 2705.8 825.3 2704.1 L 737.3 2614.6 Q 735.6 2612.9 735.6 2610.5 L 729.0 454.2 Q 729.0 451.8 729.7 449.5 L 766.5 321.1 Q 767.2 318.8 769.3 317.8 L 889.0 260.0 Q 891.2 259.0 893.6 259.0 L 3194.0 260.2 Q 3196.4 260.2 3198.8 260.4 L 3623.5 288.3 Q 3625.9 288.5 3626.5 290.8 L 3658.2 421.9 Q 3658.7 424.3 3658.8 426.7 L 3666.1 709.9 Q 3666.1 712.3 3666.1 714.7 L 3660.5 2582.8 Q 3660.5 2585.2 3659.3 2587.3 L 3601.8 2698.3 Q 3600.7 2700.4 3598.3 2700.5 L 2596.9 2734.6 Q 2594.5 2734.7 2593.8 2737.0 L 2557.4 2863.2 Q 2556.8 2865.5 2556.8 2867.9 L 2563.0 6176.7 Q 2563.0 6179.1 2565.1 6180.3 L 2674.7 6241.9 Q 2676.8 6243.0 2679.2 6243.0 L 4115.1 6250.0 Q 4117.5 6250.0 4118.4 6252.2 L 4159.1 6349.3 Q 4160.0 6351.6 4160.0 6354.0 L 4160.0 6637.3 Q 4160.0 6639.7 4158.5 6641.6 L 4097.7 6718.1 Q 4096.2 6720.0 4093.8 6720.0 L 352.7 6726.0 Q 350.3 6726.0 347.9 6725.7 Z M 2999.0 2213.0 L 2996.6 2213.2 Q 2999.0 2213.0 2999.9 2210.8 L 3041.0 2113.9 Q 3042.0 2111.7 3042.1 2109.3 L 3047.3 1999.7 Q 3047.4 1997.3 3047.4 1994.9 L 3045.4 1083.7 Q 3045.4 1081.3 3045.3 1078.9 L 3037.8 854.9 Q 3037.7 852.5 3036.3 850.5 L 2978.0 765.0 Q 2976.6 763.0 2974.2 763.0 L 1491.5 754.7 Q 1489.1 754.6 1486.8 755.3 L 1384.2 783.1 Q 1381.9 783.7 1380.6 785.7 L 1327.6 873.8 Q 1326.3 875.9 1326.2 878.3 L 1319.7 987.8 Q 1319.6 990.2 1319.6 992.6 L 1319.2 1903.8 Q 1319.2 1906.2 1319.3 1908.6 L 1329.2 2132.5 Q 1329.3 2134.9 1330.9 2136.6 L 1398.8 2211.9 Q 1400.4 2213.7 1402.8 2213.8 L 2771.5 2234.9 Q 2773.9 2235.0 2776.3 2234.7 Z"/>
</g>
</svg>
