<svg xmlns="http://www.w3.org/2000/svg" viewBox="0 0 877.86 830.83">
<g transform="translate(238.44,591.42) scale(0.100000,-0.100000)" fill="#000000" stroke="none" fill-rule="evenodd">
<path d="M 561.0 3415.0 L 561.5 3417.3 Q 561.0 3415.0 560.8 3412.6 L 550.4 3278.4 Q 550.2 3276.0 552.1 3274.5 L 618.5 3218.7 Q 620.4 3217.1 622.7 3216.5 L 708.7 3195.1 Q 711.0 3194.5 713.4 3194.8 L 1313.0 3282.6 Q 1315.4 3282.9 1317.8 3283.1 L 1641.4 3305.1 Q 1643.8 3305.3 1646.2 3305.3 L 2346.7 3305.3 Q 2349.1 3305.3 2351.5 3304.8 L 2438.4 3287.6 Q 2440.8 3287.1 2441.7 3284.9 L 2456.5 3249.6 Q 2457.5 3247.4 2456.1 3245.4 L 2329.0 3055.2 Q 2327.7 3053.2 2326.0 3051.5 L 2064.5 2787.8 Q 2062.8 2786.1 2060.7 2784.9 L 1984.5 2741.9 Q 1982.4 2740.8 1980.0 2741.3 L 1895.1 2761.2 Q 1892.8 2761.8 1890.8 2763.1 L 1779.4 2840.7 Q 1777.5 2842.0 1775.3 2843.0 L 1519.5 2949.2 Q 1517.3 2950.2 1514.9 2950.3 L 1426.5 2956.0 Q 1424.1 2956.1 1422.1 2954.8 L 1351.0 2906.7 Q 1349.0 2905.3 1348.8 2903.0 L 1340.5 2816.3 Q 1340.2 2813.9 1341.5 2811.8 L 1363.0 2775.9 Q 1364.3 2773.9 1366.3 2772.5 L 1754.2 2516.4 Q 1756.2 2515.1 1758.0 2513.4 L 1925.2 2356.3 Q 1927.0 2354.6 1928.1 2352.5 L 1992.6 2233.4 Q 1993.7 2231.3 1993.2 2229.0 L 1976.3 2147.4 Q 1975.8 2145.1 1973.4 2144.9 L 385.1 2033.8 Q 382.7 2033.6 380.3 2033.2 L 14.4 1970.7 Q 12.1 1970.3 12.1 1967.9 L 9.7 1526.4 Q 9.7 1524.0 12.0 1524.8 L 497.5 1688.2 Q 499.7 1688.9 502.1 1689.4 L 773.8 1743.6 Q 776.1 1744.1 778.5 1744.2 L 1195.6 1777.4 Q 1198.0 1777.6 1200.4 1777.7 L 1900.9 1791.8 Q 1903.3 1791.9 1905.7 1791.7 L 1994.7 1786.9 Q 1997.1 1786.8 1999.0 1785.4 L 2069.7 1736.8 Q 2071.6 1735.5 2072.1 1733.1 L 2096.4 1601.0 Q 2096.8 1598.7 2096.7 1596.3 L 2058.1 1038.5 Q 2058.0 1036.1 2057.1 1033.9 L 2009.6 906.8 Q 2008.7 904.6 2007.5 902.5 L 1887.3 706.2 Q 1886.1 704.1 1884.2 702.7 L 1813.0 649.9 Q 1811.1 648.4 1808.8 647.6 L 1593.2 567.7 Q 1590.9 566.9 1588.6 566.6 L 1453.7 549.4 Q 1451.3 549.1 1448.9 549.4 L 1126.8 581.5 Q 1124.4 581.7 1122.5 580.3 L 1056.0 529.1 Q 1054.1 527.7 1054.7 525.4 L 1141.0 215.0 Q 1141.7 212.7 1142.9 210.6 L 1258.2 13.1 Q 1259.4 11.0 1261.8 11.0 L 1765.6 0.1 Q 1768.0 0.0 1769.7 1.7 L 1859.8 89.8 Q 1861.5 91.5 1863.6 92.6 L 2066.2 198.6 Q 2068.3 199.8 2069.9 201.5 L 2227.2 368.9 Q 2228.9 370.7 2229.7 372.9 L 2350.3 722.7 Q 2351.1 724.9 2351.3 727.3 L 2382.1 1050.1 Q 2382.3 1052.5 2382.4 1054.9 L 2394.6 1661.3 Q 2394.6 1663.7 2395.8 1665.8 L 2437.4 1740.2 Q 2438.5 1742.3 2440.8 1742.9 L 2526.1 1764.7 Q 2528.4 1765.3 2530.8 1764.9 L 2850.6 1712.8 Q 2853.0 1712.4 2855.2 1711.5 L 3366.8 1487.2 Q 3369.0 1486.2 3371.4 1486.0 L 3505.9 1473.0 Q 3508.3 1472.7 3510.6 1473.4 L 3594.8 1498.4 Q 3597.1 1499.1 3599.0 1500.4 L 3749.2 1605.6 Q 3751.2 1606.9 3752.8 1608.7 L 3813.2 1672.8 Q 3814.8 1674.6 3816.0 1676.7 L 3880.0 1796.8 Q 3881.1 1798.9 3883.2 1800.1 L 3997.9 1863.5 Q 4000.0 1864.7 4000.0 1867.1 L 4000.0 2097.4 Q 4000.0 2099.8 3998.2 2101.4 L 3978.0 2119.8 Q 3976.2 2121.4 3973.8 2121.2 L 3416.9 2068.1 Q 3414.5 2067.9 3412.1 2067.9 L 2664.6 2077.8 Q 2662.2 2077.9 2659.8 2078.1 L 2430.4 2096.3 Q 2428.0 2096.5 2425.8 2097.5 L 2344.8 2132.3 Q 2342.6 2133.3 2341.0 2135.1 L 2314.6 2167.8 Q 2313.1 2169.6 2312.3 2171.9 L 2225.6 2434.7 Q 2224.9 2437.0 2225.4 2439.3 L 2254.4 2567.7 Q 2254.9 2570.0 2256.7 2571.7 L 2733.4 3017.5 Q 2735.1 3019.1 2737.0 3020.6 L 3173.6 3369.2 Q 3175.4 3370.7 3176.3 3373.0 L 3226.2 3497.0 Q 3227.1 3499.3 3225.3 3500.9 L 3206.8 3518.4 Q 3205.1 3520.0 3202.7 3520.0 L 620.8 3520.0 Q 618.4 3520.0 616.1 3519.2 L 584.2 3507.5 Q 582.0 3506.7 581.4 3504.4 Z"/>
</g>
</svg>
