<svg xmlns="http://www.w3.org/2000/svg" viewBox="0 0 743.57 776.13">
<g transform="translate(211.46,564.46) scale(0.100000,-0.100000)" fill="#000000" stroke="none" fill-rule="evenodd">
<path d="M 2550.0 3510.0 L 2552.4 3510.2 Q 2550.0 3510.0 2547.6 3509.6 L 1809.1 3387.9 Q 1806.7 3387.5 1804.4 3387.2 L 1274.7 3326.6 Q 1272.3 3326.3 1270.0 3325.7 L 964.3 3242.1 Q 961.9 3241.5 959.6 3241.4 L 266.0 3201.8 Q 263.6 3201.7 261.2 3201.2 L 4.6 3151.1 Q 2.3 3150.6 2.3 3148.2 L 2.2 3099.7 Q 2.2 3097.3 4.1 3095.9 L 41.0 3071.4 Q 43.0 3070.1 45.2 3069.1 L 236.8 2984.1 Q 239.0 2983.1 241.4 2982.6 L 341.0 2961.7 Q 343.4 2961.2 345.7 2961.7 L 867.9 3067.5 Q 870.3 3067.9 872.6 3068.7 L 1174.5 3164.2 Q 1176.8 3165.0 1179.2 3164.8 L 1333.0 3155.6 Q 1335.4 3155.4 1337.0 3153.7 L 1408.0 3081.3 Q 1409.7 3079.6 1410.2 3077.2 L 1447.5 2872.0 Q 1447.9 2869.6 1447.9 2867.2 L 1452.0 1903.4 Q 1452.0 1901.0 1451.9 1898.6 L 1395.7 452.1 Q 1395.6 449.7 1396.0 447.4 L 1458.4 27.1 Q 1458.7 24.7 1460.6 23.2 L 1489.0 1.5 Q 1490.9 0.0 1493.3 0.3 L 1587.3 10.1 Q 1589.7 10.4 1590.4 12.7 L 1667.3 264.9 Q 1668.0 267.2 1668.0 269.6 L 1669.1 1985.4 Q 1669.1 1987.8 1671.2 1989.0 L 1756.8 2036.4 Q 1758.9 2037.6 1761.2 2036.9 L 1859.3 2010.5 Q 1861.6 2009.9 1863.4 2008.4 L 2312.1 1631.6 Q 2313.9 1630.0 2316.0 1628.9 L 2406.1 1579.8 Q 2408.2 1578.7 2410.6 1578.4 L 2509.7 1569.0 Q 2512.1 1568.8 2513.8 1570.6 L 2583.3 1643.4 Q 2585.0 1645.1 2585.5 1647.5 L 2597.1 1694.8 Q 2597.7 1697.2 2597.1 1699.5 L 2557.6 1848.7 Q 2556.9 1851.0 2555.3 1852.8 L 2377.4 2045.7 Q 2375.8 2047.5 2373.5 2048.3 L 1769.7 2260.2 Q 1767.5 2261.0 1765.6 2262.6 L 1690.7 2326.3 Q 1688.9 2327.9 1688.9 2330.3 L 1684.1 2754.8 Q 1684.1 2757.2 1684.4 2759.6 L 1733.0 3125.7 Q 1733.4 3128.1 1735.4 3129.3 L 1822.8 3178.2 Q 1824.9 3179.4 1827.2 3179.5 L 1983.5 3189.6 Q 1985.9 3189.8 1988.3 3189.8 L 3112.2 3186.6 Q 3114.6 3186.5 3116.5 3188.1 L 3194.2 3251.2 Q 3196.0 3252.7 3196.4 3255.1 L 3204.1 3302.9 Q 3204.4 3305.2 3203.4 3307.4 L 3160.1 3398.9 Q 3159.0 3401.1 3157.1 3402.5 L 3031.8 3493.7 Q 3029.8 3495.1 3027.5 3495.5 L 2820.7 3527.5 Q 2818.3 3527.9 2815.9 3527.7 Z"/>
</g>
</svg>
