<svg xmlns="http://www.w3.org/2000/svg" viewBox="0 0 815.59 732.87">
<g transform="translate(222.43,510.43) scale(0.100000,-0.100000)" fill="#000000" stroke="none" fill-rule="evenodd">
<path d="M 0.0 1440.0 L 0.0 1442.4 Q 0.0 1440.0 0.0 1437.6 L 0.0 62.3 Q 0.0 59.9 1.6 58.1 L 53.5 1.8 Q 55.1 0.0 57.5 0.0 L 742.7 3.9 Q 745.1 3.9 747.3 4.8 L 845.9 44.1 Q 848.1 45.0 850.5 45.2 L 960.1 55.0 Q 962.5 55.2 964.9 55.3 L 2225.2 64.8 Q 2227.6 64.9 2230.0 64.7 L 2339.4 57.6 Q 2341.8 57.4 2343.9 56.2 L 2437.6 1.2 Q 2439.7 0.0 2442.1 0.0 L 3587.4 4.8 Q 3589.8 4.8 3590.9 6.9 L 3632.5 82.2 Q 3633.7 84.3 3633.9 86.7 L 3644.7 196.3 Q 3645.0 198.7 3645.0 201.1 L 3707.2 2495.4 Q 3707.2 2497.8 3707.2 2500.2 L 3699.8 2840.2 Q 3699.7 2842.6 3697.5 2843.7 L 3622.6 2879.0 Q 3620.4 2880.0 3618.0 2880.0 L 57.5 2880.0 Q 55.1 2880.0 53.5 2878.2 L 1.6 2821.9 Q 0.0 2820.1 0.0 2817.7 Z M 1209.0 2455.0 L 1206.7 2455.6 Q 1209.0 2455.0 1210.3 2453.0 L 1263.9 2365.5 Q 1265.2 2363.5 1265.3 2361.1 L 1272.9 2089.1 Q 1272.9 2086.7 1272.2 2084.4 L 1222.7 1930.9 Q 1221.9 1928.6 1220.7 1926.5 L 1086.3 1689.1 Q 1085.1 1687.0 1083.5 1685.3 L 1011.0 1607.9 Q 1009.3 1606.2 1007.2 1605.2 L 861.8 1536.3 Q 859.6 1535.3 857.3 1534.8 L 644.1 1492.4 Q 641.8 1492.0 639.5 1492.7 L 542.8 1524.7 Q 540.5 1525.4 539.2 1527.4 L 511.9 1569.6 Q 510.5 1571.6 510.3 1574.0 L 492.1 1734.3 Q 491.8 1736.7 491.9 1739.1 L 495.4 2178.9 Q 495.4 2181.3 495.8 2183.7 L 520.0 2342.9 Q 520.4 2345.3 521.9 2347.1 L 553.8 2385.7 Q 555.3 2387.5 557.6 2388.2 L 659.0 2417.5 Q 661.3 2418.2 663.7 2418.3 L 991.3 2432.5 Q 993.7 2432.6 996.1 2433.1 L 1153.4 2467.6 Q 1155.7 2468.1 1158.1 2467.5 Z M 1988.0 2450.0 L 1985.7 2450.6 Q 1988.0 2450.0 1989.6 2448.2 L 2030.1 2403.1 Q 2031.7 2401.3 2032.3 2399.0 L 2062.9 2275.4 Q 2063.4 2273.1 2063.5 2270.7 L 2085.9 1480.0 Q 2086.0 1477.6 2086.5 1475.3 L 2129.3 1287.5 Q 2129.9 1285.1 2131.5 1283.4 L 2309.8 1095.2 Q 2311.4 1093.5 2313.6 1092.4 L 2487.5 1009.9 Q 2489.6 1008.8 2492.0 1008.6 L 2883.0 972.3 Q 2885.4 972.1 2887.8 972.4 L 2948.3 981.8 Q 2950.7 982.1 2952.8 983.3 L 3122.1 1077.4 Q 3124.2 1078.6 3126.6 1078.9 L 3186.6 1087.8 Q 3189.0 1088.1 3191.0 1086.8 L 3240.6 1052.8 Q 3242.6 1051.4 3242.7 1049.0 L 3254.1 660.7 Q 3254.2 658.3 3253.8 655.9 L 3235.0 530.1 Q 3234.6 527.8 3233.0 526.0 L 3192.8 481.2 Q 3191.2 479.4 3188.8 479.0 L 3063.9 457.6 Q 3061.5 457.2 3059.1 457.3 L 2136.1 495.4 Q 2133.7 495.5 2131.3 495.5 L 676.7 506.1 Q 674.3 506.1 671.9 506.5 L 547.2 524.9 Q 544.8 525.3 543.5 527.2 L 509.6 577.0 Q 508.3 579.0 507.9 581.4 L 490.1 707.7 Q 489.7 710.1 489.9 712.5 L 508.7 970.1 Q 508.8 972.5 510.4 974.4 L 549.1 1021.2 Q 550.6 1023.0 553.0 1023.3 L 611.0 1030.4 Q 613.3 1030.7 615.5 1029.6 L 786.4 939.3 Q 788.5 938.2 790.9 937.9 L 983.9 919.3 Q 986.3 919.1 988.5 920.1 L 1161.6 1001.8 Q 1163.8 1002.9 1165.6 1004.5 L 1260.3 1090.2 Q 1262.1 1091.8 1263.7 1093.6 L 1392.2 1238.7 Q 1393.8 1240.5 1394.9 1242.7 L 1560.5 1598.6 Q 1561.5 1600.7 1561.8 1603.1 L 1644.0 2255.9 Q 1644.3 2258.3 1645.0 2260.6 L 1684.6 2381.4 Q 1685.4 2383.7 1687.4 2385.1 L 1791.0 2453.6 Q 1793.0 2454.9 1795.4 2455.2 L 1922.1 2467.1 Q 1924.5 2467.3 1926.8 2466.7 Z M 2830.0 2460.0 L 2827.6 2459.9 Q 2830.0 2460.0 2832.4 2459.6 L 3203.2 2401.5 Q 3205.6 2401.2 3207.4 2399.6 L 3283.0 2331.3 Q 3284.8 2329.7 3285.2 2327.4 L 3313.8 2173.2 Q 3314.3 2170.9 3314.1 2168.5 L 3278.8 1685.2 Q 3278.6 1682.8 3278.2 1680.5 L 3268.4 1632.0 Q 3267.9 1629.7 3266.3 1627.9 L 3197.2 1553.2 Q 3195.5 1551.4 3193.2 1551.0 L 2875.6 1503.6 Q 2873.2 1503.3 2870.8 1503.3 L 2658.6 1501.7 Q 2656.2 1501.7 2653.9 1502.5 L 2507.3 1557.7 Q 2505.1 1558.5 2503.5 1560.4 L 2439.1 1639.5 Q 2437.5 1641.3 2437.3 1643.7 L 2417.0 1854.5 Q 2416.8 1856.9 2416.9 1859.3 L 2443.3 2342.4 Q 2443.5 2344.8 2444.6 2346.9 L 2467.4 2390.6 Q 2468.6 2392.7 2470.6 2393.9 L 2558.2 2446.1 Q 2560.3 2447.3 2562.7 2447.4 Z"/>
</g>
</svg>
