<svg xmlns="http://www.w3.org/2000/svg" viewBox="0 0 368.000000 807.088839">
<g transform="translate(-0.000000,832.000000) scale(0.100000,-0.100000)" fill="#000000" stroke="none">
<path d="M1617 8163 c-4 -87 -7 -1353 -7 -2813 0 -1897 -3 -2666 -11 -2695 -7
-26 -33 -62 -74 -105 -34 -36 -70 -79 -78 -96 -9 -17 -43 -61 -76 -97 -33 -37
-73 -90 -87 -119 -14 -29 -50 -77 -79 -107 -28 -31 -70 -83 -93 -116 -22 -33
-58 -77 -80 -97 -22 -20 -53 -58 -68 -85 -15 -26 -51 -75 -79 -108 -29 -33
-64 -79 -79 -103 -14 -23 -48 -66 -75 -96 -27 -30 -67 -85 -89 -122 -22 -38
-59 -87 -82 -109 -23 -22 -59 -65 -80 -95 -21 -30 -55 -71 -75 -90 -21 -19
-62 -71 -91 -115 -192 -283 -241 -343 -291 -359 -22 -7 -23 -12 -23 -127 0
-91 3 -119 13 -119 7 0 40 -23 72 -50 120 -101 -83 -91 1767 -90 980 0 1658 4
1709 10 46 5 92 10 102 10 16 0 17 17 17 225 0 220 0 225 -20 225 -53 0 -115
49 -165 129 -15 25 -47 65 -70 90 -23 25 -54 65 -69 89 -14 23 -47 61 -72 85
-25 23 -61 66 -81 96 -20 30 -53 70 -73 90 -20 20 -64 74 -97 121 -33 47 -71
94 -83 105 -12 11 -44 52 -71 91 -26 39 -62 84 -79 100 -17 16 -47 54 -67 84
-20 30 -67 88 -105 128 -37 39 -68 77 -68 82 0 5 -30 42 -66 81 -36 40 -80 95
-98 123 -18 28 -55 76 -83 106 -46 50 -112 141 -188 258 -37 57 -33 -311 -34
3015 -1 2727 -1 2727 -234 2727 -234 0 -234 0 -240 -157z m278 -5919 c14 -9
38 -38 55 -66 17 -27 50 -71 74 -96 23 -26 56 -67 73 -92 17 -25 48 -61 68
-80 20 -19 51 -55 68 -80 16 -25 56 -74 87 -110 31 -36 71 -87 90 -115 18 -27
52 -70 75 -95 23 -25 63 -77 89 -117 26 -39 58 -78 71 -87 13 -9 47 -49 74
-89 27 -39 66 -88 86 -107 20 -19 61 -66 90 -105 28 -38 62 -79 75 -90 46 -41
78 -132 60 -174 -23 -56 31 -54 -1090 -52 -746 2 -1055 -1 -1103 -9 -149 -26
-217 69 -133 188 15 20 47 69 73 107 26 39 75 100 110 137 35 37 63 72 63 78
0 5 31 43 69 82 37 40 82 98 99 128 17 31 52 80 78 110 25 29 63 79 84 109 20
31 58 79 83 107 25 27 62 78 81 112 20 34 52 73 70 87 19 14 46 45 62 68 39
58 131 172 180 224 46 48 93 57 139 27z"/>
</g>
</svg>
