<svg xmlns="http://www.w3.org/2000/svg" viewBox="0 0 460.347961 1009.029069">
<g transform="translate(0.347961,1040.000000) scale(0.100000,-0.100000)" fill="#000000" stroke="none">
<path d="M2026 10384 c-3 -9 -6 -1573 -6 -3477 0 -3960 11 -3582 -109 -3711
-31 -34 -77 -90 -101 -126 -24 -36 -69 -93 -99 -126 -31 -34 -77 -97 -103
-140 -26 -44 -74 -109 -107 -146 -33 -37 -74 -89 -92 -115 -19 -26 -66 -84
-105 -129 -40 -44 -92 -112 -117 -150 -25 -38 -66 -93 -92 -123 -26 -30 -64
-80 -85 -110 -21 -31 -65 -87 -98 -125 -33 -38 -80 -103 -106 -146 -25 -42
-74 -108 -109 -146 -34 -38 -78 -89 -97 -114 -19 -25 -64 -79 -100 -120 -37
-41 -84 -102 -105 -135 -21 -33 -59 -87 -85 -120 -25 -33 -79 -108 -118 -166
-69 -102 -117 -148 -169 -164 -32 -9 -37 -325 -5 -325 9 0 59 -29 110 -64 154
-107 -86 -96 2180 -96 1296 0 2027 4 2090 10 53 6 121 13 150 16 52 5 52 5 52
285 0 274 0 279 -20 279 -61 0 -142 61 -210 160 -21 30 -61 81 -89 113 -27 31
-65 79 -82 105 -18 26 -60 76 -94 112 -34 36 -81 92 -105 125 -24 33 -67 85
-95 116 -28 31 -77 93 -109 138 -31 45 -79 106 -105 134 -26 29 -69 84 -96
122 -27 39 -73 96 -102 128 -29 32 -71 85 -94 118 -22 33 -69 91 -103 127 -34
37 -78 90 -96 117 -19 28 -57 75 -86 105 -28 30 -77 91 -109 135 -32 44 -84
110 -116 146 -78 89 -237 320 -255 371 -13 36 -14 478 -14 3446 0 1872 -3
3466 -6 3543 -7 139 -7 139 -294 139 -253 0 -289 -2 -294 -16z m330 -7580 c21
-10 54 -44 85 -87 29 -39 68 -89 88 -111 21 -23 55 -66 76 -96 22 -30 67 -84
100 -120 34 -36 76 -87 95 -115 18 -27 61 -81 95 -120 34 -38 86 -104 115
-145 29 -41 79 -104 110 -140 31 -36 76 -93 99 -128 23 -34 68 -90 100 -125
31 -34 73 -84 91 -112 19 -27 64 -82 100 -120 60 -66 175 -205 228 -279 69
-95 58 -205 -25 -237 -64 -24 -2803 -12 -2829 12 -44 41 -49 113 -14 179 36
68 158 238 223 312 41 46 87 103 104 128 17 25 63 81 102 124 38 42 85 102
102 133 17 30 53 81 79 112 25 31 71 90 100 131 30 41 79 104 111 140 31 36
81 103 111 150 31 47 74 103 97 125 24 22 59 63 79 90 210 289 281 345 378
299z"/>
</g>
</svg>
