<svg xmlns="http://www.w3.org/2000/svg" viewBox="0 0 229.983317 504.113278">
<g transform="translate(-0.016683,520.000000) scale(0.100000,-0.100000)" fill="#000000" stroke="none">
<path d="M1010 3451 c0 -962 -3 -1763 -6 -1780 -4 -18 -22 -46 -41 -64 -19
-18 -45 -50 -59 -73 -13 -22 -35 -51 -50 -65 -14 -13 -35 -41 -45 -61 -11 -21
-38 -60 -62 -87 -107 -126 -187 -227 -232 -294 -14 -21 -40 -54 -59 -75 -18
-20 -44 -58 -59 -84 -15 -26 -36 -53 -47 -61 -11 -8 -34 -34 -52 -58 -17 -24
-40 -50 -50 -59 -10 -8 -35 -40 -56 -71 -20 -31 -58 -88 -84 -127 -26 -40 -61
-78 -78 -87 -29 -15 -30 -18 -30 -83 0 -65 1 -68 38 -98 87 -72 -26 -65 1143
-65 578 0 1067 3 1085 7 l34 6 0 138 0 138 -30 7 c-16 4 -42 22 -57 41 -15 19
-42 51 -59 72 -17 20 -41 53 -54 72 -13 19 -40 51 -59 71 -52 53 -162 190
-232 289 -18 25 -48 64 -68 87 -20 23 -58 69 -86 102 -27 34 -70 85 -95 114
-25 29 -60 73 -77 98 -18 24 -48 63 -65 86 -18 22 -50 65 -70 93 l-38 53 0
1783 0 1784 -150 0 -150 0 0 -1749z m170 -2041 c5 0 19 -17 31 -37 12 -21 38
-56 56 -78 117 -139 142 -170 181 -217 82 -101 122 -153 158 -206 19 -29 42
-56 49 -59 8 -3 24 -21 37 -41 19 -33 48 -67 148 -177 59 -64 77 -135 40 -155
-13 -7 -250 -11 -732 -11 -679 -1 -713 0 -726 18 -15 21 -9 57 17 93 10 14 35
50 56 80 21 30 47 61 57 68 10 7 29 33 44 58 14 24 36 51 48 59 11 8 37 39 56
69 50 77 98 141 153 204 26 30 47 59 47 63 0 5 21 34 48 64 94 109 117 138
135 167 18 30 53 50 75 42 8 -2 17 -4 22 -4z"/>
</g>
</svg>
