<svg xmlns="http://www.w3.org/2000/svg" viewBox="0 0 155.864886 134.088842">
<g transform="translate(-17.444744,144.531183) scale(0.100000,-0.100000)" fill="#000000" stroke="none">
<path d="M227 1431 c-75 -37 -69 -122 16 -218 36 -40 61 -80 76 -124 25 -67
43 -98 97 -162 18 -22 47 -75 65 -119 18 -45 56 -112 85 -151 29 -38 59 -86
65 -106 18 -56 54 -121 101 -183 24 -31 54 -85 68 -120 82 -208 236 -187 325
43 14 35 45 89 70 119 25 30 61 92 80 138 19 46 55 109 79 140 49 63 66 95 96
174 11 29 38 75 61 103 46 56 60 81 90 159 12 34 40 78 70 110 73 80 82 154
24 192 -34 22 -1421 27 -1468 5z"/>
</g>
</svg>
