<svg xmlns="http://www.w3.org/2000/svg" viewBox="0 0 97.665382 84.364572">
<g transform="translate(-10.946651,90.364572) scale(0.100000,-0.100000)" fill="#000000" stroke="none">
<path d="M133 887 c-36 -29 -31 -72 16 -122 22 -24 45 -61 50 -83 6 -22 25
-57 42 -78 17 -22 45 -68 61 -104 16 -36 40 -76 53 -90 13 -14 33 -49 45 -79
12 -30 34 -71 50 -91 16 -20 40 -61 53 -92 25 -56 57 -88 88 -88 30 0 81 52
105 107 13 28 39 72 58 97 19 25 40 62 46 83 7 21 29 61 50 88 21 28 43 67 49
87 7 20 28 57 47 82 19 25 42 65 50 88 8 24 30 59 49 78 43 45 52 79 28 109
l-18 22 -449 2 c-422 2 -451 1 -473 -16z"/>
</g>
</svg>
