<svg xmlns="http://www.w3.org/2000/svg" viewBox="0 0 294.219496 258.778490">
<g transform="translate(-29.428650,279.849862) scale(0.100000,-0.100000)" fill="#000000" stroke="none">
<path d="M505 2795 c-5 -2 -22 -6 -37 -9 -50 -11 -88 -53 -88 -98 0 -27 -13
-63 -39 -114 -65 -122 -63 -214 9 -414 50 -139 87 -197 173 -270 89 -75 118
-115 163 -220 65 -154 97 -196 238 -313 57 -48 88 -100 126 -212 40 -117 71
-168 128 -206 119 -81 140 -115 188 -317 39 -165 55 -210 90 -264 82 -126 365
-190 509 -116 111 58 160 137 206 342 50 222 60 243 156 312 78 56 113 106
153 220 41 120 67 162 120 201 120 88 127 97 213 271 81 165 83 168 183 267
114 112 135 146 187 310 70 221 71 294 7 411 -28 50 -40 84 -40 112 0 46 -26
73 -89 93 -33 10 -2525 24 -2556 14z m1857 -608 c89 -52 109 -153 68 -340 -27
-119 -45 -154 -100 -194 -132 -96 -163 -137 -224 -300 -70 -186 -132 -237
-286 -236 -246 0 -343 69 -415 293 -39 120 -89 186 -196 258 -61 41 -76 67
-105 179 -27 109 -32 219 -10 262 20 38 80 89 114 97 15 3 30 6 35 7 4 1 247
2 540 1 534 0 534 0 579 -27z"/>
</g>
</svg>
