<svg xmlns="http://www.w3.org/2000/svg" viewBox="0 0 183.667027 161.519522">
<g transform="translate(-18.273366,175.032932) scale(0.100000,-0.100000)" fill="#000000" stroke="none">
<path d="M270 1737 c-19 -10 -26 -23 -31 -57 -4 -25 -19 -67 -33 -95 -24 -44
-26 -57 -21 -105 4 -30 21 -93 38 -140 27 -76 38 -92 102 -155 58 -57 80 -88
117 -165 38 -81 54 -104 109 -152 65 -56 78 -78 120 -191 17 -48 30 -64 76
-98 63 -47 81 -80 113 -215 30 -126 52 -162 124 -199 51 -26 70 -30 140 -30
140 0 188 48 235 236 15 63 33 124 39 136 6 11 34 37 61 57 50 37 76 80 102
165 13 45 47 85 112 134 28 21 50 55 87 132 40 82 63 115 111 161 71 69 90
102 124 219 32 110 33 178 3 225 -12 19 -24 55 -27 80 -5 41 -9 46 -41 57 -52
18 -1625 18 -1660 0z m1177 -356 c12 -1 35 -15 52 -32 27 -27 31 -37 31 -85 0
-80 -27 -189 -53 -214 -12 -11 -40 -33 -62 -48 -40 -29 -47 -40 -120 -195 -47
-101 -65 -111 -189 -105 -57 3 -102 10 -122 20 -39 21 -73 74 -109 168 -28 75
-53 106 -128 163 -43 32 -69 106 -71 199 -1 66 22 107 71 123 23 8 520 12 700
6z"/>
</g>
</svg>
