<svg xmlns="http://www.w3.org/2000/svg" viewBox="0 0 366.231847 322.766613">
<g transform="translate(-37.837858,348.558459) scale(0.100000,-0.100000)" fill="#000000" stroke="none">
<path d="M633 3479 c-90 -16 -143 -59 -158 -129 -3 -19 -27 -80 -53 -135 -104
-226 -13 -620 187 -809 167 -157 169 -160 241 -311 84 -177 132 -248 212 -317
169 -145 187 -170 253 -353 47 -130 73 -172 140 -231 190 -165 187 -160 255
-432 84 -334 156 -423 388 -483 249 -64 448 18 545 222 34 74 44 105 92 312
39 171 52 193 177 309 119 110 136 136 198 299 51 135 82 182 153 237 134 102
170 149 270 351 92 186 92 186 210 306 254 258 368 660 253 895 -20 41 -44
100 -53 130 -23 82 -52 105 -163 130 -61 14 -3068 22 -3147 9z m1337 -719
c198 -7 373 -6 573 2 483 19 567 -51 497 -414 -37 -190 -64 -237 -193 -332
-80 -59 -136 -132 -176 -233 -131 -324 -202 -389 -421 -386 -284 3 -384 78
-494 368 -54 141 -97 207 -173 266 -146 113 -167 143 -202 290 -55 225 -27
350 91 410 82 42 83 42 498 29z"/>
</g>
</svg>
