<svg xmlns="http://www.w3.org/2000/svg" viewBox="0 0 180.840996 892.552006">
<g transform="translate(-2.000000,900.000000) scale(0.100000,-0.100000)" fill="#000000" stroke="none">
<path d="M645 8980 c-31 -34 -96 -58 -220 -81 -164 -30 -283 -87 -355 -170
-27 -31 -50 -62 -50 -68 0 -5 21 -22 46 -37 72 -42 112 -38 235 23 73 37 125
55 176 63 40 7 112 23 160 36 70 20 121 26 250 31 174 6 234 -1 358 -42 39
-13 89 -29 111 -35 44 -11 148 -89 204 -153 22 -25 38 -60 51 -109 22 -88 23
-135 5 -249 -14 -89 -32 -135 -61 -159 -9 -8 -25 -31 -36 -52 -11 -21 -54 -71
-96 -110 -42 -40 -120 -116 -173 -168 -103 -100 -195 -179 -251 -212 -40 -23
-230 -217 -266 -269 -37 -56 -57 -199 -42 -298 15 -104 30 -144 75 -197 72
-85 169 -175 231 -215 83 -53 190 -194 199 -262 11 -81 -2 -127 -66 -223 -55
-85 -119 -149 -240 -245 -27 -21 -68 -66 -92 -99 -24 -34 -53 -75 -65 -91 -32
-44 -57 -168 -50 -248 12 -132 24 -167 88 -239 56 -64 74 -80 184 -162 110
-82 140 -116 174 -200 19 -45 36 -103 38 -128 4 -42 -1 -54 -43 -119 -32 -47
-61 -79 -87 -94 -23 -12 -57 -37 -76 -54 -20 -18 -54 -42 -76 -53 -22 -12 -69
-53 -104 -92 -55 -62 -67 -83 -92 -161 -34 -105 -36 -149 -9 -239 18 -60 27
-73 98 -141 43 -41 102 -92 132 -114 91 -67 162 -138 181 -180 20 -44 25 -130
9 -184 -5 -18 -29 -54 -52 -80 -24 -26 -50 -56 -59 -67 -9 -10 -32 -33 -50
-50 -71 -65 -111 -126 -155 -235 -59 -148 -60 -210 -7 -339 35 -86 53 -113
170 -248 47 -55 103 -181 103 -233 0 -47 -62 -223 -91 -261 -16 -20 -45 -70
-64 -110 -20 -40 -46 -91 -60 -113 -35 -59 -48 -157 -35 -272 10 -96 25 -138
56 -164 9 -8 30 -43 46 -78 15 -35 39 -76 52 -92 43 -50 51 -93 51 -259 0
-177 -11 -236 -61 -327 -19 -34 -34 -72 -34 -86 0 -55 79 -108 132 -88 66 25
131 151 153 298 26 174 14 411 -24 482 -10 20 -40 76 -65 125 -25 49 -54 99
-65 110 -37 41 -45 70 -45 151 0 83 11 115 59 180 12 17 30 50 39 75 9 25 33
65 52 89 19 24 39 62 45 85 6 23 20 66 31 96 37 102 42 134 31 207 -19 126
-92 254 -228 403 -32 35 -75 146 -75 193 0 22 14 75 30 117 27 67 42 87 121
165 50 49 98 103 106 120 9 16 30 46 48 66 43 48 60 137 51 270 -3 54 -11 110
-16 125 -21 54 -180 228 -234 256 -21 11 -53 34 -71 51 -18 18 -47 45 -64 60
-30 28 -51 79 -51 127 0 43 46 126 85 156 21 16 54 43 74 60 20 17 59 43 88
57 28 15 61 40 73 56 11 17 35 38 51 48 37 22 119 175 130 243 10 67 -5 149
-48 257 -32 80 -50 109 -110 177 -40 44 -92 92 -116 106 -63 36 -184 148 -199
184 -19 46 -14 153 9 206 21 48 148 183 210 225 49 32 141 136 179 200 16 28
43 71 60 97 29 43 33 57 39 154 10 138 -1 186 -66 288 -54 86 -177 212 -244
252 -53 31 -174 166 -186 207 -14 49 -11 153 6 193 18 44 132 169 188 207 23
16 56 41 72 56 17 16 44 36 60 44 27 14 206 181 388 364 38 37 75 84 84 103 8
19 30 58 49 85 39 58 68 176 80 322 6 81 3 105 -21 204 -26 103 -32 118 -90
193 -82 109 -212 197 -325 222 -78 17 -188 68 -197 91 -4 10 -61 13 -268 13
-248 0 -263 -1 -280 -20z"/>
</g>
</svg>
