<svg xmlns="http://www.w3.org/2000/svg" viewBox="0 0 288.156638 1427.844112">
<g transform="translate(-4.843362,1440.000000) scale(0.100000,-0.100000)" fill="#000000" stroke="none">
<path d="M1041 14381 c-31 -57 -163 -107 -387 -145 -127 -22 -162 -33 -239
-71 -49 -24 -116 -55 -148 -69 -95 -41 -239 -206 -216 -247 21 -40 143 -99
205 -99 44 0 157 45 249 99 79 47 130 64 260 86 50 9 160 34 245 56 142 37
172 41 360 50 304 16 423 2 650 -74 58 -20 131 -43 162 -52 64 -17 217 -132
307 -231 77 -84 129 -275 117 -429 -16 -212 -42 -305 -109 -393 -27 -37 -63
-89 -79 -116 -17 -28 -78 -97 -138 -155 -60 -58 -178 -174 -263 -257 -85 -83
-175 -165 -200 -182 -24 -17 -69 -53 -98 -80 -30 -27 -84 -68 -120 -90 -36
-23 -90 -68 -120 -100 -30 -31 -70 -71 -89 -88 -19 -16 -55 -54 -80 -84 -24
-30 -68 -81 -96 -112 -113 -124 -148 -356 -92 -618 24 -112 37 -140 92 -200
23 -25 61 -73 84 -107 23 -34 63 -77 90 -95 26 -18 75 -58 108 -89 34 -32 80
-67 103 -78 90 -46 276 -274 306 -374 33 -112 11 -246 -54 -337 -22 -30 -58
-85 -81 -122 -40 -67 -187 -208 -328 -316 -83 -63 -96 -77 -163 -172 -33 -47
-77 -109 -98 -138 -77 -105 -108 -312 -77 -507 25 -155 40 -190 110 -260 34
-34 76 -81 94 -104 18 -22 59 -57 90 -77 31 -20 75 -53 97 -74 22 -20 68 -56
103 -79 118 -79 152 -126 223 -301 53 -132 61 -207 30 -269 -69 -134 -121
-197 -211 -256 -36 -23 -86 -60 -112 -83 -27 -22 -79 -57 -118 -78 -49 -26
-80 -50 -104 -83 -19 -25 -58 -68 -86 -96 -28 -27 -60 -66 -70 -85 -26 -50
-90 -260 -97 -318 -6 -55 25 -195 62 -277 34 -76 225 -255 410 -385 82 -57
199 -185 227 -247 17 -38 22 -67 21 -143 0 -129 -18 -181 -92 -262 -31 -34
-67 -78 -80 -96 -13 -18 -46 -52 -74 -74 -28 -22 -71 -68 -96 -102 -24 -33
-61 -79 -81 -102 -20 -22 -45 -62 -55 -90 -10 -27 -34 -87 -53 -134 -94 -231
-85 -340 55 -637 8 -18 37 -58 65 -89 27 -31 68 -82 90 -112 22 -30 62 -78 88
-107 54 -60 128 -232 137 -321 10 -96 -87 -369 -167 -469 -22 -27 -53 -85 -70
-128 -16 -42 -47 -103 -68 -135 -95 -140 -120 -279 -92 -512 16 -125 34 -179
81 -235 23 -27 60 -88 81 -134 22 -47 62 -117 89 -155 59 -86 75 -148 84 -346
12 -244 -21 -426 -106 -588 -27 -51 -49 -106 -49 -123 0 -111 125 -191 224
-144 66 31 179 214 204 330 38 170 55 341 48 490 -14 316 -28 383 -106 502
-27 40 -60 104 -75 142 -15 38 -45 91 -66 117 -77 96 -94 145 -94 269 0 133
12 174 72 262 26 38 62 104 81 148 19 44 53 105 77 137 58 75 70 100 94 195
11 44 35 114 53 154 32 72 33 78 33 214 0 140 0 140 -47 245 -25 58 -49 114
-52 126 -4 12 -19 37 -34 56 -70 90 -190 238 -228 280 -54 61 -125 238 -126
313 -1 49 48 200 92 285 10 19 81 99 158 176 77 78 148 157 157 175 10 19 42
62 71 97 85 100 115 248 94 470 -14 157 -29 206 -85 271 -25 29 -59 72 -74 95
-44 63 -181 189 -251 230 -201 118 -307 273 -279 408 23 109 71 177 179 258
25 19 64 51 87 71 23 21 74 55 115 75 47 24 94 58 134 98 33 33 78 77 100 97
58 53 162 263 177 358 23 153 -69 479 -171 602 -115 139 -200 223 -267 262
-38 22 -97 66 -130 97 -33 31 -81 74 -107 94 -134 107 -139 365 -11 525 69 85
219 228 290 275 47 31 83 65 111 103 22 32 60 77 85 100 24 24 59 71 77 105
18 35 51 87 72 116 65 87 79 131 90 271 19 240 2 309 -118 498 -87 137 -263
317 -374 383 -66 39 -253 228 -284 287 -48 94 -45 318 6 395 42 64 230 256
293 298 39 26 84 62 100 80 17 17 57 47 90 67 64 38 137 103 393 350 309 300
349 344 382 416 16 34 49 93 74 130 79 117 136 377 136 618 0 75 -71 355 -106
418 -62 113 -184 242 -304 324 -157 105 -170 112 -308 146 -132 32 -247 85
-287 132 -24 29 -24 29 -449 29 -408 0 -426 -1 -435 -19z"/>
</g>
</svg>
