<svg xmlns="http://www.w3.org/2000/svg" viewBox="0 0 97.167988 1120.000000">
<g transform="translate(-13.388501,1120.000000) scale(0.100000,-0.100000)" fill="#000000" stroke="none">
<path d="M715 11169 c-11 -47 -59 -94 -123 -120 -77 -31 -95 -42 -179 -117
-215 -189 -296 -432 -258 -775 19 -178 33 -227 86 -303 23 -32 55 -85 71 -117
21 -43 68 -98 169 -200 83 -85 152 -164 171 -197 17 -30 43 -71 58 -90 88
-113 85 -196 -12 -350 -46 -72 -197 -232 -271 -287 -26 -19 -65 -61 -86 -92
-21 -31 -55 -76 -76 -101 -157 -187 -167 -728 -17 -902 16 -18 43 -55 62 -83
18 -27 97 -115 175 -195 256 -261 351 -459 288 -601 -47 -104 -209 -290 -377
-431 -24 -21 -56 -59 -72 -85 -15 -27 -45 -71 -66 -99 -127 -169 -147 -662
-32 -822 18 -26 58 -83 87 -127 30 -44 70 -91 89 -105 53 -37 234 -232 256
-277 11 -21 41 -64 65 -96 78 -98 89 -206 33 -302 -32 -54 -258 -290 -317
-331 -46 -31 -176 -199 -215 -276 -105 -206 -96 -646 16 -787 22 -27 55 -74
74 -103 18 -29 94 -114 168 -188 235 -236 318 -374 318 -524 0 -86 -134 -265
-247 -331 -42 -25 -89 -64 -208 -174 -101 -92 -169 -232 -200 -409 -33 -190
13 -476 93 -579 20 -26 59 -82 87 -124 61 -92 217 -243 303 -294 66 -38 107
-88 118 -143 6 -32 6 -32 104 -32 97 0 97 0 119 106 32 148 27 159 -127 295
-160 142 -244 233 -329 353 -68 96 -80 344 -23 474 27 60 144 185 204 218 28
15 71 49 96 74 25 25 68 63 97 84 57 40 172 196 201 270 12 32 16 81 16 221 0
203 -5 231 -64 325 -22 36 -56 97 -76 135 -29 56 -64 98 -178 210 -78 77 -153
156 -166 175 -13 19 -43 56 -66 81 -76 83 -101 172 -89 312 17 204 61 269 403
590 78 73 161 183 198 263 68 146 45 427 -46 552 -16 22 -40 63 -55 91 -28 56
-108 150 -245 291 -118 120 -209 224 -226 258 -40 81 -37 322 6 417 21 48 138
194 199 250 337 305 407 432 399 730 -5 176 -9 192 -77 299 -21 34 -53 90 -70
124 -24 48 -66 98 -168 200 -74 75 -147 153 -161 172 -14 19 -45 55 -68 80
-87 91 -114 212 -88 388 25 172 36 188 333 482 168 166 235 264 275 399 35
118 14 335 -41 431 -14 25 -43 75 -64 113 -41 73 -119 167 -240 287 -41 41
-91 98 -109 125 -19 28 -53 74 -77 103 -63 77 -78 137 -78 312 0 120 4 154 20
197 22 57 133 199 179 229 16 10 66 43 110 73 45 30 115 67 156 83 140 52 153
75 125 228 -18 100 -18 100 -176 100 -157 0 -157 0 -164 -31z"/>
</g>
</svg>
