<svg xmlns="http://www.w3.org/2000/svg" viewBox="0 0 60.689234 700.000000">
<g transform="translate(-8.303309,700.000000) scale(0.100000,-0.100000)" fill="#000000" stroke="none">
<path d="M450 6986 c0 -27 -48 -72 -89 -85 -88 -26 -229 -193 -253 -299 -15
-72 -15 -269 0 -342 7 -32 29 -81 52 -115 22 -33 40 -66 40 -73 0 -6 44 -57
98 -112 125 -128 187 -219 186 -277 -1 -73 -65 -160 -236 -319 -120 -113 -167
-248 -155 -448 8 -122 19 -166 56 -209 15 -17 37 -48 49 -68 12 -20 58 -70
101 -112 80 -76 150 -169 177 -232 17 -41 18 -128 3 -157 -26 -48 -103 -138
-173 -203 -67 -61 -139 -153 -175 -222 -6 -11 -18 -62 -26 -111 -20 -114 -8
-270 26 -330 39 -71 95 -140 175 -219 45 -43 89 -93 98 -111 9 -17 30 -47 47
-66 41 -47 51 -87 37 -149 -10 -48 -21 -61 -142 -182 -197 -195 -224 -239
-247 -403 -12 -89 4 -254 29 -293 64 -98 92 -134 173 -216 50 -51 101 -108
115 -128 13 -19 35 -51 48 -70 26 -38 43 -127 32 -169 -9 -35 -103 -140 -156
-174 -75 -48 -174 -152 -203 -212 -15 -31 -34 -94 -43 -140 -15 -77 -15 -93 1
-195 17 -115 21 -124 100 -241 43 -65 161 -178 214 -206 20 -11 39 -33 49 -58
l17 -40 61 0 60 0 13 74 c9 49 10 80 4 91 -6 9 -51 54 -101 99 -100 90 -186
189 -207 239 -21 52 -28 147 -15 210 9 44 22 70 59 112 26 31 62 65 81 76 60
37 169 142 210 202 48 73 53 96 49 240 -4 110 -5 115 -40 173 -20 32 -44 74
-54 93 -9 19 -58 76 -109 127 -145 146 -184 197 -192 250 -10 66 2 177 23 221
9 21 80 101 158 179 82 82 154 165 175 199 34 58 35 61 35 170 0 115 -9 154
-50 210 -12 17 -31 48 -43 70 -11 22 -77 99 -146 170 -152 156 -161 176 -153
305 3 49 11 99 18 111 23 43 103 135 189 216 95 89 161 187 181 267 8 31 10
83 6 149 -6 91 -9 106 -40 156 -19 31 -44 75 -55 97 -12 23 -35 53 -52 68 -17
14 -61 58 -96 98 -36 40 -78 87 -94 104 -49 54 -63 93 -63 169 0 39 5 95 11
125 14 62 52 110 210 264 74 72 101 106 133 171 41 80 41 80 37 180 -4 105 -5
108 -76 235 -17 30 -66 91 -108 135 -77 79 -162 184 -185 228 -21 38 -24 220
-5 270 32 83 186 215 291 247 77 24 84 41 64 143 l-12 57 -98 0 c-79 0 -99 -3
-99 -14z"/>
</g>
</svg>
